<?xml version="1.0" encoding="UTF-8" standalone="no"?><svg xmlns="http://www.w3.org/2000/svg" xmlns:xlink="http://www.w3.org/1999/xlink" clip-rule="evenodd" stroke-miterlimit="10" viewBox="0 0 1024 768"><desc>SVG generated by Keynote</desc><defs></defs><g transform="matrix(1.00, 0.00, -0.00, -1.00, 0.0, 768.0)"><path d="M 0.0 768.0 L 1024.0 768.0 L 1024.0 0.0 L 0.0 0.0 Z M 0.0 768.0 " fill="#FEFFFF"></path><image xlink:href="../../0C03E216-FB1B-425F-9659-597376289FD1/assets/283C600B2A9535C8CB6DFBD15FA72AED.jpeg" width="2000.00" height="1333.00" transform="matrix(0.58, 0.00, -0.00, -0.58, -64.1, 768.0)"></image><text xml:space="preserve" font-family="AvenirNext-Medium,Avenir Next" font-size="52.0" fill="#FEFFFE" transform="matrix(1.00, 0.00, -0.00, -1.00, 13.2, 701.5)">L</text><text xml:space="preserve" font-family="AvenirNext-Medium,Avenir Next" font-size="52.0" fill="#FEFFFE" transform="matrix(1.00, 0.00, -0.00, -1.00, 39.8, 701.5)">i</text><text xml:space="preserve" font-family="AvenirNext-Medium,Avenir Next" font-size="52.0" fill="#FEFFFE" transform="matrix(1.00, 0.00, -0.00, -1.00, 53.2, 701.5)">s</text><text xml:space="preserve" font-family="AvenirNext-Medium,Avenir Next" font-size="52.0" fill="#FEFFFE" transform="matrix(1.00, 0.00, -0.00, -1.00, 76.3, 701.5)">t</text><text xml:space="preserve" font-family="AvenirNext-Medium,Avenir Next" font-size="52.0" fill="#FEFFFE" transform="matrix(1.00, 0.00, -0.00, -1.00, 93.4, 701.5)">e</text><text xml:space="preserve" font-family="AvenirNext-Medium,Avenir Next" font-size="52.0" fill="#FEFFFE" transform="matrix(1.00, 0.00, -0.00, -1.00, 123.2, 701.5)">n</text><text xml:space="preserve" font-family="AvenirNext-Medium,Avenir Next" font-size="52.0" fill="#FEFFFE" transform="matrix(1.00, 0.00, -0.00, -1.00, 153.5, 701.5)">i</text><text xml:space="preserve" font-family="AvenirNext-Medium,Avenir Next" font-size="52.0" fill="#FEFFFE" transform="matrix(1.00, 0.00, -0.00, -1.00, 167.0, 701.5)">n</text><text xml:space="preserve" font-family="AvenirNext-Medium,Avenir Next" font-size="52.0" fill="#FEFFFE" transform="matrix(1.00, 0.00, -0.00, -1.00, 197.2, 701.5)">g</text><text xml:space="preserve" font-family="AvenirNext-Medium,Avenir Next" font-size="52.0" fill="#FEFFFE" transform="matrix(1.00, 0.00, -0.00, -1.00, 230.1, 701.5)"> </text><text xml:space="preserve" font-family="AvenirNext-Medium,Avenir Next" font-size="52.0" fill="#FEFFFE" transform="matrix(1.00, 0.00, -0.00, -1.00, 243.1, 701.5)">f</text><text xml:space="preserve" font-family="AvenirNext-Medium,Avenir Next" font-size="52.0" fill="#FEFFFE" transform="matrix(1.00, 0.00, -0.00, -1.00, 259.2, 701.5)">o</text><text xml:space="preserve" font-family="AvenirNext-Medium,Avenir Next" font-size="52.0" fill="#FEFFFE" transform="matrix(1.00, 0.00, -0.00, -1.00, 290.9, 701.5)">r</text><text xml:space="preserve" font-family="AvenirNext-Medium,Avenir Next" font-size="52.0" fill="#FEFFFE" transform="matrix(1.00, 0.00, -0.00, -1.00, 737.0, 701.5)">R</text><text xml:space="preserve" font-family="AvenirNext-Medium,Avenir Next" font-size="52.0" fill="#FEFFFE" transform="matrix(1.00, 0.00, -0.00, -1.00, 768.3, 701.5)">e</text><text xml:space="preserve" font-family="AvenirNext-Medium,Avenir Next" font-size="52.0" fill="#FEFFFE" transform="matrix(1.00, 0.00, -0.00, -1.00, 797.8, 701.5)">a</text><text xml:space="preserve" font-family="AvenirNext-Medium,Avenir Next" font-size="52.0" fill="#FEFFFE" transform="matrix(1.00, 0.00, -0.00, -1.00, 826.0, 701.5)">c</text><text xml:space="preserve" font-family="AvenirNext-Medium,Avenir Next" font-size="52.0" fill="#FEFFFE" transform="matrix(1.00, 0.00, -0.00, -1.00, 851.6, 701.5)">t</text><text xml:space="preserve" font-family="AvenirNext-Medium,Avenir Next" font-size="52.0" fill="#FEFFFE" transform="matrix(1.00, 0.00, -0.00, -1.00, 868.8, 701.5)">i</text><text xml:space="preserve" font-family="AvenirNext-Medium,Avenir Next" font-size="52.0" fill="#FEFFFE" transform="matrix(1.00, 0.00, -0.00, -1.00, 882.2, 701.5)">n</text><text xml:space="preserve" font-family="AvenirNext-Medium,Avenir Next" font-size="52.0" fill="#FEFFFE" transform="matrix(1.00, 0.00, -0.00, -1.00, 912.5, 701.5)">g</text><text xml:space="preserve" font-family="AvenirNext-Medium,Avenir Next" font-size="52.0" fill="#FEFFFE" transform="matrix(1.00, 0.00, -0.00, -1.00, 945.3, 701.5)"> </text><text xml:space="preserve" font-family="AvenirNext-Medium,Avenir Next" font-size="52.0" fill="#FEFFFE" transform="matrix(1.00, 0.00, -0.00, -1.00, 958.3, 701.5)">t</text><text xml:space="preserve" font-family="AvenirNext-Medium,Avenir Next" font-size="52.0" fill="#FEFFFE" transform="matrix(1.00, 0.00, -0.00, -1.00, 975.5, 701.5)">o</text><path d="M 0.0 94.0 L 1024.0 94.0 L 1024.0 0.0 L 0.0 0.0 Z M 0.0 94.0 " fill="#000000" fill-opacity="0.66"></path><g><clipPath id="clip0x600000ebd280"><path d="M -17.5 -17.5 L 1041.5 -17.5 L 1041.5 111.5 L -17.5 111.5 Z M -17.5 -17.5 "></path></clipPath><g clip-path="url(#clip0x600000ebd280)"><text xml:space="preserve" font-family="AvenirNext-Medium,Avenir Next" font-size="63.0" fill="#FEFFFE" transform="matrix(1.00, 0.00, -0.00, -1.00, 358.7, 27.1)">C</text><text xml:space="preserve" font-family="AvenirNext-Medium,Avenir Next" font-size="63.0" fill="#FEFFFE" transform="matrix(1.00, 0.00, -0.00, -1.00, 403.3, 27.1)">H</text><text xml:space="preserve" font-family="AvenirNext-Medium,Avenir Next" font-size="63.0" fill="#FEFFFE" transform="matrix(1.00, 0.00, -0.00, -1.00, 449.2, 27.1)">A</text><text xml:space="preserve" font-family="AvenirNext-Medium,Avenir Next" font-size="63.0" fill="#FEFFFE" transform="matrix(1.00, 0.00, -0.00, -1.00, 494.0, 27.1)">N</text><text xml:space="preserve" font-family="AvenirNext-Medium,Avenir Next" font-size="63.0" fill="#FEFFFE" transform="matrix(1.00, 0.00, -0.00, -1.00, 542.6, 27.1)">G</text><text xml:space="preserve" font-family="AvenirNext-Medium,Avenir Next" font-size="63.0" fill="#FEFFFE" transform="matrix(1.00, 0.00, -0.00, -1.00, 591.6, 27.1)">E</text><text xml:space="preserve" font-family="AvenirNext-Medium,Avenir Next" font-size="63.0" fill="#FEFFFE" transform="matrix(1.00, 0.00, -0.00, -1.00, 629.5, 27.1)">S</text></g></g></g></svg>