<?xml version="1.0" encoding="UTF-8" standalone="no"?><svg xmlns="http://www.w3.org/2000/svg" xmlns:xlink="http://www.w3.org/1999/xlink" clip-rule="evenodd" stroke-miterlimit="10" viewBox="0 0 172 39"><desc>SVG generated by Keynote</desc><defs></defs><g transform="matrix(1.00, 0.00, -0.00, -1.00, 0.0, 39.0)"><path d="M 42.9 17.8 C 42.5 18.1 41.5 17.7 41.2 17.9 M 42.9 17.8 C 41.9 16.4 40.1 16.3 37.8 16.0 C 35.3 15.9 37.9 17.3 37.6 17.9 C 34.3 18.5 34.3 17.5 34.7 15.9 C 33.5 17.0 29.7 15.1 30.4 17.0 C 35.8 17.0 26.7 17.5 31.2 18.7 C 31.7 19.0 30.4 19.5 29.9 19.5 C 31.3 20.3 28.8 21.3 31.2 21.9 C 31.5 23.1 31.1 22.6 32.6 23.5 C 33.3 23.7 33.0 23.2 32.9 23.0 C 33.2 21.5 34.8 23.8 36.0 22.9 C 37.1 24.8 38.3 22.5 37.3 21.7 C 38.4 21.9 39.8 23.9 40.9 22.6 C 41.6 23.5 44.6 22.9 42.8 21.7 C 41.5 20.9 42.9 20.3 43.1 19.9 C 42.7 19.5 40.8 20.1 40.6 19.7 C 41.1 19.4 43.5 18.7 41.0 18.8 C 41.8 18.1 40.5 17.7 42.9 17.8 C 42.9 17.8 42.9 17.8 42.9 17.8 Z M 33.8 16.7 C 33.8 16.2 34.7 16.8 33.8 16.7 C 33.8 16.7 33.8 16.7 33.8 16.7 Z M 40.0 23.5 C 40.0 23.0 40.8 23.5 40.0 23.5 C 40.0 23.5 40.0 23.5 40.0 23.5 Z M 33.4 23.0 C 33.3 22.5 34.2 23.0 33.4 23.0 C 33.4 23.0 33.4 23.0 33.4 23.0 Z M 36.2 17.1 C 37.6 17.5 35.0 17.8 34.8 17.3 C 35.1 17.4 35.8 16.6 36.2 17.1 C 36.2 17.1 36.2 17.1 36.2 17.1 Z M 36.4 20.0 C 36.5 19.8 37.1 19.7 37.0 20.3 C 36.6 20.4 36.2 20.2 36.4 20.0 C 36.4 20.0 36.4 20.0 36.4 20.0 Z M 29.3 17.9 C 29.4 17.7 30.0 17.7 29.9 18.2 C 29.6 18.3 29.2 18.1 29.3 17.9 C 29.3 17.9 29.3 17.9 29.3 17.9 Z M 37.8 18.4 C 38.1 18.5 38.3 19.0 37.8 19.0 C 37.6 18.8 36.6 18.7 37.8 18.4 C 37.8 18.4 37.8 18.4 37.8 18.4 Z M 40.0 16.7 C 41.2 17.0 38.8 17.7 38.8 17.5 C 38.4 17.1 39.3 16.3 40.0 16.7 C 40.0 16.7 40.0 16.7 40.0 16.7 Z M 38.5 19.1 C 39.5 19.4 38.0 19.5 38.5 19.1 C 38.5 19.1 38.5 19.1 38.5 19.1 Z M 30.3 21.7 C 31.2 21.9 29.8 22.0 30.3 21.7 C 30.3 21.7 30.3 21.7 30.3 21.7 Z M 35.5 23.2 C 36.4 23.5 35.1 23.6 35.5 23.2 C 35.5 23.2 35.5 23.2 35.5 23.2 Z M 33.5 18.1 C 31.8 18.0 33.3 16.8 33.5 18.1 C 33.5 18.1 33.5 18.1 33.5 18.1 Z M 42.8 16.6 C 41.0 16.6 42.5 15.3 42.8 16.6 C 42.8 16.6 42.8 16.6 42.8 16.6 Z M 164.2 17.1 C 165.8 16.8 159.6 15.1 162.0 17.1 C 162.6 18.8 158.5 18.6 159.5 17.1 C 158.3 16.9 158.3 16.8 157.6 17.6 C 157.4 16.4 154.5 15.8 153.5 16.4 C 152.9 17.4 155.4 16.5 153.8 17.6 C 150.2 17.9 154.0 18.8 152.6 20.1 C 152.5 20.1 152.4 19.5 152.1 19.8 C 152.0 21.1 154.1 22.0 153.1 22.9 C 153.7 22.7 156.3 24.1 155.2 23.0 C 154.8 21.8 158.0 24.5 157.8 22.5 C 158.7 23.4 159.6 22.1 160.4 23.2 C 161.1 23.5 161.0 22.4 161.0 22.2 C 160.9 21.3 161.7 24.2 162.8 22.6 C 162.9 23.1 165.8 22.9 163.6 22.2 C 164.2 22.3 167.6 22.8 165.8 21.0 C 163.5 20.2 168.2 19.2 165.5 19.1 C 163.4 18.9 162.9 19.3 164.5 18.3 C 165.0 18.4 167.4 18.3 165.4 17.5 C 164.9 17.7 163.9 17.5 164.2 17.1 C 164.2 17.1 164.2 17.1 164.2 17.1 Z M 164.6 19.6 C 163.4 19.7 164.5 19.0 164.6 19.6 C 164.6 19.6 164.6 19.6 164.6 19.6 Z M 160.2 23.6 C 159.0 23.7 160.1 23.0 160.2 23.6 C 160.2 23.6 160.2 23.6 160.2 23.6 Z M 160.4 16.6 C 159.8 17.2 159.6 15.3 160.4 16.6 C 160.4 16.6 160.4 16.6 160.4 16.6 Z M 162.3 22.2 C 162.2 22.2 162.5 21.9 162.7 21.8 C 162.7 21.9 162.4 22.2 162.3 22.2 C 162.3 22.2 162.3 22.2 162.3 22.2 Z M 158.3 16.6 C 156.5 17.5 158.0 15.2 158.3 16.6 C 158.3 16.6 158.3 16.6 158.3 16.6 Z M 154.7 18.4 C 154.5 20.2 152.8 18.0 154.7 18.4 C 154.7 18.4 154.7 18.4 154.7 18.4 Z M 157.2 22.4 C 157.5 22.0 157.5 22.6 157.2 22.4 C 157.2 22.4 157.2 22.4 157.2 22.4 Z M 165.1 22.6 C 165.4 22.2 165.4 22.9 165.1 22.6 C 165.1 22.6 165.1 22.6 165.1 22.6 Z M 154.9 22.2 C 155.1 21.5 155.6 22.5 154.9 22.2 C 154.9 22.2 154.9 22.2 154.9 22.2 Z M 160.1 17.3 C 161.7 15.9 162.1 19.5 160.1 17.3 C 160.1 17.3 160.1 17.3 160.1 17.3 Z M 163.0 17.2 C 164.2 16.9 162.8 18.1 162.3 17.9 C 162.4 17.7 162.8 17.3 163.0 17.2 C 163.0 17.2 163.0 17.2 163.0 17.2 Z M 158.3 17.5 C 159.4 16.8 159.4 17.9 158.3 17.5 C 158.3 17.5 158.3 17.5 158.3 17.5 Z M 161.2 16.7 C 161.8 16.9 160.7 16.9 161.2 16.7 C 161.2 16.7 161.2 16.7 161.2 16.7 Z M 156.1 16.0 C 156.6 16.2 155.6 16.2 156.1 16.0 C 156.1 16.0 156.1 16.0 156.1 16.0 Z M 164.4 16.4 C 165.0 16.6 164.0 16.6 164.4 16.4 C 164.4 16.4 164.4 16.4 164.4 16.4 Z M 156.5 17.0 C 156.4 17.6 158.0 19.0 155.1 17.8 C 154.6 17.4 155.8 16.4 156.5 17.0 C 156.5 17.0 156.5 17.0 156.5 17.0 Z M 48.1 17.9 C 40.6 15.8 42.4 19.4 42.1 20.1 C 41.1 21.0 42.1 21.7 43.5 22.3 C 45.1 24.6 45.9 20.0 47.1 22.3 C 49.1 25.3 49.3 19.6 50.2 22.8 C 49.9 23.6 52.8 23.0 52.6 22.8 C 54.0 24.3 56.1 21.6 56.1 21.3 C 57.1 21.7 57.2 24.6 60.3 22.4 C 62.6 21.7 63.6 24.5 63.0 22.6 C 64.7 24.8 64.2 21.9 65.9 22.6 C 67.1 23.8 66.0 20.8 68.1 23.1 C 69.1 21.3 67.1 24.3 72.9 23.0 C 70.1 22.8 75.6 21.5 74.5 22.8 C 72.6 24.1 77.3 22.3 79.9 23.1 C 80.6 22.4 83.8 20.7 83.3 22.6 C 86.0 24.7 86.0 21.3 87.2 23.0 C 88.1 23.7 88.5 22.2 89.1 22.3 C 90.0 23.6 90.9 22.7 94.3 23.1 C 101.7 23.8 95.4 19.8 98.2 19.3 C 98.7 18.7 94.6 14.4 96.2 17.6 C 95.7 16.7 89.6 20.1 92.6 16.5 C 90.3 18.0 93.1 15.1 88.5 16.8 C 94.9 19.3 81.3 17.8 87.4 16.6 C 86.4 15.8 83.8 16.0 85.6 16.6 C 86.4 18.8 81.3 15.6 83.8 18.3 C 79.9 17.5 80.9 20.0 79.8 18.3 C 78.9 15.3 80.0 19.1 78.0 18.2 C 73.4 18.2 77.0 14.8 74.2 17.0 C 69.7 15.5 73.2 18.3 71.6 18.7 C 71.2 20.7 67.0 17.1 70.5 16.8 C 68.7 17.9 70.1 15.9 68.1 17.2 C 69.6 19.1 65.4 15.1 66.0 16.7 C 64.2 17.2 65.1 18.3 64.6 18.3 C 61.8 18.3 62.7 16.5 62.1 17.9 C 61.5 18.6 60.2 16.2 59.8 16.8 C 62.7 16.9 57.5 18.8 57.2 17.8 C 58.9 17.6 56.3 15.3 55.2 16.8 C 56.6 20.9 52.7 15.7 51.5 17.2 C 52.7 19.5 45.3 17.5 48.1 16.4 C 47.9 16.6 48.2 17.9 48.1 17.9 M 59.0 17.1 C 61.3 17.3 56.5 17.6 59.0 17.1 M 58.9 16.5 C 59.9 17.3 56.7 15.9 59.0 16.3 C 59.1 16.3 58.8 16.5 58.9 16.5 M 68.5 16.4 C 68.2 17.1 67.2 16.1 68.5 16.4 M 70.4 17.9 C 71.9 18.5 68.3 18.0 70.4 17.9 M 91.7 17.4 C 89.5 20.8 89.4 15.5 91.7 17.4 M 77.6 16.7 C 75.0 17.2 78.5 15.3 77.6 16.7 M 76.8 17.6 C 75.6 18.1 76.6 16.8 76.8 17.6 M 87.6 17.4 C 87.8 17.5 87.8 17.5 87.6 17.4 C 87.6 17.4 87.6 17.4 87.6 17.4 Z M 93.9 17.5 C 94.0 17.4 94.0 17.4 93.9 17.5 C 93.9 17.5 93.9 17.5 93.9 17.5 Z M 81.5 17.8 C 79.5 17.0 84.7 17.4 81.5 17.8 C 81.5 17.8 81.5 17.8 81.5 17.8 Z M 90.9 22.7 C 90.8 22.8 90.8 22.8 90.9 22.7 C 90.9 22.7 90.9 22.7 90.9 22.7 Z M 57.2 18.7 C 57.1 18.7 57.1 18.7 57.2 18.7 C 57.2 18.7 57.2 18.7 57.2 18.7 Z M 50.0 17.4 C 50.1 17.9 48.7 17.0 50.0 17.4 C 50.0 17.4 50.0 17.4 50.0 17.4 Z M 44.2 21.3 C 44.1 21.4 44.1 21.4 44.2 21.3 C 44.2 21.3 44.2 21.3 44.2 21.3 Z M 54.8 20.5 C 54.7 20.5 54.7 20.5 54.8 20.5 C 54.8 20.5 54.8 20.5 54.8 20.5 Z M 55.8 18.0 C 54.6 16.1 58.5 18.4 55.8 18.0 C 55.8 18.0 55.8 18.0 55.8 18.0 Z M 79.1 22.5 C 79.2 21.7 80.8 22.8 79.1 22.5 C 79.1 22.5 79.1 22.5 79.1 22.5 Z M 70.7 18.6 C 71.0 18.2 71.7 18.8 70.7 18.6 C 70.7 18.6 70.7 18.6 70.7 18.6 Z M 66.7 16.1 C 67.0 15.6 67.8 16.3 66.7 16.1 C 66.7 16.1 66.7 16.1 66.7 16.1 Z M 50.1 16.9 C 50.3 16.8 50.3 16.8 50.1 16.9 C 50.1 16.9 50.1 16.9 50.1 16.9 Z M 52.7 18.3 C 50.9 16.5 55.4 19.3 52.7 18.3 C 52.7 18.3 52.7 18.3 52.7 18.3 Z M 49.6 18.8 C 50.6 19.5 47.3 18.5 49.6 18.8 M 51.4 21.5 C 53.5 20.8 49.4 24.7 51.4 21.5 C 51.4 21.5 51.4 21.5 51.4 21.5 Z M 62.4 22.2 C 62.6 22.3 62.6 22.3 62.4 22.2 C 62.4 22.2 62.4 22.2 62.4 22.2 Z M 61.3 17.1 C 63.2 17.1 60.0 17.5 61.3 17.1 C 61.3 17.1 61.3 17.1 61.3 17.1 Z M 44.6 16.7 C 46.5 16.7 43.4 17.1 44.6 16.7 C 44.6 16.7 44.6 16.7 44.6 16.7 Z M 68.9 20.5 C 72.0 20.2 66.9 21.4 68.9 20.5 C 68.9 20.5 68.9 20.5 68.9 20.5 Z M 80.4 18.4 C 80.5 18.5 80.5 18.5 80.4 18.4 C 80.4 18.4 80.4 18.4 80.4 18.4 Z M 82.6 17.7 C 82.6 17.8 82.6 17.8 82.6 17.7 C 82.6 17.7 82.6 17.7 82.6 17.7 Z M 91.5 19.5 C 91.6 19.6 91.6 19.6 91.5 19.5 C 91.5 19.5 91.5 19.5 91.5 19.5 Z M 84.5 16.9 C 84.6 16.9 84.6 16.9 84.5 16.9 C 84.5 16.9 84.5 16.9 84.5 16.9 Z M 90.7 17.3 C 90.8 17.4 90.8 17.4 90.7 17.3 C 90.7 17.3 90.7 17.3 90.7 17.3 Z M 89.8 15.8 C 90.0 15.9 90.0 15.9 89.8 15.8 C 89.8 15.8 89.8 15.8 89.8 15.8 Z M 76.1 23.5 C 76.2 23.6 76.2 23.6 76.1 23.5 C 76.1 23.5 76.1 23.5 76.1 23.5 Z M 53.5 16.3 C 53.7 16.4 53.7 16.4 53.5 16.3 C 53.5 16.3 53.5 16.3 53.5 16.3 Z M 90.2 18.0 C 90.3 18.1 90.3 18.1 90.2 18.0 C 90.2 18.0 90.2 18.0 90.2 18.0 Z M 75.1 19.4 C 75.1 20.9 73.8 17.4 75.5 19.3 C 75.4 19.4 75.0 19.2 75.1 19.4 M 77.1 21.9 C 77.0 22.0 77.0 22.0 77.1 21.9 C 77.1 21.9 77.1 21.9 77.1 21.9 Z M 70.3 22.8 C 70.2 22.9 70.2 22.9 70.3 22.8 C 70.3 22.8 70.3 22.8 70.3 22.8 Z M 83.4 16.6 C 83.1 15.7 85.1 17.2 83.2 16.6 M 91.6 22.2 C 91.3 21.3 93.3 22.8 91.3 22.2 M 42.4 17.2 C 42.2 17.9 41.1 16.9 42.4 17.2 M 68.7 23.6 C 68.5 24.3 67.4 23.3 68.7 23.6 M 71.9 21.7 C 71.6 20.9 73.6 22.4 71.7 21.8 M 86.8 22.1 C 86.9 22.1 86.9 22.1 86.8 22.1 C 86.8 22.1 86.8 22.1 86.8 22.1 Z M 64.2 17.2 C 64.3 17.3 64.3 17.3 64.2 17.2 C 64.2 17.2 64.2 17.2 64.2 17.2 Z M 72.6 19.0 C 71.4 17.9 74.1 19.8 72.6 19.0 M 61.8 19.2 C 60.1 17.8 64.4 19.7 61.8 19.2 M 95.1 22.5 C 93.3 20.8 96.5 23.5 95.1 22.5 M 85.9 18.2 C 84.1 16.5 87.3 19.1 85.9 18.2 M 65.9 18.0 C 65.8 17.1 67.8 18.5 65.9 18.0 M 46.8 17.1 C 45.0 16.9 49.1 16.4 46.8 17.1 M 82.3 22.2 C 82.4 22.2 82.4 22.2 82.3 22.2 C 82.3 22.2 82.3 22.2 82.3 22.2 Z M 52.5 23.7 C 52.6 23.8 52.6 23.8 52.5 23.7 C 52.5 23.7 52.5 23.7 52.5 23.7 Z M 97.5 16.9 C 97.6 16.9 97.6 16.9 97.5 16.9 C 97.5 16.9 97.5 16.9 97.5 16.9 Z M 84.8 19.0 C 84.9 19.1 84.9 19.1 84.8 19.0 C 84.8 19.0 84.8 19.0 84.8 19.0 Z M 93.9 16.6 C 94.0 16.7 94.0 16.7 93.9 16.6 C 93.9 16.6 93.9 16.6 93.9 16.6 Z M 79.0 20.3 C 79.0 20.4 79.0 20.4 79.0 20.3 C 79.0 20.3 79.0 20.3 79.0 20.3 Z M 77.8 15.9 C 77.9 16.0 77.9 16.0 77.8 15.9 C 77.8 15.9 77.8 15.9 77.8 15.9 Z M 71.5 17.8 C 71.5 17.9 71.5 17.9 71.5 17.8 C 71.5 17.8 71.5 17.8 71.5 17.8 Z M 80.7 16.3 C 84.5 16.0 78.8 17.8 80.7 16.3 C 80.7 16.3 80.7 16.3 80.7 16.3 Z M 74.2 20.7 C 74.2 20.7 74.2 20.7 74.2 20.7 C 74.2 20.7 74.2 20.7 74.2 20.7 Z M 73.6 17.6 C 76.0 16.3 74.9 19.7 73.6 17.6 M 63.1 16.5 C 63.8 15.9 63.5 17.6 63.1 16.5 M 58.9 22.3 C 58.9 22.4 58.9 22.4 58.9 22.3 C 58.9 22.3 58.9 22.3 58.9 22.3 Z M 60.0 21.9 C 60.1 21.9 60.1 21.9 60.0 21.9 C 60.0 21.9 60.0 21.9 60.0 21.9 Z M 60.5 16.3 C 60.6 16.3 60.6 16.3 60.5 16.3 C 60.5 16.3 60.5 16.3 60.5 16.3 Z M 60.2 23.5 C 60.3 23.5 60.3 23.5 60.2 23.5 C 60.2 23.5 60.2 23.5 60.2 23.5 Z M 76.4 16.1 C 76.4 16.1 76.4 16.1 76.4 16.1 C 76.4 16.1 76.4 16.1 76.4 16.1 Z M 95.8 16.0 C 95.8 16.0 95.8 16.0 95.8 16.0 C 95.8 16.0 95.8 16.0 95.8 16.0 Z M 47.3 21.7 C 47.4 21.8 47.4 21.8 47.3 21.7 C 47.3 21.7 47.3 21.7 47.3 21.7 Z M 78.4 17.8 C 78.5 17.9 78.5 17.9 78.4 17.8 C 78.4 17.8 78.4 17.8 78.4 17.8 Z M 56.1 22.1 C 56.2 22.1 56.2 22.1 56.1 22.1 C 56.1 22.1 56.1 22.1 56.1 22.1 Z M 77.1 17.4 C 77.2 17.4 77.2 17.4 77.1 17.4 C 77.1 17.4 77.1 17.4 77.1 17.4 Z M 81.7 22.5 C 81.8 22.6 81.8 22.6 81.7 22.5 C 81.7 22.5 81.7 22.5 81.7 22.5 Z M 85.9 23.5 C 85.9 23.6 85.9 23.6 85.9 23.5 C 85.9 23.5 85.9 23.5 85.9 23.5 Z M 81.4 19.5 C 81.5 19.5 81.5 19.5 81.4 19.5 C 81.4 19.5 81.4 19.5 81.4 19.5 Z M 54.8 20.2 C 47.2 18.6 60.8 19.5 54.8 20.2 M 82.7 19.8 C 77.4 19.5 87.0 18.1 82.7 19.8 C 83.3 19.4 82.8 19.8 82.7 19.8 M 99.4 16.1 C 97.2 17.8 97.2 19.3 98.1 21.0 C 99.2 21.8 99.2 18.6 99.2 21.3 C 96.7 21.8 100.3 25.4 100.3 21.9 C 103.6 21.4 100.8 24.2 102.8 22.7 C 106.3 22.4 104.5 23.5 107.2 23.2 C 108.8 21.3 108.8 24.2 109.5 22.4 C 108.1 24.3 112.4 21.8 112.5 22.7 C 110.0 23.9 121.8 22.7 115.4 22.1 C 118.0 21.2 117.5 22.9 118.4 23.1 C 119.6 21.9 122.7 24.0 124.4 22.9 C 124.1 22.6 123.2 22.5 123.0 22.1 C 122.5 21.4 124.8 22.3 124.6 22.3 C 125.7 21.8 129.9 20.6 125.4 22.7 C 125.2 23.7 129.1 22.3 128.9 23.1 C 132.9 23.2 129.9 21.2 131.7 22.7 C 134.5 22.7 136.5 22.7 136.5 22.5 C 138.2 22.7 138.5 23.8 140.1 22.7 C 143.5 24.8 142.5 18.7 143.8 22.8 C 144.8 21.8 145.7 24.5 145.6 22.0 C 144.4 23.1 151.5 23.9 148.4 22.1 C 149.2 21.5 153.6 24.7 153.0 22.1 C 154.6 20.2 154.3 18.3 150.9 16.5 C 151.2 18.0 147.2 15.0 149.8 17.5 C 152.8 18.4 144.4 18.4 146.1 17.5 C 146.6 14.5 142.1 19.4 140.3 17.3 C 141.7 18.4 134.9 19.0 136.9 16.8 C 135.6 16.6 135.3 17.7 133.9 16.4 C 138.0 16.6 132.4 18.7 132.6 17.4 C 133.3 16.5 127.2 15.8 127.8 17.1 C 130.0 20.2 126.2 16.5 125.2 17.7 C 121.8 18.3 125.7 15.0 123.2 17.3 C 122.5 16.9 118.1 16.9 120.9 16.3 C 122.0 16.6 118.2 19.7 117.8 17.0 C 122.5 15.5 112.2 16.2 113.9 17.0 C 121.2 18.5 106.0 18.7 111.8 17.2 C 108.5 15.8 112.8 16.7 108.7 17.3 C 109.3 18.1 106.1 18.9 106.8 17.2 C 106.2 14.7 105.7 20.6 103.2 17.2 C 102.9 15.7 98.3 18.3 100.1 16.6 C 100.2 16.4 99.5 16.1 99.4 16.1 M 100.8 16.4 C 100.3 17.0 100.0 15.7 100.8 16.4 M 100.3 17.0 C 100.2 16.9 100.2 16.9 100.3 17.0 C 100.3 17.0 100.3 17.0 100.3 17.0 Z M 108.1 17.4 C 108.1 17.3 108.1 17.3 108.1 17.4 C 108.1 17.4 108.1 17.4 108.1 17.4 Z M 114.3 23.7 C 114.3 23.6 114.3 23.6 114.3 23.7 C 114.3 23.7 114.3 23.7 114.3 23.7 Z M 113.4 17.5 C 113.3 17.5 113.3 17.5 113.4 17.5 C 113.4 17.5 113.4 17.5 113.4 17.5 Z M 105.3 17.8 C 105.3 17.8 105.3 17.8 105.3 17.8 C 105.3 17.8 105.3 17.8 105.3 17.8 Z M 112.9 16.6 C 113.3 17.5 111.1 15.9 113.0 16.4 C 113.0 16.5 112.7 16.5 112.9 16.6 M 119.7 16.2 C 119.8 16.3 119.8 16.3 119.7 16.2 M 134.8 23.6 C 134.9 23.8 134.9 23.8 134.8 23.6 M 136.1 16.1 C 136.2 16.3 136.2 16.3 136.1 16.1 M 126.5 17.2 C 128.6 17.1 127.1 17.7 126.5 17.2 M 141.6 16.7 C 139.0 16.1 144.4 16.2 141.6 16.7 M 144.1 16.1 C 144.4 16.2 144.4 16.2 144.1 16.1 M 132.3 16.5 C 132.2 16.6 132.2 16.6 132.3 16.5 C 132.3 16.5 132.3 16.5 132.3 16.5 Z M 125.7 16.8 C 122.9 16.3 128.4 15.9 125.7 16.8 M 109.0 16.5 C 110.6 16.0 109.0 17.7 109.0 16.5 M 105.9 17.0 C 105.9 17.0 105.9 17.0 105.9 17.0 C 105.9 17.0 105.9 17.0 105.9 17.0 Z M 137.4 16.6 C 137.3 16.6 137.3 16.6 137.4 16.6 C 137.4 16.6 137.4 16.6 137.4 16.6 Z M 140.4 16.5 C 140.3 16.5 140.3 16.5 140.4 16.5 C 140.4 16.5 140.4 16.5 140.4 16.5 Z M 145.4 23.4 C 145.3 23.4 145.3 23.4 145.4 23.4 C 145.4 23.4 145.4 23.4 145.4 23.4 Z M 108.2 19.9 C 106.2 19.4 110.3 17.6 109.9 19.3 C 110.1 20.0 108.5 19.7 108.2 19.9 M 123.7 18.9 C 124.2 21.3 121.7 15.7 123.7 18.9 M 144.5 17.7 C 146.6 20.5 141.9 15.7 144.5 17.7 M 148.7 17.2 C 149.9 17.8 140.9 17.5 147.2 16.8 C 147.8 16.3 148.2 16.9 148.7 17.2 M 119.8 17.4 C 120.4 18.7 116.6 16.8 119.8 17.4 M 132.4 21.3 C 133.4 20.4 136.0 19.7 134.9 21.2 C 134.9 23.0 131.2 22.0 132.4 21.3 M 101.5 17.8 C 103.1 15.7 101.4 19.6 101.5 17.8 M 109.4 18.0 C 109.5 17.9 109.5 17.9 109.4 18.0 C 109.4 18.0 109.4 18.0 109.4 18.0 Z M 112.6 17.6 C 112.7 17.8 112.7 17.8 112.6 17.6 M 102.7 15.9 C 102.9 16.1 102.9 16.1 102.7 15.9 M 132.4 19.1 C 132.5 19.3 132.5 19.3 132.4 19.1 M 126.0 17.7 C 129.0 19.8 124.3 18.1 126.0 17.7 M 118.4 21.7 C 119.4 22.7 116.5 21.8 118.4 21.7 M 131.0 16.9 C 133.1 18.9 128.0 18.8 131.0 16.9 M 124.4 17.5 C 124.6 17.5 124.6 17.5 124.4 17.5 C 124.4 17.5 124.4 17.5 124.4 17.5 Z M 133.2 21.5 C 133.2 21.5 133.2 21.5 133.2 21.5 C 133.2 21.5 133.2 21.5 133.2 21.5 Z M 134.2 21.4 C 134.1 21.5 134.1 21.5 134.2 21.4 C 134.2 21.4 134.2 21.4 134.2 21.4 Z M 133.7 16.7 C 133.6 16.8 133.6 16.8 133.7 16.7 C 133.7 16.7 133.7 16.7 133.7 16.7 Z M 105.7 22.4 C 107.9 22.6 104.0 22.7 105.7 22.4 C 105.7 22.4 105.7 22.4 105.7 22.4 Z M 115.4 16.6 C 119.0 18.2 112.9 18.1 115.4 16.6 C 115.4 16.6 115.4 16.6 115.4 16.6 Z M 119.5 19.2 C 119.5 19.3 119.5 19.3 119.5 19.2 C 119.5 19.2 119.5 19.2 119.5 19.2 Z M 129.6 15.7 C 129.6 15.8 129.6 15.8 129.6 15.7 C 129.6 15.7 129.6 15.7 129.6 15.7 Z M 106.8 22.7 C 106.8 22.8 106.8 22.8 106.8 22.7 C 106.8 22.7 106.8 22.7 106.8 22.7 Z M 139.8 17.8 C 139.8 17.9 139.8 17.9 139.8 17.8 C 139.8 17.8 139.8 17.8 139.8 17.8 Z M 127.3 21.8 C 128.1 21.1 127.5 22.4 127.3 21.8 C 127.3 21.8 127.3 21.8 127.3 21.8 Z M 130.6 21.8 C 130.7 21.8 130.7 21.8 130.6 21.8 C 130.6 21.8 130.6 21.8 130.6 21.8 Z M 145.0 16.0 C 145.0 16.0 145.0 16.0 145.0 16.0 C 145.0 16.0 145.0 16.0 145.0 16.0 Z M 138.9 23.7 C 139.0 23.7 139.0 23.7 138.9 23.7 C 138.9 23.7 138.9 23.7 138.9 23.7 Z M 141.6 21.4 C 141.5 21.4 141.5 21.4 141.6 21.4 C 141.6 21.4 141.6 21.4 141.6 21.4 Z M 133.1 17.2 C 136.3 16.8 132.3 18.1 133.1 17.2 C 133.1 17.2 133.1 17.2 133.1 17.2 Z M 149.6 20.7 C 149.7 20.9 149.7 20.9 149.6 20.7 C 149.6 20.7 149.6 20.7 149.6 20.7 Z M 151.3 18.0 C 151.4 18.2 151.4 18.2 151.3 18.0 C 151.3 18.0 151.3 18.0 151.3 18.0 Z M 152.1 16.6 C 152.2 16.7 152.2 16.7 152.1 16.6 C 152.1 16.6 152.1 16.6 152.1 16.6 Z M 112.5 20.5 C 112.4 20.4 112.4 20.4 112.5 20.5 C 112.5 20.5 112.5 20.5 112.5 20.5 Z M 111.2 16.1 C 111.2 16.1 111.2 16.1 111.2 16.1 C 111.2 16.1 111.2 16.1 111.2 16.1 Z M 115.6 15.9 C 115.6 15.9 115.6 15.9 115.6 15.9 C 115.6 15.9 115.6 15.9 115.6 15.9 Z M 111.7 23.2 C 111.7 23.1 111.7 23.1 111.7 23.2 C 111.7 23.2 111.7 23.2 111.7 23.2 Z M 128.2 19.4 C 128.2 19.4 128.2 19.4 128.2 19.4 C 128.2 19.4 128.2 19.4 128.2 19.4 Z M 129.8 21.2 C 129.7 21.1 129.7 21.1 129.8 21.2 C 129.8 21.2 129.8 21.2 129.8 21.2 Z M 126.0 23.6 C 125.9 23.5 125.9 23.5 126.0 23.6 C 126.0 23.6 126.0 23.6 126.0 23.6 Z M 131.0 22.7 C 130.9 22.7 130.9 22.7 131.0 22.7 C 131.0 22.7 131.0 22.7 131.0 22.7 Z M 100.7 22.4 C 100.7 22.4 100.7 22.4 100.7 22.4 C 100.7 22.4 100.7 22.4 100.7 22.4 Z M 100.3 19.0 C 100.3 19.1 100.3 19.1 100.3 19.0 C 100.3 19.0 100.3 19.0 100.3 19.0 Z M 128.7 17.0 C 129.5 16.3 130.2 18.0 128.7 17.0 M 122.4 17.4 C 122.4 17.5 122.4 17.5 122.4 17.4 C 122.4 17.4 122.4 17.4 122.4 17.4 Z M 139.3 17.1 C 140.1 18.5 136.3 16.4 139.3 17.1 C 139.3 17.1 139.3 17.1 139.3 17.1 Z M 136.0 22.7 C 136.0 22.8 136.0 22.8 136.0 22.7 C 136.0 22.7 136.0 22.7 136.0 22.7 Z M 137.6 22.2 C 137.7 22.3 137.7 22.3 137.6 22.2 C 137.6 22.2 137.6 22.2 137.6 22.2 Z M 146.7 18.5 C 146.9 18.7 146.9 18.7 146.7 18.5 M 121.6 16.2 C 122.6 16.8 122.4 16.7 121.6 16.2 M 141.4 17.2 C 141.3 17.2 141.3 17.2 141.4 17.2 C 141.4 17.2 141.4 17.2 141.4 17.2 Z M 148.7 17.8 C 148.6 17.8 148.6 17.8 148.7 17.8 C 148.7 17.8 148.7 17.8 148.7 17.8 Z M 117.2 17.1 C 117.3 18.8 116.5 18.4 117.2 17.1 M 104.7 17.7 C 104.7 17.8 104.7 17.8 104.7 17.7 C 104.7 17.7 104.7 17.7 104.7 17.7 Z M 104.7 17.7 " fill="#5E416F"></path><path d="M 30.7 2.6 C 30.8 1.9 32.8 1.2 31.5 2.5 C 31.4 2.6 30.6 2.9 30.7 2.6 Z M 27.6 4.4 C 27.8 4.2 28.0 4.2 28.2 4.2 C 28.9 4.6 26.7 4.9 27.6 4.4 Z M 32.5 2.3 C 32.5 2.2 33.5 1.6 33.4 1.9 C 33.4 2.2 32.5 2.4 32.5 2.3 Z M 25.5 7.3 C 25.3 7.0 26.4 6.4 26.6 6.4 C 27.4 6.5 25.7 7.9 25.5 7.3 Z M 34.0 12.6 C 34.0 12.7 34.0 12.7 34.0 12.8 C 34.0 12.7 34.0 12.6 34.0 12.6 Z M 10.6 15.3 C 10.7 15.1 11.3 15.1 11.3 15.4 C 11.3 15.8 10.0 15.7 10.6 15.3 Z M 34.6 33.1 C 34.6 33.1 34.8 32.6 35.0 32.8 C 35.2 33.0 34.8 33.2 34.6 33.1 Z M 35.0 33.1 C 35.2 33.0 35.4 33.4 35.1 33.4 C 34.8 33.2 34.7 33.2 35.0 33.1 Z M 18.3 28.7 C 18.2 28.7 18.1 28.7 18.3 28.6 C 18.4 28.5 18.6 28.8 18.3 28.7 Z M 19.0 28.6 C 19.3 28.5 19.3 29.0 19.1 29.0 C 18.8 28.9 18.7 28.8 19.0 28.6 Z M 21.3 31.9 C 21.1 31.8 21.0 31.8 21.2 31.8 C 21.3 31.7 21.5 32.0 21.3 31.9 Z M 35.5 24.6 C 35.6 24.8 35.4 25.4 35.2 25.4 C 34.8 25.3 35.3 24.4 35.5 24.6 Z M 35.6 25.5 C 35.9 25.4 35.9 25.9 35.7 25.7 C 35.5 25.7 35.4 25.5 35.6 25.5 Z M 35.1 22.9 C 34.8 22.9 34.8 22.1 34.8 22.0 C 34.9 21.8 35.0 21.5 35.1 21.3 C 35.2 21.2 35.6 22.9 35.1 22.9 Z M 34.8 17.4 C 34.9 17.4 35.0 17.4 34.9 17.7 C 34.7 17.9 34.7 17.4 34.8 17.4 Z M 35.0 20.5 C 35.1 20.5 35.2 20.5 35.1 20.8 C 35.0 21.0 34.9 20.5 35.0 20.5 Z M 19.2 10.1 C 19.0 10.0 19.9 9.7 20.0 9.7 C 20.1 9.7 19.8 9.9 20.0 9.9 C 20.3 9.8 20.1 10.7 19.2 10.1 Z M 25.9 5.5 C 26.0 5.5 26.2 5.5 26.2 5.7 C 26.2 5.8 25.5 5.9 25.9 5.5 Z M 20.8 10.4 C 20.8 10.3 21.0 10.3 21.0 10.3 C 21.1 10.4 20.9 10.5 20.8 10.4 Z M 20.4 10.9 C 20.5 10.8 21.1 10.8 21.1 11.0 C 21.1 11.4 19.8 11.4 20.4 10.9 Z M 18.1 10.4 C 18.4 10.3 18.4 10.3 18.3 10.4 C 18.2 10.6 18.1 10.4 18.1 10.4 Z M 21.9 7.6 C 22.1 7.5 22.1 7.5 22.0 7.7 C 22.0 7.9 21.9 7.6 21.9 7.6 Z M 16.5 12.0 C 16.5 12.0 16.9 11.4 17.3 11.8 C 17.8 12.3 16.6 12.0 16.5 12.0 Z M 14.1 14.3 C 14.3 14.2 14.3 14.4 14.1 14.5 C 13.9 14.5 13.9 14.3 14.1 14.3 Z M 13.6 15.8 C 13.2 15.9 12.9 15.8 13.4 15.6 C 13.9 15.3 14.0 15.8 13.6 15.8 Z M 14.0 15.3 C 14.1 15.4 13.9 15.5 13.8 15.4 C 13.7 15.3 14.0 15.2 14.0 15.3 Z M 16.0 13.2 C 16.1 12.9 16.6 13.0 16.3 13.3 C 15.9 13.6 15.8 13.5 16.0 13.2 Z M 35.4 9.7 C 35.3 9.5 35.7 9.6 35.8 9.7 C 35.9 9.8 35.5 9.9 35.4 9.7 Z M 34.2 21.6 C 34.4 21.4 34.4 21.5 34.3 21.8 C 34.2 22.1 34.0 21.7 34.2 21.6 Z M 33.6 29.1 C 33.8 28.9 33.8 29.0 33.7 29.3 C 33.6 29.7 33.4 29.2 33.6 29.1 Z M 34.2 18.5 C 34.3 18.5 34.9 19.2 34.3 19.7 C 33.8 20.1 33.7 18.8 34.2 18.5 Z M 28.2 11.2 C 28.1 11.0 28.3 11.1 28.3 11.1 C 28.3 11.3 28.3 11.3 28.2 11.2 Z M 33.3 20.2 C 33.2 20.1 33.5 20.1 33.7 20.2 C 33.8 20.4 33.4 20.5 33.3 20.2 Z M 34.0 27.7 C 34.2 27.4 34.6 27.6 34.8 27.8 C 35.3 28.4 34.7 28.8 34.4 29.3 C 34.1 29.6 33.9 27.9 34.0 27.7 Z M 34.3 7.9 C 34.2 8.1 34.1 8.3 34.1 8.4 C 34.3 8.4 34.2 8.6 34.1 8.7 C 34.2 9.5 34.9 9.9 35.1 10.4 C 35.5 11.5 34.1 11.9 34.0 12.6 C 34.0 12.4 34.0 12.2 33.8 12.1 C 33.4 11.8 33.6 14.5 33.6 14.6 C 34.0 16.9 34.4 14.2 35.1 14.2 C 35.5 14.2 34.6 15.7 34.5 15.8 C 34.2 16.5 35.0 16.6 34.7 17.2 C 34.5 17.5 32.8 18.3 33.1 18.6 C 33.3 18.8 33.1 19.5 33.1 19.8 C 33.1 20.2 33.1 20.9 33.8 20.5 C 34.2 20.2 34.6 20.1 34.2 20.7 C 33.9 21.1 32.9 23.7 34.1 23.6 C 34.2 23.6 34.6 23.0 34.6 23.0 C 34.9 23.7 34.5 25.9 35.0 26.5 C 36.1 27.6 34.3 26.1 34.0 26.7 C 33.4 27.7 33.0 28.3 33.2 29.6 C 33.3 29.8 33.3 31.0 34.0 30.5 C 34.4 30.1 34.8 30.4 34.9 29.6 C 35.5 30.5 34.3 31.0 34.6 31.2 C 34.9 31.4 35.1 30.9 35.1 31.5 C 35.0 32.3 35.2 32.0 34.5 32.1 C 34.3 32.2 34.2 32.8 34.2 32.8 C 34.1 32.8 34.1 32.8 34.0 32.8 C 34.1 33.4 35.3 34.4 35.0 34.5 C 34.8 34.7 34.0 34.3 33.7 34.3 C 33.7 34.4 33.7 34.4 33.7 34.5 C 33.8 34.8 34.2 35.4 34.1 35.5 C 34.0 35.6 32.9 35.1 33.2 35.4 C 33.5 35.7 33.2 37.0 32.8 37.1 C 32.5 37.2 31.0 37.5 30.9 37.7 C 30.8 38.0 30.1 37.5 29.8 37.4 C 29.6 37.3 29.4 36.7 29.4 36.6 C 29.3 36.5 28.8 36.2 28.8 36.2 C 28.8 36.2 28.4 36.2 28.0 36.0 C 27.5 35.8 27.4 35.3 26.9 34.8 C 26.5 34.3 26.0 34.5 25.5 34.3 C 25.0 34.1 25.0 33.0 24.6 32.6 C 24.2 32.2 23.9 32.9 23.3 32.6 C 22.7 32.3 22.5 32.0 22.7 32.0 C 22.9 32.0 22.9 31.7 22.7 31.6 C 22.6 31.5 22.0 30.9 21.7 30.9 C 21.4 30.9 22.8 32.4 20.7 31.1 C 19.7 30.4 19.4 29.3 19.6 29.5 C 20.4 29.9 19.4 27.9 19.2 28.2 C 19.0 28.6 17.3 27.4 17.4 28.2 C 17.4 28.5 15.5 27.6 15.3 27.4 C 15.1 27.1 14.2 26.8 14.3 26.1 C 14.3 25.7 12.9 25.9 12.7 25.7 C 12.4 25.6 11.1 24.7 10.9 24.3 C 10.7 24.0 11.4 24.4 11.7 24.6 C 12.0 24.8 12.3 25.3 12.6 25.4 C 12.9 25.5 12.4 24.9 12.1 24.7 C 11.8 24.4 11.9 24.1 11.6 23.8 C 11.5 23.8 11.3 23.6 11.0 23.4 C 10.8 23.4 10.7 23.4 10.7 23.5 C 10.5 23.6 10.7 23.9 10.6 23.9 C 10.5 24.0 10.1 24.0 9.7 23.7 C 9.3 23.5 9.0 23.2 8.5 22.7 C 8.0 22.2 7.8 22.3 7.3 22.1 C 6.9 21.9 6.6 21.6 6.7 21.5 C 6.7 21.3 7.3 21.6 7.4 21.5 C 7.5 21.4 7.1 20.8 6.9 20.6 C 5.9 19.9 7.3 19.4 6.3 18.7 C 5.8 18.3 6.6 18.3 7.2 18.2 C 7.1 18.1 7.1 18.0 7.5 17.6 C 7.4 17.4 8.2 17.2 8.5 16.9 C 8.7 16.8 9.9 15.8 9.3 16.6 C 9.3 16.7 9.2 16.7 9.2 16.8 C 9.2 16.8 9.2 16.8 9.2 16.8 C 9.2 16.8 9.1 17.5 9.1 17.5 C 9.2 17.5 9.2 16.8 9.2 16.8 C 9.5 16.9 9.8 17.0 9.9 17.1 C 10.0 17.0 10.0 16.9 10.0 16.8 C 10.0 16.8 10.1 16.8 10.1 16.7 C 10.1 16.7 10.1 16.7 10.1 16.7 C 9.9 16.5 10.0 16.5 10.2 16.5 C 10.6 15.9 11.9 15.6 12.4 15.5 C 11.9 17.4 13.9 16.1 14.5 15.5 C 15.2 15.0 14.3 13.6 13.9 13.8 C 14.4 13.5 14.7 13.6 15.1 13.9 C 15.0 13.9 16.1 14.4 16.0 14.4 C 17.5 14.2 16.5 13.2 16.7 12.9 C 17.0 12.5 17.4 12.3 17.6 12.0 C 18.0 11.7 17.5 11.6 17.5 11.4 C 17.6 10.6 19.1 11.2 19.5 11.0 C 19.2 11.3 18.9 11.6 18.8 11.9 C 19.0 11.4 19.7 12.0 19.9 11.9 C 20.3 11.8 20.8 11.5 21.1 11.2 C 21.8 10.8 22.3 10.2 22.9 9.8 C 22.7 9.8 21.2 9.6 21.2 9.6 C 21.4 9.5 22.1 9.3 21.6 8.9 C 20.6 8.3 22.6 7.8 22.9 7.6 C 23.8 7.2 24.2 5.8 25.7 6.2 C 25.7 6.2 24.5 7.3 24.6 7.4 C 25.3 7.9 25.9 8.1 26.7 7.4 C 26.9 7.3 27.8 5.9 27.8 5.9 C 27.8 6.0 25.5 5.0 26.9 4.9 C 27.2 4.9 26.9 5.5 27.3 5.4 C 27.8 5.4 28.3 4.9 28.7 4.7 C 28.8 4.6 29.6 4.5 29.6 4.4 C 29.7 4.1 29.5 3.7 29.6 3.4 C 29.8 3.2 30.3 3.2 30.4 3.4 C 30.5 3.5 30.5 3.5 30.5 3.5 C 30.6 3.5 30.7 3.5 30.7 3.7 C 30.8 3.6 31.0 3.5 31.3 3.6 C 31.4 3.6 31.1 3.9 30.8 3.9 C 30.8 3.9 30.9 4.0 30.9 4.2 C 31.3 3.9 31.6 3.6 31.6 3.6 C 31.9 2.8 31.8 2.6 33.1 2.7 C 34.1 2.9 34.8 5.3 34.4 6.8 C 34.5 7.1 34.5 7.4 34.3 7.9 Z M 10.5 22.6 C 10.6 22.6 10.6 22.7 10.6 22.7 C 10.7 22.6 10.8 22.4 10.8 22.3 C 10.6 22.0 10.8 22.6 10.5 22.3 C 10.2 22.1 10.1 22.2 10.5 22.6 Z M 10.8 19.3 C 10.5 19.2 10.5 19.3 10.6 19.5 C 10.7 19.4 10.8 19.3 10.8 19.3 Z M 10.1 17.8 C 9.7 18.2 10.7 18.3 11.3 17.8 C 10.7 17.7 10.3 17.7 10.1 17.8 Z M 10.7 16.6 C 10.8 16.7 10.8 16.8 10.8 16.9 C 10.8 17.1 11.1 16.6 11.2 16.8 C 11.2 17.0 10.9 17.5 11.3 17.4 C 11.4 17.4 11.5 17.4 11.6 17.4 C 11.6 17.3 11.6 17.2 11.6 17.2 C 11.7 16.9 11.1 16.5 10.7 16.6 Z M 13.0 22.8 C 12.8 22.8 12.9 22.9 13.0 23.0 C 13.2 23.0 13.2 22.8 13.0 22.8 Z M 14.7 25.5 C 14.6 25.2 14.4 25.1 14.4 25.4 C 14.5 25.7 14.9 25.7 14.7 25.5 Z M 18.4 21.6 C 18.3 21.6 18.4 21.6 18.5 21.7 C 18.7 21.8 18.6 21.5 18.4 21.6 Z M 18.6 18.8 C 18.7 18.6 18.4 18.3 18.4 18.5 C 18.3 18.7 18.5 19.0 18.6 18.8 Z M 18.2 25.1 C 18.5 25.2 18.4 24.9 18.2 24.9 C 18.0 25.0 18.0 25.1 18.2 25.1 Z M 17.7 21.4 C 17.9 21.6 17.9 21.6 18.0 21.5 C 18.2 21.4 18.1 21.2 17.8 21.1 C 17.5 21.0 17.5 21.1 17.7 21.4 Z M 17.5 19.0 C 18.1 18.7 18.0 18.3 17.2 18.9 C 16.5 19.5 17.0 19.3 17.5 19.0 Z M 16.2 27.3 C 16.1 27.2 15.7 27.1 15.7 27.1 C 15.7 27.1 16.5 27.8 16.2 27.3 Z M 17.7 12.7 C 17.4 12.8 17.4 13.2 17.8 13.0 C 18.2 12.9 17.9 12.6 17.7 12.7 Z M 19.1 13.9 C 18.5 13.5 18.0 13.6 18.0 13.6 C 18.1 13.6 18.2 14.1 18.0 14.3 C 17.7 14.7 16.9 14.5 16.6 15.1 C 16.4 15.7 17.4 15.2 17.6 15.1 C 17.5 15.2 17.4 15.3 17.5 15.5 C 17.7 15.6 17.8 15.6 17.9 15.4 C 18.0 15.1 19.7 14.3 19.1 13.9 Z M 19.0 20.5 C 18.7 20.4 18.5 20.6 18.7 20.9 C 18.9 21.1 19.1 21.3 19.2 21.2 C 19.3 21.2 19.3 20.6 19.0 20.5 Z M 19.2 22.6 C 19.0 22.7 19.1 22.7 19.3 22.8 C 19.7 23.0 19.5 22.5 19.2 22.6 Z M 23.1 31.4 C 23.3 31.3 22.9 31.0 22.8 31.2 C 22.8 31.3 22.9 31.4 23.1 31.4 Z M 23.0 27.9 C 23.5 28.0 23.1 27.5 23.0 27.5 C 22.8 27.5 22.6 27.8 23.0 27.9 Z M 20.9 25.8 C 21.2 25.9 20.9 25.6 20.8 25.6 C 20.6 25.7 20.8 25.8 20.9 25.8 Z M 20.7 24.5 C 20.9 24.6 20.9 24.2 20.5 24.2 C 20.4 24.2 20.5 24.4 20.7 24.5 Z M 21.7 13.3 C 21.7 13.3 21.9 13.8 22.1 13.4 C 22.3 12.9 22.3 12.9 21.7 13.3 Z M 20.8 17.3 C 20.4 17.5 20.2 17.8 20.5 19.0 C 20.9 20.1 21.1 19.6 21.3 19.0 C 21.4 18.3 22.0 20.1 22.2 18.8 C 22.4 18.3 21.1 17.0 20.8 17.3 Z M 22.7 24.4 C 22.3 23.7 21.4 23.9 21.9 24.3 C 22.5 24.8 23.1 25.0 22.7 24.4 Z M 22.8 24.9 C 22.6 24.9 22.7 25.0 22.9 25.1 C 23.1 25.2 23.0 24.9 22.8 24.9 Z M 22.2 8.4 C 21.2 9.4 22.9 9.3 22.9 9.3 C 24.4 8.9 23.3 7.4 22.2 8.4 Z M 33.4 32.2 C 33.4 32.2 33.5 32.1 33.5 32.0 C 33.5 32.0 33.5 32.0 33.4 32.0 C 33.3 31.8 33.0 32.3 33.0 32.3 C 33.2 32.3 33.4 32.3 33.4 32.2 Z M 33.8 25.0 C 33.7 25.3 33.8 25.5 34.0 25.7 C 34.6 25.6 34.6 23.5 33.5 24.3 C 33.3 24.4 32.4 25.8 32.9 25.9 C 33.2 26.0 33.8 24.3 33.8 25.0 Z M 32.9 27.3 C 32.9 26.4 32.0 28.0 32.5 27.8 C 32.7 27.7 32.8 27.5 32.9 27.3 Z M 30.9 33.6 C 31.3 34.8 33.0 34.5 32.2 32.8 C 31.3 31.0 30.5 30.9 30.8 31.8 C 31.0 32.7 30.2 32.0 30.9 33.6 Z M 30.9 24.3 C 32.1 24.5 31.8 24.0 30.9 23.7 C 30.7 23.6 30.2 24.2 30.9 24.3 Z M 30.7 21.7 C 30.8 21.4 30.8 21.4 30.6 21.6 C 30.3 21.8 30.6 22.1 30.7 21.7 Z M 29.2 35.5 C 29.4 35.9 29.9 36.2 29.6 36.2 C 29.3 36.2 29.4 36.3 29.6 36.6 C 29.9 36.9 29.9 36.3 29.9 36.0 C 29.8 35.8 29.0 35.0 29.2 35.5 Z M 25.1 25.5 C 25.3 25.6 25.1 25.3 24.9 25.3 C 24.8 25.3 24.8 25.4 25.1 25.5 Z M 23.7 15.7 C 23.7 15.7 23.8 16.0 24.0 15.7 C 24.1 15.5 24.1 15.5 23.7 15.7 Z M 24.2 7.8 C 24.0 8.0 24.5 8.0 24.4 8.5 C 24.4 8.6 24.2 8.4 24.1 8.3 C 24.2 8.4 24.3 9.4 24.7 8.7 C 24.9 8.5 24.7 7.3 24.2 7.8 Z M 25.4 22.8 C 25.0 22.4 24.7 24.0 24.4 23.8 C 24.0 23.5 24.0 23.7 24.4 24.0 C 24.7 24.4 25.7 23.2 25.4 22.8 Z M 25.6 27.0 C 25.6 26.7 24.8 26.0 25.0 26.4 C 25.2 26.9 25.6 27.2 25.3 27.2 C 25.1 27.2 25.2 27.3 25.4 27.5 C 25.7 27.9 25.7 27.3 25.6 27.0 Z M 25.9 34.0 C 25.8 33.8 25.3 33.6 25.5 33.9 C 25.6 34.1 26.0 34.1 25.9 34.0 Z M 26.4 14.5 C 26.2 14.8 26.3 14.9 26.6 14.6 C 27.0 14.3 26.5 14.2 26.4 14.5 Z M 27.1 33.3 C 26.7 32.9 27.0 33.6 26.7 33.3 C 26.4 33.1 26.3 33.2 26.7 33.6 C 27.0 33.9 27.5 33.8 27.1 33.3 Z M 27.4 8.2 C 27.4 8.3 27.6 8.6 27.7 8.4 C 27.8 8.2 27.5 8.0 27.4 8.2 Z M 28.4 10.8 C 28.3 10.8 28.2 10.9 28.1 10.9 C 26.4 12.1 29.5 11.2 28.4 10.8 Z M 28.2 14.8 C 28.1 14.3 27.8 14.9 27.8 14.9 C 28.0 15.0 28.1 15.0 28.2 14.8 Z M 28.2 19.2 C 28.5 19.3 28.4 18.9 28.2 18.9 C 28.0 19.0 28.1 19.1 28.2 19.2 Z M 29.0 5.0 C 28.8 5.0 28.8 5.2 29.0 5.1 C 29.2 5.1 29.3 4.9 29.0 5.0 Z M 29.2 16.0 C 29.1 15.9 29.0 15.9 29.1 16.1 C 29.2 16.3 29.3 16.0 29.2 16.0 Z M 29.3 29.4 C 29.1 29.3 29.0 29.2 28.9 29.1 C 28.7 29.2 28.6 30.0 28.3 30.0 C 28.3 30.0 28.3 30.0 28.3 30.0 C 28.3 30.0 28.2 30.0 28.2 30.0 C 28.1 30.0 27.9 29.9 28.1 29.8 C 28.0 29.7 28.0 29.6 27.9 29.4 C 27.7 29.7 27.5 30.0 27.7 30.2 C 27.9 30.5 28.5 30.6 29.0 30.5 C 29.1 30.3 29.2 30.1 29.2 30.0 C 29.2 30.0 29.2 30.0 29.2 29.9 C 28.9 29.8 28.7 29.6 28.9 29.6 C 29.1 29.6 29.2 29.6 29.3 29.7 C 29.3 29.6 29.3 29.5 29.3 29.4 Z M 29.8 17.7 C 29.6 17.3 29.5 17.6 29.4 18.0 C 29.3 18.3 30.0 18.0 29.8 17.7 Z M 29.5 5.5 C 29.5 5.6 29.5 5.7 29.6 5.8 C 29.6 5.7 29.7 5.7 29.7 5.6 C 29.7 5.4 29.8 5.1 29.9 4.9 C 29.6 4.9 29.3 5.0 29.5 5.5 Z M 30.7 9.3 C 30.7 9.2 30.7 7.6 30.4 7.9 C 29.8 8.3 29.2 7.6 29.5 8.8 C 29.6 9.4 30.4 9.8 30.6 10.4 C 31.2 13.2 31.3 9.6 31.5 8.9 C 31.5 8.7 30.8 9.5 30.7 9.3 Z M 31.6 13.1 C 31.8 13.2 32.2 12.8 32.1 12.6 C 32.0 11.9 31.3 12.9 31.6 13.1 Z M 32.0 5.1 C 32.0 5.1 31.9 5.1 31.8 5.1 C 31.9 5.2 32.0 5.2 32.0 5.2 C 32.0 5.2 32.0 5.2 32.0 5.1 Z M 32.3 3.1 C 31.5 3.8 33.0 3.8 33.4 3.6 C 33.9 3.4 32.7 2.8 32.3 3.1 Z M 32.9 10.9 C 32.9 11.5 34.5 12.1 34.5 11.1 C 34.4 10.2 33.0 9.7 32.9 10.9 Z M 35.0 16.9 C 34.8 16.6 35.1 16.0 35.4 16.4 C 35.5 16.5 35.1 16.9 35.0 16.9 Z M 35.9 8.0 C 35.8 8.2 35.8 8.0 35.8 8.0 C 36.0 7.9 36.0 7.9 35.9 8.0 Z M 34.7 8.8 C 34.8 8.6 34.9 8.2 35.0 8.0 C 35.1 7.8 35.2 8.4 35.2 8.4 C 35.2 8.7 34.7 8.8 34.7 8.8 Z M 34.6 13.6 C 34.8 13.3 34.8 13.7 34.8 13.9 C 34.7 14.0 34.5 13.7 34.6 13.6 Z M 35.0 12.5 C 34.9 12.6 34.7 12.5 34.8 12.3 C 34.8 12.0 35.0 12.3 35.0 12.5 Z M 34.0 14.4 C 33.9 13.9 33.8 13.2 34.2 13.3 C 34.4 13.3 34.3 15.4 34.0 14.4 Z M 34.0 14.4 " fill="#5E416F"></path></g></svg>