<?xml version="1.0" encoding="UTF-8" standalone="no"?><svg xmlns="http://www.w3.org/2000/svg" xmlns:xlink="http://www.w3.org/1999/xlink" clip-rule="evenodd" stroke-miterlimit="10" viewBox="0 0 175 172"><desc>SVG generated by Keynote</desc><defs></defs><g transform="matrix(1.00, 0.00, -0.00, -1.00, 0.0, 172.0)"><g><clipPath id="clip0x6080022b4280"><path d="M 148.1 145.8 C 181.7 112.7 181.7 59.0 148.1 25.9 C 114.6 -7.2 60.1 -7.2 26.6 25.9 C -7.0 59.0 -7.0 112.7 26.6 145.8 C 60.1 178.9 114.6 178.9 148.1 145.8 Z M 148.1 145.8 "></path></clipPath><g clip-path="url(#clip0x6080022b4280)"><image xlink:href="../../04236538-DDCE-4DAC-885E-EF7D1F00479F/assets/148324F4D89F4AF6DFC0631E54781387.png" width="600.00" height="600.00" transform="matrix(0.50, 0.00, -0.00, -0.50, 1.4, 170.6)"></image></g></g><g><clipPath id="clip0x6080022b4700"><path d="M 1.4 1.0 L 173.3 1.0 L 173.3 170.6 L 1.4 170.6 Z M 1.4 1.0 "></path></clipPath><g clip-path="url(#clip0x6080022b4700)"><text xml:space="preserve" font-family="AvenirNext-Medium,Avenir Next" font-size="24.0" fill="#FEFFFE" transform="matrix(1.00, 0.00, -0.00, -1.00, 42.4, 94.9)">E</text><text xml:space="preserve" font-family="AvenirNext-Medium,Avenir Next" font-size="24.0" fill="#FEFFFE" transform="matrix(1.00, 0.00, -0.00, -1.00, 56.9, 94.9)">O</text><text xml:space="preserve" font-family="AvenirNext-Medium,Avenir Next" font-size="24.0" fill="#FEFFFE" transform="matrix(1.00, 0.00, -0.00, -1.00, 77.2, 94.9)">b</text><text xml:space="preserve" font-family="AvenirNext-Medium,Avenir Next" font-size="24.0" fill="#FEFFFE" transform="matrix(1.00, 0.00, -0.00, -1.00, 92.5, 94.9)">j</text><text xml:space="preserve" font-family="AvenirNext-Medium,Avenir Next" font-size="24.0" fill="#FEFFFE" transform="matrix(1.00, 0.00, -0.00, -1.00, 98.7, 94.9)">e</text><text xml:space="preserve" font-family="AvenirNext-Medium,Avenir Next" font-size="24.0" fill="#FEFFFE" transform="matrix(1.00, 0.00, -0.00, -1.00, 112.5, 94.9)">c</text><text xml:space="preserve" font-family="AvenirNext-Medium,Avenir Next" font-size="24.0" fill="#FEFFFE" transform="matrix(1.00, 0.00, -0.00, -1.00, 124.3, 94.9)">t</text><text xml:space="preserve" font-family="AvenirNext-Medium,Avenir Next" font-size="24.0" fill="#FEFFFE" transform="matrix(1.00, 0.00, -0.00, -1.00, 132.2, 94.9)"> </text><text xml:space="preserve" font-family="AvenirNext-Medium,Avenir Next" font-size="24.0" fill="#FEFFFE" transform="matrix(1.00, 0.00, -0.00, -1.00, 16.6, 61.9)">I</text><text xml:space="preserve" font-family="AvenirNext-Medium,Avenir Next" font-size="24.0" fill="#FEFFFE" transform="matrix(1.00, 0.00, -0.00, -1.00, 23.1, 61.9)">t</text><text xml:space="preserve" font-family="AvenirNext-Medium,Avenir Next" font-size="24.0" fill="#FEFFFE" transform="matrix(1.00, 0.00, -0.00, -1.00, 31.0, 61.9)">e</text><text xml:space="preserve" font-family="AvenirNext-Medium,Avenir Next" font-size="24.0" fill="#FEFFFE" transform="matrix(1.00, 0.00, -0.00, -1.00, 44.7, 61.9)">m</text><text xml:space="preserve" font-family="AvenirNext-Medium,Avenir Next" font-size="24.0" fill="#FEFFFE" transform="matrix(1.00, 0.00, -0.00, -1.00, 66.0, 61.9)">P</text><text xml:space="preserve" font-family="AvenirNext-Medium,Avenir Next" font-size="24.0" fill="#FEFFFE" transform="matrix(1.00, 0.00, -0.00, -1.00, 79.2, 61.9)">r</text><text xml:space="preserve" font-family="AvenirNext-Medium,Avenir Next" font-size="24.0" fill="#FEFFFE" transform="matrix(1.00, 0.00, -0.00, -1.00, 87.5, 61.9)">o</text><text xml:space="preserve" font-family="AvenirNext-Medium,Avenir Next" font-size="24.0" fill="#FEFFFE" transform="matrix(1.00, 0.00, -0.00, -1.00, 102.1, 61.9)">v</text><text xml:space="preserve" font-family="AvenirNext-Medium,Avenir Next" font-size="24.0" fill="#FEFFFE" transform="matrix(1.00, 0.00, -0.00, -1.00, 114.2, 61.9)">i</text><text xml:space="preserve" font-family="AvenirNext-Medium,Avenir Next" font-size="24.0" fill="#FEFFFE" transform="matrix(1.00, 0.00, -0.00, -1.00, 120.4, 61.9)">d</text><text xml:space="preserve" font-family="AvenirNext-Medium,Avenir Next" font-size="24.0" fill="#FEFFFE" transform="matrix(1.00, 0.00, -0.00, -1.00, 135.6, 61.9)">e</text><text xml:space="preserve" font-family="AvenirNext-Medium,Avenir Next" font-size="24.0" fill="#FEFFFE" transform="matrix(1.00, 0.00, -0.00, -1.00, 149.4, 61.9)">r</text></g></g></g></svg>