<?xml version="1.0" encoding="UTF-8" standalone="no"?><svg xmlns="http://www.w3.org/2000/svg" xmlns:xlink="http://www.w3.org/1999/xlink" clip-rule="evenodd" stroke-miterlimit="10" viewBox="0 0 653 140"><desc>SVG generated by Keynote</desc><defs></defs><g transform="matrix(1.00, 0.00, -0.00, -1.00, 0.0, 140.0)"><path d="M 635.8 98.4 C 636.0 98.0 637.0 97.9 637.2 97.6 M 635.8 98.4 C 637.3 99.3 638.9 98.6 641.2 97.9 C 643.5 96.8 640.5 96.7 640.5 96.0 C 643.3 94.0 643.7 95.0 644.0 96.6 C 644.7 95.1 649.0 95.1 647.4 93.6 C 642.5 96.1 650.5 91.5 646.0 92.5 C 645.4 92.5 646.4 91.4 646.8 91.2 C 645.1 91.1 646.9 89.2 644.5 89.7 C 643.7 88.7 644.3 89.0 642.5 88.8 C 641.9 89.0 642.3 89.2 642.5 89.5 C 643.0 90.9 640.5 89.5 639.8 90.9 C 638.0 89.7 637.9 92.2 639.1 92.5 C 638.0 92.8 636.0 91.5 635.5 93.3 C 634.5 92.7 632.1 94.5 634.2 94.9 C 635.7 95.0 634.6 96.1 634.6 96.6 C 635.2 96.8 636.7 95.5 637.1 95.7 C 636.7 96.2 634.8 97.8 637.1 96.7 C 636.6 97.6 637.9 97.5 635.8 98.4 C 635.8 98.4 635.8 98.4 635.8 98.4 Z M 644.5 95.4 C 644.7 95.9 643.7 95.8 644.5 95.4 C 644.5 95.4 644.5 95.4 644.5 95.4 Z M 636.0 92.0 C 636.2 92.4 635.2 92.3 636.0 92.0 C 636.0 92.0 636.0 92.0 636.0 92.0 Z M 642.1 89.6 C 642.4 90.1 641.3 90.0 642.1 89.6 C 642.1 89.6 642.1 89.6 642.1 89.6 Z M 642.2 96.2 C 640.7 96.4 643.0 95.0 643.4 95.4 C 643.1 95.4 642.7 96.4 642.2 96.2 C 642.2 96.2 642.2 96.2 642.2 96.2 Z M 640.7 93.6 C 640.7 93.8 640.2 94.2 640.1 93.7 C 640.3 93.4 640.8 93.4 640.7 93.6 C 640.7 93.6 640.7 93.6 640.7 93.6 Z M 648.0 92.3 C 648.0 92.6 647.5 92.9 647.3 92.4 C 647.6 92.1 648.0 92.1 648.0 92.3 C 648.0 92.3 648.0 92.3 648.0 92.3 Z M 640.1 95.7 C 639.8 95.7 639.5 95.4 639.8 95.1 C 640.1 95.3 641.1 94.9 640.1 95.7 C 640.1 95.7 640.1 95.7 640.1 95.7 Z M 638.8 98.2 C 637.6 98.4 639.5 96.7 639.6 96.9 C 640.1 97.1 639.6 98.2 638.8 98.2 C 638.8 98.2 638.8 98.2 638.8 98.2 Z M 639.2 95.3 C 638.2 95.5 639.4 94.8 639.2 95.3 C 639.2 95.3 639.2 95.3 639.2 95.3 Z M 645.5 89.4 C 644.5 89.6 645.7 88.9 645.5 89.4 C 645.5 89.4 645.5 89.4 645.5 89.4 Z M 640.1 90.3 C 639.1 90.5 640.3 89.8 640.1 90.3 C 640.1 90.3 640.1 90.3 640.1 90.3 Z M 644.1 94.1 C 645.7 93.4 644.9 95.2 644.1 94.1 C 644.1 94.1 644.1 94.1 644.1 94.1 Z M 636.4 99.5 C 638.0 98.7 637.1 100.5 636.4 99.5 C 636.4 99.5 636.4 99.5 636.4 99.5 Z M 25.8 21.3 C 24.3 20.7 28.6 25.4 27.7 22.5 C 28.0 20.8 31.5 23.1 29.7 23.8 C 30.7 24.6 30.7 24.7 31.6 24.4 C 31.2 25.5 33.3 27.6 34.5 27.6 C 35.6 27.0 32.9 26.5 34.9 26.4 C 38.2 28.0 35.3 25.3 37.2 24.8 C 37.3 24.9 37.0 25.5 37.5 25.4 C 38.3 24.4 37.0 22.5 38.3 22.2 C 37.7 22.1 36.2 19.6 36.6 21.1 C 36.3 22.3 34.9 18.4 34.1 20.2 C 33.8 18.9 32.4 19.5 32.3 18.1 C 31.8 17.6 31.3 18.5 31.2 18.7 C 30.8 19.6 31.7 16.6 30.0 17.4 C 30.1 17.0 27.6 15.6 29.0 17.3 C 28.6 16.9 26.0 14.7 26.5 17.2 C 28.0 19.1 23.5 17.4 25.8 19.0 C 27.5 20.2 28.0 20.2 26.2 20.1 C 25.8 19.8 23.7 18.6 25.0 20.4 C 25.5 20.4 26.3 21.1 25.8 21.3 C 25.8 21.3 25.8 21.3 25.8 21.3 Z M 26.8 18.9 C 27.8 19.5 26.5 19.5 26.8 18.9 C 26.8 18.9 26.8 18.9 26.8 18.9 Z M 32.6 17.9 C 33.7 18.5 32.4 18.5 32.6 17.9 C 32.6 17.9 32.6 17.9 32.6 17.9 Z M 28.8 23.8 C 29.6 23.6 28.7 25.3 28.8 23.8 C 28.8 23.8 28.8 23.8 28.8 23.8 Z M 30.1 18.1 C 30.2 18.1 29.8 18.1 29.6 18.1 C 29.7 18.1 30.0 18.0 30.1 18.1 C 30.1 18.1 30.1 18.1 30.1 18.1 Z M 30.5 24.9 C 32.5 25.1 30.1 26.3 30.5 24.9 C 30.5 24.9 30.5 24.9 30.5 24.9 Z M 34.6 25.3 C 35.7 23.9 36.0 26.6 34.6 25.3 C 34.6 25.3 34.6 25.3 34.6 25.3 Z M 34.5 20.6 C 34.0 20.7 34.4 20.2 34.5 20.6 C 34.5 20.6 34.5 20.6 34.5 20.6 Z M 28.0 16.1 C 27.5 16.3 27.8 15.8 28.0 16.1 C 28.0 16.1 28.0 16.1 28.0 16.1 Z M 36.3 21.9 C 35.9 22.4 36.0 21.2 36.3 21.9 C 36.3 21.9 36.3 21.9 36.3 21.9 Z M 29.4 23.3 C 27.3 23.7 28.9 20.4 29.4 23.3 C 29.4 23.3 29.4 23.3 29.4 23.3 Z M 26.8 21.9 C 25.7 21.5 27.5 21.2 27.8 21.7 C 27.7 21.8 27.0 21.9 26.8 21.9 C 26.8 21.9 26.8 21.9 26.8 21.9 Z M 31.0 24.1 C 29.7 24.1 30.3 23.2 31.0 24.1 C 31.0 24.1 31.0 24.1 31.0 24.1 Z M 28.1 23.3 C 27.7 22.8 28.6 23.3 28.1 23.3 C 28.1 23.3 28.1 23.3 28.1 23.3 Z M 32.1 26.6 C 31.7 26.2 32.6 26.7 32.1 26.6 C 32.1 26.6 32.1 26.6 32.1 26.6 Z M 25.2 21.7 C 24.9 21.3 25.7 21.8 25.2 21.7 C 25.2 21.7 25.2 21.7 25.2 21.7 Z M 32.2 25.5 C 32.7 25.1 32.1 23.0 33.9 25.6 C 34.1 26.2 32.6 26.4 32.2 25.5 C 32.2 25.5 32.2 25.5 32.2 25.5 Z M 630.8 100.6 C 638.7 99.3 635.5 96.7 635.5 96.0 C 636.1 94.7 634.9 94.5 633.2 94.6 C 630.8 93.2 632.0 97.7 630.0 96.1 C 626.9 94.2 629.0 99.5 626.9 96.9 C 626.8 96.0 624.4 97.8 624.7 97.9 C 622.7 97.1 621.8 100.4 621.9 100.7 C 620.8 100.7 619.7 98.1 617.6 101.3 C 615.7 102.9 613.7 100.6 615.0 102.2 C 612.6 100.8 614.1 103.2 612.2 103.2 C 610.7 102.5 612.9 105.0 610.0 103.6 C 609.8 105.6 610.5 102.1 605.5 105.4 C 608.2 104.6 603.4 107.7 604.0 106.2 C 605.5 104.3 601.6 107.6 598.8 107.8 C 598.4 108.6 595.9 111.3 595.8 109.4 C 592.5 108.3 593.5 111.5 591.9 110.2 C 590.8 109.8 590.9 111.4 590.3 111.5 C 589.0 110.6 588.4 111.7 585.0 112.3 C 577.6 114.0 584.9 115.9 582.3 117.1 C 582.0 117.9 587.3 120.7 584.7 118.1 C 585.5 118.8 590.5 113.8 588.6 118.1 C 590.4 116.0 588.6 119.6 592.6 116.5 C 585.6 116.2 599.3 113.3 593.7 116.4 C 594.9 116.7 597.4 115.8 595.4 115.8 C 594.0 113.9 600.0 115.3 596.6 113.6 C 600.7 113.0 598.9 111.0 600.5 112.3 C 602.4 114.7 600.0 111.6 602.2 111.7 C 606.7 110.2 604.4 114.6 606.3 111.5 C 611.2 111.3 606.8 109.9 608.2 109.0 C 607.9 106.9 613.2 108.8 610.0 110.3 C 611.3 108.6 610.7 111.1 612.2 109.1 C 610.0 107.9 615.5 110.0 614.3 108.8 C 615.9 107.7 614.6 107.0 615.1 106.7 C 617.7 105.7 617.6 107.7 617.6 106.2 C 617.9 105.3 620.1 107.0 620.2 106.3 C 617.5 107.3 621.6 103.5 622.3 104.4 C 620.7 105.2 624.1 106.3 624.6 104.5 C 621.6 101.2 627.3 104.5 628.0 102.6 C 625.9 101.0 633.7 99.8 631.5 101.9 C 631.6 101.7 630.8 100.6 630.8 100.6 M 620.8 105.7 C 618.6 106.4 623.1 104.3 620.8 105.7 M 621.2 106.2 C 619.9 105.9 623.5 105.9 621.1 106.5 C 621.1 106.5 621.3 106.2 621.2 106.2 M 612.0 110.0 C 612.0 109.3 613.4 109.8 612.0 110.0 M 609.7 109.3 C 608.0 109.3 611.7 108.5 609.7 109.3 M 589.3 117.0 C 590.3 113.0 592.1 118.1 589.3 117.0 M 603.2 113.0 C 605.5 111.6 602.8 114.6 603.2 113.0 M 603.6 111.9 C 604.6 110.9 604.2 112.5 603.6 111.9 M 593.2 115.7 C 593.0 115.7 593.0 115.7 593.2 115.7 C 593.2 115.7 593.2 115.7 593.2 115.7 Z M 587.0 117.6 C 587.0 117.6 587.0 117.6 587.0 117.6 C 587.0 117.6 587.0 117.6 587.0 117.6 Z M 599.0 113.3 C 601.2 113.4 596.1 114.7 599.0 113.3 C 599.0 113.3 599.0 113.3 599.0 113.3 Z M 588.4 111.7 C 588.5 111.6 588.5 111.6 588.4 111.7 C 588.4 111.7 588.4 111.7 588.4 111.7 Z M 622.0 103.5 C 622.1 103.4 622.1 103.4 622.0 103.5 C 622.0 103.5 622.0 103.5 622.0 103.5 Z M 629.3 101.8 C 629.0 101.4 630.6 101.6 629.3 101.8 C 629.3 101.8 629.3 101.8 629.3 101.8 Z M 633.1 95.8 C 633.1 95.7 633.1 95.7 633.1 95.8 C 633.1 95.8 633.1 95.8 633.1 95.8 Z M 623.5 100.9 C 623.6 100.8 623.6 100.8 623.5 100.9 C 623.5 100.9 623.5 100.9 623.5 100.9 Z M 623.6 103.6 C 625.4 104.9 620.8 104.3 623.6 103.6 C 623.6 103.6 623.6 103.6 623.6 103.6 Z M 599.8 108.0 C 600.0 108.8 598.1 108.3 599.8 108.0 C 599.8 108.0 599.8 108.0 599.8 108.0 Z M 609.2 108.7 C 609.1 109.2 608.1 108.9 609.2 108.7 C 609.2 108.7 609.2 108.7 609.2 108.7 Z M 613.9 109.6 C 613.7 110.1 612.8 109.8 613.9 109.6 C 613.9 109.6 613.9 109.6 613.9 109.6 Z M 629.4 102.3 C 629.3 102.5 629.3 102.5 629.4 102.3 C 629.4 102.3 629.4 102.3 629.4 102.3 Z M 626.4 102.1 C 628.7 103.0 623.4 102.3 626.4 102.1 C 626.4 102.1 626.4 102.1 626.4 102.1 Z M 629.0 100.3 C 627.9 100.1 631.3 99.7 629.0 100.3 M 626.3 98.6 C 624.6 100.2 626.9 94.9 626.3 98.6 C 626.3 98.6 626.3 98.6 626.3 98.6 Z M 615.7 102.3 C 615.5 102.3 615.5 102.3 615.7 102.3 C 615.7 102.3 615.7 102.3 615.7 102.3 Z M 618.7 106.6 C 616.9 107.3 619.7 105.8 618.7 106.6 C 618.7 106.6 618.7 106.6 618.7 106.6 Z M 634.6 100.2 C 632.8 101.0 635.6 99.3 634.6 100.2 C 634.6 100.2 634.6 100.2 634.6 100.2 Z M 610.2 106.3 C 607.3 107.7 611.7 104.7 610.2 106.3 C 610.2 106.3 610.2 106.3 610.2 106.3 Z M 599.9 112.3 C 599.8 112.3 599.8 112.3 599.9 112.3 C 599.9 112.3 599.9 112.3 599.9 112.3 Z M 598.0 113.7 C 598.0 113.7 598.0 113.7 598.0 113.7 C 598.0 113.7 598.0 113.7 598.0 113.7 Z M 588.8 114.9 C 588.6 114.9 588.6 114.9 588.8 114.9 C 588.8 114.9 588.8 114.9 588.8 114.9 Z M 596.4 115.2 C 596.3 115.1 596.3 115.1 596.4 115.2 C 596.4 115.2 596.4 115.2 596.4 115.2 Z M 590.3 116.7 C 590.1 116.7 590.1 116.7 590.3 116.7 C 590.3 116.7 590.3 116.7 590.3 116.7 Z M 591.6 117.9 C 591.4 117.9 591.4 117.9 591.6 117.9 C 591.6 117.9 591.6 117.9 591.6 117.9 Z M 602.3 106.0 C 602.2 106.0 602.2 106.0 602.3 106.0 C 602.3 106.0 602.3 106.0 602.3 106.0 Z M 626.4 104.3 C 626.2 104.2 626.2 104.2 626.4 104.3 C 626.4 104.3 626.4 104.3 626.4 104.3 Z M 590.5 115.9 C 590.4 115.9 590.4 115.9 590.5 115.9 C 590.5 115.9 590.5 115.9 590.5 115.9 Z M 604.7 109.5 C 604.1 108.1 606.6 111.0 604.3 109.7 C 604.4 109.6 604.9 109.7 604.7 109.5 M 601.9 107.9 C 601.9 107.8 601.9 107.8 601.9 107.9 C 601.9 107.9 601.9 107.9 601.9 107.9 Z M 608.1 104.6 C 608.1 104.5 608.1 104.5 608.1 104.6 C 608.1 104.6 608.1 104.6 608.1 104.6 Z M 597.6 115.1 C 598.1 115.8 595.7 115.0 597.8 114.9 M 587.9 112.4 C 588.4 113.1 586.1 112.3 588.2 112.3 M 636.4 98.7 C 636.4 98.0 637.8 98.5 636.4 98.7 M 609.2 103.3 C 609.2 102.6 610.6 103.2 609.2 103.3 M 606.9 106.3 C 607.4 107.0 605.0 106.3 607.1 106.1 M 592.5 111.0 C 592.4 111.0 592.4 111.0 592.5 111.0 C 592.5 111.0 592.5 111.0 592.5 111.0 Z M 615.9 107.6 C 615.8 107.6 615.8 107.6 615.9 107.6 C 615.9 107.6 615.9 107.6 615.9 107.6 Z M 607.2 109.0 C 608.7 109.7 605.5 108.9 607.2 109.0 M 617.4 104.8 C 619.5 105.5 614.7 105.4 617.4 104.8 M 584.4 113.1 C 586.7 114.2 582.8 112.7 584.4 113.1 M 594.6 114.4 C 597.0 115.4 593.0 113.9 594.6 114.4 M 614.0 107.6 C 614.4 108.3 612.0 107.8 614.0 107.6 M 632.4 100.7 C 634.1 100.1 630.5 102.3 632.4 100.7 M 596.8 109.4 C 596.7 109.4 596.7 109.4 596.8 109.4 C 596.8 109.4 596.8 109.4 596.8 109.4 Z M 624.4 97.1 C 624.2 97.0 624.2 97.0 624.4 97.1 C 624.4 97.1 624.4 97.1 624.4 97.1 Z M 583.7 119.3 C 583.6 119.2 583.6 119.2 583.7 119.3 C 583.7 119.3 583.7 119.3 583.7 119.3 Z M 595.5 113.2 C 595.4 113.2 595.4 113.2 595.5 113.2 C 595.5 113.2 595.5 113.2 595.5 113.2 Z M 587.3 118.4 C 587.2 118.3 587.2 118.3 587.3 118.4 C 587.3 118.4 587.3 118.4 587.3 118.4 Z M 600.6 110.0 C 600.6 110.0 600.6 110.0 600.6 110.0 C 600.6 110.0 600.6 110.0 600.6 110.0 Z M 603.2 113.8 C 603.2 113.7 603.2 113.7 603.2 113.8 C 603.2 113.8 603.2 113.8 603.2 113.8 Z M 608.7 109.8 C 608.6 109.7 608.6 109.7 608.7 109.8 C 608.7 109.8 608.7 109.8 608.7 109.8 Z M 600.3 114.4 C 596.7 116.0 601.7 112.4 600.3 114.4 C 600.3 114.4 600.3 114.4 600.3 114.4 Z M 605.1 108.0 C 605.1 108.0 605.1 108.0 605.1 108.0 C 605.1 108.0 605.1 108.0 605.1 108.0 Z M 606.7 110.8 C 604.8 112.8 604.7 109.2 606.7 110.8 M 617.2 107.8 C 616.7 108.7 616.4 107.0 617.2 107.8 M 619.0 100.9 C 618.9 100.8 618.9 100.8 619.0 100.9 C 619.0 100.9 619.0 100.9 619.0 100.9 Z M 618.1 101.7 C 618.0 101.7 618.0 101.7 618.1 101.7 C 618.1 101.7 618.1 101.7 618.1 101.7 Z M 619.7 107.1 C 619.7 107.1 619.7 107.1 619.7 107.1 C 619.7 107.1 619.7 107.1 619.7 107.1 Z M 617.3 100.2 C 617.2 100.2 617.2 100.2 617.3 100.2 C 617.3 100.2 617.3 100.2 617.3 100.2 Z M 604.6 113.2 C 604.5 113.2 604.5 113.2 604.6 113.2 C 604.6 113.2 604.6 113.2 604.6 113.2 Z M 585.7 119.6 C 585.6 119.6 585.6 119.6 585.7 119.6 C 585.7 119.6 585.7 119.6 585.7 119.6 Z M 630.0 96.7 C 629.9 96.7 629.9 96.7 630.0 96.7 C 630.0 96.7 630.0 96.7 630.0 96.7 Z M 602.0 112.2 C 601.9 112.2 601.9 112.2 602.0 112.2 C 602.0 112.2 602.0 112.2 602.0 112.2 Z M 621.6 100.0 C 621.6 100.0 621.6 100.0 621.6 100.0 C 621.6 100.0 621.6 100.0 621.6 100.0 Z M 603.4 112.1 C 603.3 112.1 603.3 112.1 603.4 112.1 C 603.4 112.1 603.4 112.1 603.4 112.1 Z M 597.3 108.9 C 597.2 108.9 597.2 108.9 597.3 108.9 C 597.3 108.9 597.3 108.9 597.3 108.9 Z M 593.0 109.3 C 592.9 109.3 592.9 109.3 593.0 109.3 C 593.0 109.3 593.0 109.3 593.0 109.3 Z M 598.6 111.7 C 598.5 111.7 598.5 111.7 598.6 111.7 C 598.6 111.7 598.6 111.7 598.6 111.7 Z M 623.7 101.2 C 631.4 99.5 618.2 104.3 623.7 101.2 M 597.2 111.8 C 602.5 110.3 593.6 114.8 597.2 111.8 C 596.8 112.4 597.1 111.8 597.2 111.8 M 582.1 120.5 C 583.8 118.3 583.3 116.8 581.9 115.5 C 580.6 115.0 581.6 118.1 580.7 115.5 C 583.0 114.3 578.5 111.9 579.6 115.3 C 576.5 116.7 578.4 113.2 576.9 115.2 C 573.6 116.5 575.0 114.9 572.5 115.9 C 571.4 118.2 570.7 115.4 570.5 117.4 C 571.3 115.1 567.8 118.7 567.4 117.8 C 569.6 116.0 558.2 120.2 564.7 119.1 C 562.4 120.7 562.4 118.9 561.5 118.9 C 560.7 120.3 557.1 119.0 555.7 120.5 C 556.1 120.7 556.9 120.6 557.2 120.9 C 557.9 121.6 555.4 121.2 555.6 121.2 C 554.7 121.9 550.8 124.0 554.8 120.9 C 554.8 120.0 551.2 122.2 551.2 121.3 C 547.3 122.1 550.6 123.4 548.6 122.3 C 545.8 122.9 543.8 123.3 543.8 123.5 C 542.1 123.7 541.5 122.6 540.2 124.0 C 536.4 122.6 538.5 128.4 536.5 124.6 C 535.7 125.7 534.2 123.3 534.8 125.7 C 535.8 124.4 528.6 124.8 532.0 126.1 C 531.3 126.8 526.3 124.3 527.4 126.8 C 526.1 128.9 526.6 130.7 530.4 132.0 C 529.8 130.6 534.4 132.9 531.3 130.8 C 528.2 130.5 536.7 129.0 535.0 130.2 C 535.1 133.2 538.8 127.6 541.0 129.4 C 539.3 128.5 546.1 126.6 544.5 129.2 C 545.8 129.1 545.9 128.0 547.6 129.0 C 543.4 129.6 548.7 126.3 548.7 127.7 C 548.2 128.7 554.5 128.1 553.6 127.0 C 550.7 124.4 555.3 127.2 556.1 125.8 C 559.3 124.4 556.1 128.5 558.1 125.7 C 558.9 125.9 563.4 124.8 560.7 126.1 C 559.5 126.1 562.5 122.2 563.6 124.7 C 559.2 127.3 569.3 124.0 567.5 123.7 C 559.8 124.2 574.8 120.0 569.5 122.9 C 573.1 123.5 568.7 123.8 572.5 122.1 C 571.8 121.4 574.7 119.8 574.4 121.6 C 575.7 123.8 574.6 118.1 578.0 120.6 C 578.8 122.0 582.5 118.2 581.3 120.3 C 581.2 120.5 582.0 120.6 582.1 120.5 M 580.6 120.7 C 580.9 120.0 581.6 121.1 580.6 120.7 M 581.0 120.0 C 581.0 120.0 581.0 120.0 581.0 120.0 C 581.0 120.0 581.0 120.0 581.0 120.0 Z M 573.1 121.8 C 573.2 121.9 573.2 121.9 573.1 121.8 C 573.1 121.8 573.1 121.8 573.1 121.8 Z M 565.4 117.3 C 565.4 117.4 565.4 117.4 565.4 117.3 C 565.4 117.3 565.4 117.3 565.4 117.3 Z M 567.9 123.1 C 567.9 123.1 567.9 123.1 567.9 123.1 C 567.9 123.1 567.9 123.1 567.9 123.1 Z M 575.8 120.6 C 575.8 120.6 575.8 120.6 575.8 120.6 C 575.8 120.6 575.8 120.6 575.8 120.6 Z M 568.6 123.8 C 567.9 123.0 570.6 124.0 568.5 124.0 C 568.5 124.0 568.8 123.9 568.6 123.8 M 561.9 125.9 C 561.8 125.8 561.8 125.8 561.9 125.9 M 545.2 122.0 C 545.2 121.9 545.2 121.9 545.2 122.0 M 545.5 129.6 C 545.3 129.6 545.3 129.6 545.5 129.6 M 554.8 126.6 C 552.7 127.2 554.2 126.2 554.8 126.6 M 539.8 130.2 C 542.6 130.3 537.0 131.2 539.8 130.2 M 537.3 131.2 C 537.1 131.2 537.1 131.2 537.3 131.2 M 549.2 128.5 C 549.3 128.4 549.3 128.4 549.2 128.5 C 549.2 128.5 549.2 128.5 549.2 128.5 Z M 555.8 126.8 C 558.7 126.6 553.2 128.3 555.8 126.8 M 572.4 122.9 C 571.1 123.8 572.1 121.8 572.4 122.9 M 575.4 121.6 C 575.4 121.5 575.4 121.5 575.4 121.6 C 575.4 121.6 575.4 121.6 575.4 121.6 Z M 544.1 129.4 C 544.2 129.4 544.2 129.4 544.1 129.4 C 544.1 129.4 544.1 129.4 544.1 129.4 Z M 541.0 130.2 C 541.1 130.1 541.1 130.1 541.0 130.2 C 541.0 130.2 541.0 130.2 541.0 130.2 Z M 534.7 124.3 C 534.8 124.2 534.8 124.2 534.7 124.3 C 534.7 124.3 534.7 124.3 534.7 124.3 Z M 572.3 119.4 C 574.4 119.3 570.9 122.2 570.8 120.4 C 570.4 119.8 572.1 119.6 572.3 119.4 M 557.3 124.3 C 556.3 122.1 560.0 126.9 557.3 124.3 M 536.6 129.7 C 534.1 127.3 539.6 131.2 536.6 129.7 M 532.5 131.0 C 531.2 130.6 540.3 129.3 534.1 131.1 C 533.6 131.7 533.0 131.2 532.5 131.0 M 561.5 124.8 C 560.6 123.7 564.9 124.6 561.5 124.8 M 548.1 123.9 C 547.3 124.9 544.8 126.1 545.7 124.5 C 545.3 122.7 549.1 122.9 548.1 123.9 M 579.6 119.6 C 578.5 122.1 579.1 117.8 579.6 119.6 M 571.6 121.6 C 571.7 121.7 571.7 121.7 571.6 121.6 C 571.6 121.6 571.6 121.6 571.6 121.6 Z M 568.6 122.8 C 568.4 122.6 568.4 122.6 568.6 122.8 M 578.8 121.7 C 578.6 121.6 578.6 121.6 578.8 121.7 M 548.6 126.0 C 548.4 125.8 548.4 125.8 548.6 126.0 M 555.3 125.9 C 551.8 124.6 556.9 125.1 555.3 125.9 M 561.8 120.3 C 560.7 119.5 563.7 119.7 561.8 120.3 M 550.4 127.8 C 547.8 126.4 553.0 125.3 550.4 127.8 M 556.9 125.8 C 556.7 125.8 556.7 125.8 556.9 125.8 C 556.9 125.8 556.9 125.8 556.9 125.8 Z M 547.2 123.8 C 547.3 123.8 547.3 123.8 547.2 123.8 C 547.2 123.8 547.2 123.8 547.2 123.8 Z M 546.3 124.1 C 546.4 124.0 546.4 124.0 546.3 124.1 C 546.3 124.1 546.3 124.1 546.3 124.1 Z M 547.8 128.6 C 547.9 128.5 547.9 128.5 547.8 128.6 C 547.8 128.6 547.8 128.6 547.8 128.6 Z M 574.1 116.3 C 571.9 116.8 575.7 115.5 574.1 116.3 C 574.1 116.3 574.1 116.3 574.1 116.3 Z M 566.1 124.4 C 562.1 123.9 568.2 122.4 566.1 124.4 C 566.1 124.4 566.1 124.4 566.1 124.4 Z M 561.4 123.0 C 561.4 122.9 561.4 122.9 561.4 123.0 C 561.4 123.0 561.4 123.0 561.4 123.0 Z M 552.1 128.7 C 552.1 128.6 552.1 128.6 552.1 128.7 C 552.1 128.7 552.1 128.7 552.1 128.7 Z M 573.0 116.3 C 572.9 116.2 572.9 116.2 573.0 116.3 C 573.0 116.3 573.0 116.3 573.0 116.3 Z M 541.4 128.8 C 541.3 128.7 541.3 128.7 541.4 128.8 C 541.4 128.8 541.4 128.8 541.4 128.8 Z M 553.0 122.2 C 552.4 123.1 552.7 121.7 553.0 122.2 C 553.0 122.2 553.0 122.2 553.0 122.2 Z M 549.8 122.9 C 549.7 123.0 549.7 123.0 549.8 122.9 C 549.8 122.9 549.8 122.9 549.8 122.9 Z M 536.5 131.5 C 536.4 131.5 536.4 131.5 536.5 131.5 C 536.5 131.5 536.5 131.5 536.5 131.5 Z M 541.2 122.8 C 541.1 122.8 541.1 122.8 541.2 122.8 C 541.2 122.8 541.2 122.8 541.2 122.8 Z M 538.9 125.6 C 539.0 125.5 539.0 125.5 538.9 125.6 C 538.9 125.6 538.9 125.6 538.9 125.6 Z M 548.3 128.0 C 545.1 129.0 548.8 127.0 548.3 128.0 C 548.3 128.0 548.3 128.0 548.3 128.0 Z M 531.0 127.6 C 530.9 127.5 530.9 127.5 531.0 127.6 C 531.0 127.6 531.0 127.6 531.0 127.6 Z M 529.7 130.5 C 529.6 130.4 529.6 130.4 529.7 130.5 C 529.7 130.5 529.7 130.5 529.7 130.5 Z M 529.1 132.1 C 529.0 132.0 529.0 132.0 529.1 132.1 C 529.1 132.1 529.1 132.1 529.1 132.1 Z M 568.0 119.9 C 568.1 120.0 568.1 120.0 568.0 119.9 C 568.0 119.9 568.0 119.9 568.0 119.9 Z M 570.3 123.8 C 570.4 123.9 570.4 123.9 570.3 123.8 C 570.3 123.8 570.3 123.8 570.3 123.8 Z M 566.0 125.2 C 566.1 125.2 566.1 125.2 566.0 125.2 C 566.0 125.2 566.0 125.2 566.0 125.2 Z M 568.1 117.2 C 568.1 117.2 568.1 117.2 568.1 117.2 C 568.1 117.2 568.1 117.2 568.1 117.2 Z M 552.6 124.7 C 552.7 124.8 552.7 124.8 552.6 124.7 C 552.6 124.7 552.6 124.7 552.6 124.7 Z M 550.7 123.4 C 550.8 123.4 550.8 123.4 550.7 123.4 C 550.7 123.4 550.7 123.4 550.7 123.4 Z M 554.0 120.2 C 554.0 120.3 554.0 120.3 554.0 120.2 C 554.0 120.2 554.0 120.2 554.0 120.2 Z M 549.2 122.1 C 549.3 122.2 549.3 122.2 549.2 122.1 C 549.2 122.1 549.2 122.1 549.2 122.1 Z M 579.0 114.9 C 579.0 114.9 579.0 114.9 579.0 114.9 C 579.0 114.9 579.0 114.9 579.0 114.9 Z M 580.3 118.1 C 580.4 117.9 580.4 117.9 580.3 118.1 C 580.3 118.1 580.3 118.1 580.3 118.1 Z M 552.7 127.2 C 552.1 128.1 551.0 126.6 552.7 127.2 M 558.9 125.4 C 558.9 125.3 558.9 125.3 558.9 125.4 C 558.9 125.4 558.9 125.4 558.9 125.4 Z M 542.0 129.3 C 541.0 128.2 545.1 129.4 542.0 129.3 C 542.0 129.3 542.0 129.3 542.0 129.3 Z M 544.3 123.2 C 544.2 123.1 544.2 123.1 544.3 123.2 C 544.3 123.2 544.3 123.2 544.3 123.2 Z M 542.7 124.0 C 542.6 123.9 542.6 123.9 542.7 124.0 C 542.7 124.0 542.7 124.0 542.7 124.0 Z M 534.3 129.3 C 534.1 129.2 534.1 129.2 534.3 129.3 M 559.9 126.4 C 558.9 126.0 559.1 126.1 559.9 126.4 M 539.9 129.7 C 540.0 129.6 540.0 129.6 539.9 129.7 C 539.9 129.7 539.9 129.7 539.9 129.7 Z M 532.4 130.4 C 532.5 130.3 532.5 130.3 532.4 130.4 C 532.4 130.4 532.4 130.4 532.4 130.4 Z M 564.2 124.4 C 563.6 122.9 564.6 123.0 564.2 124.4 M 576.4 120.6 C 576.4 120.5 576.4 120.5 576.4 120.6 C 576.4 120.6 576.4 120.6 576.4 120.6 Z M 522.4 133.1 C 526.2 134.3 525.8 131.8 525.8 131.8 C 525.9 135.2 528.7 130.0 527.9 129.4 C 527.9 128.9 524.4 123.5 522.5 127.4 C 521.9 127.9 521.4 126.9 520.9 126.9 C 516.8 127.7 524.1 128.4 518.9 129.1 C 518.0 128.7 518.7 125.8 515.9 128.1 C 515.7 127.8 512.2 127.2 513.6 128.4 C 511.8 127.3 511.0 128.9 509.5 129.4 C 508.0 128.8 510.4 127.3 505.6 129.3 C 503.3 127.2 502.9 131.3 500.7 129.0 C 499.5 129.0 497.9 133.4 500.6 130.7 C 500.2 131.0 502.2 132.9 498.2 132.5 C 498.8 131.9 500.6 127.5 494.6 130.0 C 493.5 130.0 491.3 131.2 490.7 130.8 C 493.8 130.1 486.3 129.2 487.1 130.4 C 482.1 129.8 485.0 131.6 481.4 130.3 C 478.5 130.4 482.5 132.2 478.8 131.2 C 476.1 131.5 477.9 130.4 478.2 130.4 C 475.8 130.3 474.9 131.1 474.1 131.1 C 473.6 130.9 472.5 130.0 471.9 131.1 C 469.5 133.1 471.8 135.0 470.7 137.0 C 472.6 137.9 471.5 135.5 472.8 136.9 C 473.7 135.7 473.0 137.0 478.0 136.6 C 477.9 136.3 476.6 135.5 477.8 135.3 C 479.8 135.4 478.6 138.8 481.7 136.3 C 477.8 135.8 487.0 135.0 483.4 134.5 C 487.8 133.9 484.7 134.7 488.0 135.3 C 487.7 133.1 488.4 137.7 489.5 135.8 C 489.8 136.7 494.8 136.0 491.1 134.9 C 496.3 134.0 493.1 135.4 495.1 136.5 C 497.5 136.4 495.0 132.8 496.7 135.5 C 499.9 136.4 496.7 134.1 499.2 136.0 C 498.0 134.2 501.5 135.9 500.5 133.9 C 505.8 133.2 500.0 136.1 503.6 134.3 C 502.5 134.4 503.2 137.1 505.4 135.1 C 504.0 131.9 508.7 137.7 506.5 133.5 C 513.9 131.5 508.0 135.2 512.1 134.7 C 513.2 134.6 510.8 133.4 511.8 133.3 C 517.1 133.3 512.9 134.9 515.4 132.5 C 520.5 131.3 517.1 134.1 519.7 133.9 C 519.8 132.9 521.6 130.9 522.4 133.1 M 517.6 132.7 C 516.7 133.5 516.9 132.1 517.6 132.7 M 528.3 132.2 C 527.3 133.0 527.5 131.6 528.3 132.2 M 513.4 133.8 C 512.0 134.7 512.8 132.8 513.4 133.8 M 485.0 135.2 C 487.0 135.1 484.1 135.8 485.0 135.2 M 524.1 132.9 C 522.7 134.0 523.5 131.8 524.1 132.9 M 525.8 131.0 C 525.7 131.0 525.7 131.0 525.8 131.0 M 482.3 137.0 C 482.2 137.0 482.2 137.0 482.3 137.0 M 489.9 136.7 C 488.3 136.7 490.8 136.2 489.9 136.7 M 489.7 129.5 C 488.1 129.6 490.6 129.0 489.7 129.5 M 478.1 137.3 C 476.5 137.9 477.6 136.5 478.1 137.3 M 473.9 135.9 C 472.4 136.5 472.9 135.2 473.9 135.9 M 518.3 130.1 C 518.3 130.0 518.3 130.0 518.3 130.1 C 518.3 130.1 518.3 130.1 518.3 130.1 Z M 504.3 129.9 C 506.0 130.4 502.2 129.2 504.3 129.9 M 507.3 134.3 C 506.1 132.9 509.5 134.2 507.3 134.3 C 507.3 134.3 507.3 134.3 507.3 134.3 Z M 509.7 133.4 C 509.7 133.3 509.7 133.3 509.7 133.4 C 509.7 133.4 509.7 133.4 509.7 133.4 Z M 501.8 134.1 C 501.9 134.0 501.9 134.0 501.8 134.1 C 501.8 134.1 501.8 134.1 501.8 134.1 Z M 503.4 133.8 C 504.0 133.4 504.4 134.0 503.4 133.8 C 503.4 133.8 503.4 133.8 503.4 133.8 Z M 491.7 130.1 C 492.4 129.8 492.6 130.4 491.7 130.1 C 491.7 130.1 491.7 130.1 491.7 130.1 Z M 505.9 133.1 C 505.9 131.6 507.1 133.9 505.9 133.1 C 505.9 133.1 505.9 133.1 505.9 133.1 Z M 497.2 130.4 C 496.5 130.8 495.6 129.1 497.2 130.4 M 480.7 136.9 C 480.0 137.3 479.2 135.5 480.7 136.9 M 497.4 136.3 C 496.7 136.7 495.8 135.0 497.4 136.3 M 516.8 133.4 C 516.6 133.3 516.6 133.3 516.8 133.4 M 507.0 128.2 C 506.0 128.9 506.3 127.6 507.0 128.2 M 522.4 126.8 C 521.4 127.5 521.8 126.2 522.4 126.8 M 482.7 130.0 C 482.8 130.4 481.1 129.9 482.7 130.0 M 495.2 134.1 C 493.8 134.0 492.2 133.4 495.3 133.2 C 495.5 133.6 494.6 133.8 495.2 134.1 C 495.2 134.1 495.2 134.1 495.2 134.1 Z M 489.8 131.1 C 489.6 131.0 489.6 131.0 489.8 131.1 M 492.7 135.6 C 492.5 135.5 492.5 135.5 492.7 135.6 M 484.2 136.0 C 484.0 135.8 484.0 135.8 484.2 136.0 M 483.2 136.5 C 483.2 136.4 483.2 136.4 483.2 136.5 C 483.2 136.5 483.2 136.5 483.2 136.5 Z M 473.9 137.4 C 473.9 137.3 473.9 137.3 473.9 137.4 C 473.9 137.4 473.9 137.4 473.9 137.4 Z M 486.9 135.7 C 487.0 135.6 487.0 135.6 486.9 135.7 C 486.9 135.7 486.9 135.7 486.9 135.7 Z M 479.0 130.5 C 479.0 130.4 479.0 130.4 479.0 130.5 C 479.0 130.5 479.0 130.5 479.0 130.5 Z M 480.0 131.3 C 480.0 131.2 480.0 131.2 480.0 131.3 C 480.0 131.3 480.0 131.3 480.0 131.3 Z M 521.7 133.2 C 520.6 134.4 520.6 130.8 521.7 133.2 M 475.9 131.4 C 474.7 130.5 478.1 131.2 475.9 131.4 C 475.9 131.4 475.9 131.4 475.9 131.4 Z M 487.9 134.4 C 487.7 134.2 487.7 134.2 487.9 134.4 M 482.6 136.3 C 482.5 136.2 482.5 136.2 482.6 136.3 M 507.5 135.6 C 507.4 135.4 507.4 135.4 507.5 135.6 M 476.1 136.3 C 472.1 136.1 477.8 134.2 476.1 136.3 M 509.2 134.0 C 509.3 134.1 509.3 134.1 509.2 134.0 M 500.0 132.2 C 497.4 132.5 500.9 131.3 500.0 132.2 M 493.4 134.6 C 493.5 134.5 493.5 134.5 493.4 134.6 C 493.4 134.6 493.4 134.6 493.4 134.6 Z M 497.4 134.3 C 499.3 133.9 497.9 134.6 497.4 134.3 C 497.4 134.3 497.4 134.3 497.4 134.3 Z M 519.7 132.1 C 517.1 132.2 522.1 131.3 519.7 132.1 C 519.7 132.1 519.7 132.1 519.7 132.1 Z M 477.8 132.9 C 477.9 132.8 477.9 132.8 477.8 132.9 C 477.8 132.9 477.8 132.9 477.8 132.9 Z M 487.5 136.7 C 488.6 136.2 488.0 137.0 487.5 136.7 C 487.5 136.7 487.5 136.7 487.5 136.7 Z M 472.5 137.4 C 473.6 137.0 473.0 137.8 472.5 137.4 C 472.5 137.4 472.5 137.4 472.5 137.4 Z M 522.7 131.9 C 513.2 130.8 535.0 130.8 522.7 131.9 C 522.7 131.9 522.7 131.9 522.7 131.9 Z M 495.9 135.4 C 495.9 135.3 495.9 135.3 495.9 135.4 C 495.9 135.4 495.9 135.4 495.9 135.4 Z M 513.0 134.7 C 513.0 134.6 513.0 134.6 513.0 134.7 C 513.0 134.7 513.0 134.7 513.0 134.7 Z M 515.7 133.1 C 515.7 133.0 515.7 133.0 515.7 133.1 C 515.7 133.1 515.7 133.1 515.7 133.1 Z M 514.2 127.5 C 514.2 127.4 514.2 127.4 514.2 127.5 C 514.2 127.5 514.2 127.5 514.2 127.5 Z M 513.5 130.2 C 513.6 130.0 513.6 130.0 513.5 130.2 C 513.5 130.2 513.5 130.2 513.5 130.2 Z M 519.3 128.5 C 519.3 128.4 519.3 128.4 519.3 128.5 C 519.3 128.5 519.3 128.5 519.3 128.5 Z M 519.0 127.8 C 519.1 127.7 519.1 127.7 519.0 127.8 C 519.0 127.8 519.0 127.8 519.0 127.8 Z M 482.6 134.7 C 482.6 134.6 482.6 134.6 482.6 134.7 C 482.6 134.7 482.6 134.7 482.6 134.7 Z M 485.6 132.2 C 483.5 133.2 486.2 131.0 485.6 132.2 C 485.6 132.2 485.6 132.2 485.6 132.2 Z M 504.6 132.0 C 502.6 132.5 505.8 131.1 504.6 132.0 C 504.6 132.0 504.6 132.0 504.6 132.0 Z M 502.2 129.1 C 502.1 129.1 502.1 129.1 502.2 129.1 C 502.2 129.1 502.2 129.1 502.2 129.1 Z M 515.9 134.4 C 515.9 134.3 515.9 134.3 515.9 134.4 C 515.9 134.4 515.9 134.4 515.9 134.4 Z M 519.3 133.0 C 519.3 131.8 520.5 133.4 519.3 133.0 M 501.2 135.7 C 501.2 135.6 501.2 135.6 501.2 135.7 C 501.2 135.7 501.2 135.7 501.2 135.7 Z M 489.5 134.7 C 489.6 134.6 489.6 134.6 489.5 134.7 C 489.5 134.7 489.5 134.7 489.5 134.7 Z M 478.2 136.0 C 478.2 135.8 478.2 135.8 478.2 136.0 C 478.2 136.0 478.2 136.0 478.2 136.0 Z M 494.0 136.1 C 494.1 136.0 494.1 136.0 494.0 136.1 C 494.0 136.1 494.0 136.1 494.0 136.1 Z M 499.4 134.6 C 499.4 134.4 499.4 134.4 499.4 134.6 C 499.4 134.6 499.4 134.6 499.4 134.6 Z M 475.6 134.4 C 475.7 134.3 475.7 134.3 475.6 134.4 C 475.6 134.4 475.6 134.4 475.6 134.4 Z M 492.7 136.4 C 492.8 136.3 492.8 136.3 492.7 136.4 C 492.7 136.4 492.7 136.4 492.7 136.4 Z M 489.2 132.8 C 489.3 132.7 489.3 132.7 489.2 132.8 C 489.2 132.8 489.2 132.8 489.2 132.8 Z M 519.0 134.8 C 519.1 134.7 519.1 134.7 519.0 134.8 C 519.0 134.8 519.0 134.8 519.0 134.8 Z M 475.5 136.0 C 475.6 135.9 475.6 135.9 475.5 136.0 C 475.5 136.0 475.5 136.0 475.5 136.0 Z M 474.8 137.1 C 474.9 137.0 474.9 137.0 474.8 137.1 C 474.8 137.1 474.8 137.1 474.8 137.1 Z M 482.7 131.1 C 486.7 131.6 479.1 131.5 482.1 132.7 C 476.4 133.3 481.8 131.1 482.7 131.1 C 482.7 131.1 482.7 131.1 482.7 131.1 Z M 469.4 137.6 C 471.7 136.0 471.6 134.4 470.6 132.8 C 469.5 131.9 469.6 135.2 469.5 132.4 C 472.0 131.9 468.3 128.4 468.4 131.9 C 465.1 132.4 467.9 129.6 465.9 131.1 C 462.3 131.4 464.2 130.4 461.4 130.6 C 459.8 132.5 459.8 129.7 459.1 131.5 C 460.5 129.5 456.2 132.0 456.1 131.1 C 458.6 129.9 446.6 130.9 453.1 131.6 C 450.4 132.5 450.9 130.9 450.0 130.6 C 448.9 131.7 445.7 129.5 444.0 130.7 C 444.3 130.9 445.2 131.0 445.4 131.4 C 445.8 132.2 443.5 131.2 443.8 131.3 C 442.7 131.7 438.3 132.7 443.0 130.8 C 443.2 129.8 439.2 131.1 439.4 130.2 C 435.4 130.0 438.3 132.1 436.6 130.6 C 433.8 130.4 431.7 130.3 431.7 130.5 C 430.0 130.2 429.7 129.1 428.1 130.1 C 424.7 127.7 425.4 133.9 424.3 129.7 C 423.3 130.7 422.5 127.9 422.4 130.5 C 423.7 129.4 416.6 128.1 419.6 130.1 C 418.7 130.7 414.5 127.1 414.9 129.7 C 413.2 131.5 413.3 133.4 416.7 135.5 C 416.4 134.0 420.3 137.3 417.8 134.6 C 414.9 133.5 423.5 134.0 421.6 134.8 C 420.9 137.8 425.9 133.2 427.5 135.5 C 426.1 134.2 433.2 134.0 431.0 136.1 C 432.3 136.4 432.6 135.4 434.0 136.7 C 429.8 136.3 435.7 134.5 435.4 135.8 C 434.6 136.6 440.9 137.6 440.3 136.3 C 438.2 133.1 441.9 137.0 443.0 135.8 C 446.5 135.3 442.4 138.4 445.0 136.2 C 445.7 136.7 450.3 136.8 447.4 137.4 C 446.3 137.0 450.2 134.0 450.6 136.7 C 445.7 138.1 456.2 137.6 454.6 136.7 C 447.0 135.2 462.6 135.2 456.7 136.6 C 460.0 138.1 455.7 137.2 459.8 136.5 C 459.3 135.7 462.5 134.9 461.8 136.6 C 462.4 139.1 462.9 133.2 465.5 136.7 C 465.9 138.1 470.5 135.5 468.7 137.2 C 468.6 137.4 469.3 137.6 469.4 137.6 M 467.9 137.3 C 468.5 136.8 468.8 138.0 467.9 137.3 M 468.5 136.8 C 468.6 136.8 468.6 136.8 468.5 136.8 C 468.5 136.8 468.5 136.8 468.5 136.8 Z M 460.5 136.5 C 460.5 136.5 460.5 136.5 460.5 136.5 C 460.5 136.5 460.5 136.5 460.5 136.5 Z M 454.2 130.1 C 454.2 130.1 454.2 130.1 454.2 130.1 C 454.2 130.1 454.2 130.1 454.2 130.1 Z M 455.1 136.3 C 455.1 136.3 455.1 136.3 455.1 136.3 C 455.1 136.3 455.1 136.3 455.1 136.3 Z M 463.3 136.1 C 463.4 136.1 463.4 136.1 463.3 136.1 C 463.3 136.1 463.3 136.1 463.3 136.1 Z M 455.6 137.2 C 455.2 136.2 457.4 137.9 455.5 137.3 C 455.4 137.3 455.8 137.3 455.6 137.2 M 448.5 137.4 C 448.5 137.3 448.5 137.3 448.5 137.4 M 433.5 129.4 C 433.4 129.3 433.4 129.3 433.5 129.4 M 431.8 136.8 C 431.6 136.7 431.6 136.7 431.8 136.8 M 441.6 136.3 C 439.4 136.3 441.1 135.8 441.6 136.3 M 426.2 136.0 C 428.8 136.8 423.3 136.3 426.2 136.0 M 423.5 136.4 C 423.3 136.3 423.3 136.3 423.5 136.4 M 435.7 136.7 C 435.8 136.6 435.8 136.6 435.7 136.7 C 435.7 136.7 435.7 136.7 435.7 136.7 Z M 442.5 136.7 C 445.3 137.3 439.6 137.5 442.5 136.7 M 459.5 137.4 C 458.0 137.8 459.5 136.1 459.5 137.4 M 462.7 136.8 C 462.7 136.8 462.7 136.8 462.7 136.8 C 462.7 136.8 462.7 136.8 462.7 136.8 Z M 430.5 136.3 C 430.6 136.3 430.6 136.3 430.5 136.3 C 430.5 136.3 430.5 136.3 430.5 136.3 Z M 427.4 136.3 C 427.5 136.3 427.5 136.3 427.4 136.3 C 427.4 136.3 427.4 136.3 427.4 136.3 Z M 422.7 129.0 C 422.8 129.0 422.8 129.0 422.7 129.0 C 422.7 129.0 422.7 129.0 422.7 129.0 Z M 460.3 133.9 C 462.4 134.4 458.2 136.2 458.6 134.5 C 458.4 133.8 460.1 134.1 460.3 133.9 M 444.6 134.7 C 444.1 132.3 446.5 137.9 444.6 134.7 M 423.2 134.8 C 421.4 131.9 425.7 137.0 423.2 134.8 M 419.0 135.0 C 417.8 134.3 426.9 135.2 420.4 135.5 C 419.8 135.9 419.4 135.3 419.0 135.0 M 448.5 136.3 C 447.9 135.0 451.8 136.9 448.5 136.3 M 435.8 131.9 C 434.7 132.7 432.0 133.3 433.3 131.9 C 433.4 130.1 437.0 131.3 435.8 131.9 M 467.3 136.0 C 465.6 138.1 467.3 134.2 467.3 136.0 M 459.1 135.9 C 459.1 136.0 459.1 136.0 459.1 135.9 C 459.1 135.9 459.1 135.9 459.1 135.9 Z M 455.9 136.2 C 455.7 136.0 455.7 136.0 455.9 136.2 M 466.0 137.9 C 465.8 137.7 465.8 137.7 466.0 137.9 M 435.7 134.1 C 435.6 133.9 435.6 133.9 435.7 134.1 M 442.2 135.7 C 439.2 133.5 443.9 135.4 442.2 135.7 M 450.0 132.0 C 449.1 131.0 452.0 131.9 450.0 132.0 M 437.0 136.3 C 434.9 134.3 440.2 134.6 437.0 136.3 M 443.8 136.0 C 443.6 136.0 443.6 136.0 443.8 136.0 C 443.8 136.0 443.8 136.0 443.8 136.0 Z M 435.0 131.6 C 435.0 131.6 435.0 131.6 435.0 131.6 C 435.0 131.6 435.0 131.6 435.0 131.6 Z M 434.0 131.7 C 434.1 131.6 434.1 131.6 434.0 131.7 C 434.0 131.7 434.0 131.7 434.0 131.7 Z M 434.3 136.4 C 434.4 136.4 434.4 136.4 434.3 136.4 C 434.3 136.4 434.3 136.4 434.3 136.4 Z M 462.9 131.4 C 460.7 131.3 464.6 131.1 462.9 131.4 C 462.9 131.4 462.9 131.4 462.9 131.4 Z M 453.0 137.1 C 449.4 135.5 455.6 135.7 453.0 137.1 C 453.0 137.1 453.0 137.1 453.0 137.1 Z M 448.9 134.5 C 448.9 134.4 448.9 134.4 448.9 134.5 C 448.9 134.5 448.9 134.5 448.9 134.5 Z M 438.4 137.6 C 438.4 137.5 438.4 137.5 438.4 137.6 C 438.4 137.6 438.4 137.6 438.4 137.6 Z M 461.8 131.2 C 461.8 131.0 461.8 131.0 461.8 131.2 C 461.8 131.2 461.8 131.2 461.8 131.2 Z M 428.0 135.0 C 428.0 134.9 428.0 134.9 428.0 135.0 C 428.0 135.0 428.0 135.0 428.0 135.0 Z M 441.0 131.6 C 440.1 132.3 440.8 131.0 441.0 131.6 C 441.0 131.6 441.0 131.6 441.0 131.6 Z M 437.7 131.4 C 437.6 131.5 437.6 131.5 437.7 131.4 C 437.7 131.4 437.7 131.4 437.7 131.4 Z M 422.7 136.5 C 422.6 136.5 422.6 136.5 422.7 136.5 C 422.7 136.5 422.7 136.5 422.7 136.5 Z M 429.4 129.2 C 429.3 129.2 429.3 129.2 429.4 129.2 C 429.4 129.2 429.4 129.2 429.4 129.2 Z M 426.5 131.3 C 426.5 131.3 426.5 131.3 426.5 131.3 C 426.5 131.3 426.5 131.3 426.5 131.3 Z M 434.9 136.0 C 431.6 136.2 435.7 135.1 434.9 136.0 C 434.9 136.0 434.9 136.0 434.9 136.0 Z M 418.3 131.4 C 418.2 131.2 418.2 131.2 418.3 131.4 C 418.3 131.4 418.3 131.4 418.3 131.4 Z M 416.4 133.9 C 416.3 133.8 416.3 133.8 416.4 133.9 C 416.4 133.9 416.4 133.9 416.4 133.9 Z M 415.4 135.3 C 415.3 135.2 415.3 135.2 415.4 135.3 C 415.4 135.3 415.4 135.3 415.4 135.3 Z M 456.0 133.3 C 456.1 133.4 456.1 133.4 456.0 133.3 C 456.0 133.3 456.0 133.3 456.0 133.3 Z M 457.3 137.7 C 457.3 137.7 457.3 137.7 457.3 137.7 C 457.3 137.7 457.3 137.7 457.3 137.7 Z M 452.7 137.8 C 452.8 137.9 452.8 137.9 452.7 137.8 C 452.7 137.8 452.7 137.8 452.7 137.8 Z M 456.8 130.6 C 456.9 130.7 456.9 130.7 456.8 130.6 C 456.8 130.6 456.8 130.6 456.8 130.6 Z M 440.0 133.9 C 440.0 134.0 440.0 134.0 440.0 133.9 C 440.0 133.9 440.0 133.9 440.0 133.9 Z M 438.5 132.1 C 438.5 132.2 438.5 132.2 438.5 132.1 C 438.5 132.1 438.5 132.1 438.5 132.1 Z M 442.4 129.9 C 442.5 129.9 442.5 129.9 442.4 129.9 C 442.4 129.9 442.4 129.9 442.4 129.9 Z M 437.3 130.5 C 437.3 130.6 437.3 130.6 437.3 130.5 C 437.3 130.5 437.3 130.5 437.3 130.5 Z M 468.0 131.4 C 468.0 131.4 468.0 131.4 468.0 131.4 C 468.0 131.4 468.0 131.4 468.0 131.4 Z M 468.4 134.8 C 468.5 134.7 468.5 134.7 468.4 134.8 C 468.4 134.8 468.4 134.8 468.4 134.8 Z M 439.4 136.3 C 438.6 137.0 437.9 135.3 439.4 136.3 M 445.8 136.1 C 445.8 136.1 445.8 136.1 445.8 136.1 C 445.8 136.1 445.8 136.1 445.8 136.1 Z M 428.5 135.7 C 427.8 134.3 431.5 136.5 428.5 135.7 C 428.5 135.7 428.5 135.7 428.5 135.7 Z M 432.2 130.3 C 432.2 130.2 432.2 130.2 432.2 130.3 C 432.2 130.3 432.2 130.3 432.2 130.3 Z M 430.5 130.7 C 430.4 130.6 430.4 130.6 430.5 130.7 C 430.5 130.7 430.5 130.7 430.5 130.7 Z M 421.1 133.8 C 420.9 133.6 420.9 133.6 421.1 133.8 M 446.6 137.4 C 445.6 136.7 445.8 136.9 446.6 137.4 M 426.4 135.5 C 426.5 135.5 426.5 135.5 426.4 135.5 C 426.4 135.5 426.4 135.5 426.4 135.5 Z M 419.0 134.4 C 419.1 134.3 419.1 134.3 419.0 134.4 C 419.0 134.4 419.0 134.4 419.0 134.4 Z M 451.2 136.6 C 451.0 135.0 451.9 135.4 451.2 136.6 M 464.0 136.2 C 464.0 136.1 464.0 136.1 464.0 136.2 C 464.0 136.2 464.0 136.2 464.0 136.2 Z M 408.7 134.7 C 412.0 136.8 412.3 134.3 412.3 134.2 C 411.6 137.6 415.5 133.1 414.8 132.4 C 415.0 131.9 412.8 125.8 410.1 129.2 C 409.4 129.6 409.1 128.5 408.6 128.4 C 404.4 128.2 411.4 130.5 406.2 130.0 C 405.3 129.5 406.6 126.8 403.4 128.4 C 403.3 128.1 400.0 126.7 401.2 128.2 C 399.6 126.7 398.4 128.2 396.9 128.3 C 395.5 127.4 398.2 126.4 393.1 127.4 C 391.2 124.9 390.0 128.8 388.4 126.1 C 387.1 125.9 384.8 129.9 387.9 127.8 C 387.5 128.0 389.1 130.2 385.2 129.1 C 385.9 128.6 388.5 124.6 382.1 125.9 C 381.1 125.7 378.6 126.5 378.1 126.0 C 381.4 125.9 374.0 123.6 374.6 124.9 C 369.8 123.4 372.4 125.7 369.0 123.8 C 366.1 123.4 369.7 125.9 366.3 124.3 C 363.5 124.1 365.5 123.3 365.8 123.4 C 363.4 122.9 362.5 123.6 361.7 123.4 C 361.2 123.1 360.2 122.1 359.5 123.1 C 356.7 124.7 358.8 126.9 357.4 128.7 C 359.1 129.9 358.4 127.3 359.4 129.0 C 360.5 127.9 359.6 129.1 364.6 129.5 C 364.5 129.2 363.4 128.2 364.7 128.2 C 366.6 128.6 364.8 131.7 368.3 129.8 C 364.6 128.6 373.8 129.5 370.3 128.3 C 374.7 128.5 371.5 128.7 374.6 129.9 C 374.7 127.7 374.6 132.3 376.0 130.7 C 376.2 131.6 381.3 131.8 377.8 130.1 C 383.1 130.1 379.7 131.0 381.4 132.3 C 383.8 132.8 382.0 128.8 383.2 131.7 C 386.1 133.3 383.4 130.3 385.5 132.7 C 384.7 130.7 387.8 133.0 387.2 130.9 C 392.5 131.3 386.2 133.0 390.2 131.9 C 389.0 131.7 389.2 134.6 391.7 133.0 C 391.0 129.7 394.4 136.2 393.2 131.7 C 400.8 131.3 394.2 133.7 398.3 134.1 C 399.4 134.2 397.3 132.5 398.3 132.6 C 403.5 133.8 399.0 134.4 402.0 132.6 C 407.3 132.5 403.3 134.6 405.9 134.9 C 406.2 133.9 408.4 132.4 408.7 134.7 M 404.1 133.3 C 403.0 133.8 403.5 132.5 404.1 133.3 M 414.6 135.2 C 413.4 135.8 414.0 134.4 414.6 135.2 M 399.8 133.5 C 398.2 134.0 399.4 132.3 399.8 133.5 M 371.7 129.2 C 373.7 129.5 370.8 129.7 371.7 129.2 M 410.4 135.0 C 408.8 135.7 410.0 133.8 410.4 135.0 M 412.4 133.4 C 412.3 133.4 412.3 133.4 412.4 133.4 M 368.8 130.6 C 368.7 130.6 368.7 130.6 368.8 130.6 M 376.3 131.6 C 374.7 131.4 377.2 131.3 376.3 131.6 M 377.4 124.5 C 375.8 124.3 378.4 124.2 377.4 124.5 M 364.6 130.2 C 363.0 130.5 364.3 129.3 364.6 130.2 M 360.6 128.1 C 359.1 128.5 359.8 127.2 360.6 128.1 M 405.3 130.9 C 405.3 130.8 405.3 130.8 405.3 130.9 C 405.3 130.9 405.3 130.9 405.3 130.9 Z M 391.7 127.7 C 393.3 128.6 389.8 126.6 391.7 127.7 M 393.8 132.6 C 392.8 131.1 395.9 133.0 393.8 132.6 C 393.8 132.6 393.8 132.6 393.8 132.6 Z M 396.2 132.2 C 396.3 132.2 396.3 132.2 396.2 132.2 C 396.2 132.2 396.2 132.2 396.2 132.2 Z M 388.4 131.3 C 388.5 131.3 388.5 131.3 388.4 131.3 C 388.4 131.3 388.4 131.3 388.4 131.3 Z M 390.1 131.4 C 390.7 131.1 390.9 131.8 390.1 131.4 C 390.1 131.4 390.1 131.4 390.1 131.4 Z M 379.3 125.5 C 380.0 125.3 380.1 125.9 379.3 125.5 C 379.3 125.5 379.3 125.5 379.3 125.5 Z M 392.6 131.1 C 392.9 129.7 393.6 132.2 392.6 131.1 C 392.6 131.1 392.6 131.1 392.6 131.1 Z M 384.6 126.8 C 383.9 127.1 383.3 125.2 384.6 126.8 M 367.2 130.2 C 366.5 130.5 365.9 128.6 367.2 130.2 M 383.7 132.6 C 382.9 132.9 382.4 131.1 383.7 132.6 M 403.2 133.8 C 403.0 133.6 403.0 133.6 403.2 133.8 M 394.7 126.6 C 393.5 127.0 394.2 125.9 394.7 126.6 M 410.1 128.6 C 409.0 129.0 409.6 127.9 410.1 128.6 M 370.4 123.8 C 370.4 124.2 368.7 123.4 370.4 123.8 M 382.0 130.1 C 380.6 129.7 379.2 128.8 382.2 129.2 C 382.3 129.6 381.4 129.7 382.0 130.1 C 382.0 130.1 382.0 130.1 382.0 130.1 Z M 377.2 126.2 C 377.0 126.0 377.0 126.0 377.2 126.2 M 379.3 131.1 C 379.1 131.0 379.1 131.0 379.3 131.1 M 370.8 129.9 C 370.7 129.7 370.7 129.7 370.8 129.9 M 369.7 130.2 C 369.8 130.1 369.8 130.1 369.7 130.2 C 369.7 130.2 369.7 130.2 369.7 130.2 Z M 360.4 129.6 C 360.4 129.5 360.4 129.5 360.4 129.6 C 360.4 129.6 360.4 129.6 360.4 129.6 Z M 373.6 130.1 C 373.6 130.0 373.6 130.0 373.6 130.1 C 373.6 130.1 373.6 130.1 373.6 130.1 Z M 366.6 123.6 C 366.6 123.5 366.6 123.5 366.6 123.6 C 366.6 123.6 366.6 123.6 366.6 123.6 Z M 367.5 124.6 C 367.5 124.5 367.5 124.5 367.5 124.6 C 367.5 124.6 367.5 124.6 367.5 124.6 Z M 408.0 134.6 C 406.6 135.5 407.5 132.1 408.0 134.6 M 363.4 124.1 C 362.3 122.9 365.6 124.1 363.4 124.1 C 363.4 124.1 363.4 124.1 363.4 124.1 Z M 374.7 129.0 C 374.6 128.8 374.6 128.8 374.7 129.0 M 369.2 130.0 C 369.1 129.8 369.1 129.8 369.2 130.0 M 393.7 134.0 C 393.6 133.8 393.6 133.8 393.7 134.0 M 362.8 128.9 C 358.9 128.0 364.8 127.1 362.8 128.9 M 395.6 132.8 C 395.7 132.9 395.7 132.9 395.6 132.8 M 387.1 129.1 C 384.4 128.9 388.1 128.4 387.1 129.1 M 380.1 130.2 C 380.2 130.1 380.2 130.1 380.1 130.2 C 380.1 130.2 380.1 130.2 380.1 130.2 Z M 384.1 130.6 C 386.0 130.7 384.5 131.1 384.1 130.6 C 384.1 130.6 384.1 130.6 384.1 130.6 Z M 406.2 133.1 C 403.7 132.7 408.8 132.9 406.2 133.1 C 406.2 133.1 406.2 133.1 406.2 133.1 Z M 365.0 125.8 C 365.1 125.7 365.1 125.7 365.0 125.8 C 365.0 125.8 365.0 125.8 365.0 125.8 Z M 373.9 131.2 C 375.1 130.9 374.4 131.6 373.9 131.2 C 373.9 131.2 373.9 131.2 373.9 131.2 Z M 359.0 129.4 C 360.2 129.2 359.5 129.9 359.0 129.4 C 359.0 129.4 359.0 129.4 359.0 129.4 Z M 409.2 133.7 C 400.2 130.5 421.4 135.3 409.2 133.7 C 409.2 133.7 409.2 133.7 409.2 133.7 Z M 382.4 131.4 C 382.4 131.4 382.4 131.4 382.4 131.4 C 382.4 131.4 382.4 131.4 382.4 131.4 Z M 399.2 134.3 C 399.2 134.2 399.2 134.2 399.2 134.3 C 399.2 134.3 399.2 134.3 399.2 134.3 Z M 402.2 133.2 C 402.2 133.1 402.2 133.1 402.2 133.2 C 402.2 133.2 402.2 133.2 402.2 133.2 Z M 401.9 127.5 C 401.9 127.4 401.9 127.4 401.9 127.5 C 401.9 127.5 401.9 127.5 401.9 127.5 Z M 400.7 130.0 C 400.8 129.8 400.8 129.8 400.7 130.0 C 400.7 130.0 400.7 130.0 400.7 130.0 Z M 406.6 129.5 C 406.7 129.5 406.7 129.5 406.6 129.5 C 406.6 129.5 406.6 129.5 406.6 129.5 Z M 406.6 128.8 C 406.6 128.7 406.6 128.7 406.6 128.8 C 406.6 128.8 406.6 128.8 406.6 128.8 Z M 369.4 128.4 C 369.5 128.3 369.5 128.3 369.4 128.4 C 369.4 128.4 369.4 128.4 369.4 128.4 Z M 372.8 126.5 C 370.6 127.0 373.6 125.3 372.8 126.5 C 372.8 126.5 372.8 126.5 372.8 126.5 Z M 391.5 129.8 C 389.5 129.9 392.9 129.2 391.5 129.8 C 391.5 129.8 391.5 129.8 391.5 129.8 Z M 389.8 126.5 C 389.7 126.5 389.7 126.5 389.8 126.5 C 389.8 126.5 389.8 126.5 389.8 126.5 Z M 402.0 134.6 C 402.1 134.4 402.1 134.4 402.0 134.6 C 402.0 134.6 402.0 134.6 402.0 134.6 Z M 405.7 133.9 C 406.0 132.8 406.8 134.6 405.7 133.9 M 387.5 132.8 C 387.5 132.6 387.5 132.6 387.5 132.8 C 387.5 132.8 387.5 132.8 387.5 132.8 Z M 376.3 129.6 C 376.3 129.5 376.3 129.5 376.3 129.6 C 376.3 129.6 376.3 129.6 376.3 129.6 Z M 364.8 128.9 C 364.9 128.8 364.9 128.8 364.8 128.9 C 364.8 128.9 364.8 128.9 364.8 128.9 Z M 380.4 131.8 C 380.5 131.7 380.5 131.7 380.4 131.8 C 380.4 131.8 380.4 131.8 380.4 131.8 Z M 385.9 131.4 C 386.0 131.2 386.0 131.2 385.9 131.4 C 385.9 131.4 385.9 131.4 385.9 131.4 Z M 362.6 126.9 C 362.7 126.9 362.7 126.9 362.6 126.9 C 362.6 126.9 362.6 126.9 362.6 126.9 Z M 379.1 131.8 C 379.2 131.8 379.2 131.8 379.1 131.8 C 379.1 131.8 379.1 131.8 379.1 131.8 Z M 376.3 127.7 C 376.4 127.6 376.4 127.6 376.3 127.7 C 376.3 127.7 376.3 127.7 376.3 127.7 Z M 405.0 135.6 C 405.1 135.5 405.1 135.5 405.0 135.6 C 405.0 135.6 405.0 135.6 405.0 135.6 Z M 362.3 128.5 C 362.3 128.4 362.3 128.4 362.3 128.5 C 362.3 128.5 362.3 128.5 362.3 128.5 Z M 361.4 129.5 C 361.5 129.4 361.5 129.4 361.4 129.5 C 361.4 129.5 361.4 129.5 361.4 129.5 Z M 370.2 124.8 C 374.1 126.0 366.6 124.7 369.3 126.3 C 363.5 125.9 369.3 124.7 370.2 124.8 C 370.2 124.8 370.2 124.8 370.2 124.8 Z M 356.0 129.2 C 358.4 127.9 358.6 126.3 357.9 124.5 C 356.9 123.6 356.5 126.8 356.8 124.0 C 359.4 123.9 356.3 119.8 355.9 123.3 C 352.5 123.4 355.6 121.0 353.4 122.1 C 349.8 122.0 351.8 121.2 349.0 121.0 C 347.2 122.7 347.6 119.9 346.6 121.6 C 348.3 119.8 343.6 121.7 343.6 120.8 C 346.3 120.0 334.2 119.4 340.6 120.9 C 337.8 121.5 338.5 119.9 337.7 119.5 C 336.4 120.5 333.4 118.0 331.6 118.9 C 331.9 119.2 332.7 119.4 332.9 119.8 C 333.3 120.6 331.1 119.4 331.3 119.5 C 330.2 119.7 325.7 120.3 330.6 118.9 C 331.0 118.0 326.8 118.8 327.1 118.0 C 323.1 117.3 325.8 119.7 324.2 118.0 C 321.4 117.6 319.4 117.2 319.3 117.5 C 317.7 117.0 317.5 115.9 315.8 116.7 C 312.6 114.1 312.7 120.3 312.0 116.0 C 310.9 116.8 310.3 114.0 310.1 116.6 C 311.5 115.6 304.5 113.7 307.2 116.0 C 306.3 116.5 302.4 112.6 302.6 115.3 C 300.7 116.9 300.7 118.8 303.9 121.1 C 303.7 119.6 307.4 123.2 305.1 120.3 C 302.3 119.0 310.8 120.2 308.8 120.9 C 307.9 123.8 313.2 119.6 314.7 122.0 C 313.4 120.6 320.4 121.1 318.1 123.0 C 319.3 123.4 319.8 122.4 321.0 123.9 C 316.9 123.1 323.0 121.8 322.5 123.1 C 321.7 123.8 327.8 125.4 327.3 124.1 C 325.6 120.7 328.8 125.0 330.1 123.9 C 333.5 123.7 329.1 126.5 332.0 124.6 C 332.6 125.1 337.2 125.7 334.2 125.9 C 333.2 125.5 337.4 123.0 337.5 125.7 C 332.4 126.4 342.9 127.3 341.4 126.2 C 334.1 123.7 349.6 125.7 343.5 126.3 C 346.6 128.2 342.5 126.7 346.7 126.7 C 346.2 125.8 349.6 125.5 348.6 127.0 C 348.9 129.6 350.2 123.9 352.2 127.6 C 352.4 129.1 357.4 127.2 355.3 128.6 C 355.2 128.8 355.9 129.2 356.0 129.2 M 354.5 128.7 C 355.2 128.2 355.4 129.5 354.5 128.7 M 355.2 128.2 C 355.3 128.3 355.3 128.3 355.2 128.2 C 355.2 128.2 355.2 128.2 355.2 128.2 Z M 347.3 126.7 C 347.3 126.8 347.3 126.8 347.3 126.7 C 347.3 126.7 347.3 126.7 347.3 126.7 Z M 341.9 119.5 C 341.9 119.6 341.9 119.6 341.9 119.5 C 341.9 119.5 341.9 119.5 341.9 119.5 Z M 342.0 125.8 C 342.1 125.8 342.1 125.8 342.0 125.8 C 342.0 125.8 342.0 125.8 342.0 125.8 Z M 350.2 126.7 C 350.3 126.7 350.3 126.7 350.2 126.7 C 350.2 126.7 350.2 126.7 350.2 126.7 Z M 342.4 126.8 C 342.1 125.8 344.1 127.8 342.2 126.9 C 342.2 126.9 342.5 126.9 342.4 126.8 M 335.4 126.2 C 335.3 126.0 335.3 126.0 335.4 126.2 M 321.2 116.6 C 321.2 116.4 321.2 116.4 321.2 116.6 M 318.8 123.8 C 318.7 123.7 318.7 123.7 318.8 123.8 M 328.6 124.2 C 326.5 124.0 328.2 123.7 328.6 124.2 M 313.3 122.4 C 315.9 123.4 310.4 122.5 313.3 122.4 M 310.7 122.6 C 310.4 122.4 310.4 122.4 310.7 122.6 M 322.7 124.0 C 322.8 124.0 322.8 124.0 322.7 124.0 C 322.7 124.0 322.7 124.0 322.7 124.0 Z M 329.4 124.7 C 332.1 125.6 326.5 125.2 329.4 124.7 M 346.2 127.5 C 344.6 127.7 346.4 126.3 346.2 127.5 M 349.4 127.4 C 349.5 127.3 349.5 127.3 349.4 127.4 C 349.4 127.4 349.4 127.4 349.4 127.4 Z M 317.6 123.1 C 317.7 123.1 317.7 123.1 317.6 123.1 C 317.6 123.1 317.6 123.1 317.6 123.1 Z M 314.5 122.8 C 314.6 122.8 314.6 122.8 314.5 122.8 C 314.5 122.8 314.5 122.8 314.5 122.8 Z M 310.4 115.2 C 310.5 115.2 310.5 115.2 310.4 115.2 C 310.4 115.2 310.4 115.2 310.4 115.2 Z M 347.5 124.2 C 349.5 125.0 345.1 126.2 345.7 124.5 C 345.6 123.8 347.3 124.3 347.5 124.2 M 331.8 122.9 C 331.6 120.5 333.3 126.4 331.8 122.9 M 310.5 121.0 C 308.9 117.9 312.8 123.3 310.5 121.0 M 306.2 120.8 C 305.1 120.1 314.1 121.7 307.6 121.5 C 307.0 121.8 306.6 121.2 306.2 120.8 M 335.4 125.0 C 335.0 123.6 338.6 126.1 335.4 125.0 M 323.3 119.3 C 322.1 119.9 319.4 120.3 320.8 119.0 C 321.1 117.2 324.6 118.7 323.3 119.3 M 354.1 127.3 C 352.1 129.1 354.4 125.5 354.1 127.3 M 346.0 125.9 C 346.0 126.0 346.0 126.0 346.0 125.9 C 346.0 125.9 346.0 125.9 346.0 125.9 Z M 342.8 125.8 C 342.7 125.6 342.7 125.6 342.8 125.8 M 352.5 128.9 C 352.4 128.7 352.4 128.7 352.5 128.9 M 323.0 121.4 C 322.9 121.2 322.9 121.2 323.0 121.4 M 329.3 123.8 C 326.5 121.2 331.0 123.6 329.3 123.8 M 337.5 120.9 C 336.7 119.8 339.4 121.1 337.5 120.9 M 324.1 123.8 C 322.2 121.5 327.4 122.4 324.1 123.8 M 330.8 124.2 C 330.6 124.2 330.6 124.2 330.8 124.2 C 330.8 124.2 330.8 124.2 330.8 124.2 Z M 322.5 118.9 C 322.6 118.9 322.6 118.9 322.5 118.9 C 322.5 118.9 322.5 118.9 322.5 118.9 Z M 321.5 118.9 C 321.6 118.8 321.6 118.8 321.5 118.9 C 321.5 118.9 321.5 118.9 321.5 118.9 Z M 321.3 123.6 C 321.5 123.6 321.5 123.6 321.3 123.6 C 321.3 123.6 321.3 123.6 321.3 123.6 Z M 350.4 122.1 C 348.2 121.6 352.2 122.0 350.4 122.1 C 350.4 122.1 350.4 122.1 350.4 122.1 Z M 339.8 126.4 C 336.4 124.3 342.6 125.3 339.8 126.4 C 339.8 126.4 339.8 126.4 339.8 126.4 Z M 336.1 123.3 C 336.1 123.2 336.1 123.2 336.1 123.3 C 336.1 123.3 336.1 123.3 336.1 123.3 Z M 325.3 125.2 C 325.3 125.1 325.3 125.1 325.3 125.2 C 325.3 125.2 325.3 125.2 325.3 125.2 Z M 349.3 121.6 C 349.4 121.5 349.4 121.5 349.3 121.6 C 349.3 121.6 349.3 121.6 349.3 121.6 Z M 315.3 121.6 C 315.3 121.5 315.3 121.5 315.3 121.6 C 315.3 121.6 315.3 121.6 315.3 121.6 Z M 328.5 119.5 C 327.6 120.1 328.4 118.9 328.5 119.5 C 328.5 119.5 328.5 119.5 328.5 119.5 Z M 325.2 119.0 C 325.1 119.0 325.1 119.0 325.2 119.0 C 325.2 119.0 325.2 119.0 325.2 119.0 Z M 309.8 122.6 C 309.7 122.6 309.7 122.6 309.8 122.6 C 309.8 122.6 309.8 122.6 309.8 122.6 Z M 317.1 115.9 C 317.0 115.9 317.0 115.9 317.1 115.9 C 317.1 115.9 317.1 115.9 317.1 115.9 Z M 314.0 117.8 C 314.1 117.7 314.1 117.7 314.0 117.8 C 314.0 117.8 314.0 117.8 314.0 117.8 Z M 322.0 123.2 C 318.7 123.1 322.9 122.5 322.0 123.2 C 322.0 123.2 322.0 123.2 322.0 123.2 Z M 305.8 117.1 C 305.7 117.0 305.7 117.0 305.8 117.1 C 305.8 117.1 305.8 117.1 305.8 117.1 Z M 303.7 119.5 C 303.7 119.4 303.7 119.4 303.7 119.5 C 303.7 119.5 303.7 119.5 303.7 119.5 Z M 302.7 120.8 C 302.6 120.7 302.6 120.7 302.7 120.8 C 302.7 120.8 302.7 120.8 302.7 120.8 Z M 343.3 123.0 C 343.3 123.1 343.3 123.1 343.3 123.0 C 343.3 123.0 343.3 123.0 343.3 123.0 Z M 344.0 127.5 C 344.0 127.5 344.0 127.5 344.0 127.5 C 344.0 127.5 344.0 127.5 344.0 127.5 Z M 339.5 127.0 C 339.5 127.1 339.5 127.1 339.5 127.0 C 339.5 127.0 339.5 127.0 339.5 127.0 Z M 344.5 120.5 C 344.5 120.5 344.5 120.5 344.5 120.5 C 344.5 120.5 344.5 120.5 344.5 120.5 Z M 327.2 121.7 C 327.3 121.8 327.3 121.8 327.2 121.7 C 327.2 121.7 327.2 121.7 327.2 121.7 Z M 325.9 119.7 C 326.0 119.8 326.0 119.8 325.9 119.7 C 325.9 119.7 325.9 119.7 325.9 119.7 Z M 330.1 118.0 C 330.2 118.0 330.2 118.0 330.1 118.0 C 330.1 118.0 330.1 118.0 330.1 118.0 Z M 324.9 118.0 C 325.0 118.1 325.0 118.1 324.9 118.0 C 324.9 118.0 324.9 118.0 324.9 118.0 Z M 355.5 122.8 C 355.5 122.8 355.5 122.8 355.5 122.8 C 355.5 122.8 355.5 122.8 355.5 122.8 Z M 355.4 126.2 C 355.5 126.1 355.5 126.1 355.4 126.2 C 355.4 126.2 355.4 126.2 355.4 126.2 Z M 326.4 124.0 C 325.5 124.6 325.0 122.9 326.4 124.0 M 332.8 124.6 C 332.8 124.5 332.8 124.5 332.8 124.6 C 332.8 124.6 332.8 124.6 332.8 124.6 Z M 315.7 122.3 C 315.1 120.9 318.6 123.4 315.7 122.3 C 315.7 122.3 315.7 122.3 315.7 122.3 Z M 319.9 117.3 C 319.8 117.3 319.8 117.3 319.9 117.3 C 319.9 117.3 319.9 117.3 319.9 117.3 Z M 318.1 117.6 C 318.1 117.4 318.1 117.4 318.1 117.6 C 318.1 117.6 318.1 117.6 318.1 117.6 Z M 308.4 119.8 C 308.3 119.6 308.3 119.6 308.4 119.8 M 333.4 125.9 C 332.6 125.1 332.7 125.3 333.4 125.9 M 313.6 121.9 C 313.7 121.9 313.7 121.9 313.6 121.9 C 313.6 121.9 313.6 121.9 313.6 121.9 Z M 306.3 120.2 C 306.4 120.2 306.4 120.2 306.3 120.2 C 306.3 120.2 306.3 120.2 306.3 120.2 Z M 338.1 125.6 C 338.1 124.0 339.0 124.5 338.1 125.6 M 350.8 126.9 C 350.8 126.8 350.8 126.8 350.8 126.9 C 350.8 126.9 350.8 126.9 350.8 126.9 Z M 295.8 118.4 C 303.1 121.7 301.8 117.9 302.2 117.2 C 303.4 116.5 302.5 115.7 301.1 114.8 C 299.9 112.3 298.3 116.7 297.6 114.3 C 296.0 111.0 294.8 116.5 294.5 113.2 C 294.9 112.5 291.9 112.6 292.1 112.9 C 290.9 111.1 288.3 113.5 288.2 113.7 C 287.3 113.2 287.7 110.3 284.3 111.9 C 281.8 112.3 281.2 109.3 281.6 111.3 C 280.2 108.9 280.2 111.7 278.6 110.7 C 277.6 109.3 278.3 112.6 276.5 109.9 C 275.3 111.5 277.7 108.9 271.7 109.1 C 274.4 109.8 268.7 110.1 270.0 109.1 C 272.2 108.1 267.2 109.1 264.7 107.8 C 263.8 108.3 260.4 109.3 261.2 107.7 C 258.9 105.1 258.2 108.4 257.4 106.5 C 256.6 105.6 256.0 107.0 255.4 106.8 C 254.7 105.3 253.6 106.0 250.3 105.0 C 243.0 102.8 248.5 108.0 245.6 107.9 C 245.0 108.4 248.3 113.4 247.3 109.9 C 247.7 110.9 254.4 108.9 250.7 111.7 C 253.3 110.8 249.9 113.1 254.9 112.3 C 249.0 108.6 262.4 112.8 256.0 112.7 C 256.9 113.7 259.4 114.0 257.7 113.1 C 257.4 110.7 261.9 114.9 259.9 111.7 C 263.7 113.2 263.1 110.6 263.9 112.5 C 264.3 115.6 263.8 111.7 265.7 112.9 C 270.3 113.8 266.1 116.5 269.3 114.8 C 273.6 117.1 270.5 113.7 272.2 113.6 C 273.0 111.7 276.6 116.0 273.0 115.6 C 275.1 114.9 273.2 116.7 275.5 115.8 C 274.3 113.6 277.9 118.2 277.5 116.6 C 279.4 116.5 278.7 115.2 279.3 115.2 C 282.0 115.7 280.9 117.4 281.7 116.1 C 282.4 115.5 283.3 118.1 283.8 117.6 C 280.9 117.0 286.5 116.0 286.6 117.0 C 284.8 116.9 287.1 119.6 288.5 118.4 C 287.7 114.0 290.8 119.8 292.3 118.6 C 291.4 116.1 298.6 119.3 295.6 119.9 C 295.8 119.8 295.7 118.4 295.8 118.4 M 284.7 117.4 C 282.3 116.8 287.3 117.4 284.7 117.4 M 284.7 118.0 C 283.8 117.1 286.8 118.9 284.5 118.2 C 284.5 118.2 284.8 118.1 284.7 118.0 M 274.9 116.4 C 275.3 115.8 276.2 117.0 274.9 116.4 M 273.3 114.7 C 271.9 113.8 275.4 114.9 273.3 114.7 M 251.8 111.1 C 254.6 108.1 253.7 113.4 251.8 111.1 M 265.9 114.5 C 268.6 114.5 264.7 115.7 265.9 114.5 M 266.8 113.8 C 268.1 113.4 266.9 114.6 266.8 113.8 M 255.9 111.9 C 255.7 111.8 255.7 111.8 255.9 111.9 C 255.9 111.9 255.9 111.9 255.9 111.9 Z M 249.6 110.5 C 249.5 110.6 249.5 110.6 249.6 110.5 C 249.6 110.5 249.6 110.5 249.6 110.5 Z M 262.1 112.7 C 263.9 113.9 258.8 112.4 262.1 112.7 C 262.1 112.7 262.1 112.7 262.1 112.7 Z M 253.6 106.0 C 253.7 106.0 253.7 106.0 253.6 106.0 C 253.6 106.0 253.6 106.0 253.6 106.0 Z M 286.8 116.1 C 286.9 116.1 286.9 116.1 286.8 116.1 C 286.8 116.1 286.8 116.1 286.8 116.1 Z M 293.8 118.6 C 293.8 118.1 295.1 119.2 293.8 118.6 C 293.8 118.6 293.8 118.6 293.8 118.6 Z M 300.3 115.7 C 300.4 115.7 300.4 115.7 300.3 115.7 C 300.3 115.7 300.3 115.7 300.3 115.7 Z M 289.5 114.8 C 289.6 114.7 289.6 114.7 289.5 114.8 C 289.5 114.8 289.5 114.8 289.5 114.8 Z M 288.0 117.1 C 288.9 119.2 285.4 116.2 288.0 117.1 C 288.0 117.1 288.0 117.1 288.0 117.1 Z M 265.4 108.5 C 265.2 109.3 263.8 107.9 265.4 108.5 C 265.4 108.5 265.4 108.5 265.4 108.5 Z M 273.2 113.9 C 272.8 114.2 272.1 113.5 273.2 113.9 C 273.2 113.9 273.2 113.9 273.2 113.9 Z M 276.7 117.1 C 276.3 117.4 275.7 116.7 276.7 117.1 C 276.7 117.1 276.7 117.1 276.7 117.1 Z M 293.6 119.1 C 293.4 119.2 293.4 119.2 293.6 119.1 C 293.6 119.1 293.6 119.1 293.6 119.1 Z M 291.3 117.3 C 292.7 119.3 288.6 115.9 291.3 117.3 C 291.3 117.3 291.3 117.3 291.3 117.3 Z M 294.4 117.3 C 293.6 116.4 296.7 118.0 294.4 117.3 M 293.1 114.3 C 290.8 114.7 295.6 111.5 293.1 114.3 C 293.1 114.3 293.1 114.3 293.1 114.3 Z M 282.1 111.8 C 281.9 111.7 281.9 111.7 282.1 111.8 C 282.1 111.8 282.1 111.8 282.1 111.8 Z M 282.4 117.0 C 280.4 116.7 283.7 116.8 282.4 117.0 C 282.4 117.0 282.4 117.0 282.4 117.0 Z M 299.1 120.2 C 297.2 119.8 300.5 120.0 299.1 120.2 C 299.1 120.2 299.1 120.2 299.1 120.2 Z M 275.3 112.3 C 272.1 112.0 277.4 111.7 275.3 112.3 C 275.3 112.3 275.3 112.3 275.3 112.3 Z M 263.3 112.2 C 263.2 112.2 263.2 112.2 263.3 112.2 C 263.3 112.2 263.3 112.2 263.3 112.2 Z M 261.0 112.5 C 261.0 112.5 261.0 112.5 261.0 112.5 C 261.0 112.5 261.0 112.5 261.0 112.5 Z M 252.4 109.0 C 252.3 108.9 252.3 108.9 252.4 109.0 C 252.4 109.0 252.4 109.0 252.4 109.0 Z M 258.9 113.0 C 258.9 113.0 258.9 113.0 258.9 113.0 C 258.9 113.0 258.9 113.0 258.9 113.0 Z M 252.8 111.3 C 252.7 111.3 252.7 111.3 252.8 111.3 C 252.8 111.3 252.8 111.3 252.8 111.3 Z M 253.4 113.0 C 253.2 112.9 253.2 112.9 253.4 113.0 C 253.4 113.0 253.4 113.0 253.4 113.0 Z M 268.6 108.1 C 268.5 108.0 268.5 108.0 268.6 108.1 C 268.6 108.1 268.6 108.1 268.6 108.1 Z M 290.1 119.1 C 290.0 118.9 290.0 118.9 290.1 119.1 C 290.1 119.1 290.1 119.1 290.1 119.1 Z M 253.4 110.8 C 253.4 110.7 253.4 110.7 253.4 110.8 C 253.4 110.8 253.4 110.8 253.4 110.8 Z M 268.9 112.3 C 269.1 110.8 269.8 114.5 268.5 112.3 C 268.6 112.2 268.9 112.5 268.9 112.3 M 267.3 109.4 C 267.4 109.4 267.4 109.4 267.3 109.4 C 267.3 109.4 267.3 109.4 267.3 109.4 Z M 274.3 109.8 C 274.4 109.7 274.4 109.7 274.3 109.8 C 274.3 109.8 274.3 109.8 274.3 109.8 Z M 260.0 113.5 C 260.1 114.4 258.4 112.6 260.2 113.5 M 252.9 106.4 C 253.0 107.3 251.3 105.5 253.1 106.4 M 301.4 120.0 C 301.8 119.4 302.7 120.6 301.4 120.0 M 276.0 109.3 C 276.4 108.7 277.2 109.9 276.0 109.3 M 272.4 110.6 C 272.6 111.5 270.9 109.6 272.7 110.6 M 257.6 107.4 C 257.5 107.4 257.5 107.4 257.6 107.4 C 257.6 107.4 257.6 107.4 257.6 107.4 Z M 279.4 116.4 C 279.4 116.3 279.4 116.3 279.4 116.4 C 279.4 116.4 279.4 116.4 279.4 116.4 Z M 271.3 113.1 C 272.3 114.5 269.9 112.1 271.3 113.1 M 282.2 114.8 C 283.7 116.5 279.7 113.9 282.2 114.8 M 249.4 105.4 C 250.9 107.4 248.2 104.2 249.4 105.4 M 257.8 111.4 C 259.3 113.5 256.6 110.2 257.8 111.4 M 277.9 115.4 C 277.8 116.3 276.1 114.5 277.9 115.4 M 297.0 119.4 C 298.8 119.9 294.5 119.8 297.0 119.4 M 262.1 108.2 C 262.0 108.1 262.0 108.1 262.1 108.2 C 262.1 108.2 262.1 108.2 262.1 108.2 Z M 292.3 112.0 C 292.2 111.9 292.2 111.9 292.3 112.0 C 292.3 112.0 292.3 112.0 292.3 112.0 Z M 245.9 110.4 C 245.8 110.4 245.8 110.4 245.9 110.4 C 245.9 110.4 245.9 110.4 245.9 110.4 Z M 259.0 110.9 C 259.0 110.7 259.0 110.7 259.0 110.9 C 259.0 110.9 259.0 110.9 259.0 110.9 Z M 249.4 111.4 C 249.3 111.3 249.3 111.3 249.4 111.4 C 249.4 111.4 249.4 111.4 249.4 111.4 Z M 265.1 110.6 C 265.1 110.6 265.1 110.6 265.1 110.6 C 265.1 110.6 265.1 110.6 265.1 110.6 Z M 265.5 115.2 C 265.4 115.1 265.4 115.1 265.5 115.2 C 265.5 115.2 265.5 115.2 265.5 115.2 Z M 272.2 114.5 C 272.2 114.5 272.2 114.5 272.2 114.5 C 272.2 114.5 272.2 114.5 272.2 114.5 Z M 262.6 114.3 C 258.8 113.9 264.8 113.2 262.6 114.3 C 262.6 114.3 262.6 114.3 262.6 114.3 Z M 270.0 111.2 C 270.0 111.2 270.0 111.2 270.0 111.2 C 270.0 111.2 270.0 111.2 270.0 111.2 Z M 270.0 114.4 C 267.4 115.2 269.1 112.0 270.0 114.4 M 280.4 117.3 C 279.6 117.8 280.3 116.2 280.4 117.3 M 285.6 112.3 C 285.7 112.2 285.7 112.2 285.6 112.3 C 285.6 112.3 285.6 112.3 285.6 112.3 Z M 284.5 112.5 C 284.3 112.5 284.3 112.5 284.5 112.5 C 284.5 112.5 284.5 112.5 284.5 112.5 Z M 283.0 118.0 C 282.9 117.9 282.9 117.9 283.0 118.0 C 283.0 118.0 283.0 118.0 283.0 118.0 Z M 284.6 110.9 C 284.5 110.8 284.5 110.8 284.6 110.9 C 284.6 110.9 284.6 110.9 284.6 110.9 Z M 267.0 115.3 C 266.9 115.3 266.9 115.3 267.0 115.3 C 267.0 115.3 267.0 115.3 267.0 115.3 Z M 247.4 111.6 C 247.4 111.6 247.4 111.6 247.4 111.6 C 247.4 111.6 247.4 111.6 247.4 111.6 Z M 297.2 114.8 C 297.1 114.7 297.1 114.7 297.2 114.8 C 297.2 114.8 297.2 114.8 297.2 114.8 Z M 265.2 113.3 C 265.2 113.2 265.2 113.2 265.2 113.3 C 265.2 113.3 265.2 113.3 265.2 113.3 Z M 288.4 113.0 C 288.3 112.9 288.3 112.9 288.4 113.0 C 288.4 113.0 288.4 113.0 288.4 113.0 Z M 266.4 113.9 C 266.4 113.8 266.4 113.8 266.4 113.9 C 266.4 113.9 266.4 113.9 266.4 113.9 Z M 262.8 108.0 C 262.7 107.9 262.7 107.9 262.8 108.0 C 262.8 108.0 262.8 108.0 262.8 108.0 Z M 258.8 106.2 C 258.8 106.2 258.8 106.2 258.8 106.2 C 258.8 106.2 258.8 106.2 258.8 106.2 Z M 262.5 111.0 C 262.4 111.0 262.4 111.0 262.5 111.0 C 262.5 111.0 262.5 111.0 262.5 111.0 Z M 289.4 115.1 C 296.9 117.9 283.2 114.8 289.4 115.1 M 261.3 110.4 C 266.6 111.8 256.7 111.3 261.3 110.4 C 260.6 110.8 261.2 110.5 261.3 110.4 M 240.1 109.5 C 243.2 111.9 243.7 109.5 243.7 109.4 C 242.6 112.6 247.0 108.7 246.5 107.9 C 246.7 107.5 245.3 101.2 242.1 104.2 C 241.4 104.5 241.2 103.4 240.8 103.2 C 236.6 102.4 243.3 105.6 238.2 104.5 C 237.4 103.8 239.0 101.3 235.7 102.6 C 235.6 102.3 232.4 100.5 233.4 102.1 C 232.1 100.4 230.7 101.7 229.1 101.7 C 227.9 100.6 230.7 100.0 225.5 100.4 C 224.0 97.6 222.3 101.4 221.0 98.4 C 219.8 98.1 217.0 101.8 220.4 100.1 C 219.9 100.3 221.2 102.6 217.5 101.0 C 218.2 100.6 221.3 97.0 214.8 97.5 C 213.9 97.1 211.3 97.6 210.9 97.0 C 214.1 97.4 207.2 94.1 207.6 95.6 C 203.0 93.5 205.3 96.1 202.2 93.8 C 199.4 93.0 202.6 95.9 199.4 93.8 C 196.7 93.3 198.8 92.8 199.0 92.9 C 196.8 92.1 195.8 92.6 195.0 92.3 C 194.5 92.0 193.7 90.8 192.9 91.7 C 190.0 92.9 191.6 95.4 190.0 97.0 C 191.5 98.4 191.2 95.8 192.0 97.5 C 193.2 96.6 192.1 97.7 197.1 98.8 C 197.0 98.4 196.1 97.3 197.3 97.5 C 199.1 98.2 196.9 101.0 200.7 99.6 C 197.1 97.9 206.1 99.9 202.9 98.4 C 207.2 99.1 204.0 98.9 206.9 100.5 C 207.3 98.3 206.6 102.9 208.2 101.5 C 208.2 102.4 213.2 103.3 210.1 101.1 C 215.3 101.8 211.8 102.2 213.3 103.8 C 215.6 104.5 214.3 100.3 215.2 103.3 C 217.9 105.3 215.6 102.1 217.3 104.7 C 216.8 102.6 219.6 105.2 219.2 103.0 C 224.5 104.1 218.1 105.0 222.1 104.5 C 220.9 104.1 220.7 107.0 223.4 105.7 C 223.2 102.3 225.7 109.2 225.1 104.6 C 232.6 105.1 225.9 106.7 229.9 107.6 C 230.9 107.8 229.1 105.9 230.0 106.1 C 235.1 107.9 230.5 108.0 233.7 106.6 C 238.9 107.1 234.8 108.7 237.3 109.4 C 237.7 108.4 240.1 107.1 240.1 109.5 M 235.8 107.5 C 234.6 107.9 235.2 106.6 235.8 107.5 M 245.9 110.6 C 244.7 111.1 245.4 109.8 245.9 110.6 M 231.4 107.2 C 229.8 107.5 231.2 105.9 231.4 107.2 M 204.2 99.5 C 206.1 100.0 203.1 99.8 204.2 99.5 M 241.7 109.9 C 240.0 110.4 241.6 108.7 241.7 109.9 M 244.0 108.7 C 243.9 108.6 243.9 108.6 244.0 108.7 M 201.0 100.5 C 200.9 100.4 200.9 100.4 201.0 100.5 M 208.3 102.4 C 206.8 102.0 209.3 102.2 208.3 102.4 M 210.4 95.5 C 208.8 95.1 211.4 95.3 210.4 95.5 M 197.0 99.5 C 195.3 99.6 196.7 98.6 197.0 99.5 M 193.3 96.8 C 191.8 97.0 192.6 95.9 193.3 96.8 M 237.2 105.2 C 237.3 105.2 237.3 105.2 237.2 105.2 C 237.2 105.2 237.2 105.2 237.2 105.2 Z M 224.1 100.5 C 225.6 101.5 222.4 99.1 224.1 100.5 M 225.5 105.6 C 224.8 103.9 227.6 106.2 225.5 105.6 C 225.5 105.6 225.5 105.6 225.5 105.6 Z M 228.1 105.5 C 228.1 105.4 228.1 105.4 228.1 105.5 C 228.1 105.5 228.1 105.5 228.1 105.5 Z M 220.4 103.6 C 220.5 103.6 220.5 103.6 220.4 103.6 C 220.4 103.6 220.4 103.6 220.4 103.6 Z M 222.0 103.9 C 222.7 103.7 222.9 104.4 222.0 103.9 C 222.0 103.9 222.0 103.9 222.0 103.9 Z M 212.1 96.7 C 212.8 96.6 212.9 97.2 212.1 96.7 C 212.1 96.7 212.1 96.7 212.1 96.7 Z M 224.6 104.0 C 225.1 102.6 225.4 105.2 224.6 104.0 C 224.6 104.0 224.6 104.0 224.6 104.0 Z M 217.2 98.7 C 216.4 98.9 216.1 97.0 217.2 98.7 M 199.5 99.8 C 198.8 100.0 198.5 98.1 199.5 99.8 M 215.5 104.3 C 214.8 104.5 214.4 102.6 215.5 104.3 M 234.8 107.9 C 234.6 107.7 234.6 107.7 234.8 107.9 M 227.2 99.7 C 226.0 100.0 226.8 99.0 227.2 99.7 M 242.2 103.5 C 241.0 103.9 241.9 102.8 242.2 103.5 M 203.5 93.9 C 203.5 94.3 202.0 93.3 203.5 93.9 M 214.2 101.6 C 212.8 101.1 211.6 100.0 214.5 100.8 C 214.6 101.2 213.7 101.1 214.2 101.6 C 214.2 101.6 214.2 101.6 214.2 101.6 Z M 210.0 97.1 C 209.8 96.9 209.8 96.9 210.0 97.1 M 211.4 102.3 C 211.2 102.1 211.2 102.1 211.4 102.3 M 203.2 100.0 C 203.0 99.8 203.0 99.8 203.2 100.0 M 202.0 100.2 C 202.1 100.1 202.1 100.1 202.0 100.2 C 202.0 100.2 202.0 100.2 202.0 100.2 Z M 192.9 98.3 C 192.9 98.2 192.9 98.2 192.9 98.3 C 192.9 98.3 192.9 98.3 192.9 98.3 Z M 205.8 100.5 C 205.9 100.5 205.9 100.5 205.8 100.5 C 205.8 100.5 205.8 100.5 205.8 100.5 Z M 199.9 93.2 C 199.9 93.1 199.9 93.1 199.9 93.2 C 199.9 93.2 199.9 93.2 199.9 93.2 Z M 200.6 94.3 C 200.6 94.2 200.6 94.2 200.6 94.3 C 200.6 94.3 200.6 94.3 200.6 94.3 Z M 239.4 109.3 C 237.9 110.0 239.2 106.7 239.4 109.3 M 196.6 93.2 C 195.7 91.9 198.7 93.6 196.6 93.2 C 196.6 93.2 196.6 93.2 196.6 93.2 Z M 207.1 99.6 C 207.1 99.4 207.1 99.4 207.1 99.6 M 201.6 99.9 C 201.5 99.7 201.5 99.7 201.6 99.9 M 225.3 106.9 C 225.2 106.7 225.2 106.7 225.3 106.9 M 195.3 97.9 C 191.6 96.5 197.6 96.4 195.3 97.9 M 227.4 106.0 C 227.4 106.1 227.4 106.1 227.4 106.0 M 219.3 101.3 C 216.8 100.8 220.4 100.7 219.3 101.3 M 212.4 101.5 C 212.4 101.4 212.4 101.4 212.4 101.5 C 212.4 101.5 212.4 101.5 212.4 101.5 Z M 216.2 102.4 C 218.1 102.7 216.6 102.9 216.2 102.4 C 216.2 102.4 216.2 102.4 216.2 102.4 Z M 237.8 107.6 C 235.4 106.9 240.5 107.7 237.8 107.6 C 237.8 107.6 237.8 107.6 237.8 107.6 Z M 198.0 95.1 C 198.1 95.0 198.1 95.0 198.0 95.1 C 198.0 95.1 198.0 95.1 198.0 95.1 Z M 206.0 101.6 C 207.3 101.6 206.5 102.2 206.0 101.6 C 206.0 101.6 206.0 101.6 206.0 101.6 Z M 191.5 97.9 C 192.8 97.8 191.9 98.4 191.5 97.9 C 191.5 97.9 191.5 97.9 191.5 97.9 Z M 240.7 108.5 C 232.2 104.2 252.6 111.6 240.7 108.5 C 240.7 108.5 240.7 108.5 240.7 108.5 Z M 214.4 103.0 C 214.5 102.9 214.5 102.9 214.4 103.0 C 214.4 103.0 214.4 103.0 214.4 103.0 Z M 230.7 107.9 C 230.8 107.8 230.8 107.8 230.7 107.9 C 230.7 107.9 230.7 107.9 230.7 107.9 Z M 233.8 107.2 C 233.9 107.1 233.9 107.1 233.8 107.2 C 233.8 107.2 233.8 107.2 233.8 107.2 Z M 234.2 101.5 C 234.3 101.4 234.3 101.4 234.2 101.5 C 234.2 101.5 234.2 101.5 234.2 101.5 Z M 232.7 103.8 C 232.9 103.6 232.9 103.6 232.7 103.8 C 232.7 103.8 232.7 103.8 232.7 103.8 Z M 238.7 104.1 C 238.8 104.0 238.8 104.0 238.7 104.1 C 238.7 104.1 238.7 104.1 238.7 104.1 Z M 238.7 103.3 C 238.8 103.3 238.8 103.3 238.7 103.3 C 238.7 103.3 238.7 103.3 238.7 103.3 Z M 202.0 98.3 C 202.1 98.2 202.1 98.2 202.0 98.3 C 202.0 98.3 202.0 98.3 202.0 98.3 Z M 205.6 96.8 C 203.4 97.1 206.6 95.8 205.6 96.8 C 205.6 96.8 205.6 96.8 205.6 96.8 Z M 223.7 102.5 C 221.7 102.4 225.1 102.1 223.7 102.5 C 223.7 102.5 223.7 102.5 223.7 102.5 Z M 222.3 99.0 C 222.3 99.0 222.3 99.0 222.3 99.0 C 222.3 99.0 222.3 99.0 222.3 99.0 Z M 233.5 108.5 C 233.6 108.4 233.6 108.4 233.5 108.5 C 233.5 108.5 233.5 108.5 233.5 108.5 Z M 237.2 108.3 C 237.6 107.2 238.2 109.2 237.2 108.3 M 219.3 105.0 C 219.4 104.8 219.4 104.8 219.3 105.0 C 219.3 105.0 219.3 105.0 219.3 105.0 Z M 208.6 100.4 C 208.7 100.3 208.7 100.3 208.6 100.4 C 208.6 100.4 208.6 100.4 208.6 100.4 Z M 197.4 98.2 C 197.5 98.1 197.5 98.1 197.4 98.2 C 197.4 98.2 197.4 98.2 197.4 98.2 Z M 212.4 103.1 C 212.5 103.0 212.5 103.0 212.4 103.1 C 212.4 103.1 212.4 103.1 212.4 103.1 Z M 218.0 103.4 C 218.0 103.2 218.0 103.2 218.0 103.4 C 218.0 103.4 218.0 103.4 218.0 103.4 Z M 195.4 95.9 C 195.5 95.9 195.5 95.9 195.4 95.9 C 195.4 95.9 195.4 95.9 195.4 95.9 Z M 211.1 103.0 C 211.2 103.0 211.2 103.0 211.1 103.0 C 211.1 103.0 211.1 103.0 211.1 103.0 Z M 208.9 98.5 C 209.0 98.4 209.0 98.4 208.9 98.5 C 208.9 98.5 208.9 98.5 208.9 98.5 Z M 236.4 109.9 C 236.4 109.9 236.4 109.9 236.4 109.9 C 236.4 109.9 236.4 109.9 236.4 109.9 Z M 194.9 97.4 C 194.9 97.4 194.9 97.4 194.9 97.4 C 194.9 97.4 194.9 97.4 194.9 97.4 Z M 193.9 98.3 C 194.0 98.2 194.0 98.2 193.9 98.3 C 193.9 98.3 193.9 98.3 193.9 98.3 Z M 203.2 94.9 C 206.9 96.6 199.6 94.2 202.1 96.2 C 196.5 95.1 202.4 94.6 203.2 94.9 C 203.2 94.9 203.2 94.9 203.2 94.9 Z M 188.6 97.2 C 191.2 96.3 191.6 94.8 191.1 92.9 C 190.3 91.8 189.4 94.9 190.2 92.3 C 192.7 92.5 190.2 88.0 189.3 91.4 C 186.0 91.0 189.4 89.1 187.1 89.9 C 183.6 89.2 185.6 88.7 182.9 88.1 C 180.9 89.5 181.7 86.8 180.5 88.3 C 182.4 86.8 177.5 87.9 177.7 87.1 C 180.4 86.6 168.6 84.1 174.7 86.7 C 171.8 86.8 172.8 85.3 172.0 84.8 C 170.6 85.6 168.2 82.6 166.2 83.1 C 166.5 83.5 167.2 83.8 167.3 84.3 C 167.5 85.1 165.6 83.5 165.8 83.6 C 164.7 83.7 160.2 83.4 165.2 83.0 C 165.7 82.1 161.5 82.2 161.9 81.4 C 158.2 80.0 160.4 82.8 159.2 80.9 C 156.5 79.9 154.6 79.2 154.5 79.4 C 152.9 78.6 153.0 77.5 151.2 77.9 C 148.6 74.7 147.4 80.8 147.6 76.5 C 146.4 77.1 146.4 74.2 145.6 76.7 C 147.2 76.0 140.8 72.7 143.0 75.5 C 142.0 75.8 139.0 71.1 138.7 73.8 C 136.5 74.9 136.0 76.8 138.6 79.7 C 138.8 78.2 141.6 82.5 140.0 79.2 C 137.5 77.3 145.6 80.4 143.5 80.6 C 142.0 83.2 148.1 80.3 149.0 83.0 C 148.1 81.3 154.8 83.2 152.2 84.6 C 153.3 85.2 154.0 84.3 154.9 86.0 C 151.0 84.4 157.2 84.4 156.5 85.6 C 155.5 86.1 161.2 88.9 161.0 87.5 C 160.0 83.8 162.4 88.6 163.8 87.8 C 167.2 88.3 162.4 90.1 165.6 88.8 C 166.1 89.4 170.5 90.8 167.5 90.5 C 166.5 89.9 171.2 88.1 170.8 90.8 C 165.7 90.7 175.9 93.3 174.6 92.0 C 167.8 88.4 182.8 92.9 176.7 92.5 C 179.4 94.9 175.5 92.7 179.7 93.4 C 179.4 92.4 182.8 92.6 181.5 94.0 C 181.4 96.6 183.6 91.1 185.1 95.1 C 185.0 96.6 190.2 95.5 188.0 96.6 C 187.9 96.7 188.4 97.2 188.6 97.2 M 187.2 96.5 C 187.9 96.1 187.9 97.4 187.2 96.5 M 187.9 96.1 C 188.0 96.2 188.0 96.2 187.9 96.1 C 187.9 96.1 187.9 96.1 187.9 96.1 Z M 180.3 93.5 C 180.4 93.6 180.4 93.6 180.3 93.5 C 180.3 93.5 180.3 93.5 180.3 93.5 Z M 176.2 85.5 C 176.2 85.6 176.2 85.6 176.2 85.5 C 176.2 85.5 176.2 85.5 176.2 85.5 Z M 175.2 91.7 C 175.3 91.8 175.3 91.8 175.2 91.7 C 175.2 91.7 175.2 91.7 175.2 91.7 Z M 183.2 93.9 C 183.3 93.9 183.3 93.9 183.2 93.9 C 183.2 93.9 183.2 93.9 183.2 93.9 Z M 175.4 92.8 C 175.3 91.7 177.0 94.0 175.3 92.9 C 175.2 92.8 175.6 92.9 175.4 92.8 M 168.6 91.0 C 168.6 90.8 168.6 90.8 168.6 91.0 M 156.5 78.9 C 156.5 78.8 156.5 78.8 156.5 78.9 M 152.7 85.5 C 152.6 85.3 152.6 85.3 152.7 85.5 M 162.3 87.8 C 160.2 87.2 161.9 87.2 162.3 87.8 M 147.6 83.0 C 149.9 84.6 144.7 82.5 147.6 83.0 M 144.9 82.6 C 144.8 82.5 144.8 82.5 144.9 82.6 M 156.5 86.5 C 156.6 86.5 156.6 86.5 156.5 86.5 C 156.5 86.5 156.5 86.5 156.5 86.5 Z M 163.0 88.5 C 165.5 89.9 160.0 88.4 163.0 88.5 M 179.2 94.1 C 177.5 94.0 179.5 92.9 179.2 94.1 M 182.4 94.5 C 182.4 94.4 182.4 94.4 182.4 94.5 C 182.4 94.5 182.4 94.5 182.4 94.5 Z M 151.6 84.6 C 151.7 84.6 151.7 84.6 151.6 84.6 C 151.6 84.6 151.6 84.6 151.6 84.6 Z M 148.7 83.7 C 148.8 83.7 148.8 83.7 148.7 83.7 C 148.7 83.7 148.7 83.7 148.7 83.7 Z M 146.3 75.4 C 146.4 75.4 146.4 75.4 146.3 75.4 C 146.3 75.4 146.3 75.4 146.3 75.4 Z M 181.0 91.0 C 182.8 92.1 178.2 92.6 179.1 91.1 C 179.1 90.3 180.7 91.1 181.0 91.0 M 165.6 87.1 C 165.9 84.7 166.6 90.8 165.6 87.1 M 145.1 81.0 C 144.2 77.7 146.9 83.8 145.1 81.0 M 141.0 80.0 C 140.0 79.0 148.5 82.5 142.2 80.9 C 141.5 81.1 141.3 80.4 141.0 80.0 M 168.9 89.8 C 168.7 88.4 171.9 91.4 168.9 89.8 M 158.0 81.9 C 156.7 82.4 154.0 82.2 155.6 81.2 C 156.2 79.5 159.4 81.7 158.0 81.9 M 187.0 95.0 C 184.7 96.6 187.5 93.3 187.0 95.0 M 179.2 92.5 C 179.2 92.6 179.2 92.6 179.2 92.5 C 179.2 92.5 179.2 92.5 179.2 92.5 Z M 176.0 91.9 C 175.9 91.7 175.9 91.7 176.0 91.9 M 185.2 96.4 C 185.1 96.2 185.1 96.2 185.2 96.4 M 157.3 84.0 C 157.2 83.8 157.2 83.8 157.3 84.0 M 163.0 87.5 C 160.8 84.5 164.8 87.6 163.0 87.5 M 171.6 86.1 C 171.0 84.9 173.5 86.7 171.6 86.1 M 157.9 86.5 C 156.5 83.9 161.4 85.8 157.9 86.5 M 164.5 88.2 C 164.3 88.1 164.3 88.1 164.5 88.2 C 164.5 88.2 164.5 88.2 164.5 88.2 Z M 157.3 81.5 C 157.3 81.4 157.3 81.4 157.3 81.5 C 157.3 81.5 157.3 81.5 157.3 81.5 Z M 156.3 81.2 C 156.5 81.2 156.5 81.2 156.3 81.2 C 156.3 81.2 156.3 81.2 156.3 81.2 Z M 155.2 85.8 C 155.4 85.8 155.4 85.8 155.2 85.8 C 155.2 85.8 155.2 85.8 155.2 85.8 Z M 184.1 89.3 C 182.1 88.6 185.9 89.5 184.1 89.3 C 184.1 89.3 184.1 89.3 184.1 89.3 Z M 173.0 92.0 C 170.0 89.3 175.9 91.3 173.0 92.0 C 173.0 92.0 173.0 92.0 173.0 92.0 Z M 169.8 88.2 C 169.8 88.1 169.8 88.1 169.8 88.2 C 169.8 88.2 169.8 88.2 169.8 88.2 Z M 158.8 88.2 C 158.9 88.0 158.9 88.0 158.8 88.2 C 158.8 88.2 158.8 88.2 158.8 88.2 Z M 183.1 88.8 C 183.2 88.7 183.2 88.7 183.1 88.8 C 183.1 88.8 183.1 88.8 183.1 88.8 Z M 149.7 82.6 C 149.7 82.5 149.7 82.5 149.7 82.6 C 149.7 82.6 149.7 82.6 149.7 82.6 Z M 163.0 83.2 C 162.0 83.6 163.1 82.5 163.0 83.2 C 163.0 83.2 163.0 83.2 163.0 83.2 Z M 159.9 82.0 C 159.8 82.0 159.8 82.0 159.9 82.0 C 159.9 82.0 159.9 82.0 159.9 82.0 Z M 144.1 82.5 C 144.0 82.5 144.0 82.5 144.1 82.5 C 144.1 82.5 144.1 82.5 144.1 82.5 Z M 152.6 77.4 C 152.5 77.4 152.5 77.4 152.6 77.4 C 152.6 77.4 152.6 77.4 152.6 77.4 Z M 149.2 78.6 C 149.3 78.6 149.3 78.6 149.2 78.6 C 149.2 78.6 149.2 78.6 149.2 78.6 Z M 156.0 85.6 C 152.7 84.8 157.0 85.0 156.0 85.6 C 156.0 85.6 156.0 85.6 156.0 85.6 Z M 141.4 76.3 C 141.3 76.2 141.3 76.2 141.4 76.3 C 141.4 76.3 141.4 76.3 141.4 76.3 Z M 138.8 78.2 C 138.8 78.0 138.8 78.0 138.8 78.2 C 138.8 78.2 138.8 78.2 138.8 78.2 Z M 137.5 79.2 C 137.5 79.1 137.5 79.1 137.5 79.2 C 137.5 79.2 137.5 79.2 137.5 79.2 Z M 177.0 89.1 C 177.0 89.2 177.0 89.2 177.0 89.1 C 177.0 89.1 177.0 89.1 177.0 89.1 Z M 176.9 93.7 C 176.9 93.7 176.9 93.7 176.9 93.7 C 176.9 93.7 176.9 93.7 176.9 93.7 Z M 172.5 92.5 C 172.5 92.6 172.5 92.6 172.5 92.5 C 172.5 92.5 172.5 92.5 172.5 92.5 Z M 178.5 86.8 C 178.6 86.9 178.6 86.9 178.5 86.8 C 178.5 86.8 178.5 86.8 178.5 86.8 Z M 161.4 85.1 C 161.4 85.2 161.4 85.2 161.4 85.1 C 161.4 85.1 161.4 85.1 161.4 85.1 Z M 160.5 82.9 C 160.5 83.0 160.5 83.0 160.5 82.9 C 160.5 82.9 160.5 82.9 160.5 82.9 Z M 164.9 82.0 C 164.9 82.0 164.9 82.0 164.9 82.0 C 164.9 82.0 164.9 82.0 164.9 82.0 Z M 159.9 81.1 C 159.9 81.1 159.9 81.1 159.9 81.1 C 159.9 81.1 159.9 81.1 159.9 81.1 Z M 189.0 90.9 C 189.1 90.8 189.1 90.8 189.0 90.9 C 189.0 90.9 189.0 90.9 189.0 90.9 Z M 188.4 94.2 C 188.5 94.1 188.5 94.1 188.4 94.2 C 188.4 94.2 188.4 94.2 188.4 94.2 Z M 160.1 87.2 C 159.2 87.7 159.0 85.8 160.1 87.2 M 166.4 88.9 C 166.4 88.9 166.4 88.9 166.4 88.9 C 166.4 88.9 166.4 88.9 166.4 88.9 Z M 149.9 83.4 C 149.6 81.9 152.6 85.1 149.9 83.4 C 149.9 83.4 149.9 83.4 149.9 83.4 Z M 155.1 79.4 C 155.0 79.3 155.0 79.3 155.1 79.4 C 155.1 79.4 155.1 79.4 155.1 79.4 Z M 153.3 79.3 C 153.2 79.1 153.2 79.1 153.3 79.3 C 153.3 79.3 153.3 79.3 153.3 79.3 Z M 143.4 79.4 C 143.2 79.3 143.2 79.3 143.4 79.4 M 166.8 90.3 C 166.0 89.4 166.2 89.6 166.8 90.3 M 147.9 82.6 C 148.0 82.6 148.0 82.6 147.9 82.6 C 147.9 82.6 147.9 82.6 147.9 82.6 Z M 141.2 79.4 C 141.3 79.4 141.3 79.4 141.2 79.4 C 141.2 79.4 141.2 79.4 141.2 79.4 Z M 171.4 90.9 C 171.7 89.3 172.5 89.9 171.4 90.9 M 183.8 94.2 C 183.8 94.1 183.8 94.1 183.8 94.2 C 183.8 94.2 183.8 94.2 183.8 94.2 Z M 131.2 76.7 C 133.8 79.6 134.8 77.3 134.8 77.2 C 133.2 80.2 138.2 77.1 137.8 76.3 C 138.1 75.9 137.8 69.4 134.2 71.8 C 133.4 72.0 133.5 70.9 133.0 70.6 C 129.1 69.1 135.0 73.4 130.3 71.4 C 129.6 70.6 131.7 68.5 128.1 69.1 C 128.1 68.8 125.3 66.5 126.0 68.2 C 125.0 66.3 123.4 67.3 121.9 67.0 C 120.9 65.7 123.8 65.6 118.6 65.0 C 117.6 62.0 115.2 65.4 114.5 62.3 C 113.4 61.7 109.9 64.8 113.5 63.8 C 113.1 63.9 113.9 66.5 110.6 64.2 C 111.3 63.9 115.1 60.9 108.6 60.2 C 107.7 59.7 105.1 59.7 104.8 59.0 C 107.9 59.9 101.7 55.5 101.8 56.9 C 97.8 54.0 99.5 57.0 96.9 54.1 C 94.3 52.8 96.9 56.3 94.1 53.7 C 91.6 52.7 93.7 52.5 93.9 52.7 C 91.9 51.5 90.8 51.8 90.1 51.4 C 89.7 50.9 89.1 49.7 88.1 50.4 C 85.0 51.0 86.2 53.8 84.3 55.0 C 85.5 56.7 85.7 54.0 86.2 55.9 C 87.6 55.2 86.3 56.1 90.9 58.1 C 90.9 57.7 90.2 56.4 91.4 56.9 C 93.0 57.9 90.3 60.2 94.3 59.6 C 91.1 57.2 99.6 61.0 96.7 58.8 C 100.8 60.3 97.7 59.6 100.3 61.7 C 101.1 59.6 99.5 63.9 101.3 62.8 C 101.2 63.8 105.9 65.6 103.2 62.8 C 108.2 64.5 104.7 64.3 105.9 66.1 C 108.1 67.3 107.6 62.9 107.8 66.0 C 110.2 68.5 108.5 64.8 109.7 67.7 C 109.6 65.6 111.8 68.7 111.9 66.5 C 116.8 68.5 110.4 68.2 114.4 68.4 C 113.4 67.9 112.6 70.6 115.5 69.9 C 115.9 66.5 117.1 73.8 117.3 69.1 C 124.7 71.0 117.7 71.3 121.5 72.9 C 122.5 73.4 121.1 71.2 121.9 71.5 C 126.6 74.2 122.1 73.5 125.5 72.6 C 130.5 74.2 126.2 74.9 128.5 76.0 C 129.1 75.2 131.7 74.4 131.2 76.7 M 127.3 73.9 C 126.1 74.1 127.0 73.0 127.3 73.9 M 136.7 78.8 C 135.4 79.1 136.4 78.0 136.7 78.8 M 123.1 72.8 C 121.5 72.9 123.1 71.6 123.1 72.8 M 97.7 60.1 C 99.5 61.0 96.7 60.2 97.7 60.1 M 132.8 77.4 C 131.0 77.6 132.8 76.2 132.8 77.4 M 135.2 76.6 C 135.1 76.5 135.1 76.5 135.2 76.6 M 94.5 60.5 C 94.4 60.4 94.4 60.4 94.5 60.5 M 101.3 63.8 C 99.9 63.1 102.3 63.8 101.3 63.8 M 104.6 57.4 C 103.2 56.7 105.6 57.4 104.6 57.4 M 90.7 58.7 C 89.0 58.5 90.6 57.8 90.7 58.7 M 87.6 55.5 C 86.0 55.4 87.1 54.4 87.6 55.5 M 129.2 72.0 C 129.2 71.9 129.2 71.9 129.2 72.0 C 129.2 72.0 129.2 72.0 129.2 72.0 Z M 117.2 64.9 C 118.4 66.2 115.7 63.2 117.2 64.9 M 117.6 70.2 C 117.2 68.4 119.5 71.1 117.6 70.2 C 117.6 70.2 117.6 70.2 117.6 70.2 Z M 120.1 70.6 C 120.2 70.5 120.2 70.5 120.1 70.6 C 120.1 70.6 120.1 70.6 120.1 70.6 Z M 113.0 67.3 C 113.0 67.3 113.0 67.3 113.0 67.3 C 113.0 67.3 113.0 67.3 113.0 67.3 Z M 114.5 67.9 C 115.2 67.8 115.2 68.5 114.5 67.9 C 114.5 67.9 114.5 67.9 114.5 67.9 Z M 106.1 58.9 C 106.8 58.9 106.7 59.6 106.1 58.9 C 106.1 58.9 106.1 58.9 106.1 58.9 Z M 116.9 68.4 C 117.7 67.1 117.6 69.7 116.9 68.4 C 116.9 68.4 116.9 68.4 116.9 68.4 Z M 110.7 61.8 C 109.9 61.8 110.0 59.9 110.7 61.8 M 93.1 59.6 C 92.3 59.6 92.4 57.7 93.1 59.6 M 108.0 67.1 C 107.2 67.1 107.2 65.2 108.0 67.1 M 126.3 74.1 C 126.1 73.9 126.1 73.9 126.3 74.1 M 120.3 64.7 C 119.1 64.8 120.1 63.9 120.3 64.7 M 134.4 71.2 C 133.2 71.3 134.2 70.4 134.4 71.2 M 98.2 54.5 C 98.1 54.9 96.8 53.6 98.2 54.5 M 107.2 64.1 C 105.9 63.3 104.9 62.0 107.7 63.4 C 107.7 63.8 106.8 63.6 107.2 64.1 C 107.2 64.1 107.2 64.1 107.2 64.1 Z M 103.9 58.9 C 103.8 58.7 103.8 58.7 103.9 58.9 M 104.3 64.3 C 104.2 64.0 104.2 64.0 104.3 64.3 M 96.7 60.5 C 96.6 60.2 96.6 60.2 96.7 60.5 M 95.5 60.4 C 95.6 60.3 95.6 60.3 95.5 60.4 C 95.5 60.4 95.5 60.4 95.5 60.4 Z M 86.9 56.8 C 86.9 56.7 86.9 56.7 86.9 56.8 C 86.9 56.8 86.9 56.8 86.9 56.8 Z M 99.2 61.5 C 99.2 61.4 99.2 61.4 99.2 61.5 C 99.2 61.5 99.2 61.5 99.2 61.5 Z M 94.7 53.1 C 94.7 53.1 94.7 53.1 94.7 53.1 C 94.7 53.1 94.7 53.1 94.7 53.1 Z M 95.2 54.4 C 95.2 54.3 95.2 54.3 95.2 54.4 C 95.2 54.4 95.2 54.4 95.2 54.4 Z M 130.6 76.4 C 129.0 76.8 130.9 73.8 130.6 76.4 M 91.5 52.5 C 90.9 51.1 93.5 53.3 91.5 52.5 C 91.5 52.5 91.5 52.5 91.5 52.5 Z M 100.6 60.8 C 100.6 60.6 100.6 60.6 100.6 60.8 M 95.1 60.0 C 95.1 59.8 95.1 59.8 95.1 60.0 M 117.1 71.4 C 117.1 71.2 117.1 71.2 117.1 71.4 M 89.3 56.9 C 85.9 54.8 91.9 55.8 89.3 56.9 M 119.4 70.9 C 119.4 71.0 119.4 71.0 119.4 70.9 M 112.3 64.8 C 109.9 63.8 113.5 64.4 112.3 64.8 M 105.4 63.7 C 105.5 63.6 105.5 63.6 105.4 63.7 C 105.4 63.7 105.4 63.7 105.4 63.7 Z M 109.0 65.3 C 110.8 65.9 109.3 65.9 109.0 65.3 C 109.0 65.3 109.0 65.3 109.0 65.3 Z M 129.3 74.4 C 127.1 73.3 131.9 75.0 129.3 74.4 C 129.3 74.4 129.3 74.4 129.3 74.4 Z M 92.5 54.7 C 92.6 54.6 92.6 54.6 92.5 54.7 C 92.5 54.7 92.5 54.7 92.5 54.7 Z M 99.2 62.6 C 100.4 62.8 99.5 63.2 99.2 62.6 C 99.2 62.6 99.2 62.6 99.2 62.6 Z M 85.6 56.2 C 86.9 56.4 85.9 56.8 85.6 56.2 C 85.6 56.2 85.6 56.2 85.6 56.2 Z M 132.0 75.8 C 124.4 70.1 143.2 81.0 132.0 75.8 C 132.0 75.8 132.0 75.8 132.0 75.8 Z M 107.1 65.5 C 107.2 65.5 107.2 65.5 107.1 65.5 C 107.1 65.5 107.1 65.5 107.1 65.5 Z M 122.3 73.4 C 122.4 73.3 122.4 73.3 122.3 73.4 C 122.3 73.4 122.3 73.4 122.3 73.4 Z M 125.5 73.3 C 125.5 73.2 125.5 73.2 125.5 73.3 C 125.5 73.3 125.5 73.3 125.5 73.3 Z M 126.9 67.7 C 127.0 67.7 127.0 67.7 126.9 67.7 C 126.9 67.7 126.9 67.7 126.9 67.7 Z M 125.0 69.7 C 125.2 69.6 125.2 69.6 125.0 69.7 C 125.0 69.7 125.0 69.7 125.0 69.7 Z M 130.8 71.1 C 130.9 71.1 130.9 71.1 130.8 71.1 C 130.8 71.1 130.8 71.1 130.8 71.1 Z M 131.0 70.4 C 131.0 70.3 131.0 70.3 131.0 70.4 C 131.0 70.4 131.0 70.4 131.0 70.4 Z M 95.8 58.6 C 95.9 58.5 95.9 58.5 95.8 58.6 C 95.8 58.6 95.8 58.6 95.8 58.6 Z M 99.7 57.8 C 97.4 57.7 100.8 57.0 99.7 57.8 C 99.7 57.8 99.7 57.8 99.7 57.8 Z M 116.4 66.8 C 114.4 66.3 117.8 66.7 116.4 66.8 C 116.4 66.8 116.4 66.8 116.4 66.8 Z M 115.7 63.1 C 115.7 63.1 115.7 63.1 115.7 63.1 C 115.7 63.1 115.7 63.1 115.7 63.1 Z M 124.9 74.5 C 125.0 74.4 125.0 74.4 124.9 74.5 C 124.9 74.5 124.9 74.5 124.9 74.5 Z M 128.6 75.0 C 129.2 74.0 129.4 76.0 128.6 75.0 M 111.6 68.4 C 111.7 68.3 111.7 68.3 111.6 68.4 C 111.6 68.4 111.6 68.4 111.6 68.4 Z M 101.9 61.9 C 102.0 61.8 102.0 61.8 101.9 61.9 C 101.9 61.9 101.9 61.9 101.9 61.9 Z M 91.3 57.6 C 91.4 57.5 91.4 57.5 91.3 57.6 C 91.3 57.6 91.3 57.6 91.3 57.6 Z M 105.2 65.3 C 105.3 65.2 105.3 65.2 105.2 65.3 C 105.2 65.3 105.2 65.3 105.2 65.3 Z M 110.6 66.6 C 110.7 66.4 110.7 66.4 110.6 66.6 C 110.6 66.6 110.6 66.6 110.6 66.6 Z M 89.8 55.0 C 89.9 54.9 89.9 54.9 89.8 55.0 C 89.8 55.0 89.8 55.0 89.8 55.0 Z M 103.9 64.9 C 104.0 64.9 104.0 64.9 103.9 64.9 C 103.9 64.9 103.9 64.9 103.9 64.9 Z M 102.5 60.1 C 102.7 60.0 102.7 60.0 102.5 60.1 C 102.5 60.1 102.5 60.1 102.5 60.1 Z M 127.5 76.4 C 127.5 76.4 127.5 76.4 127.5 76.4 C 127.5 76.4 127.5 76.4 127.5 76.4 Z M 89.0 56.4 C 89.1 56.3 89.1 56.3 89.0 56.4 C 89.0 56.4 89.0 56.4 89.0 56.4 Z M 87.9 57.0 C 88.0 57.0 88.0 57.0 87.9 57.0 C 87.9 57.0 87.9 57.0 87.9 57.0 Z M 97.7 55.4 C 101.0 57.8 94.3 54.1 96.4 56.6 C 91.0 54.3 96.9 55.0 97.7 55.4 C 97.7 55.4 97.7 55.4 97.7 55.4 Z M 82.9 54.9 C 85.6 54.5 86.3 53.1 86.2 51.2 C 85.6 50.0 84.1 52.9 85.3 50.4 C 87.8 51.1 86.2 46.2 84.7 49.4 C 81.4 48.3 85.2 47.1 82.8 47.5 C 79.4 46.1 81.6 46.0 79.0 45.0 C 76.7 45.9 78.0 43.4 76.6 44.7 C 78.7 43.6 73.7 43.8 74.0 42.9 C 76.8 43.0 65.6 38.4 71.1 42.0 C 68.3 41.6 69.6 40.4 68.9 39.7 C 67.3 40.2 65.5 36.8 63.5 37.0 C 63.6 37.4 64.3 37.8 64.4 38.3 C 64.4 39.2 62.8 37.3 63.0 37.4 C 61.8 37.3 57.5 36.2 62.5 36.6 C 63.2 35.9 59.0 35.2 59.6 34.5 C 56.1 32.5 57.8 35.7 56.9 33.5 C 54.5 32.1 52.7 31.1 52.6 31.3 C 51.2 30.2 51.4 29.1 49.5 29.2 C 47.6 25.6 45.4 31.4 46.3 27.2 C 45.0 27.6 45.5 24.8 44.3 27.0 C 46.0 26.6 40.2 22.2 41.9 25.4 C 40.9 25.5 38.7 20.4 37.9 23.0 C 35.6 23.7 34.8 25.5 36.9 28.9 C 37.3 27.4 39.3 32.1 38.4 28.6 C 36.2 26.3 43.6 30.7 41.6 30.5 C 39.6 32.9 46.1 31.0 46.6 33.8 C 45.9 32.0 52.3 35.0 49.4 36.0 C 50.4 36.8 51.2 36.0 51.8 37.8 C 48.2 35.6 54.4 36.6 53.4 37.7 C 52.4 38.1 57.5 41.7 57.6 40.3 C 57.2 36.5 58.7 41.7 60.2 41.1 C 63.6 42.2 58.5 43.2 61.8 42.4 C 62.2 43.1 66.3 45.3 63.4 44.5 C 62.6 43.7 67.4 42.8 66.6 45.4 C 61.6 44.3 71.2 48.8 70.1 47.3 C 64.1 42.4 77.9 49.6 72.0 48.1 C 74.3 50.9 70.9 48.1 74.9 49.5 C 74.8 48.5 78.0 49.3 76.6 50.4 C 76.0 53.0 79.1 48.0 79.8 52.2 C 79.5 53.7 84.8 53.6 82.4 54.2 C 82.2 54.3 82.7 54.9 82.9 54.9 M 81.7 54.0 C 82.4 53.7 82.1 55.0 81.7 54.0 M 82.4 53.8 C 82.5 53.8 82.5 53.8 82.4 53.8 C 82.4 53.8 82.4 53.8 82.4 53.8 Z M 75.5 49.7 C 75.5 49.8 75.5 49.8 75.5 49.7 C 75.5 49.7 75.5 49.7 75.5 49.7 Z M 72.8 41.1 C 72.8 41.2 72.8 41.2 72.8 41.1 C 72.8 41.1 72.8 41.1 72.8 41.1 Z M 70.8 47.1 C 70.8 47.1 70.8 47.1 70.8 47.1 C 70.8 47.1 70.8 47.1 70.8 47.1 Z M 78.2 50.7 C 78.2 50.7 78.2 50.7 78.2 50.7 C 78.2 50.7 78.2 50.7 78.2 50.7 Z M 70.8 48.1 C 70.9 47.1 72.1 49.6 70.6 48.2 C 70.6 48.1 70.9 48.3 70.8 48.1 M 64.4 45.1 C 64.4 45.0 64.4 45.0 64.4 45.1 M 54.6 31.1 C 54.6 31.0 54.6 31.0 54.6 31.1 M 49.8 37.0 C 49.7 36.8 49.7 36.8 49.8 37.0 M 58.8 40.9 C 56.8 39.9 58.5 40.2 58.8 40.9 M 45.2 33.6 C 47.2 35.5 42.4 32.6 45.2 33.6 M 42.6 32.8 C 42.5 32.6 42.5 32.6 42.6 32.8 M 53.3 38.6 C 53.4 38.6 53.4 38.6 53.3 38.6 C 53.3 38.6 53.3 38.6 53.3 38.6 Z M 59.4 41.7 C 61.6 43.5 56.5 41.0 59.4 41.7 M 74.2 50.1 C 72.6 49.8 74.8 49.0 74.2 50.1 M 77.3 51.1 C 77.3 51.1 77.3 51.1 77.3 51.1 C 77.3 51.1 77.3 51.1 77.3 51.1 Z M 48.9 35.9 C 49.0 35.9 49.0 35.9 48.9 35.9 C 48.9 35.9 48.9 35.9 48.9 35.9 Z M 46.1 34.4 C 46.2 34.5 46.2 34.5 46.1 34.4 C 46.1 34.4 46.1 34.4 46.1 34.4 Z M 45.2 25.8 C 45.3 25.9 45.3 25.9 45.2 25.8 C 45.2 25.8 45.2 25.8 45.2 25.8 Z M 76.5 47.4 C 78.1 48.8 73.6 48.5 74.7 47.2 C 74.9 46.4 76.2 47.5 76.5 47.4 M 62.2 40.8 C 62.9 38.5 62.4 44.6 62.2 40.8 M 43.1 31.2 C 42.7 27.8 44.3 34.3 43.1 31.2 M 39.2 29.5 C 38.4 28.4 46.1 33.3 40.2 30.6 C 39.5 30.7 39.4 30.0 39.2 29.5 M 64.9 44.1 C 65.0 42.6 67.5 46.2 64.9 44.1 M 55.6 34.3 C 54.3 34.6 51.6 33.9 53.3 33.2 C 54.3 31.7 57.0 34.4 55.6 34.3 M 81.7 52.5 C 79.2 53.6 82.6 51.0 81.7 52.5 M 74.5 48.6 C 74.5 48.6 74.5 48.6 74.5 48.6 C 74.5 48.6 74.5 48.6 74.5 48.6 Z M 71.5 47.4 C 71.5 47.1 71.5 47.1 71.5 47.4 M 79.7 53.6 C 79.6 53.3 79.6 53.3 79.7 53.6 M 54.5 36.3 C 54.5 36.0 54.5 36.0 54.5 36.3 M 59.6 40.7 C 57.9 37.4 61.3 41.2 59.6 40.7 M 68.2 40.9 C 67.9 39.6 70.0 41.8 68.2 40.9 M 54.7 38.9 C 53.7 36.1 58.3 38.7 54.7 38.9 M 60.8 41.7 C 60.7 41.6 60.7 41.6 60.8 41.7 C 60.8 41.7 60.8 41.7 60.8 41.7 Z M 55.0 33.8 C 55.0 33.8 55.0 33.8 55.0 33.8 C 55.0 33.8 55.0 33.8 55.0 33.8 Z M 54.1 33.4 C 54.2 33.4 54.2 33.4 54.1 33.4 C 54.1 33.4 54.1 33.4 54.1 33.4 Z M 52.2 37.7 C 52.3 37.7 52.3 37.7 52.2 37.7 C 52.2 37.7 52.2 37.7 52.2 37.7 Z M 80.0 46.4 C 78.1 45.2 81.6 46.9 80.0 46.4 C 80.0 46.4 80.0 46.4 80.0 46.4 Z M 68.5 46.9 C 66.0 43.8 71.5 46.8 68.5 46.9 C 68.5 46.9 68.5 46.9 68.5 46.9 Z M 66.1 42.6 C 66.1 42.5 66.1 42.5 66.1 42.6 C 66.1 42.6 66.1 42.6 66.1 42.6 Z M 55.3 40.6 C 55.4 40.5 55.4 40.5 55.3 40.6 C 55.3 40.6 55.3 40.6 55.3 40.6 Z M 79.1 45.6 C 79.1 45.5 79.1 45.5 79.1 45.6 C 79.1 45.6 79.1 45.6 79.1 45.6 Z M 47.3 33.6 C 47.3 33.5 47.3 33.5 47.3 33.6 C 47.3 33.6 47.3 33.6 47.3 33.6 Z M 60.3 36.5 C 59.3 36.7 60.5 35.8 60.3 36.5 C 60.3 36.5 60.3 36.5 60.3 36.5 Z M 57.5 34.8 C 57.4 34.8 57.4 34.8 57.5 34.8 C 57.5 34.8 57.5 34.8 57.5 34.8 Z M 41.8 32.5 C 41.7 32.5 41.7 32.5 41.8 32.5 C 41.8 32.5 41.8 32.5 41.8 32.5 Z M 51.1 29.0 C 51.0 29.0 51.0 29.0 51.1 29.0 C 51.1 29.0 51.1 29.0 51.1 29.0 Z M 47.5 29.6 C 47.6 29.6 47.6 29.6 47.5 29.6 C 47.5 29.6 47.5 29.6 47.5 29.6 Z M 53.0 37.6 C 49.9 36.3 54.1 37.2 53.0 37.6 C 53.0 37.6 53.0 37.6 53.0 37.6 Z M 40.2 25.9 C 40.2 25.8 40.2 25.8 40.2 25.9 C 40.2 25.9 40.2 25.9 40.2 25.9 Z M 37.3 27.4 C 37.3 27.2 37.3 27.2 37.3 27.4 C 37.3 27.4 37.3 27.4 37.3 27.4 Z M 35.9 28.1 C 35.9 28.0 35.9 28.0 35.9 28.1 C 35.9 28.1 35.9 28.1 35.9 28.1 Z M 72.9 44.8 C 73.0 45.0 73.0 45.0 72.9 44.8 C 72.9 44.8 72.9 44.8 72.9 44.8 Z M 72.1 49.3 C 72.1 49.4 72.1 49.4 72.1 49.3 C 72.1 49.3 72.1 49.3 72.1 49.3 Z M 68.0 47.4 C 68.0 47.4 68.0 47.4 68.0 47.4 C 68.0 47.4 68.0 47.4 68.0 47.4 Z M 74.9 42.9 C 74.9 43.0 74.9 43.0 74.9 42.9 C 74.9 42.9 74.9 42.9 74.9 42.9 Z M 58.4 38.1 C 58.4 38.2 58.4 38.2 58.4 38.1 C 58.4 38.1 58.4 38.1 58.4 38.1 Z M 57.9 35.8 C 57.9 35.9 57.9 35.9 57.9 35.8 C 57.9 35.8 57.9 35.8 57.9 35.8 Z M 62.4 35.6 C 62.4 35.6 62.4 35.6 62.4 35.6 C 62.4 35.6 62.4 35.6 62.4 35.6 Z M 57.6 33.8 C 57.6 33.9 57.6 33.9 57.6 33.8 C 57.6 33.8 57.6 33.8 57.6 33.8 Z M 84.5 48.8 C 84.5 48.8 84.5 48.8 84.5 48.8 C 84.5 48.8 84.5 48.8 84.5 48.8 Z M 83.3 52.0 C 83.4 51.9 83.4 51.9 83.3 52.0 C 83.3 52.0 83.3 52.0 83.3 52.0 Z M 56.7 39.9 C 55.7 40.2 55.9 38.4 56.7 39.9 M 62.6 42.7 C 62.6 42.7 62.6 42.7 62.6 42.7 C 62.6 42.7 62.6 42.7 62.6 42.7 Z M 47.4 34.4 C 47.4 32.9 49.7 36.6 47.4 34.4 C 47.4 34.4 47.4 34.4 47.4 34.4 Z M 53.2 31.3 C 53.1 31.3 53.1 31.3 53.2 31.3 C 53.2 31.3 53.2 31.3 53.2 31.3 Z M 51.4 30.9 C 51.4 30.8 51.4 30.8 51.4 30.9 C 51.4 30.9 51.4 30.9 51.4 30.9 Z M 41.6 29.4 C 41.5 29.2 41.5 29.2 41.6 29.4 M 62.7 44.1 C 62.2 43.2 62.3 43.4 62.7 44.1 M 45.6 33.3 C 45.7 33.3 45.7 33.3 45.6 33.3 C 45.6 33.3 45.6 33.3 45.6 33.3 Z M 39.5 28.9 C 39.5 28.9 39.5 28.9 39.5 28.9 C 39.5 28.9 39.5 28.9 39.5 28.9 Z M 67.2 45.6 C 67.8 44.0 68.4 44.8 67.2 45.6 M 78.7 51.1 C 78.8 51.0 78.8 51.0 78.7 51.1 C 78.7 51.1 78.7 51.1 78.7 51.1 Z M 78.7 51.1 " fill="#624572"></path><path d="M 36.3 4.4 C 36.8 3.9 38.8 4.4 37.0 4.8 C 36.8 4.8 36.0 4.6 36.3 4.4 Z M 32.6 4.2 C 32.9 4.2 33.1 4.2 33.3 4.4 C 33.7 5.1 31.7 4.1 32.6 4.2 Z M 37.9 5.2 C 38.0 5.1 39.2 5.1 38.9 5.3 C 38.7 5.5 37.8 5.2 37.9 5.2 Z M 29.3 5.4 C 29.4 5.1 30.6 5.2 30.8 5.4 C 31.4 5.8 29.2 6.1 29.3 5.4 Z M 33.5 14.5 C 33.5 14.6 33.4 14.7 33.4 14.8 C 33.4 14.7 33.5 14.6 33.5 14.5 Z M 12.5 3.9 C 12.7 3.9 13.1 4.2 13.0 4.4 C 12.9 4.7 11.8 4.0 12.5 3.9 Z M 22.7 32.0 C 22.7 32.0 23.2 31.7 23.2 32.0 C 23.2 32.3 22.8 32.2 22.7 32.0 Z M 23.0 32.2 C 23.3 32.2 23.1 32.7 23.0 32.5 C 22.8 32.3 22.8 32.1 23.0 32.2 Z M 11.6 19.4 C 11.5 19.3 11.4 19.2 11.6 19.2 C 11.7 19.3 11.7 19.6 11.6 19.4 Z M 12.1 19.7 C 12.5 19.7 12.2 20.2 12.1 20.0 C 11.9 19.8 11.8 19.6 12.1 19.7 Z M 12.2 23.6 C 12.2 23.5 12.1 23.4 12.2 23.5 C 12.4 23.5 12.4 23.8 12.2 23.6 Z M 28.1 25.4 C 28.1 25.6 27.6 26.0 27.5 25.9 C 27.2 25.6 28.0 25.1 28.1 25.4 Z M 27.8 26.2 C 28.0 26.3 27.8 26.7 27.7 26.5 C 27.6 26.3 27.5 26.1 27.8 26.2 Z M 28.8 23.8 C 28.5 23.6 28.9 23.0 29.0 22.9 C 29.2 22.7 29.5 22.6 29.7 22.4 C 29.8 22.4 29.2 24.0 28.8 23.8 Z M 31.5 19.0 C 31.6 19.1 31.7 19.2 31.4 19.3 C 31.2 19.4 31.4 18.9 31.5 19.0 Z M 30.0 21.7 C 30.1 21.8 30.1 21.9 29.9 22.0 C 29.7 22.1 29.9 21.6 30.0 21.7 Z M 22.5 4.4 C 22.4 4.1 23.4 4.4 23.4 4.4 C 23.5 4.5 23.1 4.5 23.3 4.6 C 23.6 4.7 23.0 5.3 22.5 4.4 Z M 30.6 4.2 C 30.8 4.2 30.9 4.3 30.8 4.5 C 30.8 4.6 30.1 4.3 30.6 4.2 Z M 23.7 5.5 C 23.7 5.4 23.9 5.4 23.9 5.5 C 23.9 5.6 23.7 5.6 23.7 5.5 Z M 23.1 5.6 C 23.3 5.6 23.7 5.9 23.6 6.2 C 23.4 6.5 22.3 5.7 23.1 5.6 Z M 21.5 4.0 C 21.7 4.0 21.7 4.0 21.6 4.1 C 21.4 4.2 21.5 4.0 21.5 4.0 Z M 26.1 3.8 C 26.4 3.8 26.4 3.8 26.2 3.9 C 26.1 4.0 26.1 3.8 26.1 3.8 Z M 19.3 4.4 C 19.2 4.4 19.9 4.1 20.0 4.6 C 20.2 5.4 19.3 4.5 19.3 4.4 Z M 16.0 5.0 C 16.2 5.0 16.1 5.2 15.9 5.1 C 15.7 5.1 15.8 4.9 16.0 5.0 Z M 14.7 6.0 C 14.4 5.9 14.1 5.6 14.7 5.7 C 15.2 5.8 15.1 6.2 14.7 6.0 Z M 15.3 5.8 C 15.3 5.9 15.1 5.9 15.1 5.8 C 15.1 5.6 15.3 5.7 15.3 5.8 Z M 18.1 5.1 C 18.4 5.0 18.7 5.3 18.3 5.4 C 17.9 5.5 17.9 5.3 18.1 5.1 Z M 36.3 12.9 C 36.3 12.7 36.6 13.0 36.6 13.1 C 36.6 13.3 36.2 13.2 36.3 12.9 Z M 28.7 22.1 C 29.0 22.1 28.9 22.2 28.6 22.4 C 28.4 22.6 28.5 22.2 28.7 22.1 Z M 24.0 28.1 C 24.3 28.0 24.3 28.2 24.0 28.4 C 23.8 28.6 23.8 28.1 24.0 28.1 Z M 30.4 19.6 C 30.5 19.6 30.6 20.6 29.9 20.7 C 29.2 20.7 29.9 19.6 30.4 19.6 Z M 29.5 10.2 C 29.5 10.0 29.6 10.2 29.6 10.2 C 29.4 10.4 29.4 10.4 29.5 10.2 Z M 28.7 20.5 C 28.7 20.4 29.0 20.6 29.0 20.7 C 29.0 20.9 28.6 20.8 28.7 20.5 Z M 25.2 27.2 C 25.5 27.0 25.8 27.4 25.8 27.7 C 25.9 28.5 25.1 28.5 24.6 28.7 C 24.2 28.8 25.0 27.3 25.2 27.2 Z M 36.3 10.8 C 36.2 10.9 36.0 11.0 35.9 11.1 C 36.0 11.3 35.9 11.3 35.7 11.4 C 35.4 12.1 35.7 12.8 35.6 13.3 C 35.4 14.5 33.9 14.0 33.5 14.5 C 33.6 14.4 33.7 14.2 33.6 14.1 C 33.4 13.6 32.2 15.9 32.1 16.0 C 31.1 18.1 32.9 16.1 33.6 16.5 C 33.9 16.7 32.3 17.5 32.2 17.5 C 31.6 17.9 32.1 18.5 31.5 18.8 C 31.3 18.9 29.4 18.7 29.4 19.1 C 29.5 19.3 28.9 19.8 28.8 20.0 C 28.5 20.4 28.2 21.0 28.9 21.0 C 29.5 21.0 29.9 21.2 29.2 21.4 C 28.8 21.6 26.4 23.2 27.5 23.8 C 27.6 23.9 28.3 23.6 28.3 23.6 C 28.1 24.3 26.5 26.0 26.7 26.7 C 27.0 28.3 26.3 26.0 25.7 26.3 C 24.7 26.9 24.0 27.1 23.5 28.3 C 23.4 28.6 22.8 29.6 23.6 29.5 C 24.2 29.4 24.3 29.8 24.9 29.3 C 24.9 30.3 23.6 30.1 23.7 30.4 C 23.9 30.8 24.3 30.5 23.9 31.0 C 23.5 31.5 23.8 31.4 23.2 31.1 C 23.0 31.1 22.5 31.5 22.5 31.5 C 22.5 31.5 22.4 31.5 22.4 31.4 C 22.1 32.0 22.6 33.4 22.2 33.4 C 22.0 33.4 21.5 32.7 21.3 32.6 C 21.2 32.6 21.2 32.6 21.2 32.6 C 21.1 32.9 21.1 33.7 21.0 33.7 C 20.9 33.7 20.2 32.7 20.3 33.1 C 20.4 33.6 19.3 34.5 19.0 34.3 C 18.7 34.2 17.2 33.7 17.0 33.8 C 16.8 34.0 16.5 33.2 16.4 33.0 C 16.2 32.8 16.4 32.2 16.4 32.0 C 16.5 31.9 16.1 31.4 16.1 31.4 C 16.1 31.4 15.8 31.2 15.6 30.8 C 15.3 30.3 15.5 29.9 15.4 29.2 C 15.2 28.6 14.8 28.5 14.5 28.0 C 14.1 27.5 14.8 26.6 14.6 26.1 C 14.5 25.6 13.9 25.9 13.5 25.3 C 13.2 24.8 13.2 24.4 13.4 24.5 C 13.6 24.6 13.7 24.4 13.6 24.2 C 13.5 24.0 13.4 23.3 13.2 23.1 C 12.9 22.9 13.2 24.9 12.2 22.7 C 11.7 21.6 12.1 20.4 12.2 20.7 C 12.7 21.5 12.9 19.3 12.6 19.4 C 12.2 19.6 11.4 17.7 11.0 18.4 C 10.9 18.7 9.8 16.9 9.8 16.6 C 9.8 16.3 9.2 15.5 9.6 14.9 C 9.9 14.7 8.6 14.0 8.5 13.8 C 8.4 13.5 7.7 12.0 7.7 11.6 C 7.8 11.2 8.1 11.9 8.3 12.3 C 8.4 12.6 8.3 13.2 8.5 13.5 C 8.7 13.7 8.7 13.0 8.6 12.6 C 8.5 12.2 8.7 12.0 8.7 11.6 C 8.5 11.5 8.4 11.2 8.3 10.9 C 8.2 10.8 8.1 10.7 8.0 10.8 C 7.8 10.9 7.8 11.1 7.7 11.1 C 7.6 11.1 7.3 10.9 7.1 10.5 C 6.9 10.0 6.8 9.6 6.7 8.9 C 6.6 8.2 6.3 8.2 6.0 7.8 C 5.8 7.4 5.7 7.0 5.8 6.9 C 5.9 6.8 6.3 7.3 6.4 7.3 C 6.5 7.3 6.6 6.5 6.5 6.3 C 6.1 5.1 7.5 5.6 7.1 4.4 C 6.8 3.7 7.5 4.3 8.1 4.4 C 8.0 4.3 8.1 4.2 8.7 4.1 C 8.7 4.0 9.5 4.2 9.9 4.1 C 10.1 4.1 11.7 3.9 10.7 4.3 C 10.6 4.3 10.5 4.3 10.5 4.4 C 10.5 4.4 10.5 4.4 10.5 4.4 C 10.5 4.4 10.0 5.0 10.0 5.0 C 10.1 5.0 10.5 4.4 10.5 4.4 C 10.7 4.7 10.8 4.9 11.0 5.1 C 11.0 5.0 11.1 5.0 11.2 4.9 C 11.2 4.9 11.2 4.9 11.3 4.8 C 11.3 4.8 11.3 4.8 11.3 4.8 C 11.2 4.6 11.3 4.6 11.5 4.7 C 12.1 4.4 13.4 4.9 13.9 5.1 C 12.4 6.3 14.8 6.4 15.6 6.3 C 16.5 6.1 16.5 4.5 16.1 4.5 C 16.7 4.5 16.8 4.8 17.0 5.2 C 16.9 5.2 17.6 6.2 17.5 6.2 C 18.8 6.8 18.6 5.4 19.0 5.3 C 19.3 5.1 19.8 5.1 20.2 5.0 C 20.6 5.0 20.3 4.7 20.4 4.5 C 20.9 3.9 21.9 5.2 22.2 5.2 C 21.9 5.3 21.5 5.4 21.2 5.6 C 21.7 5.3 21.9 6.1 22.1 6.2 C 22.5 6.4 23.1 6.3 23.5 6.3 C 24.3 6.3 25.1 6.2 25.8 6.1 C 25.6 6.0 24.5 5.0 24.4 5.0 C 24.7 5.0 25.4 5.3 25.1 4.7 C 24.7 3.7 26.6 4.2 27.0 4.3 C 28.0 4.4 29.1 3.5 30.1 4.7 C 30.1 4.7 28.5 4.9 28.6 5.0 C 28.9 5.9 29.2 6.4 30.3 6.2 C 30.5 6.2 32.0 5.6 32.0 5.5 C 32.0 5.6 30.6 3.5 31.9 4.2 C 32.1 4.4 31.5 4.7 31.9 4.9 C 32.3 5.1 33.0 5.0 33.5 5.1 C 33.6 5.1 34.3 5.4 34.4 5.3 C 34.6 5.1 34.6 4.7 34.9 4.5 C 35.2 4.4 35.6 4.7 35.6 5.0 C 35.6 5.0 35.6 5.0 35.6 5.1 C 35.7 5.1 35.7 5.2 35.7 5.4 C 35.8 5.3 36.0 5.3 36.2 5.5 C 36.3 5.6 35.9 5.7 35.7 5.5 C 35.6 5.6 35.6 5.7 35.6 5.8 C 36.0 5.8 36.4 5.7 36.5 5.7 C 37.2 5.3 37.2 5.0 38.2 5.9 C 38.9 6.5 38.1 8.9 37.1 10.0 C 37.0 10.3 36.8 10.6 36.3 10.8 Z M 8.4 10.0 C 8.4 10.0 8.4 10.1 8.4 10.1 C 8.6 10.0 8.7 10.0 8.8 9.9 C 8.8 9.5 8.6 10.1 8.5 9.7 C 8.4 9.3 8.3 9.5 8.4 10.0 Z M 10.4 7.3 C 10.3 7.1 10.2 7.2 10.2 7.4 C 10.3 7.4 10.4 7.4 10.4 7.3 Z M 10.7 5.8 C 10.2 5.8 10.9 6.5 11.7 6.4 C 11.2 6.0 10.9 5.8 10.7 5.8 Z M 11.9 5.1 C 11.8 5.2 11.8 5.3 11.8 5.4 C 11.7 5.6 12.2 5.3 12.2 5.5 C 12.1 5.7 11.6 5.9 11.9 6.0 C 12.0 6.1 12.1 6.1 12.2 6.2 C 12.2 6.1 12.3 6.1 12.3 6.0 C 12.5 5.8 12.2 5.2 11.9 5.1 Z M 10.4 11.5 C 10.2 11.3 10.2 11.5 10.3 11.6 C 10.4 11.8 10.6 11.6 10.4 11.5 Z M 10.4 14.7 C 10.4 14.4 10.2 14.2 10.1 14.5 C 10.0 14.8 10.3 15.0 10.4 14.7 Z M 15.6 13.5 C 15.4 13.4 15.5 13.5 15.6 13.6 C 15.7 13.8 15.7 13.5 15.6 13.5 Z M 17.2 11.3 C 17.5 11.2 17.3 10.8 17.2 10.9 C 17.1 11.0 17.1 11.3 17.2 11.3 Z M 13.5 16.3 C 13.6 16.5 13.7 16.3 13.5 16.2 C 13.4 16.1 13.3 16.2 13.5 16.3 Z M 15.0 12.9 C 15.1 13.2 15.2 13.2 15.3 13.2 C 15.4 13.2 15.5 13.0 15.3 12.7 C 15.2 12.5 15.0 12.5 15.0 12.9 Z M 16.2 10.8 C 16.9 10.9 17.0 10.5 16.0 10.6 C 15.1 10.7 15.7 10.8 16.2 10.8 Z M 10.5 17.0 C 10.5 16.9 10.2 16.6 10.2 16.6 C 10.2 16.6 10.5 17.6 10.5 17.0 Z M 19.8 5.7 C 19.5 5.6 19.3 5.9 19.7 6.0 C 20.2 6.1 20.1 5.7 19.8 5.7 Z M 20.3 7.4 C 20.1 6.7 19.6 6.6 19.6 6.5 C 19.6 6.6 19.4 7.1 19.3 7.2 C 18.8 7.3 18.2 6.7 17.6 7.1 C 17.1 7.5 18.2 7.6 18.4 7.6 C 18.3 7.6 18.2 7.7 18.1 7.9 C 18.2 8.1 18.4 8.1 18.6 8.0 C 18.8 7.8 20.6 8.1 20.3 7.4 Z M 16.7 12.9 C 16.5 12.6 16.1 12.6 16.1 13.0 C 16.2 13.4 16.3 13.6 16.4 13.6 C 16.5 13.6 16.8 13.1 16.7 12.9 Z M 15.7 14.8 C 15.4 14.7 15.4 14.8 15.6 15.0 C 15.9 15.4 16.0 14.8 15.7 14.8 Z M 14.0 24.2 C 14.3 24.3 14.1 23.8 14.0 23.9 C 13.8 24.0 13.9 24.1 14.0 24.2 Z M 15.9 21.2 C 16.3 21.7 16.2 21.0 16.1 20.9 C 16.0 20.8 15.6 21.0 15.9 21.2 Z M 15.3 18.4 C 15.4 18.6 15.4 18.2 15.3 18.1 C 15.1 18.1 15.2 18.3 15.3 18.4 Z M 15.8 17.2 C 16.0 17.4 16.1 17.0 15.9 16.9 C 15.7 16.8 15.7 17.0 15.8 17.2 Z M 22.9 8.4 C 22.9 8.4 22.7 8.9 23.2 8.6 C 23.6 8.4 23.6 8.4 22.9 8.4 Z M 19.9 11.2 C 19.5 11.2 19.1 11.3 18.8 12.5 C 18.4 13.6 18.9 13.3 19.4 12.9 C 19.9 12.4 19.3 14.2 20.3 13.3 C 20.7 12.9 20.3 11.2 19.9 11.2 Z M 17.6 18.2 C 17.7 17.4 16.7 17.0 16.9 17.7 C 17.2 18.4 17.6 18.9 17.6 18.2 Z M 17.4 18.6 C 17.3 18.5 17.2 18.6 17.4 18.8 C 17.5 19.1 17.5 18.8 17.4 18.6 Z M 26.0 4.6 C 24.6 4.8 26.1 5.7 26.1 5.7 C 27.5 6.2 27.4 4.4 26.0 4.6 Z M 22.2 30.6 C 22.3 30.6 22.3 30.5 22.3 30.5 C 22.4 30.5 22.4 30.5 22.4 30.4 C 22.3 30.2 21.9 30.4 21.9 30.4 C 21.9 30.6 22.1 30.6 22.2 30.6 Z M 26.5 24.8 C 26.3 25.0 26.2 25.2 26.2 25.5 C 26.8 25.8 28.0 24.0 26.6 24.1 C 26.4 24.1 24.9 24.7 25.3 25.1 C 25.5 25.3 26.8 24.2 26.5 24.8 Z M 24.5 26.2 C 25.0 25.5 23.4 26.3 23.8 26.4 C 24.1 26.5 24.3 26.4 24.5 26.2 Z M 19.3 30.4 C 19.1 31.6 20.6 32.4 20.9 30.4 C 21.1 28.4 20.5 27.9 20.2 28.8 C 20.0 29.7 19.7 28.6 19.3 30.4 Z M 24.5 22.6 C 25.4 23.5 25.4 22.8 24.8 22.1 C 24.7 21.9 23.9 22.1 24.5 22.6 Z M 25.7 20.4 C 26.0 20.1 26.0 20.2 25.7 20.2 C 25.3 20.3 25.4 20.6 25.7 20.4 Z M 16.9 31.0 C 16.8 31.5 17.0 32.0 16.8 31.8 C 16.5 31.7 16.6 31.8 16.6 32.2 C 16.7 32.6 17.0 32.1 17.1 31.8 C 17.2 31.6 17.0 30.5 16.9 31.0 Z M 18.9 20.4 C 19.0 20.6 19.1 20.3 18.9 20.2 C 18.8 20.1 18.8 20.2 18.9 20.4 Z M 23.3 11.5 C 23.3 11.5 23.2 11.8 23.4 11.6 C 23.7 11.5 23.7 11.5 23.3 11.5 Z M 27.9 5.1 C 27.7 5.2 28.1 5.5 27.8 5.8 C 27.7 6.0 27.6 5.6 27.6 5.6 C 27.6 5.7 27.2 6.5 27.9 6.2 C 28.2 6.1 28.7 5.0 27.9 5.1 Z M 20.7 18.3 C 20.6 17.7 19.4 19.0 19.3 18.6 C 19.2 18.2 19.1 18.3 19.2 18.8 C 19.3 19.3 20.7 18.9 20.7 18.3 Z M 18.6 22.0 C 18.7 21.7 18.4 20.7 18.3 21.1 C 18.3 21.6 18.5 22.1 18.2 22.0 C 18.0 21.8 18.1 21.9 18.1 22.3 C 18.1 22.7 18.5 22.2 18.6 22.0 Z M 15.0 27.9 C 15.0 27.8 14.7 27.3 14.7 27.7 C 14.7 27.9 15.0 28.1 15.0 27.9 Z M 26.1 12.0 C 25.8 12.1 25.8 12.3 26.2 12.2 C 26.7 12.1 26.4 11.8 26.1 12.0 Z M 16.3 28.1 C 16.2 27.5 16.1 28.2 16.0 27.8 C 15.9 27.4 15.7 27.5 15.9 28.1 C 15.9 28.5 16.4 28.6 16.3 28.1 Z M 30.5 7.3 C 30.3 7.4 30.3 7.7 30.5 7.6 C 30.7 7.5 30.6 7.1 30.5 7.3 Z M 29.9 10.0 C 29.8 10.0 29.6 9.9 29.5 9.9 C 27.5 10.0 30.6 10.9 29.9 10.0 Z M 27.5 13.2 C 27.7 12.7 27.1 13.1 27.1 13.1 C 27.2 13.3 27.3 13.3 27.5 13.2 Z M 25.0 16.9 C 25.2 17.1 25.4 16.7 25.1 16.7 C 24.9 16.6 24.9 16.8 25.0 16.9 Z M 33.6 5.4 C 33.3 5.4 33.3 5.5 33.5 5.6 C 33.6 5.7 33.8 5.5 33.6 5.4 Z M 27.6 14.7 C 27.6 14.6 27.5 14.6 27.5 14.8 C 27.4 15.0 27.7 14.8 27.6 14.7 Z M 20.3 26.0 C 20.3 25.8 20.2 25.7 20.2 25.5 C 19.9 25.5 19.4 26.1 19.2 26.0 C 19.1 26.0 19.1 26.0 19.1 25.9 C 19.1 25.9 19.1 25.9 19.1 25.9 C 19.0 25.8 18.9 25.7 19.0 25.7 C 19.0 25.6 19.1 25.4 19.2 25.2 C 18.8 25.3 18.5 25.5 18.5 25.8 C 18.6 26.1 19.0 26.5 19.5 26.8 C 19.6 26.7 19.8 26.6 20.0 26.4 C 19.9 26.4 19.9 26.4 19.9 26.4 C 19.7 26.1 19.8 25.8 19.9 25.9 C 20.1 26.0 20.1 26.1 20.1 26.2 C 20.2 26.2 20.3 26.1 20.3 26.0 Z M 27.2 16.5 C 27.3 16.1 27.0 16.2 26.7 16.5 C 26.5 16.8 27.2 16.9 27.2 16.5 Z M 33.6 6.1 C 33.6 6.3 33.6 6.4 33.6 6.5 C 33.7 6.4 33.7 6.4 33.8 6.3 C 33.9 6.2 34.1 6.0 34.3 5.9 C 34.0 5.7 33.8 5.7 33.6 6.1 Z M 32.6 10.0 C 32.6 9.9 33.5 8.6 33.1 8.7 C 32.4 8.7 32.3 7.8 31.8 8.9 C 31.6 9.5 32.0 10.3 31.8 10.8 C 30.9 13.6 32.9 10.6 33.5 10.1 C 33.6 10.0 32.5 10.2 32.6 10.0 Z M 31.3 13.6 C 31.4 13.9 31.9 13.7 32.0 13.5 C 32.3 12.9 31.1 13.3 31.3 13.6 Z M 36.0 7.2 C 36.0 7.2 35.9 7.2 35.8 7.1 C 35.8 7.2 35.9 7.3 35.9 7.3 C 35.9 7.3 36.0 7.3 36.0 7.2 Z M 37.3 5.7 C 36.2 5.9 37.5 6.7 37.9 6.7 C 38.5 6.8 37.9 5.7 37.3 5.7 Z M 33.5 12.6 C 33.2 13.0 34.2 14.5 34.7 13.6 C 35.2 12.8 34.3 11.6 33.5 12.6 Z M 32.0 18.7 C 32.0 18.4 32.6 18.1 32.6 18.5 C 32.6 18.7 32.0 18.8 32.0 18.7 Z M 37.6 11.8 C 37.5 11.9 37.5 11.7 37.5 11.7 C 37.8 11.7 37.8 11.7 37.6 11.8 Z M 36.2 11.8 C 36.4 11.7 36.7 11.4 36.9 11.3 C 37.0 11.2 36.8 11.7 36.8 11.8 C 36.6 11.9 36.2 11.8 36.2 11.8 Z M 33.4 15.7 C 33.8 15.6 33.5 15.9 33.4 16.1 C 33.3 16.2 33.3 15.8 33.4 15.7 Z M 34.4 15.0 C 34.3 15.1 34.2 14.9 34.3 14.7 C 34.5 14.5 34.5 14.9 34.4 15.0 Z M 32.5 16.1 C 32.7 15.6 33.0 15.0 33.3 15.3 C 33.5 15.4 32.2 17.1 32.5 16.1 Z M 32.5 16.1 " fill="#624572"></path></g></svg>