<?xml version="1.0" encoding="UTF-8" standalone="no"?><svg xmlns="http://www.w3.org/2000/svg" xmlns:xlink="http://www.w3.org/1999/xlink" clip-rule="evenodd" stroke-miterlimit="10" viewBox="0 0 616 134"><desc>SVG generated by Keynote</desc><defs></defs><g transform="matrix(1.00, 0.00, -0.00, -1.00, 0.0, 134.0)"><path d="M 598.6 121.6 C 599.0 121.6 599.6 122.4 600.0 122.4 M 598.6 121.6 C 598.5 123.3 599.8 124.4 601.6 126.0 C 603.6 127.6 602.3 124.9 602.9 124.6 C 605.9 126.1 605.3 126.9 604.0 127.9 C 605.6 127.8 607.5 131.6 608.1 129.5 C 603.8 126.3 611.4 131.4 608.5 127.8 C 608.2 127.3 609.6 127.6 610.0 127.9 C 609.3 126.4 611.9 127.1 610.4 125.2 C 610.8 124.0 610.9 124.7 610.2 123.0 C 609.8 122.5 609.7 123.0 609.6 123.3 C 608.6 124.3 608.6 121.6 607.1 121.5 C 607.3 119.3 605.0 120.4 605.3 121.7 C 604.6 120.8 604.6 118.4 602.9 118.9 C 602.9 117.7 600.1 116.5 600.9 118.5 C 601.5 119.9 600.0 119.5 599.5 119.7 C 599.7 120.3 601.5 120.9 601.5 121.4 C 600.9 121.3 598.6 120.5 600.6 121.9 C 599.6 122.0 600.4 123.0 598.6 121.6 C 598.6 121.6 598.6 121.6 598.6 121.6 Z M 605.2 127.8 C 604.9 128.2 604.5 127.3 605.2 127.8 C 605.2 127.8 605.2 127.8 605.2 127.8 Z M 604.2 118.7 C 604.0 119.1 603.6 118.1 604.2 118.7 C 604.2 118.7 604.2 118.7 604.2 118.7 Z M 609.3 123.0 C 609.0 123.4 608.6 122.5 609.3 123.0 C 609.3 123.0 609.3 123.0 609.3 123.0 Z M 603.5 126.1 C 602.6 124.9 604.9 126.2 604.8 126.8 C 604.6 126.5 603.5 126.7 603.5 126.1 C 603.5 126.1 603.5 126.1 603.5 126.1 Z M 605.1 123.6 C 604.9 123.7 604.4 123.4 604.7 123.1 C 605.1 123.2 605.3 123.6 605.1 123.6 C 605.1 123.6 605.1 123.6 605.1 123.6 Z M 609.5 129.5 C 609.3 129.6 608.8 129.3 609.2 128.9 C 609.5 129.0 609.7 129.4 609.5 129.5 C 609.5 129.5 609.5 129.5 609.5 129.5 Z M 603.0 124.1 C 602.8 123.8 602.9 123.3 603.3 123.6 C 603.3 123.8 604.1 124.5 603.0 124.1 C 603.0 124.1 603.0 124.1 603.0 124.1 Z M 600.2 124.1 C 599.4 123.2 601.8 124.0 601.6 124.2 C 601.7 124.7 600.5 124.9 600.2 124.1 C 600.2 124.1 600.2 124.1 600.2 124.1 Z M 602.9 123.1 C 602.2 122.3 603.4 123.1 602.9 123.1 C 602.9 123.1 602.9 123.1 602.9 123.1 Z M 611.0 125.9 C 610.4 125.1 611.6 125.9 611.0 125.9 C 611.0 125.9 611.0 125.9 611.0 125.9 Z M 607.7 121.5 C 607.1 120.8 608.3 121.5 607.7 121.5 C 607.7 121.5 607.7 121.5 607.7 121.5 Z M 606.2 126.9 C 607.6 127.9 605.6 128.0 606.2 126.9 C 606.2 126.9 606.2 126.9 606.2 126.9 Z M 597.9 122.6 C 599.3 123.7 597.4 123.8 597.9 122.6 C 597.9 122.6 597.9 122.6 597.9 122.6 Z M 23.8 54.7 C 22.8 55.9 28.3 53.1 25.3 53.2 C 23.7 52.4 26.9 49.8 27.1 51.6 C 28.2 51.0 28.2 51.1 28.2 50.1 C 29.2 50.9 31.7 49.6 32.1 48.5 C 32.0 47.3 30.5 49.6 31.2 47.7 C 33.8 45.3 30.3 46.9 30.6 45.0 C 30.7 44.9 31.1 45.4 31.2 44.9 C 30.5 43.8 28.3 44.4 28.5 43.1 C 28.2 43.6 25.2 44.1 26.8 44.3 C 27.8 45.0 23.6 45.0 25.0 46.4 C 23.7 46.2 23.8 47.8 22.5 47.5 C 21.8 47.8 22.5 48.6 22.7 48.7 C 23.4 49.3 20.8 47.7 21.1 49.6 C 20.7 49.3 18.6 51.5 20.7 50.5 C 20.2 50.8 17.4 52.8 19.9 52.9 C 22.2 51.8 19.4 55.8 21.5 54.0 C 23.1 52.7 23.2 52.2 22.7 53.9 C 22.2 54.2 20.7 55.9 22.7 55.1 C 22.8 54.7 23.6 54.1 23.8 54.7 C 23.8 54.7 23.8 54.7 23.8 54.7 Z M 21.7 53.1 C 22.5 52.2 22.2 53.5 21.7 53.1 C 21.7 53.1 21.7 53.1 21.7 53.1 Z M 22.3 47.1 C 23.2 46.2 22.9 47.5 22.3 47.1 C 22.3 47.1 22.3 47.1 22.3 47.1 Z M 26.8 52.5 C 26.9 51.7 28.2 53.0 26.8 52.5 C 26.8 52.5 26.8 52.5 26.8 52.5 Z M 21.7 49.6 C 21.8 49.5 21.7 49.9 21.6 50.1 C 21.6 50.0 21.7 49.7 21.7 49.6 C 21.7 49.6 21.7 49.6 21.7 49.6 Z M 28.3 51.2 C 29.1 49.5 29.5 52.1 28.3 51.2 C 28.3 51.2 28.3 51.2 28.3 51.2 Z M 30.0 47.7 C 29.1 46.1 31.7 46.8 30.0 47.7 C 30.0 47.7 30.0 47.7 30.0 47.7 Z M 25.5 46.1 C 25.5 46.6 25.1 46.1 25.5 46.1 C 25.5 46.1 25.5 46.1 25.5 46.1 Z M 19.3 51.2 C 19.3 51.7 18.9 51.3 19.3 51.2 C 19.3 51.2 19.3 51.2 19.3 51.2 Z M 27.5 44.8 C 27.7 45.4 26.7 44.9 27.5 44.8 C 27.5 44.8 27.5 44.8 27.5 44.8 Z M 26.6 51.8 C 26.3 53.9 23.7 51.4 26.6 51.8 C 26.6 51.8 26.6 51.8 26.6 51.8 Z M 24.5 53.8 C 23.9 54.8 24.0 53.0 24.6 52.8 C 24.6 53.0 24.6 53.6 24.5 53.8 C 24.5 53.8 24.5 53.8 24.5 53.8 Z M 27.8 50.5 C 27.4 51.8 26.7 50.9 27.8 50.5 C 27.8 50.5 27.8 50.5 27.8 50.5 Z M 26.1 53.0 C 25.6 53.2 26.4 52.5 26.1 53.0 C 26.1 53.0 26.1 53.0 26.1 53.0 Z M 30.4 50.3 C 29.9 50.5 30.7 49.9 30.4 50.3 C 30.4 50.3 30.4 50.3 30.4 50.3 Z M 24.0 55.3 C 23.5 55.5 24.2 54.8 24.0 55.3 C 24.0 55.3 24.0 55.3 24.0 55.3 Z M 29.5 49.9 C 29.2 49.3 27.1 49.1 30.0 48.3 C 30.7 48.4 30.4 49.8 29.5 49.9 C 29.5 49.9 29.5 49.9 29.5 49.9 Z M 594.4 118.6 C 599.2 124.5 599.8 120.6 600.5 120.2 C 601.9 120.0 601.5 118.9 600.7 117.5 C 600.7 114.8 597.4 118.1 597.8 115.6 C 597.9 112.0 594.4 116.5 595.5 113.3 C 596.3 112.8 593.5 111.7 593.6 112.0 C 593.3 110.0 590.0 111.0 589.9 111.3 C 589.3 110.4 590.8 107.9 587.1 108.0 C 584.8 107.4 585.5 104.5 585.0 106.4 C 584.8 103.7 583.6 106.3 582.6 104.8 C 582.3 103.1 581.6 106.3 581.1 103.2 C 579.3 104.2 582.6 102.7 577.0 100.7 C 579.3 102.3 574.0 100.5 575.6 100.0 C 577.9 100.0 573.0 99.0 571.2 96.9 C 570.3 97.1 566.8 96.9 568.2 95.6 C 567.0 92.4 565.2 95.3 565.1 93.2 C 564.7 92.1 563.6 93.3 563.1 92.8 C 563.0 91.2 561.8 91.5 559.1 89.5 C 553.1 85.2 556.5 91.8 553.8 90.8 C 553.2 91.1 554.5 96.8 554.7 93.2 C 554.7 94.3 561.5 94.4 557.2 96.0 C 559.8 95.9 556.0 96.9 560.8 97.9 C 556.7 92.5 567.3 100.7 561.6 98.6 C 562.0 99.7 564.2 100.9 563.0 99.5 C 563.6 97.2 566.1 102.6 565.5 98.9 C 568.3 101.6 568.8 99.0 568.7 101.0 C 568.0 104.0 569.0 100.3 570.2 102.0 C 574.0 104.5 569.2 105.5 572.7 105.0 C 575.6 108.7 574.2 104.5 575.7 105.0 C 577.2 103.5 578.7 108.8 575.7 107.2 C 577.8 107.2 575.4 108.2 577.8 108.2 C 577.6 105.8 578.9 111.3 579.2 109.7 C 581.0 110.3 580.8 108.8 581.3 109.1 C 583.6 110.6 581.9 111.7 583.1 110.8 C 584.0 110.5 583.7 113.3 584.4 113.0 C 582.1 111.3 587.4 112.6 587.0 113.6 C 585.5 112.7 586.3 116.1 588.1 115.5 C 589.3 111.3 589.4 117.8 591.3 117.3 C 591.6 114.7 596.4 120.5 593.6 119.8 C 593.8 119.8 594.4 118.5 594.4 118.6 M 585.2 113.1 C 583.4 111.7 587.5 114.1 585.2 113.1 M 584.9 113.7 C 584.5 112.5 586.4 115.4 584.7 113.8 C 584.7 113.8 585.0 113.8 584.9 113.7 M 577.1 108.6 C 577.6 108.2 577.9 109.6 577.1 108.6 M 576.3 106.4 C 575.4 105.0 578.1 107.4 576.3 106.4 M 558.4 95.7 C 562.0 93.9 559.3 98.5 558.4 95.7 M 569.8 103.5 C 572.2 104.5 568.3 104.3 569.8 103.5 M 570.9 103.2 C 572.2 103.4 570.7 104.0 570.9 103.2 M 561.8 97.8 C 561.7 97.6 561.7 97.6 561.8 97.8 C 561.8 97.8 561.8 97.8 561.8 97.8 Z M 556.6 94.5 C 556.5 94.5 556.5 94.5 556.6 94.5 C 556.6 94.5 556.6 94.5 556.6 94.5 Z M 567.1 100.6 C 568.3 102.3 564.3 99.2 567.1 100.6 C 567.1 100.6 567.1 100.6 567.1 100.6 Z M 561.8 91.6 C 561.9 91.6 561.9 91.6 561.8 91.6 C 561.8 91.6 561.8 91.6 561.8 91.6 Z M 587.6 112.9 C 587.7 112.9 587.7 112.9 587.6 112.9 C 587.6 112.9 587.6 112.9 587.6 112.9 Z M 592.6 117.9 C 592.8 117.5 593.5 118.9 592.6 117.9 C 592.6 117.9 592.6 117.9 592.6 117.9 Z M 599.5 118.0 C 599.6 118.0 599.6 118.0 599.5 118.0 C 599.5 118.0 599.5 118.0 599.5 118.0 Z M 590.5 112.7 C 590.6 112.7 590.6 112.7 590.5 112.7 C 590.5 112.7 590.5 112.7 590.5 112.7 Z M 588.3 114.2 C 588.1 116.4 586.3 112.3 588.3 114.2 C 588.3 114.2 588.3 114.2 588.3 114.2 Z M 571.6 97.8 C 571.1 98.5 570.4 96.7 571.6 97.8 C 571.6 97.8 571.6 97.8 571.6 97.8 Z M 576.5 105.6 C 576.0 105.8 575.8 104.9 576.5 105.6 C 576.5 105.6 576.5 105.6 576.5 105.6 Z M 578.3 109.8 C 577.9 110.0 577.6 109.1 578.3 109.8 C 578.3 109.8 578.3 109.8 578.3 109.8 Z M 592.2 118.3 C 592.0 118.3 592.0 118.3 592.2 118.3 C 592.2 118.3 592.2 118.3 592.2 118.3 Z M 591.0 115.7 C 591.4 118.1 589.3 113.3 591.0 115.7 C 591.0 115.7 591.0 115.7 591.0 115.7 Z M 593.7 117.0 C 593.3 115.9 595.4 118.5 593.7 117.0 M 593.9 113.8 C 591.7 113.1 597.3 112.3 593.9 113.8 C 593.9 113.8 593.9 113.8 593.9 113.8 Z M 585.2 107.0 C 585.2 106.9 585.2 106.9 585.2 107.0 C 585.2 107.0 585.2 107.0 585.2 107.0 Z M 583.3 111.9 C 581.8 110.8 584.6 112.3 583.3 111.9 C 583.3 111.9 583.3 111.9 583.3 111.9 Z M 596.5 121.5 C 595.0 120.4 597.7 121.9 596.5 121.5 C 596.5 121.5 596.5 121.5 596.5 121.5 Z M 579.0 105.0 C 576.3 103.5 581.1 105.2 579.0 105.0 C 579.0 105.0 579.0 105.0 579.0 105.0 Z M 568.4 100.6 C 568.3 100.5 568.3 100.5 568.4 100.6 C 568.4 100.6 568.4 100.6 568.4 100.6 Z M 566.2 100.1 C 566.2 100.0 566.2 100.0 566.2 100.1 C 566.2 100.1 566.2 100.1 566.2 100.1 Z M 559.7 94.0 C 559.6 93.8 559.6 93.8 559.7 94.0 C 559.7 94.0 559.7 94.0 559.7 94.0 Z M 564.1 99.8 C 564.1 99.7 564.1 99.7 564.1 99.8 C 564.1 99.8 564.1 99.8 564.1 99.8 Z M 559.2 96.3 C 559.1 96.1 559.1 96.1 559.2 96.3 C 559.2 96.3 559.2 96.3 559.2 96.3 Z M 559.1 98.0 C 559.1 97.9 559.1 97.9 559.1 98.0 C 559.1 98.0 559.1 98.0 559.1 98.0 Z M 574.7 98.6 C 574.6 98.5 574.6 98.5 574.7 98.6 C 574.7 98.6 574.7 98.6 574.7 98.6 Z M 589.2 116.9 C 589.1 116.6 589.1 116.6 589.2 116.9 C 589.2 116.9 589.2 116.9 589.2 116.9 Z M 560.0 95.9 C 559.9 95.9 559.9 95.9 560.0 95.9 C 560.0 95.9 560.0 95.9 560.0 95.9 Z M 573.3 102.6 C 574.1 101.3 573.3 104.9 572.9 102.4 C 573.0 102.4 573.3 102.8 573.3 102.6 M 573.0 99.4 C 573.1 99.4 573.1 99.4 573.0 99.4 C 573.0 99.4 573.0 99.4 573.0 99.4 Z M 579.1 102.3 C 579.2 102.3 579.2 102.3 579.1 102.3 C 579.1 102.3 579.1 102.3 579.1 102.3 Z M 564.9 100.6 C 564.7 101.5 563.8 99.2 565.1 100.7 M 561.0 91.7 C 560.8 92.5 559.9 90.3 561.2 91.8 M 598.6 122.3 C 599.2 121.9 599.4 123.4 598.6 122.3 M 580.8 102.4 C 581.4 102.0 581.7 103.4 580.8 102.4 M 577.2 102.3 C 576.9 103.2 576.1 100.9 577.4 102.4 M 564.9 94.1 C 564.8 94.1 564.8 94.1 564.9 94.1 C 564.9 94.1 564.9 94.1 564.9 94.1 Z M 581.0 110.2 C 581.0 110.2 581.0 110.2 581.0 110.2 C 581.0 110.2 581.0 110.2 581.0 110.2 Z M 575.1 104.2 C 575.5 105.8 574.3 102.8 575.1 104.2 M 584.1 109.9 C 584.7 112.0 582.2 108.0 584.1 109.9 M 558.1 89.6 C 558.8 92.0 557.5 88.1 558.1 89.6 M 563.6 98.0 C 564.3 100.4 563.0 96.5 563.6 98.0 M 580.1 108.7 C 579.7 109.5 578.8 107.2 580.1 108.7 M 595.0 120.0 C 596.3 121.1 592.7 119.2 595.0 120.0 M 568.7 96.4 C 568.7 96.3 568.7 96.3 568.7 96.4 C 568.7 96.4 568.7 96.4 568.7 96.4 Z M 594.2 111.3 C 594.1 111.2 594.1 111.2 594.2 111.3 C 594.2 111.3 594.2 111.3 594.2 111.3 Z M 553.2 93.3 C 553.2 93.2 553.2 93.2 553.2 93.3 C 553.2 93.3 553.2 93.3 553.2 93.3 Z M 565.0 97.9 C 565.0 97.7 565.0 97.7 565.0 97.9 C 565.0 97.9 565.0 97.9 565.0 97.9 Z M 556.1 95.2 C 556.1 95.1 556.1 95.1 556.1 95.2 C 556.1 95.2 556.1 95.2 556.1 95.2 Z M 570.5 99.7 C 570.5 99.7 570.5 99.7 570.5 99.7 C 570.5 99.7 570.5 99.7 570.5 99.7 Z M 569.2 104.1 C 569.2 104.0 569.2 104.0 569.2 104.1 C 569.2 104.1 569.2 104.1 569.2 104.1 Z M 575.4 105.8 C 575.4 105.8 575.4 105.8 575.4 105.8 C 575.4 105.8 575.4 105.8 575.4 105.8 Z M 567.0 102.3 C 563.7 100.5 569.3 102.0 567.0 102.3 C 567.0 102.3 567.0 102.3 567.0 102.3 Z M 574.7 102.0 C 574.7 101.9 574.7 101.9 574.7 102.0 C 574.7 102.0 574.7 102.0 574.7 102.0 Z M 573.5 104.9 C 570.8 104.7 573.6 102.4 573.5 104.9 M 581.6 111.4 C 580.6 111.6 581.8 110.3 581.6 111.4 M 588.2 108.9 C 588.3 108.8 588.3 108.8 588.2 108.9 C 588.2 108.9 588.2 108.9 588.2 108.9 Z M 587.0 108.7 C 587.0 108.6 587.0 108.6 587.0 108.7 C 587.0 108.7 587.0 108.7 587.0 108.7 Z M 583.5 113.0 C 583.5 113.0 583.5 113.0 583.5 113.0 C 583.5 113.0 583.5 113.0 583.5 113.0 Z M 587.8 107.2 C 587.8 107.1 587.8 107.1 587.8 107.2 C 587.8 107.2 587.8 107.2 587.8 107.2 Z M 570.4 104.7 C 570.4 104.7 570.4 104.7 570.4 104.7 C 570.4 104.7 570.4 104.7 570.4 104.7 Z M 554.2 94.9 C 554.2 94.8 554.2 94.8 554.2 94.9 C 554.2 94.9 554.2 94.9 554.2 94.9 Z M 597.2 115.9 C 597.2 115.8 597.2 115.8 597.2 115.9 C 597.2 115.9 597.2 115.9 597.2 115.9 Z M 569.7 102.2 C 569.7 102.1 569.7 102.1 569.7 102.2 C 569.7 102.2 569.7 102.2 569.7 102.2 Z M 590.3 110.6 C 590.3 110.6 590.3 110.6 590.3 110.6 C 590.3 110.6 590.3 110.6 590.3 110.6 Z M 570.5 103.2 C 570.5 103.1 570.5 103.1 570.5 103.2 C 570.5 103.2 570.5 103.2 570.5 103.2 Z M 569.4 96.4 C 569.4 96.4 569.4 96.4 569.4 96.4 C 569.4 96.4 569.4 96.4 569.4 96.4 Z M 566.5 93.4 C 566.4 93.4 566.4 93.4 566.5 93.4 C 566.5 93.4 566.5 93.4 566.5 93.4 Z M 568.1 99.2 C 568.0 99.1 568.0 99.1 568.1 99.2 C 568.1 99.2 568.1 99.2 568.1 99.2 Z M 590.3 113.0 C 595.7 118.5 585.0 110.2 590.3 113.0 M 567.2 98.2 C 571.5 101.3 562.7 97.5 567.2 98.2 C 566.5 98.3 567.1 98.2 567.2 98.2 M 551.3 93.0 C 554.0 92.7 554.7 91.3 554.8 89.4 C 554.3 88.1 552.7 91.0 554.0 88.6 C 556.4 89.4 555.2 84.5 553.4 87.5 C 550.4 86.3 554.1 85.3 551.7 85.6 C 548.5 84.1 550.6 84.1 548.2 83.0 C 545.9 83.9 547.3 81.4 545.8 82.7 C 547.9 81.6 543.0 81.7 543.4 80.9 C 546.1 81.0 535.3 76.4 540.6 80.0 C 537.8 79.6 539.1 78.4 538.4 77.7 C 536.9 78.2 535.1 74.9 533.1 75.2 C 533.3 75.5 533.9 76.0 534.0 76.4 C 534.0 77.3 532.4 75.5 532.6 75.6 C 531.5 75.5 527.2 74.6 532.2 74.8 C 532.8 74.1 528.7 73.5 529.2 72.8 C 525.8 71.0 527.5 74.1 526.6 72.0 C 524.2 70.7 522.4 69.8 522.3 70.0 C 520.9 69.1 521.1 68.0 519.2 68.2 C 517.1 64.8 515.3 70.8 516.0 66.5 C 514.7 67.0 515.0 64.2 514.0 66.5 C 515.6 66.0 509.6 62.2 511.5 65.2 C 510.6 65.4 508.0 60.6 507.5 63.2 C 505.2 64.3 504.7 66.1 507.0 69.1 C 507.3 67.7 509.6 72.1 508.4 68.7 C 506.1 66.7 513.6 70.2 511.6 70.3 C 509.9 72.8 516.0 70.3 516.6 73.0 C 515.9 71.3 522.1 73.8 519.4 74.9 C 520.4 75.6 521.2 74.8 521.8 76.6 C 518.3 74.6 524.2 75.2 523.4 76.3 C 522.4 76.8 527.4 80.1 527.4 78.7 C 527.0 75.0 528.5 80.0 530.0 79.4 C 533.2 80.3 528.3 81.5 531.5 80.6 C 531.9 81.3 535.8 83.3 533.0 82.6 C 532.2 81.8 536.9 80.8 536.1 83.4 C 531.2 82.5 540.4 86.7 539.4 85.2 C 533.8 80.5 546.9 87.5 541.3 86.0 C 543.4 88.8 540.2 86.0 543.9 87.4 C 543.9 86.5 547.0 87.3 545.5 88.4 C 544.8 90.9 548.1 86.0 548.5 90.2 C 548.1 91.7 553.3 91.7 550.9 92.2 C 550.8 92.3 551.2 92.9 551.3 93.0 M 550.2 92.0 C 550.9 91.8 550.6 93.0 550.2 92.0 M 551.0 91.8 C 551.0 91.9 551.0 91.9 551.0 91.8 C 551.0 91.8 551.0 91.8 551.0 91.8 Z M 544.5 87.6 C 544.5 87.7 544.5 87.7 544.5 87.6 C 544.5 87.6 544.5 87.6 544.5 87.6 Z M 542.2 79.1 C 542.2 79.2 542.2 79.2 542.2 79.1 C 542.2 79.1 542.2 79.1 542.2 79.1 Z M 540.1 85.0 C 540.1 85.1 540.1 85.1 540.1 85.0 C 540.1 85.0 540.1 85.0 540.1 85.0 Z M 547.1 88.7 C 547.1 88.7 547.1 88.7 547.1 88.7 C 547.1 88.7 547.1 88.7 547.1 88.7 Z M 540.0 86.1 C 540.2 85.0 541.3 87.5 539.9 86.1 C 539.9 86.1 540.2 86.2 540.0 86.1 M 534.0 83.2 C 534.0 83.1 534.0 83.1 534.0 83.2 M 524.3 69.7 C 524.3 69.6 524.3 69.6 524.3 69.7 M 519.8 75.9 C 519.7 75.7 519.7 75.7 519.8 75.9 M 528.6 79.2 C 526.7 78.4 528.3 78.5 528.6 79.2 M 515.2 73.0 C 517.3 74.7 512.5 72.2 515.2 73.0 M 512.7 72.4 C 512.6 72.2 512.6 72.2 512.7 72.4 M 523.3 77.2 C 523.4 77.2 523.4 77.2 523.3 77.2 C 523.3 77.2 523.3 77.2 523.3 77.2 Z M 529.1 79.9 C 531.3 81.6 526.3 79.5 529.1 79.9 M 543.3 88.0 C 541.7 87.7 543.9 86.9 543.3 88.0 M 546.2 89.0 C 546.2 89.0 546.2 89.0 546.2 89.0 C 546.2 89.0 546.2 89.0 546.2 89.0 Z M 518.9 74.9 C 519.0 74.9 519.0 74.9 518.9 74.9 C 518.9 74.9 518.9 74.9 518.9 74.9 Z M 516.2 73.7 C 516.3 73.7 516.3 73.7 516.2 73.7 C 516.2 73.7 516.2 73.7 516.2 73.7 Z M 514.8 65.3 C 514.9 65.3 514.9 65.3 514.8 65.3 C 514.8 65.3 514.8 65.3 514.8 65.3 Z M 545.6 85.4 C 547.1 86.8 542.7 86.4 543.9 85.1 C 544.1 84.4 545.3 85.4 545.6 85.4 M 531.9 79.0 C 532.5 76.7 532.1 82.8 531.9 79.0 M 513.1 70.8 C 512.5 67.4 514.5 73.7 513.1 70.8 M 509.2 69.5 C 508.4 68.5 516.2 72.5 510.3 70.5 C 509.6 70.7 509.5 69.9 509.2 69.5 M 534.5 82.1 C 534.6 80.7 537.0 84.1 534.5 82.1 M 525.3 72.9 C 524.1 73.2 521.5 72.7 523.1 71.9 C 524.0 70.3 526.7 72.8 525.3 72.9 M 550.3 90.5 C 547.9 91.5 551.3 89.0 550.3 90.5 M 543.6 86.5 C 543.6 86.6 543.6 86.6 543.6 86.5 C 543.6 86.5 543.6 86.5 543.6 86.5 Z M 540.8 85.3 C 540.8 85.1 540.8 85.1 540.8 85.3 M 548.3 91.5 C 548.3 91.3 548.3 91.3 548.3 91.5 M 524.4 74.9 C 524.3 74.6 524.3 74.6 524.4 74.9 M 529.3 79.0 C 527.7 75.8 531.0 79.4 529.3 79.0 M 537.7 78.9 C 537.4 77.6 539.4 79.8 537.7 78.9 M 524.6 77.4 C 523.6 74.7 528.0 77.1 524.6 77.4 M 530.6 79.9 C 530.4 79.8 530.4 79.8 530.6 79.9 C 530.6 79.9 530.6 79.9 530.6 79.9 Z M 524.7 72.3 C 524.8 72.3 524.8 72.3 524.7 72.3 C 524.7 72.3 524.7 72.3 524.7 72.3 Z M 523.9 72.0 C 524.0 72.0 524.0 72.0 523.9 72.0 C 523.9 72.0 523.9 72.0 523.9 72.0 Z M 522.2 76.4 C 522.3 76.4 522.3 76.4 522.2 76.4 C 522.2 76.4 522.2 76.4 522.2 76.4 Z M 549.0 84.4 C 547.2 83.2 550.6 85.0 549.0 84.4 C 549.0 84.4 549.0 84.4 549.0 84.4 Z M 537.9 84.9 C 535.6 81.8 540.8 84.7 537.9 84.9 C 537.9 84.9 537.9 84.9 537.9 84.9 Z M 535.6 80.7 C 535.7 80.6 535.7 80.6 535.6 80.7 C 535.6 80.7 535.6 80.7 535.6 80.7 Z M 525.2 79.1 C 525.3 79.0 525.3 79.0 525.2 79.1 C 525.2 79.1 525.2 79.1 525.2 79.1 Z M 548.2 83.7 C 548.3 83.6 548.3 83.6 548.2 83.7 C 548.2 83.7 548.2 83.7 548.2 83.7 Z M 517.2 72.8 C 517.3 72.7 517.3 72.7 517.2 72.8 C 517.2 72.8 517.2 72.8 517.2 72.8 Z M 530.0 74.7 C 529.0 75.0 530.2 74.1 530.0 74.7 C 530.0 74.7 530.0 74.7 530.0 74.7 Z M 527.2 73.2 C 527.1 73.2 527.1 73.2 527.2 73.2 C 527.2 73.2 527.2 73.2 527.2 73.2 Z M 512.0 72.2 C 511.9 72.1 511.9 72.1 512.0 72.2 C 512.0 72.2 512.0 72.2 512.0 72.2 Z M 520.7 67.9 C 520.6 67.9 520.6 67.9 520.7 67.9 C 520.7 67.9 520.7 67.9 520.7 67.9 Z M 517.3 68.8 C 517.3 68.8 517.3 68.8 517.3 68.8 C 517.3 68.8 517.3 68.8 517.3 68.8 Z M 522.9 76.3 C 519.9 75.1 523.9 75.8 522.9 76.3 C 522.9 76.3 522.9 76.3 522.9 76.3 Z M 509.9 65.9 C 509.9 65.7 509.9 65.7 509.9 65.9 C 509.9 65.9 509.9 65.9 509.9 65.9 Z M 507.3 67.6 C 507.2 67.5 507.2 67.5 507.3 67.6 C 507.3 67.6 507.3 67.6 507.3 67.6 Z M 505.9 68.6 C 505.9 68.4 505.9 68.4 505.9 68.6 C 505.9 68.6 505.9 68.6 505.9 68.6 Z M 542.2 82.8 C 542.3 82.9 542.3 82.9 542.2 82.8 C 542.2 82.8 542.2 82.8 542.2 82.8 Z M 541.2 87.2 C 541.2 87.3 541.2 87.3 541.2 87.2 C 541.2 87.2 541.2 87.2 541.2 87.2 Z M 537.4 85.3 C 537.4 85.4 537.4 85.4 537.4 85.3 C 537.4 85.3 537.4 85.3 537.4 85.3 Z M 544.2 80.9 C 544.2 80.9 544.2 80.9 544.2 80.9 C 544.2 80.9 544.2 80.9 544.2 80.9 Z M 528.2 76.4 C 528.2 76.5 528.2 76.5 528.2 76.4 C 528.2 76.4 528.2 76.4 528.2 76.4 Z M 527.6 74.2 C 527.6 74.3 527.6 74.3 527.6 74.2 C 527.6 74.2 527.6 74.2 527.6 74.2 Z M 532.0 73.8 C 532.0 73.9 532.0 73.9 532.0 73.8 C 532.0 73.8 532.0 73.8 532.0 73.8 Z M 527.3 72.3 C 527.3 72.3 527.3 72.3 527.3 72.3 C 527.3 72.3 527.3 72.3 527.3 72.3 Z M 553.3 87.0 C 553.3 86.9 553.3 86.9 553.3 87.0 C 553.3 87.0 553.3 87.0 553.3 87.0 Z M 551.9 90.0 C 552.0 90.0 552.0 90.0 551.9 90.0 C 551.9 90.0 551.9 90.0 551.9 90.0 Z M 526.6 78.4 C 525.6 78.7 525.7 76.8 526.6 78.4 M 532.2 80.9 C 532.3 80.8 532.3 80.8 532.2 80.9 C 532.2 80.9 532.2 80.9 532.2 80.9 Z M 517.4 73.6 C 517.3 72.0 519.7 75.5 517.4 73.6 C 517.4 73.6 517.4 73.6 517.4 73.6 Z M 522.9 70.0 C 522.8 70.0 522.8 70.0 522.9 70.0 C 522.9 70.0 522.9 70.0 522.9 70.0 Z M 521.2 69.8 C 521.1 69.6 521.1 69.6 521.2 69.8 C 521.2 69.8 521.2 69.8 521.2 69.8 Z M 511.5 69.1 C 511.4 68.9 511.4 68.9 511.5 69.1 M 532.4 82.3 C 531.8 81.3 531.9 81.5 532.4 82.3 M 515.6 72.6 C 515.7 72.6 515.7 72.6 515.6 72.6 C 515.6 72.6 515.6 72.6 515.6 72.6 Z M 509.4 68.9 C 509.5 68.9 509.5 68.9 509.4 68.9 C 509.4 68.9 509.4 68.9 509.4 68.9 Z M 536.6 83.6 C 537.3 82.1 537.8 82.8 536.6 83.6 M 547.6 89.1 C 547.6 89.0 547.6 89.0 547.6 89.1 C 547.6 89.1 547.6 89.1 547.6 89.1 Z M 500.1 65.8 C 502.4 68.8 503.5 66.6 503.5 66.5 C 501.7 69.4 506.8 66.5 506.4 65.7 C 506.7 65.3 506.9 58.8 503.2 61.1 C 502.5 61.2 502.5 60.1 502.2 59.8 C 498.3 58.3 504.0 62.7 499.4 60.6 C 498.8 59.8 500.9 57.7 497.4 58.2 C 497.4 57.9 494.7 55.6 495.4 57.3 C 494.4 55.5 492.9 56.5 491.4 56.2 C 490.4 54.9 493.2 54.7 488.1 54.3 C 487.2 51.3 484.9 54.8 484.2 51.7 C 483.1 51.1 479.7 54.3 483.3 53.2 C 482.8 53.3 483.6 55.8 480.4 53.7 C 481.1 53.4 484.7 50.2 478.3 49.9 C 477.5 49.4 474.9 49.6 474.6 48.9 C 477.7 49.6 471.4 45.6 471.6 47.1 C 467.5 44.5 469.3 47.3 466.6 44.8 C 464.0 43.7 466.8 46.9 463.9 44.6 C 461.3 43.9 463.4 43.5 463.6 43.7 C 461.5 42.6 460.5 43.1 459.7 42.8 C 459.3 42.4 458.6 41.2 457.7 42.0 C 454.8 43.0 456.2 45.6 454.5 47.1 C 455.9 48.6 455.8 45.9 456.4 47.7 C 457.7 46.9 456.5 47.9 461.1 49.3 C 461.1 49.0 460.3 47.8 461.5 48.1 C 463.2 48.9 460.8 51.5 464.5 50.4 C 461.3 48.4 469.7 51.3 466.7 49.4 C 470.8 50.5 467.8 50.1 470.3 51.9 C 471.0 49.8 469.7 54.2 471.4 53.0 C 471.3 53.9 476.0 55.4 473.3 52.8 C 478.1 54.1 474.7 54.1 475.9 55.9 C 478.0 56.9 477.5 52.6 477.8 55.7 C 480.1 58.0 478.4 54.5 479.6 57.3 C 479.4 55.1 481.6 58.1 481.7 55.9 C 486.5 57.7 480.2 57.7 484.1 57.8 C 483.1 57.3 482.4 60.0 485.2 59.2 C 485.6 55.8 486.7 63.0 486.9 58.4 C 494.0 60.1 487.3 60.5 490.9 62.1 C 491.9 62.5 490.5 60.3 491.3 60.7 C 495.8 63.3 491.4 62.6 494.7 61.8 C 499.5 63.3 495.3 64.0 497.5 65.2 C 498.1 64.3 500.6 63.6 500.1 65.8 M 496.5 63.0 C 495.2 63.2 496.2 62.1 496.5 63.0 M 505.2 68.2 C 504.0 68.3 504.9 67.3 505.2 68.2 M 492.4 61.9 C 490.9 62.0 492.5 60.7 492.4 61.9 M 467.8 50.6 C 469.6 51.3 466.8 50.8 467.8 50.6 M 501.5 66.6 C 499.8 66.7 501.6 65.4 501.5 66.6 M 503.9 65.8 C 503.8 65.8 503.8 65.8 503.9 65.8 M 464.7 51.3 C 464.6 51.2 464.6 51.2 464.7 51.3 M 471.4 54.0 C 470.0 53.3 472.4 53.8 471.4 54.0 M 474.3 47.4 C 472.9 46.8 475.3 47.3 474.3 47.4 M 461.0 50.0 C 459.3 50.0 460.8 49.1 461.0 50.0 M 457.7 47.1 C 456.2 47.2 457.1 46.1 457.7 47.1 M 498.3 61.1 C 498.4 61.1 498.4 61.1 498.3 61.1 C 498.3 61.1 498.3 61.1 498.3 61.1 Z M 486.8 54.1 C 488.0 55.4 485.3 52.6 486.8 54.1 M 487.2 59.4 C 486.8 57.7 489.1 60.3 487.2 59.4 C 487.2 59.4 487.2 59.4 487.2 59.4 Z M 489.6 59.7 C 489.7 59.7 489.7 59.7 489.6 59.7 C 489.6 59.7 489.6 59.7 489.6 59.7 Z M 482.7 56.7 C 482.8 56.7 482.8 56.7 482.7 56.7 C 482.7 56.7 482.7 56.7 482.7 56.7 Z M 484.2 57.2 C 484.9 57.1 484.9 57.8 484.2 57.2 C 484.2 57.2 484.2 57.2 484.2 57.2 Z M 475.8 48.8 C 476.5 48.7 476.5 49.4 475.8 48.8 C 475.8 48.8 475.8 48.8 475.8 48.8 Z M 486.6 57.7 C 487.3 56.4 487.2 59.0 486.6 57.7 C 486.6 57.7 486.6 57.7 486.6 57.7 Z M 480.4 51.3 C 479.7 51.4 479.7 49.5 480.4 51.3 M 463.4 50.5 C 462.6 50.6 462.6 48.7 463.4 50.5 M 478.0 56.7 C 477.2 56.8 477.2 54.9 478.0 56.7 M 495.4 63.3 C 495.3 63.0 495.3 63.0 495.4 63.3 M 489.8 53.9 C 488.7 54.0 489.6 53.1 489.8 53.9 M 503.4 60.5 C 502.3 60.6 503.3 59.7 503.4 60.5 M 467.9 45.0 C 467.8 45.4 466.4 44.3 467.9 45.0 M 477.1 53.8 C 475.9 53.2 474.9 51.9 477.5 53.1 C 477.6 53.5 476.7 53.3 477.1 53.8 C 477.1 53.8 477.1 53.8 477.1 53.8 Z M 473.7 48.9 C 473.6 48.7 473.6 48.7 473.7 48.9 M 474.3 54.2 C 474.2 54.0 474.2 54.0 474.3 54.2 M 466.8 51.1 C 466.7 50.8 466.7 50.8 466.8 51.1 M 465.7 51.1 C 465.8 51.0 465.8 51.0 465.7 51.1 C 465.7 51.1 465.7 51.1 465.7 51.1 Z M 457.2 48.5 C 457.2 48.5 457.2 48.5 457.2 48.5 C 457.2 48.5 457.2 48.5 457.2 48.5 Z M 469.3 51.8 C 469.3 51.8 469.3 51.8 469.3 51.8 C 469.3 51.8 469.3 51.8 469.3 51.8 Z M 464.4 44.0 C 464.4 43.9 464.4 43.9 464.4 44.0 C 464.4 44.0 464.4 44.0 464.4 44.0 Z M 465.0 45.2 C 465.0 45.1 465.0 45.1 465.0 45.2 C 465.0 45.2 465.0 45.2 465.0 45.2 Z M 499.5 65.5 C 497.9 66.0 499.9 63.0 499.5 65.5 M 461.2 43.7 C 460.5 42.4 463.3 44.3 461.2 43.7 C 461.2 43.7 461.2 43.7 461.2 43.7 Z M 470.6 51.1 C 470.6 50.8 470.6 50.8 470.6 51.1 M 465.3 50.8 C 465.3 50.6 465.3 50.6 465.3 50.8 M 486.7 60.7 C 486.7 60.4 486.7 60.4 486.7 60.7 M 459.5 48.3 C 456.1 46.7 461.9 47.0 459.5 48.3 M 488.9 60.1 C 488.9 60.2 488.9 60.2 488.9 60.1 M 482.1 54.3 C 479.7 53.4 483.2 53.8 482.1 54.3 M 475.4 53.5 C 475.5 53.4 475.5 53.4 475.4 53.5 C 475.4 53.5 475.4 53.5 475.4 53.5 Z M 478.9 54.9 C 480.7 55.4 479.2 55.5 478.9 54.9 C 478.9 54.9 478.9 54.9 478.9 54.9 Z M 498.4 63.6 C 496.3 62.4 500.8 64.2 498.4 63.6 C 498.4 63.6 498.4 63.6 498.4 63.6 Z M 462.3 45.8 C 462.5 45.7 462.5 45.7 462.3 45.8 C 462.3 45.8 462.3 45.8 462.3 45.8 Z M 469.4 52.9 C 470.5 53.0 469.7 53.5 469.4 52.9 C 469.4 52.9 469.4 52.9 469.4 52.9 Z M 455.9 48.1 C 457.1 48.1 456.3 48.6 455.9 48.1 C 455.9 48.1 455.9 48.1 455.9 48.1 Z M 500.9 65.0 C 493.9 59.1 511.3 70.5 500.9 65.0 C 500.9 65.0 500.9 65.0 500.9 65.0 Z M 477.1 55.3 C 477.2 55.2 477.2 55.2 477.1 55.3 C 477.1 55.3 477.1 55.3 477.1 55.3 Z M 491.6 62.5 C 491.7 62.4 491.7 62.4 491.6 62.5 C 491.6 62.5 491.6 62.5 491.6 62.5 Z M 494.7 62.4 C 494.8 62.3 494.8 62.3 494.7 62.4 C 494.7 62.4 494.7 62.4 494.7 62.4 Z M 496.3 56.9 C 496.4 56.8 496.4 56.8 496.3 56.9 C 496.3 56.9 496.3 56.9 496.3 56.9 Z M 494.4 58.9 C 494.5 58.8 494.5 58.8 494.4 58.9 C 494.4 58.9 494.4 58.9 494.4 58.9 Z M 500.0 60.3 C 500.1 60.2 500.1 60.2 500.0 60.3 C 500.0 60.3 500.0 60.3 500.0 60.3 Z M 500.2 59.6 C 500.2 59.5 500.2 59.5 500.2 59.6 C 500.2 59.6 500.2 59.6 500.2 59.6 Z M 465.9 49.3 C 466.0 49.2 466.0 49.2 465.9 49.3 C 465.9 49.3 465.9 49.3 465.9 49.3 Z M 469.5 48.2 C 467.3 48.2 470.6 47.3 469.5 48.2 C 469.5 48.2 469.5 48.2 469.5 48.2 Z M 486.0 56.1 C 484.1 55.6 487.4 55.9 486.0 56.1 C 486.0 56.1 486.0 56.1 486.0 56.1 Z M 485.3 52.5 C 485.3 52.4 485.3 52.4 485.3 52.5 C 485.3 52.5 485.3 52.5 485.3 52.5 Z M 494.1 63.6 C 494.2 63.5 494.2 63.5 494.1 63.6 C 494.1 63.6 494.1 63.6 494.1 63.6 Z M 497.7 64.2 C 498.3 63.1 498.4 65.1 497.7 64.2 M 481.4 57.9 C 481.5 57.7 481.5 57.7 481.4 57.9 C 481.4 57.9 481.4 57.9 481.4 57.9 Z M 472.0 52.0 C 472.0 51.9 472.0 51.9 472.0 52.0 C 472.0 52.0 472.0 52.0 472.0 52.0 Z M 461.5 48.8 C 461.6 48.6 461.6 48.6 461.5 48.8 C 461.5 48.8 461.5 48.8 461.5 48.8 Z M 475.2 55.1 C 475.3 55.0 475.3 55.0 475.2 55.1 C 475.2 55.1 475.2 55.1 475.2 55.1 Z M 480.4 56.1 C 480.5 56.0 480.5 56.0 480.4 56.1 C 480.4 56.1 480.4 56.1 480.4 56.1 Z M 459.8 46.4 C 459.9 46.3 459.9 46.3 459.8 46.4 C 459.8 46.4 459.8 46.4 459.8 46.4 Z M 474.0 54.8 C 474.0 54.8 474.0 54.8 474.0 54.8 C 474.0 54.8 474.0 54.8 474.0 54.8 Z M 472.4 50.1 C 472.6 50.1 472.6 50.1 472.4 50.1 C 472.4 50.1 472.4 50.1 472.4 50.1 Z M 496.5 65.5 C 496.6 65.5 496.6 65.5 496.5 65.5 C 496.5 65.5 496.5 65.5 496.5 65.5 Z M 459.2 47.8 C 459.2 47.8 459.2 47.8 459.2 47.8 C 459.2 47.8 459.2 47.8 459.2 47.8 Z M 458.2 48.6 C 458.2 48.6 458.2 48.6 458.2 48.6 C 458.2 48.6 458.2 48.6 458.2 48.6 Z M 467.4 46.0 C 470.8 48.0 464.1 45.0 466.3 47.2 C 460.9 45.5 466.7 45.6 467.4 46.0 C 467.4 46.0 467.4 46.0 467.4 46.0 Z M 453.2 47.2 C 455.7 46.5 456.3 45.0 455.9 43.1 C 455.2 42.0 454.2 45.0 455.0 42.4 C 457.5 42.8 455.4 38.2 454.3 41.5 C 451.1 40.9 454.5 39.2 452.2 39.9 C 448.8 39.1 450.9 38.6 448.3 38.0 C 446.2 39.3 447.1 36.6 445.9 38.1 C 447.8 36.7 443.0 37.7 443.2 36.8 C 445.9 36.5 434.4 33.9 440.3 36.5 C 437.5 36.5 438.5 35.1 437.7 34.6 C 436.3 35.4 433.9 32.4 432.0 33.1 C 432.3 33.4 433.0 33.7 433.1 34.2 C 433.3 35.0 431.4 33.5 431.6 33.6 C 430.5 33.7 426.1 33.6 431.0 32.9 C 431.5 32.1 427.4 32.3 427.8 31.5 C 424.1 30.3 426.3 33.0 425.1 31.2 C 422.4 30.3 420.5 29.8 420.5 30.0 C 418.9 29.3 418.9 28.2 417.1 28.8 C 414.4 25.8 413.7 32.0 413.6 27.7 C 412.4 28.4 412.2 25.6 411.7 28.0 C 413.1 27.2 406.6 24.6 409.0 27.2 C 408.1 27.6 404.7 23.3 404.6 26.0 C 402.6 27.4 402.5 29.3 405.3 31.9 C 405.3 30.4 408.3 34.3 406.5 31.2 C 403.9 29.6 411.9 31.7 410.0 32.2 C 408.8 35.0 414.3 31.4 415.4 34.0 C 414.4 32.4 421.0 33.7 418.5 35.3 C 419.6 35.8 420.2 34.9 421.2 36.5 C 417.4 35.2 423.3 34.7 422.7 36.0 C 421.8 36.6 427.3 39.0 427.1 37.6 C 426.0 34.0 428.4 38.6 429.7 37.8 C 433.1 38.1 428.4 40.1 431.5 38.7 C 432.0 39.3 436.1 40.6 433.3 40.4 C 432.4 39.8 436.8 37.9 436.5 40.6 C 431.5 40.6 441.3 43.1 440.1 41.8 C 433.7 38.1 447.9 42.7 442.0 42.2 C 444.6 44.6 440.9 42.5 444.9 43.2 C 444.7 42.2 447.9 42.4 446.6 43.8 C 446.4 46.4 448.8 41.0 450.0 45.0 C 449.8 46.5 454.9 45.6 452.7 46.6 C 452.5 46.7 453.0 47.2 453.2 47.2 M 451.9 46.5 C 452.6 46.1 452.5 47.4 451.9 46.5 M 452.6 46.2 C 452.7 46.2 452.7 46.2 452.6 46.2 C 452.6 46.2 452.6 46.2 452.6 46.2 Z M 445.5 43.3 C 445.5 43.3 445.5 43.3 445.5 43.3 C 445.5 43.3 445.5 43.3 445.5 43.3 Z M 441.7 35.3 C 441.7 35.4 441.7 35.4 441.7 35.3 C 441.7 35.3 441.7 35.3 441.7 35.3 Z M 440.7 41.5 C 440.7 41.5 440.7 41.5 440.7 41.5 C 440.7 41.5 440.7 41.5 440.7 41.5 Z M 448.2 43.8 C 448.3 43.8 448.3 43.8 448.2 43.8 C 448.2 43.8 448.2 43.8 448.2 43.8 Z M 440.8 42.5 C 440.8 41.5 442.3 43.7 440.7 42.6 C 440.7 42.5 441.0 42.6 440.8 42.5 M 434.4 40.8 C 434.4 40.7 434.4 40.7 434.4 40.8 M 422.4 29.3 C 422.4 29.2 422.4 29.2 422.4 29.3 M 419.1 36.2 C 419.0 36.0 419.0 36.0 419.1 36.2 M 428.3 37.9 C 426.3 37.4 428.0 37.3 428.3 37.9 M 414.1 34.2 C 416.4 35.5 411.3 33.9 414.1 34.2 M 411.5 34.0 C 411.3 33.9 411.3 33.9 411.5 34.0 M 422.7 36.9 C 422.8 36.9 422.8 36.9 422.7 36.9 C 422.7 36.9 422.7 36.9 422.7 36.9 Z M 429.0 38.5 C 431.4 39.8 426.2 38.5 429.0 38.5 M 444.4 43.8 C 442.8 43.8 444.8 42.7 444.4 43.8 M 447.4 44.3 C 447.4 44.3 447.4 44.3 447.4 44.3 C 447.4 44.3 447.4 44.3 447.4 44.3 Z M 418.0 35.4 C 418.1 35.4 418.1 35.4 418.0 35.4 C 418.0 35.4 418.0 35.4 418.0 35.4 Z M 415.1 34.7 C 415.2 34.7 415.2 34.7 415.1 34.7 C 415.1 34.7 415.1 34.7 415.1 34.7 Z M 412.2 26.7 C 412.3 26.7 412.3 26.7 412.2 26.7 C 412.2 26.7 412.2 26.7 412.2 26.7 Z M 446.2 40.8 C 447.9 41.9 443.5 42.3 444.5 40.9 C 444.5 40.1 445.9 40.9 446.2 40.8 M 431.5 37.1 C 431.7 34.6 432.4 40.7 431.5 37.1 M 411.5 32.4 C 410.4 29.2 413.5 35.0 411.5 32.4 M 407.5 31.8 C 406.5 31.0 414.9 33.5 408.8 32.6 C 408.1 32.9 407.8 32.2 407.5 31.8 M 434.6 39.7 C 434.5 38.2 437.5 41.2 434.6 39.7 M 424.0 32.3 C 422.8 32.8 420.1 32.8 421.6 31.7 C 422.2 29.9 425.3 31.9 424.0 32.3 M 451.8 45.0 C 449.5 46.5 452.4 43.4 451.8 45.0 M 444.5 42.3 C 444.4 42.4 444.4 42.4 444.5 42.3 C 444.5 42.3 444.5 42.3 444.5 42.3 Z M 441.5 41.6 C 441.4 41.4 441.4 41.4 441.5 41.6 M 450.0 46.3 C 449.9 46.1 449.9 46.1 450.0 46.3 M 423.4 34.4 C 423.3 34.2 423.3 34.2 423.4 34.4 M 429.0 37.5 C 426.8 34.6 430.7 37.6 429.0 37.5 M 437.3 35.9 C 436.7 34.7 439.1 36.4 437.3 35.9 M 424.1 36.8 C 422.6 34.3 427.4 35.9 424.1 36.8 M 430.4 38.2 C 430.2 38.1 430.2 38.1 430.4 38.2 C 430.4 38.2 430.4 38.2 430.4 38.2 Z M 423.3 31.8 C 423.3 31.8 423.3 31.8 423.3 31.8 C 423.3 31.8 423.3 31.8 423.3 31.8 Z M 422.4 31.7 C 422.5 31.6 422.5 31.6 422.4 31.7 C 422.4 31.7 422.4 31.7 422.4 31.7 Z M 421.5 36.3 C 421.6 36.3 421.6 36.3 421.5 36.3 C 421.5 36.3 421.5 36.3 421.5 36.3 Z M 449.4 39.3 C 447.4 38.4 451.1 39.5 449.4 39.3 C 449.4 39.3 449.4 39.3 449.4 39.3 Z M 438.5 41.7 C 435.7 39.1 441.3 41.1 438.5 41.7 C 438.5 41.7 438.5 41.7 438.5 41.7 Z M 435.5 38.0 C 435.6 37.9 435.6 37.9 435.5 38.0 C 435.5 38.0 435.5 38.0 435.5 38.0 Z M 425.0 38.4 C 425.1 38.3 425.1 38.3 425.0 38.4 C 425.0 38.4 425.0 38.4 425.0 38.4 Z M 448.4 38.7 C 448.5 38.5 448.5 38.5 448.4 38.7 C 448.4 38.7 448.4 38.7 448.4 38.7 Z M 416.0 33.6 C 416.0 33.5 416.0 33.5 416.0 33.6 C 416.0 33.6 416.0 33.6 416.0 33.6 Z M 428.9 33.2 C 428.0 33.7 428.9 32.6 428.9 33.2 C 428.9 33.2 428.9 33.2 428.9 33.2 Z M 425.9 32.3 C 425.8 32.2 425.8 32.2 425.9 32.3 C 425.9 32.3 425.9 32.3 425.9 32.3 Z M 410.7 34.0 C 410.6 34.0 410.6 34.0 410.7 34.0 C 410.7 34.0 410.7 34.0 410.7 34.0 Z M 418.5 28.2 C 418.4 28.2 418.4 28.2 418.5 28.2 C 418.5 28.2 418.5 28.2 418.5 28.2 Z M 415.3 29.7 C 415.4 29.6 415.4 29.6 415.3 29.7 C 415.3 29.7 415.3 29.7 415.3 29.7 Z M 422.2 36.0 C 419.0 35.5 423.1 35.4 422.2 36.0 C 422.2 36.0 422.2 36.0 422.2 36.0 Z M 407.5 28.2 C 407.5 28.0 407.5 28.0 407.5 28.2 C 407.5 28.2 407.5 28.2 407.5 28.2 Z M 405.2 30.4 C 405.2 30.2 405.2 30.2 405.2 30.4 C 405.2 30.4 405.2 30.4 405.2 30.4 Z M 404.1 31.5 C 404.1 31.4 404.1 31.4 404.1 31.5 C 404.1 31.5 404.1 31.5 404.1 31.5 Z M 442.4 38.9 C 442.5 39.0 442.5 39.0 442.4 38.9 C 442.4 38.9 442.4 38.9 442.4 38.9 Z M 442.2 43.4 C 442.2 43.5 442.2 43.5 442.2 43.4 C 442.2 43.4 442.2 43.4 442.2 43.4 Z M 438.1 42.3 C 438.1 42.3 438.1 42.3 438.1 42.3 C 438.1 42.3 438.1 42.3 438.1 42.3 Z M 444.0 36.6 C 444.0 36.7 444.0 36.7 444.0 36.6 C 444.0 36.6 444.0 36.6 444.0 36.6 Z M 427.4 35.2 C 427.4 35.3 427.4 35.3 427.4 35.2 C 427.4 35.2 427.4 35.2 427.4 35.2 Z M 426.5 33.1 C 426.5 33.2 426.5 33.2 426.5 33.1 C 426.5 33.1 426.5 33.1 426.5 33.1 Z M 430.7 31.9 C 430.8 32.0 430.8 32.0 430.7 31.9 C 430.7 31.9 430.7 31.9 430.7 31.9 Z M 425.8 31.3 C 425.8 31.3 425.8 31.3 425.8 31.3 C 425.8 31.3 425.8 31.3 425.8 31.3 Z M 454.1 41.0 C 454.1 40.9 454.1 40.9 454.1 41.0 C 454.1 41.0 454.1 41.0 454.1 41.0 Z M 453.2 44.2 C 453.3 44.2 453.3 44.2 453.2 44.2 C 453.2 44.2 453.2 44.2 453.2 44.2 Z M 426.2 37.4 C 425.3 37.9 425.1 36.1 426.2 37.4 M 432.2 38.8 C 432.3 38.8 432.3 38.8 432.2 38.8 C 432.2 38.8 432.2 38.8 432.2 38.8 Z M 416.3 34.4 C 415.9 32.9 418.9 35.8 416.3 34.4 C 416.3 34.4 416.3 34.4 416.3 34.4 Z M 421.0 29.9 C 421.0 29.8 421.0 29.8 421.0 29.9 C 421.0 29.9 421.0 29.9 421.0 29.9 Z M 419.3 30.0 C 419.2 29.8 419.2 29.8 419.3 30.0 C 419.3 30.0 419.3 30.0 419.3 30.0 Z M 409.7 31.0 C 409.6 30.9 409.6 30.9 409.7 31.0 M 432.6 40.2 C 431.9 39.3 432.0 39.5 432.6 40.2 M 414.3 33.7 C 414.4 33.7 414.4 33.7 414.3 33.7 C 414.3 33.7 414.3 33.7 414.3 33.7 Z M 407.6 31.2 C 407.7 31.2 407.7 31.2 407.6 31.2 C 407.6 31.2 407.6 31.2 407.6 31.2 Z M 437.0 40.7 C 437.4 39.1 438.1 39.7 437.0 40.7 M 448.8 44.1 C 448.8 44.0 448.8 44.0 448.8 44.1 C 448.8 44.1 448.8 44.1 448.8 44.1 Z M 397.9 29.9 C 400.7 32.4 401.3 30.0 401.3 29.9 C 400.1 33.1 404.5 29.4 404.1 28.6 C 404.3 28.2 403.2 21.8 400.1 24.7 C 399.4 25.0 399.2 23.8 398.8 23.6 C 394.8 22.8 401.1 26.1 396.3 24.9 C 395.5 24.2 397.2 21.7 393.8 22.9 C 393.8 22.6 390.8 20.8 391.7 22.4 C 390.4 20.7 389.1 22.0 387.6 22.0 C 386.4 20.9 389.1 20.2 384.0 20.7 C 382.5 17.9 380.9 21.8 379.7 18.9 C 378.5 18.5 375.8 22.3 379.0 20.5 C 378.6 20.7 379.9 23.0 376.3 21.5 C 377.0 21.1 379.9 17.3 373.6 18.1 C 372.7 17.8 370.2 18.4 369.8 17.9 C 372.9 18.0 366.0 15.2 366.5 16.6 C 362.0 14.8 364.3 17.2 361.2 15.2 C 358.4 14.6 361.7 17.2 358.5 15.5 C 355.8 15.2 357.8 14.5 358.0 14.6 C 355.8 13.9 354.8 14.6 354.1 14.4 C 353.6 14.1 352.7 13.0 352.0 14.0 C 349.2 15.5 351.1 17.8 349.7 19.5 C 351.3 20.8 350.7 18.2 351.7 19.8 C 352.7 18.8 351.8 20.0 356.6 20.6 C 356.5 20.2 355.5 19.2 356.7 19.3 C 358.5 19.8 356.6 22.8 360.1 21.1 C 356.6 19.7 365.3 21.0 362.1 19.7 C 366.3 20.1 363.2 20.2 366.1 21.6 C 366.4 19.3 365.9 23.9 367.3 22.4 C 367.4 23.4 372.3 23.9 369.1 21.9 C 374.2 22.3 370.8 23.0 372.3 24.5 C 374.6 25.1 373.2 21.0 374.1 23.9 C 376.8 25.8 374.5 22.6 376.2 25.2 C 375.6 23.1 378.3 25.7 378.0 23.5 C 383.0 24.4 376.9 25.5 380.7 24.9 C 379.6 24.5 379.4 27.3 382.0 26.1 C 381.8 22.7 384.2 29.6 383.6 24.9 C 390.9 25.3 384.4 27.0 388.2 27.9 C 389.2 28.1 387.4 26.2 388.3 26.4 C 393.1 28.2 388.8 28.3 391.9 26.9 C 396.9 27.5 392.8 29.0 395.2 29.7 C 395.6 28.8 398.0 27.6 397.9 29.9 M 393.8 27.8 C 392.6 28.2 393.3 27.0 393.8 27.8 M 403.3 31.3 C 402.1 31.7 402.9 30.4 403.3 31.3 M 389.6 27.5 C 388.1 27.8 389.5 26.2 389.6 27.5 M 363.4 20.7 C 365.2 21.1 362.4 21.1 363.4 20.7 M 399.4 30.4 C 397.8 30.8 399.3 29.2 399.4 30.4 M 401.6 29.2 C 401.5 29.2 401.5 29.2 401.6 29.2 M 360.4 21.9 C 360.3 21.9 360.3 21.9 360.4 21.9 M 367.5 23.4 C 366.0 23.0 368.5 23.1 367.5 23.4 M 369.2 16.4 C 367.7 16.0 370.2 16.1 369.2 16.4 M 356.5 21.3 C 354.9 21.5 356.2 20.4 356.5 21.3 M 352.8 19.0 C 351.4 19.4 352.1 18.1 352.8 19.0 M 395.3 25.6 C 395.3 25.5 395.3 25.5 395.3 25.6 C 395.3 25.6 395.3 25.6 395.3 25.6 Z M 382.7 20.8 C 384.1 21.8 381.0 19.5 382.7 20.8 M 384.0 25.9 C 383.3 24.3 386.0 26.5 384.0 25.9 C 384.0 25.9 384.0 25.9 384.0 25.9 Z M 386.4 25.8 C 386.5 25.7 386.5 25.7 386.4 25.8 C 386.4 25.8 386.4 25.8 386.4 25.8 Z M 379.1 24.1 C 379.2 24.1 379.2 24.1 379.1 24.1 C 379.1 24.1 379.1 24.1 379.1 24.1 Z M 380.7 24.3 C 381.3 24.1 381.5 24.8 380.7 24.3 C 380.7 24.3 380.7 24.3 380.7 24.3 Z M 370.9 17.5 C 371.6 17.3 371.7 17.9 370.9 17.5 C 370.9 17.5 370.9 17.5 370.9 17.5 Z M 383.1 24.3 C 383.6 22.9 383.9 25.5 383.1 24.3 C 383.1 24.3 383.1 24.3 383.1 24.3 Z M 375.9 19.2 C 375.2 19.4 374.9 17.5 375.9 19.2 M 359.0 21.4 C 358.3 21.6 357.9 19.8 359.0 21.4 M 374.5 24.9 C 373.7 25.2 373.4 23.3 374.5 24.9 M 392.8 28.2 C 392.7 28.0 392.7 28.0 392.8 28.2 M 385.6 20.0 C 384.5 20.3 385.3 19.3 385.6 20.0 M 400.2 24.1 C 399.0 24.3 399.9 23.3 400.2 24.1 M 362.5 15.2 C 362.4 15.6 360.9 14.7 362.5 15.2 M 373.1 22.2 C 371.8 21.8 370.5 20.7 373.4 21.4 C 373.5 21.8 372.6 21.8 373.1 22.2 C 373.1 22.2 373.1 22.2 373.1 22.2 Z M 368.9 18.0 C 368.7 17.8 368.7 17.8 368.9 18.0 M 370.4 23.1 C 370.2 22.9 370.2 22.9 370.4 23.1 M 362.5 21.3 C 362.3 21.1 362.3 21.1 362.5 21.3 M 361.4 21.5 C 361.4 21.5 361.4 21.5 361.4 21.5 C 361.4 21.5 361.4 21.5 361.4 21.5 Z M 352.5 20.5 C 352.6 20.4 352.6 20.4 352.5 20.5 C 352.5 20.5 352.5 20.5 352.5 20.5 Z M 365.1 21.6 C 365.1 21.6 365.1 21.6 365.1 21.6 C 365.1 21.6 365.1 21.6 365.1 21.6 Z M 358.9 14.8 C 358.9 14.7 358.9 14.7 358.9 14.8 C 358.9 14.8 358.9 14.8 358.9 14.8 Z M 359.6 15.8 C 359.6 15.8 359.6 15.8 359.6 15.8 C 359.6 15.8 359.6 15.8 359.6 15.8 Z M 397.2 29.7 C 395.8 30.4 397.2 27.1 397.2 29.7 M 355.7 15.1 C 354.7 13.9 357.8 15.3 355.7 15.1 C 355.7 15.1 355.7 15.1 355.7 15.1 Z M 366.2 20.6 C 366.2 20.4 366.2 20.4 366.2 20.6 M 360.9 21.3 C 360.8 21.1 360.8 21.1 360.9 21.3 M 383.8 27.2 C 383.7 27.0 383.7 27.0 383.8 27.2 M 354.8 19.9 C 351.2 18.8 356.9 18.1 354.8 19.9 M 385.8 26.3 C 385.9 26.4 385.9 26.4 385.8 26.3 M 378.1 21.8 C 375.6 21.3 379.1 21.2 378.1 21.8 M 371.3 22.2 C 371.4 22.1 371.4 22.1 371.3 22.2 C 371.3 22.2 371.3 22.2 371.3 22.2 Z M 375.0 23.0 C 376.9 23.2 375.4 23.5 375.0 23.0 C 375.0 23.0 375.0 23.0 375.0 23.0 Z M 395.8 28.0 C 393.5 27.2 398.3 28.1 395.8 28.0 C 395.8 28.0 395.8 28.0 395.8 28.0 Z M 357.1 16.9 C 357.2 16.8 357.2 16.8 357.1 16.9 C 357.1 16.9 357.1 16.9 357.1 16.9 Z M 365.3 22.7 C 366.5 22.6 365.7 23.3 365.3 22.7 C 365.3 22.7 365.3 22.7 365.3 22.7 Z M 351.2 20.2 C 352.4 20.1 351.7 20.8 351.2 20.2 C 351.2 20.2 351.2 20.2 351.2 20.2 Z M 398.5 28.9 C 390.6 24.4 409.7 32.4 398.5 28.9 C 398.5 28.9 398.5 28.9 398.5 28.9 Z M 373.4 23.6 C 373.4 23.6 373.4 23.6 373.4 23.6 C 373.4 23.6 373.4 23.6 373.4 23.6 Z M 388.9 28.2 C 389.0 28.1 389.0 28.1 388.9 28.2 C 388.9 28.2 388.9 28.2 388.9 28.2 Z M 391.9 27.5 C 392.0 27.4 392.0 27.4 391.9 27.5 C 391.9 27.5 391.9 27.5 391.9 27.5 Z M 392.5 21.8 C 392.6 21.7 392.6 21.7 392.5 21.8 C 392.5 21.8 392.5 21.8 392.5 21.8 Z M 391.0 24.1 C 391.1 24.0 391.1 24.0 391.0 24.1 C 391.0 24.1 391.0 24.1 391.0 24.1 Z M 396.7 24.5 C 396.8 24.4 396.8 24.4 396.7 24.5 C 396.7 24.5 396.7 24.5 396.7 24.5 Z M 396.8 23.7 C 396.9 23.7 396.9 23.7 396.8 23.7 C 396.8 23.7 396.8 23.7 396.8 23.7 Z M 361.2 19.7 C 361.3 19.6 361.3 19.6 361.2 19.7 C 361.2 19.7 361.2 19.7 361.2 19.7 Z M 364.7 18.0 C 362.5 18.4 365.5 16.9 364.7 18.0 C 364.7 18.0 364.7 18.0 364.7 18.0 Z M 382.3 22.9 C 380.3 22.8 383.6 22.4 382.3 22.9 C 382.3 22.9 382.3 22.9 382.3 22.9 Z M 380.9 19.4 C 380.9 19.4 380.9 19.4 380.9 19.4 C 380.9 19.4 380.9 19.4 380.9 19.4 Z M 391.6 28.8 C 391.7 28.7 391.7 28.7 391.6 28.8 C 391.6 28.8 391.6 28.8 391.6 28.8 Z M 395.2 28.7 C 395.6 27.6 396.1 29.5 395.2 28.7 M 378.1 25.4 C 378.1 25.3 378.1 25.3 378.1 25.4 C 378.1 25.4 378.1 25.4 378.1 25.4 Z M 367.7 21.3 C 367.7 21.3 367.7 21.3 367.7 21.3 C 367.7 21.3 367.7 21.3 367.7 21.3 Z M 356.8 20.0 C 356.9 19.9 356.9 19.9 356.8 20.0 C 356.8 20.0 356.8 20.0 356.8 20.0 Z M 371.4 23.9 C 371.5 23.7 371.5 23.7 371.4 23.9 C 371.4 23.9 371.4 23.9 371.4 23.9 Z M 376.8 23.9 C 376.8 23.7 376.8 23.7 376.8 23.9 C 376.8 23.9 376.8 23.9 376.8 23.9 Z M 354.8 17.9 C 354.9 17.9 354.9 17.9 354.8 17.9 C 354.8 17.9 354.8 17.9 354.8 17.9 Z M 370.2 23.8 C 370.3 23.8 370.3 23.8 370.2 23.8 C 370.2 23.8 370.2 23.8 370.2 23.8 Z M 367.9 19.4 C 368.0 19.3 368.0 19.3 367.9 19.4 C 367.9 19.4 367.9 19.4 367.9 19.4 Z M 394.3 30.2 C 394.3 30.2 394.3 30.2 394.3 30.2 C 394.3 30.2 394.3 30.2 394.3 30.2 Z M 354.4 19.5 C 354.4 19.4 354.4 19.4 354.4 19.5 C 354.4 19.5 354.4 19.5 354.4 19.5 Z M 353.5 20.4 C 353.6 20.3 353.6 20.3 353.5 20.4 C 353.5 20.4 353.5 20.4 353.5 20.4 Z M 362.2 16.2 C 365.9 17.6 358.7 15.8 361.3 17.6 C 355.7 16.9 361.4 16.0 362.2 16.2 C 362.2 16.2 362.2 16.2 362.2 16.2 Z M 348.3 19.9 C 350.7 18.7 351.0 17.2 350.4 15.4 C 349.5 14.4 349.0 17.6 349.4 14.8 C 351.9 14.7 349.0 10.6 348.5 14.1 C 345.2 14.0 348.3 11.8 346.2 12.8 C 342.7 12.6 344.6 11.8 342.0 11.6 C 340.1 13.3 340.6 10.5 339.6 12.2 C 341.2 10.4 336.7 12.3 336.7 11.3 C 339.4 10.5 327.6 9.9 333.8 11.5 C 331.1 12.0 331.8 10.4 331.0 10.1 C 329.7 11.0 326.9 8.5 325.2 9.4 C 325.4 9.7 326.2 9.9 326.4 10.4 C 326.7 11.2 324.6 9.9 324.9 10.0 C 323.8 10.3 319.4 10.9 324.1 9.5 C 324.5 8.6 320.5 9.4 320.7 8.6 C 316.9 8.0 319.5 10.3 318.0 8.7 C 315.3 8.3 313.3 8.0 313.3 8.3 C 311.6 7.8 311.4 6.7 309.8 7.6 C 306.7 5.1 306.9 11.3 306.1 7.1 C 305.0 7.9 304.4 5.1 304.3 7.7 C 305.6 6.7 298.8 5.0 301.5 7.2 C 300.7 7.7 296.7 4.0 297.0 6.7 C 295.3 8.4 295.4 10.3 298.5 12.4 C 298.3 11.0 301.9 14.4 299.7 11.6 C 296.9 10.4 305.1 11.3 303.2 12.0 C 302.5 14.9 307.4 10.6 308.9 13.0 C 307.6 11.6 314.4 11.8 312.1 13.8 C 313.3 14.2 313.8 13.1 315.0 14.6 C 311.0 13.9 316.8 12.5 316.4 13.8 C 315.6 14.6 321.4 16.0 321.0 14.7 C 319.3 11.3 322.4 15.5 323.6 14.5 C 327.0 14.3 322.7 17.0 325.5 15.1 C 326.1 15.6 330.4 16.2 327.6 16.5 C 326.6 16.0 330.7 13.5 330.7 16.2 C 325.9 16.9 335.9 17.8 334.5 16.7 C 327.6 14.2 342.3 16.3 336.5 16.9 C 339.5 18.8 335.5 17.3 339.5 17.3 C 339.1 16.4 342.3 16.1 341.3 17.6 C 341.5 20.2 343.0 14.5 344.8 18.3 C 344.9 19.8 349.8 18.0 347.8 19.3 C 347.6 19.5 348.2 19.9 348.3 19.9 M 347.0 19.4 C 347.6 18.9 347.7 20.2 347.0 19.4 M 347.7 18.9 C 347.7 19.0 347.7 19.0 347.7 18.9 C 347.7 18.9 347.7 18.9 347.7 18.9 Z M 340.1 17.3 C 340.2 17.4 340.2 17.4 340.1 17.3 C 340.1 17.3 340.1 17.3 340.1 17.3 Z M 335.1 10.1 C 335.1 10.2 335.1 10.2 335.1 10.1 C 335.1 10.1 335.1 10.1 335.1 10.1 Z M 335.1 16.3 C 335.1 16.4 335.1 16.4 335.1 16.3 C 335.1 16.3 335.1 16.3 335.1 16.3 Z M 342.9 17.3 C 343.0 17.4 343.0 17.4 342.9 17.3 C 342.9 17.3 342.9 17.3 342.9 17.3 Z M 335.4 17.3 C 335.1 16.3 337.0 18.3 335.3 17.5 C 335.2 17.4 335.6 17.4 335.4 17.3 M 328.7 16.7 C 328.7 16.6 328.7 16.6 328.7 16.7 M 315.0 7.3 C 315.0 7.2 315.0 7.2 315.0 7.3 M 312.9 14.6 C 312.7 14.4 312.7 14.4 312.9 14.6 M 322.2 14.8 C 320.2 14.6 321.8 14.2 322.2 14.8 M 307.6 13.4 C 310.0 14.3 304.8 13.5 307.6 13.4 M 305.0 13.6 C 304.8 13.5 304.8 13.5 305.0 13.6 M 316.6 14.7 C 316.7 14.7 316.7 14.7 316.6 14.7 C 316.6 14.7 316.6 14.7 316.6 14.7 Z M 323.0 15.3 C 325.6 16.2 320.2 15.8 323.0 15.3 M 339.1 18.0 C 337.5 18.3 339.3 16.8 339.1 18.0 M 342.2 18.0 C 342.2 18.0 342.2 18.0 342.2 18.0 C 342.2 18.0 342.2 18.0 342.2 18.0 Z M 311.7 13.9 C 311.8 13.9 311.8 13.9 311.7 13.9 C 311.7 13.9 311.7 13.9 311.7 13.9 Z M 308.7 13.7 C 308.8 13.7 308.8 13.7 308.7 13.7 C 308.7 13.7 308.7 13.7 308.7 13.7 Z M 304.6 6.2 C 304.7 6.2 304.7 6.2 304.6 6.2 C 304.6 6.2 304.6 6.2 304.6 6.2 Z M 340.4 14.8 C 342.3 15.6 338.0 16.7 338.7 15.1 C 338.6 14.4 340.1 14.9 340.4 14.8 M 325.3 13.5 C 325.1 11.1 326.8 16.9 325.3 13.5 M 304.8 12.0 C 303.2 9.0 307.1 14.3 304.8 12.0 M 300.7 12.1 C 299.6 11.4 308.3 12.6 302.1 12.6 C 301.5 13.0 301.1 12.4 300.7 12.1 M 328.8 15.5 C 328.4 14.2 331.8 16.6 328.8 15.5 M 317.1 9.9 C 316.0 10.6 313.3 11.0 314.7 9.8 C 314.9 7.9 318.3 9.4 317.1 9.9 M 346.6 18.0 C 344.7 19.8 347.0 16.2 346.6 18.0 M 338.9 16.5 C 338.9 16.6 338.9 16.6 338.9 16.5 C 338.9 16.5 338.9 16.5 338.9 16.5 Z M 335.8 16.4 C 335.7 16.2 335.7 16.2 335.8 16.4 M 345.1 19.6 C 345.0 19.4 345.0 19.4 345.1 19.6 M 316.8 12.1 C 316.7 11.9 316.7 11.9 316.8 12.1 M 322.9 14.3 C 320.2 11.9 324.6 14.1 322.9 14.3 M 330.8 11.4 C 330.0 10.3 332.7 11.6 330.8 11.4 M 317.9 14.4 C 316.1 12.2 321.0 13.0 317.9 14.4 M 324.4 14.7 C 324.2 14.7 324.2 14.7 324.4 14.7 C 324.4 14.7 324.4 14.7 324.4 14.7 Z M 316.3 9.6 C 316.4 9.6 316.4 9.6 316.3 9.6 C 316.3 9.6 316.3 9.6 316.3 9.6 Z M 315.4 9.6 C 315.5 9.6 315.5 9.6 315.4 9.6 C 315.4 9.6 315.4 9.6 315.4 9.6 Z M 315.3 14.3 C 315.4 14.3 315.4 14.3 315.3 14.3 C 315.3 14.3 315.3 14.3 315.3 14.3 Z M 343.2 12.7 C 341.2 12.2 345.0 12.7 343.2 12.7 C 343.2 12.7 343.2 12.7 343.2 12.7 Z M 333.0 16.9 C 329.7 14.8 335.6 15.8 333.0 16.9 C 333.0 16.9 333.0 16.9 333.0 16.9 Z M 329.4 13.8 C 329.4 13.7 329.4 13.7 329.4 13.8 C 329.4 13.8 329.4 13.8 329.4 13.8 Z M 319.1 15.8 C 319.1 15.7 319.1 15.7 319.1 15.8 C 319.1 15.8 319.1 15.8 319.1 15.8 Z M 342.2 12.3 C 342.2 12.1 342.2 12.1 342.2 12.3 C 342.2 12.3 342.2 12.3 342.2 12.3 Z M 309.4 12.5 C 309.4 12.4 309.4 12.4 309.4 12.5 C 309.4 12.5 309.4 12.5 309.4 12.5 Z M 322.1 10.1 C 321.2 10.7 322.0 9.5 322.1 10.1 C 322.1 10.1 322.1 10.1 322.1 10.1 Z M 318.9 9.6 C 318.8 9.6 318.8 9.6 318.9 9.6 C 318.9 9.6 318.9 9.6 318.9 9.6 Z M 304.2 13.7 C 304.1 13.7 304.1 13.7 304.2 13.7 C 304.2 13.7 304.2 13.7 304.2 13.7 Z M 311.1 6.7 C 311.0 6.7 311.0 6.7 311.1 6.7 C 311.1 6.7 311.1 6.7 311.1 6.7 Z M 308.1 8.7 C 308.2 8.7 308.2 8.7 308.1 8.7 C 308.1 8.7 308.1 8.7 308.1 8.7 Z M 315.9 13.9 C 312.7 13.9 316.7 13.1 315.9 13.9 C 315.9 13.9 315.9 13.9 315.9 13.9 Z M 300.2 8.4 C 300.1 8.3 300.1 8.3 300.2 8.4 C 300.2 8.4 300.2 8.4 300.2 8.4 Z M 298.3 10.9 C 298.2 10.8 298.2 10.8 298.3 10.9 C 298.3 10.9 298.3 10.9 298.3 10.9 Z M 297.3 12.2 C 297.2 12.1 297.2 12.1 297.3 12.2 C 297.3 12.2 297.3 12.2 297.3 12.2 Z M 336.3 13.5 C 336.4 13.6 336.4 13.6 336.3 13.5 C 336.3 13.5 336.3 13.5 336.3 13.5 Z M 336.9 18.0 C 336.9 18.1 336.9 18.1 336.9 18.0 C 336.9 18.0 336.9 18.0 336.9 18.0 Z M 332.6 17.6 C 332.6 17.6 332.6 17.6 332.6 17.6 C 332.6 17.6 332.6 17.6 332.6 17.6 Z M 337.5 11.0 C 337.6 11.1 337.6 11.1 337.5 11.0 C 337.5 11.0 337.5 11.0 337.5 11.0 Z M 320.9 12.3 C 321.0 12.4 321.0 12.4 320.9 12.3 C 320.9 12.3 320.9 12.3 320.9 12.3 Z M 319.6 10.4 C 319.7 10.5 319.7 10.5 319.6 10.4 C 319.6 10.4 319.6 10.4 319.6 10.4 Z M 323.7 8.5 C 323.7 8.6 323.7 8.6 323.7 8.5 C 323.7 8.5 323.7 8.5 323.7 8.5 Z M 318.7 8.7 C 318.7 8.7 318.7 8.7 318.7 8.7 C 318.7 8.7 318.7 8.7 318.7 8.7 Z M 348.2 13.6 C 348.2 13.5 348.2 13.5 348.2 13.6 C 348.2 13.6 348.2 13.6 348.2 13.6 Z M 347.9 17.0 C 348.0 16.9 348.0 16.9 347.9 17.0 C 347.9 17.0 347.9 17.0 347.9 17.0 Z M 320.1 14.7 C 319.3 15.3 318.8 13.5 320.1 14.7 M 326.3 15.1 C 326.3 15.0 326.3 15.0 326.3 15.1 C 326.3 15.1 326.3 15.1 326.3 15.1 Z M 309.8 13.2 C 309.2 11.8 312.6 14.2 309.8 13.2 C 309.8 13.2 309.8 13.2 309.8 13.2 Z M 313.8 8.0 C 313.7 8.0 313.7 8.0 313.8 8.0 C 313.8 8.0 313.8 8.0 313.8 8.0 Z M 312.1 8.4 C 312.0 8.3 312.0 8.3 312.1 8.4 C 312.1 8.4 312.1 8.4 312.1 8.4 Z M 302.8 10.9 C 302.6 10.8 302.6 10.8 302.8 10.9 M 326.9 16.4 C 326.0 15.7 326.2 15.8 326.9 16.4 M 307.8 12.9 C 307.9 12.9 307.9 12.9 307.8 12.9 C 307.8 12.9 307.8 12.9 307.8 12.9 Z M 300.7 11.4 C 300.8 11.4 300.8 11.4 300.7 11.4 C 300.7 11.4 300.7 11.4 300.7 11.4 Z M 331.3 16.1 C 331.4 14.5 332.2 15.0 331.3 16.1 M 343.5 17.6 C 343.5 17.4 343.5 17.4 343.5 17.6 C 343.5 17.6 343.5 17.6 343.5 17.6 Z M 290.6 10.3 C 297.7 13.0 296.3 9.3 296.8 8.7 C 297.8 7.8 296.9 7.1 295.6 6.3 C 294.2 3.9 293.0 8.4 292.1 6.0 C 290.4 2.8 289.6 8.4 289.0 5.2 C 289.4 4.4 286.5 4.7 286.7 5.0 C 285.4 3.3 283.1 5.8 283.1 6.1 C 282.1 5.6 282.3 2.8 279.1 4.6 C 276.8 5.2 276.0 2.3 276.5 4.3 C 274.9 2.0 275.2 4.8 273.6 4.0 C 272.5 2.7 273.4 5.8 271.5 3.4 C 270.4 5.1 272.5 2.2 266.7 3.1 C 269.5 3.5 263.9 4.4 265.1 3.3 C 267.1 2.1 262.4 3.6 259.8 2.7 C 259.1 3.3 255.9 4.8 256.5 3.0 C 253.9 0.8 253.7 4.2 252.6 2.4 C 251.8 1.6 251.4 3.2 250.8 3.0 C 249.9 1.7 249.0 2.5 245.6 2.1 C 238.3 1.2 244.4 5.4 241.6 5.8 C 241.2 6.4 245.1 10.7 243.6 7.5 C 244.1 8.4 250.1 5.2 247.1 8.7 C 249.4 7.3 246.5 10.1 251.1 8.6 C 245.0 5.8 258.2 7.8 252.2 8.8 C 253.2 9.6 255.6 9.5 253.9 8.9 C 253.3 6.6 258.1 10.1 255.8 7.2 C 259.5 8.2 258.7 5.7 259.6 7.4 C 260.4 10.4 259.5 6.7 261.4 7.6 C 265.9 7.9 262.2 11.1 265.1 9.0 C 269.4 10.8 266.1 7.8 267.7 7.5 C 268.2 5.5 272.1 9.4 268.7 9.4 C 270.6 8.5 269.0 10.4 271.0 9.3 C 269.7 7.3 273.5 11.5 273.0 9.9 C 274.9 9.6 274.0 8.4 274.6 8.4 C 277.3 8.6 276.3 10.4 277.0 9.0 C 277.6 8.3 278.7 10.9 279.1 10.3 C 276.3 10.0 281.5 8.5 281.8 9.5 C 280.0 9.5 282.4 12.1 283.6 10.7 C 282.6 6.5 285.9 12.0 287.3 10.7 C 286.3 8.3 293.3 11.0 290.5 11.8 C 290.7 11.6 290.6 10.3 290.6 10.3 M 279.9 10.0 C 277.7 9.6 282.4 9.8 279.9 10.0 M 280.0 10.6 C 279.0 9.8 282.1 11.4 279.8 10.9 C 279.8 10.9 280.1 10.7 280.0 10.6 M 270.6 10.0 C 270.9 9.4 271.8 10.4 270.6 10.0 M 268.9 8.4 C 267.4 7.7 270.9 8.5 268.9 8.4 M 248.0 7.8 C 250.2 4.5 250.2 9.8 248.0 7.8 M 261.8 9.1 C 264.3 8.8 260.8 10.5 261.8 9.1 M 262.6 8.3 C 263.8 7.8 262.8 9.1 262.6 8.3 M 252.0 8.0 C 251.8 7.9 251.8 7.9 252.0 8.0 C 252.0 8.0 252.0 8.0 252.0 8.0 Z M 245.8 7.7 C 245.8 7.7 245.8 7.7 245.8 7.7 C 245.8 7.7 245.8 7.7 245.8 7.7 Z M 258.0 7.9 C 259.9 8.8 254.9 8.0 258.0 7.9 C 258.0 7.9 258.0 7.9 258.0 7.9 Z M 248.9 2.6 C 249.1 2.5 249.1 2.5 248.9 2.6 C 248.9 2.6 248.9 2.6 248.9 2.6 Z M 281.9 8.6 C 281.9 8.6 281.9 8.6 281.9 8.6 C 281.9 8.6 281.9 8.6 281.9 8.6 Z M 288.7 10.6 C 288.7 10.1 290.0 11.1 288.7 10.6 C 288.7 10.6 288.7 10.6 288.7 10.6 Z M 294.8 7.3 C 294.9 7.2 294.9 7.2 294.8 7.3 C 294.8 7.3 294.8 7.3 294.8 7.3 Z M 284.4 7.0 C 284.5 7.0 284.5 7.0 284.4 7.0 C 284.4 7.0 284.4 7.0 284.4 7.0 Z M 283.1 9.5 C 284.1 11.5 280.5 8.7 283.1 9.5 C 283.1 9.5 283.1 9.5 283.1 9.5 Z M 260.6 3.3 C 260.5 4.1 259.0 2.9 260.6 3.3 C 260.6 3.3 260.6 3.3 260.6 3.3 Z M 268.6 7.7 C 268.3 8.1 267.6 7.4 268.6 7.7 C 268.6 7.7 268.6 7.7 268.6 7.7 Z M 272.3 10.5 C 272.0 10.9 271.3 10.2 272.3 10.5 C 272.3 10.5 272.3 10.5 272.3 10.5 Z M 288.6 11.1 C 288.4 11.2 288.4 11.2 288.6 11.1 C 288.6 11.1 288.6 11.1 288.6 11.1 Z M 286.2 9.4 C 287.8 11.3 283.6 8.2 286.2 9.4 C 286.2 9.4 286.2 9.4 286.2 9.4 Z M 289.2 9.2 C 288.4 8.4 291.5 9.7 289.2 9.2 M 287.8 6.3 C 285.6 6.9 290.0 3.4 287.8 6.3 C 287.8 6.3 287.8 6.3 287.8 6.3 Z M 277.0 4.7 C 276.9 4.6 276.9 4.6 277.0 4.7 C 277.0 4.7 277.0 4.7 277.0 4.7 Z M 277.7 9.9 C 275.8 9.7 278.9 9.6 277.7 9.9 C 277.7 9.9 277.7 9.9 277.7 9.9 Z M 293.9 11.8 C 292.0 11.6 295.2 11.5 293.9 11.8 C 293.9 11.8 293.9 11.8 293.9 11.8 Z M 270.5 5.9 C 267.4 6.0 272.5 5.1 270.5 5.9 C 270.5 5.9 270.5 5.9 270.5 5.9 Z M 259.1 7.3 C 259.0 7.2 259.0 7.2 259.1 7.3 C 259.1 7.3 259.1 7.3 259.1 7.3 Z M 257.0 7.9 C 256.9 7.8 256.9 7.8 257.0 7.9 C 257.0 7.9 257.0 7.9 257.0 7.9 Z M 248.3 5.7 C 248.1 5.6 248.1 5.6 248.3 5.7 C 248.3 5.7 248.3 5.7 248.3 5.7 Z M 255.0 8.6 C 255.0 8.6 255.0 8.6 255.0 8.6 C 255.0 8.6 255.0 8.6 255.0 8.6 Z M 249.0 7.9 C 248.9 7.9 248.9 7.9 249.0 7.9 C 249.0 7.9 249.0 7.9 249.0 7.9 Z M 249.8 9.5 C 249.7 9.4 249.7 9.4 249.8 9.5 C 249.8 9.5 249.8 9.5 249.8 9.5 Z M 263.7 2.4 C 263.5 2.4 263.5 2.4 263.7 2.4 C 263.7 2.4 263.7 2.4 263.7 2.4 Z M 285.2 11.3 C 285.1 11.2 285.1 11.2 285.2 11.3 C 285.2 11.3 285.2 11.3 285.2 11.3 Z M 249.5 7.3 C 249.4 7.2 249.4 7.2 249.5 7.3 C 249.5 7.3 249.5 7.3 249.5 7.3 Z M 264.4 6.6 C 264.4 5.1 265.5 8.6 264.0 6.6 C 264.1 6.6 264.5 6.8 264.4 6.6 M 262.5 4.0 C 262.6 3.9 262.6 3.9 262.5 4.0 C 262.5 4.0 262.5 4.0 262.5 4.0 Z M 269.3 3.5 C 269.4 3.4 269.4 3.4 269.3 3.5 C 269.3 3.5 269.3 3.5 269.3 3.5 Z M 256.1 9.0 C 256.3 9.8 254.4 8.3 256.3 8.9 M 248.3 3.1 C 248.5 3.9 246.6 2.4 248.6 3.0 M 296.1 11.5 C 296.4 10.9 297.3 12.0 296.1 11.5 M 270.9 2.8 C 271.2 2.1 272.1 3.2 270.9 2.8 M 267.6 4.5 C 267.8 5.3 266.0 3.7 267.9 4.5 M 252.9 3.3 C 252.8 3.3 252.8 3.3 252.9 3.3 C 252.9 3.3 252.9 3.3 252.9 3.3 Z M 274.9 9.5 C 274.8 9.5 274.8 9.5 274.9 9.5 C 274.9 9.5 274.9 9.5 274.9 9.5 Z M 266.8 7.1 C 267.8 8.4 265.4 6.3 266.8 7.1 M 277.4 7.7 C 278.9 9.3 274.9 7.0 277.4 7.7 M 244.8 2.6 C 246.6 4.4 243.5 1.7 244.8 2.6 M 253.7 7.2 C 255.4 9.1 252.4 6.3 253.7 7.2 M 273.3 8.6 C 273.3 9.6 271.5 8.0 273.3 8.6 M 291.8 11.2 C 293.5 11.5 289.5 11.7 291.8 11.2 M 257.4 3.4 C 257.3 3.4 257.3 3.4 257.4 3.4 C 257.4 3.4 257.4 3.4 257.4 3.4 Z M 286.8 4.1 C 286.8 4.0 286.8 4.0 286.8 4.1 C 286.8 4.1 286.8 4.1 286.8 4.1 Z M 242.3 8.2 C 242.2 8.2 242.2 8.2 242.3 8.2 C 242.3 8.2 242.3 8.2 242.3 8.2 Z M 254.8 6.5 C 254.8 6.4 254.8 6.4 254.8 6.5 C 254.8 6.5 254.8 6.5 254.8 6.5 Z M 245.8 8.6 C 245.7 8.4 245.7 8.4 245.8 8.6 C 245.8 8.6 245.8 8.6 245.8 8.6 Z M 260.6 5.4 C 260.5 5.4 260.5 5.4 260.6 5.4 C 260.6 5.4 260.6 5.4 260.6 5.4 Z M 261.5 9.9 C 261.4 9.9 261.4 9.9 261.5 9.9 C 261.5 9.9 261.5 9.9 261.5 9.9 Z M 267.8 8.4 C 267.7 8.4 267.7 8.4 267.8 8.4 C 267.8 8.4 267.8 8.4 267.8 8.4 Z M 258.7 9.4 C 255.0 9.5 260.6 8.0 258.7 9.4 C 258.7 9.4 258.7 9.4 258.7 9.4 Z M 265.3 5.4 C 265.3 5.3 265.3 5.3 265.3 5.4 C 265.3 5.4 265.3 5.4 265.3 5.4 Z M 265.7 8.5 C 263.3 9.6 264.6 6.3 265.7 8.5 M 275.9 10.3 C 275.1 10.9 275.6 9.2 275.9 10.3 M 280.5 4.9 C 280.5 4.8 280.5 4.8 280.5 4.9 C 280.5 4.9 280.5 4.9 280.5 4.9 Z M 279.3 5.2 C 279.2 5.2 279.2 5.2 279.3 5.2 C 279.3 5.2 279.3 5.2 279.3 5.2 Z M 278.4 10.8 C 278.3 10.7 278.3 10.7 278.4 10.8 C 278.4 10.8 278.4 10.8 278.4 10.8 Z M 279.3 3.6 C 279.2 3.5 279.2 3.5 279.3 3.6 C 279.3 3.6 279.3 3.6 279.3 3.6 Z M 262.9 9.9 C 262.8 9.8 262.8 9.8 262.9 9.9 C 262.9 9.9 262.9 9.9 262.9 9.9 Z M 244.0 9.1 C 243.9 9.1 243.9 9.1 244.0 9.1 C 244.0 9.1 244.0 9.1 244.0 9.1 Z M 291.8 6.5 C 291.7 6.5 291.7 6.5 291.8 6.5 C 291.8 6.5 291.8 6.5 291.8 6.5 Z M 261.0 8.0 C 261.0 7.9 261.0 7.9 261.0 8.0 C 261.0 8.0 261.0 8.0 261.0 8.0 Z M 283.2 5.4 C 283.1 5.3 283.1 5.3 283.2 5.4 C 283.2 5.4 283.2 5.4 283.2 5.4 Z M 262.2 8.4 C 262.2 8.4 262.2 8.4 262.2 8.4 C 262.2 8.4 262.2 8.4 262.2 8.4 Z M 258.0 3.1 C 258.0 3.1 258.0 3.1 258.0 3.1 C 258.0 3.1 258.0 3.1 258.0 3.1 Z M 254.0 1.9 C 253.9 1.9 253.9 1.9 254.0 1.9 C 254.0 1.9 254.0 1.9 254.0 1.9 Z M 258.2 6.2 C 258.1 6.1 258.1 6.1 258.2 6.2 C 258.2 6.2 258.2 6.2 258.2 6.2 Z M 284.3 7.4 C 291.7 9.6 278.3 7.5 284.3 7.4 M 256.9 5.8 C 262.1 6.4 252.6 7.3 256.9 5.8 C 256.3 6.2 256.8 5.8 256.9 5.8 M 236.8 8.4 C 240.1 10.2 240.1 7.7 240.1 7.6 C 239.7 11.0 243.1 6.3 242.5 5.6 C 242.6 5.2 240.1 -0.8 237.7 2.8 C 237.0 3.2 236.7 2.2 236.2 2.1 C 232.1 2.2 239.0 3.9 234.0 3.9 C 233.1 3.4 234.2 0.6 231.2 2.6 C 231.1 2.3 227.7 1.3 229.0 2.5 C 227.4 1.2 226.3 2.8 224.9 3.2 C 223.5 2.4 225.9 1.1 221.1 2.8 C 219.0 0.5 218.4 4.6 216.4 2.1 C 215.2 2.0 213.5 6.3 216.2 3.8 C 215.8 4.1 217.7 6.0 213.9 5.5 C 214.4 4.9 216.3 0.5 210.4 2.8 C 209.4 2.8 207.1 4.0 206.6 3.6 C 209.6 2.9 202.2 2.0 203.1 3.2 C 198.2 2.7 201.1 4.4 197.5 3.3 C 194.7 3.5 198.6 5.1 195.0 4.3 C 192.4 4.7 194.1 3.5 194.4 3.6 C 192.0 3.5 191.3 4.4 190.5 4.4 C 189.9 4.3 188.8 3.5 188.3 4.6 C 186.1 6.8 188.6 8.5 187.7 10.6 C 189.5 11.3 188.3 9.0 189.6 10.3 C 190.4 9.0 189.8 10.4 194.6 9.7 C 194.4 9.4 193.2 8.7 194.3 8.5 C 196.2 8.4 195.2 11.9 198.1 9.3 C 194.4 8.9 203.1 7.8 199.6 7.4 C 203.8 6.7 200.9 7.5 204.0 8.1 C 203.7 5.9 204.4 10.5 205.4 8.6 C 205.8 9.5 210.5 8.8 207.0 7.7 C 212.0 6.8 208.9 8.3 210.7 9.3 C 213.0 9.4 210.7 5.7 212.3 8.4 C 215.3 9.5 212.4 7.0 214.6 9.1 C 213.6 7.2 216.8 9.0 215.9 7.0 C 221.1 6.6 215.4 9.2 218.9 7.6 C 217.8 7.6 218.3 10.3 220.5 8.5 C 219.4 5.2 223.4 11.3 221.7 7.0 C 228.9 5.6 223.0 8.8 226.9 8.7 C 227.9 8.7 225.8 7.3 226.7 7.3 C 231.8 7.8 227.6 9.0 230.2 6.9 C 235.2 6.3 231.7 8.7 234.1 8.8 C 234.3 7.8 236.3 6.1 236.8 8.4 M 232.3 7.3 C 231.3 8.0 231.7 6.6 232.3 7.3 M 242.4 8.4 C 241.3 9.1 241.8 7.7 242.4 8.4 M 228.2 8.0 C 226.8 8.7 227.7 6.8 228.2 8.0 M 201.2 8.0 C 203.0 7.9 200.3 8.6 201.2 8.0 M 238.4 8.5 C 236.9 9.3 238.0 7.3 238.4 8.5 M 240.2 6.8 C 240.1 6.8 240.1 6.8 240.2 6.8 M 198.6 10.0 C 198.5 10.0 198.5 10.0 198.6 10.0 M 205.8 9.5 C 204.3 9.5 206.7 9.0 205.8 9.5 M 205.7 2.3 C 204.1 2.4 206.5 1.8 205.7 2.3 M 194.7 10.4 C 193.2 11.1 194.2 9.6 194.7 10.4 M 190.6 9.2 C 189.3 10.0 189.6 8.6 190.6 9.2 M 233.2 4.8 C 233.3 4.7 233.3 4.7 233.2 4.8 C 233.2 4.8 233.2 4.8 233.2 4.8 Z M 219.8 3.2 C 221.5 3.9 217.9 2.4 219.8 3.2 M 222.4 7.8 C 221.3 6.4 224.5 7.9 222.4 7.8 C 222.4 7.8 222.4 7.8 222.4 7.8 Z M 224.7 7.1 C 224.8 7.1 224.8 7.1 224.7 7.1 C 224.7 7.1 224.7 7.1 224.7 7.1 Z M 217.2 7.2 C 217.3 7.2 217.3 7.2 217.2 7.2 C 217.2 7.2 217.2 7.2 217.2 7.2 Z M 218.8 7.1 C 219.4 6.7 219.6 7.3 218.8 7.1 C 218.8 7.1 218.8 7.1 218.8 7.1 Z M 207.6 2.9 C 208.2 2.6 208.5 3.2 207.6 2.9 C 207.6 2.9 207.6 2.9 207.6 2.9 Z M 221.1 6.5 C 221.3 5.0 222.2 7.4 221.1 6.5 C 221.1 6.5 221.1 6.5 221.1 6.5 Z M 212.9 3.3 C 212.2 3.7 211.4 2.0 212.9 3.3 M 197.1 9.8 C 196.5 10.3 195.6 8.6 197.1 9.8 M 212.9 9.2 C 212.3 9.7 211.4 7.9 212.9 9.2 M 231.5 7.9 C 231.3 7.8 231.3 7.8 231.5 7.9 M 222.5 1.7 C 221.5 2.3 222.0 1.1 222.5 1.7 M 237.6 2.1 C 236.6 2.7 237.1 1.5 237.6 2.1 M 198.8 3.0 C 198.9 3.3 197.2 2.9 198.8 3.0 M 210.9 7.0 C 209.5 6.9 208.1 6.2 211.0 6.1 C 211.2 6.4 210.3 6.7 210.9 7.0 C 210.9 7.0 210.9 7.0 210.9 7.0 Z M 205.7 4.0 C 205.5 3.8 205.5 3.8 205.7 4.0 M 208.5 8.5 C 208.3 8.3 208.3 8.3 208.5 8.5 M 200.4 8.9 C 200.2 8.7 200.2 8.7 200.4 8.9 M 199.5 9.4 C 199.5 9.3 199.5 9.3 199.5 9.4 C 199.5 9.4 199.5 9.4 199.5 9.4 Z M 190.7 10.7 C 190.7 10.7 190.7 10.7 190.7 10.7 C 190.7 10.7 190.7 10.7 190.7 10.7 Z M 203.0 8.5 C 203.0 8.4 203.0 8.4 203.0 8.5 C 203.0 8.5 203.0 8.5 203.0 8.5 Z M 195.2 3.5 C 195.2 3.5 195.2 3.5 195.2 3.5 C 195.2 3.5 195.2 3.5 195.2 3.5 Z M 196.2 4.3 C 196.2 4.3 196.2 4.3 196.2 4.3 C 196.2 4.3 196.2 4.3 196.2 4.3 Z M 236.1 8.4 C 234.8 9.4 235.4 5.8 236.1 8.4 M 192.2 4.7 C 191.0 3.8 194.3 4.3 192.2 4.7 C 192.2 4.7 192.2 4.7 192.2 4.7 Z M 203.9 7.2 C 203.8 7.0 203.8 7.0 203.9 7.2 M 198.9 9.3 C 198.8 9.1 198.8 9.1 198.9 9.3 M 222.5 9.2 C 222.4 9.0 222.4 9.0 222.5 9.2 M 192.7 9.5 C 188.9 9.5 194.2 7.3 192.7 9.5 M 224.2 7.7 C 224.3 7.9 224.3 7.9 224.2 7.7 M 215.6 5.3 C 213.1 5.5 216.5 4.4 215.6 5.3 M 209.2 7.4 C 209.3 7.3 209.3 7.3 209.2 7.4 C 209.2 7.4 209.2 7.4 209.2 7.4 Z M 213.0 7.2 C 214.8 6.9 213.5 7.6 213.0 7.2 C 213.0 7.2 213.0 7.2 213.0 7.2 Z M 234.3 7.0 C 231.9 6.8 236.7 6.5 234.3 7.0 C 234.3 7.0 234.3 7.0 234.3 7.0 Z M 194.1 6.0 C 194.2 5.9 194.2 5.9 194.1 6.0 C 194.1 6.0 194.1 6.0 194.1 6.0 Z M 203.5 9.5 C 204.6 9.0 204.1 9.9 203.5 9.5 C 203.5 9.5 203.5 9.5 203.5 9.5 Z M 189.4 10.9 C 190.4 10.4 189.9 11.2 189.4 10.9 C 189.4 10.9 189.4 10.9 189.4 10.9 Z M 237.2 7.3 C 228.4 4.8 248.9 8.0 237.2 7.3 C 237.2 7.3 237.2 7.3 237.2 7.3 Z M 211.5 8.3 C 211.6 8.2 211.6 8.2 211.5 8.3 C 211.5 8.3 211.5 8.3 211.5 8.3 Z M 227.7 8.8 C 227.7 8.7 227.7 8.7 227.7 8.8 C 227.7 8.8 227.7 8.8 227.7 8.8 Z M 230.4 7.4 C 230.5 7.4 230.5 7.4 230.4 7.4 C 230.4 7.4 230.4 7.4 230.4 7.4 Z M 229.6 1.8 C 229.7 1.7 229.7 1.7 229.6 1.8 C 229.6 1.8 229.6 1.8 229.6 1.8 Z M 228.7 4.4 C 228.8 4.2 228.8 4.2 228.7 4.4 C 228.7 4.4 228.7 4.4 228.7 4.4 Z M 234.4 3.4 C 234.5 3.3 234.5 3.3 234.4 3.4 C 234.4 3.4 234.4 3.4 234.4 3.4 Z M 234.3 2.6 C 234.3 2.6 234.3 2.6 234.3 2.6 C 234.3 2.6 234.3 2.6 234.3 2.6 Z M 198.8 7.7 C 198.9 7.5 198.9 7.5 198.8 7.7 C 198.8 7.7 198.8 7.7 198.8 7.7 Z M 201.7 5.1 C 199.7 6.1 202.2 3.8 201.7 5.1 C 201.7 5.1 201.7 5.1 201.7 5.1 Z M 219.9 5.3 C 218.1 5.7 221.1 4.5 219.9 5.3 C 219.9 5.3 219.9 5.3 219.9 5.3 Z M 217.8 2.3 C 217.8 2.3 217.8 2.3 217.8 2.3 C 217.8 2.3 217.8 2.3 217.8 2.3 Z M 230.4 8.8 C 230.5 8.7 230.5 8.7 230.4 8.8 C 230.4 8.8 230.4 8.8 230.4 8.8 Z M 233.9 7.8 C 234.0 6.6 234.9 8.4 233.9 7.8 M 216.6 8.8 C 216.5 8.7 216.5 8.7 216.6 8.8 C 216.6 8.8 216.6 8.8 216.6 8.8 Z M 205.5 7.5 C 205.5 7.4 205.5 7.4 205.5 7.5 C 205.5 7.5 205.5 7.5 205.5 7.5 Z M 194.7 9.1 C 194.7 8.9 194.7 8.9 194.7 9.1 C 194.7 9.1 194.7 9.1 194.7 9.1 Z M 209.7 9.0 C 209.8 8.8 209.8 8.8 209.7 9.0 C 209.7 9.0 209.7 9.0 209.7 9.0 Z M 214.9 7.6 C 214.9 7.5 214.9 7.5 214.9 7.6 C 214.9 7.6 214.9 7.6 214.9 7.6 Z M 192.1 7.6 C 192.2 7.6 192.2 7.6 192.1 7.6 C 192.1 7.6 192.1 7.6 192.1 7.6 Z M 208.5 9.2 C 208.6 9.2 208.6 9.2 208.5 9.2 C 208.5 9.2 208.5 9.2 208.5 9.2 Z M 205.1 5.6 C 205.2 5.5 205.2 5.5 205.1 5.6 C 205.1 5.6 205.1 5.6 205.1 5.6 Z M 233.4 9.6 C 233.4 9.5 233.4 9.5 233.4 9.6 C 233.4 9.6 233.4 9.6 233.4 9.6 Z M 192.2 9.2 C 192.2 9.2 192.2 9.2 192.2 9.2 C 192.2 9.2 192.2 9.2 192.2 9.2 Z M 191.6 10.4 C 191.6 10.3 191.6 10.3 191.6 10.4 C 191.6 10.4 191.6 10.4 191.6 10.4 Z M 198.8 4.0 C 202.7 4.4 195.4 4.6 198.3 5.6 C 192.8 6.4 198.0 4.0 198.8 4.0 C 198.8 4.0 198.8 4.0 198.8 4.0 Z M 186.5 11.3 C 188.5 9.5 188.3 7.9 187.2 6.4 C 186.1 5.7 186.4 8.9 186.1 6.2 C 188.5 5.4 184.6 2.2 185.0 5.7 C 181.8 6.5 184.2 3.5 182.5 5.1 C 179.1 5.9 180.7 4.6 178.1 5.2 C 176.8 7.3 176.4 4.4 176.0 6.3 C 177.0 4.2 173.2 7.2 173.0 6.3 C 175.3 4.8 163.8 7.5 170.2 7.3 C 167.8 8.5 168.0 6.8 167.1 6.7 C 166.2 8.0 162.8 6.4 161.3 7.7 C 161.7 8.0 162.5 7.9 162.8 8.3 C 163.3 9.0 161.0 8.4 161.2 8.4 C 160.2 9.0 156.3 10.8 160.4 8.0 C 160.5 7.1 156.9 9.0 156.9 8.1 C 153.0 8.7 156.2 10.2 154.3 9.0 C 151.5 9.4 149.6 9.7 149.6 9.9 C 147.9 9.9 147.4 8.9 146.1 10.2 C 142.4 8.6 144.3 14.5 142.4 10.7 C 141.6 11.8 140.3 9.3 140.8 11.8 C 141.8 10.4 134.8 10.7 138.1 12.1 C 137.4 12.8 132.6 10.3 133.6 12.8 C 132.3 14.9 132.9 16.7 136.5 17.9 C 135.9 16.5 140.3 18.9 137.4 16.8 C 134.4 16.4 142.6 15.1 141.0 16.2 C 141.0 19.3 144.6 13.7 146.7 15.6 C 145.1 14.7 151.6 13.0 150.1 15.6 C 151.3 15.6 151.4 14.4 153.0 15.5 C 149.0 15.9 154.2 13.0 154.1 14.4 C 153.6 15.3 159.6 15.1 158.8 13.9 C 156.3 11.2 160.4 14.4 161.3 13.0 C 164.4 11.9 161.1 15.7 163.3 13.1 C 164.0 13.4 168.3 12.8 165.6 13.8 C 164.6 13.6 167.8 10.1 168.6 12.6 C 164.1 14.7 174.0 12.7 172.4 12.1 C 165.0 11.6 179.7 9.5 174.3 11.7 C 177.7 12.7 173.4 12.4 177.3 11.2 C 176.7 10.5 179.7 9.3 179.1 11.1 C 180.1 13.5 179.8 7.6 182.7 10.7 C 183.2 12.2 187.3 9.1 185.8 10.9 C 185.7 11.1 186.4 11.4 186.5 11.3 M 185.1 11.2 C 185.5 10.6 186.0 11.8 185.1 11.2 M 185.6 10.6 C 185.6 10.6 185.6 10.6 185.6 10.6 C 185.6 10.6 185.6 10.6 185.6 10.6 Z M 177.9 11.1 C 177.9 11.2 177.9 11.2 177.9 11.1 C 177.9 11.1 177.9 11.1 177.9 11.1 Z M 171.0 5.6 C 171.1 5.6 171.1 5.6 171.0 5.6 C 171.0 5.6 171.0 5.6 171.0 5.6 Z M 172.8 11.6 C 172.8 11.6 172.8 11.6 172.8 11.6 C 172.8 11.6 172.8 11.6 172.8 11.6 Z M 180.6 10.4 C 180.6 10.4 180.6 10.4 180.6 10.4 C 180.6 10.4 180.6 10.4 180.6 10.4 Z M 173.4 12.4 C 172.8 11.5 175.2 12.9 173.3 12.6 C 173.2 12.5 173.6 12.5 173.4 12.4 M 166.8 13.7 C 166.7 13.6 166.7 13.6 166.8 13.7 M 151.0 8.5 C 151.0 8.4 151.0 8.4 151.0 8.5 M 151.0 16.1 C 150.8 16.0 150.8 16.0 151.0 16.1 M 160.0 13.7 C 158.0 14.1 159.5 13.3 160.0 13.7 M 145.5 16.4 C 148.2 16.6 142.9 17.3 145.5 16.4 M 143.1 17.3 C 142.9 17.3 142.9 17.3 143.1 17.3 M 154.6 15.2 C 154.6 15.1 154.6 15.1 154.6 15.2 C 154.6 15.2 154.6 15.2 154.6 15.2 Z M 160.9 13.9 C 163.7 14.1 158.4 15.2 160.9 13.9 M 177.1 12.1 C 175.7 12.7 177.0 10.9 177.1 12.1 M 180.0 11.2 C 180.1 11.1 180.1 11.1 180.0 11.2 C 180.0 11.2 180.0 11.2 180.0 11.2 Z M 149.6 15.8 C 149.7 15.8 149.7 15.8 149.6 15.8 C 149.6 15.8 149.6 15.8 149.6 15.8 Z M 146.7 16.4 C 146.8 16.4 146.8 16.4 146.7 16.4 C 146.7 16.4 146.7 16.4 146.7 16.4 Z M 140.7 10.3 C 140.8 10.3 140.8 10.3 140.7 10.3 C 140.7 10.3 140.7 10.3 140.7 10.3 Z M 177.5 8.6 C 179.5 8.8 175.7 11.1 175.9 9.4 C 175.6 8.7 177.2 8.8 177.5 8.6 M 162.6 11.6 C 161.7 9.3 165.0 14.5 162.6 11.6 M 142.5 15.8 C 140.1 13.4 145.3 17.4 142.5 15.8 M 138.6 16.9 C 137.3 16.6 146.0 15.5 140.1 17.1 C 139.6 17.7 139.0 17.2 138.6 16.9 M 166.5 12.6 C 165.8 11.4 169.8 12.7 166.5 12.6 M 153.7 10.5 C 152.9 11.4 150.5 12.6 151.4 11.0 C 151.1 9.1 154.8 9.6 153.7 10.5 M 184.3 9.9 C 182.9 12.2 184.2 8.2 184.3 9.9 M 176.5 10.7 C 176.5 10.8 176.5 10.8 176.5 10.7 C 176.5 10.7 176.5 10.7 176.5 10.7 Z M 173.5 11.4 C 173.4 11.2 173.4 11.2 173.5 11.4 M 183.3 11.9 C 183.1 11.8 183.1 11.8 183.3 11.9 M 154.1 12.6 C 153.9 12.5 153.9 12.5 154.1 12.6 M 160.5 13.1 C 157.3 11.4 162.1 12.4 160.5 13.1 M 167.3 8.1 C 166.2 7.2 169.2 7.7 167.3 8.1 M 155.8 14.5 C 153.4 12.9 158.4 12.3 155.8 14.5 M 162.1 13.1 C 161.9 13.1 161.9 13.1 162.1 13.1 C 162.1 13.1 162.1 13.1 162.1 13.1 Z M 152.9 10.4 C 153.0 10.3 153.0 10.3 152.9 10.4 C 152.9 10.4 152.9 10.4 152.9 10.4 Z M 152.0 10.6 C 152.1 10.5 152.1 10.5 152.0 10.6 C 152.0 10.6 152.0 10.6 152.0 10.6 Z M 153.2 15.2 C 153.3 15.1 153.3 15.1 153.2 15.2 C 153.2 15.2 153.2 15.2 153.2 15.2 Z M 179.6 5.8 C 177.5 5.9 181.2 5.3 179.6 5.8 C 179.6 5.8 179.6 5.8 179.6 5.8 Z M 170.9 12.7 C 167.2 11.6 173.2 10.9 170.9 12.7 C 170.9 12.7 170.9 12.7 170.9 12.7 Z M 166.6 10.7 C 166.6 10.6 166.6 10.6 166.6 10.7 C 166.6 10.7 166.6 10.7 166.6 10.7 Z M 157.3 15.6 C 157.3 15.4 157.3 15.4 157.3 15.6 C 157.3 15.6 157.3 15.6 157.3 15.6 Z M 178.5 5.7 C 178.5 5.6 178.5 5.6 178.5 5.7 C 178.5 5.7 178.5 5.7 178.5 5.7 Z M 147.1 15.0 C 147.0 14.9 147.0 14.9 147.1 15.0 C 147.1 15.0 147.1 15.0 147.1 15.0 Z M 158.6 9.2 C 157.9 10.1 158.3 8.6 158.6 9.2 C 158.6 9.2 158.6 9.2 158.6 9.2 Z M 155.4 9.7 C 155.3 9.7 155.3 9.7 155.4 9.7 C 155.4 9.7 155.4 9.7 155.4 9.7 Z M 142.4 17.6 C 142.3 17.6 142.3 17.6 142.4 17.6 C 142.4 17.6 142.4 17.6 142.4 17.6 Z M 147.1 9.0 C 147.0 9.1 147.0 9.1 147.1 9.0 C 147.1 9.0 147.1 9.0 147.1 9.0 Z M 144.8 11.7 C 144.8 11.7 144.8 11.7 144.8 11.7 C 144.8 11.7 144.8 11.7 144.8 11.7 Z M 153.7 14.6 C 150.6 15.5 154.3 13.6 153.7 14.6 C 153.7 14.6 153.7 14.6 153.7 14.6 Z M 137.1 13.6 C 137.0 13.5 137.0 13.5 137.1 13.6 C 137.1 13.6 137.1 13.6 137.1 13.6 Z M 135.9 16.5 C 135.8 16.4 135.8 16.4 135.9 16.5 C 135.9 16.5 135.9 16.5 135.9 16.5 Z M 135.3 18.0 C 135.2 17.9 135.2 17.9 135.3 18.0 C 135.3 18.0 135.3 18.0 135.3 18.0 Z M 173.2 8.5 C 173.3 8.6 173.3 8.6 173.2 8.5 C 173.2 8.5 173.2 8.5 173.2 8.5 Z M 175.0 12.7 C 175.1 12.7 175.1 12.7 175.0 12.7 C 175.0 12.7 175.0 12.7 175.0 12.7 Z M 170.8 13.4 C 170.8 13.5 170.8 13.5 170.8 13.4 C 170.8 13.4 170.8 13.4 170.8 13.4 Z M 173.7 5.8 C 173.7 5.8 173.7 5.8 173.7 5.8 C 173.7 5.8 173.7 5.8 173.7 5.8 Z M 158.1 11.7 C 158.2 11.7 158.2 11.7 158.1 11.7 C 158.1 11.7 158.1 11.7 158.1 11.7 Z M 156.3 10.2 C 156.4 10.2 156.4 10.2 156.3 10.2 C 156.3 10.2 156.3 10.2 156.3 10.2 Z M 159.7 7.3 C 159.7 7.3 159.7 7.3 159.7 7.3 C 159.7 7.3 159.7 7.3 159.7 7.3 Z M 154.9 8.8 C 155.0 8.8 155.0 8.8 154.9 8.8 C 154.9 8.8 154.9 8.8 154.9 8.8 Z M 184.6 5.3 C 184.6 5.2 184.6 5.2 184.6 5.3 C 184.6 5.3 184.6 5.3 184.6 5.3 Z M 185.3 8.6 C 185.3 8.5 185.3 8.5 185.3 8.6 C 185.3 8.6 185.3 8.6 185.3 8.6 Z M 157.9 14.2 C 157.3 15.0 156.3 13.4 157.9 14.2 M 164.0 12.9 C 164.0 12.8 164.0 12.8 164.0 12.9 C 164.0 12.9 164.0 12.9 164.0 12.9 Z M 147.7 15.6 C 146.7 14.4 150.6 15.8 147.7 15.6 C 147.7 15.6 147.7 15.6 147.7 15.6 Z M 150.1 9.6 C 150.0 9.5 150.0 9.5 150.1 9.6 C 150.1 9.6 150.1 9.6 150.1 9.6 Z M 148.5 10.4 C 148.4 10.2 148.4 10.2 148.5 10.4 C 148.5 10.4 148.5 10.4 148.5 10.4 Z M 140.3 15.3 C 140.1 15.2 140.1 15.2 140.3 15.3 M 164.9 13.9 C 163.9 13.5 164.1 13.6 164.9 13.9 M 145.6 15.9 C 145.7 15.8 145.7 15.8 145.6 15.9 C 145.6 15.9 145.6 15.9 145.6 15.9 Z M 138.4 16.3 C 138.5 16.3 138.5 16.3 138.4 16.3 C 138.4 16.3 138.4 16.3 138.4 16.3 Z M 169.1 12.4 C 168.7 10.9 169.6 11.1 169.1 12.4 M 181.2 10.4 C 181.2 10.3 181.2 10.3 181.2 10.4 C 181.2 10.4 181.2 10.4 181.2 10.4 Z M 128.9 19.0 C 132.5 20.3 132.1 17.8 132.1 17.7 C 132.3 21.1 134.9 15.9 134.1 15.4 C 134.2 14.9 130.7 9.4 128.9 13.3 C 128.4 13.9 127.8 12.9 127.3 12.9 C 123.3 13.7 130.4 14.3 125.5 15.1 C 124.5 14.7 125.1 11.8 122.5 14.2 C 122.3 13.9 118.9 13.4 120.3 14.5 C 118.6 13.4 117.8 15.1 116.4 15.7 C 114.9 15.1 117.2 13.5 112.6 15.7 C 110.2 13.7 110.1 17.9 107.8 15.6 C 106.6 15.7 105.4 20.2 107.9 17.4 C 107.5 17.7 109.5 19.4 105.7 19.3 C 106.1 18.7 107.5 14.1 101.9 17.1 C 100.9 17.2 98.8 18.6 98.2 18.3 C 101.2 17.3 93.7 17.1 94.6 18.3 C 89.7 18.2 92.8 19.6 89.1 18.9 C 86.3 19.4 90.4 20.6 86.7 20.2 C 84.1 20.9 85.7 19.5 86.0 19.6 C 83.6 19.8 83.0 20.8 82.2 20.9 C 81.6 20.8 80.4 20.1 80.1 21.3 C 78.1 23.8 80.7 25.2 80.1 27.3 C 82.1 27.8 80.6 25.7 82.1 26.8 C 82.6 25.4 82.2 26.9 86.9 25.6 C 86.7 25.4 85.4 24.8 86.5 24.4 C 88.3 24.2 87.7 27.7 90.3 24.8 C 86.6 24.8 95.2 22.8 91.7 22.8 C 95.8 21.6 92.9 22.8 96.1 23.0 C 95.5 20.9 96.7 25.3 97.6 23.4 C 98.0 24.2 102.7 23.0 99.1 22.3 C 103.9 20.9 101.0 22.6 103.0 23.5 C 105.3 23.3 102.6 19.9 104.4 22.4 C 107.6 23.1 104.3 21.0 106.9 22.8 C 105.6 21.1 109.1 22.5 107.9 20.5 C 113.0 19.6 107.6 22.8 111.0 20.8 C 109.9 20.9 110.7 23.6 112.7 21.5 C 111.2 18.4 116.0 23.9 113.7 19.9 C 120.7 17.6 115.2 21.5 119.1 20.9 C 120.1 20.7 117.8 19.6 118.7 19.5 C 123.9 19.3 119.9 21.1 122.2 18.6 C 127.1 17.2 123.9 20.1 126.4 19.9 C 126.4 18.9 128.1 16.8 128.9 19.0 M 124.3 18.7 C 123.4 19.5 123.6 18.1 124.3 18.7 M 134.5 18.1 C 133.6 18.9 133.8 17.5 134.5 18.1 M 120.3 19.9 C 119.0 20.9 119.7 18.9 120.3 19.9 M 93.2 23.2 C 95.1 22.9 92.5 23.9 93.2 23.2 M 130.5 18.9 C 129.2 19.9 130.0 17.8 130.5 18.9 M 132.1 16.9 C 132.0 16.9 132.0 16.9 132.1 16.9 M 90.9 25.5 C 90.8 25.4 90.8 25.4 90.9 25.5 M 98.1 24.2 C 96.6 24.4 98.9 23.6 98.1 24.2 M 97.1 17.1 C 95.6 17.3 97.9 16.5 97.1 17.1 M 87.1 26.3 C 85.7 27.2 86.5 25.6 87.1 26.3 M 82.8 25.6 C 81.6 26.5 81.8 25.1 82.8 25.6 M 124.9 16.1 C 124.9 16.0 124.9 16.0 124.9 16.1 C 124.9 16.1 124.9 16.1 124.9 16.1 Z M 111.4 16.3 C 113.1 16.8 109.3 15.8 111.4 16.3 M 114.5 20.6 C 113.2 19.3 116.6 20.4 114.5 20.6 C 114.5 20.6 114.5 20.6 114.5 20.6 Z M 116.7 19.6 C 116.8 19.5 116.8 19.5 116.7 19.6 C 116.7 19.6 116.7 19.6 116.7 19.6 Z M 109.2 20.7 C 109.3 20.6 109.3 20.6 109.2 20.7 C 109.2 20.7 109.2 20.7 109.2 20.7 Z M 110.8 20.3 C 111.3 19.9 111.7 20.5 110.8 20.3 C 110.8 20.3 110.8 20.3 110.8 20.3 Z M 99.1 17.5 C 99.7 17.1 100.0 17.6 99.1 17.5 C 99.1 17.5 99.1 17.5 99.1 17.5 Z M 113.0 19.5 C 113.0 18.0 114.3 20.2 113.0 19.5 C 113.0 19.5 113.0 19.5 113.0 19.5 Z M 104.5 17.3 C 103.9 17.8 102.9 16.1 104.5 17.3 M 89.4 25.5 C 88.8 26.0 87.8 24.4 89.4 25.5 M 105.1 23.2 C 104.5 23.6 103.5 22.0 105.1 23.2 M 123.6 19.4 C 123.4 19.3 123.4 19.3 123.6 19.4 M 113.9 14.5 C 112.9 15.2 113.2 14.0 113.9 14.5 M 128.8 12.7 C 127.8 13.4 128.2 12.2 128.8 12.7 M 90.4 18.5 C 90.5 18.8 88.7 18.6 90.4 18.5 M 102.9 21.2 C 101.5 21.2 100.0 20.7 102.9 20.3 C 103.1 20.6 102.3 20.9 102.9 21.2 C 102.9 21.2 102.9 21.2 102.9 21.2 Z M 97.4 18.7 C 97.2 18.6 97.2 18.6 97.4 18.7 M 100.7 22.9 C 100.5 22.8 100.5 22.8 100.7 22.9 M 92.6 24.2 C 92.4 24.0 92.4 24.0 92.6 24.2 M 91.7 24.7 C 91.7 24.7 91.7 24.7 91.7 24.7 C 91.7 24.7 91.7 24.7 91.7 24.7 Z M 83.1 27.1 C 83.1 27.0 83.1 27.0 83.1 27.1 C 83.1 27.1 83.1 27.1 83.1 27.1 Z M 95.1 23.5 C 95.2 23.4 95.2 23.4 95.1 23.5 C 95.1 23.5 95.1 23.5 95.1 23.5 Z M 86.8 19.4 C 86.8 19.4 86.8 19.4 86.8 19.4 C 86.8 19.4 86.8 19.4 86.8 19.4 Z M 87.9 20.1 C 87.9 20.1 87.9 20.1 87.9 20.1 C 87.9 20.1 87.9 20.1 87.9 20.1 Z M 128.2 19.1 C 127.2 20.3 127.2 16.7 128.2 19.1 M 84.0 20.9 C 82.6 20.2 86.0 20.3 84.0 20.9 C 84.0 20.9 84.0 20.9 84.0 20.9 Z M 95.9 22.1 C 95.7 22.0 95.7 22.0 95.9 22.1 M 91.2 24.7 C 91.0 24.5 91.0 24.5 91.2 24.7 M 114.8 21.9 C 114.6 21.7 114.6 21.7 114.8 21.9 M 85.0 25.7 C 81.2 26.1 86.2 23.3 85.0 25.7 M 116.3 20.3 C 116.4 20.4 116.4 20.4 116.3 20.3 M 107.4 18.9 C 104.9 19.4 108.2 18.0 107.4 18.9 M 101.2 21.8 C 101.3 21.7 101.3 21.7 101.2 21.8 C 101.2 21.8 101.2 21.8 101.2 21.8 Z M 105.0 21.1 C 106.8 20.6 105.5 21.5 105.0 21.1 C 105.0 21.1 105.0 21.1 105.0 21.1 Z M 126.2 18.1 C 123.8 18.2 128.6 17.2 126.2 18.1 C 126.2 18.1 126.2 18.1 126.2 18.1 Z M 86.0 22.0 C 86.1 21.9 86.1 21.9 86.0 22.0 C 86.0 22.0 86.0 22.0 86.0 22.0 Z M 95.8 24.4 C 96.8 23.9 96.4 24.8 95.8 24.4 C 95.8 24.4 95.8 24.4 95.8 24.4 Z M 81.8 27.4 C 82.8 26.8 82.4 27.7 81.8 27.4 C 81.8 27.4 81.8 27.4 81.8 27.4 Z M 129.1 17.9 C 120.0 16.9 140.9 16.7 129.1 17.9 C 129.1 17.9 129.1 17.9 129.1 17.9 Z M 103.6 22.4 C 103.7 22.3 103.7 22.3 103.6 22.4 C 103.6 22.4 103.6 22.4 103.6 22.4 Z M 120.0 20.9 C 120.0 20.8 120.0 20.8 120.0 20.9 C 120.0 20.9 120.0 20.9 120.0 20.9 Z M 122.5 19.1 C 122.5 19.0 122.5 19.0 122.5 19.1 C 122.5 19.1 122.5 19.1 122.5 19.1 Z M 120.8 13.6 C 120.9 13.5 120.9 13.5 120.8 13.6 C 120.8 13.6 120.8 13.6 120.8 13.6 Z M 120.3 16.3 C 120.4 16.1 120.4 16.1 120.3 16.3 C 120.3 16.3 120.3 16.3 120.3 16.3 Z M 125.8 14.5 C 125.8 14.4 125.8 14.4 125.8 14.5 C 125.8 14.5 125.8 14.5 125.8 14.5 Z M 125.5 13.8 C 125.6 13.7 125.6 13.7 125.5 13.8 C 125.5 13.8 125.5 13.8 125.5 13.8 Z M 90.9 23.1 C 90.9 23.0 90.9 23.0 90.9 23.1 C 90.9 23.1 90.9 23.1 90.9 23.1 Z M 93.4 20.2 C 91.6 21.4 93.8 18.9 93.4 20.2 C 93.4 20.2 93.4 20.2 93.4 20.2 Z M 111.7 18.4 C 109.9 19.0 112.8 17.5 111.7 18.4 C 111.7 18.4 111.7 18.4 111.7 18.4 Z M 109.2 15.7 C 109.2 15.7 109.2 15.7 109.2 15.7 C 109.2 15.7 109.2 15.7 109.2 15.7 Z M 122.7 20.5 C 122.7 20.3 122.7 20.3 122.7 20.5 C 122.7 20.5 122.7 20.5 122.7 20.5 Z M 126.0 19.0 C 125.9 17.8 127.1 19.4 126.0 19.0 M 108.8 22.3 C 108.7 22.2 108.7 22.2 108.8 22.3 C 108.8 22.3 108.8 22.3 108.8 22.3 Z M 97.5 22.3 C 97.5 22.2 97.5 22.2 97.5 22.3 C 97.5 22.3 97.5 22.3 97.5 22.3 Z M 86.9 25.0 C 86.9 24.9 86.9 24.9 86.9 25.0 C 86.9 25.0 86.9 25.0 86.9 25.0 Z M 101.9 23.3 C 102.0 23.1 102.0 23.1 101.9 23.3 C 101.9 23.3 101.9 23.3 101.9 23.3 Z M 106.9 21.3 C 107.0 21.2 107.0 21.2 106.9 21.3 C 106.9 21.3 106.9 21.3 106.9 21.3 Z M 84.2 23.9 C 84.2 23.8 84.2 23.8 84.2 23.9 C 84.2 23.9 84.2 23.9 84.2 23.9 Z M 100.7 23.6 C 100.8 23.6 100.8 23.6 100.7 23.6 C 100.7 23.6 100.7 23.6 100.7 23.6 Z M 97.0 20.4 C 97.0 20.3 97.0 20.3 97.0 20.4 C 97.0 20.4 97.0 20.4 97.0 20.4 Z M 125.7 20.7 C 125.8 20.7 125.8 20.7 125.7 20.7 C 125.7 20.7 125.7 20.7 125.7 20.7 Z M 84.4 25.5 C 84.4 25.4 84.4 25.4 84.4 25.5 C 84.4 25.5 84.4 25.5 84.4 25.5 Z M 84.0 26.6 C 84.0 26.6 84.0 26.6 84.0 26.6 C 84.0 26.6 84.0 26.6 84.0 26.6 Z M 90.5 19.5 C 94.4 19.4 87.1 20.4 90.1 21.2 C 84.7 22.5 89.6 19.6 90.5 19.5 C 90.5 19.5 90.5 19.5 90.5 19.5 Z M 79.1 28.2 C 80.8 26.1 80.4 24.6 79.1 23.2 C 77.9 22.6 78.7 25.8 78.0 23.1 C 80.3 22.0 76.0 19.4 76.9 22.8 C 73.8 24.1 75.8 20.7 74.3 22.6 C 71.0 23.8 72.4 22.3 69.9 23.3 C 68.9 25.5 68.1 22.8 68.0 24.7 C 68.7 22.4 65.4 26.1 65.0 25.3 C 67.0 23.3 56.2 28.2 62.4 26.7 C 60.2 28.4 60.2 26.7 59.3 26.8 C 58.6 28.2 54.9 27.4 53.8 29.1 C 54.2 29.2 55.0 29.0 55.3 29.2 C 56.0 29.8 53.6 29.8 53.8 29.7 C 53.0 30.5 49.6 33.3 52.9 29.6 C 52.8 28.6 49.7 31.5 49.5 30.6 C 45.9 32.2 49.4 32.7 47.2 32.2 C 44.7 33.4 42.9 34.3 43.0 34.5 C 41.4 35.1 40.5 34.3 39.7 36.0 C 35.6 35.9 39.7 40.7 36.4 37.9 C 36.1 39.2 33.8 37.5 35.3 39.6 C 35.7 37.9 29.3 41.2 32.9 41.0 C 32.5 42.0 27.0 42.0 29.1 43.7 C 28.9 46.1 30.3 47.4 34.0 46.9 C 32.9 45.9 37.8 46.2 34.3 45.5 C 31.5 46.5 38.2 41.9 37.3 43.6 C 38.5 46.3 39.7 39.8 42.2 40.9 C 40.4 40.5 45.9 36.8 45.3 39.7 C 46.4 39.3 46.2 38.2 48.0 38.8 C 44.4 40.4 48.3 36.0 48.7 37.4 C 48.4 38.4 54.0 36.6 52.9 35.7 C 49.8 33.7 54.6 35.7 55.0 34.2 C 57.7 32.3 55.5 36.8 56.9 33.8 C 57.7 34.0 61.6 32.5 59.4 34.0 C 58.3 34.1 60.6 29.9 61.9 32.3 C 58.1 35.2 67.2 31.4 65.4 31.1 C 58.3 31.9 72.1 27.3 67.2 30.3 C 70.7 30.8 66.5 31.1 70.1 29.4 C 69.4 28.7 72.1 27.1 71.8 28.9 C 73.1 31.2 72.0 25.4 75.2 28.1 C 75.9 29.5 79.6 25.9 78.3 27.9 C 78.3 28.1 79.0 28.2 79.1 28.2 M 77.6 28.2 C 78.0 27.6 78.6 28.7 77.6 28.2 M 78.1 27.6 C 78.1 27.6 78.1 27.6 78.1 27.6 C 78.1 27.6 78.1 27.6 78.1 27.6 Z M 70.6 29.1 C 70.7 29.2 70.7 29.2 70.6 29.1 C 70.6 29.1 70.6 29.1 70.6 29.1 Z M 62.9 24.9 C 63.0 24.9 63.0 24.9 62.9 24.9 C 62.9 24.9 62.9 24.9 62.9 24.9 Z M 65.7 30.5 C 65.8 30.5 65.8 30.5 65.7 30.5 C 65.7 30.5 65.7 30.5 65.7 30.5 Z M 73.1 28.0 C 73.2 28.0 73.2 28.0 73.1 28.0 C 73.1 28.0 73.1 28.0 73.1 28.0 Z M 66.5 31.2 C 65.8 30.4 68.3 31.3 66.4 31.4 C 66.3 31.3 66.7 31.2 66.5 31.2 M 60.4 33.7 C 60.3 33.6 60.3 33.6 60.4 33.7 M 43.9 32.7 C 43.8 32.6 43.8 32.6 43.9 32.7 M 46.3 39.9 C 46.1 39.9 46.1 39.9 46.3 39.9 M 54.0 35.1 C 52.2 36.0 53.4 34.9 54.0 35.1 M 41.4 42.0 C 43.9 41.3 39.4 43.8 41.4 42.0 M 39.6 43.7 C 39.4 43.8 39.4 43.8 39.6 43.7 M 49.3 38.0 C 49.4 37.9 49.4 37.9 49.3 38.0 C 49.3 38.0 49.3 38.0 49.3 38.0 Z M 54.9 35.2 C 57.6 34.6 52.8 37.0 54.9 35.2 M 70.0 30.3 C 68.8 31.1 69.7 29.1 70.0 30.3 M 72.7 28.9 C 72.8 28.9 72.8 28.9 72.7 28.9 C 72.7 28.9 72.7 28.9 72.7 28.9 Z M 45.0 40.1 C 45.0 40.0 45.0 40.0 45.0 40.1 C 45.0 40.1 45.0 40.1 45.0 40.1 Z M 42.5 41.6 C 42.6 41.6 42.6 41.6 42.5 41.6 C 42.5 41.6 42.5 41.6 42.5 41.6 Z M 34.7 38.2 C 34.7 38.2 34.7 38.2 34.7 38.2 C 34.7 38.2 34.7 38.2 34.7 38.2 Z M 69.8 26.8 C 71.8 26.7 68.5 29.5 68.4 27.8 C 68.0 27.2 69.6 27.0 69.8 26.8 M 55.9 32.5 C 54.6 30.5 58.9 34.8 55.9 32.5 M 38.5 42.6 C 35.3 41.3 41.7 43.0 38.5 42.6 M 35.4 45.2 C 34.1 45.4 41.4 40.8 36.8 44.8 C 36.6 45.5 35.9 45.2 35.4 45.2 M 59.9 32.6 C 58.9 31.6 63.0 32.1 59.9 32.6 M 47.1 33.8 C 46.6 34.9 44.7 36.8 45.0 34.9 C 44.2 33.3 47.9 32.6 47.1 33.8 M 76.7 27.1 C 75.7 29.5 76.4 25.4 76.7 27.1 M 69.2 28.9 C 69.2 29.0 69.2 29.0 69.2 28.9 C 69.2 28.9 69.2 28.9 69.2 28.9 Z M 66.4 30.1 C 66.2 30.0 66.2 30.0 66.4 30.1 M 76.0 29.2 C 75.8 29.1 75.8 29.1 76.0 29.2 M 48.1 35.7 C 47.9 35.6 47.9 35.6 48.1 35.7 M 54.3 34.4 C 50.8 33.6 55.6 33.4 54.3 34.4 M 59.7 28.1 C 58.5 27.5 61.5 27.4 59.7 28.1 M 50.3 37.1 C 47.6 36.2 52.0 34.2 50.3 37.1 M 55.8 34.1 C 55.6 34.1 55.6 34.1 55.8 34.1 C 55.8 34.1 55.8 34.1 55.8 34.1 Z M 46.3 33.9 C 46.4 33.8 46.4 33.8 46.3 33.9 C 46.3 33.9 46.3 33.9 46.3 33.9 Z M 45.5 34.4 C 45.6 34.3 45.6 34.3 45.5 34.4 C 45.5 34.4 45.5 34.4 45.5 34.4 Z M 48.1 38.4 C 48.1 38.3 48.1 38.3 48.1 38.4 C 48.1 38.4 48.1 38.4 48.1 38.4 Z M 71.5 23.7 C 69.4 24.1 73.1 22.9 71.5 23.7 C 71.5 23.7 71.5 23.7 71.5 23.7 Z M 64.2 31.9 C 60.4 31.5 66.0 29.8 64.2 31.9 C 64.2 31.9 64.2 31.9 64.2 31.9 Z M 59.6 30.8 C 59.6 30.7 59.6 30.7 59.6 30.8 C 59.6 30.8 59.6 30.8 59.6 30.8 Z M 52.0 37.6 C 51.9 37.5 51.9 37.5 52.0 37.6 C 52.0 37.6 52.0 37.6 52.0 37.6 Z M 70.4 23.7 C 70.4 23.6 70.4 23.6 70.4 23.7 C 70.4 23.7 70.4 23.7 70.4 23.7 Z M 42.3 40.2 C 42.3 40.1 42.3 40.1 42.3 40.2 C 42.3 40.2 42.3 40.2 42.3 40.2 Z M 51.5 31.2 C 51.1 32.2 51.1 30.7 51.5 31.2 C 51.5 31.2 51.5 31.2 51.5 31.2 Z M 48.5 32.5 C 48.5 32.5 48.5 32.5 48.5 32.5 C 48.5 32.5 48.5 32.5 48.5 32.5 Z M 39.0 44.3 C 39.0 44.3 39.0 44.3 39.0 44.3 C 39.0 44.3 39.0 44.3 39.0 44.3 Z M 40.3 34.6 C 40.2 34.6 40.2 34.6 40.3 34.6 C 40.3 34.6 40.3 34.6 40.3 34.6 Z M 39.0 37.9 C 39.1 37.9 39.1 37.9 39.0 37.9 C 39.0 37.9 39.0 37.9 39.0 37.9 Z M 48.4 37.7 C 45.7 39.4 48.6 36.6 48.4 37.7 C 48.4 37.7 48.4 37.7 48.4 37.7 Z M 32.6 42.8 C 32.5 42.7 32.5 42.7 32.6 42.8 C 32.6 42.8 32.6 42.8 32.6 42.8 Z M 32.9 45.9 C 32.7 45.9 32.7 45.9 32.9 45.9 C 32.9 45.9 32.9 45.9 32.9 45.9 Z M 33.1 47.6 C 32.9 47.5 32.9 47.5 33.1 47.6 C 33.1 47.6 33.1 47.6 33.1 47.6 Z M 65.6 27.4 C 65.7 27.4 65.7 27.4 65.6 27.4 C 65.6 27.4 65.6 27.4 65.6 27.4 Z M 68.1 31.2 C 68.1 31.2 68.1 31.2 68.1 31.2 C 68.1 31.2 68.1 31.2 68.1 31.2 Z M 64.2 32.7 C 64.2 32.7 64.2 32.7 64.2 32.7 C 64.2 32.7 64.2 32.7 64.2 32.7 Z M 65.6 24.6 C 65.6 24.6 65.6 24.6 65.6 24.6 C 65.6 24.6 65.6 24.6 65.6 24.6 Z M 51.6 33.7 C 51.7 33.8 51.7 33.8 51.6 33.7 C 51.6 33.7 51.6 33.7 51.6 33.7 Z M 49.5 32.7 C 49.6 32.8 49.6 32.8 49.5 32.7 C 49.5 32.7 49.5 32.7 49.5 32.7 Z M 52.1 29.0 C 52.1 29.1 52.1 29.1 52.1 29.0 C 52.1 29.0 52.1 29.0 52.1 29.0 Z M 47.8 31.8 C 47.9 31.8 47.9 31.8 47.8 31.8 C 47.8 31.8 47.8 31.8 47.8 31.8 Z M 76.4 22.5 C 76.4 22.4 76.4 22.4 76.4 22.5 C 76.4 22.5 76.4 22.5 76.4 22.5 Z M 77.5 25.6 C 77.6 25.5 77.6 25.5 77.5 25.6 C 77.5 25.6 77.5 25.6 77.5 25.6 Z M 52.2 36.1 C 51.8 37.1 50.5 35.8 52.2 36.1 M 57.6 33.4 C 57.6 33.4 57.6 33.4 57.6 33.4 C 57.6 33.4 57.6 33.4 57.6 33.4 Z M 43.1 40.5 C 41.8 39.7 45.9 39.7 43.1 40.5 C 43.1 40.5 43.1 40.5 43.1 40.5 Z M 43.3 34.0 C 43.3 34.0 43.3 34.0 43.3 34.0 C 43.3 34.0 43.3 34.0 43.3 34.0 Z M 42.1 35.3 C 42.0 35.2 42.0 35.2 42.1 35.3 C 42.1 35.3 42.1 35.3 42.1 35.3 Z M 36.2 43.0 C 36.0 43.0 36.0 43.0 36.2 43.0 M 58.7 34.3 C 57.7 34.0 57.9 34.1 58.7 34.3 M 41.3 41.5 C 41.4 41.4 41.4 41.4 41.3 41.5 C 41.3 41.5 41.3 41.5 41.3 41.5 Z M 35.0 44.7 C 35.1 44.6 35.1 44.6 35.0 44.7 C 35.0 44.7 35.0 44.7 35.0 44.7 Z M 62.4 32.0 C 61.7 30.5 62.6 30.6 62.4 32.0 M 73.8 28.0 C 73.7 27.9 73.7 27.9 73.8 28.0 C 73.8 28.0 73.8 28.0 73.8 28.0 Z M 73.8 28.0 " fill="#624572"></path><path d="M 8.0 42.0 C 7.5 41.4 8.3 39.4 8.4 41.3 C 8.4 41.4 8.1 42.2 8.0 42.0 Z M 7.4 45.6 C 7.4 45.3 7.5 45.1 7.7 44.9 C 8.4 44.6 7.3 46.5 7.4 45.6 Z M 8.9 40.4 C 8.9 40.3 9.0 39.1 9.2 39.4 C 9.4 39.6 9.0 40.5 8.9 40.4 Z M 8.3 49.0 C 8.0 48.9 8.2 47.7 8.4 47.5 C 8.9 47.0 9.0 49.2 8.3 49.0 Z M 17.8 45.7 C 17.9 45.8 18.0 45.8 18.0 45.8 C 17.9 45.8 17.9 45.8 17.8 45.7 Z M 5.1 65.6 C 5.1 65.4 5.4 65.0 5.7 65.1 C 6.0 65.3 5.1 66.3 5.1 65.6 Z M 34.1 58.2 C 34.1 58.2 33.9 57.8 34.1 57.8 C 34.4 57.7 34.3 58.2 34.1 58.2 Z M 34.3 57.9 C 34.4 57.7 34.8 57.9 34.6 58.0 C 34.4 58.1 34.2 58.2 34.3 57.9 Z M 20.4 68.1 C 20.3 68.1 20.2 68.2 20.3 68.0 C 20.3 67.9 20.7 67.9 20.4 68.1 Z M 20.8 67.5 C 20.8 67.2 21.3 67.5 21.1 67.6 C 20.8 67.8 20.7 67.8 20.8 67.5 Z M 24.7 67.8 C 24.6 67.9 24.5 68.0 24.6 67.8 C 24.6 67.6 24.9 67.7 24.7 67.8 Z M 28.1 52.2 C 28.3 52.2 28.6 52.7 28.5 52.9 C 28.2 53.1 27.8 52.2 28.1 52.2 Z M 28.8 52.6 C 28.9 52.4 29.3 52.6 29.1 52.7 C 28.9 52.8 28.8 52.8 28.8 52.6 Z M 26.5 51.4 C 26.3 51.6 25.7 51.2 25.7 51.0 C 25.5 50.8 25.4 50.6 25.3 50.3 C 25.2 50.2 26.8 51.0 26.5 51.4 Z M 22.0 48.1 C 22.1 48.0 22.2 48.0 22.3 48.3 C 22.4 48.5 22.0 48.2 22.0 48.1 Z M 24.6 50.0 C 24.7 49.9 24.8 49.8 24.9 50.1 C 25.0 50.3 24.5 50.1 24.6 50.0 Z M 6.6 55.6 C 6.4 55.7 6.7 54.8 6.7 54.7 C 6.8 54.7 6.7 55.0 6.9 54.8 C 7.0 54.6 7.6 55.3 6.6 55.6 Z M 7.2 47.6 C 7.3 47.4 7.4 47.3 7.6 47.5 C 7.6 47.5 7.3 48.1 7.2 47.6 Z M 7.8 54.6 C 7.7 54.6 7.8 54.4 7.9 54.4 C 8.0 54.4 7.9 54.6 7.8 54.6 Z M 7.9 55.2 C 7.9 55.0 8.2 54.6 8.5 54.8 C 8.8 55.0 7.9 56.0 7.9 55.2 Z M 6.1 56.7 C 6.1 56.4 6.1 56.4 6.2 56.6 C 6.3 56.7 6.1 56.7 6.1 56.7 Z M 6.3 52.0 C 6.4 51.7 6.4 51.7 6.5 51.9 C 6.5 52.1 6.3 52.0 6.3 52.0 Z M 6.3 58.9 C 6.3 58.9 6.1 58.3 6.6 58.2 C 7.3 58.1 6.4 58.9 6.3 58.9 Z M 6.5 62.2 C 6.6 62.0 6.8 62.1 6.7 62.3 C 6.6 62.5 6.5 62.4 6.5 62.2 Z M 7.5 63.6 C 7.2 63.9 6.9 64.1 7.1 63.6 C 7.2 63.1 7.7 63.2 7.5 63.6 Z M 7.3 62.9 C 7.4 62.9 7.3 63.1 7.2 63.1 C 7.1 63.1 7.2 62.9 7.3 62.9 Z M 6.9 60.1 C 6.8 59.8 7.1 59.5 7.2 59.9 C 7.2 60.4 7.0 60.4 6.9 60.1 Z M 16.5 42.8 C 16.3 42.8 16.5 42.5 16.7 42.5 C 16.9 42.5 16.7 42.9 16.5 42.8 Z M 24.9 51.3 C 24.9 51.0 25.0 51.1 25.2 51.4 C 25.4 51.6 24.9 51.5 24.9 51.3 Z M 30.3 56.5 C 30.3 56.2 30.4 56.3 30.6 56.6 C 30.8 56.8 30.3 56.7 30.3 56.5 Z M 22.5 49.4 C 22.6 49.2 23.5 49.3 23.5 49.9 C 23.5 50.6 22.5 49.9 22.5 49.4 Z M 13.1 49.3 C 12.9 49.3 13.1 49.2 13.1 49.2 C 13.3 49.4 13.3 49.4 13.1 49.3 Z M 23.3 51.1 C 23.1 51.1 23.3 50.9 23.5 50.8 C 23.7 50.8 23.5 51.2 23.3 51.1 Z M 29.6 55.3 C 29.4 55.0 29.9 54.7 30.1 54.7 C 30.9 54.7 30.9 55.5 31.0 56.0 C 31.1 56.4 29.6 55.5 29.6 55.3 Z M 14.4 42.6 C 14.5 42.7 14.6 42.9 14.7 43.0 C 14.8 42.9 14.9 43.0 14.9 43.2 C 15.5 43.6 16.3 43.4 16.8 43.5 C 17.9 43.9 17.3 45.2 17.8 45.7 C 17.7 45.6 17.5 45.5 17.4 45.6 C 16.9 45.7 19.0 47.2 19.2 47.3 C 21.1 48.4 19.3 46.5 19.8 45.9 C 20.0 45.6 20.6 47.2 20.6 47.3 C 21.0 48.0 21.6 47.5 21.8 48.1 C 22.0 48.4 21.6 50.3 21.9 50.3 C 22.2 50.2 22.6 50.8 22.8 51.0 C 23.1 51.3 23.7 51.7 23.8 50.9 C 23.9 50.4 24.1 50.0 24.2 50.7 C 24.4 51.1 25.7 53.6 26.4 52.6 C 26.5 52.5 26.3 51.9 26.3 51.9 C 27.0 52.1 28.5 53.8 29.2 53.8 C 30.8 53.6 28.5 54.1 28.7 54.7 C 29.2 55.8 29.3 56.4 30.5 57.1 C 30.8 57.2 31.7 57.9 31.7 57.0 C 31.6 56.4 32.1 56.4 31.6 55.8 C 32.7 55.9 32.3 57.1 32.6 57.0 C 33.0 56.9 32.8 56.5 33.2 56.9 C 33.7 57.4 33.6 57.1 33.3 57.7 C 33.2 57.8 33.6 58.4 33.6 58.4 C 33.6 58.4 33.5 58.5 33.5 58.5 C 34.0 58.8 35.5 58.5 35.5 58.8 C 35.4 59.1 34.7 59.5 34.5 59.7 C 34.5 59.8 34.6 59.8 34.6 59.8 C 34.9 59.9 35.6 60.0 35.6 60.1 C 35.6 60.2 34.6 60.8 35.0 60.7 C 35.4 60.7 36.2 61.8 36.1 62.1 C 35.9 62.5 35.2 63.8 35.3 64.1 C 35.5 64.3 34.6 64.5 34.4 64.7 C 34.2 64.8 33.6 64.5 33.5 64.5 C 33.4 64.4 32.8 64.8 32.8 64.8 C 32.8 64.8 32.6 65.0 32.2 65.2 C 31.7 65.4 31.2 65.2 30.6 65.3 C 29.9 65.3 29.8 65.8 29.3 66.0 C 28.7 66.3 27.9 65.6 27.4 65.7 C 26.9 65.7 27.1 66.4 26.5 66.7 C 26.0 67.0 25.6 66.9 25.7 66.8 C 25.8 66.6 25.6 66.4 25.4 66.5 C 25.2 66.6 24.5 66.6 24.2 66.8 C 24.0 67.0 26.1 67.0 23.8 67.7 C 22.6 68.1 21.5 67.6 21.8 67.5 C 22.6 67.2 20.5 66.7 20.6 67.1 C 20.7 67.4 18.7 68.1 19.4 68.5 C 19.6 68.6 17.8 69.6 17.4 69.6 C 17.1 69.5 16.3 70.0 15.8 69.5 C 15.6 69.3 14.8 70.5 14.5 70.6 C 14.3 70.7 12.7 71.1 12.3 71.1 C 11.9 71.0 12.7 70.7 13.0 70.6 C 13.4 70.5 14.0 70.6 14.2 70.5 C 14.5 70.3 13.8 70.2 13.3 70.3 C 13.0 70.4 12.8 70.1 12.4 70.2 C 12.3 70.3 12.0 70.3 11.7 70.4 C 11.5 70.5 11.4 70.6 11.5 70.7 C 11.6 70.9 11.8 70.9 11.8 71.1 C 11.8 71.2 11.6 71.4 11.1 71.6 C 10.6 71.8 10.2 71.8 9.5 71.9 C 8.8 71.9 8.7 72.2 8.3 72.4 C 7.9 72.6 7.5 72.6 7.4 72.5 C 7.4 72.4 7.9 72.1 7.9 72.0 C 7.9 71.8 7.2 71.7 6.9 71.8 C 5.7 72.1 6.3 70.7 5.1 71.0 C 4.4 71.2 5.0 70.6 5.2 70.0 C 5.0 70.0 5.0 70.0 5.0 69.4 C 4.8 69.4 5.1 68.6 5.1 68.2 C 5.1 68.0 5.0 66.4 5.3 67.4 C 5.3 67.5 5.4 67.6 5.4 67.6 C 5.4 67.6 5.4 67.6 5.4 67.6 C 5.4 67.6 5.9 68.1 5.9 68.1 C 6.0 68.1 5.4 67.6 5.4 67.6 C 5.7 67.4 5.9 67.3 6.1 67.2 C 6.1 67.1 6.0 67.0 6.0 67.0 C 5.9 66.9 5.9 66.9 5.9 66.9 C 5.9 66.9 5.9 66.9 5.9 66.9 C 5.7 66.9 5.7 66.8 5.8 66.6 C 5.6 66.0 6.2 64.8 6.5 64.3 C 7.5 65.9 7.9 63.5 7.8 62.7 C 7.8 61.8 6.1 61.7 6.1 62.0 C 6.1 61.4 6.4 61.4 6.9 61.3 C 6.8 61.3 7.9 60.8 7.9 60.8 C 8.6 59.5 7.2 59.6 7.1 59.3 C 7.0 58.9 7.1 58.4 7.0 58.0 C 7.0 57.6 6.7 57.9 6.5 57.7 C 5.9 57.2 7.3 56.4 7.4 56.0 C 7.5 56.4 7.5 56.8 7.7 57.1 C 7.4 56.6 8.3 56.4 8.4 56.2 C 8.6 55.9 8.6 55.3 8.6 54.8 C 8.7 54.1 8.6 53.3 8.6 52.5 C 8.5 52.7 7.4 53.7 7.4 53.8 C 7.4 53.6 7.8 52.9 7.1 53.1 C 6.1 53.4 6.9 51.5 7.0 51.2 C 7.2 50.2 6.4 49.0 7.6 48.2 C 7.6 48.2 7.7 49.7 7.8 49.7 C 8.7 49.5 9.3 49.2 9.2 48.1 C 9.2 47.9 8.8 46.3 8.7 46.3 C 8.8 46.4 6.5 47.5 7.4 46.3 C 7.6 46.1 7.8 46.7 8.0 46.4 C 8.3 46.0 8.3 45.3 8.4 44.8 C 8.4 44.7 8.8 44.0 8.7 43.9 C 8.5 43.7 8.1 43.6 8.0 43.3 C 7.9 43.0 8.2 42.7 8.5 42.7 C 8.5 42.7 8.6 42.7 8.6 42.7 C 8.6 42.6 8.7 42.6 8.9 42.6 C 8.9 42.5 8.9 42.3 9.1 42.2 C 9.2 42.1 9.2 42.5 9.1 42.7 C 9.1 42.7 9.2 42.7 9.4 42.8 C 9.4 42.4 9.3 41.9 9.3 41.9 C 8.9 41.1 8.7 41.1 9.6 40.2 C 10.4 39.5 12.7 40.6 13.6 41.7 C 13.9 41.8 14.2 42.1 14.4 42.6 Z M 10.7 70.3 C 10.8 70.3 10.8 70.2 10.9 70.2 C 10.8 70.1 10.8 69.9 10.7 69.8 C 10.3 69.8 10.9 70.0 10.5 70.1 C 10.1 70.2 10.2 70.3 10.7 70.3 Z M 8.3 67.9 C 8.1 68.1 8.2 68.2 8.4 68.2 C 8.4 68.1 8.3 68.0 8.3 67.9 Z M 6.8 67.6 C 6.8 68.1 7.6 67.4 7.5 66.6 C 7.1 67.1 6.8 67.4 6.8 67.6 Z M 6.3 66.3 C 6.3 66.3 6.4 66.4 6.5 66.4 C 6.7 66.5 6.5 66.0 6.7 66.1 C 6.9 66.2 7.0 66.7 7.2 66.4 C 7.2 66.3 7.3 66.2 7.3 66.1 C 7.3 66.1 7.3 66.0 7.2 66.0 C 7.0 65.7 6.4 66.0 6.3 66.3 Z M 12.5 68.4 C 12.3 68.6 12.5 68.6 12.6 68.5 C 12.8 68.4 12.6 68.3 12.5 68.4 Z M 15.6 68.8 C 15.3 68.7 15.1 68.9 15.4 69.0 C 15.7 69.1 15.9 68.9 15.6 68.8 Z M 14.9 63.5 C 14.9 63.6 15.0 63.6 15.1 63.5 C 15.3 63.4 15.0 63.3 14.9 63.5 Z M 12.9 61.6 C 12.8 61.4 12.4 61.4 12.6 61.6 C 12.7 61.7 13.0 61.8 12.9 61.6 Z M 17.6 65.9 C 17.8 65.7 17.5 65.6 17.4 65.8 C 17.3 65.9 17.4 66.0 17.6 65.9 Z M 14.3 63.9 C 14.6 64.0 14.6 63.8 14.6 63.7 C 14.7 63.6 14.4 63.5 14.2 63.6 C 13.9 63.8 13.9 63.9 14.3 63.9 Z M 12.4 62.6 C 12.5 61.9 12.2 61.8 12.2 62.7 C 12.2 63.7 12.3 63.1 12.4 62.6 Z M 18.0 68.9 C 17.9 68.9 17.5 69.1 17.5 69.1 C 17.5 69.1 18.6 68.9 18.0 68.9 Z M 7.6 58.5 C 7.6 58.7 7.8 59.0 7.9 58.6 C 8.1 58.1 7.7 58.2 7.6 58.5 Z M 9.4 58.1 C 8.7 58.3 8.5 58.8 8.5 58.8 C 8.6 58.7 9.0 59.0 9.0 59.2 C 9.2 59.7 8.5 60.2 8.8 60.8 C 9.1 61.4 9.4 60.2 9.4 60.0 C 9.4 60.2 9.5 60.3 9.6 60.4 C 9.8 60.3 9.9 60.1 9.8 59.9 C 9.7 59.7 10.1 57.9 9.4 58.1 Z M 14.5 62.3 C 14.2 62.5 14.2 62.8 14.5 62.8 C 14.9 62.9 15.2 62.8 15.2 62.6 C 15.2 62.5 14.7 62.2 14.5 62.3 Z M 16.2 63.5 C 16.1 63.8 16.2 63.7 16.5 63.6 C 16.9 63.4 16.3 63.2 16.2 63.5 Z M 25.5 66.1 C 25.6 65.8 25.1 66.0 25.2 66.1 C 25.3 66.3 25.4 66.2 25.5 66.1 Z M 22.7 64.0 C 23.2 63.6 22.5 63.6 22.4 63.7 C 22.3 63.8 22.4 64.2 22.7 64.0 Z M 19.8 64.2 C 20.1 64.1 19.6 64.1 19.6 64.2 C 19.5 64.4 19.7 64.3 19.8 64.2 Z M 18.7 63.6 C 18.9 63.5 18.6 63.3 18.3 63.5 C 18.3 63.6 18.4 63.7 18.7 63.6 Z M 10.6 55.7 C 10.6 55.7 11.1 55.9 10.9 55.4 C 10.7 55.0 10.7 55.0 10.6 55.7 Z M 13.1 58.9 C 13.1 59.4 13.2 59.8 14.3 60.2 C 15.3 60.6 15.2 60.2 14.7 59.6 C 14.3 59.0 16.1 59.8 15.2 58.8 C 14.9 58.3 13.1 58.5 13.1 58.9 Z M 19.9 61.9 C 19.1 61.8 18.6 62.7 19.3 62.5 C 20.1 62.3 20.5 62.0 19.9 61.9 Z M 20.3 62.2 C 20.2 62.3 20.3 62.3 20.5 62.2 C 20.7 62.1 20.4 62.0 20.3 62.2 Z M 7.2 52.2 C 7.2 53.6 8.3 52.3 8.3 52.3 C 8.9 50.9 7.1 50.8 7.2 52.2 Z M 32.7 58.6 C 32.6 58.5 32.6 58.5 32.6 58.4 C 32.6 58.4 32.5 58.4 32.5 58.4 C 32.2 58.4 32.5 58.9 32.5 58.9 C 32.6 58.9 32.7 58.7 32.7 58.6 Z M 27.3 53.8 C 27.5 54.0 27.7 54.1 28.0 54.1 C 28.3 53.5 26.6 52.1 26.6 53.5 C 26.6 53.7 27.1 55.3 27.5 55.0 C 27.7 54.8 26.8 53.3 27.3 53.8 Z M 28.5 55.9 C 27.9 55.3 28.5 57.0 28.6 56.5 C 28.7 56.3 28.7 56.1 28.5 55.9 Z M 32.1 61.4 C 33.3 61.8 34.2 60.4 32.3 59.9 C 30.4 59.5 29.8 60.0 30.7 60.4 C 31.5 60.7 30.4 60.9 32.1 61.4 Z M 25.0 55.6 C 25.9 54.7 25.3 54.7 24.4 55.2 C 24.2 55.3 24.4 56.0 25.0 55.6 Z M 22.8 54.1 C 22.6 53.8 22.6 53.8 22.7 54.1 C 22.7 54.4 23.0 54.4 22.8 54.1 Z M 32.5 63.9 C 33.0 64.1 33.5 63.9 33.3 64.1 C 33.2 64.3 33.3 64.3 33.6 64.3 C 34.1 64.3 33.6 63.9 33.4 63.8 C 33.1 63.6 32.1 63.8 32.5 63.9 Z M 22.2 60.8 C 22.4 60.7 22.1 60.7 22.0 60.8 C 21.9 60.9 22.0 60.9 22.2 60.8 Z M 13.7 55.6 C 13.7 55.6 14.0 55.7 13.9 55.5 C 13.8 55.2 13.8 55.2 13.7 55.6 Z M 7.9 50.3 C 7.9 50.6 8.3 50.2 8.6 50.5 C 8.7 50.6 8.4 50.7 8.3 50.7 C 8.4 50.7 9.2 51.2 9.0 50.5 C 8.9 50.2 7.8 49.6 7.9 50.3 Z M 20.3 58.9 C 19.7 58.9 20.8 60.2 20.4 60.3 C 20.0 60.3 20.1 60.5 20.6 60.4 C 21.1 60.4 20.9 58.9 20.3 58.9 Z M 23.7 61.3 C 23.5 61.2 22.4 61.4 22.8 61.5 C 23.3 61.6 23.8 61.4 23.7 61.7 C 23.5 61.9 23.6 61.8 24.0 61.8 C 24.4 61.8 23.9 61.5 23.7 61.3 Z M 29.3 65.5 C 29.1 65.5 28.6 65.7 29.0 65.8 C 29.2 65.8 29.5 65.5 29.3 65.5 Z M 14.5 52.9 C 14.6 53.2 14.8 53.2 14.8 52.7 C 14.7 52.3 14.4 52.6 14.5 52.9 Z M 29.5 64.2 C 29.0 64.2 29.7 64.4 29.3 64.5 C 28.9 64.6 29.0 64.7 29.5 64.7 C 30.0 64.6 30.1 64.2 29.5 64.2 Z M 10.3 48.0 C 10.4 48.2 10.7 48.2 10.6 48.0 C 10.5 47.8 10.2 47.9 10.3 48.0 Z M 12.9 48.9 C 12.9 49.0 12.8 49.1 12.8 49.2 C 12.7 51.3 13.9 48.3 12.9 48.9 Z M 15.9 51.6 C 15.4 51.4 15.7 52.0 15.8 52.0 C 15.9 51.9 16.0 51.8 15.9 51.6 Z M 19.3 54.4 C 19.6 54.3 19.2 54.0 19.1 54.3 C 19.0 54.5 19.2 54.5 19.3 54.4 Z M 8.8 44.8 C 8.7 45.0 8.8 45.1 8.9 44.9 C 9.0 44.7 8.9 44.5 8.8 44.8 Z M 17.4 51.6 C 17.3 51.6 17.3 51.7 17.5 51.8 C 17.7 51.8 17.5 51.6 17.4 51.6 Z M 27.9 60.0 C 27.7 60.1 27.5 60.1 27.4 60.1 C 27.3 60.4 27.9 60.9 27.8 61.2 C 27.7 61.2 27.7 61.2 27.7 61.2 C 27.7 61.2 27.7 61.2 27.7 61.2 C 27.6 61.3 27.4 61.4 27.5 61.2 C 27.3 61.2 27.2 61.2 27.0 61.1 C 27.1 61.4 27.2 61.8 27.5 61.8 C 27.8 61.7 28.3 61.3 28.6 60.9 C 28.5 60.7 28.4 60.6 28.3 60.4 C 28.3 60.4 28.2 60.4 28.2 60.5 C 27.9 60.6 27.7 60.5 27.8 60.4 C 27.9 60.2 28.0 60.2 28.1 60.2 C 28.0 60.1 28.0 60.1 27.9 60.0 Z M 19.1 52.2 C 18.7 52.1 18.9 52.3 19.1 52.7 C 19.3 53.0 19.5 52.3 19.1 52.2 Z M 9.5 44.8 C 9.6 44.8 9.7 44.8 9.8 44.8 C 9.8 44.8 9.7 44.7 9.7 44.7 C 9.5 44.5 9.4 44.3 9.2 44.1 C 9.1 44.3 9.0 44.6 9.5 44.8 Z M 13.2 46.2 C 13.1 46.2 11.9 45.1 11.9 45.5 C 11.9 46.3 11.0 46.3 12.0 46.8 C 12.6 47.1 13.4 46.8 14.0 47.0 C 16.6 48.3 13.9 45.9 13.4 45.3 C 13.3 45.2 13.4 46.3 13.2 46.2 Z M 16.7 47.9 C 16.9 47.8 16.8 47.3 16.6 47.2 C 16.0 46.8 16.3 48.0 16.7 47.9 Z M 10.8 42.5 C 10.7 42.5 10.7 42.6 10.7 42.7 C 10.7 42.7 10.8 42.6 10.9 42.6 C 10.9 42.6 10.8 42.6 10.8 42.5 Z M 9.4 41.1 C 9.4 42.1 10.4 40.9 10.5 40.5 C 10.6 40.0 9.4 40.5 9.4 41.1 Z M 15.9 45.5 C 16.3 45.9 17.8 45.0 17.0 44.5 C 16.2 43.9 15.0 44.6 15.9 45.5 Z M 21.8 47.6 C 21.5 47.7 21.2 47.0 21.6 47.1 C 21.9 47.1 21.9 47.6 21.8 47.6 Z M 15.5 41.4 C 15.6 41.5 15.4 41.5 15.4 41.5 C 15.5 41.2 15.5 41.2 15.5 41.4 Z M 15.4 42.8 C 15.3 42.6 15.1 42.3 14.9 42.1 C 14.8 41.9 15.4 42.2 15.4 42.2 C 15.5 42.3 15.4 42.7 15.4 42.8 Z M 19.0 45.9 C 18.9 45.6 19.2 45.8 19.3 46.0 C 19.4 46.1 19.0 46.1 19.0 45.9 Z M 18.3 44.9 C 18.4 45.0 18.2 45.1 18.1 45.0 C 17.9 44.7 18.2 44.7 18.3 44.9 Z M 19.3 46.9 C 18.8 46.7 18.2 46.3 18.5 46.0 C 18.7 45.9 20.2 47.3 19.3 46.9 Z M 19.3 46.9 " fill="#624572"></path></g></svg>