<?xml version="1.0" encoding="UTF-8" standalone="no"?><svg xmlns="http://www.w3.org/2000/svg" xmlns:xlink="http://www.w3.org/1999/xlink" clip-rule="evenodd" stroke-miterlimit="10" viewBox="0 0 149 23"><desc>SVG generated by Keynote</desc><defs></defs><g transform="matrix(1.00, 0.00, -0.00, -1.00, 0.0, 23.0)"><path d="M 6.1 10.8 C 5.9 10.9 5.7 10.4 5.1 10.2 C 4.5 10.1 3.8 10.0 3.9 10.4 C 4.1 10.7 4.3 10.9 4.0 11.3 C 3.7 11.7 3.3 12.4 3.7 12.6 C 4.1 12.9 5.8 13.6 6.3 13.3 C 6.8 12.9 7.0 12.7 7.4 12.5 C 7.8 12.3 7.5 13.1 7.5 13.1 C 7.5 13.1 8.4 13.1 9.1 13.2 C 9.7 13.3 10.5 13.3 10.6 13.1 C 10.6 13.0 10.9 12.7 10.9 12.7 C 10.9 12.7 11.2 13.1 11.7 13.2 C 12.2 13.3 12.0 13.0 12.0 12.9 C 11.9 12.7 11.3 12.1 11.5 12.1 C 11.7 12.1 12.4 12.9 12.7 13.0 C 13.1 13.1 13.8 13.0 13.8 13.0 C 13.8 13.0 13.8 12.6 13.8 12.5 C 13.9 12.4 14.7 12.3 14.7 12.5 C 14.7 12.7 14.7 13.1 15.0 13.2 C 16.3 13.2 16.1 12.4 16.2 12.3 C 16.3 12.3 16.3 13.0 16.6 13.1 C 16.9 13.2 19.2 13.1 19.3 12.9 C 19.5 12.8 20.3 13.4 20.6 13.0 C 21.0 12.5 21.1 12.4 21.1 12.3 C 21.2 12.2 21.6 11.5 21.9 11.8 C 22.1 12.0 21.2 12.8 21.4 13.0 C 21.7 13.2 23.2 13.3 23.4 13.1 C 23.8 12.8 23.9 12.1 24.1 12.1 C 24.3 12.1 25.1 13.0 25.2 12.8 C 25.3 12.7 25.4 12.0 25.4 11.9 C 25.4 11.7 25.7 10.5 25.5 10.3 C 25.3 10.1 24.4 9.7 24.5 10.0 C 24.7 10.4 24.9 10.8 24.5 11.0 C 24.2 11.2 24.1 11.2 24.0 11.0 C 23.9 10.9 24.1 10.8 23.6 10.5 C 23.0 10.3 23.3 10.0 22.8 10.0 C 22.3 10.0 21.9 10.1 21.9 10.4 C 22.0 10.7 21.5 11.1 21.1 11.0 C 20.8 11.0 21.4 10.4 20.3 10.2 C 19.2 9.9 18.5 9.9 18.2 10.1 C 17.8 10.3 17.8 11.1 17.2 10.8 C 16.7 10.4 17.0 10.2 16.3 10.3 C 15.6 10.3 15.3 10.9 14.9 10.9 C 14.4 10.9 14.3 10.9 14.3 10.9 C 14.3 10.9 14.5 10.0 13.5 10.0 C 12.5 10.0 12.3 9.9 12.5 10.5 C 12.7 11.1 11.9 11.1 11.9 10.7 C 11.9 10.3 11.3 10.1 10.9 10.0 C 10.6 10.0 10.5 11.0 10.3 11.0 C 10.2 11.0 9.8 11.0 9.9 10.7 C 10.1 10.3 9.7 10.3 9.4 10.1 C 9.1 10.0 8.1 10.1 8.2 10.3 C 8.2 10.5 8.6 11.1 8.0 10.8 C 7.4 10.5 7.2 10.0 6.6 10.0 C 6.0 10.0 6.5 10.6 6.1 10.8 C 6.1 10.8 6.1 10.8 6.1 10.8 Z M 25.9 10.0 C 24.8 10.0 25.5 12.7 25.9 13.2 C 26.3 13.7 27.1 13.4 27.8 13.5 C 28.5 13.6 28.3 12.8 28.7 12.5 C 29.1 12.3 29.0 12.8 29.1 13.2 C 29.3 13.6 30.4 13.2 31.1 13.3 C 31.8 13.3 32.5 12.4 33.0 12.4 C 33.5 12.3 32.5 11.9 33.5 12.0 C 34.4 12.0 34.0 12.5 32.9 12.8 C 31.8 13.1 33.3 13.3 33.9 13.4 C 34.5 13.5 35.5 13.1 36.0 13.1 C 36.5 13.2 35.9 12.5 36.6 12.5 C 37.3 12.6 36.9 13.2 37.6 13.3 C 38.3 13.5 38.2 12.8 38.6 12.7 C 39.0 12.5 38.9 12.9 39.2 13.0 C 39.5 13.0 40.0 13.2 40.6 13.1 C 41.3 12.9 41.1 12.7 41.4 12.7 C 41.7 12.6 42.3 12.6 42.3 12.6 C 42.3 12.8 42.3 13.1 42.4 13.3 C 42.4 13.3 43.6 13.3 43.9 13.4 C 44.3 13.4 45.1 13.1 44.9 13.0 C 44.7 12.9 45.5 12.4 45.7 12.5 C 45.9 12.6 46.5 13.0 46.9 13.1 C 47.3 13.2 47.2 11.5 47.2 11.3 C 47.2 11.0 47.4 10.1 47.1 10.0 C 46.7 9.9 46.4 10.3 46.5 10.0 C 46.5 9.8 45.4 10.0 45.1 10.0 C 44.8 10.0 44.5 10.7 44.5 10.7 C 44.5 10.7 44.2 11.2 43.7 11.2 C 43.2 11.2 43.0 10.1 43.0 10.1 C 43.0 10.1 42.4 9.9 41.8 10.0 C 41.2 10.0 40.6 10.9 40.5 11.1 C 40.3 11.3 40.4 10.5 39.9 10.4 C 39.5 10.3 38.9 10.0 38.7 10.1 C 38.5 10.1 38.2 10.7 38.2 10.7 C 38.2 10.7 37.4 11.0 37.3 11.0 C 37.1 11.0 37.4 10.2 37.4 10.2 C 37.4 10.2 35.8 10.0 35.4 9.9 C 35.1 9.8 34.6 10.1 34.3 10.1 C 34.1 10.2 33.7 11.1 33.4 11.0 C 33.0 10.9 33.7 10.4 33.4 10.3 C 33.0 10.2 32.3 10.0 32.2 10.0 C 32.0 10.0 31.7 10.4 31.4 10.4 C 31.1 10.5 30.7 11.2 30.2 11.2 C 29.8 11.2 29.5 10.8 29.3 10.7 C 29.2 10.6 29.0 9.9 28.7 9.9 C 28.3 9.9 28.6 10.3 28.2 10.3 C 27.8 10.3 27.8 10.8 27.5 10.7 C 27.1 10.6 27.3 9.8 26.9 9.9 C 26.8 10.0 26.9 9.9 25.9 10.0 C 25.9 10.0 25.9 10.0 25.9 10.0 Z M 48.0 10.1 C 47.4 9.7 47.0 10.2 47.0 10.6 C 47.1 10.9 47.3 11.9 47.1 12.2 C 46.9 12.5 46.3 13.2 47.2 13.3 C 48.1 13.4 48.3 13.2 48.3 12.9 C 48.3 12.7 48.5 11.7 48.8 11.8 C 49.0 11.9 49.2 12.1 49.3 12.3 C 49.4 12.4 49.7 13.4 50.2 13.3 C 50.6 13.1 51.0 12.8 51.0 12.8 C 51.2 12.8 51.4 12.8 51.7 12.8 C 51.7 12.8 52.3 13.4 52.8 13.3 C 53.3 13.1 53.8 13.1 54.2 13.2 C 54.5 13.2 54.9 13.1 55.0 12.9 C 55.0 12.7 55.5 11.8 55.5 11.8 C 55.5 11.8 56.0 11.6 56.3 11.7 C 56.5 11.9 56.6 12.3 56.5 12.5 C 56.5 12.7 56.5 13.2 56.9 13.3 C 57.3 13.3 58.9 13.8 59.1 13.5 C 59.3 13.3 59.3 12.9 59.5 12.8 C 59.6 12.7 60.7 12.7 60.8 12.9 C 60.9 13.1 60.8 13.6 61.1 13.6 C 61.4 13.5 62.0 13.7 62.0 13.5 C 62.0 13.4 62.2 13.3 62.2 13.0 C 62.3 12.7 62.9 12.5 63.0 12.3 C 63.1 12.2 63.6 12.1 63.6 12.1 C 63.8 12.3 64.0 12.5 64.2 12.6 C 64.2 12.6 63.8 13.1 63.7 13.2 C 63.5 13.3 63.8 13.6 64.0 13.7 C 64.2 13.7 65.3 13.6 65.3 13.6 C 65.3 13.2 65.3 12.9 65.4 12.5 C 65.6 12.4 65.9 12.3 66.2 12.2 C 66.2 12.2 66.1 13.6 66.6 13.6 C 67.2 13.6 67.9 13.6 67.9 13.6 C 67.9 13.6 68.4 13.1 68.6 13.0 C 68.7 13.0 68.8 11.8 68.8 11.8 C 68.7 11.3 68.7 10.9 68.7 10.4 C 68.7 10.4 68.0 9.9 67.6 10.1 C 67.3 10.3 67.6 10.8 67.5 11.0 C 67.4 11.3 66.9 11.5 66.9 11.5 C 66.6 11.2 66.4 11.0 66.1 10.7 C 66.1 10.7 65.9 10.5 65.7 10.3 C 65.4 10.0 64.6 9.9 64.3 10.0 C 64.1 10.1 63.8 10.4 63.5 10.6 C 63.2 10.9 63.3 11.3 62.9 10.9 C 62.6 10.6 62.4 10.3 62.2 10.3 C 62.0 10.3 61.2 10.7 61.2 10.7 C 61.0 10.8 60.8 10.9 60.6 11.0 C 60.6 11.0 60.0 11.3 59.9 11.0 C 59.8 10.7 58.6 11.0 58.6 11.0 C 58.6 11.0 58.7 10.2 58.4 10.1 C 58.1 9.9 57.6 9.7 57.1 9.9 C 56.7 10.0 56.3 10.8 56.3 10.8 C 56.1 10.6 56.0 10.4 55.8 10.2 C 55.4 10.1 54.9 10.1 54.5 10.0 C 54.5 10.0 53.4 10.1 53.4 10.2 C 53.4 10.3 53.6 11.0 53.5 11.2 C 53.4 11.4 52.9 11.6 52.8 11.4 C 52.8 11.2 52.3 10.5 52.3 10.5 C 52.3 10.5 51.9 10.1 51.5 10.1 C 51.2 10.0 50.8 10.3 50.6 10.4 C 50.5 10.5 50.0 11.0 50.0 11.0 C 49.9 10.8 49.8 10.6 49.6 10.4 C 49.6 10.4 48.8 10.7 48.0 10.1 C 48.0 10.1 48.0 10.1 48.0 10.1 Z M 69.1 10.0 C 68.0 10.0 68.7 12.7 69.2 13.2 C 69.6 13.7 70.3 13.4 71.0 13.5 C 71.7 13.6 71.5 12.8 71.9 12.5 C 72.3 12.3 72.2 12.8 72.4 13.2 C 72.6 13.6 73.7 13.2 74.3 13.3 C 75.0 13.3 75.7 12.4 76.2 12.4 C 76.8 12.3 75.8 11.9 76.7 12.0 C 77.7 12.0 77.2 12.5 76.1 12.8 C 75.0 13.1 76.5 13.3 77.1 13.4 C 77.8 13.5 78.8 13.1 79.2 13.1 C 79.7 13.2 79.1 12.5 79.8 12.5 C 80.5 12.6 80.2 13.2 80.9 13.3 C 81.6 13.5 81.5 12.8 81.9 12.7 C 82.2 12.5 82.1 12.9 82.4 13.0 C 82.7 13.0 83.2 13.2 83.9 13.1 C 84.5 12.9 84.4 12.7 84.7 12.7 C 85.0 12.6 85.5 12.6 85.5 12.6 C 85.5 12.8 85.6 13.1 85.6 13.3 C 85.6 13.3 86.8 13.3 87.2 13.4 C 87.5 13.4 88.4 13.1 88.1 13.0 C 87.9 12.9 88.7 12.4 88.9 12.5 C 89.1 12.6 89.7 13.0 90.1 13.1 C 90.5 13.2 90.4 11.5 90.4 11.3 C 90.4 11.0 90.7 10.1 90.3 10.0 C 89.9 9.9 89.6 10.3 89.7 10.0 C 89.8 9.8 88.7 10.0 88.4 10.0 C 88.1 10.0 87.7 10.7 87.7 10.7 C 87.7 10.7 87.4 11.2 86.9 11.2 C 86.5 11.2 86.3 10.1 86.3 10.1 C 86.3 10.1 85.7 9.9 85.1 10.0 C 84.5 10.0 83.8 10.9 83.7 11.1 C 83.6 11.3 83.6 10.5 83.2 10.4 C 82.8 10.3 82.1 10.0 82.0 10.1 C 81.8 10.1 81.5 10.7 81.5 10.7 C 81.5 10.7 80.7 11.0 80.5 11.0 C 80.3 11.0 80.6 10.2 80.6 10.2 C 80.6 10.2 79.0 10.0 78.7 9.9 C 78.3 9.8 77.8 10.1 77.6 10.1 C 77.3 10.2 77.0 11.1 76.6 11.0 C 76.2 10.9 77.0 10.4 76.6 10.3 C 76.2 10.2 75.6 10.0 75.4 10.0 C 75.2 10.0 75.0 10.4 74.7 10.4 C 74.4 10.5 74.0 11.2 73.5 11.2 C 73.0 11.2 72.8 10.8 72.6 10.7 C 72.4 10.6 72.3 9.9 71.9 9.9 C 71.5 9.9 71.8 10.3 71.4 10.3 C 71.1 10.3 71.1 10.8 70.7 10.7 C 70.4 10.6 70.6 9.8 70.2 9.9 C 70.0 10.0 70.2 9.9 69.1 10.0 C 69.1 10.0 69.1 10.0 69.1 10.0 Z M 91.2 10.1 C 90.7 9.7 90.2 10.2 90.3 10.6 C 90.4 10.9 90.5 11.9 90.4 12.2 C 90.2 12.5 89.6 13.2 90.5 13.3 C 91.4 13.4 91.6 13.2 91.6 12.9 C 91.6 12.7 91.8 11.7 92.0 11.8 C 92.2 11.9 92.5 12.1 92.5 12.3 C 92.6 12.4 93.0 13.4 93.4 13.3 C 93.8 13.1 94.2 12.8 94.2 12.8 C 94.5 12.8 94.7 12.8 94.9 12.8 C 94.9 12.8 95.5 13.4 96.0 13.3 C 96.5 13.1 97.0 13.1 97.4 13.2 C 97.8 13.2 98.1 13.1 98.2 12.9 C 98.3 12.7 98.7 11.8 98.7 11.8 C 98.7 11.8 99.3 11.6 99.5 11.7 C 99.8 11.9 99.8 12.3 99.8 12.5 C 99.7 12.7 99.8 13.2 100.1 13.3 C 100.5 13.3 102.1 13.8 102.3 13.5 C 102.6 13.3 102.5 12.9 102.7 12.8 C 102.9 12.7 103.9 12.7 104.0 12.9 C 104.1 13.1 104.0 13.6 104.3 13.6 C 104.7 13.5 105.3 13.7 105.3 13.5 C 105.3 13.4 105.5 13.3 105.5 13.0 C 105.5 12.7 106.1 12.5 106.2 12.3 C 106.4 12.2 106.8 12.1 106.8 12.1 C 107.0 12.3 107.2 12.5 107.4 12.6 C 107.4 12.6 107.1 13.1 106.9 13.2 C 106.7 13.3 107.0 13.6 107.2 13.7 C 107.4 13.7 108.5 13.6 108.5 13.6 C 108.6 13.2 108.6 12.9 108.6 12.5 C 108.9 12.4 109.2 12.3 109.5 12.2 C 109.5 12.2 109.3 13.6 109.9 13.6 C 110.4 13.6 111.1 13.6 111.1 13.6 C 111.1 13.6 111.7 13.1 111.8 13.0 C 112.0 13.0 112.0 11.8 112.0 11.8 C 112.0 11.3 111.9 10.9 111.9 10.4 C 111.9 10.4 111.2 9.9 110.9 10.1 C 110.5 10.3 110.8 10.8 110.7 11.0 C 110.7 11.3 110.1 11.5 110.1 11.5 C 109.9 11.2 109.6 11.0 109.4 10.7 C 109.4 10.7 109.2 10.5 108.9 10.3 C 108.7 10.0 107.8 9.9 107.6 10.0 C 107.3 10.1 107.1 10.4 106.8 10.6 C 106.5 10.9 106.5 11.3 106.2 10.9 C 105.8 10.6 105.6 10.3 105.4 10.3 C 105.3 10.3 104.5 10.7 104.5 10.7 C 104.3 10.8 104.0 10.9 103.8 11.0 C 103.8 11.0 103.2 11.3 103.1 11.0 C 103.1 10.7 101.9 11.0 101.9 11.0 C 101.9 11.0 102.0 10.2 101.7 10.1 C 101.4 9.9 100.9 9.7 100.4 9.9 C 99.9 10.0 99.5 10.8 99.5 10.8 C 99.4 10.6 99.2 10.4 99.1 10.2 C 98.6 10.1 98.2 10.1 97.7 10.0 C 97.7 10.0 96.7 10.1 96.7 10.2 C 96.7 10.3 96.8 11.0 96.7 11.2 C 96.7 11.4 96.1 11.6 96.1 11.4 C 96.0 11.2 95.5 10.5 95.5 10.5 C 95.5 10.5 95.1 10.1 94.8 10.1 C 94.5 10.0 94.0 10.3 93.9 10.4 C 93.8 10.5 93.3 11.0 93.3 11.0 C 93.1 10.8 93.0 10.6 92.9 10.4 C 92.9 10.4 92.1 10.7 91.2 10.1 C 91.2 10.1 91.2 10.1 91.2 10.1 Z M 112.3 10.0 C 111.3 10.0 112.0 12.7 112.4 13.2 C 112.8 13.7 113.5 13.4 114.3 13.5 C 115.0 13.6 114.7 12.8 115.2 12.5 C 115.6 12.3 115.4 12.8 115.6 13.2 C 115.8 13.6 116.9 13.2 117.6 13.3 C 118.2 13.3 118.9 12.4 119.5 12.4 C 120.0 12.3 119.0 11.9 120.0 12.0 C 120.9 12.0 120.5 12.5 119.4 12.8 C 118.2 13.1 119.8 13.3 120.4 13.4 C 121.0 13.5 122.0 13.1 122.5 13.1 C 123.0 13.2 122.4 12.5 123.1 12.5 C 123.8 12.6 123.4 13.2 124.1 13.3 C 124.8 13.5 124.7 12.8 125.1 12.7 C 125.5 12.5 125.4 12.9 125.7 13.0 C 126.0 13.0 126.5 13.2 127.1 13.1 C 127.8 12.9 127.6 12.7 127.9 12.7 C 128.2 12.6 128.7 12.6 128.7 12.6 C 128.8 12.8 128.8 13.1 128.9 13.3 C 128.9 13.3 130.1 13.3 130.4 13.4 C 130.8 13.4 131.6 13.1 131.4 13.0 C 131.2 12.9 132.0 12.4 132.2 12.5 C 132.3 12.6 132.9 13.0 133.4 13.1 C 133.8 13.2 133.7 11.5 133.7 11.3 C 133.7 11.0 133.9 10.1 133.5 10.0 C 133.2 9.9 132.9 10.3 132.9 10.0 C 133.0 9.8 131.9 10.0 131.6 10.0 C 131.3 10.0 131.0 10.7 131.0 10.7 C 131.0 10.7 130.7 11.2 130.2 11.2 C 129.7 11.2 129.5 10.1 129.5 10.1 C 129.5 10.1 128.9 9.9 128.3 10.0 C 127.7 10.0 127.1 10.9 126.9 11.1 C 126.8 11.3 126.8 10.5 126.4 10.4 C 126.0 10.3 125.4 10.0 125.2 10.1 C 125.0 10.1 124.7 10.7 124.7 10.7 C 124.7 10.7 123.9 11.0 123.8 11.0 C 123.6 11.0 123.9 10.2 123.9 10.2 C 123.9 10.2 122.2 10.0 121.9 9.9 C 121.6 9.8 121.0 10.1 120.8 10.1 C 120.6 10.2 120.2 11.1 119.9 11.0 C 119.5 10.9 120.2 10.4 119.9 10.3 C 119.5 10.2 118.8 10.0 118.7 10.0 C 118.5 10.0 118.2 10.4 117.9 10.4 C 117.6 10.5 117.2 11.2 116.7 11.2 C 116.3 11.2 116.0 10.8 115.8 10.7 C 115.7 10.6 115.5 9.9 115.2 9.9 C 114.8 9.9 115.0 10.3 114.7 10.3 C 114.3 10.3 114.3 10.8 114.0 10.7 C 113.6 10.6 113.8 9.8 113.4 9.9 C 113.2 10.0 113.4 9.9 112.3 10.0 C 112.3 10.0 112.3 10.0 112.3 10.0 Z M 112.3 10.0 " fill="#5E416F"></path><path d="M 132.6 21.0 C 132.5 21.4 131.4 21.7 132.1 21.0 C 132.2 21.0 132.6 20.8 132.6 21.0 Z M 134.2 20.0 C 134.1 20.1 134.0 20.1 133.9 20.1 C 133.5 19.9 134.7 19.7 134.2 20.0 Z M 131.6 21.1 C 131.6 21.2 131.0 21.5 131.1 21.3 C 131.1 21.2 131.6 21.1 131.6 21.1 Z M 135.4 18.4 C 135.4 18.6 134.9 18.9 134.7 18.9 C 134.3 18.9 135.2 18.1 135.4 18.4 Z M 130.8 15.6 C 130.8 15.6 130.8 15.5 130.7 15.5 C 130.8 15.5 130.8 15.6 130.8 15.6 Z M 143.4 14.2 C 143.3 14.2 143.0 14.2 143.0 14.1 C 143.0 13.9 143.7 13.9 143.4 14.2 Z M 130.5 4.6 C 130.5 4.6 130.3 4.8 130.2 4.7 C 130.1 4.6 130.3 4.5 130.5 4.6 Z M 130.2 4.6 C 130.1 4.6 130.0 4.4 130.2 4.4 C 130.3 4.5 130.4 4.5 130.2 4.6 Z M 139.2 6.9 C 139.3 6.9 139.3 6.9 139.2 7.0 C 139.2 7.0 139.1 6.9 139.2 6.9 Z M 138.9 6.9 C 138.7 7.0 138.7 6.7 138.8 6.8 C 139.0 6.8 139.0 6.9 138.9 6.9 Z M 137.6 5.2 C 137.7 5.2 137.8 5.2 137.7 5.3 C 137.6 5.3 137.5 5.2 137.6 5.2 Z M 130.0 9.1 C 129.9 9.0 130.0 8.7 130.1 8.7 C 130.3 8.8 130.1 9.2 130.0 9.1 Z M 129.9 8.7 C 129.8 8.7 129.7 8.4 129.9 8.5 C 130.0 8.6 130.0 8.6 129.9 8.7 Z M 130.2 10.1 C 130.3 10.1 130.4 10.4 130.3 10.5 C 130.3 10.6 130.2 10.8 130.2 10.9 C 130.1 11.0 129.9 10.1 130.2 10.1 Z M 130.3 13.0 C 130.3 13.0 130.2 13.0 130.3 12.9 C 130.4 12.7 130.4 13.0 130.3 13.0 Z M 130.2 11.3 C 130.2 11.3 130.1 11.3 130.2 11.2 C 130.3 11.0 130.3 11.3 130.2 11.3 Z M 138.7 16.9 C 138.8 17.0 138.4 17.2 138.3 17.2 C 138.3 17.2 138.4 17.0 138.3 17.1 C 138.2 17.1 138.2 16.6 138.7 16.9 Z M 135.2 19.4 C 135.1 19.4 135.0 19.4 135.0 19.3 C 135.0 19.3 135.4 19.2 135.2 19.4 Z M 137.9 16.8 C 137.9 16.8 137.8 16.8 137.8 16.8 C 137.7 16.8 137.8 16.7 137.9 16.8 Z M 138.1 16.5 C 138.0 16.6 137.7 16.6 137.7 16.4 C 137.7 16.2 138.4 16.2 138.1 16.5 Z M 139.3 16.8 C 139.2 16.8 139.2 16.8 139.2 16.8 C 139.3 16.7 139.3 16.8 139.3 16.8 Z M 137.3 18.3 C 137.2 18.3 137.2 18.3 137.2 18.2 C 137.3 18.1 137.3 18.3 137.3 18.3 Z M 140.2 15.9 C 140.2 15.9 140.0 16.2 139.8 16.0 C 139.5 15.8 140.2 15.9 140.2 15.9 Z M 141.5 14.7 C 141.4 14.7 141.4 14.6 141.5 14.6 C 141.6 14.6 141.6 14.7 141.5 14.7 Z M 141.7 13.9 C 142.0 13.8 142.2 13.9 141.9 14.0 C 141.6 14.1 141.5 13.9 141.7 13.9 Z M 141.5 14.1 C 141.5 14.1 141.6 14.0 141.6 14.1 C 141.7 14.1 141.6 14.2 141.5 14.1 Z M 140.5 15.3 C 140.4 15.4 140.2 15.4 140.3 15.2 C 140.5 15.0 140.5 15.1 140.5 15.3 Z M 130.0 17.1 C 130.0 17.2 129.9 17.2 129.8 17.1 C 129.7 17.1 130.0 17.0 130.0 17.1 Z M 130.7 10.8 C 130.6 10.8 130.6 10.8 130.6 10.6 C 130.7 10.4 130.8 10.7 130.7 10.8 Z M 131.0 6.7 C 130.9 6.8 130.9 6.7 130.9 6.6 C 131.0 6.4 131.1 6.6 131.0 6.7 Z M 130.7 12.4 C 130.6 12.4 130.3 12.0 130.6 11.8 C 130.9 11.5 130.9 12.3 130.7 12.4 Z M 133.9 16.4 C 133.9 16.4 133.8 16.4 133.8 16.4 C 133.8 16.3 133.8 16.3 133.9 16.4 Z M 131.2 11.5 C 131.2 11.6 131.0 11.5 131.0 11.5 C 130.9 11.4 131.1 11.4 131.2 11.5 Z M 130.8 7.4 C 130.7 7.6 130.4 7.5 130.3 7.4 C 130.1 7.1 130.4 6.8 130.6 6.6 C 130.7 6.4 130.8 7.3 130.8 7.4 Z M 130.6 18.1 C 130.7 18.0 130.7 17.9 130.7 17.8 C 130.6 17.8 130.6 17.8 130.7 17.7 C 130.7 17.3 130.3 17.0 130.2 16.8 C 130.0 16.2 130.7 16.0 130.8 15.6 C 130.8 15.7 130.8 15.8 130.9 15.8 C 131.1 16.0 131.0 14.6 131.0 14.5 C 130.8 13.3 130.6 14.7 130.2 14.7 C 130.0 14.8 130.5 13.9 130.5 13.9 C 130.6 13.5 130.2 13.4 130.4 13.1 C 130.5 13.0 131.4 12.5 131.3 12.3 C 131.2 12.2 131.3 11.9 131.3 11.7 C 131.3 11.5 131.2 11.1 130.9 11.3 C 130.7 11.5 130.4 11.5 130.7 11.2 C 130.8 11.0 131.4 9.6 130.7 9.7 C 130.7 9.7 130.4 10.0 130.5 10.0 C 130.3 9.6 130.5 8.4 130.2 8.1 C 129.6 7.5 130.6 8.3 130.8 8.0 C 131.1 7.4 131.3 7.2 131.2 6.5 C 131.2 6.3 131.1 5.7 130.8 6.0 C 130.5 6.2 130.4 6.0 130.3 6.4 C 129.9 6.0 130.6 5.7 130.5 5.6 C 130.3 5.4 130.2 5.7 130.2 5.4 C 130.2 5.0 130.1 5.1 130.5 5.1 C 130.6 5.1 130.7 4.7 130.7 4.7 C 130.7 4.7 130.7 4.7 130.8 4.7 C 130.7 4.4 130.1 3.9 130.2 3.8 C 130.4 3.7 130.8 3.9 130.9 3.9 C 130.9 3.8 130.9 3.8 131.0 3.8 C 130.9 3.7 130.6 3.3 130.7 3.3 C 130.8 3.2 131.4 3.5 131.2 3.3 C 131.0 3.2 131.2 2.4 131.4 2.4 C 131.6 2.4 132.4 2.2 132.5 2.0 C 132.5 1.9 132.9 2.2 133.0 2.2 C 133.1 2.3 133.2 2.6 133.3 2.7 C 133.3 2.7 133.6 2.9 133.6 2.9 C 133.6 2.9 133.8 2.9 134.0 3.0 C 134.2 3.1 134.3 3.4 134.6 3.6 C 134.8 3.9 135.1 3.8 135.3 3.9 C 135.6 4.0 135.6 4.6 135.8 4.8 C 136.0 5.0 136.2 4.7 136.6 4.8 C 136.9 5.0 137.0 5.1 136.9 5.2 C 136.7 5.2 136.8 5.3 136.8 5.3 C 136.9 5.4 137.2 5.7 137.4 5.7 C 137.6 5.7 136.8 4.9 137.9 5.6 C 138.5 6.0 138.7 6.6 138.5 6.5 C 138.1 6.3 138.6 7.3 138.7 7.2 C 138.8 7.0 139.8 7.6 139.7 7.2 C 139.7 7.0 140.7 7.5 140.8 7.6 C 140.9 7.8 141.4 8.0 141.4 8.3 C 141.4 8.5 142.1 8.4 142.3 8.5 C 142.4 8.6 143.1 9.1 143.2 9.3 C 143.3 9.4 143.0 9.2 142.8 9.1 C 142.6 9.0 142.5 8.7 142.3 8.7 C 142.2 8.6 142.4 8.9 142.6 9.1 C 142.7 9.2 142.7 9.4 142.8 9.5 C 142.9 9.6 143.0 9.6 143.2 9.8 C 143.2 9.8 143.3 9.8 143.3 9.7 C 143.4 9.6 143.3 9.5 143.4 9.5 C 143.4 9.4 143.6 9.4 143.8 9.6 C 144.1 9.7 144.3 9.9 144.5 10.2 C 144.8 10.4 144.9 10.4 145.1 10.5 C 145.3 10.6 145.5 10.7 145.5 10.8 C 145.5 10.9 145.2 10.8 145.1 10.8 C 145.0 10.9 145.2 11.2 145.3 11.3 C 145.9 11.7 145.1 11.9 145.7 12.3 C 146.0 12.5 145.5 12.5 145.2 12.6 C 145.3 12.7 145.3 12.7 145.0 12.9 C 145.1 13.0 144.7 13.1 144.5 13.2 C 144.4 13.3 143.8 13.9 144.1 13.4 C 144.1 13.4 144.1 13.4 144.1 13.3 C 144.1 13.3 144.1 13.3 144.1 13.3 C 144.1 13.3 144.2 12.9 144.2 12.9 C 144.2 12.9 144.1 13.3 144.1 13.3 C 144.0 13.3 143.8 13.2 143.7 13.2 C 143.7 13.2 143.7 13.3 143.7 13.3 C 143.7 13.3 143.7 13.3 143.7 13.4 C 143.7 13.4 143.7 13.4 143.7 13.4 C 143.7 13.5 143.7 13.5 143.6 13.5 C 143.4 13.8 142.7 13.9 142.4 14.0 C 142.7 13.0 141.6 13.7 141.3 14.0 C 140.9 14.3 141.4 15.1 141.6 14.9 C 141.3 15.1 141.2 15.0 141.0 14.9 C 141.0 14.9 140.4 14.6 140.5 14.6 C 139.7 14.7 140.2 15.3 140.1 15.4 C 139.9 15.6 139.7 15.8 139.6 15.9 C 139.4 16.1 139.7 16.1 139.6 16.2 C 139.6 16.7 138.8 16.4 138.6 16.4 C 138.7 16.3 138.9 16.1 139.0 15.9 C 138.8 16.2 138.5 15.9 138.4 16.0 C 138.1 16.0 137.9 16.2 137.7 16.3 C 137.4 16.6 137.1 16.9 136.7 17.1 C 136.9 17.1 137.7 17.2 137.7 17.2 C 137.6 17.3 137.2 17.4 137.5 17.6 C 138.0 17.9 136.9 18.2 136.8 18.3 C 136.3 18.5 136.0 19.2 135.3 19.0 C 135.3 19.0 135.9 18.5 135.8 18.4 C 135.4 18.1 135.1 18.0 134.7 18.4 C 134.6 18.5 134.1 19.2 134.1 19.2 C 134.1 19.1 135.4 19.7 134.6 19.7 C 134.4 19.7 134.6 19.4 134.4 19.5 C 134.1 19.5 133.8 19.7 133.6 19.8 C 133.6 19.9 133.1 20.0 133.1 20.0 C 133.1 20.2 133.2 20.4 133.1 20.5 C 133.0 20.7 132.8 20.7 132.7 20.5 C 132.7 20.5 132.7 20.5 132.7 20.5 C 132.6 20.5 132.6 20.5 132.5 20.4 C 132.5 20.4 132.4 20.5 132.2 20.4 C 132.2 20.4 132.3 20.3 132.5 20.3 C 132.5 20.2 132.4 20.2 132.4 20.1 C 132.2 20.3 132.1 20.4 132.1 20.5 C 131.9 20.9 132.0 21.0 131.3 20.9 C 130.7 20.8 130.4 19.5 130.5 18.7 C 130.5 18.5 130.5 18.4 130.6 18.1 Z M 143.4 10.2 C 143.4 10.2 143.4 10.2 143.4 10.2 C 143.3 10.2 143.3 10.3 143.2 10.4 C 143.4 10.5 143.3 10.2 143.4 10.3 C 143.6 10.5 143.6 10.4 143.4 10.2 Z M 143.3 12.0 C 143.4 12.0 143.4 12.0 143.4 11.9 C 143.3 11.9 143.3 12.0 143.3 12.0 Z M 143.6 12.8 C 143.8 12.6 143.3 12.5 143.0 12.8 C 143.3 12.8 143.5 12.8 143.6 12.8 Z M 143.3 13.4 C 143.3 13.4 143.3 13.3 143.3 13.3 C 143.2 13.2 143.1 13.4 143.0 13.3 C 143.0 13.2 143.2 13.0 143.0 13.0 C 143.0 13.0 142.9 13.0 142.9 13.0 C 142.8 13.1 142.8 13.1 142.8 13.1 C 142.8 13.3 143.1 13.5 143.3 13.4 Z M 142.1 10.1 C 142.2 10.1 142.1 10.0 142.1 10.0 C 142.0 10.0 141.9 10.1 142.1 10.1 Z M 141.1 8.7 C 141.2 8.8 141.3 8.9 141.3 8.7 C 141.3 8.5 141.1 8.5 141.1 8.7 Z M 139.2 10.8 C 139.2 10.7 139.2 10.7 139.1 10.7 C 139.0 10.6 139.1 10.8 139.2 10.8 Z M 139.1 12.2 C 139.0 12.4 139.2 12.5 139.2 12.4 C 139.2 12.3 139.1 12.2 139.1 12.2 Z M 139.3 8.9 C 139.1 8.8 139.2 8.9 139.3 8.9 C 139.4 8.9 139.4 8.9 139.3 8.9 Z M 139.6 10.9 C 139.5 10.7 139.4 10.8 139.4 10.8 C 139.3 10.8 139.3 11.0 139.5 11.0 C 139.6 11.1 139.7 11.0 139.6 10.9 Z M 139.7 12.1 C 139.3 12.3 139.4 12.5 139.8 12.2 C 140.2 11.9 139.9 12.0 139.7 12.1 Z M 140.4 7.7 C 140.4 7.7 140.6 7.8 140.6 7.8 C 140.6 7.8 140.2 7.4 140.4 7.7 Z M 139.6 15.5 C 139.7 15.5 139.7 15.3 139.5 15.4 C 139.3 15.4 139.4 15.6 139.6 15.5 Z M 138.8 14.9 C 139.1 15.1 139.4 15.0 139.4 15.1 C 139.4 15.0 139.3 14.8 139.4 14.7 C 139.5 14.5 140.0 14.6 140.1 14.2 C 140.3 13.9 139.7 14.2 139.6 14.3 C 139.7 14.2 139.7 14.1 139.7 14.0 C 139.6 14.0 139.5 14.0 139.4 14.1 C 139.4 14.3 138.5 14.7 138.8 14.9 Z M 138.8 11.3 C 139.0 11.4 139.1 11.3 139.0 11.1 C 138.9 11.0 138.8 10.9 138.7 10.9 C 138.7 11.0 138.7 11.3 138.8 11.3 Z M 138.7 10.2 C 138.9 10.2 138.8 10.1 138.7 10.1 C 138.4 10.0 138.6 10.3 138.7 10.2 Z M 136.7 5.5 C 136.5 5.5 136.7 5.7 136.8 5.6 C 136.8 5.5 136.7 5.5 136.7 5.5 Z M 136.7 7.3 C 136.4 7.3 136.6 7.6 136.7 7.6 C 136.8 7.6 136.9 7.4 136.7 7.3 Z M 137.8 8.5 C 137.7 8.4 137.8 8.6 137.9 8.6 C 138.0 8.5 137.9 8.5 137.8 8.5 Z M 137.9 9.2 C 137.8 9.1 137.8 9.3 138.0 9.3 C 138.1 9.3 138.1 9.2 137.9 9.2 Z M 137.4 15.2 C 137.4 15.2 137.3 14.9 137.2 15.2 C 137.1 15.4 137.1 15.4 137.4 15.2 Z M 137.9 13.1 C 138.1 12.9 138.2 12.8 138.0 12.2 C 137.8 11.6 137.7 11.8 137.6 12.2 C 137.5 12.5 137.3 11.5 137.1 12.2 C 137.0 12.5 137.7 13.2 137.9 13.1 Z M 136.8 9.2 C 137.0 9.6 137.6 9.5 137.3 9.3 C 136.9 9.0 136.7 8.9 136.8 9.2 Z M 136.8 9.0 C 136.9 9.0 136.9 8.9 136.7 8.9 C 136.6 8.8 136.7 9.0 136.8 9.0 Z M 137.1 17.8 C 137.7 17.3 136.7 17.3 136.7 17.3 C 136.0 17.6 136.5 18.4 137.1 17.8 Z M 131.1 5.0 C 131.1 5.1 131.1 5.1 131.1 5.1 C 131.1 5.1 131.1 5.1 131.1 5.2 C 131.2 5.3 131.3 5.0 131.3 5.0 C 131.2 5.0 131.1 5.0 131.1 5.0 Z M 130.9 8.9 C 130.9 8.7 130.9 8.6 130.8 8.5 C 130.5 8.6 130.4 9.7 131.0 9.3 C 131.1 9.2 131.6 8.5 131.3 8.4 C 131.2 8.4 130.9 9.3 130.9 8.9 Z M 131.4 7.7 C 131.3 8.1 131.8 7.3 131.6 7.4 C 131.5 7.4 131.4 7.5 131.4 7.7 Z M 132.5 4.3 C 132.2 3.7 131.3 3.8 131.8 4.7 C 132.2 5.7 132.6 5.7 132.5 5.3 C 132.4 4.8 132.8 5.2 132.5 4.3 Z M 132.4 9.3 C 131.8 9.2 132.0 9.5 132.5 9.6 C 132.6 9.7 132.8 9.3 132.4 9.3 Z M 132.5 10.7 C 132.5 10.9 132.5 10.8 132.6 10.7 C 132.7 10.6 132.6 10.5 132.5 10.7 Z M 133.4 3.3 C 133.3 3.0 133.0 2.9 133.2 2.9 C 133.3 2.9 133.2 2.8 133.1 2.7 C 133.0 2.5 133.0 2.8 133.0 3.0 C 133.0 3.1 133.5 3.5 133.4 3.3 Z M 135.6 8.6 C 135.5 8.6 135.5 8.7 135.6 8.7 C 135.7 8.7 135.7 8.7 135.6 8.6 Z M 136.3 13.9 C 136.3 13.9 136.2 13.8 136.2 13.9 C 136.1 14.0 136.1 14.0 136.3 13.9 Z M 136.1 18.2 C 136.2 18.1 135.9 18.0 135.9 17.8 C 135.9 17.7 136.1 17.9 136.1 17.9 C 136.1 17.8 136.0 17.3 135.8 17.7 C 135.7 17.8 135.8 18.5 136.1 18.2 Z M 135.4 10.1 C 135.6 10.3 135.8 9.4 136.0 9.6 C 136.1 9.7 136.2 9.6 135.9 9.4 C 135.8 9.2 135.2 9.9 135.4 10.1 Z M 135.3 7.8 C 135.3 8.0 135.7 8.4 135.6 8.1 C 135.5 7.9 135.3 7.7 135.4 7.7 C 135.6 7.7 135.5 7.7 135.4 7.5 C 135.3 7.4 135.3 7.7 135.3 7.8 Z M 135.1 4.1 C 135.2 4.2 135.4 4.3 135.3 4.1 C 135.3 4.0 135.1 4.0 135.1 4.1 Z M 134.9 14.5 C 135.0 14.4 134.9 14.3 134.7 14.5 C 134.6 14.6 134.8 14.7 134.9 14.5 Z M 134.5 4.4 C 134.7 4.7 134.5 4.3 134.7 4.4 C 134.9 4.6 134.9 4.5 134.7 4.3 C 134.5 4.1 134.3 4.2 134.5 4.4 Z M 134.3 18.0 C 134.3 17.9 134.2 17.7 134.2 17.8 C 134.1 17.9 134.3 18.1 134.3 18.0 Z M 133.8 16.6 C 133.8 16.5 133.9 16.5 133.9 16.5 C 134.8 15.9 133.2 16.4 133.8 16.6 Z M 133.9 14.4 C 134.0 14.7 134.1 14.3 134.1 14.3 C 134.0 14.3 133.9 14.3 133.9 14.4 Z M 133.9 12.0 C 133.7 12.0 133.8 12.2 133.9 12.2 C 134.0 12.1 134.0 12.1 133.9 12.0 Z M 133.5 19.7 C 133.6 19.7 133.6 19.6 133.5 19.6 C 133.4 19.6 133.3 19.7 133.5 19.7 Z M 133.4 13.8 C 133.4 13.8 133.4 13.8 133.4 13.7 C 133.4 13.6 133.3 13.7 133.4 13.8 Z M 133.3 6.5 C 133.4 6.6 133.5 6.7 133.5 6.7 C 133.6 6.6 133.7 6.2 133.8 6.2 C 133.8 6.2 133.8 6.2 133.9 6.2 C 133.9 6.2 133.9 6.2 133.9 6.2 C 134.0 6.2 134.0 6.3 134.0 6.3 C 134.0 6.4 134.0 6.4 134.0 6.5 C 134.2 6.4 134.3 6.2 134.2 6.1 C 134.0 6.0 133.7 5.9 133.5 5.9 C 133.4 6.0 133.4 6.1 133.3 6.2 C 133.3 6.2 133.4 6.2 133.4 6.2 C 133.5 6.3 133.6 6.5 133.5 6.5 C 133.4 6.5 133.3 6.4 133.3 6.4 C 133.3 6.4 133.3 6.5 133.3 6.5 Z M 133.0 12.9 C 133.1 13.0 133.2 12.9 133.2 12.7 C 133.3 12.5 132.9 12.7 133.0 12.9 Z M 133.2 19.4 C 133.2 19.3 133.2 19.3 133.1 19.2 C 133.1 19.3 133.1 19.3 133.1 19.4 C 133.1 19.5 133.0 19.6 133.0 19.7 C 133.2 19.7 133.3 19.7 133.2 19.4 Z M 132.5 17.4 C 132.6 17.4 132.5 18.3 132.7 18.1 C 133.0 17.9 133.3 18.3 133.2 17.6 C 133.1 17.3 132.7 17.1 132.6 16.8 C 132.3 15.2 132.2 17.2 132.1 17.6 C 132.1 17.7 132.5 17.2 132.5 17.4 Z M 132.1 15.3 C 131.9 15.3 131.8 15.5 131.8 15.6 C 131.8 16.0 132.2 15.4 132.1 15.3 Z M 131.8 19.6 C 131.9 19.6 131.9 19.6 131.9 19.6 C 131.9 19.6 131.9 19.6 131.8 19.6 C 131.8 19.6 131.8 19.6 131.8 19.6 Z M 131.7 20.7 C 132.1 20.3 131.3 20.3 131.1 20.4 C 130.8 20.6 131.4 20.9 131.7 20.7 Z M 131.4 16.5 C 131.4 16.2 130.5 15.8 130.5 16.4 C 130.6 16.9 131.3 17.2 131.4 16.5 Z M 130.2 13.3 C 130.3 13.4 130.2 13.7 130.0 13.6 C 130.0 13.5 130.2 13.2 130.2 13.3 Z M 129.7 18.0 C 129.8 18.0 129.8 18.1 129.8 18.1 C 129.7 18.1 129.7 18.1 129.7 18.0 Z M 130.4 17.6 C 130.3 17.7 130.3 17.9 130.2 18.1 C 130.2 18.2 130.1 17.8 130.1 17.8 C 130.1 17.7 130.4 17.6 130.4 17.6 Z M 130.5 15.1 C 130.4 15.2 130.3 15.0 130.4 14.9 C 130.4 14.8 130.5 15.0 130.5 15.1 Z M 130.2 15.7 C 130.3 15.6 130.4 15.7 130.4 15.8 C 130.3 15.9 130.2 15.8 130.2 15.7 Z M 130.8 14.6 C 130.8 14.9 130.9 15.3 130.7 15.2 C 130.5 15.2 130.6 14.1 130.8 14.6 Z M 130.8 14.6 " fill="#5E416F"></path></g></svg>