<?xml version="1.0" encoding="UTF-8" standalone="no"?><svg xmlns="http://www.w3.org/2000/svg" xmlns:xlink="http://www.w3.org/1999/xlink" clip-rule="evenodd" stroke-miterlimit="10" viewBox="0 0 199 39"><desc>SVG generated by Keynote</desc><defs></defs><g transform="matrix(1.00, 0.00, -0.00, -1.00, 0.0, 39.0)"><path d="M 42.6 17.8 C 42.3 18.0 41.3 17.7 41.0 17.9 M 42.6 17.8 C 41.7 16.3 39.9 16.2 37.6 16.0 C 35.0 15.9 37.7 17.3 37.4 17.9 C 34.0 18.5 34.0 17.4 34.5 15.9 C 33.3 16.9 29.4 15.0 30.2 17.0 C 35.6 17.0 26.5 17.5 30.9 18.6 C 31.4 18.9 30.1 19.4 29.6 19.5 C 31.1 20.3 28.6 21.2 31.0 21.8 C 31.3 23.1 30.9 22.5 32.4 23.5 C 33.0 23.6 32.8 23.2 32.7 22.9 C 32.9 21.5 34.5 23.7 35.8 22.8 C 36.9 24.7 38.1 22.5 37.1 21.7 C 38.2 21.9 39.5 23.9 40.7 22.5 C 41.4 23.5 44.4 22.8 42.6 21.6 C 41.2 20.9 42.7 20.3 42.9 19.9 C 42.5 19.4 40.6 20.1 40.3 19.7 C 40.9 19.4 43.3 18.7 40.7 18.7 C 41.6 18.1 40.3 17.7 42.6 17.8 C 42.6 17.8 42.6 17.8 42.6 17.8 Z M 33.6 16.7 C 33.6 16.2 34.4 16.7 33.6 16.7 C 33.6 16.7 33.6 16.7 33.6 16.7 Z M 39.7 23.5 C 39.7 23.0 40.6 23.5 39.7 23.5 C 39.7 23.5 39.7 23.5 39.7 23.5 Z M 33.1 23.0 C 33.1 22.4 34.0 23.0 33.1 23.0 C 33.1 23.0 33.1 23.0 33.1 23.0 Z M 35.9 17.0 C 37.4 17.5 34.7 17.7 34.5 17.3 C 34.8 17.3 35.6 16.6 35.9 17.0 C 35.9 17.0 35.9 17.0 35.9 17.0 Z M 36.1 20.0 C 36.2 19.8 36.8 19.7 36.8 20.2 C 36.4 20.4 36.0 20.1 36.1 20.0 C 36.1 20.0 36.1 20.0 36.1 20.0 Z M 29.1 17.9 C 29.2 17.7 29.8 17.6 29.7 18.1 C 29.3 18.3 29.0 18.1 29.1 17.9 C 29.1 17.9 29.1 17.9 29.1 17.9 Z M 37.6 18.4 C 37.9 18.5 38.0 18.9 37.6 19.0 C 37.4 18.8 36.4 18.7 37.6 18.4 C 37.6 18.4 37.6 18.4 37.6 18.4 Z M 39.8 16.7 C 41.0 16.9 38.6 17.7 38.6 17.5 C 38.2 17.1 39.1 16.3 39.8 16.7 C 39.8 16.7 39.8 16.7 39.8 16.7 Z M 38.2 19.1 C 39.2 19.3 37.8 19.4 38.2 19.1 C 38.2 19.1 38.2 19.1 38.2 19.1 Z M 30.0 21.6 C 31.0 21.9 29.6 22.0 30.0 21.6 C 30.0 21.6 30.0 21.6 30.0 21.6 Z M 35.3 23.2 C 36.2 23.5 34.8 23.6 35.3 23.2 C 35.3 23.2 35.3 23.2 35.3 23.2 Z M 33.3 18.0 C 31.6 18.0 33.1 16.7 33.3 18.0 C 33.3 18.0 33.3 18.0 33.3 18.0 Z M 42.5 16.6 C 40.8 16.5 42.3 15.3 42.5 16.6 C 42.5 16.6 42.5 16.6 42.5 16.6 Z M 190.8 17.0 C 192.4 16.7 186.3 15.1 188.6 17.1 C 189.3 18.7 185.1 18.6 186.2 17.0 C 184.9 16.9 184.9 16.8 184.2 17.5 C 184.0 16.3 181.1 15.7 180.1 16.4 C 179.5 17.4 182.1 16.5 180.4 17.6 C 176.8 17.9 180.6 18.7 179.3 20.1 C 179.1 20.1 179.1 19.4 178.7 19.8 C 178.6 21.1 180.7 21.9 179.7 22.9 C 180.3 22.7 182.9 24.1 181.8 23.0 C 181.4 21.8 184.7 24.4 184.4 22.4 C 185.3 23.4 186.2 22.1 187.0 23.2 C 187.7 23.4 187.7 22.4 187.6 22.1 C 187.5 21.2 188.3 24.2 189.4 22.6 C 189.5 23.1 192.4 22.9 190.2 22.2 C 190.8 22.3 194.2 22.7 192.4 21.0 C 190.1 20.2 194.8 19.1 192.1 19.1 C 190.0 18.9 189.6 19.2 191.1 18.3 C 191.6 18.4 194.0 18.2 192.0 17.4 C 191.5 17.7 190.5 17.5 190.8 17.0 C 190.8 17.0 190.8 17.0 190.8 17.0 Z M 191.3 19.6 C 190.0 19.7 191.2 18.9 191.3 19.6 C 191.3 19.6 191.3 19.6 191.3 19.6 Z M 186.8 23.6 C 185.6 23.7 186.8 22.9 186.8 23.6 C 186.8 23.6 186.8 23.6 186.8 23.6 Z M 187.0 16.6 C 186.4 17.1 186.2 15.3 187.0 16.6 C 187.0 16.6 187.0 16.6 187.0 16.6 Z M 188.9 22.1 C 188.8 22.1 189.1 21.9 189.3 21.8 C 189.3 21.9 189.0 22.1 188.9 22.1 C 188.9 22.1 188.9 22.1 188.9 22.1 Z M 184.9 16.6 C 183.2 17.5 184.6 15.1 184.9 16.6 C 184.9 16.6 184.9 16.6 184.9 16.6 Z M 181.3 18.3 C 181.1 20.1 179.4 17.9 181.3 18.3 C 181.3 18.3 181.3 18.3 181.3 18.3 Z M 183.8 22.3 C 184.2 21.9 184.2 22.6 183.8 22.3 C 183.8 22.3 183.8 22.3 183.8 22.3 Z M 191.8 22.6 C 192.1 22.2 192.1 22.8 191.8 22.6 C 191.8 22.6 191.8 22.6 191.8 22.6 Z M 181.6 22.2 C 181.7 21.5 182.2 22.5 181.6 22.2 C 181.6 22.2 181.6 22.2 181.6 22.2 Z M 186.7 17.3 C 188.3 15.8 188.7 19.4 186.7 17.3 C 186.7 17.3 186.7 17.3 186.7 17.3 Z M 189.7 17.2 C 190.8 16.9 189.5 18.1 188.9 17.8 C 189.0 17.7 189.5 17.2 189.7 17.2 C 189.7 17.2 189.7 17.2 189.7 17.2 Z M 184.9 17.5 C 186.1 16.7 186.0 17.9 184.9 17.5 C 184.9 17.5 184.9 17.5 184.9 17.5 Z M 187.8 16.7 C 188.4 16.8 187.3 16.9 187.8 16.7 C 187.8 16.7 187.8 16.7 187.8 16.7 Z M 182.7 16.0 C 183.2 16.1 182.2 16.1 182.7 16.0 C 182.7 16.0 182.7 16.0 182.7 16.0 Z M 191.1 16.4 C 191.6 16.6 190.6 16.6 191.1 16.4 C 191.1 16.4 191.1 16.4 191.1 16.4 Z M 183.1 16.9 C 183.0 17.6 184.6 19.0 181.7 17.8 C 181.2 17.3 182.4 16.4 183.1 16.9 C 183.1 16.9 183.1 16.9 183.1 16.9 Z M 46.9 17.8 C 40.7 15.8 42.2 19.4 41.9 20.0 C 41.0 21.0 41.9 21.6 43.1 22.3 C 44.4 24.6 45.1 20.0 46.0 22.2 C 47.7 25.3 47.9 19.6 48.6 22.8 C 48.4 23.6 50.8 22.9 50.6 22.7 C 51.8 24.3 53.5 21.5 53.5 21.3 C 54.4 21.7 54.4 24.5 57.0 22.4 C 58.9 21.6 59.7 24.5 59.2 22.5 C 60.6 24.7 60.2 21.9 61.6 22.6 C 62.6 23.8 61.7 20.8 63.4 23.1 C 64.2 21.2 62.6 24.3 67.4 23.0 C 65.1 22.8 69.7 21.5 68.7 22.7 C 67.1 24.1 71.0 22.2 73.2 23.0 C 73.8 22.4 76.4 20.7 76.0 22.5 C 78.2 24.6 78.3 21.2 79.2 23.0 C 80.0 23.7 80.3 22.1 80.8 22.3 C 81.6 23.6 82.3 22.7 85.1 23.1 C 91.3 23.7 86.0 19.7 88.4 19.3 C 88.8 18.7 85.3 14.4 86.7 17.6 C 86.3 16.7 81.2 20.0 83.7 16.5 C 81.8 17.9 84.2 15.1 80.3 16.8 C 85.6 19.2 74.3 17.7 79.4 16.5 C 78.5 15.8 76.4 16.0 77.9 16.6 C 78.5 18.8 74.3 15.5 76.4 18.3 C 73.2 17.5 74.0 20.0 73.1 18.2 C 72.4 15.3 73.3 19.0 71.7 18.2 C 67.8 18.1 70.8 14.7 68.5 17.0 C 64.7 15.5 67.7 18.3 66.4 18.7 C 66.0 20.7 62.5 17.1 65.4 16.8 C 63.9 17.9 65.1 15.8 63.4 17.1 C 64.7 19.0 61.2 15.1 61.7 16.6 C 60.2 17.1 61.0 18.2 60.5 18.3 C 58.2 18.3 58.9 16.4 58.5 17.8 C 57.9 18.6 56.9 16.1 56.6 16.8 C 58.9 16.9 54.6 18.8 54.4 17.7 C 55.8 17.6 53.7 15.2 52.7 16.7 C 53.9 20.9 50.7 15.7 49.7 17.1 C 50.7 19.4 44.5 17.4 46.8 16.3 C 46.7 16.5 46.9 17.9 46.9 17.8 M 55.9 17.1 C 57.8 17.3 53.8 17.5 55.9 17.1 M 55.8 16.5 C 56.7 17.3 54.0 15.9 55.9 16.2 C 55.9 16.2 55.7 16.4 55.8 16.5 M 63.8 16.4 C 63.5 17.0 62.7 16.0 63.8 16.4 M 65.3 17.8 C 66.6 18.4 63.6 17.9 65.3 17.8 M 82.9 17.4 C 81.2 20.8 81.1 15.4 82.9 17.4 M 71.3 16.7 C 69.1 17.1 72.0 15.2 71.3 16.7 M 70.6 17.5 C 69.6 18.1 70.4 16.8 70.6 17.5 M 79.6 17.4 C 79.7 17.4 79.7 17.4 79.6 17.4 C 79.6 17.4 79.6 17.4 79.6 17.4 Z M 84.8 17.5 C 84.8 17.4 84.8 17.4 84.8 17.5 C 84.8 17.5 84.8 17.5 84.8 17.5 Z M 74.5 17.7 C 72.9 16.9 77.2 17.4 74.5 17.7 C 74.5 17.7 74.5 17.7 74.5 17.7 Z M 82.3 22.7 C 82.2 22.7 82.2 22.7 82.3 22.7 C 82.3 22.7 82.3 22.7 82.3 22.7 Z M 54.4 18.6 C 54.3 18.7 54.3 18.7 54.4 18.6 C 54.4 18.6 54.4 18.6 54.4 18.6 Z M 48.4 17.4 C 48.5 17.8 47.4 17.0 48.4 17.4 C 48.4 17.4 48.4 17.4 48.4 17.4 Z M 43.6 21.3 C 43.5 21.3 43.5 21.3 43.6 21.3 C 43.6 21.3 43.6 21.3 43.6 21.3 Z M 52.4 20.5 C 52.3 20.5 52.3 20.5 52.4 20.5 C 52.4 20.5 52.4 20.5 52.4 20.5 Z M 53.2 17.9 C 52.3 16.0 55.5 18.4 53.2 17.9 C 53.2 17.9 53.2 17.9 53.2 17.9 Z M 72.5 22.5 C 72.6 21.6 73.9 22.7 72.5 22.5 C 72.5 22.5 72.5 22.5 72.5 22.5 Z M 65.5 18.6 C 65.8 18.2 66.4 18.8 65.5 18.6 C 65.5 18.6 65.5 18.6 65.5 18.6 Z M 62.3 16.0 C 62.5 15.6 63.1 16.2 62.3 16.0 C 62.3 16.0 62.3 16.0 62.3 16.0 Z M 48.5 16.8 C 48.7 16.7 48.7 16.7 48.5 16.8 C 48.5 16.8 48.5 16.8 48.5 16.8 Z M 50.7 18.3 C 49.2 16.5 52.9 19.2 50.7 18.3 C 50.7 18.3 50.7 18.3 50.7 18.3 Z M 48.1 18.8 C 48.9 19.5 46.2 18.5 48.1 18.8 M 49.6 21.5 C 51.4 20.7 47.9 24.6 49.6 21.5 C 49.6 21.5 49.6 21.5 49.6 21.5 Z M 58.7 22.2 C 58.9 22.3 58.9 22.3 58.7 22.2 C 58.7 22.2 58.7 22.2 58.7 22.2 Z M 57.8 17.0 C 59.4 17.1 56.7 17.4 57.8 17.0 C 57.8 17.0 57.8 17.0 57.8 17.0 Z M 44.0 16.6 C 45.6 16.7 42.9 17.0 44.0 16.6 C 44.0 16.6 44.0 16.6 44.0 16.6 Z M 64.1 20.5 C 66.7 20.2 62.5 21.4 64.1 20.5 C 64.1 20.5 64.1 20.5 64.1 20.5 Z M 73.6 18.4 C 73.7 18.5 73.7 18.5 73.6 18.4 C 73.6 18.4 73.6 18.4 73.6 18.4 Z M 75.4 17.7 C 75.4 17.7 75.4 17.7 75.4 17.7 C 75.4 17.7 75.4 17.7 75.4 17.7 Z M 82.8 19.5 C 82.9 19.6 82.9 19.6 82.8 19.5 C 82.8 19.5 82.8 19.5 82.8 19.5 Z M 77.0 16.8 C 77.1 16.9 77.1 16.9 77.0 16.8 C 77.0 16.8 77.0 16.8 77.0 16.8 Z M 82.1 17.3 C 82.2 17.4 82.2 17.4 82.1 17.3 C 82.1 17.3 82.1 17.3 82.1 17.3 Z M 81.4 15.8 C 81.5 15.8 81.5 15.8 81.4 15.8 C 81.4 15.8 81.4 15.8 81.4 15.8 Z M 70.0 23.5 C 70.1 23.5 70.1 23.5 70.0 23.5 C 70.0 23.5 70.0 23.5 70.0 23.5 Z M 51.3 16.2 C 51.5 16.4 51.5 16.4 51.3 16.2 C 51.3 16.2 51.3 16.2 51.3 16.2 Z M 81.7 18.0 C 81.8 18.0 81.8 18.0 81.7 18.0 C 81.7 18.0 81.7 18.0 81.7 18.0 Z M 69.2 19.4 C 69.3 20.9 68.1 17.4 69.5 19.3 C 69.5 19.4 69.1 19.2 69.2 19.4 M 70.9 21.9 C 70.8 21.9 70.8 21.9 70.9 21.9 C 70.9 21.9 70.9 21.9 70.9 21.9 Z M 65.2 22.8 C 65.1 22.9 65.1 22.9 65.2 22.8 C 65.2 22.8 65.2 22.8 65.2 22.8 Z M 76.1 16.5 C 75.9 15.7 77.5 17.2 75.9 16.6 M 82.8 22.1 C 82.6 21.3 84.2 22.8 82.6 22.2 M 42.2 17.2 C 42.0 17.9 41.1 16.8 42.2 17.2 M 63.9 23.6 C 63.7 24.3 62.9 23.2 63.9 23.6 M 66.6 21.7 C 66.4 20.8 68.0 22.3 66.4 21.7 M 78.9 22.1 C 79.0 22.1 79.0 22.1 78.9 22.1 C 78.9 22.1 78.9 22.1 78.9 22.1 Z M 60.2 17.2 C 60.3 17.2 60.3 17.2 60.2 17.2 C 60.2 17.2 60.2 17.2 60.2 17.2 Z M 67.1 19.0 C 66.2 17.8 68.4 19.7 67.1 19.0 M 58.2 19.2 C 56.8 17.8 60.4 19.7 58.2 19.2 M 85.8 22.5 C 84.3 20.8 86.9 23.4 85.8 22.5 M 78.2 18.2 C 76.6 16.4 79.3 19.1 78.2 18.2 M 61.6 17.9 C 61.5 17.0 63.1 18.5 61.6 17.9 M 45.8 17.0 C 44.3 16.9 47.7 16.4 45.8 17.0 M 75.2 22.1 C 75.3 22.2 75.3 22.2 75.2 22.1 C 75.2 22.1 75.2 22.1 75.2 22.1 Z M 50.5 23.7 C 50.6 23.7 50.6 23.7 50.5 23.7 C 50.5 23.7 50.5 23.7 50.5 23.7 Z M 87.8 16.8 C 87.8 16.9 87.8 16.9 87.8 16.8 C 87.8 16.8 87.8 16.8 87.8 16.8 Z M 77.2 19.0 C 77.3 19.1 77.3 19.1 77.2 19.0 C 77.2 19.0 77.2 19.0 77.2 19.0 Z M 84.8 16.6 C 84.9 16.7 84.9 16.7 84.8 16.6 C 84.8 16.6 84.8 16.6 84.8 16.6 Z M 72.4 20.3 C 72.5 20.3 72.5 20.3 72.4 20.3 C 72.4 20.3 72.4 20.3 72.4 20.3 Z M 71.5 15.9 C 71.5 15.9 71.5 15.9 71.5 15.9 C 71.5 15.9 71.5 15.9 71.5 15.9 Z M 66.2 17.8 C 66.3 17.8 66.3 17.8 66.2 17.8 C 66.2 17.8 66.2 17.8 66.2 17.8 Z M 73.9 16.2 C 77.0 16.0 72.3 17.7 73.9 16.2 C 73.9 16.2 73.9 16.2 73.9 16.2 Z M 68.4 20.6 C 68.5 20.7 68.5 20.7 68.4 20.6 C 68.4 20.6 68.4 20.6 68.4 20.6 Z M 68.0 17.5 C 70.0 16.3 69.1 19.7 68.0 17.5 M 59.3 16.5 C 59.9 15.8 59.6 17.5 59.3 16.5 M 55.8 22.3 C 55.8 22.4 55.8 22.4 55.8 22.3 C 55.8 22.3 55.8 22.3 55.8 22.3 Z M 56.7 21.8 C 56.8 21.9 56.8 21.9 56.7 21.8 C 56.7 21.8 56.7 21.8 56.7 21.8 Z M 57.2 16.2 C 57.2 16.3 57.2 16.3 57.2 16.2 C 57.2 16.2 57.2 16.2 57.2 16.2 Z M 56.8 23.5 C 56.9 23.5 56.9 23.5 56.8 23.5 C 56.8 23.5 56.8 23.5 56.8 23.5 Z M 70.3 16.0 C 70.3 16.0 70.3 16.0 70.3 16.0 C 70.3 16.0 70.3 16.0 70.3 16.0 Z M 86.3 16.0 C 86.4 16.0 86.4 16.0 86.3 16.0 C 86.3 16.0 86.3 16.0 86.3 16.0 Z M 46.2 21.7 C 46.3 21.7 46.3 21.7 46.2 21.7 C 46.2 21.7 46.2 21.7 46.2 21.7 Z M 71.9 17.8 C 72.0 17.8 72.0 17.8 71.9 17.8 C 71.9 17.8 71.9 17.8 71.9 17.8 Z M 53.5 22.0 C 53.6 22.1 53.6 22.1 53.5 22.0 C 53.5 22.0 53.5 22.0 53.5 22.0 Z M 70.9 17.4 C 71.0 17.4 71.0 17.4 70.9 17.4 C 70.9 17.4 70.9 17.4 70.9 17.4 Z M 74.7 22.5 C 74.7 22.5 74.7 22.5 74.7 22.5 C 74.7 22.5 74.7 22.5 74.7 22.5 Z M 78.1 23.5 C 78.2 23.5 78.2 23.5 78.1 23.5 C 78.1 23.5 78.1 23.5 78.1 23.5 Z M 74.4 19.4 C 74.5 19.5 74.5 19.5 74.4 19.4 C 74.4 19.4 74.4 19.4 74.4 19.4 Z M 52.4 20.1 C 46.1 18.6 57.4 19.4 52.4 20.1 M 75.5 19.8 C 71.1 19.4 79.0 18.1 75.5 19.8 C 76.0 19.3 75.6 19.7 75.5 19.8 M 89.3 16.1 C 87.5 17.7 87.5 19.3 88.3 21.0 C 89.2 21.8 89.2 18.5 89.2 21.3 C 87.1 21.8 90.1 25.4 90.1 21.9 C 92.8 21.4 90.5 24.1 92.1 22.7 C 95.0 22.4 93.5 23.4 95.8 23.2 C 97.1 21.3 97.1 24.1 97.7 22.3 C 96.6 24.3 100.1 21.8 100.2 22.7 C 98.1 23.9 107.9 22.7 102.6 22.1 C 104.8 21.2 104.3 22.8 105.1 23.1 C 106.0 21.9 108.7 24.0 110.0 22.8 C 109.7 22.6 109.1 22.5 108.9 22.1 C 108.5 21.4 110.4 22.3 110.2 22.2 C 111.1 21.8 114.6 20.6 110.8 22.7 C 110.7 23.6 113.9 22.2 113.8 23.1 C 117.1 23.1 114.6 21.2 116.0 22.6 C 118.4 22.7 120.0 22.7 120.0 22.4 C 121.4 22.6 121.7 23.7 123.0 22.7 C 125.9 24.8 125.0 18.6 126.1 22.7 C 126.9 21.8 127.7 24.5 127.6 21.9 C 126.6 23.1 132.4 23.9 129.9 22.0 C 130.6 21.4 134.2 24.7 133.7 22.1 C 135.0 20.2 134.8 18.3 132.0 16.5 C 132.3 18.0 128.9 15.0 131.1 17.5 C 133.5 18.4 126.6 18.4 128.0 17.5 C 128.4 14.5 124.7 19.4 123.2 17.2 C 124.4 18.4 118.7 19.0 120.4 16.8 C 119.3 16.6 119.1 17.6 117.9 16.3 C 121.3 16.5 116.6 18.7 116.8 17.3 C 117.4 16.5 112.3 15.8 112.9 17.1 C 114.6 20.2 111.6 16.4 110.7 17.6 C 107.9 18.3 111.1 15.0 109.1 17.3 C 108.5 16.9 104.8 16.9 107.1 16.2 C 108.0 16.5 104.9 19.6 104.5 17.0 C 108.5 15.5 100.0 16.2 101.3 17.0 C 107.4 18.4 94.8 18.6 99.6 17.2 C 96.9 15.7 100.4 16.6 97.1 17.2 C 97.5 18.1 94.9 18.9 95.5 17.2 C 95.0 14.7 94.6 20.6 92.5 17.1 C 92.2 15.6 88.4 18.2 89.9 16.6 C 90.0 16.4 89.4 16.1 89.3 16.1 M 90.5 16.4 C 90.1 17.0 89.8 15.7 90.5 16.4 M 90.0 16.9 C 90.0 16.9 90.0 16.9 90.0 16.9 C 90.0 16.9 90.0 16.9 90.0 16.9 Z M 96.6 17.3 C 96.5 17.3 96.5 17.3 96.6 17.3 C 96.6 17.3 96.6 17.3 96.6 17.3 Z M 101.7 23.7 C 101.7 23.6 101.7 23.6 101.7 23.7 C 101.7 23.7 101.7 23.7 101.7 23.7 Z M 100.9 17.5 C 100.9 17.5 100.9 17.5 100.9 17.5 C 100.9 17.5 100.9 17.5 100.9 17.5 Z M 94.2 17.7 C 94.2 17.7 94.2 17.7 94.2 17.7 C 94.2 17.7 94.2 17.7 94.2 17.7 Z M 100.5 16.6 C 100.8 17.5 99.0 15.9 100.6 16.4 C 100.6 16.5 100.3 16.5 100.5 16.6 M 106.2 16.2 C 106.2 16.3 106.2 16.3 106.2 16.2 M 118.7 23.6 C 118.7 23.7 118.7 23.7 118.7 23.6 M 119.7 16.1 C 119.8 16.2 119.8 16.2 119.7 16.1 M 111.8 17.1 C 113.6 17.0 112.2 17.6 111.8 17.1 M 124.3 16.6 C 122.1 16.0 126.6 16.1 124.3 16.6 M 126.4 16.1 C 126.6 16.2 126.6 16.2 126.4 16.1 M 116.5 16.5 C 116.5 16.5 116.5 16.5 116.5 16.5 C 116.5 16.5 116.5 16.5 116.5 16.5 Z M 111.1 16.8 C 108.8 16.2 113.4 15.9 111.1 16.8 M 97.3 16.4 C 98.6 16.0 97.3 17.6 97.3 16.4 M 94.8 17.0 C 94.7 17.0 94.7 17.0 94.8 17.0 C 94.8 17.0 94.8 17.0 94.8 17.0 Z M 120.8 16.6 C 120.7 16.6 120.7 16.6 120.8 16.6 C 120.8 16.6 120.8 16.6 120.8 16.6 Z M 123.3 16.4 C 123.2 16.4 123.2 16.4 123.3 16.4 C 123.3 16.4 123.3 16.4 123.3 16.4 Z M 127.5 23.4 C 127.4 23.4 127.4 23.4 127.5 23.4 C 127.5 23.4 127.5 23.4 127.5 23.4 Z M 96.7 19.9 C 95.0 19.4 98.4 17.6 98.0 19.3 C 98.2 20.0 96.9 19.7 96.7 19.9 M 109.4 18.9 C 109.9 21.2 107.8 15.6 109.4 18.9 M 126.7 17.6 C 128.4 20.5 124.6 15.7 126.7 17.6 M 130.1 17.2 C 131.1 17.7 123.7 17.5 128.9 16.7 C 129.4 16.3 129.8 16.8 130.1 17.2 M 106.2 17.3 C 106.7 18.6 103.6 16.8 106.2 17.3 M 116.7 21.3 C 117.5 20.4 119.7 19.7 118.7 21.1 C 118.7 22.9 115.7 22.0 116.7 21.3 M 91.0 17.7 C 92.4 15.6 91.0 19.5 91.0 17.7 M 97.7 17.9 C 97.7 17.8 97.7 17.8 97.7 17.9 C 97.7 17.9 97.7 17.9 97.7 17.9 Z M 100.2 17.6 C 100.4 17.7 100.4 17.7 100.2 17.6 M 92.1 15.9 C 92.2 16.1 92.2 16.1 92.1 15.9 M 116.6 19.1 C 116.8 19.2 116.8 19.2 116.6 19.1 M 111.3 17.7 C 113.8 19.8 109.9 18.1 111.3 17.7 M 105.1 21.7 C 105.9 22.7 103.5 21.8 105.1 21.7 M 115.5 16.9 C 117.3 18.9 113.0 18.8 115.5 16.9 M 110.0 17.5 C 110.2 17.5 110.2 17.5 110.0 17.5 C 110.0 17.5 110.0 17.5 110.0 17.5 Z M 117.3 21.5 C 117.3 21.5 117.3 21.5 117.3 21.5 C 117.3 21.5 117.3 21.5 117.3 21.5 Z M 118.1 21.4 C 118.0 21.4 118.0 21.4 118.1 21.4 C 118.1 21.4 118.1 21.4 118.1 21.4 Z M 117.7 16.7 C 117.6 16.7 117.6 16.7 117.7 16.7 C 117.7 16.7 117.7 16.7 117.7 16.7 Z M 94.6 22.4 C 96.4 22.5 93.2 22.7 94.6 22.4 C 94.6 22.4 94.6 22.4 94.6 22.4 Z M 102.6 16.6 C 105.5 18.1 100.5 18.1 102.6 16.6 C 102.6 16.6 102.6 16.6 102.6 16.6 Z M 105.9 19.1 C 105.9 19.3 105.9 19.3 105.9 19.1 C 105.9 19.1 105.9 19.1 105.9 19.1 Z M 114.3 15.7 C 114.3 15.8 114.3 15.8 114.3 15.7 C 114.3 15.7 114.3 15.7 114.3 15.7 Z M 95.5 22.6 C 95.5 22.8 95.5 22.8 95.5 22.6 C 95.5 22.6 95.5 22.6 95.5 22.6 Z M 122.8 17.7 C 122.8 17.8 122.8 17.8 122.8 17.7 C 122.8 17.7 122.8 17.7 122.8 17.7 Z M 112.5 21.8 C 113.1 21.0 112.6 22.4 112.5 21.8 C 112.5 21.8 112.5 21.8 112.5 21.8 Z M 115.2 21.8 C 115.2 21.8 115.2 21.8 115.2 21.8 C 115.2 21.8 115.2 21.8 115.2 21.8 Z M 127.0 15.9 C 127.1 15.9 127.1 15.9 127.0 15.9 C 127.0 15.9 127.0 15.9 127.0 15.9 Z M 122.0 23.7 C 122.1 23.6 122.1 23.6 122.0 23.7 C 122.0 23.7 122.0 23.7 122.0 23.7 Z M 124.3 21.3 C 124.2 21.4 124.2 21.4 124.3 21.3 C 124.3 21.3 124.3 21.3 124.3 21.3 Z M 117.2 17.2 C 119.9 16.8 116.6 18.0 117.2 17.2 C 117.2 17.2 117.2 17.2 117.2 17.2 Z M 130.9 20.7 C 131.0 20.8 131.0 20.8 130.9 20.7 C 130.9 20.7 130.9 20.7 130.9 20.7 Z M 132.3 18.0 C 132.4 18.1 132.4 18.1 132.3 18.0 C 132.3 18.0 132.3 18.0 132.3 18.0 Z M 133.0 16.6 C 133.0 16.7 133.0 16.7 133.0 16.6 C 133.0 16.6 133.0 16.6 133.0 16.6 Z M 100.2 20.5 C 100.1 20.4 100.1 20.4 100.2 20.5 C 100.2 20.5 100.2 20.5 100.2 20.5 Z M 99.1 16.1 C 99.1 16.1 99.1 16.1 99.1 16.1 C 99.1 16.1 99.1 16.1 99.1 16.1 Z M 102.8 15.9 C 102.8 15.9 102.8 15.9 102.8 15.9 C 102.8 15.9 102.8 15.9 102.8 15.9 Z M 99.5 23.1 C 99.5 23.1 99.5 23.1 99.5 23.1 C 99.5 23.1 99.5 23.1 99.5 23.1 Z M 113.2 19.4 C 113.1 19.3 113.1 19.3 113.2 19.4 C 113.2 19.4 113.2 19.4 113.2 19.4 Z M 114.5 21.2 C 114.4 21.1 114.4 21.1 114.5 21.2 C 114.5 21.2 114.5 21.2 114.5 21.2 Z M 111.3 23.5 C 111.3 23.5 111.3 23.5 111.3 23.5 C 111.3 23.5 111.3 23.5 111.3 23.5 Z M 115.5 22.7 C 115.4 22.7 115.4 22.7 115.5 22.7 C 115.5 22.7 115.5 22.7 115.5 22.7 Z M 90.4 22.3 C 90.4 22.4 90.4 22.4 90.4 22.3 C 90.4 22.3 90.4 22.3 90.4 22.3 Z M 90.1 19.0 C 90.1 19.1 90.1 19.1 90.1 19.0 C 90.1 19.0 90.1 19.0 90.1 19.0 Z M 113.6 17.0 C 114.2 16.3 114.9 17.9 113.6 17.0 M 108.4 17.4 C 108.4 17.5 108.4 17.5 108.4 17.4 C 108.4 17.4 108.4 17.4 108.4 17.4 Z M 122.4 17.1 C 123.0 18.4 119.9 16.4 122.4 17.1 C 122.4 17.1 122.4 17.1 122.4 17.1 Z M 119.6 22.7 C 119.7 22.7 119.7 22.7 119.6 22.7 C 119.6 22.7 119.6 22.7 119.6 22.7 Z M 121.0 22.1 C 121.1 22.3 121.1 22.3 121.0 22.1 C 121.0 22.1 121.0 22.1 121.0 22.1 Z M 128.5 18.5 C 128.6 18.6 128.6 18.6 128.5 18.5 M 107.7 16.2 C 108.5 16.8 108.4 16.7 107.7 16.2 M 124.1 17.1 C 124.0 17.2 124.0 17.2 124.1 17.1 C 124.1 17.1 124.1 17.1 124.1 17.1 Z M 130.2 17.8 C 130.1 17.8 130.1 17.8 130.2 17.8 C 130.2 17.8 130.2 17.8 130.2 17.8 Z M 104.1 17.1 C 104.2 18.7 103.5 18.3 104.1 17.1 M 93.7 17.6 C 93.7 17.7 93.7 17.7 93.7 17.6 C 93.7 17.6 93.7 17.6 93.7 17.6 Z M 138.4 16.6 C 135.6 14.8 135.6 17.3 135.6 17.4 C 135.9 14.0 133.1 18.8 133.6 19.4 C 133.5 19.9 135.7 25.8 137.7 22.2 C 138.2 21.8 138.5 22.8 138.9 22.9 C 142.4 22.8 136.6 21.1 140.8 21.0 C 141.5 21.5 140.7 24.4 143.1 22.4 C 143.2 22.7 146.1 23.7 145.0 22.4 C 146.3 23.7 147.2 22.2 148.5 21.9 C 149.6 22.6 147.5 23.9 151.6 22.3 C 153.3 24.7 153.9 20.6 155.5 23.2 C 156.5 23.3 158.1 19.0 155.7 21.4 C 156.0 21.1 154.6 19.1 157.8 19.9 C 157.3 20.4 155.5 24.7 160.6 22.7 C 161.4 22.7 163.3 21.6 163.8 22.1 C 161.2 22.6 167.3 24.0 166.7 22.7 C 170.7 23.6 168.4 21.7 171.3 23.1 C 173.7 23.1 170.5 21.2 173.5 22.3 C 175.7 22.1 174.2 23.1 174.0 23.1 C 175.9 23.3 176.6 22.5 177.3 22.6 C 177.7 22.8 178.6 23.7 179.1 22.6 C 181.1 20.6 179.2 18.7 180.2 16.7 C 178.6 15.8 179.5 18.2 178.5 16.8 C 177.7 18.0 178.4 16.6 174.3 16.9 C 174.4 17.2 175.4 18.1 174.4 18.2 C 172.8 18.0 173.9 14.7 171.3 17.1 C 174.4 17.8 166.9 18.1 169.8 18.8 C 166.3 19.2 168.8 18.6 166.2 17.8 C 166.3 20.0 166.0 15.4 165.0 17.2 C 164.8 16.2 160.7 16.7 163.6 18.0 C 159.4 18.6 162.1 17.3 160.6 16.2 C 158.6 16.0 160.4 19.8 159.2 17.0 C 156.6 15.8 159.1 18.4 157.2 16.3 C 158.1 18.2 155.4 16.2 156.1 18.3 C 151.7 18.5 156.6 16.1 153.5 17.6 C 154.5 17.6 154.1 14.8 152.2 16.6 C 153.0 19.9 149.8 13.7 151.2 18.1 C 145.1 19.3 150.1 16.3 146.8 16.3 C 145.9 16.3 147.7 17.7 147.0 17.7 C 142.7 17.1 146.2 16.0 144.0 18.1 C 139.7 18.6 142.7 16.3 140.7 16.1 C 140.5 17.2 138.8 18.9 138.4 16.6 M 142.2 17.6 C 143.1 17.0 142.7 18.3 142.2 17.6 M 133.7 16.6 C 134.6 16.0 134.2 17.3 133.7 16.6 M 145.7 17.0 C 146.9 16.3 146.1 18.2 145.7 17.0 M 168.6 18.1 C 167.0 18.1 169.3 17.5 168.6 18.1 M 137.1 16.5 C 138.3 15.7 137.4 17.7 137.1 16.5 M 135.5 18.2 C 135.6 18.2 135.6 18.2 135.5 18.2 M 170.8 16.3 C 170.9 16.3 170.9 16.3 170.8 16.3 M 164.7 16.3 C 166.0 16.3 164.0 16.7 164.7 16.3 M 164.5 23.4 C 165.8 23.5 163.7 23.9 164.5 23.4 M 174.2 16.2 C 175.5 15.7 174.6 17.0 174.2 16.2 M 177.6 17.8 C 178.8 17.1 178.4 18.5 177.6 17.8 M 141.4 20.1 C 141.4 20.2 141.4 20.2 141.4 20.1 C 141.4 20.1 141.4 20.1 141.4 20.1 Z M 152.7 21.9 C 151.3 21.2 154.3 22.8 152.7 21.9 M 150.6 17.2 C 151.5 18.7 148.9 17.1 150.6 17.2 C 150.6 17.2 150.6 17.2 150.6 17.2 Z M 148.6 17.9 C 148.6 18.0 148.6 18.0 148.6 17.9 C 148.6 17.9 148.6 17.9 148.6 17.9 Z M 155.0 18.0 C 154.9 18.0 154.9 18.0 155.0 18.0 C 155.0 18.0 155.0 18.0 155.0 18.0 Z M 153.7 18.1 C 153.2 18.4 152.9 17.8 153.7 18.1 C 153.7 18.1 153.7 18.1 153.7 18.1 Z M 162.9 22.7 C 162.4 23.0 162.2 22.4 162.9 22.7 C 162.9 22.7 162.9 22.7 162.9 22.7 Z M 151.7 18.6 C 151.5 20.1 150.8 17.6 151.7 18.6 C 151.7 18.6 151.7 18.6 151.7 18.6 Z M 158.5 22.1 C 159.1 21.7 159.7 23.4 158.5 22.1 M 172.1 16.6 C 172.7 16.2 173.3 18.0 172.1 16.6 M 158.7 16.2 C 159.3 15.8 159.9 17.5 158.7 16.2 M 142.9 17.0 C 143.1 17.2 143.1 17.2 142.9 17.0 M 150.4 23.3 C 151.2 22.8 150.8 24.0 150.4 23.3 M 137.7 22.8 C 138.6 22.3 138.2 23.5 137.7 22.8 M 170.2 23.3 C 170.2 22.9 171.6 23.5 170.2 23.3 M 160.3 18.5 C 161.5 18.7 162.7 19.5 160.2 19.4 C 160.1 19.0 160.8 18.8 160.3 18.5 C 160.3 18.5 160.3 18.5 160.3 18.5 Z M 164.5 21.8 C 164.7 21.9 164.7 21.9 164.5 21.8 M 162.4 17.1 C 162.5 17.3 162.5 17.3 162.4 17.1 M 169.2 17.3 C 169.4 17.5 169.4 17.5 169.2 17.3 M 170.1 16.9 C 170.1 16.9 170.1 16.9 170.1 16.9 C 170.1 16.9 170.1 16.9 170.1 16.9 Z M 177.6 16.3 C 177.6 16.3 177.6 16.3 177.6 16.3 C 177.6 16.3 177.6 16.3 177.6 16.3 Z M 167.1 17.5 C 167.0 17.5 167.0 17.5 167.1 17.5 C 167.1 17.5 167.1 17.5 167.1 17.5 Z M 173.3 23.0 C 173.3 23.1 173.3 23.1 173.3 23.0 C 173.3 23.0 173.3 23.0 173.3 23.0 Z M 172.5 22.1 C 172.5 22.2 172.5 22.2 172.5 22.1 C 172.5 22.1 172.5 22.1 172.5 22.1 Z M 139.0 16.6 C 140.1 15.6 139.6 19.1 139.0 16.6 M 175.8 22.2 C 176.8 23.1 174.1 22.4 175.8 22.2 C 175.8 22.2 175.8 22.2 175.8 22.2 Z M 166.2 18.7 C 166.3 18.9 166.3 18.9 166.2 18.7 M 170.5 17.0 C 170.6 17.2 170.6 17.2 170.5 17.0 M 150.5 15.9 C 150.6 16.1 150.6 16.1 150.5 15.9 M 175.8 17.3 C 179.0 17.6 174.4 19.4 175.8 17.3 M 149.1 17.3 C 149.0 17.2 149.0 17.2 149.1 17.3 M 156.3 20.0 C 158.4 19.9 155.5 20.8 156.3 20.0 M 161.8 18.2 C 161.7 18.2 161.7 18.2 161.8 18.2 C 161.8 18.2 161.8 18.2 161.8 18.2 Z M 158.6 18.2 C 157.0 18.4 158.2 17.8 158.6 18.2 C 158.6 18.2 158.6 18.2 158.6 18.2 Z M 140.5 17.9 C 142.6 18.2 138.5 18.4 140.5 17.9 C 140.5 17.9 140.5 17.9 140.5 17.9 Z M 174.4 20.7 C 174.3 20.8 174.3 20.8 174.4 20.7 C 174.4 20.7 174.4 20.7 174.4 20.7 Z M 166.7 16.5 C 165.7 16.8 166.2 16.0 166.7 16.5 C 166.7 16.5 166.7 16.5 166.7 16.5 Z M 178.8 16.3 C 177.8 16.6 178.3 15.8 178.8 16.3 C 178.8 16.3 178.8 16.3 178.8 16.3 Z M 138.1 17.7 C 145.5 20.1 128.2 17.1 138.1 17.7 C 138.1 17.7 138.1 17.7 138.1 17.7 Z M 159.8 17.2 C 159.8 17.3 159.8 17.3 159.8 17.2 C 159.8 17.2 159.8 17.2 159.8 17.2 Z M 146.1 16.2 C 146.1 16.3 146.1 16.3 146.1 16.2 C 146.1 16.2 146.1 16.2 146.1 16.2 Z M 143.8 17.5 C 143.8 17.6 143.8 17.6 143.8 17.5 C 143.8 17.5 143.8 17.5 143.8 17.5 Z M 144.4 23.2 C 144.4 23.3 144.4 23.3 144.4 23.2 C 144.4 23.2 144.4 23.2 144.4 23.2 Z M 145.2 20.6 C 145.1 20.8 145.1 20.8 145.2 20.6 C 145.2 20.6 145.2 20.6 145.2 20.6 Z M 140.5 21.6 C 140.4 21.7 140.4 21.7 140.5 21.6 C 140.5 21.6 140.5 21.6 140.5 21.6 Z M 140.6 22.3 C 140.5 22.4 140.5 22.4 140.6 22.3 C 140.6 22.3 140.6 22.3 140.6 22.3 Z M 170.5 18.6 C 170.5 18.7 170.5 18.7 170.5 18.6 C 170.5 18.6 170.5 18.6 170.5 18.6 Z M 168.0 21.0 C 169.7 20.1 167.4 22.2 168.0 21.0 C 168.0 21.0 168.0 21.0 168.0 21.0 Z M 152.6 19.8 C 154.2 19.5 151.6 20.5 152.6 19.8 C 152.6 19.8 152.6 19.8 152.6 19.8 Z M 154.3 22.9 C 154.4 22.9 154.4 22.9 154.3 22.9 C 154.3 22.9 154.3 22.9 154.3 22.9 Z M 143.8 16.1 C 143.7 16.3 143.7 16.3 143.8 16.1 C 143.8 16.1 143.8 16.1 143.8 16.1 Z M 140.9 17.1 C 140.8 18.3 140.0 16.5 140.9 17.1 M 155.6 16.4 C 155.6 16.6 155.6 16.6 155.6 16.4 C 155.6 16.4 155.6 16.4 155.6 16.4 Z M 164.9 18.3 C 164.9 18.4 164.9 18.4 164.9 18.3 C 164.9 18.3 164.9 18.3 164.9 18.3 Z M 174.1 17.5 C 174.1 17.7 174.1 17.7 174.1 17.5 C 174.1 17.5 174.1 17.5 174.1 17.5 Z M 161.4 16.6 C 161.3 16.7 161.3 16.7 161.4 16.6 C 161.4 16.6 161.4 16.6 161.4 16.6 Z M 157.0 17.7 C 156.9 17.8 156.9 17.8 157.0 17.7 C 157.0 17.7 157.0 17.7 157.0 17.7 Z M 176.2 19.2 C 176.1 19.3 176.1 19.3 176.2 19.2 C 176.2 19.2 176.2 19.2 176.2 19.2 Z M 162.4 16.4 C 162.4 16.4 162.4 16.4 162.4 16.4 C 162.4 16.4 162.4 16.4 162.4 16.4 Z M 165.1 20.2 C 165.0 20.3 165.0 20.3 165.1 20.2 C 165.1 20.2 165.1 20.2 165.1 20.2 Z M 141.3 15.4 C 141.3 15.5 141.3 15.5 141.3 15.4 C 141.3 15.4 141.3 15.4 141.3 15.4 Z M 176.3 17.6 C 176.2 17.7 176.2 17.7 176.3 17.6 C 176.3 17.6 176.3 17.6 176.3 17.6 Z M 176.8 16.5 C 176.8 16.6 176.8 16.6 176.8 16.5 C 176.8 16.5 176.8 16.5 176.8 16.5 Z M 170.3 22.2 C 167.0 21.6 173.2 22.0 170.8 20.7 C 175.5 20.4 171.0 22.3 170.3 22.2 C 170.3 22.2 170.3 22.2 170.3 22.2 Z M 170.3 22.2 " fill="#5E416F"></path><path d="M 30.4 2.5 C 30.6 1.8 32.6 1.2 31.3 2.5 C 31.2 2.6 30.4 2.8 30.4 2.5 Z M 27.3 4.4 C 27.5 4.2 27.8 4.1 28.0 4.2 C 28.7 4.6 26.5 4.9 27.3 4.4 Z M 32.3 2.3 C 32.3 2.2 33.3 1.6 33.2 1.9 C 33.1 2.1 32.2 2.4 32.3 2.3 Z M 25.2 7.3 C 25.1 7.0 26.2 6.4 26.4 6.4 C 27.2 6.4 25.5 7.8 25.2 7.3 Z M 33.8 12.5 C 33.8 12.6 33.8 12.7 33.8 12.8 C 33.8 12.7 33.8 12.6 33.8 12.5 Z M 10.4 15.2 C 10.5 15.1 11.1 15.1 11.1 15.4 C 11.1 15.7 9.8 15.7 10.4 15.2 Z M 34.4 33.0 C 34.4 33.0 34.6 32.6 34.8 32.8 C 34.9 33.0 34.6 33.2 34.4 33.0 Z M 34.7 33.0 C 35.0 32.9 35.1 33.4 34.9 33.3 C 34.6 33.2 34.5 33.1 34.7 33.0 Z M 18.1 28.7 C 18.0 28.6 17.9 28.6 18.0 28.6 C 18.2 28.5 18.4 28.8 18.1 28.7 Z M 18.8 28.6 C 19.1 28.4 19.1 29.0 18.9 28.9 C 18.6 28.8 18.5 28.8 18.8 28.6 Z M 21.0 31.8 C 20.9 31.8 20.8 31.8 21.0 31.7 C 21.1 31.7 21.3 31.9 21.0 31.8 Z M 35.2 24.6 C 35.4 24.7 35.2 25.4 35.0 25.3 C 34.6 25.2 35.0 24.4 35.2 24.6 Z M 35.4 25.4 C 35.6 25.4 35.7 25.8 35.5 25.7 C 35.3 25.6 35.2 25.5 35.4 25.4 Z M 34.9 22.8 C 34.6 22.8 34.6 22.1 34.6 22.0 C 34.7 21.7 34.8 21.5 34.9 21.2 C 35.0 21.1 35.4 22.8 34.9 22.8 Z M 34.6 17.3 C 34.7 17.3 34.8 17.4 34.6 17.6 C 34.5 17.9 34.4 17.3 34.6 17.3 Z M 34.8 20.4 C 34.9 20.4 35.0 20.5 34.8 20.8 C 34.7 21.0 34.6 20.4 34.8 20.4 Z M 19.0 10.1 C 18.8 10.0 19.7 9.6 19.8 9.6 C 19.9 9.7 19.6 9.9 19.8 9.8 C 20.1 9.8 19.9 10.6 19.0 10.1 Z M 25.6 5.5 C 25.8 5.4 25.9 5.5 26.0 5.7 C 26.0 5.7 25.2 5.9 25.6 5.5 Z M 20.6 10.4 C 20.5 10.3 20.7 10.2 20.8 10.3 C 20.8 10.4 20.7 10.5 20.6 10.4 Z M 20.1 10.9 C 20.3 10.7 20.8 10.8 20.9 11.0 C 20.9 11.4 19.6 11.3 20.1 10.9 Z M 17.9 10.4 C 18.1 10.2 18.1 10.2 18.0 10.4 C 17.9 10.6 17.9 10.4 17.9 10.4 Z M 21.7 7.6 C 21.9 7.5 21.9 7.5 21.8 7.6 C 21.7 7.8 21.7 7.6 21.7 7.6 Z M 16.3 12.0 C 16.3 12.0 16.6 11.4 17.0 11.7 C 17.6 12.2 16.3 12.0 16.3 12.0 Z M 13.9 14.2 C 14.1 14.2 14.1 14.4 13.9 14.4 C 13.7 14.5 13.7 14.3 13.9 14.2 Z M 13.4 15.8 C 13.0 15.9 12.6 15.8 13.2 15.5 C 13.7 15.3 13.8 15.7 13.4 15.8 Z M 13.8 15.3 C 13.8 15.3 13.7 15.4 13.6 15.3 C 13.5 15.3 13.7 15.2 13.8 15.3 Z M 15.8 13.2 C 15.9 12.9 16.3 13.0 16.0 13.3 C 15.7 13.6 15.6 13.5 15.8 13.2 Z M 35.2 9.7 C 35.1 9.5 35.4 9.5 35.6 9.7 C 35.7 9.8 35.3 9.9 35.2 9.7 Z M 33.9 21.5 C 34.1 21.4 34.2 21.5 34.1 21.8 C 34.0 22.1 33.8 21.7 33.9 21.5 Z M 33.3 29.0 C 33.5 28.9 33.6 29.0 33.5 29.3 C 33.4 29.6 33.2 29.2 33.3 29.0 Z M 34.0 18.5 C 34.1 18.4 34.6 19.2 34.1 19.6 C 33.6 20.1 33.5 18.8 34.0 18.5 Z M 28.0 11.1 C 27.9 11.0 28.1 11.0 28.1 11.0 C 28.1 11.3 28.1 11.3 28.0 11.1 Z M 33.1 20.2 C 33.0 20.0 33.3 20.1 33.4 20.2 C 33.5 20.3 33.2 20.4 33.1 20.2 Z M 33.8 27.7 C 33.9 27.4 34.4 27.6 34.6 27.7 C 35.1 28.4 34.5 28.8 34.1 29.3 C 33.9 29.6 33.7 27.9 33.8 27.7 Z M 34.1 7.9 C 34.0 8.0 33.9 8.2 33.9 8.4 C 34.1 8.4 34.0 8.5 33.9 8.7 C 34.0 9.4 34.7 9.9 34.8 10.3 C 35.3 11.4 33.8 11.9 33.8 12.5 C 33.8 12.4 33.8 12.2 33.6 12.1 C 33.2 11.8 33.4 14.4 33.4 14.6 C 33.8 16.8 34.1 14.1 34.9 14.1 C 35.2 14.1 34.4 15.7 34.3 15.7 C 34.0 16.5 34.8 16.6 34.5 17.2 C 34.3 17.4 32.6 18.3 32.9 18.6 C 33.0 18.8 32.9 19.5 32.9 19.7 C 32.8 20.2 32.9 20.9 33.5 20.5 C 34.0 20.2 34.4 20.1 34.0 20.7 C 33.7 21.0 32.6 23.7 33.9 23.6 C 34.0 23.5 34.4 23.0 34.4 22.9 C 34.7 23.7 34.2 25.9 34.7 26.4 C 35.9 27.6 34.1 26.1 33.7 26.7 C 33.2 27.7 32.8 28.2 33.0 29.5 C 33.1 29.8 33.1 31.0 33.8 30.4 C 34.2 30.0 34.5 30.3 34.7 29.6 C 35.3 30.4 34.1 31.0 34.3 31.1 C 34.7 31.4 34.9 30.9 34.8 31.5 C 34.7 32.3 35.0 31.9 34.3 32.1 C 34.1 32.1 34.0 32.8 34.0 32.8 C 33.9 32.8 33.8 32.8 33.8 32.8 C 33.9 33.4 35.1 34.3 34.8 34.5 C 34.5 34.6 33.8 34.3 33.5 34.3 C 33.5 34.4 33.5 34.4 33.4 34.4 C 33.5 34.7 34.0 35.3 33.9 35.4 C 33.8 35.5 32.7 35.1 33.0 35.3 C 33.3 35.6 32.9 37.0 32.6 37.0 C 32.3 37.1 30.7 37.5 30.7 37.7 C 30.6 38.0 29.8 37.5 29.6 37.4 C 29.4 37.3 29.2 36.7 29.2 36.6 C 29.1 36.4 28.5 36.2 28.5 36.2 C 28.5 36.2 28.2 36.2 27.8 36.0 C 27.3 35.7 27.2 35.3 26.7 34.8 C 26.3 34.3 25.8 34.5 25.3 34.3 C 24.7 34.0 24.8 32.9 24.4 32.6 C 24.0 32.2 23.6 32.8 23.0 32.6 C 22.5 32.3 22.2 31.9 22.5 31.9 C 22.7 31.9 22.6 31.7 22.5 31.6 C 22.3 31.5 21.8 30.9 21.5 30.9 C 21.2 30.8 22.5 32.4 20.5 31.1 C 19.5 30.4 19.1 29.3 19.4 29.4 C 20.2 29.8 19.2 27.9 19.0 28.2 C 18.8 28.5 17.1 27.4 17.1 28.2 C 17.2 28.4 15.3 27.6 15.1 27.3 C 14.9 27.1 14.0 26.7 14.1 26.0 C 14.1 25.7 12.7 25.8 12.4 25.7 C 12.2 25.5 10.9 24.6 10.7 24.3 C 10.5 24.0 11.1 24.4 11.5 24.6 C 11.8 24.8 12.0 25.3 12.3 25.4 C 12.6 25.5 12.2 24.9 11.9 24.6 C 11.6 24.4 11.7 24.1 11.4 23.8 C 11.2 23.8 11.0 23.6 10.8 23.4 C 10.6 23.3 10.5 23.3 10.4 23.4 C 10.3 23.6 10.4 23.8 10.3 23.9 C 10.3 24.0 9.9 24.0 9.5 23.7 C 9.1 23.4 8.7 23.2 8.3 22.6 C 7.8 22.1 7.5 22.2 7.1 22.0 C 6.7 21.8 6.4 21.6 6.4 21.4 C 6.5 21.3 7.0 21.5 7.2 21.4 C 7.3 21.4 6.9 20.7 6.7 20.6 C 5.7 19.8 7.1 19.4 6.1 18.6 C 5.6 18.2 6.4 18.3 7.0 18.1 C 6.9 18.0 6.9 17.9 7.3 17.6 C 7.2 17.4 8.0 17.1 8.3 16.9 C 8.5 16.8 9.7 15.7 9.1 16.6 C 9.0 16.6 9.0 16.7 8.9 16.7 C 9.0 16.8 9.0 16.8 9.0 16.8 C 9.0 16.8 8.9 17.5 8.9 17.5 C 8.9 17.5 9.0 16.8 9.0 16.8 C 9.3 16.9 9.5 17.0 9.7 17.1 C 9.8 17.0 9.8 16.9 9.8 16.8 C 9.8 16.8 9.8 16.7 9.9 16.7 C 9.9 16.7 9.8 16.7 9.8 16.7 C 9.7 16.5 9.8 16.5 10.0 16.4 C 10.3 15.9 11.6 15.6 12.2 15.5 C 11.6 17.3 13.7 16.1 14.3 15.5 C 14.9 14.9 14.0 13.6 13.7 13.8 C 14.2 13.4 14.4 13.6 14.8 13.9 C 14.8 13.9 15.9 14.4 15.8 14.4 C 17.3 14.2 16.3 13.1 16.5 12.8 C 16.7 12.5 17.1 12.2 17.4 12.0 C 17.7 11.7 17.3 11.6 17.3 11.4 C 17.4 10.6 18.9 11.1 19.2 11.0 C 19.0 11.3 18.7 11.6 18.5 11.9 C 18.8 11.4 19.4 11.9 19.6 11.9 C 20.1 11.8 20.5 11.4 20.9 11.2 C 21.5 10.7 22.1 10.2 22.7 9.7 C 22.4 9.7 21.0 9.6 20.9 9.6 C 21.1 9.4 21.9 9.3 21.3 8.9 C 20.4 8.3 22.4 7.7 22.6 7.6 C 23.6 7.2 24.0 5.8 25.4 6.2 C 25.4 6.2 24.2 7.2 24.4 7.3 C 25.1 7.9 25.7 8.1 26.5 7.4 C 26.7 7.2 27.6 5.9 27.5 5.8 C 27.6 6.0 25.2 4.9 26.7 4.8 C 27.0 4.8 26.7 5.4 27.1 5.4 C 27.6 5.3 28.1 4.9 28.5 4.7 C 28.6 4.6 29.4 4.4 29.4 4.4 C 29.5 4.1 29.3 3.7 29.4 3.4 C 29.6 3.1 30.1 3.1 30.2 3.4 C 30.2 3.4 30.2 3.5 30.2 3.5 C 30.3 3.5 30.4 3.5 30.5 3.7 C 30.6 3.6 30.8 3.5 31.0 3.5 C 31.2 3.6 30.9 3.8 30.6 3.8 C 30.6 3.9 30.7 4.0 30.7 4.1 C 31.0 3.9 31.4 3.6 31.4 3.5 C 31.7 2.8 31.6 2.5 32.9 2.7 C 33.9 2.9 34.5 5.3 34.2 6.8 C 34.3 7.1 34.3 7.4 34.1 7.9 Z M 10.3 22.6 C 10.3 22.6 10.4 22.6 10.4 22.6 C 10.5 22.5 10.6 22.4 10.6 22.2 C 10.4 22.0 10.6 22.6 10.3 22.3 C 10.0 22.0 9.9 22.2 10.3 22.6 Z M 10.5 19.2 C 10.3 19.2 10.3 19.3 10.4 19.4 C 10.5 19.3 10.5 19.3 10.5 19.2 Z M 9.9 17.8 C 9.5 18.2 10.5 18.3 11.1 17.8 C 10.4 17.7 10.1 17.7 9.9 17.8 Z M 10.5 16.6 C 10.5 16.7 10.5 16.8 10.6 16.9 C 10.6 17.1 10.9 16.6 11.0 16.8 C 11.0 17.0 10.7 17.4 11.0 17.4 C 11.1 17.3 11.2 17.3 11.3 17.3 C 11.4 17.3 11.4 17.2 11.4 17.1 C 11.5 16.8 10.8 16.5 10.5 16.6 Z M 12.8 22.8 C 12.6 22.7 12.7 22.9 12.8 22.9 C 13.0 23.0 13.0 22.8 12.8 22.8 Z M 14.5 25.4 C 14.4 25.1 14.1 25.1 14.2 25.4 C 14.3 25.7 14.6 25.7 14.5 25.4 Z M 18.2 21.5 C 18.0 21.6 18.1 21.6 18.3 21.7 C 18.5 21.7 18.4 21.5 18.2 21.5 Z M 18.4 18.8 C 18.5 18.6 18.2 18.3 18.2 18.5 C 18.1 18.7 18.3 18.9 18.4 18.8 Z M 18.0 25.1 C 18.3 25.1 18.2 24.9 18.0 24.9 C 17.8 24.9 17.8 25.0 18.0 25.1 Z M 17.4 21.3 C 17.6 21.6 17.7 21.5 17.8 21.5 C 17.9 21.4 17.9 21.2 17.6 21.0 C 17.3 20.9 17.2 21.0 17.4 21.3 Z M 17.2 19.0 C 17.9 18.6 17.8 18.3 17.0 18.9 C 16.3 19.5 16.8 19.2 17.2 19.0 Z M 16.0 27.3 C 15.9 27.2 15.5 27.1 15.5 27.1 C 15.5 27.1 16.3 27.8 16.0 27.3 Z M 17.4 12.7 C 17.2 12.8 17.2 13.1 17.6 13.0 C 18.0 12.8 17.7 12.6 17.4 12.7 Z M 18.8 13.8 C 18.3 13.4 17.8 13.6 17.8 13.5 C 17.8 13.6 17.9 14.1 17.8 14.2 C 17.5 14.7 16.6 14.5 16.4 15.1 C 16.1 15.7 17.2 15.2 17.3 15.0 C 17.2 15.1 17.2 15.3 17.3 15.4 C 17.4 15.6 17.6 15.5 17.7 15.3 C 17.8 15.0 19.5 14.3 18.8 13.8 Z M 18.8 20.5 C 18.5 20.3 18.2 20.5 18.4 20.8 C 18.6 21.1 18.9 21.3 19.0 21.2 C 19.1 21.1 19.1 20.6 18.8 20.5 Z M 19.0 22.5 C 18.7 22.6 18.8 22.7 19.1 22.8 C 19.5 23.0 19.3 22.4 19.0 22.5 Z M 22.9 31.3 C 23.1 31.3 22.7 31.0 22.6 31.1 C 22.6 31.3 22.7 31.4 22.9 31.3 Z M 22.7 27.9 C 23.3 28.0 22.9 27.5 22.7 27.5 C 22.6 27.5 22.4 27.8 22.7 27.9 Z M 20.7 25.8 C 21.0 25.9 20.7 25.5 20.6 25.6 C 20.4 25.6 20.6 25.8 20.7 25.8 Z M 20.5 24.5 C 20.7 24.6 20.7 24.2 20.3 24.2 C 20.2 24.2 20.3 24.4 20.5 24.5 Z M 21.5 13.2 C 21.5 13.2 21.7 13.7 21.9 13.3 C 22.1 12.9 22.1 12.9 21.5 13.2 Z M 20.6 17.3 C 20.2 17.5 19.9 17.8 20.3 18.9 C 20.7 20.1 20.9 19.6 21.1 18.9 C 21.2 18.2 21.7 20.1 22.0 18.8 C 22.1 18.2 20.9 17.0 20.6 17.3 Z M 22.5 24.4 C 22.1 23.7 21.1 23.9 21.7 24.3 C 22.3 24.8 22.8 24.9 22.5 24.4 Z M 22.6 24.8 C 22.4 24.8 22.5 24.9 22.7 25.0 C 22.9 25.1 22.8 24.9 22.6 24.8 Z M 22.0 8.4 C 21.0 9.3 22.7 9.3 22.7 9.3 C 24.2 8.9 23.1 7.4 22.0 8.4 Z M 33.2 32.2 C 33.2 32.1 33.2 32.1 33.2 32.0 C 33.2 32.0 33.2 32.0 33.2 31.9 C 33.0 31.7 32.8 32.2 32.8 32.2 C 32.9 32.3 33.1 32.3 33.2 32.2 Z M 33.6 25.0 C 33.5 25.3 33.6 25.5 33.7 25.7 C 34.4 25.6 34.4 23.4 33.3 24.3 C 33.1 24.4 32.2 25.8 32.7 25.9 C 33.0 26.0 33.6 24.3 33.6 25.0 Z M 32.6 27.2 C 32.7 26.4 31.8 28.0 32.2 27.8 C 32.5 27.7 32.6 27.5 32.6 27.2 Z M 30.7 33.6 C 31.1 34.7 32.8 34.5 31.9 32.7 C 31.0 30.9 30.3 30.8 30.6 31.7 C 30.8 32.7 30.0 31.9 30.7 33.6 Z M 30.7 24.3 C 31.9 24.5 31.6 23.9 30.7 23.6 C 30.4 23.6 29.9 24.2 30.7 24.3 Z M 30.5 21.7 C 30.6 21.3 30.6 21.4 30.4 21.6 C 30.1 21.8 30.4 22.0 30.5 21.7 Z M 29.0 35.4 C 29.2 35.9 29.6 36.2 29.3 36.2 C 29.1 36.2 29.2 36.3 29.4 36.5 C 29.7 36.9 29.7 36.2 29.6 36.0 C 29.6 35.7 28.8 35.0 29.0 35.4 Z M 24.8 25.5 C 25.0 25.6 24.9 25.3 24.7 25.3 C 24.6 25.3 24.6 25.4 24.8 25.5 Z M 23.5 15.6 C 23.5 15.6 23.6 15.9 23.7 15.7 C 23.9 15.4 23.9 15.4 23.5 15.6 Z M 23.9 7.8 C 23.8 7.9 24.3 8.0 24.2 8.4 C 24.2 8.6 24.0 8.3 23.9 8.3 C 24.0 8.4 24.1 9.3 24.5 8.7 C 24.6 8.4 24.5 7.2 23.9 7.8 Z M 25.1 22.8 C 24.8 22.3 24.4 24.0 24.1 23.7 C 23.8 23.4 23.8 23.6 24.2 24.0 C 24.5 24.3 25.5 23.2 25.1 22.8 Z M 25.4 26.9 C 25.4 26.7 24.5 26.0 24.7 26.4 C 24.9 26.8 25.4 27.1 25.1 27.2 C 24.8 27.2 25.0 27.2 25.2 27.5 C 25.4 27.8 25.4 27.2 25.4 26.9 Z M 25.7 33.9 C 25.6 33.8 25.1 33.5 25.3 33.9 C 25.4 34.1 25.8 34.1 25.7 33.9 Z M 26.1 14.5 C 26.0 14.8 26.1 14.9 26.4 14.6 C 26.7 14.3 26.3 14.2 26.1 14.5 Z M 26.9 33.3 C 26.5 32.9 26.8 33.6 26.5 33.3 C 26.1 33.0 26.1 33.2 26.5 33.6 C 26.8 33.9 27.2 33.7 26.9 33.3 Z M 27.2 8.1 C 27.2 8.3 27.3 8.6 27.4 8.4 C 27.6 8.2 27.3 8.0 27.2 8.1 Z M 28.2 10.7 C 28.1 10.8 28.0 10.8 27.9 10.9 C 26.2 12.1 29.3 11.1 28.2 10.7 Z M 28.0 14.8 C 27.9 14.2 27.6 14.9 27.6 14.9 C 27.8 15.0 27.9 14.9 28.0 14.8 Z M 28.0 19.2 C 28.2 19.3 28.2 18.8 28.0 18.9 C 27.7 19.0 27.8 19.1 28.0 19.2 Z M 28.8 4.9 C 28.5 5.0 28.6 5.1 28.8 5.1 C 29.0 5.1 29.0 4.8 28.8 4.9 Z M 29.0 15.9 C 28.9 15.9 28.8 15.9 28.9 16.1 C 29.0 16.3 29.1 16.0 29.0 15.9 Z M 29.1 29.4 C 28.9 29.3 28.8 29.2 28.7 29.0 C 28.5 29.2 28.4 30.0 28.1 30.0 C 28.1 30.0 28.1 30.0 28.0 30.0 C 28.0 30.0 28.0 30.0 28.0 30.0 C 27.8 30.0 27.7 29.9 27.8 29.8 C 27.8 29.7 27.7 29.6 27.7 29.4 C 27.4 29.6 27.3 30.0 27.5 30.2 C 27.7 30.4 28.3 30.5 28.8 30.5 C 28.9 30.3 29.0 30.1 29.0 29.9 C 29.0 29.9 29.0 29.9 28.9 29.9 C 28.6 29.7 28.5 29.5 28.7 29.5 C 28.9 29.5 29.0 29.6 29.1 29.7 C 29.1 29.6 29.1 29.5 29.1 29.4 Z M 29.6 17.6 C 29.4 17.3 29.3 17.5 29.2 18.0 C 29.1 18.3 29.8 18.0 29.6 17.6 Z M 29.2 5.5 C 29.3 5.6 29.3 5.7 29.4 5.8 C 29.4 5.7 29.4 5.6 29.5 5.6 C 29.5 5.3 29.6 5.1 29.6 4.9 C 29.3 4.9 29.1 5.0 29.2 5.5 Z M 30.5 9.3 C 30.5 9.2 30.5 7.6 30.2 7.8 C 29.6 8.3 29.0 7.6 29.3 8.8 C 29.4 9.3 30.2 9.8 30.3 10.4 C 31.0 13.2 31.1 9.6 31.3 8.8 C 31.3 8.7 30.6 9.5 30.5 9.3 Z M 31.4 13.0 C 31.6 13.1 31.9 12.7 31.9 12.5 C 31.8 11.8 31.0 12.8 31.4 13.0 Z M 31.8 5.1 C 31.8 5.0 31.7 5.0 31.6 5.1 C 31.7 5.1 31.7 5.2 31.8 5.2 C 31.8 5.2 31.8 5.1 31.8 5.1 Z M 32.1 3.1 C 31.3 3.8 32.8 3.7 33.1 3.6 C 33.7 3.3 32.5 2.7 32.1 3.1 Z M 32.7 10.9 C 32.6 11.4 34.3 12.1 34.2 11.1 C 34.2 10.2 32.8 9.6 32.7 10.9 Z M 34.8 16.8 C 34.6 16.6 34.9 16.0 35.1 16.3 C 35.3 16.5 34.9 16.9 34.8 16.8 Z M 35.7 8.0 C 35.6 8.2 35.6 8.0 35.6 8.0 C 35.8 7.8 35.8 7.8 35.7 8.0 Z M 34.5 8.8 C 34.6 8.6 34.7 8.2 34.8 8.0 C 34.8 7.8 35.0 8.4 35.0 8.4 C 34.9 8.6 34.5 8.7 34.5 8.8 Z M 34.3 13.5 C 34.5 13.3 34.6 13.7 34.5 13.8 C 34.5 14.0 34.2 13.7 34.3 13.5 Z M 34.8 12.4 C 34.7 12.6 34.5 12.4 34.5 12.2 C 34.6 12.0 34.8 12.2 34.8 12.4 Z M 33.8 14.4 C 33.7 13.9 33.5 13.2 34.0 13.2 C 34.2 13.3 34.1 15.3 33.8 14.4 Z M 33.8 14.4 " fill="#5E416F"></path></g></svg>