<?xml version="1.0" encoding="UTF-8" standalone="no"?><svg xmlns="http://www.w3.org/2000/svg" xmlns:xlink="http://www.w3.org/1999/xlink" clip-rule="evenodd" stroke-miterlimit="10" viewBox="0 0 1024 768"><desc>SVG generated by Keynote</desc><defs></defs><g transform="matrix(1.00, 0.00, -0.00, -1.00, 0.0, 768.0)"><path d="M 0.0 768.0 L 1024.0 768.0 L 1024.0 0.0 L 0.0 0.0 Z M 0.0 768.0 " fill="#FEFFFF"></path><text xml:space="preserve" font-family="AvenirNext-Medium,Avenir Next" font-size="54.0" fill="#000000" transform="matrix(1.00, 0.00, -0.00, -1.00, 4.0, 71.3)">B</text><text xml:space="preserve" font-family="AvenirNext-Medium,Avenir Next" font-size="54.0" fill="#000000" transform="matrix(1.00, 0.00, -0.00, -1.00, 38.7, 71.3)">e</text><text xml:space="preserve" font-family="AvenirNext-Medium,Avenir Next" font-size="54.0" fill="#000000" transform="matrix(1.00, 0.00, -0.00, -1.00, 69.6, 71.3)">w</text><text xml:space="preserve" font-family="AvenirNext-Medium,Avenir Next" font-size="54.0" fill="#000000" transform="matrix(1.00, 0.00, -0.00, -1.00, 111.4, 71.3)">a</text><text xml:space="preserve" font-family="AvenirNext-Medium,Avenir Next" font-size="54.0" fill="#000000" transform="matrix(1.00, 0.00, -0.00, -1.00, 140.6, 71.3)">r</text><text xml:space="preserve" font-family="AvenirNext-Medium,Avenir Next" font-size="54.0" fill="#000000" transform="matrix(1.00, 0.00, -0.00, -1.00, 159.2, 71.3)">e</text><text xml:space="preserve" font-family="AvenirNext-Medium,Avenir Next" font-size="54.0" fill="#000000" transform="matrix(1.00, 0.00, -0.00, -1.00, 190.1, 71.3)"> </text><text xml:space="preserve" font-family="AvenirNext-Medium,Avenir Next" font-size="54.0" fill="#000000" transform="matrix(1.00, 0.00, -0.00, -1.00, 203.6, 71.3)">o</text><text xml:space="preserve" font-family="AvenirNext-Medium,Avenir Next" font-size="54.0" fill="#000000" transform="matrix(1.00, 0.00, -0.00, -1.00, 236.6, 71.3)">f</text><text xml:space="preserve" font-family="AvenirNext-Medium,Avenir Next" font-size="54.0" fill="#000000" transform="matrix(1.00, 0.00, -0.00, -1.00, 254.6, 71.3)"> </text><text xml:space="preserve" font-family="AvenirNext-Medium,Avenir Next" font-size="54.0" fill="#000000" transform="matrix(1.00, 0.00, -0.00, -1.00, 268.1, 71.3)">t</text><text xml:space="preserve" font-family="AvenirNext-Medium,Avenir Next" font-size="54.0" fill="#000000" transform="matrix(1.00, 0.00, -0.00, -1.00, 285.9, 71.3)">o</text><text xml:space="preserve" font-family="AvenirNext-Medium,Avenir Next" font-size="54.0" fill="#000000" transform="matrix(1.00, 0.00, -0.00, -1.00, 318.8, 71.3)">o</text><text xml:space="preserve" font-family="AvenirNext-Medium,Avenir Next" font-size="54.0" fill="#000000" transform="matrix(1.00, 0.00, -0.00, -1.00, 351.8, 71.3)"> </text><text xml:space="preserve" font-family="AvenirNext-Medium,Avenir Next" font-size="54.0" fill="#000000" transform="matrix(1.00, 0.00, -0.00, -1.00, 365.3, 71.3)">m</text><text xml:space="preserve" font-family="AvenirNext-Medium,Avenir Next" font-size="54.0" fill="#000000" transform="matrix(1.00, 0.00, -0.00, -1.00, 413.2, 71.3)">a</text><text xml:space="preserve" font-family="AvenirNext-Medium,Avenir Next" font-size="54.0" fill="#000000" transform="matrix(1.00, 0.00, -0.00, -1.00, 442.4, 71.3)">n</text><text xml:space="preserve" font-family="AvenirNext-Medium,Avenir Next" font-size="54.0" fill="#000000" transform="matrix(1.00, 0.00, -0.00, -1.00, 473.9, 71.3)">y</text><text xml:space="preserve" font-family="AvenirNext-Medium,Avenir Next" font-size="54.0" fill="#000000" transform="matrix(1.00, 0.00, -0.00, -1.00, 501.1, 71.3)"> </text><text xml:space="preserve" font-family="AvenirNext-Medium,Avenir Next" font-size="54.0" fill="#000000" transform="matrix(1.00, 0.00, -0.00, -1.00, 514.6, 71.3)">n</text><text xml:space="preserve" font-family="AvenirNext-Medium,Avenir Next" font-size="54.0" fill="#000000" transform="matrix(1.00, 0.00, -0.00, -1.00, 546.0, 71.3)">o</text><text xml:space="preserve" font-family="AvenirNext-Medium,Avenir Next" font-size="54.0" fill="#000000" transform="matrix(1.00, 0.00, -0.00, -1.00, 578.9, 71.3)">t</text><text xml:space="preserve" font-family="AvenirNext-Medium,Avenir Next" font-size="54.0" fill="#000000" transform="matrix(1.00, 0.00, -0.00, -1.00, 596.7, 71.3)">i</text><text xml:space="preserve" font-family="AvenirNext-Medium,Avenir Next" font-size="54.0" fill="#000000" transform="matrix(1.00, 0.00, -0.00, -1.00, 610.7, 71.3)">ï¬</text><text xml:space="preserve" font-family="AvenirNext-Medium,Avenir Next" font-size="54.0" fill="#000000" transform="matrix(1.00, 0.00, -0.00, -1.00, 641.7, 71.3)">c</text><text xml:space="preserve" font-family="AvenirNext-Medium,Avenir Next" font-size="54.0" fill="#000000" transform="matrix(1.00, 0.00, -0.00, -1.00, 668.4, 71.3)">a</text><text xml:space="preserve" font-family="AvenirNext-Medium,Avenir Next" font-size="54.0" fill="#000000" transform="matrix(1.00, 0.00, -0.00, -1.00, 697.1, 71.3)">t</text><text xml:space="preserve" font-family="AvenirNext-Medium,Avenir Next" font-size="54.0" fill="#000000" transform="matrix(1.00, 0.00, -0.00, -1.00, 714.9, 71.3)">i</text><text xml:space="preserve" font-family="AvenirNext-Medium,Avenir Next" font-size="54.0" fill="#000000" transform="matrix(1.00, 0.00, -0.00, -1.00, 728.8, 71.3)">o</text><text xml:space="preserve" font-family="AvenirNext-Medium,Avenir Next" font-size="54.0" fill="#000000" transform="matrix(1.00, 0.00, -0.00, -1.00, 761.8, 71.3)">n</text><text xml:space="preserve" font-family="AvenirNext-Medium,Avenir Next" font-size="54.0" fill="#000000" transform="matrix(1.00, 0.00, -0.00, -1.00, 793.2, 71.3)">s</text><text xml:space="preserve" font-family="AvenirNext-Medium,Avenir Next" font-size="54.0" fill="#000000" transform="matrix(1.00, 0.00, -0.00, -1.00, 817.2, 71.3)"> </text><text xml:space="preserve" font-family="AvenirNext-Regular,Avenir Next" font-size="36.0" fill="#000000" transform="matrix(1.00, 0.00, -0.00, -1.00, 4.0, 15.7)">M</text><text xml:space="preserve" font-family="AvenirNext-Regular,Avenir Next" font-size="36.0" fill="#000000" transform="matrix(1.00, 0.00, -0.00, -1.00, 35.9, 15.7)">a</text><text xml:space="preserve" font-family="AvenirNext-Regular,Avenir Next" font-size="36.0" fill="#000000" transform="matrix(1.00, 0.00, -0.00, -1.00, 55.1, 15.7)">k</text><text xml:space="preserve" font-family="AvenirNext-Regular,Avenir Next" font-size="36.0" fill="#000000" transform="matrix(1.00, 0.00, -0.00, -1.00, 72.8, 15.7)">e</text><text xml:space="preserve" font-family="AvenirNext-Regular,Avenir Next" font-size="36.0" fill="#000000" transform="matrix(1.00, 0.00, -0.00, -1.00, 93.4, 15.7)"> </text><text xml:space="preserve" font-family="AvenirNext-Regular,Avenir Next" font-size="36.0" fill="#000000" transform="matrix(1.00, 0.00, -0.00, -1.00, 102.4, 15.7)">y</text><text xml:space="preserve" font-family="AvenirNext-Regular,Avenir Next" font-size="36.0" fill="#000000" transform="matrix(1.00, 0.00, -0.00, -1.00, 120.0, 15.7)">o</text><text xml:space="preserve" font-family="AvenirNext-Regular,Avenir Next" font-size="36.0" fill="#000000" transform="matrix(1.00, 0.00, -0.00, -1.00, 142.0, 15.7)">u</text><text xml:space="preserve" font-family="AvenirNext-Regular,Avenir Next" font-size="36.0" fill="#000000" transform="matrix(1.00, 0.00, -0.00, -1.00, 162.9, 15.7)">r</text><text xml:space="preserve" font-family="AvenirNext-Regular,Avenir Next" font-size="36.0" fill="#000000" transform="matrix(1.00, 0.00, -0.00, -1.00, 175.9, 15.7)"> </text><text xml:space="preserve" font-family="AvenirNext-Regular,Avenir Next" font-size="36.0" fill="#000000" transform="matrix(1.00, 0.00, -0.00, -1.00, 184.9, 15.7)">i</text><text xml:space="preserve" font-family="AvenirNext-Regular,Avenir Next" font-size="36.0" fill="#000000" transform="matrix(1.00, 0.00, -0.00, -1.00, 193.9, 15.7)">t</text><text xml:space="preserve" font-family="AvenirNext-Regular,Avenir Next" font-size="36.0" fill="#000000" transform="matrix(1.00, 0.00, -0.00, -1.00, 205.3, 15.7)">e</text><text xml:space="preserve" font-family="AvenirNext-Regular,Avenir Next" font-size="36.0" fill="#000000" transform="matrix(1.00, 0.00, -0.00, -1.00, 225.9, 15.7)">m</text><text xml:space="preserve" font-family="AvenirNext-Regular,Avenir Next" font-size="36.0" fill="#000000" transform="matrix(1.00, 0.00, -0.00, -1.00, 257.7, 15.7)"> </text><text xml:space="preserve" font-family="AvenirNext-Regular,Avenir Next" font-size="36.0" fill="#000000" transform="matrix(1.00, 0.00, -0.00, -1.00, 266.7, 15.7)">p</text><text xml:space="preserve" font-family="AvenirNext-Regular,Avenir Next" font-size="36.0" fill="#000000" transform="matrix(1.00, 0.00, -0.00, -1.00, 289.5, 15.7)">r</text><text xml:space="preserve" font-family="AvenirNext-Regular,Avenir Next" font-size="36.0" fill="#000000" transform="matrix(1.00, 0.00, -0.00, -1.00, 301.8, 15.7)">o</text><text xml:space="preserve" font-family="AvenirNext-Regular,Avenir Next" font-size="36.0" fill="#000000" transform="matrix(1.00, 0.00, -0.00, -1.00, 323.8, 15.7)">v</text><text xml:space="preserve" font-family="AvenirNext-Regular,Avenir Next" font-size="36.0" fill="#000000" transform="matrix(1.00, 0.00, -0.00, -1.00, 341.4, 15.7)">i</text><text xml:space="preserve" font-family="AvenirNext-Regular,Avenir Next" font-size="36.0" fill="#000000" transform="matrix(1.00, 0.00, -0.00, -1.00, 350.4, 15.7)">d</text><text xml:space="preserve" font-family="AvenirNext-Regular,Avenir Next" font-size="36.0" fill="#000000" transform="matrix(1.00, 0.00, -0.00, -1.00, 373.3, 15.7)">e</text><text xml:space="preserve" font-family="AvenirNext-Regular,Avenir Next" font-size="36.0" fill="#000000" transform="matrix(1.00, 0.00, -0.00, -1.00, 393.9, 15.7)">r</text><text xml:space="preserve" font-family="AvenirNext-Regular,Avenir Next" font-size="36.0" fill="#000000" transform="matrix(1.00, 0.00, -0.00, -1.00, 406.9, 15.7)">s</text><text xml:space="preserve" font-family="AvenirNext-Regular,Avenir Next" font-size="36.0" fill="#000000" transform="matrix(1.00, 0.00, -0.00, -1.00, 422.9, 15.7)"> </text><text xml:space="preserve" font-family="AvenirNext-Regular,Avenir Next" font-size="36.0" fill="#000000" transform="matrix(1.00, 0.00, -0.00, -1.00, 431.9, 15.7)">s</text><text xml:space="preserve" font-family="AvenirNext-Regular,Avenir Next" font-size="36.0" fill="#000000" transform="matrix(1.00, 0.00, -0.00, -1.00, 447.8, 15.7)">t</text><text xml:space="preserve" font-family="AvenirNext-Regular,Avenir Next" font-size="36.0" fill="#000000" transform="matrix(1.00, 0.00, -0.00, -1.00, 459.3, 15.7)">a</text><text xml:space="preserve" font-family="AvenirNext-Regular,Avenir Next" font-size="36.0" fill="#000000" transform="matrix(1.00, 0.00, -0.00, -1.00, 478.1, 15.7)">t</text><text xml:space="preserve" font-family="AvenirNext-Regular,Avenir Next" font-size="36.0" fill="#000000" transform="matrix(1.00, 0.00, -0.00, -1.00, 489.5, 15.7)">e</text><text xml:space="preserve" font-family="AvenirNext-Regular,Avenir Next" font-size="36.0" fill="#000000" transform="matrix(1.00, 0.00, -0.00, -1.00, 510.1, 15.7)">f</text><text xml:space="preserve" font-family="AvenirNext-Regular,Avenir Next" font-size="36.0" fill="#000000" transform="matrix(1.00, 0.00, -0.00, -1.00, 520.7, 15.7)">u</text><text xml:space="preserve" font-family="AvenirNext-Regular,Avenir Next" font-size="36.0" fill="#000000" transform="matrix(1.00, 0.00, -0.00, -1.00, 541.7, 15.7)">l</text><image xlink:href="../../96F286F0-F81C-49EE-B98B-4911BA6A5A20/assets/3BFF48A26A0A25DA5F9285A24D19CD17.png" width="178.00" height="176.00" transform="matrix(1.00, 0.00, -0.00, -1.00, 331.5, 608.0)" opacity="0.50"></image><g><clipPath id="clip0x6080020b12e0"><path d="M 481.2 582.2 C 514.8 549.1 514.8 495.4 481.2 462.3 C 447.6 429.2 393.2 429.2 359.7 462.3 C 326.1 495.4 326.1 549.1 359.7 582.2 C 393.2 615.3 447.6 615.3 481.2 582.2 Z M 481.2 582.2 "></path></clipPath><g clip-path="url(#clip0x6080020b12e0)"><image xlink:href="../../04236538-DDCE-4DAC-885E-EF7D1F00479F/assets/148324F4D89F4AF6DFC0631E54781387.png" width="600.00" height="600.00" transform="matrix(0.50, 0.00, -0.00, -0.50, 334.5, 607.0)"></image></g></g><g><clipPath id="clip0x6080020b1520"><path d="M 332.2 437.4 L 508.6 437.4 L 508.6 607.0 L 332.2 607.0 Z M 332.2 437.4 "></path></clipPath><g clip-path="url(#clip0x6080020b1520)"><text xml:space="preserve" font-family="AvenirNext-Medium,Avenir Next" font-size="24.0" fill="#FEFFFE" transform="matrix(1.00, 0.00, -0.00, -1.00, 375.5, 514.0)">E</text><text xml:space="preserve" font-family="AvenirNext-Medium,Avenir Next" font-size="24.0" fill="#FEFFFE" transform="matrix(1.00, 0.00, -0.00, -1.00, 389.9, 514.0)">O</text><text xml:space="preserve" font-family="AvenirNext-Medium,Avenir Next" font-size="24.0" fill="#FEFFFE" transform="matrix(1.00, 0.00, -0.00, -1.00, 410.3, 514.0)">b</text><text xml:space="preserve" font-family="AvenirNext-Medium,Avenir Next" font-size="24.0" fill="#FEFFFE" transform="matrix(1.00, 0.00, -0.00, -1.00, 425.6, 514.0)">j</text><text xml:space="preserve" font-family="AvenirNext-Medium,Avenir Next" font-size="24.0" fill="#FEFFFE" transform="matrix(1.00, 0.00, -0.00, -1.00, 431.8, 514.0)">e</text><text xml:space="preserve" font-family="AvenirNext-Medium,Avenir Next" font-size="24.0" fill="#FEFFFE" transform="matrix(1.00, 0.00, -0.00, -1.00, 445.6, 514.0)">c</text><text xml:space="preserve" font-family="AvenirNext-Medium,Avenir Next" font-size="24.0" fill="#FEFFFE" transform="matrix(1.00, 0.00, -0.00, -1.00, 457.4, 514.0)">t</text></g></g><image xlink:href="../../96F286F0-F81C-49EE-B98B-4911BA6A5A20/assets/3BFF48A26A0A25DA5F9285A24D19CD17.png" width="178.00" height="176.00" transform="matrix(1.00, 0.00, -0.00, -1.00, 538.6, 577.8)" opacity="0.50"></image><g><clipPath id="clip0x600001cbe8a0"><path d="M 688.3 552.0 C 721.8 518.9 721.8 465.2 688.3 432.1 C 654.7 398.9 600.3 398.9 566.7 432.1 C 533.2 465.2 533.2 518.9 566.7 552.0 C 600.3 585.1 654.7 585.1 688.3 552.0 Z M 688.3 552.0 "></path></clipPath><g clip-path="url(#clip0x600001cbe8a0)"><image xlink:href="../../04236538-DDCE-4DAC-885E-EF7D1F00479F/assets/148324F4D89F4AF6DFC0631E54781387.png" width="600.00" height="600.00" transform="matrix(0.50, 0.00, -0.00, -0.50, 541.6, 576.8)"></image></g></g><g><clipPath id="clip0x6080020b1880"><path d="M 539.3 407.2 L 715.7 407.2 L 715.7 576.8 L 539.3 576.8 Z M 539.3 407.2 "></path></clipPath><g clip-path="url(#clip0x6080020b1880)"><text xml:space="preserve" font-family="AvenirNext-Medium,Avenir Next" font-size="24.0" fill="#FEFFFE" transform="matrix(1.00, 0.00, -0.00, -1.00, 582.6, 483.7)">E</text><text xml:space="preserve" font-family="AvenirNext-Medium,Avenir Next" font-size="24.0" fill="#FEFFFE" transform="matrix(1.00, 0.00, -0.00, -1.00, 597.0, 483.7)">O</text><text xml:space="preserve" font-family="AvenirNext-Medium,Avenir Next" font-size="24.0" fill="#FEFFFE" transform="matrix(1.00, 0.00, -0.00, -1.00, 617.4, 483.7)">b</text><text xml:space="preserve" font-family="AvenirNext-Medium,Avenir Next" font-size="24.0" fill="#FEFFFE" transform="matrix(1.00, 0.00, -0.00, -1.00, 632.7, 483.7)">j</text><text xml:space="preserve" font-family="AvenirNext-Medium,Avenir Next" font-size="24.0" fill="#FEFFFE" transform="matrix(1.00, 0.00, -0.00, -1.00, 638.9, 483.7)">e</text><text xml:space="preserve" font-family="AvenirNext-Medium,Avenir Next" font-size="24.0" fill="#FEFFFE" transform="matrix(1.00, 0.00, -0.00, -1.00, 652.7, 483.7)">c</text><text xml:space="preserve" font-family="AvenirNext-Medium,Avenir Next" font-size="24.0" fill="#FEFFFE" transform="matrix(1.00, 0.00, -0.00, -1.00, 664.5, 483.7)">t</text></g></g><image xlink:href="../../96F286F0-F81C-49EE-B98B-4911BA6A5A20/assets/3BFF48A26A0A25DA5F9285A24D19CD17.png" width="178.00" height="176.00" transform="matrix(1.00, 0.00, -0.00, -1.00, 404.8, 421.8)" opacity="0.50"></image><g><clipPath id="clip0x600001cbe960"><path d="M 554.5 396.0 C 588.1 362.8 588.1 309.2 554.5 276.0 C 520.9 242.9 466.5 242.9 433.0 276.0 C 399.4 309.2 399.4 362.8 433.0 396.0 C 466.5 429.1 520.9 429.1 554.5 396.0 Z M 554.5 396.0 "></path></clipPath><g clip-path="url(#clip0x600001cbe960)"><image xlink:href="../../04236538-DDCE-4DAC-885E-EF7D1F00479F/assets/148324F4D89F4AF6DFC0631E54781387.png" width="600.00" height="600.00" transform="matrix(0.50, 0.00, -0.00, -0.50, 407.8, 420.8)"></image></g></g><g><clipPath id="clip0x6080020b1dc0"><path d="M 405.5 251.2 L 581.9 251.2 L 581.9 420.8 L 405.5 420.8 Z M 405.5 251.2 "></path></clipPath><g clip-path="url(#clip0x6080020b1dc0)"><text xml:space="preserve" font-family="AvenirNext-Medium,Avenir Next" font-size="24.0" fill="#FEFFFE" transform="matrix(1.00, 0.00, -0.00, -1.00, 448.8, 327.7)">E</text><text xml:space="preserve" font-family="AvenirNext-Medium,Avenir Next" font-size="24.0" fill="#FEFFFE" transform="matrix(1.00, 0.00, -0.00, -1.00, 463.2, 327.7)">O</text><text xml:space="preserve" font-family="AvenirNext-Medium,Avenir Next" font-size="24.0" fill="#FEFFFE" transform="matrix(1.00, 0.00, -0.00, -1.00, 483.6, 327.7)">b</text><text xml:space="preserve" font-family="AvenirNext-Medium,Avenir Next" font-size="24.0" fill="#FEFFFE" transform="matrix(1.00, 0.00, -0.00, -1.00, 498.9, 327.7)">j</text><text xml:space="preserve" font-family="AvenirNext-Medium,Avenir Next" font-size="24.0" fill="#FEFFFE" transform="matrix(1.00, 0.00, -0.00, -1.00, 505.1, 327.7)">e</text><text xml:space="preserve" font-family="AvenirNext-Medium,Avenir Next" font-size="24.0" fill="#FEFFFE" transform="matrix(1.00, 0.00, -0.00, -1.00, 518.9, 327.7)">c</text><text xml:space="preserve" font-family="AvenirNext-Medium,Avenir Next" font-size="24.0" fill="#FEFFFE" transform="matrix(1.00, 0.00, -0.00, -1.00, 530.7, 327.7)">t</text></g></g></g></svg>