<?xml version="1.0" encoding="UTF-8" standalone="no"?><svg xmlns="http://www.w3.org/2000/svg" xmlns:xlink="http://www.w3.org/1999/xlink" clip-rule="evenodd" stroke-miterlimit="10" viewBox="0 0 1024 768"><desc>SVG generated by Keynote</desc><defs></defs><g transform="matrix(1.00, 0.00, -0.00, -1.00, 0.0, 768.0)"><path d="M 0.0 768.0 L 1024.0 768.0 L 1024.0 0.0 L 0.0 0.0 Z M 0.0 768.0 " fill="#FEFFFF"></path><image xlink:href="E103CE844D63160D8AFBAF7EDF81C13C.jpeg" width="1170.00" height="884.00" transform="matrix(0.88, 0.00, -0.00, -0.88, 0.0, 776.0)"></image><text xml:space="preserve" font-family="AvenirNext-Medium,Avenir Next" font-size="86.0" fill="#002451" transform="matrix(1.00, 0.00, -0.00, -1.00, 59.0, 653.5)">S</text><text xml:space="preserve" font-family="AvenirNext-Medium,Avenir Next" font-size="86.0" fill="#002451" transform="matrix(1.00, 0.00, -0.00, -1.00, 108.0, 653.5)">u</text><text xml:space="preserve" font-family="AvenirNext-Medium,Avenir Next" font-size="86.0" fill="#002451" transform="matrix(1.00, 0.00, -0.00, -1.00, 158.0, 653.5)">p</text><text xml:space="preserve" font-family="AvenirNext-Medium,Avenir Next" font-size="86.0" fill="#002451" transform="matrix(1.00, 0.00, -0.00, -1.00, 212.5, 653.5)">e</text><text xml:space="preserve" font-family="AvenirNext-Medium,Avenir Next" font-size="86.0" fill="#002451" transform="matrix(1.00, 0.00, -0.00, -1.00, 261.8, 653.5)">r</text><text xml:space="preserve" font-family="AvenirNext-Medium,Avenir Next" font-size="86.0" fill="#002451" transform="matrix(1.00, 0.00, -0.00, -1.00, 293.0, 653.5)"> </text><text xml:space="preserve" font-family="AvenirNext-Medium,Avenir Next" font-size="86.0" fill="#002451" transform="matrix(1.00, 0.00, -0.00, -1.00, 314.5, 653.5)"> </text><text xml:space="preserve" font-family="AvenirNext-Medium,Avenir Next" font-size="86.0" fill="#002451" transform="matrix(1.00, 0.00, -0.00, -1.00, 59.0, 536.5)">J</text><text xml:space="preserve" font-family="AvenirNext-Medium,Avenir Next" font-size="86.0" fill="#002451" transform="matrix(1.00, 0.00, -0.00, -1.00, 101.1, 536.5)">a</text><text xml:space="preserve" font-family="AvenirNext-Medium,Avenir Next" font-size="86.0" fill="#002451" transform="matrix(1.00, 0.00, -0.00, -1.00, 147.7, 536.5)">v</text><text xml:space="preserve" font-family="AvenirNext-Medium,Avenir Next" font-size="86.0" fill="#002451" transform="matrix(1.00, 0.00, -0.00, -1.00, 191.0, 536.5)">a</text><text xml:space="preserve" font-family="AvenirNext-Medium,Avenir Next" font-size="86.0" fill="#002451" transform="matrix(1.00, 0.00, -0.00, -1.00, 237.7, 536.5)"> </text><text xml:space="preserve" font-family="AvenirNext-Medium,Avenir Next" font-size="86.0" fill="#002451" transform="matrix(1.00, 0.00, -0.00, -1.00, 259.2, 536.5)"> </text><text xml:space="preserve" font-family="AvenirNext-Medium,Avenir Next" font-size="86.0" fill="#002451" transform="matrix(1.00, 0.00, -0.00, -1.00, 59.0, 419.5)">B</text><text xml:space="preserve" font-family="AvenirNext-Medium,Avenir Next" font-size="86.0" fill="#002451" transform="matrix(1.00, 0.00, -0.00, -1.00, 114.2, 419.5)">e</text><text xml:space="preserve" font-family="AvenirNext-Medium,Avenir Next" font-size="86.0" fill="#002451" transform="matrix(1.00, 0.00, -0.00, -1.00, 163.0, 419.5)">a</text><text xml:space="preserve" font-family="AvenirNext-Medium,Avenir Next" font-size="86.0" fill="#002451" transform="matrix(1.00, 0.00, -0.00, -1.00, 209.6, 419.5)">n</text><text xml:space="preserve" font-family="AvenirNext-Medium,Avenir Next" font-size="86.0" fill="#002451" transform="matrix(1.00, 0.00, -0.00, -1.00, 259.7, 419.5)">s</text><text xml:space="preserve" font-family="AvenirNext-Regular,Avenir Next" font-size="9.0" fill="#FEFFFE" transform="matrix(1.00, 0.00, -0.00, -1.00, 824.0, 7.3)">©</text><text xml:space="preserve" font-family="AvenirNext-Regular,Avenir Next" font-size="9.0" fill="#FEFFFE" transform="matrix(1.00, 0.00, -0.00, -1.00, 831.2, 7.3)"> </text><text xml:space="preserve" font-family="AvenirNext-Regular,Avenir Next" font-size="9.0" fill="#FEFFFE" transform="matrix(1.00, 0.00, -0.00, -1.00, 833.5, 7.3)">R</text><text xml:space="preserve" font-family="AvenirNext-Regular,Avenir Next" font-size="9.0" fill="#FEFFFE" transform="matrix(1.00, 0.00, -0.00, -1.00, 838.8, 7.3)">a</text><text xml:space="preserve" font-family="AvenirNext-Regular,Avenir Next" font-size="9.0" fill="#FEFFFE" transform="matrix(1.00, 0.00, -0.00, -1.00, 843.6, 7.3)">n</text><text xml:space="preserve" font-family="AvenirNext-Regular,Avenir Next" font-size="9.0" fill="#FEFFFE" transform="matrix(1.00, 0.00, -0.00, -1.00, 848.8, 7.3)">g</text><text xml:space="preserve" font-family="AvenirNext-Regular,Avenir Next" font-size="9.0" fill="#FEFFFE" transform="matrix(1.00, 0.00, -0.00, -1.00, 854.5, 7.3)">i</text><text xml:space="preserve" font-family="AvenirNext-Regular,Avenir Next" font-size="9.0" fill="#FEFFFE" transform="matrix(1.00, 0.00, -0.00, -1.00, 856.7, 7.3)">z</text><text xml:space="preserve" font-family="AvenirNext-Regular,Avenir Next" font-size="9.0" fill="#FEFFFE" transform="matrix(1.00, 0.00, -0.00, -1.00, 860.7, 7.3)">z</text><text xml:space="preserve" font-family="AvenirNext-Regular,Avenir Next" font-size="9.0" fill="#FEFFFE" transform="matrix(1.00, 0.00, -0.00, -1.00, 864.7, 7.3)">z</text><text xml:space="preserve" font-family="AvenirNext-Regular,Avenir Next" font-size="9.0" fill="#FEFFFE" transform="matrix(1.00, 0.00, -0.00, -1.00, 868.7, 7.3)"> </text><text xml:space="preserve" font-family="AvenirNext-Regular,Avenir Next" font-size="9.0" fill="#FEFFFE" transform="matrix(1.00, 0.00, -0.00, -1.00, 870.9, 7.3)">h</text><text xml:space="preserve" font-family="AvenirNext-Regular,Avenir Next" font-size="9.0" fill="#FEFFFE" transform="matrix(1.00, 0.00, -0.00, -1.00, 876.2, 7.3)">t</text><text xml:space="preserve" font-family="AvenirNext-Regular,Avenir Next" font-size="9.0" fill="#FEFFFE" transform="matrix(1.00, 0.00, -0.00, -1.00, 878.9, 7.3)">t</text><text xml:space="preserve" font-family="AvenirNext-Regular,Avenir Next" font-size="9.0" fill="#FEFFFE" transform="matrix(1.00, 0.00, -0.00, -1.00, 881.8, 7.3)">p</text><text xml:space="preserve" font-family="AvenirNext-Regular,Avenir Next" font-size="9.0" fill="#FEFFFE" transform="matrix(1.00, 0.00, -0.00, -1.00, 887.5, 7.3)">:</text><text xml:space="preserve" font-family="AvenirNext-Regular,Avenir Next" font-size="9.0" fill="#FEFFFE" transform="matrix(1.00, 0.00, -0.00, -1.00, 890.2, 7.3)">/</text><text xml:space="preserve" font-family="AvenirNext-Regular,Avenir Next" font-size="9.0" fill="#FEFFFE" transform="matrix(1.00, 0.00, -0.00, -1.00, 893.5, 7.3)">/</text><text xml:space="preserve" font-family="AvenirNext-Regular,Avenir Next" font-size="9.0" fill="#FEFFFE" transform="matrix(1.00, 0.00, -0.00, -1.00, 896.9, 7.3)">5</text><text xml:space="preserve" font-family="AvenirNext-Regular,Avenir Next" font-size="9.0" fill="#FEFFFE" transform="matrix(1.00, 0.00, -0.00, -1.00, 902.1, 7.3)">0</text><text xml:space="preserve" font-family="AvenirNext-Regular,Avenir Next" font-size="9.0" fill="#FEFFFE" transform="matrix(1.00, 0.00, -0.00, -1.00, 907.3, 7.3)">0</text><text xml:space="preserve" font-family="AvenirNext-Regular,Avenir Next" font-size="9.0" fill="#FEFFFE" transform="matrix(1.00, 0.00, -0.00, -1.00, 912.5, 7.3)">p</text><text xml:space="preserve" font-family="AvenirNext-Regular,Avenir Next" font-size="9.0" fill="#FEFFFE" transform="matrix(1.00, 0.00, -0.00, -1.00, 918.2, 7.3)">x</text><text xml:space="preserve" font-family="AvenirNext-Regular,Avenir Next" font-size="9.0" fill="#FEFFFE" transform="matrix(1.00, 0.00, -0.00, -1.00, 922.6, 7.3)">.</text><text xml:space="preserve" font-family="AvenirNext-Regular,Avenir Next" font-size="9.0" fill="#FEFFFE" transform="matrix(1.00, 0.00, -0.00, -1.00, 924.9, 7.3)">c</text><text xml:space="preserve" font-family="AvenirNext-Regular,Avenir Next" font-size="9.0" fill="#FEFFFE" transform="matrix(1.00, 0.00, -0.00, -1.00, 929.4, 7.3)">o</text><text xml:space="preserve" font-family="AvenirNext-Regular,Avenir Next" font-size="9.0" fill="#FEFFFE" transform="matrix(1.00, 0.00, -0.00, -1.00, 934.9, 7.3)">m</text><text xml:space="preserve" font-family="AvenirNext-Regular,Avenir Next" font-size="9.0" fill="#FEFFFE" transform="matrix(1.00, 0.00, -0.00, -1.00, 942.9, 7.3)">/</text><text xml:space="preserve" font-family="AvenirNext-Regular,Avenir Next" font-size="9.0" fill="#FEFFFE" transform="matrix(1.00, 0.00, -0.00, -1.00, 946.2, 7.3)">p</text><text xml:space="preserve" font-family="AvenirNext-Regular,Avenir Next" font-size="9.0" fill="#FEFFFE" transform="matrix(1.00, 0.00, -0.00, -1.00, 951.9, 7.3)">h</text><text xml:space="preserve" font-family="AvenirNext-Regular,Avenir Next" font-size="9.0" fill="#FEFFFE" transform="matrix(1.00, 0.00, -0.00, -1.00, 957.2, 7.3)">o</text><text xml:space="preserve" font-family="AvenirNext-Regular,Avenir Next" font-size="9.0" fill="#FEFFFE" transform="matrix(1.00, 0.00, -0.00, -1.00, 962.7, 7.3)">t</text><text xml:space="preserve" font-family="AvenirNext-Regular,Avenir Next" font-size="9.0" fill="#FEFFFE" transform="matrix(1.00, 0.00, -0.00, -1.00, 965.5, 7.3)">o</text><text xml:space="preserve" font-family="AvenirNext-Regular,Avenir Next" font-size="9.0" fill="#FEFFFE" transform="matrix(1.00, 0.00, -0.00, -1.00, 971.0, 7.3)">/</text><text xml:space="preserve" font-family="AvenirNext-Regular,Avenir Next" font-size="9.0" fill="#FEFFFE" transform="matrix(1.00, 0.00, -0.00, -1.00, 974.3, 7.3)">3</text><text xml:space="preserve" font-family="AvenirNext-Regular,Avenir Next" font-size="9.0" fill="#FEFFFE" transform="matrix(1.00, 0.00, -0.00, -1.00, 979.6, 7.3)">0</text><text xml:space="preserve" font-family="AvenirNext-Regular,Avenir Next" font-size="9.0" fill="#FEFFFE" transform="matrix(1.00, 0.00, -0.00, -1.00, 984.8, 7.3)">6</text><text xml:space="preserve" font-family="AvenirNext-Regular,Avenir Next" font-size="9.0" fill="#FEFFFE" transform="matrix(1.00, 0.00, -0.00, -1.00, 990.0, 7.3)">4</text><text xml:space="preserve" font-family="AvenirNext-Regular,Avenir Next" font-size="9.0" fill="#FEFFFE" transform="matrix(1.00, 0.00, -0.00, -1.00, 995.2, 7.3)">8</text><text xml:space="preserve" font-family="AvenirNext-Regular,Avenir Next" font-size="9.0" fill="#FEFFFE" transform="matrix(1.00, 0.00, -0.00, -1.00, 1000.4, 7.3)">3</text><text xml:space="preserve" font-family="AvenirNext-Regular,Avenir Next" font-size="9.0" fill="#FEFFFE" transform="matrix(1.00, 0.00, -0.00, -1.00, 1005.7, 7.3)">1</text><text xml:space="preserve" font-family="AvenirNext-Regular,Avenir Next" font-size="9.0" fill="#FEFFFE" transform="matrix(1.00, 0.00, -0.00, -1.00, 1010.9, 7.3)">7</text><g><clipPath id="clip0x608000eb6980"><path d="M 869.9 4.7 L 1016.1 4.7 L 1016.1 7.1 L 869.9 7.1 Z M 869.9 4.7 "></path></clipPath><g clip-path="url(#clip0x608000eb6980)"><path d="M 54.8 14.1 L 200.0 14.1 " fill="none" stroke="#FEFFFE" stroke-width="0.45" transform="matrix(1.00, 0.00, 0.00, -1.00, 816.1, 20.0)"></path></g></g></g></svg>