<?xml version="1.0" encoding="UTF-8" standalone="no"?><svg xmlns="http://www.w3.org/2000/svg" xmlns:xlink="http://www.w3.org/1999/xlink" clip-rule="evenodd" stroke-miterlimit="10" viewBox="0 0 1024 768"><desc>SVG generated by Keynote</desc><defs></defs><g transform="matrix(1.00, 0.00, -0.00, -1.00, 0.0, 768.0)"><path d="M 0.0 768.0 L 1024.0 768.0 L 1024.0 0.0 L 0.0 0.0 Z M 0.0 768.0 " fill="#FEFFFF"></path><g opacity="0.22"><g><clipPath id="clip0x6000024a2640"><path d="M 0.0 0.0 L 1024.0 0.0 L 1024.0 768.0 L 0.0 768.0 Z M 0.0 0.0 "></path></clipPath><g clip-path="url(#clip0x6000024a2640)"><image xlink:href="../../D95773CE-084F-4FA2-8398-B6390B6D7054/assets/82AEADB3F20DCE6AF87E0D1BD1BE5474.jpeg" width="1280.00" height="720.00" transform="matrix(1.07, 0.00, -0.00, -1.07, -170.7, 768.0)"></image></g></g></g><text xml:space="preserve" font-family="AvenirNext-Medium,Avenir Next" font-size="80.0" fill="#000000" transform="matrix(1.00, 0.00, -0.00, -1.00, 192.8, 581.9)">C</text><text xml:space="preserve" font-family="AvenirNext-Medium,Avenir Next" font-size="80.0" fill="#000000" transform="matrix(1.00, 0.00, -0.00, -1.00, 248.5, 581.9)">o</text><text xml:space="preserve" font-family="AvenirNext-Medium,Avenir Next" font-size="80.0" fill="#000000" transform="matrix(1.00, 0.00, -0.00, -1.00, 297.3, 581.9)">d</text><text xml:space="preserve" font-family="AvenirNext-Medium,Avenir Next" font-size="80.0" fill="#000000" transform="matrix(1.00, 0.00, -0.00, -1.00, 348.1, 581.9)">e</text><text xml:space="preserve" font-family="AvenirNext-Medium,Avenir Next" font-size="80.0" fill="#000000" transform="matrix(1.00, 0.00, -0.00, -1.00, 393.9, 581.9)"> </text><text xml:space="preserve" font-family="AvenirNext-Medium,Avenir Next" font-size="80.0" fill="#000000" transform="matrix(1.00, 0.00, -0.00, -1.00, 413.9, 581.9)">i</text><text xml:space="preserve" font-family="AvenirNext-Medium,Avenir Next" font-size="80.0" fill="#000000" transform="matrix(1.00, 0.00, -0.00, -1.00, 434.6, 581.9)">s</text><text xml:space="preserve" font-family="AvenirNext-Medium,Avenir Next" font-size="80.0" fill="#000000" transform="matrix(1.00, 0.00, -0.00, -1.00, 470.2, 581.9)"> </text><text xml:space="preserve" font-family="AvenirNext-Medium,Avenir Next" font-size="80.0" fill="#000000" transform="matrix(1.00, 0.00, -0.00, -1.00, 488.7, 581.9)">A</text><text xml:space="preserve" font-family="AvenirNext-Medium,Avenir Next" font-size="80.0" fill="#000000" transform="matrix(1.00, 0.00, -0.00, -1.00, 545.1, 581.9)">v</text><text xml:space="preserve" font-family="AvenirNext-Medium,Avenir Next" font-size="80.0" fill="#000000" transform="matrix(1.00, 0.00, -0.00, -1.00, 585.4, 581.9)">a</text><text xml:space="preserve" font-family="AvenirNext-Medium,Avenir Next" font-size="80.0" fill="#000000" transform="matrix(1.00, 0.00, -0.00, -1.00, 628.8, 581.9)">i</text><text xml:space="preserve" font-family="AvenirNext-Medium,Avenir Next" font-size="80.0" fill="#000000" transform="matrix(1.00, 0.00, -0.00, -1.00, 649.5, 581.9)">l</text><text xml:space="preserve" font-family="AvenirNext-Medium,Avenir Next" font-size="80.0" fill="#000000" transform="matrix(1.00, 0.00, -0.00, -1.00, 670.3, 581.9)">a</text><text xml:space="preserve" font-family="AvenirNext-Medium,Avenir Next" font-size="80.0" fill="#000000" transform="matrix(1.00, 0.00, -0.00, -1.00, 713.7, 581.9)">b</text><text xml:space="preserve" font-family="AvenirNext-Medium,Avenir Next" font-size="80.0" fill="#000000" transform="matrix(1.00, 0.00, -0.00, -1.00, 764.6, 581.9)">l</text><text xml:space="preserve" font-family="AvenirNext-Medium,Avenir Next" font-size="80.0" fill="#000000" transform="matrix(1.00, 0.00, -0.00, -1.00, 785.4, 581.9)">e</text><text xml:space="preserve" font-family="AvenirNext-Regular,Avenir Next" font-size="38.0" fill="#000000" transform="matrix(1.00, 0.00, -0.00, -1.00, 48.6, 199.2)">h</text><text xml:space="preserve" font-family="AvenirNext-Regular,Avenir Next" font-size="38.0" fill="#000000" transform="matrix(1.00, 0.00, -0.00, -1.00, 70.8, 199.2)">t</text><text xml:space="preserve" font-family="AvenirNext-Regular,Avenir Next" font-size="38.0" fill="#000000" transform="matrix(1.00, 0.00, -0.00, -1.00, 82.4, 199.2)">t</text><text xml:space="preserve" font-family="AvenirNext-Regular,Avenir Next" font-size="38.0" fill="#000000" transform="matrix(1.00, 0.00, -0.00, -1.00, 94.4, 199.2)">p</text><text xml:space="preserve" font-family="AvenirNext-Regular,Avenir Next" font-size="38.0" fill="#000000" transform="matrix(1.00, 0.00, -0.00, -1.00, 118.6, 199.2)">s</text><text xml:space="preserve" font-family="AvenirNext-Regular,Avenir Next" font-size="38.0" fill="#000000" transform="matrix(1.00, 0.00, -0.00, -1.00, 135.4, 199.2)">:</text><text xml:space="preserve" font-family="AvenirNext-Regular,Avenir Next" font-size="38.0" fill="#000000" transform="matrix(1.00, 0.00, -0.00, -1.00, 146.8, 199.2)">/</text><text xml:space="preserve" font-family="AvenirNext-Regular,Avenir Next" font-size="38.0" fill="#000000" transform="matrix(1.00, 0.00, -0.00, -1.00, 160.9, 199.2)">/</text><text xml:space="preserve" font-family="AvenirNext-Regular,Avenir Next" font-size="38.0" fill="#000000" transform="matrix(1.00, 0.00, -0.00, -1.00, 175.0, 199.2)">g</text><text xml:space="preserve" font-family="AvenirNext-Regular,Avenir Next" font-size="38.0" fill="#000000" transform="matrix(1.00, 0.00, -0.00, -1.00, 199.0, 199.2)">i</text><text xml:space="preserve" font-family="AvenirNext-Regular,Avenir Next" font-size="38.0" fill="#000000" transform="matrix(1.00, 0.00, -0.00, -1.00, 208.5, 199.2)">t</text><text xml:space="preserve" font-family="AvenirNext-Regular,Avenir Next" font-size="38.0" fill="#000000" transform="matrix(1.00, 0.00, -0.00, -1.00, 220.5, 199.2)">h</text><text xml:space="preserve" font-family="AvenirNext-Regular,Avenir Next" font-size="38.0" fill="#000000" transform="matrix(1.00, 0.00, -0.00, -1.00, 242.7, 199.2)">u</text><text xml:space="preserve" font-family="AvenirNext-Regular,Avenir Next" font-size="38.0" fill="#000000" transform="matrix(1.00, 0.00, -0.00, -1.00, 264.8, 199.2)">b</text><text xml:space="preserve" font-family="AvenirNext-Regular,Avenir Next" font-size="38.0" fill="#000000" transform="matrix(1.00, 0.00, -0.00, -1.00, 288.5, 199.2)">.</text><text xml:space="preserve" font-family="AvenirNext-Regular,Avenir Next" font-size="38.0" fill="#000000" transform="matrix(1.00, 0.00, -0.00, -1.00, 298.4, 199.2)">c</text><text xml:space="preserve" font-family="AvenirNext-Regular,Avenir Next" font-size="38.0" fill="#000000" transform="matrix(1.00, 0.00, -0.00, -1.00, 317.4, 199.2)">o</text><text xml:space="preserve" font-family="AvenirNext-Regular,Avenir Next" font-size="38.0" fill="#000000" transform="matrix(1.00, 0.00, -0.00, -1.00, 340.6, 199.2)">m</text><text xml:space="preserve" font-family="AvenirNext-Regular,Avenir Next" font-size="38.0" fill="#000000" transform="matrix(1.00, 0.00, -0.00, -1.00, 374.2, 199.2)">/</text><text xml:space="preserve" font-family="AvenirNext-Regular,Avenir Next" font-size="38.0" fill="#000000" transform="matrix(1.00, 0.00, -0.00, -1.00, 388.2, 199.2)">m</text><text xml:space="preserve" font-family="AvenirNext-Regular,Avenir Next" font-size="38.0" fill="#000000" transform="matrix(1.00, 0.00, -0.00, -1.00, 421.8, 199.2)">b</text><text xml:space="preserve" font-family="AvenirNext-Regular,Avenir Next" font-size="38.0" fill="#000000" transform="matrix(1.00, 0.00, -0.00, -1.00, 446.0, 199.2)">a</text><text xml:space="preserve" font-family="AvenirNext-Regular,Avenir Next" font-size="38.0" fill="#000000" transform="matrix(1.00, 0.00, -0.00, -1.00, 466.3, 199.2)">r</text><text xml:space="preserve" font-family="AvenirNext-Regular,Avenir Next" font-size="38.0" fill="#000000" transform="matrix(1.00, 0.00, -0.00, -1.00, 479.9, 199.2)">b</text><text xml:space="preserve" font-family="AvenirNext-Regular,Avenir Next" font-size="38.0" fill="#000000" transform="matrix(1.00, 0.00, -0.00, -1.00, 504.2, 199.2)">e</text><text xml:space="preserve" font-family="AvenirNext-Regular,Avenir Next" font-size="38.0" fill="#000000" transform="matrix(1.00, 0.00, -0.00, -1.00, 525.9, 199.2)">r</text><text xml:space="preserve" font-family="AvenirNext-Regular,Avenir Next" font-size="38.0" fill="#000000" transform="matrix(1.00, 0.00, -0.00, -1.00, 538.9, 199.2)">o</text><text xml:space="preserve" font-family="AvenirNext-Regular,Avenir Next" font-size="38.0" fill="#000000" transform="matrix(1.00, 0.00, -0.00, -1.00, 562.1, 199.2)">/</text><text xml:space="preserve" font-family="AvenirNext-Regular,Avenir Next" font-size="38.0" fill="#000000" transform="matrix(1.00, 0.00, -0.00, -1.00, 576.2, 199.2)">e</text><text xml:space="preserve" font-family="AvenirNext-Regular,Avenir Next" font-size="38.0" fill="#000000" transform="matrix(1.00, 0.00, -0.00, -1.00, 597.9, 199.2)">c</text><text xml:space="preserve" font-family="AvenirNext-Regular,Avenir Next" font-size="38.0" fill="#000000" transform="matrix(1.00, 0.00, -0.00, -1.00, 616.9, 199.2)">o</text><text xml:space="preserve" font-family="AvenirNext-Regular,Avenir Next" font-size="38.0" fill="#000000" transform="matrix(1.00, 0.00, -0.00, -1.00, 640.1, 199.2)">n</text><text xml:space="preserve" font-family="AvenirNext-Regular,Avenir Next" font-size="38.0" fill="#000000" transform="matrix(1.00, 0.00, -0.00, -1.00, 662.2, 199.2)">-</text><text xml:space="preserve" font-family="AvenirNext-Regular,Avenir Next" font-size="38.0" fill="#000000" transform="matrix(1.00, 0.00, -0.00, -1.00, 674.4, 199.2)">n</text><text xml:space="preserve" font-family="AvenirNext-Regular,Avenir Next" font-size="38.0" fill="#000000" transform="matrix(1.00, 0.00, -0.00, -1.00, 696.4, 199.2)">a</text><text xml:space="preserve" font-family="AvenirNext-Regular,Avenir Next" font-size="38.0" fill="#000000" transform="matrix(1.00, 0.00, -0.00, -1.00, 716.7, 199.2)">-</text><text xml:space="preserve" font-family="AvenirNext-Regular,Avenir Next" font-size="38.0" fill="#000000" transform="matrix(1.00, 0.00, -0.00, -1.00, 728.9, 199.2)">2</text><text xml:space="preserve" font-family="AvenirNext-Regular,Avenir Next" font-size="38.0" fill="#000000" transform="matrix(1.00, 0.00, -0.00, -1.00, 750.9, 199.2)">0</text><text xml:space="preserve" font-family="AvenirNext-Regular,Avenir Next" font-size="38.0" fill="#000000" transform="matrix(1.00, 0.00, -0.00, -1.00, 773.0, 199.2)">1</text><text xml:space="preserve" font-family="AvenirNext-Regular,Avenir Next" font-size="38.0" fill="#000000" transform="matrix(1.00, 0.00, -0.00, -1.00, 795.0, 199.2)">4</text><text xml:space="preserve" font-family="AvenirNext-Regular,Avenir Next" font-size="38.0" fill="#000000" transform="matrix(1.00, 0.00, -0.00, -1.00, 817.0, 199.2)">-</text><text xml:space="preserve" font-family="AvenirNext-Regular,Avenir Next" font-size="38.0" fill="#000000" transform="matrix(1.00, 0.00, -0.00, -1.00, 829.2, 199.2)">e</text><text xml:space="preserve" font-family="AvenirNext-Regular,Avenir Next" font-size="38.0" fill="#000000" transform="matrix(1.00, 0.00, -0.00, -1.00, 850.9, 199.2)">m</text><text xml:space="preserve" font-family="AvenirNext-Regular,Avenir Next" font-size="38.0" fill="#000000" transform="matrix(1.00, 0.00, -0.00, -1.00, 884.5, 199.2)">f</text><text xml:space="preserve" font-family="AvenirNext-Regular,Avenir Next" font-size="38.0" fill="#000000" transform="matrix(1.00, 0.00, -0.00, -1.00, 895.7, 199.2)">-</text><text xml:space="preserve" font-family="AvenirNext-Regular,Avenir Next" font-size="38.0" fill="#000000" transform="matrix(1.00, 0.00, -0.00, -1.00, 907.9, 199.2)">e</text><text xml:space="preserve" font-family="AvenirNext-Regular,Avenir Next" font-size="38.0" fill="#000000" transform="matrix(1.00, 0.00, -0.00, -1.00, 929.6, 199.2)">d</text><text xml:space="preserve" font-family="AvenirNext-Regular,Avenir Next" font-size="38.0" fill="#000000" transform="matrix(1.00, 0.00, -0.00, -1.00, 953.8, 199.2)">i</text><text xml:space="preserve" font-family="AvenirNext-Regular,Avenir Next" font-size="38.0" fill="#000000" transform="matrix(1.00, 0.00, -0.00, -1.00, 963.3, 199.2)">t</text><g><clipPath id="clip0x6000024a4140"><path d="M 47.6 194.4 L 975.4 194.4 L 975.4 198.3 L 47.6 198.3 Z M 47.6 194.4 "></path></clipPath><g clip-path="url(#clip0x6000024a4140)"><path d="M 4.5 44.9 L 931.2 44.9 " fill="none" stroke="#000000" stroke-width="1.90" transform="matrix(1.00, 0.00, 0.00, -1.00, 44.1, 241.3)"></path></g></g><text xml:space="preserve" font-family="AvenirNext-Regular,Avenir Next" font-size="38.0" fill="#000000" transform="matrix(1.00, 0.00, -0.00, -1.00, 413.0, 91.7)">T</text><text xml:space="preserve" font-family="AvenirNext-Regular,Avenir Next" font-size="38.0" fill="#000000" transform="matrix(1.00, 0.00, -0.00, -1.00, 431.1, 91.7)">a</text><text xml:space="preserve" font-family="AvenirNext-Regular,Avenir Next" font-size="38.0" fill="#000000" transform="matrix(1.00, 0.00, -0.00, -1.00, 451.4, 91.7)">g</text><text xml:space="preserve" font-family="AvenirNext-Regular,Avenir Next" font-size="38.0" fill="#000000" transform="matrix(1.00, 0.00, -0.00, -1.00, 475.4, 91.7)"> </text><text xml:space="preserve" font-family="AvenirNext-DemiBold,Avenir Next" font-weight="bold" font-size="38.0" fill="#000000" transform="matrix(1.00, 0.00, -0.00, -1.00, 484.9, 91.7)">d</text><text xml:space="preserve" font-family="AvenirNext-DemiBold,Avenir Next" font-weight="bold" font-size="38.0" fill="#000000" transform="matrix(1.00, 0.00, -0.00, -1.00, 509.0, 91.7)">e</text><text xml:space="preserve" font-family="AvenirNext-DemiBold,Avenir Next" font-weight="bold" font-size="38.0" fill="#000000" transform="matrix(1.00, 0.00, -0.00, -1.00, 530.8, 91.7)">m</text><text xml:space="preserve" font-family="AvenirNext-DemiBold,Avenir Next" font-weight="bold" font-size="38.0" fill="#000000" transform="matrix(1.00, 0.00, -0.00, -1.00, 564.6, 91.7)">o</text><text xml:space="preserve" font-family="AvenirNext-DemiBold,Avenir Next" font-weight="bold" font-size="38.0" fill="#000000" transform="matrix(1.00, 0.00, -0.00, -1.00, 587.8, 91.7)">4</text></g></svg>