<?xml version="1.0" encoding="UTF-8" standalone="no"?><svg xmlns="http://www.w3.org/2000/svg" xmlns:xlink="http://www.w3.org/1999/xlink" clip-rule="evenodd" stroke-miterlimit="10" viewBox="0 0 1024 768"><desc>SVG generated by Keynote</desc><defs><pattern id="patternP1" patternUnits="userSpaceOnUse" width="600" height="600" viewBox="0 0 600 600"><image xlink:href="../../EA982924-DC08-4F1E-882F-963D69E51302/assets/DC2A53C02094A33E71459049D1F71A9F.png" width="600.00" height="600.00"></image></pattern></defs><g transform="matrix(1.00, 0.00, -0.00, -1.00, 0.0, 768.0)"><g><clipPath id="clip0x608001cb3da0"><path d="M 0.0 768.0 L 1024.0 768.0 L 1024.0 0.0 L 0.0 0.0 Z M 0.0 768.0 "></path></clipPath><g clip-path="url(#clip0x608001cb3da0)"><path d="M 0.0 0.0 L 1024.0 0.0 L 1024.0 768.0 L 0.0 768.0 Z M 0.0 0.0 " fill="url(#patternP1)"></path></g></g><path d="M 0.0 593.0 L 1024.0 593.0 L 1024.0 404.0 L 0.0 404.0 Z M 0.0 593.1 " fill="#000000" fill-opacity="0.50"></path><image xlink:href="../../A29E6B11-7B6F-4C43-ABDB-2085E9EDB079/assets/7B4B9B74C469B339541EC4D239B44C15.png" width="440.00" height="440.00" transform="matrix(1.00, 0.00, -0.00, -1.00, 50.0, 708.1)" opacity="0.70"></image><g><clipPath id="clip0x600001aa4560"><path d="M 411.5 639.6 C 489.7 561.6 489.7 435.1 411.5 357.1 C 333.4 279.0 206.8 279.0 128.6 357.1 C 50.5 435.1 50.5 561.6 128.6 639.6 C 206.8 717.7 333.4 717.7 411.5 639.6 Z M 411.5 639.6 "></path></clipPath><g clip-path="url(#clip0x600001aa4560)"><image xlink:href="../../4790DE4D-04B6-4D60-9FAF-65ED9992D846/assets/F16ED048D75C51B76481F092AAC51982.jpeg" width="1158.00" height="1170.00" transform="matrix(0.50, 0.00, -0.00, -0.50, 70.0, 732.0)"></image></g></g><text xml:space="preserve" font-family="AvenirNext-Regular,Avenir Next" font-size="64.0" fill="#FEFFFE" transform="matrix(1.00, 0.00, -0.00, -1.00, 210.1, 126.9)">C</text><text xml:space="preserve" font-family="AvenirNext-Regular,Avenir Next" font-size="64.0" fill="#FEFFFE" transform="matrix(1.00, 0.00, -0.00, -1.00, 256.2, 126.9)">h</text><text xml:space="preserve" font-family="AvenirNext-Regular,Avenir Next" font-size="64.0" fill="#FEFFFE" transform="matrix(1.00, 0.00, -0.00, -1.00, 293.5, 126.9)">a</text><text xml:space="preserve" font-family="AvenirNext-Regular,Avenir Next" font-size="64.0" fill="#FEFFFE" transform="matrix(1.00, 0.00, -0.00, -1.00, 327.7, 126.9)">n</text><text xml:space="preserve" font-family="AvenirNext-Regular,Avenir Next" font-size="64.0" fill="#FEFFFE" transform="matrix(1.00, 0.00, -0.00, -1.00, 364.9, 126.9)">g</text><text xml:space="preserve" font-family="AvenirNext-Regular,Avenir Next" font-size="64.0" fill="#FEFFFE" transform="matrix(1.00, 0.00, -0.00, -1.00, 405.3, 126.9)">i</text><text xml:space="preserve" font-family="AvenirNext-Regular,Avenir Next" font-size="64.0" fill="#FEFFFE" transform="matrix(1.00, 0.00, -0.00, -1.00, 421.3, 126.9)">n</text><text xml:space="preserve" font-family="AvenirNext-Regular,Avenir Next" font-size="64.0" fill="#FEFFFE" transform="matrix(1.00, 0.00, -0.00, -1.00, 458.5, 126.9)">g</text><text xml:space="preserve" font-family="AvenirNext-Regular,Avenir Next" font-size="64.0" fill="#FEFFFE" transform="matrix(1.00, 0.00, -0.00, -1.00, 498.9, 126.9)"> </text><text xml:space="preserve" font-family="AvenirNext-Regular,Avenir Next" font-size="64.0" fill="#FEFFFE" transform="matrix(1.00, 0.00, -0.00, -1.00, 514.9, 126.9)">t</text><text xml:space="preserve" font-family="AvenirNext-Regular,Avenir Next" font-size="64.0" fill="#FEFFFE" transform="matrix(1.00, 0.00, -0.00, -1.00, 535.2, 126.9)">h</text><text xml:space="preserve" font-family="AvenirNext-Regular,Avenir Next" font-size="64.0" fill="#FEFFFE" transform="matrix(1.00, 0.00, -0.00, -1.00, 572.5, 126.9)">e</text><text xml:space="preserve" font-family="AvenirNext-Regular,Avenir Next" font-size="64.0" fill="#FEFFFE" transform="matrix(1.00, 0.00, -0.00, -1.00, 609.2, 126.9)"> </text><text xml:space="preserve" font-family="AvenirNext-Regular,Avenir Next" font-size="64.0" fill="#FEFFFE" transform="matrix(1.00, 0.00, -0.00, -1.00, 625.2, 126.9)">L</text><text xml:space="preserve" font-family="AvenirNext-Regular,Avenir Next" font-size="64.0" fill="#FEFFFE" transform="matrix(1.00, 0.00, -0.00, -1.00, 657.8, 126.9)">a</text><text xml:space="preserve" font-family="AvenirNext-Regular,Avenir Next" font-size="64.0" fill="#FEFFFE" transform="matrix(1.00, 0.00, -0.00, -1.00, 692.0, 126.9)">b</text><text xml:space="preserve" font-family="AvenirNext-Regular,Avenir Next" font-size="64.0" fill="#FEFFFE" transform="matrix(1.00, 0.00, -0.00, -1.00, 732.7, 126.9)">e</text><text xml:space="preserve" font-family="AvenirNext-Regular,Avenir Next" font-size="64.0" fill="#FEFFFE" transform="matrix(1.00, 0.00, -0.00, -1.00, 769.3, 126.9)">l</text><text xml:space="preserve" font-family="AvenirNext-Regular,Avenir Next" font-size="64.0" fill="#FEFFFE" transform="matrix(1.00, 0.00, -0.00, -1.00, 785.5, 126.9)">s</text><text xml:space="preserve" font-family="AvenirNext-Regular,Avenir Next" font-size="64.0" fill="#FEFFFE" transform="matrix(1.00, 0.00, -0.00, -1.00, 607.7, 478.3)">E</text><text xml:space="preserve" font-family="AvenirNext-Regular,Avenir Next" font-size="64.0" fill="#FEFFFE" transform="matrix(1.00, 0.00, -0.00, -1.00, 645.6, 478.3)">x</text><text xml:space="preserve" font-family="AvenirNext-Regular,Avenir Next" font-size="64.0" fill="#FEFFFE" transform="matrix(1.00, 0.00, -0.00, -1.00, 676.1, 478.3)">e</text><text xml:space="preserve" font-family="AvenirNext-Regular,Avenir Next" font-size="64.0" fill="#FEFFFE" transform="matrix(1.00, 0.00, -0.00, -1.00, 712.8, 478.3)">r</text><text xml:space="preserve" font-family="AvenirNext-Regular,Avenir Next" font-size="64.0" fill="#FEFFFE" transform="matrix(1.00, 0.00, -0.00, -1.00, 734.6, 478.3)">c</text><text xml:space="preserve" font-family="AvenirNext-Regular,Avenir Next" font-size="64.0" fill="#FEFFFE" transform="matrix(1.00, 0.00, -0.00, -1.00, 766.6, 478.3)">i</text><text xml:space="preserve" font-family="AvenirNext-Regular,Avenir Next" font-size="64.0" fill="#FEFFFE" transform="matrix(1.00, 0.00, -0.00, -1.00, 782.6, 478.3)">s</text><text xml:space="preserve" font-family="AvenirNext-Regular,Avenir Next" font-size="64.0" fill="#FEFFFE" transform="matrix(1.00, 0.00, -0.00, -1.00, 811.1, 478.3)">e</text><text xml:space="preserve" font-family="AvenirNext-Regular,Avenir Next" font-size="64.0" fill="#FEFFFE" transform="matrix(1.00, 0.00, -0.00, -1.00, 847.7, 478.3)"> </text><text xml:space="preserve" font-family="AvenirNext-Regular,Avenir Next" font-size="64.0" fill="#FEFFFE" transform="matrix(1.00, 0.00, -0.00, -1.00, 863.7, 478.3)">2</text></g></svg>