<?xml version="1.0" encoding="UTF-8" standalone="no"?><svg xmlns="http://www.w3.org/2000/svg" xmlns:xlink="http://www.w3.org/1999/xlink" clip-rule="evenodd" stroke-miterlimit="10" viewBox="0 0 114 22"><desc>SVG generated by Keynote</desc><defs></defs><g transform="matrix(1.00, 0.00, -0.00, -1.00, 0.0, 22.0)"><path d="M 6.0 10.2 C 5.7 10.3 5.5 9.8 4.8 9.6 C 4.2 9.5 3.4 9.5 3.5 9.8 C 3.7 10.1 3.9 10.3 3.6 10.7 C 3.2 11.1 2.8 11.8 3.3 12.1 C 3.8 12.3 5.6 13.0 6.1 12.7 C 6.7 12.3 6.9 12.1 7.3 11.9 C 7.8 11.7 7.5 12.5 7.5 12.5 C 7.5 12.5 8.5 12.6 9.2 12.6 C 9.9 12.7 10.7 12.7 10.8 12.6 C 10.9 12.4 11.2 12.1 11.2 12.1 C 11.2 12.1 11.5 12.5 12.1 12.6 C 12.6 12.7 12.4 12.5 12.4 12.3 C 12.3 12.1 11.6 11.6 11.9 11.6 C 12.1 11.6 12.8 12.4 13.2 12.4 C 13.5 12.5 14.4 12.5 14.4 12.5 C 14.4 12.5 14.3 12.0 14.4 11.9 C 14.5 11.8 15.3 11.8 15.3 11.9 C 15.4 12.1 15.3 12.6 15.7 12.6 C 17.1 12.7 16.9 11.8 17.0 11.8 C 17.1 11.7 17.1 12.4 17.4 12.5 C 17.7 12.6 20.3 12.5 20.5 12.4 C 20.6 12.2 21.4 12.8 21.8 12.4 C 22.2 12.0 22.3 11.8 22.4 11.7 C 22.5 11.6 23.0 10.9 23.2 11.2 C 23.4 11.5 22.4 12.2 22.7 12.4 C 23.1 12.7 24.7 12.7 24.9 12.5 C 25.3 12.2 25.4 11.5 25.7 11.5 C 25.9 11.5 26.8 12.4 26.9 12.3 C 27.0 12.1 27.1 11.4 27.1 11.3 C 27.1 11.2 27.4 9.9 27.2 9.7 C 27.0 9.6 26.0 9.1 26.2 9.4 C 26.3 9.8 26.5 10.3 26.2 10.4 C 25.8 10.6 25.6 10.6 25.6 10.5 C 25.5 10.3 25.7 10.2 25.1 9.9 C 24.5 9.7 24.8 9.4 24.3 9.4 C 23.8 9.5 23.3 9.5 23.3 9.8 C 23.4 10.1 22.8 10.5 22.4 10.5 C 22.0 10.4 22.7 9.8 21.5 9.6 C 20.3 9.3 19.5 9.3 19.1 9.5 C 18.8 9.8 18.7 10.5 18.1 10.2 C 17.6 9.9 17.9 9.7 17.1 9.7 C 16.3 9.7 16.0 10.3 15.5 10.3 C 15.1 10.3 14.9 10.3 14.9 10.3 C 14.9 10.3 15.2 9.5 14.1 9.4 C 12.9 9.4 12.7 9.3 12.9 9.9 C 13.2 10.5 12.3 10.6 12.3 10.2 C 12.2 9.8 11.6 9.5 11.2 9.4 C 10.8 9.4 10.7 10.4 10.6 10.4 C 10.4 10.5 10.0 10.4 10.1 10.1 C 10.3 9.8 9.9 9.7 9.5 9.6 C 9.2 9.4 8.2 9.5 8.2 9.7 C 8.2 9.9 8.7 10.6 8.0 10.2 C 7.3 9.9 7.1 9.4 6.5 9.4 C 5.8 9.4 6.4 10.0 6.0 10.2 C 6.0 10.2 6.0 10.2 6.0 10.2 Z M 27.6 9.4 C 26.4 9.4 27.2 12.1 27.7 12.6 C 28.1 13.2 28.9 12.8 29.7 12.9 C 30.5 13.0 30.2 12.2 30.7 11.9 C 31.2 11.7 31.0 12.2 31.2 12.6 C 31.4 13.0 32.6 12.7 33.3 12.7 C 34.1 12.7 34.8 11.9 35.4 11.8 C 36.0 11.8 34.9 11.3 36.0 11.4 C 37.0 11.4 36.5 11.9 35.3 12.2 C 34.1 12.5 35.8 12.7 36.4 12.8 C 37.1 12.9 38.2 12.5 38.7 12.6 C 39.3 12.6 38.6 11.9 39.4 12.0 C 40.1 12.0 39.8 12.7 40.5 12.8 C 41.3 12.9 41.2 12.2 41.6 12.1 C 42.0 11.9 41.9 12.3 42.2 12.4 C 42.6 12.4 43.1 12.6 43.8 12.5 C 44.6 12.3 44.4 12.1 44.7 12.1 C 45.0 12.0 45.6 12.0 45.6 12.0 C 45.6 12.3 45.7 12.5 45.7 12.7 C 45.7 12.7 47.1 12.8 47.5 12.8 C 47.8 12.9 48.7 12.6 48.5 12.4 C 48.3 12.3 49.2 11.8 49.4 11.9 C 49.6 12.0 50.2 12.4 50.7 12.5 C 51.1 12.7 51.0 11.0 51.0 10.7 C 51.0 10.5 51.3 9.5 50.9 9.4 C 50.5 9.3 50.2 9.7 50.2 9.4 C 50.3 9.2 49.1 9.4 48.8 9.4 C 48.4 9.4 48.0 10.1 48.0 10.1 C 48.0 10.1 47.7 10.6 47.2 10.6 C 46.7 10.6 46.5 9.5 46.5 9.5 C 46.5 9.5 45.8 9.3 45.1 9.4 C 44.5 9.4 43.8 10.3 43.6 10.5 C 43.5 10.7 43.5 9.9 43.1 9.8 C 42.6 9.7 41.9 9.4 41.7 9.5 C 41.5 9.5 41.2 10.1 41.2 10.1 C 41.2 10.1 40.3 10.4 40.1 10.4 C 39.9 10.4 40.3 9.6 40.3 9.6 C 40.3 9.6 38.5 9.4 38.1 9.3 C 37.7 9.3 37.2 9.5 36.9 9.5 C 36.6 9.6 36.2 10.6 35.8 10.5 C 35.5 10.4 36.2 9.8 35.8 9.7 C 35.5 9.6 34.7 9.4 34.5 9.4 C 34.3 9.4 34.1 9.8 33.7 9.8 C 33.4 9.9 32.9 10.6 32.4 10.6 C 31.9 10.6 31.6 10.2 31.4 10.1 C 31.2 10.0 31.1 9.3 30.7 9.3 C 30.3 9.3 30.6 9.7 30.2 9.7 C 29.8 9.7 29.8 10.2 29.4 10.1 C 29.0 10.0 29.2 9.2 28.8 9.3 C 28.6 9.4 28.8 9.3 27.6 9.4 C 27.6 9.4 27.6 9.4 27.6 9.4 Z M 51.9 9.5 C 51.3 9.2 50.8 9.6 50.9 10.0 C 50.9 10.4 51.1 11.3 50.9 11.6 C 50.7 11.9 50.1 12.6 51.1 12.7 C 52.1 12.9 52.3 12.6 52.3 12.4 C 52.3 12.1 52.5 11.1 52.7 11.2 C 53.0 11.3 53.3 11.6 53.3 11.7 C 53.4 11.8 53.8 12.8 54.3 12.7 C 54.8 12.5 55.2 12.3 55.2 12.3 C 55.5 12.2 55.7 12.2 55.9 12.2 C 55.9 12.2 56.6 12.8 57.1 12.7 C 57.7 12.5 58.3 12.5 58.7 12.6 C 59.1 12.6 59.5 12.5 59.6 12.3 C 59.6 12.1 60.2 11.2 60.2 11.2 C 60.2 11.2 60.8 11.0 61.0 11.1 C 61.3 11.3 61.4 11.8 61.3 11.9 C 61.2 12.1 61.3 12.6 61.7 12.7 C 62.1 12.8 63.8 13.2 64.1 13.0 C 64.4 12.7 64.3 12.3 64.5 12.2 C 64.7 12.1 65.8 12.1 65.9 12.3 C 66.0 12.5 66.0 13.0 66.3 13.0 C 66.6 13.0 67.3 13.1 67.3 13.0 C 67.3 12.8 67.5 12.7 67.5 12.4 C 67.6 12.1 68.2 11.9 68.4 11.8 C 68.5 11.6 69.0 11.6 69.0 11.6 C 69.3 11.7 69.5 11.9 69.7 12.0 C 69.7 12.0 69.3 12.5 69.1 12.6 C 68.9 12.7 69.2 13.0 69.4 13.1 C 69.6 13.1 70.9 13.0 70.9 13.0 C 70.9 12.7 71.0 12.3 71.0 11.9 C 71.3 11.8 71.6 11.7 71.9 11.7 C 71.9 11.7 71.8 13.0 72.4 13.0 C 73.0 13.0 73.7 13.0 73.7 13.0 C 73.7 13.0 74.3 12.5 74.5 12.4 C 74.7 12.4 74.7 11.2 74.7 11.2 C 74.7 10.7 74.6 10.3 74.6 9.8 C 74.6 9.8 73.9 9.3 73.5 9.5 C 73.1 9.7 73.4 10.2 73.3 10.5 C 73.3 10.7 72.7 10.9 72.7 10.9 C 72.4 10.7 72.1 10.4 71.8 10.1 C 71.8 10.1 71.6 9.9 71.3 9.7 C 71.1 9.4 70.1 9.3 69.8 9.4 C 69.6 9.5 69.3 9.8 69.0 10.0 C 68.6 10.3 68.7 10.7 68.3 10.4 C 67.9 10.0 67.7 9.7 67.5 9.7 C 67.3 9.7 66.4 10.1 66.4 10.1 C 66.2 10.2 66.0 10.3 65.7 10.5 C 65.7 10.5 65.1 10.7 65.0 10.4 C 64.9 10.1 63.6 10.5 63.6 10.5 C 63.6 10.5 63.7 9.6 63.4 9.5 C 63.0 9.3 62.5 9.2 62.0 9.3 C 61.4 9.4 61.0 10.2 61.0 10.2 C 60.9 10.0 60.7 9.8 60.5 9.6 C 60.0 9.6 59.5 9.5 59.0 9.4 C 59.0 9.4 57.9 9.5 57.9 9.6 C 57.9 9.8 58.0 10.5 58.0 10.6 C 57.9 10.8 57.3 11.1 57.2 10.8 C 57.1 10.6 56.6 9.9 56.6 9.9 C 56.6 9.9 56.1 9.5 55.8 9.5 C 55.5 9.4 54.9 9.7 54.8 9.8 C 54.7 9.9 54.1 10.5 54.1 10.5 C 54.0 10.2 53.9 10.0 53.7 9.8 C 53.7 9.8 52.8 10.1 51.9 9.5 C 51.9 9.5 51.9 9.5 51.9 9.5 Z M 75.1 9.4 C 73.9 9.4 74.7 12.1 75.1 12.6 C 75.6 13.2 76.4 12.8 77.2 12.9 C 78.0 13.0 77.7 12.2 78.2 11.9 C 78.6 11.7 78.5 12.2 78.7 12.6 C 78.9 13.0 80.1 12.7 80.8 12.7 C 81.6 12.7 82.3 11.9 82.9 11.8 C 83.5 11.8 82.4 11.3 83.5 11.4 C 84.5 11.4 84.0 11.9 82.8 12.2 C 81.6 12.5 83.3 12.7 83.9 12.8 C 84.6 12.9 85.7 12.5 86.2 12.6 C 86.8 12.6 86.1 11.9 86.9 12.0 C 87.6 12.0 87.2 12.7 88.0 12.8 C 88.8 12.9 88.7 12.2 89.1 12.1 C 89.5 11.9 89.4 12.3 89.7 12.4 C 90.0 12.4 90.6 12.6 91.3 12.5 C 92.0 12.3 91.8 12.1 92.2 12.1 C 92.5 12.0 93.1 12.0 93.1 12.0 C 93.1 12.3 93.2 12.5 93.2 12.7 C 93.2 12.7 94.5 12.8 94.9 12.8 C 95.3 12.9 96.2 12.6 96.0 12.4 C 95.7 12.3 96.6 11.8 96.8 11.9 C 97.0 12.0 97.7 12.4 98.2 12.5 C 98.6 12.7 98.5 11.0 98.5 10.7 C 98.5 10.5 98.8 9.5 98.4 9.4 C 98.0 9.3 97.6 9.7 97.7 9.4 C 97.8 9.2 96.6 9.4 96.2 9.4 C 95.9 9.4 95.5 10.1 95.5 10.1 C 95.5 10.1 95.2 10.6 94.7 10.6 C 94.1 10.6 93.9 9.5 93.9 9.5 C 93.9 9.5 93.3 9.3 92.6 9.4 C 92.0 9.4 91.2 10.3 91.1 10.5 C 91.0 10.7 91.0 9.9 90.5 9.8 C 90.1 9.7 89.4 9.4 89.2 9.5 C 89.0 9.5 88.7 10.1 88.7 10.1 C 88.7 10.1 87.8 10.4 87.6 10.4 C 87.4 10.4 87.8 9.6 87.8 9.6 C 87.8 9.6 86.0 9.4 85.6 9.3 C 85.2 9.3 84.6 9.5 84.4 9.5 C 84.1 9.6 83.7 10.6 83.3 10.5 C 82.9 10.4 83.7 9.8 83.3 9.7 C 82.9 9.6 82.2 9.4 82.0 9.4 C 81.8 9.4 81.5 9.8 81.2 9.8 C 80.9 9.9 80.4 10.6 79.9 10.6 C 79.4 10.6 79.1 10.2 78.9 10.1 C 78.7 10.0 78.6 9.3 78.2 9.3 C 77.7 9.3 78.0 9.7 77.7 9.7 C 77.3 9.7 77.3 10.2 76.9 10.1 C 76.5 10.0 76.7 9.2 76.3 9.3 C 76.1 9.4 76.3 9.3 75.1 9.4 C 75.1 9.4 75.1 9.4 75.1 9.4 Z M 75.1 9.4 " fill="#5E416F"></path><path d="M 97.4 20.4 C 97.3 20.8 96.2 21.1 96.9 20.4 C 97.0 20.4 97.4 20.3 97.4 20.4 Z M 99.0 19.4 C 98.9 19.5 98.8 19.5 98.7 19.5 C 98.3 19.3 99.5 19.2 99.0 19.4 Z M 96.4 20.5 C 96.4 20.6 95.8 20.9 95.9 20.8 C 95.9 20.6 96.4 20.5 96.4 20.5 Z M 100.2 17.9 C 100.2 18.0 99.7 18.3 99.5 18.3 C 99.1 18.3 100.0 17.5 100.2 17.9 Z M 95.6 15.0 C 95.6 15.0 95.6 14.9 95.6 14.9 C 95.6 14.9 95.6 15.0 95.6 15.0 Z M 108.2 13.6 C 108.1 13.6 107.8 13.6 107.8 13.5 C 107.8 13.3 108.5 13.3 108.2 13.6 Z M 95.3 4.0 C 95.3 4.0 95.1 4.2 95.0 4.1 C 94.9 4.0 95.1 3.9 95.3 4.0 Z M 95.1 4.0 C 94.9 4.0 94.9 3.8 95.0 3.8 C 95.1 3.9 95.2 3.9 95.1 4.0 Z M 104.0 6.3 C 104.1 6.4 104.1 6.4 104.1 6.4 C 104.0 6.4 103.9 6.3 104.0 6.3 Z M 103.7 6.4 C 103.5 6.5 103.5 6.2 103.6 6.2 C 103.8 6.2 103.8 6.3 103.7 6.4 Z M 102.4 4.6 C 102.5 4.7 102.6 4.7 102.5 4.7 C 102.4 4.7 102.3 4.6 102.4 4.6 Z M 94.8 8.5 C 94.7 8.5 94.8 8.1 94.9 8.1 C 95.1 8.2 94.9 8.7 94.8 8.5 Z M 94.7 8.1 C 94.6 8.1 94.5 7.9 94.7 7.9 C 94.8 8.0 94.8 8.0 94.7 8.1 Z M 95.0 9.5 C 95.2 9.5 95.2 9.9 95.1 9.9 C 95.1 10.1 95.0 10.2 95.0 10.3 C 94.9 10.4 94.7 9.5 95.0 9.5 Z M 95.2 12.4 C 95.1 12.4 95.0 12.4 95.1 12.3 C 95.2 12.1 95.2 12.4 95.2 12.4 Z M 95.0 10.8 C 95.0 10.8 94.9 10.7 95.0 10.6 C 95.1 10.5 95.1 10.8 95.0 10.8 Z M 103.5 16.3 C 103.6 16.4 103.2 16.6 103.1 16.6 C 103.1 16.6 103.2 16.5 103.1 16.5 C 103.0 16.5 103.0 16.0 103.5 16.3 Z M 100.0 18.8 C 99.9 18.9 99.8 18.8 99.8 18.7 C 99.8 18.7 100.2 18.6 100.0 18.8 Z M 102.7 16.2 C 102.7 16.2 102.6 16.3 102.6 16.2 C 102.5 16.2 102.6 16.1 102.7 16.2 Z M 102.9 15.9 C 102.8 16.0 102.6 16.0 102.5 15.8 C 102.5 15.6 103.2 15.7 102.9 15.9 Z M 104.1 16.2 C 104.0 16.3 104.0 16.3 104.1 16.2 C 104.1 16.1 104.1 16.2 104.1 16.2 Z M 102.1 17.7 C 102.0 17.7 102.0 17.7 102.0 17.7 C 102.1 17.6 102.1 17.7 102.1 17.7 Z M 105.0 15.3 C 105.0 15.3 104.8 15.7 104.6 15.5 C 104.3 15.2 105.0 15.3 105.0 15.3 Z M 106.3 14.1 C 106.2 14.1 106.2 14.0 106.3 14.0 C 106.4 14.0 106.4 14.1 106.3 14.1 Z M 106.6 13.3 C 106.8 13.2 107.0 13.3 106.7 13.4 C 106.4 13.5 106.3 13.3 106.6 13.3 Z M 106.3 13.6 C 106.3 13.5 106.4 13.5 106.4 13.5 C 106.5 13.6 106.4 13.6 106.3 13.6 Z M 105.3 14.7 C 105.2 14.9 105.0 14.8 105.1 14.6 C 105.3 14.5 105.4 14.5 105.3 14.7 Z M 94.8 16.6 C 94.9 16.7 94.7 16.6 94.6 16.6 C 94.6 16.5 94.8 16.4 94.8 16.6 Z M 95.5 10.2 C 95.4 10.3 95.4 10.2 95.4 10.0 C 95.5 9.9 95.6 10.1 95.5 10.2 Z M 95.8 6.1 C 95.7 6.2 95.7 6.2 95.8 6.0 C 95.8 5.8 95.9 6.1 95.8 6.1 Z M 95.5 11.8 C 95.4 11.9 95.1 11.4 95.4 11.2 C 95.7 11.0 95.7 11.7 95.5 11.8 Z M 98.7 15.8 C 98.8 15.9 98.6 15.8 98.6 15.8 C 98.7 15.7 98.7 15.7 98.7 15.8 Z M 96.0 10.9 C 96.0 11.0 95.8 11.0 95.8 10.9 C 95.7 10.8 95.9 10.8 96.0 10.9 Z M 95.6 6.9 C 95.5 7.0 95.2 6.9 95.2 6.8 C 94.9 6.5 95.2 6.3 95.4 6.0 C 95.5 5.8 95.6 6.8 95.6 6.9 Z M 95.4 17.5 C 95.5 17.4 95.5 17.3 95.5 17.3 C 95.4 17.2 95.5 17.2 95.5 17.1 C 95.5 16.7 95.1 16.4 95.0 16.2 C 94.8 15.6 95.5 15.4 95.6 15.0 C 95.6 15.1 95.6 15.2 95.7 15.3 C 95.9 15.4 95.8 14.0 95.8 13.9 C 95.6 12.7 95.4 14.2 95.0 14.2 C 94.8 14.2 95.3 13.3 95.3 13.3 C 95.5 12.9 95.1 12.8 95.2 12.5 C 95.3 12.4 96.2 11.9 96.1 11.8 C 96.0 11.7 96.1 11.3 96.1 11.1 C 96.1 10.9 96.1 10.5 95.7 10.7 C 95.5 10.9 95.2 11.0 95.5 10.6 C 95.6 10.4 96.2 9.0 95.5 9.1 C 95.5 9.1 95.3 9.4 95.3 9.4 C 95.1 9.0 95.3 7.8 95.1 7.5 C 94.4 6.9 95.4 7.7 95.6 7.4 C 95.9 6.9 96.1 6.6 96.0 5.9 C 96.0 5.7 95.9 5.1 95.6 5.4 C 95.3 5.6 95.2 5.4 95.1 5.8 C 94.8 5.4 95.4 5.1 95.3 5.0 C 95.1 4.9 95.0 5.1 95.0 4.8 C 95.1 4.4 94.9 4.6 95.3 4.5 C 95.4 4.5 95.5 4.1 95.5 4.1 C 95.5 4.1 95.5 4.1 95.6 4.1 C 95.5 3.8 94.9 3.3 95.0 3.2 C 95.2 3.1 95.6 3.3 95.7 3.3 C 95.7 3.3 95.7 3.2 95.8 3.2 C 95.7 3.1 95.4 2.7 95.5 2.7 C 95.6 2.6 96.2 2.9 96.0 2.7 C 95.8 2.6 96.0 1.9 96.2 1.8 C 96.4 1.8 97.2 1.6 97.3 1.5 C 97.3 1.3 97.7 1.6 97.8 1.6 C 97.9 1.7 98.0 2.0 98.1 2.1 C 98.1 2.2 98.4 2.3 98.4 2.3 C 98.4 2.3 98.6 2.3 98.8 2.4 C 99.1 2.5 99.1 2.8 99.4 3.0 C 99.6 3.3 99.9 3.2 100.2 3.3 C 100.4 3.5 100.4 4.0 100.6 4.2 C 100.8 4.4 101.0 4.1 101.4 4.2 C 101.7 4.4 101.8 4.6 101.7 4.6 C 101.5 4.6 101.6 4.7 101.7 4.8 C 101.7 4.8 102.0 5.1 102.2 5.2 C 102.4 5.2 101.6 4.3 102.7 5.0 C 103.3 5.4 103.5 6.0 103.3 5.9 C 102.9 5.7 103.4 6.8 103.5 6.6 C 103.7 6.4 104.6 7.0 104.5 6.6 C 104.5 6.5 105.5 6.9 105.6 7.1 C 105.7 7.2 106.2 7.4 106.2 7.8 C 106.2 7.9 106.9 7.9 107.1 7.9 C 107.2 8.0 107.9 8.5 108.0 8.7 C 108.1 8.9 107.8 8.7 107.6 8.5 C 107.4 8.4 107.3 8.1 107.1 8.1 C 107.0 8.0 107.2 8.4 107.4 8.5 C 107.5 8.6 107.5 8.8 107.6 9.0 C 107.7 9.0 107.8 9.1 108.0 9.2 C 108.1 9.2 108.1 9.2 108.1 9.2 C 108.2 9.1 108.1 8.9 108.2 8.9 C 108.2 8.9 108.4 8.9 108.7 9.0 C 108.9 9.2 109.1 9.3 109.3 9.6 C 109.6 9.9 109.7 9.8 109.9 9.9 C 110.2 10.0 110.3 10.2 110.3 10.2 C 110.3 10.3 110.0 10.2 109.9 10.2 C 109.9 10.3 110.1 10.6 110.2 10.7 C 110.7 11.1 109.9 11.3 110.5 11.7 C 110.8 12.0 110.3 11.9 110.0 12.0 C 110.1 12.1 110.1 12.1 109.8 12.3 C 109.9 12.4 109.5 12.5 109.3 12.7 C 109.2 12.7 108.6 13.3 108.9 12.9 C 108.9 12.8 108.9 12.8 109.0 12.8 C 108.9 12.7 108.9 12.7 108.9 12.7 C 108.9 12.7 109.0 12.3 109.0 12.3 C 109.0 12.3 108.9 12.7 108.9 12.7 C 108.8 12.7 108.6 12.6 108.5 12.6 C 108.5 12.6 108.5 12.7 108.5 12.7 C 108.5 12.7 108.5 12.8 108.5 12.8 C 108.5 12.8 108.5 12.8 108.5 12.8 C 108.6 12.9 108.5 12.9 108.4 12.9 C 108.2 13.2 107.5 13.4 107.2 13.4 C 107.5 12.4 106.4 13.1 106.1 13.4 C 105.7 13.7 106.2 14.5 106.4 14.4 C 106.1 14.5 106.0 14.5 105.8 14.3 C 105.8 14.3 105.2 14.0 105.3 14.0 C 104.5 14.1 105.0 14.7 104.9 14.9 C 104.8 15.0 104.5 15.2 104.4 15.3 C 104.2 15.5 104.5 15.5 104.5 15.7 C 104.4 16.1 103.6 15.8 103.4 15.9 C 103.5 15.7 103.7 15.5 103.8 15.4 C 103.6 15.7 103.3 15.4 103.2 15.4 C 103.0 15.4 102.7 15.6 102.5 15.8 C 102.2 16.0 101.9 16.3 101.5 16.5 C 101.7 16.5 102.5 16.6 102.5 16.6 C 102.4 16.7 102.0 16.8 102.3 17.0 C 102.8 17.3 101.7 17.6 101.6 17.7 C 101.1 17.9 100.8 18.7 100.1 18.4 C 100.1 18.4 100.7 17.9 100.6 17.8 C 100.2 17.5 99.9 17.4 99.5 17.8 C 99.4 17.9 98.9 18.6 98.9 18.6 C 98.9 18.6 100.2 19.1 99.4 19.2 C 99.2 19.2 99.4 18.9 99.2 18.9 C 98.9 18.9 98.7 19.2 98.4 19.3 C 98.4 19.3 97.9 19.4 97.9 19.4 C 97.9 19.6 98.0 19.8 97.9 19.9 C 97.8 20.1 97.6 20.1 97.5 19.9 C 97.5 19.9 97.5 19.9 97.5 19.9 C 97.4 19.9 97.4 19.9 97.3 19.8 C 97.3 19.8 97.2 19.9 97.1 19.9 C 97.0 19.8 97.2 19.7 97.3 19.7 C 97.3 19.7 97.3 19.6 97.2 19.5 C 97.1 19.7 96.9 19.8 96.9 19.9 C 96.7 20.3 96.8 20.4 96.1 20.3 C 95.5 20.2 95.2 18.9 95.3 18.1 C 95.3 18.0 95.3 17.8 95.4 17.5 Z M 108.2 9.6 C 108.2 9.6 108.2 9.6 108.2 9.6 C 108.1 9.6 108.1 9.7 108.1 9.8 C 108.2 9.9 108.1 9.6 108.2 9.8 C 108.4 9.9 108.4 9.8 108.2 9.6 Z M 108.1 11.4 C 108.2 11.5 108.2 11.4 108.2 11.3 C 108.1 11.4 108.1 11.4 108.1 11.4 Z M 108.5 12.2 C 108.7 12.0 108.1 11.9 107.8 12.2 C 108.1 12.2 108.4 12.2 108.5 12.2 Z M 108.1 12.8 C 108.1 12.8 108.1 12.7 108.1 12.7 C 108.0 12.6 107.9 12.8 107.9 12.7 C 107.8 12.6 108.0 12.4 107.8 12.4 C 107.8 12.4 107.7 12.4 107.7 12.4 C 107.6 12.5 107.6 12.5 107.6 12.5 C 107.6 12.7 107.9 12.9 108.1 12.8 Z M 106.9 9.5 C 107.0 9.5 107.0 9.5 106.9 9.4 C 106.8 9.4 106.8 9.5 106.9 9.5 Z M 105.9 8.1 C 106.0 8.2 106.2 8.3 106.1 8.1 C 106.1 7.9 105.9 7.9 105.9 8.1 Z M 104.0 10.2 C 104.1 10.1 104.0 10.1 103.9 10.1 C 103.8 10.1 103.9 10.2 104.0 10.2 Z M 103.9 11.7 C 103.8 11.8 104.0 11.9 104.0 11.8 C 104.0 11.7 103.9 11.6 103.9 11.7 Z M 104.1 8.3 C 103.9 8.2 104.0 8.4 104.1 8.4 C 104.2 8.3 104.2 8.3 104.1 8.3 Z M 104.4 10.3 C 104.3 10.1 104.2 10.2 104.2 10.2 C 104.1 10.3 104.1 10.4 104.3 10.4 C 104.4 10.5 104.5 10.5 104.4 10.3 Z M 104.5 11.5 C 104.1 11.7 104.2 11.9 104.6 11.6 C 105.0 11.3 104.7 11.4 104.5 11.5 Z M 105.2 7.1 C 105.2 7.1 105.4 7.2 105.4 7.2 C 105.4 7.2 105.0 6.8 105.2 7.1 Z M 104.4 14.9 C 104.5 14.9 104.5 14.7 104.3 14.8 C 104.1 14.9 104.2 15.0 104.4 14.9 Z M 103.6 14.3 C 103.9 14.5 104.2 14.5 104.2 14.5 C 104.2 14.4 104.1 14.2 104.2 14.1 C 104.4 13.9 104.8 14.0 104.9 13.7 C 105.1 13.3 104.5 13.6 104.4 13.7 C 104.5 13.6 104.5 13.5 104.5 13.5 C 104.4 13.4 104.3 13.4 104.2 13.5 C 104.2 13.7 103.3 14.1 103.6 14.3 Z M 103.6 10.8 C 103.8 10.8 104.0 10.7 103.8 10.6 C 103.7 10.4 103.6 10.3 103.5 10.4 C 103.5 10.4 103.5 10.7 103.6 10.8 Z M 103.5 9.6 C 103.7 9.6 103.6 9.5 103.5 9.5 C 103.3 9.4 103.4 9.7 103.5 9.6 Z M 101.5 4.9 C 101.3 4.9 101.6 5.1 101.6 5.0 C 101.6 4.9 101.6 4.9 101.5 4.9 Z M 101.5 6.8 C 101.2 6.7 101.4 7.0 101.5 7.0 C 101.6 7.0 101.7 6.8 101.5 6.8 Z M 102.6 7.9 C 102.5 7.8 102.6 8.0 102.7 8.0 C 102.8 8.0 102.7 7.9 102.6 7.9 Z M 102.7 8.6 C 102.6 8.5 102.6 8.7 102.8 8.7 C 102.9 8.7 102.9 8.6 102.7 8.6 Z M 102.2 14.6 C 102.2 14.6 102.1 14.4 102.0 14.6 C 101.9 14.8 101.9 14.8 102.2 14.6 Z M 102.7 12.5 C 102.9 12.3 103.0 12.2 102.8 11.6 C 102.6 11.0 102.5 11.2 102.4 11.6 C 102.3 12.0 102.1 11.0 101.9 11.7 C 101.8 12.0 102.5 12.6 102.7 12.5 Z M 101.6 8.6 C 101.9 9.0 102.4 8.9 102.1 8.7 C 101.8 8.4 101.5 8.3 101.6 8.6 Z M 101.6 8.4 C 101.7 8.4 101.7 8.3 101.6 8.3 C 101.4 8.2 101.5 8.4 101.6 8.4 Z M 101.9 17.3 C 102.5 16.7 101.5 16.8 101.5 16.8 C 100.8 17.0 101.3 17.8 101.9 17.3 Z M 95.9 4.5 C 95.9 4.5 95.9 4.5 95.9 4.5 C 95.9 4.5 95.9 4.6 95.9 4.6 C 96.0 4.7 96.1 4.4 96.1 4.4 C 96.0 4.4 95.9 4.4 95.9 4.5 Z M 95.7 8.3 C 95.7 8.2 95.7 8.0 95.6 7.9 C 95.3 8.0 95.3 9.2 95.8 8.7 C 95.9 8.6 96.4 7.9 96.2 7.8 C 96.0 7.8 95.7 8.7 95.7 8.3 Z M 96.2 7.1 C 96.2 7.6 96.6 6.7 96.4 6.8 C 96.3 6.9 96.2 7.0 96.2 7.1 Z M 97.3 3.7 C 97.0 3.1 96.1 3.2 96.6 4.2 C 97.1 5.1 97.4 5.2 97.3 4.7 C 97.2 4.2 97.6 4.6 97.3 3.7 Z M 97.2 8.7 C 96.6 8.6 96.8 8.9 97.3 9.0 C 97.4 9.1 97.7 8.8 97.2 8.7 Z M 97.4 10.1 C 97.3 10.3 97.3 10.3 97.4 10.2 C 97.6 10.0 97.4 9.9 97.4 10.1 Z M 98.2 2.7 C 98.1 2.5 97.8 2.3 98.0 2.3 C 98.1 2.3 98.0 2.2 97.9 2.1 C 97.8 1.9 97.8 2.3 97.8 2.4 C 97.8 2.5 98.3 2.9 98.2 2.7 Z M 100.4 8.1 C 100.3 8.0 100.3 8.1 100.5 8.2 C 100.5 8.2 100.5 8.1 100.4 8.1 Z M 101.1 13.4 C 101.1 13.4 101.1 13.2 101.0 13.3 C 100.9 13.5 100.9 13.5 101.1 13.4 Z M 100.9 17.6 C 101.0 17.5 100.7 17.5 100.7 17.2 C 100.7 17.2 100.9 17.3 100.9 17.3 C 100.9 17.3 100.8 16.7 100.6 17.1 C 100.5 17.2 100.6 17.9 100.9 17.6 Z M 100.2 9.5 C 100.4 9.8 100.6 8.8 100.8 9.0 C 100.9 9.1 101.0 9.1 100.8 8.9 C 100.6 8.7 100.0 9.3 100.2 9.5 Z M 100.1 7.3 C 100.1 7.4 100.5 7.8 100.4 7.6 C 100.3 7.3 100.1 7.2 100.2 7.1 C 100.4 7.1 100.3 7.1 100.2 7.0 C 100.1 6.8 100.1 7.1 100.1 7.3 Z M 99.9 3.5 C 100.0 3.6 100.2 3.7 100.1 3.5 C 100.1 3.4 99.9 3.4 99.9 3.5 Z M 99.7 14.0 C 99.8 13.8 99.7 13.7 99.5 13.9 C 99.4 14.1 99.6 14.1 99.7 14.0 Z M 99.3 3.8 C 99.5 4.1 99.4 3.7 99.5 3.8 C 99.7 4.0 99.7 3.9 99.5 3.7 C 99.3 3.5 99.1 3.6 99.3 3.8 Z M 99.1 17.4 C 99.1 17.3 99.0 17.2 99.0 17.2 C 98.9 17.4 99.1 17.5 99.1 17.4 Z M 98.6 16.0 C 98.6 16.0 98.7 15.9 98.8 15.9 C 99.7 15.3 98.0 15.8 98.6 16.0 Z M 98.7 13.8 C 98.8 14.1 98.9 13.7 98.9 13.7 C 98.8 13.7 98.7 13.7 98.7 13.8 Z M 98.7 11.4 C 98.6 11.4 98.6 11.6 98.7 11.6 C 98.8 11.6 98.8 11.5 98.7 11.4 Z M 98.3 19.1 C 98.4 19.1 98.4 19.0 98.3 19.0 C 98.2 19.0 98.1 19.2 98.3 19.1 Z M 98.2 13.2 C 98.2 13.2 98.3 13.2 98.2 13.1 C 98.2 13.0 98.1 13.2 98.2 13.2 Z M 98.1 6.0 C 98.2 6.0 98.3 6.1 98.3 6.1 C 98.4 6.1 98.5 5.6 98.6 5.6 C 98.7 5.6 98.7 5.6 98.7 5.6 C 98.7 5.6 98.7 5.6 98.7 5.6 C 98.8 5.6 98.8 5.7 98.8 5.7 C 98.8 5.8 98.8 5.9 98.8 6.0 C 99.0 5.8 99.1 5.6 99.0 5.5 C 98.8 5.4 98.5 5.3 98.3 5.4 C 98.2 5.5 98.2 5.6 98.1 5.7 C 98.2 5.7 98.2 5.7 98.2 5.7 C 98.4 5.8 98.4 5.9 98.3 5.9 C 98.2 5.9 98.2 5.8 98.1 5.8 C 98.1 5.9 98.1 5.9 98.1 6.0 Z M 97.8 12.3 C 97.9 12.5 98.0 12.3 98.1 12.1 C 98.1 11.9 97.7 12.1 97.8 12.3 Z M 98.0 18.8 C 98.0 18.8 98.0 18.7 97.9 18.7 C 97.9 18.7 97.9 18.7 97.9 18.8 C 97.9 18.9 97.8 19.0 97.8 19.2 C 98.0 19.2 98.1 19.1 98.0 18.8 Z M 97.3 16.8 C 97.4 16.8 97.3 17.7 97.5 17.5 C 97.8 17.3 98.2 17.7 98.0 17.0 C 97.9 16.7 97.5 16.5 97.4 16.2 C 97.1 14.7 97.0 16.6 96.9 17.0 C 96.9 17.1 97.3 16.7 97.3 16.8 Z M 96.9 14.8 C 96.7 14.7 96.6 14.9 96.6 15.0 C 96.6 15.4 97.1 14.9 96.9 14.8 Z M 96.7 19.0 C 96.7 19.1 96.7 19.1 96.8 19.0 C 96.7 19.0 96.7 19.0 96.6 19.0 C 96.6 19.0 96.6 19.0 96.7 19.0 Z M 96.5 20.1 C 96.9 19.7 96.1 19.8 95.9 19.8 C 95.6 20.0 96.3 20.3 96.5 20.1 Z M 96.2 15.9 C 96.2 15.6 95.3 15.2 95.3 15.8 C 95.4 16.3 96.1 16.6 96.2 15.9 Z M 95.0 12.7 C 95.1 12.8 95.0 13.2 94.8 13.0 C 94.8 12.9 95.0 12.7 95.0 12.7 Z M 94.5 17.5 C 94.6 17.4 94.6 17.5 94.6 17.5 C 94.5 17.6 94.5 17.6 94.5 17.5 Z M 95.2 17.0 C 95.1 17.2 95.1 17.4 95.0 17.5 C 95.0 17.6 94.9 17.3 94.9 17.2 C 94.9 17.1 95.2 17.1 95.2 17.0 Z M 95.3 14.5 C 95.2 14.6 95.2 14.4 95.2 14.3 C 95.2 14.2 95.3 14.4 95.3 14.5 Z M 95.1 15.1 C 95.1 15.0 95.2 15.1 95.2 15.2 C 95.2 15.3 95.0 15.2 95.1 15.1 Z M 95.6 14.0 C 95.6 14.3 95.7 14.7 95.5 14.6 C 95.3 14.6 95.4 13.5 95.6 14.0 Z M 95.6 14.0 " fill="#5E416F"></path></g></svg>