<?xml version="1.0" encoding="UTF-8" standalone="no"?><svg xmlns="http://www.w3.org/2000/svg" xmlns:xlink="http://www.w3.org/1999/xlink" clip-rule="evenodd" stroke-miterlimit="10" viewBox="0 0 80 23"><desc>SVG generated by Keynote</desc><defs></defs><g transform="matrix(1.00, 0.00, -0.00, -1.00, 0.0, 23.0)"><path d="M 7.2 10.7 C 6.8 10.8 6.6 10.3 5.8 10.1 C 4.9 10.0 3.9 9.9 4.1 10.2 C 4.3 10.6 4.6 10.8 4.1 11.2 C 3.7 11.6 3.2 12.3 3.8 12.5 C 4.4 12.8 6.7 13.5 7.4 13.1 C 8.1 12.8 8.4 12.6 8.9 12.4 C 9.5 12.1 9.1 12.9 9.1 12.9 C 9.1 12.9 10.3 13.0 11.3 13.1 C 12.2 13.1 13.3 13.2 13.4 13.0 C 13.5 12.9 13.8 12.6 13.8 12.6 C 13.8 12.6 14.3 13.0 15.0 13.1 C 15.7 13.1 15.4 12.9 15.3 12.7 C 15.2 12.5 14.4 12.0 14.7 12.0 C 15.0 12.0 15.9 12.8 16.4 12.9 C 16.8 13.0 17.9 12.9 17.9 12.9 C 17.9 12.9 17.8 12.5 17.9 12.4 C 18.0 12.3 19.1 12.2 19.1 12.4 C 19.2 12.5 19.1 13.0 19.6 13.1 C 21.3 13.1 21.1 12.3 21.2 12.2 C 21.4 12.2 21.4 12.9 21.8 13.0 C 22.2 13.1 25.5 13.0 25.6 12.8 C 25.8 12.7 26.9 13.3 27.4 12.9 C 27.9 12.4 28.0 12.3 28.1 12.2 C 28.2 12.1 28.8 11.4 29.1 11.7 C 29.4 11.9 28.2 12.7 28.5 12.9 C 28.9 13.1 31.0 13.2 31.3 13.0 C 31.8 12.7 32.0 12.0 32.3 12.0 C 32.6 12.0 33.7 12.9 33.8 12.7 C 33.9 12.6 34.1 11.9 34.1 11.7 C 34.1 11.6 34.5 10.4 34.2 10.2 C 34.0 10.0 32.7 9.6 32.9 9.9 C 33.0 10.3 33.3 10.7 32.9 10.9 C 32.5 11.0 32.2 11.1 32.1 10.9 C 32.0 10.8 32.3 10.6 31.5 10.4 C 30.8 10.2 31.2 9.9 30.5 9.9 C 29.8 9.9 29.2 10.0 29.3 10.3 C 29.3 10.6 28.6 11.0 28.1 10.9 C 27.6 10.9 28.5 10.3 26.9 10.1 C 25.4 9.8 24.4 9.8 24.0 10.0 C 23.5 10.2 23.4 11.0 22.7 10.6 C 22.0 10.3 22.4 10.1 21.4 10.1 C 20.4 10.2 20.0 10.7 19.4 10.8 C 18.7 10.8 18.6 10.8 18.6 10.8 C 18.6 10.8 18.9 9.9 17.5 9.9 C 16.1 9.9 15.8 9.8 16.1 10.4 C 16.4 11.0 15.3 11.0 15.2 10.6 C 15.2 10.2 14.3 10.0 13.9 9.9 C 13.4 9.9 13.2 10.9 13.0 10.9 C 12.8 10.9 12.3 10.9 12.5 10.5 C 12.7 10.2 12.2 10.2 11.7 10.0 C 11.3 9.9 10.0 10.0 10.0 10.2 C 10.0 10.4 10.6 11.0 9.8 10.7 C 8.9 10.4 8.6 9.9 7.8 9.9 C 7.0 9.9 7.7 10.5 7.2 10.7 C 7.2 10.7 7.2 10.7 7.2 10.7 Z M 34.7 9.9 C 33.2 9.9 34.2 12.6 34.8 13.1 C 35.4 13.6 36.4 13.3 37.4 13.4 C 38.4 13.5 38.1 12.6 38.7 12.4 C 39.3 12.2 39.1 12.7 39.3 13.1 C 39.6 13.5 41.1 13.1 42.0 13.2 C 43.0 13.2 44.0 12.3 44.7 12.3 C 45.5 12.2 44.0 11.8 45.4 11.9 C 46.7 11.9 46.1 12.4 44.5 12.7 C 43.0 12.9 45.1 13.2 46.0 13.3 C 46.8 13.4 48.3 13.0 48.9 13.0 C 49.6 13.1 48.8 12.4 49.7 12.4 C 50.7 12.5 50.2 13.1 51.2 13.2 C 52.2 13.3 52.1 12.7 52.6 12.6 C 53.1 12.4 52.9 12.8 53.4 12.8 C 53.8 12.9 54.5 13.1 55.4 12.9 C 56.3 12.8 56.1 12.6 56.5 12.6 C 56.9 12.5 57.7 12.5 57.7 12.5 C 57.7 12.7 57.8 13.0 57.8 13.2 C 57.8 13.2 59.5 13.2 60.0 13.3 C 60.5 13.3 61.6 13.0 61.3 12.9 C 61.0 12.7 62.2 12.3 62.4 12.4 C 62.7 12.5 63.5 12.8 64.1 13.0 C 64.7 13.1 64.5 11.4 64.5 11.2 C 64.5 10.9 64.9 10.0 64.4 9.9 C 63.9 9.8 63.4 10.2 63.5 9.9 C 63.6 9.7 62.1 9.9 61.7 9.9 C 61.3 9.9 60.8 10.5 60.8 10.5 C 60.8 10.5 60.3 11.1 59.7 11.1 C 59.0 11.1 58.7 10.0 58.7 10.0 C 58.7 10.0 57.9 9.8 57.1 9.9 C 56.2 9.9 55.3 10.8 55.1 11.0 C 55.0 11.2 55.0 10.4 54.4 10.3 C 53.8 10.2 52.9 9.9 52.7 10.0 C 52.4 10.0 52.0 10.5 52.0 10.5 C 52.0 10.5 50.9 10.9 50.7 10.9 C 50.4 10.9 50.9 10.1 50.9 10.1 C 50.9 10.1 48.6 9.9 48.1 9.8 C 47.6 9.7 46.9 9.9 46.6 10.0 C 46.2 10.0 45.7 11.0 45.2 10.9 C 44.7 10.8 45.7 10.3 45.2 10.2 C 44.7 10.1 43.8 9.9 43.5 9.9 C 43.3 9.9 43.0 10.3 42.5 10.3 C 42.1 10.4 41.5 11.1 40.9 11.1 C 40.2 11.1 39.9 10.6 39.6 10.5 C 39.4 10.4 39.2 9.8 38.7 9.8 C 38.1 9.8 38.5 10.2 38.0 10.2 C 37.5 10.2 37.5 10.7 37.0 10.6 C 36.5 10.5 36.8 9.7 36.2 9.8 C 36.0 9.9 36.2 9.8 34.7 9.9 C 34.7 9.9 34.7 9.9 34.7 9.9 Z M 34.7 9.9 " fill="#5E416F"></path><path d="M 63.4 20.9 C 63.3 21.3 62.2 21.6 62.9 20.9 C 63.0 20.9 63.4 20.7 63.4 20.9 Z M 65.0 19.9 C 64.9 20.0 64.8 20.0 64.7 20.0 C 64.3 19.8 65.5 19.6 65.0 19.9 Z M 62.4 21.0 C 62.4 21.1 61.8 21.4 61.9 21.2 C 61.9 21.1 62.4 21.0 62.4 21.0 Z M 66.2 18.3 C 66.2 18.5 65.7 18.8 65.5 18.8 C 65.1 18.8 66.0 18.0 66.2 18.3 Z M 61.6 15.5 C 61.6 15.4 61.6 15.4 61.6 15.4 C 61.6 15.4 61.6 15.5 61.6 15.5 Z M 74.2 14.0 C 74.1 14.1 73.8 14.1 73.8 14.0 C 73.8 13.8 74.5 13.8 74.2 14.0 Z M 61.3 4.4 C 61.3 4.4 61.1 4.7 61.0 4.6 C 60.9 4.5 61.1 4.4 61.3 4.4 Z M 61.1 4.5 C 60.9 4.5 60.8 4.3 61.0 4.3 C 61.1 4.4 61.2 4.4 61.1 4.5 Z M 70.0 6.8 C 70.1 6.8 70.1 6.8 70.0 6.9 C 70.0 6.9 69.9 6.7 70.0 6.8 Z M 69.7 6.8 C 69.5 6.9 69.5 6.6 69.6 6.7 C 69.8 6.7 69.8 6.8 69.7 6.8 Z M 68.4 5.1 C 68.5 5.1 68.6 5.1 68.5 5.2 C 68.4 5.2 68.3 5.0 68.4 5.1 Z M 60.8 9.0 C 60.7 8.9 60.8 8.6 60.9 8.6 C 61.1 8.6 60.9 9.1 60.8 9.0 Z M 60.7 8.5 C 60.6 8.6 60.5 8.3 60.7 8.4 C 60.8 8.4 60.8 8.5 60.7 8.5 Z M 61.0 9.9 C 61.1 9.9 61.2 10.3 61.1 10.4 C 61.1 10.5 61.0 10.7 61.0 10.8 C 60.9 10.9 60.7 9.9 61.0 9.9 Z M 61.2 12.9 C 61.1 12.9 61.0 12.9 61.1 12.7 C 61.2 12.6 61.2 12.9 61.2 12.9 Z M 61.0 11.2 C 61.0 11.2 60.9 11.2 61.0 11.1 C 61.1 10.9 61.1 11.2 61.0 11.2 Z M 69.5 16.8 C 69.6 16.9 69.2 17.1 69.1 17.0 C 69.1 17.0 69.2 16.9 69.1 17.0 C 69.0 17.0 69.0 16.5 69.5 16.8 Z M 66.0 19.3 C 65.9 19.3 65.8 19.3 65.8 19.2 C 65.8 19.2 66.2 19.1 66.0 19.3 Z M 68.7 16.6 C 68.7 16.7 68.6 16.7 68.6 16.7 C 68.5 16.7 68.6 16.6 68.7 16.6 Z M 68.9 16.4 C 68.8 16.5 68.5 16.5 68.5 16.3 C 68.5 16.1 69.2 16.1 68.9 16.4 Z M 70.1 16.7 C 70.0 16.7 70.0 16.7 70.1 16.6 C 70.1 16.5 70.1 16.7 70.1 16.7 Z M 68.1 18.1 C 68.0 18.2 68.0 18.2 68.0 18.1 C 68.1 18.0 68.1 18.1 68.1 18.1 Z M 71.0 15.8 C 71.0 15.8 70.8 16.1 70.6 15.9 C 70.3 15.7 71.0 15.8 71.0 15.8 Z M 72.3 14.6 C 72.2 14.6 72.2 14.5 72.3 14.5 C 72.4 14.5 72.4 14.5 72.3 14.6 Z M 72.5 13.7 C 72.8 13.7 73.0 13.8 72.7 13.9 C 72.4 14.0 72.3 13.8 72.5 13.7 Z M 72.3 14.0 C 72.3 14.0 72.4 13.9 72.4 14.0 C 72.5 14.0 72.4 14.1 72.3 14.0 Z M 71.3 15.2 C 71.2 15.3 71.0 15.2 71.1 15.1 C 71.3 14.9 71.4 15.0 71.3 15.2 Z M 60.8 17.0 C 60.9 17.1 60.7 17.1 60.6 17.0 C 60.6 17.0 60.8 16.9 60.8 17.0 Z M 61.5 10.6 C 61.4 10.7 61.4 10.7 61.4 10.5 C 61.5 10.3 61.6 10.6 61.5 10.6 Z M 61.8 6.6 C 61.7 6.7 61.7 6.6 61.7 6.5 C 61.8 6.3 61.9 6.5 61.8 6.6 Z M 61.5 12.3 C 61.4 12.3 61.1 11.9 61.4 11.7 C 61.7 11.4 61.7 12.1 61.5 12.3 Z M 64.7 16.2 C 64.8 16.3 64.6 16.3 64.6 16.3 C 64.6 16.2 64.6 16.2 64.7 16.2 Z M 62.0 11.4 C 62.0 11.5 61.8 11.4 61.8 11.4 C 61.7 11.3 61.9 11.2 62.0 11.4 Z M 61.6 7.3 C 61.5 7.5 61.2 7.4 61.2 7.3 C 60.9 7.0 61.2 6.7 61.4 6.5 C 61.5 6.3 61.6 7.2 61.6 7.3 Z M 61.4 18.0 C 61.5 17.9 61.5 17.8 61.5 17.7 C 61.4 17.7 61.4 17.6 61.5 17.6 C 61.5 17.2 61.1 16.9 61.0 16.7 C 60.8 16.1 61.5 15.9 61.6 15.5 C 61.6 15.6 61.6 15.7 61.7 15.7 C 61.9 15.9 61.8 14.5 61.8 14.4 C 61.6 13.2 61.4 14.6 61.0 14.6 C 60.8 14.6 61.3 13.8 61.3 13.8 C 61.4 13.4 61.0 13.3 61.2 13.0 C 61.3 12.9 62.2 12.4 62.1 12.2 C 62.0 12.1 62.1 11.7 62.1 11.6 C 62.1 11.4 62.0 11.0 61.7 11.2 C 61.5 11.4 61.2 11.4 61.5 11.1 C 61.6 10.9 62.2 9.5 61.5 9.6 C 61.5 9.6 61.3 9.9 61.3 9.9 C 61.1 9.5 61.3 8.3 61.1 8.0 C 60.4 7.4 61.4 8.2 61.6 7.9 C 61.9 7.3 62.1 7.0 62.0 6.3 C 62.0 6.2 61.9 5.5 61.6 5.9 C 61.3 6.1 61.2 5.9 61.1 6.3 C 60.8 5.9 61.4 5.6 61.3 5.5 C 61.1 5.3 61.0 5.6 61.0 5.3 C 61.1 4.9 60.9 5.0 61.3 5.0 C 61.4 4.9 61.5 4.6 61.5 4.6 C 61.5 4.6 61.5 4.6 61.6 4.6 C 61.5 4.3 60.9 3.8 61.0 3.7 C 61.2 3.6 61.6 3.8 61.7 3.8 C 61.7 3.7 61.7 3.7 61.8 3.7 C 61.7 3.5 61.4 3.2 61.5 3.2 C 61.6 3.1 62.2 3.4 62.0 3.2 C 61.8 3.1 62.0 2.3 62.2 2.3 C 62.4 2.3 63.2 2.1 63.3 1.9 C 63.3 1.8 63.7 2.1 63.8 2.1 C 63.9 2.2 64.0 2.5 64.1 2.6 C 64.1 2.6 64.4 2.7 64.4 2.7 C 64.4 2.7 64.6 2.7 64.8 2.9 C 65.0 3.0 65.1 3.3 65.4 3.5 C 65.6 3.8 65.9 3.7 66.2 3.8 C 66.4 3.9 66.4 4.5 66.6 4.7 C 66.8 4.9 67.0 4.6 67.4 4.7 C 67.7 4.9 67.8 5.0 67.7 5.0 C 67.5 5.0 67.6 5.2 67.7 5.2 C 67.7 5.3 68.0 5.6 68.2 5.6 C 68.4 5.6 67.6 4.8 68.7 5.5 C 69.3 5.9 69.5 6.5 69.3 6.4 C 68.9 6.2 69.4 7.2 69.5 7.1 C 69.6 6.9 70.6 7.5 70.5 7.1 C 70.5 6.9 71.5 7.4 71.6 7.5 C 71.7 7.7 72.2 7.8 72.2 8.2 C 72.2 8.4 72.9 8.3 73.1 8.4 C 73.2 8.5 73.9 9.0 74.0 9.2 C 74.1 9.3 73.8 9.1 73.6 9.0 C 73.4 8.9 73.3 8.6 73.1 8.6 C 73.0 8.5 73.2 8.8 73.4 9.0 C 73.5 9.1 73.5 9.3 73.6 9.4 C 73.7 9.4 73.8 9.5 74.0 9.7 C 74.0 9.7 74.1 9.7 74.1 9.6 C 74.2 9.5 74.1 9.4 74.2 9.4 C 74.2 9.3 74.4 9.3 74.6 9.5 C 74.9 9.6 75.1 9.8 75.3 10.0 C 75.6 10.3 75.7 10.3 75.9 10.4 C 76.1 10.5 76.3 10.6 76.3 10.7 C 76.3 10.8 76.0 10.7 75.9 10.7 C 75.9 10.7 76.1 11.1 76.2 11.2 C 76.7 11.6 75.9 11.8 76.5 12.2 C 76.8 12.4 76.3 12.4 76.0 12.5 C 76.1 12.5 76.1 12.6 75.8 12.8 C 75.9 12.9 75.5 13.0 75.3 13.1 C 75.2 13.2 74.6 13.8 74.9 13.3 C 74.9 13.3 74.9 13.3 75.0 13.2 C 74.9 13.2 74.9 13.2 74.9 13.2 C 74.9 13.2 75.0 12.8 75.0 12.8 C 75.0 12.8 74.9 13.2 74.9 13.2 C 74.8 13.1 74.6 13.1 74.5 13.1 C 74.5 13.1 74.5 13.1 74.5 13.2 C 74.5 13.2 74.5 13.2 74.5 13.2 C 74.5 13.3 74.5 13.3 74.5 13.3 C 74.5 13.4 74.5 13.4 74.4 13.4 C 74.2 13.7 73.5 13.8 73.2 13.9 C 73.5 12.9 72.4 13.6 72.1 13.9 C 71.7 14.2 72.2 14.9 72.4 14.8 C 72.1 15.0 72.0 14.9 71.8 14.7 C 71.8 14.8 71.2 14.5 71.3 14.5 C 70.5 14.6 71.0 15.2 70.9 15.3 C 70.7 15.5 70.5 15.6 70.4 15.8 C 70.2 16.0 70.5 16.0 70.5 16.1 C 70.4 16.6 69.6 16.2 69.4 16.3 C 69.5 16.2 69.7 16.0 69.8 15.8 C 69.6 16.1 69.3 15.8 69.2 15.9 C 68.9 15.9 68.7 16.1 68.5 16.2 C 68.2 16.5 67.9 16.7 67.5 17.0 C 67.7 17.0 68.5 17.1 68.5 17.1 C 68.4 17.2 68.0 17.2 68.3 17.4 C 68.8 17.8 67.7 18.1 67.6 18.1 C 67.1 18.4 66.8 19.1 66.1 18.9 C 66.1 18.9 66.7 18.4 66.6 18.3 C 66.2 18.0 65.9 17.9 65.5 18.3 C 65.4 18.4 64.9 19.1 64.9 19.1 C 64.9 19.0 66.2 19.6 65.4 19.6 C 65.2 19.6 65.4 19.3 65.2 19.3 C 64.9 19.4 64.7 19.6 64.4 19.7 C 64.4 19.8 63.9 19.9 63.9 19.9 C 63.9 20.1 64.0 20.3 63.9 20.4 C 63.8 20.6 63.6 20.6 63.5 20.4 C 63.5 20.4 63.5 20.4 63.5 20.4 C 63.4 20.4 63.4 20.3 63.3 20.3 C 63.3 20.3 63.2 20.4 63.1 20.3 C 63.0 20.3 63.2 20.2 63.3 20.2 C 63.3 20.1 63.3 20.1 63.2 20.0 C 63.0 20.2 62.9 20.3 62.9 20.3 C 62.7 20.8 62.8 20.9 62.1 20.8 C 61.5 20.7 61.2 19.4 61.3 18.6 C 61.3 18.4 61.3 18.2 61.4 18.0 Z M 74.2 10.1 C 74.2 10.1 74.2 10.1 74.2 10.0 C 74.1 10.1 74.1 10.2 74.0 10.3 C 74.2 10.4 74.1 10.1 74.2 10.2 C 74.4 10.4 74.4 10.3 74.2 10.1 Z M 74.1 11.9 C 74.2 11.9 74.2 11.9 74.2 11.8 C 74.1 11.8 74.1 11.9 74.1 11.9 Z M 74.5 12.7 C 74.6 12.5 74.1 12.4 73.8 12.7 C 74.1 12.7 74.3 12.7 74.5 12.7 Z M 74.1 13.3 C 74.1 13.3 74.1 13.2 74.1 13.2 C 74.0 13.0 73.9 13.3 73.9 13.2 C 73.8 13.1 74.0 12.9 73.8 12.9 C 73.8 12.9 73.7 12.9 73.7 12.9 C 73.6 12.9 73.6 13.0 73.6 13.0 C 73.6 13.2 73.9 13.4 74.1 13.3 Z M 72.9 10.0 C 73.0 10.0 72.9 9.9 72.9 9.9 C 72.8 9.9 72.8 10.0 72.9 10.0 Z M 71.9 8.6 C 72.0 8.7 72.2 8.7 72.1 8.6 C 72.1 8.4 71.9 8.4 71.9 8.6 Z M 70.0 10.6 C 70.1 10.6 70.0 10.6 69.9 10.6 C 69.8 10.5 69.9 10.7 70.0 10.6 Z M 69.9 12.1 C 69.8 12.2 70.0 12.4 70.0 12.3 C 70.0 12.2 69.9 12.1 69.9 12.1 Z M 70.1 8.7 C 69.9 8.7 70.0 8.8 70.1 8.8 C 70.2 8.8 70.2 8.8 70.1 8.7 Z M 70.4 10.8 C 70.3 10.6 70.2 10.6 70.2 10.7 C 70.1 10.7 70.1 10.9 70.3 10.9 C 70.4 11.0 70.5 10.9 70.4 10.8 Z M 70.5 12.0 C 70.1 12.2 70.2 12.4 70.6 12.1 C 71.0 11.7 70.7 11.9 70.5 12.0 Z M 71.2 7.5 C 71.2 7.6 71.4 7.7 71.4 7.7 C 71.4 7.7 71.0 7.3 71.2 7.5 Z M 70.4 15.4 C 70.5 15.3 70.5 15.2 70.3 15.2 C 70.1 15.3 70.2 15.5 70.4 15.4 Z M 69.6 14.8 C 69.9 15.0 70.2 14.9 70.2 15.0 C 70.2 14.9 70.1 14.7 70.2 14.6 C 70.4 14.3 70.8 14.4 70.9 14.1 C 71.1 13.8 70.5 14.1 70.4 14.1 C 70.5 14.1 70.5 14.0 70.5 13.9 C 70.4 13.9 70.3 13.9 70.2 14.0 C 70.2 14.1 69.3 14.5 69.6 14.8 Z M 69.6 11.2 C 69.8 11.3 69.9 11.2 69.8 11.0 C 69.7 10.9 69.6 10.8 69.5 10.8 C 69.5 10.9 69.5 11.2 69.6 11.2 Z M 69.5 10.1 C 69.7 10.0 69.6 10.0 69.5 10.0 C 69.3 9.9 69.4 10.2 69.5 10.1 Z M 67.5 5.4 C 67.3 5.4 67.5 5.5 67.6 5.5 C 67.6 5.4 67.5 5.4 67.5 5.4 Z M 67.5 7.2 C 67.2 7.2 67.4 7.4 67.5 7.4 C 67.6 7.4 67.7 7.3 67.5 7.2 Z M 68.6 8.3 C 68.5 8.3 68.6 8.5 68.7 8.5 C 68.8 8.4 68.7 8.4 68.6 8.3 Z M 68.7 9.1 C 68.6 9.0 68.6 9.2 68.8 9.2 C 68.9 9.2 68.9 9.1 68.7 9.1 Z M 68.2 15.1 C 68.2 15.1 68.1 14.8 68.0 15.1 C 67.9 15.3 67.9 15.3 68.2 15.1 Z M 68.7 13.0 C 68.9 12.8 69.0 12.6 68.8 12.0 C 68.6 11.4 68.5 11.7 68.4 12.1 C 68.3 12.4 68.1 11.4 67.9 12.1 C 67.8 12.4 68.5 13.1 68.7 13.0 Z M 67.6 9.1 C 67.9 9.5 68.4 9.4 68.1 9.2 C 67.8 8.9 67.5 8.8 67.6 9.1 Z M 67.6 8.9 C 67.7 8.9 67.7 8.8 67.6 8.8 C 67.4 8.7 67.5 8.9 67.6 8.9 Z M 67.9 17.7 C 68.5 17.2 67.5 17.2 67.5 17.2 C 66.8 17.5 67.3 18.3 67.9 17.7 Z M 61.9 4.9 C 61.9 4.9 61.9 5.0 61.9 5.0 C 61.9 5.0 61.9 5.0 61.9 5.0 C 62.0 5.1 62.1 4.9 62.1 4.9 C 62.0 4.8 61.9 4.9 61.9 4.9 Z M 61.7 8.8 C 61.7 8.6 61.7 8.5 61.6 8.4 C 61.3 8.5 61.3 9.6 61.8 9.2 C 61.9 9.1 62.4 8.4 62.2 8.3 C 62.0 8.3 61.7 9.2 61.7 8.8 Z M 62.2 7.6 C 62.2 8.0 62.6 7.2 62.4 7.3 C 62.3 7.3 62.2 7.4 62.2 7.6 Z M 63.3 4.2 C 63.0 3.5 62.1 3.7 62.6 4.6 C 63.0 5.6 63.4 5.6 63.3 5.1 C 63.2 4.7 63.6 5.1 63.3 4.2 Z M 63.2 9.2 C 62.6 9.0 62.8 9.3 63.3 9.5 C 63.4 9.6 63.6 9.2 63.2 9.2 Z M 63.4 10.6 C 63.3 10.7 63.3 10.7 63.4 10.6 C 63.6 10.5 63.4 10.4 63.4 10.6 Z M 64.2 3.2 C 64.1 2.9 63.8 2.8 64.0 2.8 C 64.1 2.7 64.0 2.7 63.9 2.6 C 63.8 2.4 63.8 2.7 63.8 2.9 C 63.8 3.0 64.3 3.4 64.2 3.2 Z M 66.4 8.5 C 66.3 8.5 66.3 8.6 66.5 8.6 C 66.5 8.6 66.5 8.6 66.4 8.5 Z M 67.1 13.8 C 67.1 13.8 67.1 13.7 67.0 13.8 C 66.9 13.9 66.9 13.9 67.1 13.8 Z M 66.9 18.1 C 67.0 18.0 66.7 17.9 66.7 17.7 C 66.7 17.6 66.9 17.8 66.9 17.8 C 66.9 17.7 66.8 17.2 66.6 17.6 C 66.5 17.7 66.6 18.3 66.9 18.1 Z M 66.2 10.0 C 66.4 10.2 66.6 9.3 66.8 9.5 C 66.9 9.6 67.0 9.5 66.8 9.3 C 66.6 9.1 66.0 9.8 66.2 10.0 Z M 66.1 7.7 C 66.1 7.9 66.5 8.3 66.4 8.0 C 66.3 7.8 66.1 7.6 66.2 7.6 C 66.4 7.6 66.3 7.6 66.2 7.4 C 66.1 7.3 66.1 7.6 66.1 7.7 Z M 65.9 4.0 C 66.0 4.0 66.2 4.2 66.1 4.0 C 66.1 3.9 65.9 3.9 65.9 4.0 Z M 65.7 14.4 C 65.8 14.3 65.7 14.2 65.5 14.4 C 65.4 14.5 65.6 14.6 65.7 14.4 Z M 65.3 4.3 C 65.5 4.5 65.3 4.2 65.5 4.3 C 65.7 4.5 65.7 4.4 65.5 4.2 C 65.3 4.0 65.1 4.1 65.3 4.3 Z M 65.1 17.9 C 65.1 17.8 65.0 17.6 65.0 17.7 C 64.9 17.8 65.1 18.0 65.1 17.9 Z M 64.6 16.5 C 64.6 16.4 64.7 16.4 64.8 16.4 C 65.6 15.7 64.0 16.2 64.6 16.5 Z M 64.7 14.3 C 64.8 14.6 64.9 14.2 64.9 14.2 C 64.8 14.2 64.7 14.2 64.7 14.3 Z M 64.7 11.9 C 64.6 11.9 64.6 12.1 64.7 12.1 C 64.8 12.0 64.8 12.0 64.7 11.9 Z M 64.3 19.6 C 64.4 19.6 64.4 19.5 64.3 19.5 C 64.2 19.5 64.1 19.6 64.3 19.6 Z M 64.2 13.7 C 64.2 13.7 64.2 13.7 64.2 13.6 C 64.2 13.5 64.1 13.6 64.2 13.7 Z M 64.1 6.4 C 64.2 6.5 64.3 6.5 64.3 6.6 C 64.4 6.5 64.5 6.1 64.6 6.1 C 64.6 6.1 64.7 6.1 64.7 6.1 C 64.7 6.1 64.7 6.1 64.7 6.1 C 64.8 6.1 64.8 6.2 64.8 6.2 C 64.8 6.2 64.8 6.3 64.8 6.4 C 65.0 6.3 65.1 6.1 65.0 6.0 C 64.8 5.9 64.5 5.8 64.3 5.8 C 64.2 5.9 64.2 6.0 64.1 6.1 C 64.2 6.1 64.2 6.1 64.2 6.1 C 64.3 6.2 64.4 6.3 64.3 6.3 C 64.2 6.3 64.2 6.3 64.1 6.3 C 64.1 6.3 64.1 6.4 64.1 6.4 Z M 63.8 12.8 C 63.9 12.9 64.0 12.8 64.1 12.6 C 64.1 12.4 63.7 12.6 63.8 12.8 Z M 64.0 19.3 C 64.0 19.2 64.0 19.2 63.9 19.1 C 63.9 19.2 63.9 19.2 63.9 19.2 C 63.9 19.4 63.8 19.5 63.8 19.6 C 64.0 19.6 64.1 19.5 64.0 19.3 Z M 63.3 17.2 C 63.4 17.3 63.3 18.2 63.5 18.0 C 63.8 17.8 64.1 18.1 64.0 17.5 C 63.9 17.2 63.5 17.0 63.4 16.7 C 63.1 15.1 63.0 17.1 62.9 17.5 C 62.9 17.6 63.3 17.1 63.3 17.2 Z M 62.9 15.2 C 62.7 15.2 62.6 15.4 62.6 15.5 C 62.6 15.9 63.0 15.3 62.9 15.2 Z M 62.7 19.5 C 62.7 19.5 62.7 19.5 62.8 19.5 C 62.7 19.5 62.7 19.5 62.6 19.4 C 62.6 19.5 62.6 19.5 62.7 19.5 Z M 62.5 20.6 C 62.9 20.2 62.1 20.2 61.9 20.3 C 61.6 20.4 62.3 20.8 62.5 20.6 Z M 62.2 16.4 C 62.2 16.1 61.3 15.7 61.3 16.3 C 61.4 16.8 62.1 17.1 62.2 16.4 Z M 61.0 13.2 C 61.1 13.3 61.0 13.6 60.8 13.5 C 60.8 13.4 61.0 13.1 61.0 13.2 Z M 60.5 17.9 C 60.6 17.8 60.6 18.0 60.6 18.0 C 60.5 18.0 60.5 18.0 60.5 17.9 Z M 61.2 17.5 C 61.1 17.6 61.1 17.8 61.0 17.9 C 61.0 18.0 60.9 17.7 60.9 17.7 C 60.9 17.6 61.2 17.5 61.2 17.5 Z M 61.3 15.0 C 61.2 15.1 61.2 14.9 61.2 14.8 C 61.2 14.7 61.3 14.9 61.3 15.0 Z M 61.1 15.6 C 61.1 15.5 61.2 15.5 61.2 15.6 C 61.1 15.8 61.0 15.7 61.1 15.6 Z M 61.6 14.5 C 61.6 14.8 61.7 15.1 61.5 15.1 C 61.3 15.1 61.4 14.0 61.6 14.5 Z M 61.6 14.5 " fill="#5E416F"></path></g></svg>