<?xml version="1.0" encoding="UTF-8" standalone="no"?><svg xmlns="http://www.w3.org/2000/svg" xmlns:xlink="http://www.w3.org/1999/xlink" clip-rule="evenodd" stroke-miterlimit="10" viewBox="0 0 115 23"><desc>SVG generated by Keynote</desc><defs></defs><g transform="matrix(1.00, 0.00, -0.00, -1.00, 0.0, 23.0)"><path d="M 6.5 10.8 C 6.3 10.9 6.1 10.4 5.4 10.2 C 4.8 10.0 4.0 10.0 4.1 10.3 C 4.3 10.7 4.5 10.9 4.2 11.3 C 3.8 11.7 3.4 12.4 3.9 12.6 C 4.4 12.9 6.2 13.6 6.7 13.2 C 7.3 12.9 7.5 12.7 7.9 12.5 C 8.4 12.2 8.1 13.0 8.1 13.0 C 8.1 13.0 9.0 13.1 9.8 13.2 C 10.5 13.2 11.3 13.3 11.4 13.1 C 11.5 13.0 11.8 12.7 11.8 12.7 C 11.8 12.7 12.2 13.1 12.7 13.2 C 13.2 13.2 13.0 13.0 13.0 12.8 C 12.9 12.6 12.2 12.1 12.5 12.1 C 12.7 12.1 13.4 12.9 13.8 13.0 C 14.2 13.1 15.0 13.0 15.0 13.0 C 15.0 13.0 14.9 12.6 15.0 12.5 C 15.1 12.4 15.9 12.3 16.0 12.5 C 16.0 12.6 15.9 13.1 16.3 13.1 C 17.7 13.2 17.5 12.3 17.6 12.3 C 17.7 12.3 17.7 13.0 18.0 13.1 C 18.3 13.2 20.9 13.1 21.1 12.9 C 21.2 12.7 22.1 13.4 22.5 12.9 C 22.8 12.5 23.0 12.4 23.0 12.3 C 23.1 12.2 23.6 11.5 23.8 11.8 C 24.1 12.0 23.1 12.8 23.4 13.0 C 23.7 13.2 25.3 13.3 25.6 13.0 C 26.0 12.7 26.1 12.1 26.3 12.1 C 26.5 12.1 27.4 12.9 27.5 12.8 C 27.6 12.7 27.7 12.0 27.7 11.8 C 27.7 11.7 28.0 10.4 27.8 10.3 C 27.6 10.1 26.7 9.6 26.8 10.0 C 26.9 10.4 27.1 10.8 26.8 11.0 C 26.5 11.1 26.3 11.2 26.2 11.0 C 26.1 10.9 26.3 10.7 25.7 10.5 C 25.2 10.3 25.5 10.0 24.9 10.0 C 24.4 10.0 23.9 10.1 23.9 10.4 C 24.0 10.7 23.4 11.1 23.0 11.0 C 22.7 11.0 23.3 10.4 22.1 10.1 C 20.9 9.9 20.1 9.9 19.8 10.1 C 19.4 10.3 19.3 11.1 18.8 10.7 C 18.2 10.4 18.5 10.2 17.7 10.2 C 17.0 10.3 16.7 10.8 16.2 10.9 C 15.7 10.9 15.5 10.9 15.5 10.9 C 15.5 10.9 15.8 10.0 14.7 10.0 C 13.5 9.9 13.3 9.9 13.5 10.5 C 13.8 11.1 12.9 11.1 12.9 10.7 C 12.9 10.3 12.2 10.1 11.8 10.0 C 11.4 9.9 11.3 11.0 11.2 11.0 C 11.0 11.0 10.6 10.9 10.7 10.6 C 10.9 10.3 10.5 10.3 10.1 10.1 C 9.8 10.0 8.8 10.1 8.8 10.3 C 8.8 10.4 9.3 11.1 8.6 10.8 C 7.9 10.4 7.7 9.9 7.0 10.0 C 6.4 10.0 7.0 10.6 6.5 10.8 C 6.5 10.8 6.5 10.8 6.5 10.8 Z M 28.2 9.9 C 27.1 10.0 27.8 12.6 28.3 13.2 C 28.8 13.7 29.6 13.4 30.4 13.5 C 31.2 13.6 30.9 12.7 31.3 12.5 C 31.8 12.2 31.6 12.8 31.8 13.2 C 32.0 13.6 33.3 13.2 34.0 13.3 C 34.7 13.3 35.5 12.4 36.1 12.4 C 36.7 12.3 35.6 11.9 36.6 12.0 C 37.7 12.0 37.2 12.5 36.0 12.8 C 34.7 13.0 36.4 13.3 37.1 13.4 C 37.8 13.5 38.9 13.1 39.4 13.1 C 39.9 13.2 39.3 12.5 40.0 12.5 C 40.8 12.5 40.4 13.2 41.2 13.3 C 42.0 13.4 41.9 12.8 42.3 12.6 C 42.7 12.5 42.6 12.9 42.9 12.9 C 43.2 13.0 43.8 13.2 44.5 13.0 C 45.2 12.9 45.0 12.7 45.4 12.6 C 45.7 12.6 46.3 12.6 46.3 12.6 C 46.3 12.8 46.4 13.0 46.4 13.3 C 46.4 13.3 47.7 13.3 48.1 13.4 C 48.5 13.4 49.4 13.1 49.2 13.0 C 48.9 12.8 49.8 12.4 50.0 12.5 C 50.2 12.6 50.9 12.9 51.4 13.1 C 51.8 13.2 51.7 11.5 51.7 11.3 C 51.7 11.0 52.0 10.1 51.6 10.0 C 51.2 9.9 50.8 10.2 50.9 10.0 C 51.0 9.8 49.8 10.0 49.5 10.0 C 49.1 10.0 48.7 10.6 48.7 10.6 C 48.7 10.6 48.4 11.2 47.9 11.2 C 47.3 11.2 47.1 10.1 47.1 10.1 C 47.1 10.1 46.5 9.9 45.8 9.9 C 45.2 10.0 44.4 10.9 44.3 11.1 C 44.2 11.3 44.2 10.4 43.7 10.4 C 43.3 10.3 42.6 10.0 42.4 10.1 C 42.2 10.1 41.8 10.6 41.8 10.6 C 41.8 10.6 41.0 11.0 40.8 11.0 C 40.6 11.0 40.9 10.2 40.9 10.2 C 40.9 10.2 39.1 9.9 38.8 9.9 C 38.4 9.8 37.8 10.0 37.5 10.1 C 37.3 10.1 36.9 11.1 36.5 11.0 C 36.1 10.9 36.9 10.4 36.5 10.3 C 36.1 10.2 35.4 10.0 35.2 10.0 C 35.0 10.0 34.7 10.3 34.4 10.4 C 34.1 10.4 33.6 11.2 33.1 11.2 C 32.5 11.2 32.3 10.7 32.1 10.6 C 31.9 10.5 31.7 9.9 31.3 9.9 C 30.9 9.8 31.2 10.3 30.8 10.3 C 30.4 10.3 30.4 10.8 30.0 10.7 C 29.6 10.6 29.9 9.8 29.4 9.9 C 29.2 9.9 29.4 9.9 28.2 9.9 C 28.2 9.9 28.2 9.9 28.2 9.9 Z M 52.6 10.1 C 52.0 9.7 51.5 10.2 51.6 10.5 C 51.6 10.9 51.8 11.9 51.6 12.2 C 51.4 12.4 50.7 13.1 51.8 13.3 C 52.8 13.4 53.0 13.1 53.0 12.9 C 53.0 12.7 53.2 11.7 53.4 11.8 C 53.7 11.8 54.0 12.1 54.0 12.3 C 54.1 12.4 54.5 13.4 55.0 13.2 C 55.5 13.1 55.9 12.8 55.9 12.8 C 56.1 12.8 56.4 12.8 56.6 12.8 C 56.6 12.8 57.3 13.4 57.8 13.2 C 58.4 13.1 59.0 13.1 59.4 13.1 C 59.8 13.2 60.2 13.1 60.3 12.9 C 60.3 12.6 60.9 11.8 60.9 11.8 C 60.9 11.8 61.5 11.6 61.7 11.7 C 62.0 11.8 62.1 12.3 62.0 12.5 C 61.9 12.7 62.0 13.1 62.4 13.2 C 62.8 13.3 64.5 13.8 64.8 13.5 C 65.1 13.2 65.0 12.9 65.2 12.8 C 65.4 12.7 66.6 12.6 66.7 12.9 C 66.8 13.1 66.7 13.6 67.0 13.6 C 67.4 13.5 68.0 13.7 68.0 13.5 C 68.0 13.4 68.2 13.2 68.3 13.0 C 68.3 12.7 69.0 12.4 69.1 12.3 C 69.2 12.2 69.8 12.1 69.8 12.1 C 70.0 12.3 70.2 12.4 70.4 12.6 C 70.4 12.6 70.0 13.1 69.8 13.2 C 69.6 13.3 70.0 13.6 70.2 13.7 C 70.4 13.7 71.6 13.6 71.6 13.6 C 71.7 13.2 71.7 12.8 71.7 12.5 C 72.0 12.4 72.3 12.3 72.6 12.2 C 72.6 12.2 72.5 13.6 73.1 13.6 C 73.7 13.6 74.5 13.6 74.5 13.6 C 74.5 13.6 75.1 13.1 75.2 13.0 C 75.4 13.0 75.5 11.8 75.5 11.8 C 75.4 11.3 75.4 10.8 75.3 10.4 C 75.3 10.4 74.6 9.9 74.2 10.1 C 73.8 10.3 74.1 10.8 74.1 11.0 C 74.0 11.2 73.4 11.5 73.4 11.5 C 73.1 11.2 72.8 11.0 72.5 10.7 C 72.5 10.7 72.3 10.5 72.0 10.2 C 71.8 10.0 70.8 9.9 70.6 9.9 C 70.3 10.0 70.0 10.4 69.7 10.6 C 69.4 10.8 69.4 11.2 69.0 10.9 C 68.6 10.6 68.4 10.2 68.2 10.2 C 68.0 10.2 67.2 10.7 67.2 10.7 C 66.9 10.8 66.7 10.9 66.4 11.0 C 66.4 11.0 65.8 11.2 65.7 11.0 C 65.6 10.7 64.3 11.0 64.3 11.0 C 64.3 11.0 64.4 10.2 64.1 10.0 C 63.7 9.9 63.2 9.7 62.7 9.9 C 62.1 10.0 61.7 10.8 61.7 10.8 C 61.6 10.6 61.4 10.4 61.2 10.2 C 60.7 10.1 60.2 10.1 59.7 10.0 C 59.7 10.0 58.6 10.0 58.6 10.2 C 58.6 10.3 58.7 11.0 58.6 11.2 C 58.6 11.4 58.0 11.6 57.9 11.4 C 57.8 11.2 57.3 10.5 57.3 10.5 C 57.3 10.5 56.8 10.1 56.5 10.0 C 56.2 10.0 55.6 10.2 55.5 10.4 C 55.4 10.5 54.8 11.0 54.8 11.0 C 54.7 10.8 54.5 10.6 54.4 10.4 C 54.4 10.4 53.5 10.7 52.6 10.1 C 52.6 10.1 52.6 10.1 52.6 10.1 Z M 75.8 9.9 C 74.6 10.0 75.4 12.6 75.9 13.2 C 76.3 13.7 77.1 13.4 77.9 13.5 C 78.7 13.6 78.5 12.7 78.9 12.5 C 79.4 12.2 79.2 12.8 79.4 13.2 C 79.6 13.6 80.8 13.2 81.6 13.3 C 82.3 13.3 83.1 12.4 83.7 12.4 C 84.3 12.3 83.1 11.9 84.2 12.0 C 85.3 12.0 84.7 12.5 83.5 12.8 C 82.3 13.0 84.0 13.3 84.7 13.4 C 85.3 13.5 86.5 13.1 87.0 13.1 C 87.5 13.2 86.8 12.5 87.6 12.5 C 88.4 12.5 88.0 13.2 88.8 13.3 C 89.5 13.4 89.4 12.8 89.8 12.6 C 90.2 12.5 90.1 12.9 90.5 12.9 C 90.8 13.0 91.3 13.2 92.1 13.0 C 92.8 12.9 92.6 12.7 92.9 12.6 C 93.3 12.6 93.9 12.6 93.9 12.6 C 93.9 12.8 93.9 13.0 94.0 13.3 C 94.0 13.3 95.3 13.3 95.7 13.4 C 96.1 13.4 97.0 13.1 96.8 13.0 C 96.5 12.8 97.4 12.4 97.6 12.5 C 97.8 12.6 98.5 12.9 98.9 13.1 C 99.4 13.2 99.3 11.5 99.3 11.3 C 99.3 11.0 99.5 10.1 99.1 10.0 C 98.7 9.9 98.4 10.2 98.5 10.0 C 98.5 9.8 97.3 10.0 97.0 10.0 C 96.7 10.0 96.3 10.6 96.3 10.6 C 96.3 10.6 96.0 11.2 95.4 11.2 C 94.9 11.2 94.7 10.1 94.7 10.1 C 94.7 10.1 94.0 9.9 93.4 9.9 C 92.7 10.0 92.0 10.9 91.9 11.1 C 91.7 11.3 91.8 10.4 91.3 10.4 C 90.8 10.3 90.1 10.0 90.0 10.1 C 89.8 10.1 89.4 10.6 89.4 10.6 C 89.4 10.6 88.6 11.0 88.4 11.0 C 88.2 11.0 88.5 10.2 88.5 10.2 C 88.5 10.2 86.7 9.9 86.3 9.9 C 86.0 9.8 85.4 10.0 85.1 10.1 C 84.9 10.1 84.5 11.1 84.1 11.0 C 83.7 10.9 84.5 10.4 84.1 10.3 C 83.7 10.2 82.9 10.0 82.8 10.0 C 82.6 10.0 82.3 10.3 82.0 10.4 C 81.6 10.4 81.2 11.2 80.6 11.2 C 80.1 11.2 79.8 10.7 79.6 10.6 C 79.5 10.5 79.3 9.9 78.9 9.9 C 78.5 9.8 78.8 10.3 78.4 10.3 C 78.0 10.3 78.0 10.8 77.6 10.7 C 77.2 10.6 77.4 9.8 77.0 9.9 C 76.8 9.9 77.0 9.9 75.8 9.9 C 75.8 9.9 75.8 9.9 75.8 9.9 Z M 75.8 9.9 " fill="#5E416F"></path><path d="M 98.2 21.0 C 98.1 21.3 97.0 21.7 97.7 21.0 C 97.8 21.0 98.2 20.8 98.2 21.0 Z M 99.8 20.0 C 99.7 20.1 99.6 20.1 99.5 20.1 C 99.1 19.9 100.3 19.7 99.8 20.0 Z M 97.2 21.1 C 97.1 21.2 96.6 21.5 96.7 21.3 C 96.7 21.2 97.2 21.1 97.2 21.1 Z M 101.0 18.4 C 101.0 18.6 100.4 18.9 100.3 18.9 C 99.9 18.9 100.8 18.1 101.0 18.4 Z M 96.4 15.6 C 96.4 15.5 96.4 15.5 96.3 15.4 C 96.4 15.5 96.4 15.5 96.4 15.6 Z M 109.0 14.1 C 108.9 14.2 108.6 14.2 108.6 14.1 C 108.6 13.9 109.3 13.9 109.0 14.1 Z M 96.0 4.5 C 96.0 4.5 95.9 4.8 95.8 4.7 C 95.7 4.6 95.9 4.5 96.0 4.5 Z M 95.8 4.5 C 95.7 4.6 95.6 4.3 95.8 4.4 C 95.9 4.5 96.0 4.5 95.8 4.5 Z M 104.8 6.9 C 104.9 6.9 104.9 6.9 104.8 7.0 C 104.7 7.0 104.7 6.8 104.8 6.9 Z M 104.4 6.9 C 104.3 7.0 104.3 6.7 104.4 6.8 C 104.5 6.8 104.6 6.8 104.4 6.9 Z M 103.2 5.2 C 103.3 5.2 103.4 5.2 103.3 5.2 C 103.2 5.3 103.1 5.1 103.2 5.2 Z M 95.6 9.1 C 95.5 9.0 95.6 8.7 95.7 8.7 C 95.9 8.7 95.7 9.2 95.6 9.1 Z M 95.5 8.6 C 95.4 8.7 95.3 8.4 95.5 8.5 C 95.5 8.5 95.6 8.6 95.5 8.6 Z M 95.7 10.0 C 95.9 10.0 95.9 10.4 95.9 10.5 C 95.9 10.6 95.8 10.8 95.7 10.9 C 95.7 11.0 95.5 10.0 95.7 10.0 Z M 95.9 13.0 C 95.9 13.0 95.8 13.0 95.9 12.8 C 96.0 12.7 96.0 13.0 95.9 13.0 Z M 95.8 11.3 C 95.8 11.3 95.7 11.3 95.8 11.2 C 95.8 11.0 95.9 11.3 95.8 11.3 Z M 104.3 16.9 C 104.4 17.0 103.9 17.1 103.9 17.1 C 103.8 17.1 104.0 17.0 103.9 17.0 C 103.7 17.1 103.8 16.6 104.3 16.9 Z M 100.7 19.4 C 100.6 19.4 100.6 19.4 100.6 19.3 C 100.6 19.3 101.0 19.2 100.7 19.4 Z M 103.5 16.7 C 103.5 16.8 103.4 16.8 103.4 16.8 C 103.3 16.7 103.4 16.7 103.5 16.7 Z M 103.7 16.5 C 103.6 16.5 103.3 16.5 103.3 16.4 C 103.3 16.2 104.0 16.2 103.7 16.5 Z M 104.9 16.8 C 104.8 16.8 104.8 16.8 104.8 16.7 C 104.9 16.6 104.9 16.8 104.9 16.8 Z M 102.9 18.2 C 102.7 18.3 102.7 18.3 102.8 18.2 C 102.8 18.1 102.9 18.2 102.9 18.2 Z M 105.8 15.9 C 105.8 15.9 105.6 16.2 105.4 16.0 C 105.1 15.7 105.8 15.9 105.8 15.9 Z M 107.1 14.7 C 107.0 14.7 107.0 14.6 107.1 14.6 C 107.2 14.5 107.2 14.6 107.1 14.7 Z M 107.3 13.8 C 107.5 13.8 107.7 13.8 107.5 14.0 C 107.2 14.1 107.1 13.9 107.3 13.8 Z M 107.1 14.1 C 107.1 14.1 107.2 14.0 107.2 14.1 C 107.3 14.1 107.2 14.2 107.1 14.1 Z M 106.1 15.2 C 106.0 15.4 105.7 15.3 105.9 15.2 C 106.1 15.0 106.1 15.1 106.1 15.2 Z M 95.6 17.1 C 95.6 17.2 95.5 17.2 95.4 17.1 C 95.3 17.1 95.5 17.0 95.6 17.1 Z M 96.3 10.7 C 96.2 10.8 96.2 10.8 96.2 10.6 C 96.2 10.4 96.4 10.7 96.3 10.7 Z M 96.6 6.7 C 96.5 6.8 96.5 6.7 96.5 6.6 C 96.6 6.4 96.7 6.6 96.6 6.7 Z M 96.3 12.4 C 96.2 12.4 95.9 12.0 96.2 11.8 C 96.5 11.5 96.5 12.2 96.3 12.4 Z M 99.5 16.3 C 99.5 16.4 99.4 16.4 99.4 16.4 C 99.4 16.2 99.4 16.2 99.5 16.3 Z M 96.7 11.5 C 96.8 11.5 96.6 11.5 96.5 11.5 C 96.5 11.4 96.7 11.3 96.7 11.5 Z M 96.4 7.4 C 96.3 7.6 96.0 7.5 95.9 7.4 C 95.7 7.1 96.0 6.8 96.2 6.6 C 96.3 6.4 96.4 7.3 96.4 7.4 Z M 96.2 18.1 C 96.3 18.0 96.3 17.9 96.3 17.8 C 96.2 17.8 96.2 17.7 96.3 17.7 C 96.3 17.3 95.9 17.0 95.8 16.8 C 95.6 16.2 96.3 15.9 96.4 15.6 C 96.4 15.7 96.4 15.8 96.4 15.8 C 96.7 16.0 96.6 14.6 96.6 14.5 C 96.4 13.3 96.2 14.7 95.8 14.7 C 95.6 14.7 96.0 13.9 96.1 13.9 C 96.2 13.5 95.8 13.4 96.0 13.1 C 96.1 12.9 97.0 12.5 96.9 12.3 C 96.8 12.2 96.9 11.8 96.9 11.7 C 96.9 11.5 96.8 11.1 96.5 11.3 C 96.2 11.5 96.0 11.5 96.2 11.2 C 96.4 11.0 97.0 9.6 96.3 9.6 C 96.2 9.7 96.0 10.0 96.0 10.0 C 95.9 9.6 96.1 8.4 95.8 8.1 C 95.2 7.5 96.2 8.3 96.4 8.0 C 96.7 7.4 96.9 7.1 96.8 6.4 C 96.7 6.3 96.7 5.6 96.4 5.9 C 96.1 6.2 96.0 6.0 95.9 6.4 C 95.5 5.9 96.2 5.7 96.1 5.6 C 95.9 5.4 95.7 5.7 95.8 5.4 C 95.8 5.0 95.7 5.1 96.1 5.1 C 96.2 5.0 96.3 4.7 96.3 4.7 C 96.3 4.7 96.3 4.7 96.3 4.7 C 96.3 4.3 95.7 3.8 95.8 3.8 C 95.9 3.7 96.4 3.9 96.5 3.9 C 96.5 3.8 96.5 3.8 96.5 3.8 C 96.5 3.6 96.2 3.3 96.3 3.3 C 96.3 3.2 96.9 3.5 96.8 3.3 C 96.6 3.1 96.8 2.4 97.0 2.4 C 97.2 2.3 98.0 2.2 98.0 2.0 C 98.1 1.9 98.5 2.2 98.6 2.2 C 98.7 2.2 98.8 2.6 98.8 2.6 C 98.9 2.7 99.2 2.8 99.2 2.8 C 99.2 2.8 99.4 2.8 99.6 3.0 C 99.8 3.1 99.9 3.3 100.2 3.6 C 100.4 3.9 100.6 3.8 100.9 3.9 C 101.2 4.0 101.2 4.6 101.4 4.8 C 101.6 5.0 101.8 4.6 102.1 4.8 C 102.5 4.9 102.6 5.1 102.4 5.1 C 102.3 5.1 102.4 5.3 102.4 5.3 C 102.5 5.4 102.8 5.7 103.0 5.7 C 103.1 5.7 102.4 4.9 103.5 5.6 C 104.1 6.0 104.2 6.6 104.1 6.5 C 103.7 6.3 104.2 7.3 104.3 7.2 C 104.4 7.0 105.4 7.6 105.3 7.2 C 105.3 7.0 106.3 7.5 106.4 7.6 C 106.5 7.8 107.0 7.9 107.0 8.3 C 106.9 8.5 107.7 8.4 107.8 8.5 C 108.0 8.6 108.7 9.1 108.8 9.2 C 108.9 9.4 108.5 9.2 108.4 9.1 C 108.2 9.0 108.1 8.7 107.9 8.7 C 107.7 8.6 108.0 8.9 108.1 9.1 C 108.3 9.2 108.3 9.4 108.4 9.5 C 108.5 9.5 108.6 9.6 108.8 9.7 C 108.8 9.8 108.9 9.8 108.9 9.7 C 109.0 9.6 108.9 9.5 109.0 9.5 C 109.0 9.4 109.2 9.4 109.4 9.6 C 109.7 9.7 109.8 9.9 110.1 10.1 C 110.3 10.4 110.5 10.4 110.7 10.5 C 110.9 10.6 111.1 10.7 111.1 10.8 C 111.0 10.9 110.8 10.7 110.7 10.8 C 110.6 10.8 110.8 11.2 110.9 11.3 C 111.5 11.7 110.7 11.9 111.3 12.3 C 111.6 12.5 111.1 12.5 110.8 12.6 C 110.8 12.6 110.8 12.7 110.6 12.9 C 110.7 13.0 110.2 13.1 110.1 13.2 C 110.0 13.3 109.3 13.9 109.7 13.4 C 109.7 13.4 109.7 13.3 109.7 13.3 C 109.7 13.3 109.7 13.3 109.7 13.3 C 109.7 13.3 109.7 12.9 109.7 12.9 C 109.7 12.9 109.7 13.3 109.7 13.3 C 109.5 13.2 109.4 13.2 109.3 13.1 C 109.3 13.2 109.3 13.2 109.3 13.3 C 109.3 13.3 109.2 13.3 109.2 13.3 C 109.2 13.3 109.2 13.3 109.3 13.3 C 109.3 13.4 109.3 13.5 109.2 13.5 C 109.0 13.8 108.3 13.9 108.0 14.0 C 108.3 13.0 107.2 13.7 106.8 14.0 C 106.5 14.3 107.0 15.0 107.2 14.9 C 106.9 15.1 106.8 15.0 106.6 14.8 C 106.6 14.9 106.0 14.6 106.0 14.6 C 105.2 14.7 105.8 15.3 105.7 15.4 C 105.5 15.6 105.3 15.7 105.2 15.9 C 105.0 16.1 105.2 16.1 105.2 16.2 C 105.2 16.6 104.4 16.3 104.2 16.4 C 104.3 16.3 104.5 16.1 104.6 15.9 C 104.4 16.2 104.1 15.9 104.0 15.9 C 103.7 16.0 103.5 16.2 103.3 16.3 C 102.9 16.5 102.6 16.8 102.3 17.1 C 102.5 17.1 103.2 17.2 103.3 17.2 C 103.2 17.2 102.8 17.3 103.1 17.5 C 103.5 17.9 102.5 18.2 102.4 18.2 C 101.9 18.5 101.6 19.2 100.8 19.0 C 100.8 19.0 101.5 18.4 101.4 18.4 C 101.0 18.1 100.7 18.0 100.3 18.4 C 100.2 18.4 99.7 19.2 99.7 19.2 C 99.7 19.1 101.0 19.7 100.2 19.7 C 100.0 19.7 100.2 19.4 100.0 19.4 C 99.7 19.5 99.4 19.7 99.2 19.8 C 99.2 19.8 98.7 19.9 98.7 20.0 C 98.7 20.1 98.8 20.3 98.7 20.5 C 98.6 20.6 98.4 20.6 98.3 20.5 C 98.3 20.5 98.3 20.5 98.3 20.4 C 98.2 20.5 98.2 20.4 98.1 20.3 C 98.1 20.4 98.0 20.5 97.8 20.4 C 97.8 20.4 97.9 20.3 98.1 20.3 C 98.1 20.2 98.0 20.2 98.0 20.1 C 97.8 20.2 97.7 20.4 97.7 20.4 C 97.5 20.8 97.5 21.0 96.8 20.9 C 96.3 20.8 95.9 19.5 96.1 18.7 C 96.1 18.5 96.1 18.3 96.2 18.1 Z M 109.0 10.2 C 109.0 10.2 109.0 10.1 108.9 10.1 C 108.9 10.2 108.9 10.3 108.8 10.4 C 109.0 10.5 108.9 10.2 109.0 10.3 C 109.2 10.5 109.2 10.4 109.0 10.2 Z M 108.9 12.0 C 109.0 12.0 109.0 12.0 108.9 11.9 C 108.9 11.9 108.9 11.9 108.9 12.0 Z M 109.2 12.7 C 109.4 12.6 108.9 12.5 108.6 12.8 C 108.9 12.8 109.1 12.8 109.2 12.7 Z M 108.9 13.4 C 108.9 13.3 108.9 13.3 108.9 13.2 C 108.8 13.1 108.7 13.4 108.6 13.3 C 108.6 13.2 108.8 13.0 108.6 13.0 C 108.5 13.0 108.5 13.0 108.4 13.0 C 108.4 13.0 108.4 13.1 108.4 13.1 C 108.4 13.3 108.7 13.4 108.9 13.4 Z M 107.7 10.1 C 107.8 10.1 107.7 10.0 107.7 10.0 C 107.5 10.0 107.5 10.1 107.7 10.1 Z M 106.7 8.6 C 106.8 8.8 106.9 8.8 106.9 8.7 C 106.9 8.5 106.7 8.5 106.7 8.6 Z M 104.8 10.7 C 104.8 10.7 104.8 10.7 104.7 10.7 C 104.6 10.6 104.7 10.8 104.8 10.7 Z M 104.7 12.2 C 104.6 12.3 104.7 12.5 104.8 12.4 C 104.8 12.3 104.7 12.1 104.7 12.2 Z M 104.8 8.8 C 104.7 8.8 104.7 8.9 104.9 8.9 C 105.0 8.9 105.0 8.9 104.8 8.8 Z M 105.2 10.9 C 105.0 10.7 105.0 10.7 104.9 10.8 C 104.9 10.8 104.9 10.9 105.1 11.0 C 105.2 11.1 105.3 11.0 105.2 10.9 Z M 105.3 12.1 C 104.9 12.3 105.0 12.5 105.4 12.2 C 105.8 11.8 105.5 12.0 105.3 12.1 Z M 106.0 7.6 C 106.0 7.7 106.2 7.7 106.2 7.7 C 106.2 7.7 105.8 7.4 106.0 7.6 Z M 105.2 15.5 C 105.3 15.4 105.3 15.3 105.1 15.3 C 104.9 15.4 105.0 15.6 105.2 15.5 Z M 104.4 14.9 C 104.7 15.1 105.0 15.0 105.0 15.0 C 104.9 15.0 104.9 14.7 105.0 14.7 C 105.1 14.4 105.6 14.5 105.7 14.2 C 105.9 13.9 105.3 14.2 105.2 14.2 C 105.3 14.2 105.3 14.1 105.3 14.0 C 105.2 14.0 105.1 14.0 105.0 14.1 C 105.0 14.2 104.1 14.6 104.4 14.9 Z M 104.4 11.3 C 104.6 11.4 104.7 11.3 104.6 11.1 C 104.5 11.0 104.4 10.9 104.3 10.9 C 104.3 11.0 104.3 11.3 104.4 11.3 Z M 104.3 10.2 C 104.5 10.1 104.4 10.1 104.3 10.1 C 104.0 10.0 104.1 10.3 104.3 10.2 Z M 102.2 5.5 C 102.1 5.5 102.3 5.6 102.4 5.6 C 102.4 5.5 102.3 5.4 102.2 5.5 Z M 102.3 7.3 C 102.0 7.3 102.2 7.5 102.3 7.5 C 102.4 7.5 102.5 7.4 102.3 7.3 Z M 103.4 8.4 C 103.3 8.4 103.4 8.6 103.5 8.6 C 103.6 8.5 103.5 8.5 103.4 8.4 Z M 103.5 9.1 C 103.4 9.1 103.4 9.3 103.6 9.3 C 103.7 9.3 103.6 9.2 103.5 9.1 Z M 103.0 15.2 C 103.0 15.2 102.9 14.9 102.8 15.2 C 102.6 15.4 102.6 15.4 103.0 15.2 Z M 103.5 13.0 C 103.7 12.9 103.8 12.7 103.6 12.1 C 103.4 11.5 103.3 11.8 103.2 12.1 C 103.1 12.5 102.8 11.5 102.7 12.2 C 102.6 12.5 103.3 13.2 103.5 13.0 Z M 102.4 9.2 C 102.6 9.6 103.2 9.5 102.9 9.3 C 102.5 9.0 102.2 8.9 102.4 9.2 Z M 102.4 8.9 C 102.5 9.0 102.5 8.9 102.3 8.9 C 102.2 8.8 102.3 8.9 102.4 8.9 Z M 102.7 17.8 C 103.3 17.3 102.3 17.3 102.3 17.3 C 101.5 17.5 102.1 18.3 102.7 17.8 Z M 96.7 5.0 C 96.7 5.0 96.6 5.1 96.6 5.1 C 96.6 5.1 96.6 5.1 96.7 5.1 C 96.8 5.2 96.9 5.0 96.9 5.0 C 96.8 4.9 96.7 5.0 96.7 5.0 Z M 96.5 8.9 C 96.5 8.7 96.5 8.6 96.4 8.5 C 96.0 8.6 96.0 9.7 96.6 9.3 C 96.7 9.2 97.2 8.5 96.9 8.4 C 96.8 8.3 96.5 9.2 96.5 8.9 Z M 97.0 7.7 C 96.9 8.1 97.4 7.3 97.2 7.4 C 97.1 7.4 97.0 7.5 97.0 7.7 Z M 98.0 4.2 C 97.8 3.6 96.9 3.7 97.3 4.7 C 97.8 5.7 98.2 5.7 98.1 5.2 C 98.0 4.7 98.4 5.1 98.0 4.2 Z M 98.0 9.3 C 97.4 9.1 97.6 9.4 98.0 9.6 C 98.2 9.6 98.4 9.3 98.0 9.3 Z M 98.1 10.7 C 98.1 10.8 98.1 10.8 98.2 10.7 C 98.3 10.6 98.2 10.5 98.1 10.7 Z M 99.0 3.2 C 98.8 3.0 98.6 2.9 98.7 2.8 C 98.9 2.8 98.8 2.8 98.7 2.7 C 98.6 2.5 98.6 2.8 98.6 3.0 C 98.6 3.1 99.1 3.5 99.0 3.2 Z M 101.2 8.6 C 101.1 8.6 101.1 8.7 101.2 8.7 C 101.3 8.7 101.3 8.7 101.2 8.6 Z M 101.9 13.9 C 101.9 13.9 101.8 13.8 101.8 13.9 C 101.7 14.0 101.7 14.0 101.9 13.9 Z M 101.7 18.2 C 101.8 18.1 101.5 18.0 101.5 17.8 C 101.5 17.7 101.6 17.8 101.7 17.9 C 101.6 17.8 101.6 17.3 101.4 17.7 C 101.3 17.8 101.4 18.4 101.7 18.2 Z M 101.0 10.1 C 101.2 10.3 101.4 9.4 101.6 9.6 C 101.7 9.7 101.7 9.6 101.5 9.4 C 101.3 9.2 100.8 9.8 101.0 10.1 Z M 100.9 7.8 C 100.9 8.0 101.3 8.3 101.2 8.1 C 101.1 7.9 100.9 7.7 101.0 7.7 C 101.2 7.7 101.1 7.7 101.0 7.5 C 100.8 7.4 100.8 7.7 100.9 7.8 Z M 100.7 4.1 C 100.7 4.1 101.0 4.3 100.9 4.1 C 100.9 4.0 100.7 4.0 100.7 4.1 Z M 100.5 14.5 C 100.5 14.4 100.5 14.3 100.3 14.5 C 100.2 14.6 100.4 14.7 100.5 14.5 Z M 100.1 4.4 C 100.3 4.6 100.1 4.3 100.3 4.4 C 100.5 4.6 100.5 4.5 100.3 4.3 C 100.1 4.1 99.9 4.2 100.1 4.4 Z M 99.9 18.0 C 99.9 17.9 99.8 17.7 99.8 17.8 C 99.7 17.9 99.9 18.0 99.9 18.0 Z M 99.4 16.5 C 99.4 16.5 99.5 16.5 99.5 16.5 C 100.4 15.8 98.8 16.3 99.4 16.5 Z M 99.5 14.4 C 99.5 14.7 99.7 14.3 99.7 14.3 C 99.6 14.3 99.5 14.3 99.5 14.4 Z M 99.5 12.0 C 99.3 11.9 99.4 12.2 99.5 12.1 C 99.6 12.1 99.6 12.0 99.5 12.0 Z M 99.0 19.7 C 99.2 19.6 99.1 19.6 99.0 19.6 C 98.9 19.6 98.9 19.7 99.0 19.7 Z M 98.9 13.8 C 99.0 13.8 99.0 13.8 99.0 13.7 C 99.0 13.6 98.9 13.7 98.9 13.8 Z M 98.9 6.5 C 99.0 6.6 99.0 6.6 99.1 6.7 C 99.2 6.6 99.3 6.2 99.4 6.2 C 99.4 6.2 99.4 6.2 99.4 6.2 C 99.5 6.2 99.5 6.2 99.5 6.2 C 99.6 6.2 99.6 6.3 99.6 6.3 C 99.6 6.3 99.6 6.4 99.6 6.5 C 99.8 6.4 99.9 6.2 99.8 6.1 C 99.6 5.9 99.3 5.9 99.0 5.9 C 99.0 6.0 98.9 6.1 98.9 6.2 C 98.9 6.2 98.9 6.2 99.0 6.2 C 99.1 6.3 99.2 6.4 99.1 6.4 C 99.0 6.4 98.9 6.4 98.9 6.4 C 98.9 6.4 98.9 6.5 98.9 6.5 Z M 98.6 12.8 C 98.7 13.0 98.8 12.9 98.8 12.7 C 98.9 12.5 98.5 12.7 98.6 12.8 Z M 98.8 19.4 C 98.8 19.3 98.8 19.3 98.7 19.2 C 98.7 19.3 98.7 19.3 98.7 19.3 C 98.7 19.5 98.6 19.6 98.6 19.7 C 98.8 19.7 98.9 19.6 98.8 19.4 Z M 98.1 17.3 C 98.1 17.4 98.1 18.3 98.3 18.1 C 98.6 17.9 98.9 18.2 98.8 17.6 C 98.7 17.3 98.3 17.1 98.2 16.8 C 97.8 15.2 97.8 17.2 97.7 17.6 C 97.7 17.6 98.1 17.2 98.1 17.3 Z M 97.7 15.3 C 97.5 15.3 97.3 15.5 97.4 15.6 C 97.4 16.0 97.8 15.4 97.7 15.3 Z M 97.4 19.6 C 97.4 19.6 97.5 19.6 97.5 19.6 C 97.5 19.6 97.5 19.6 97.4 19.5 C 97.4 19.6 97.4 19.6 97.4 19.6 Z M 97.3 20.7 C 97.7 20.3 96.9 20.3 96.7 20.4 C 96.4 20.5 97.0 20.9 97.3 20.7 Z M 96.9 16.5 C 97.0 16.2 96.1 15.8 96.1 16.4 C 96.1 16.9 96.9 17.1 96.9 16.5 Z M 95.8 13.3 C 95.9 13.4 95.7 13.7 95.6 13.5 C 95.5 13.4 95.8 13.2 95.8 13.3 Z M 95.3 18.0 C 95.4 17.9 95.4 18.0 95.4 18.0 C 95.3 18.1 95.3 18.1 95.3 18.0 Z M 96.0 17.6 C 95.9 17.7 95.9 17.9 95.8 18.0 C 95.8 18.1 95.7 17.8 95.7 17.8 C 95.7 17.7 96.0 17.6 96.0 17.6 Z M 96.1 15.0 C 95.9 15.2 95.9 15.0 96.0 14.9 C 96.0 14.8 96.1 14.9 96.1 15.0 Z M 95.8 15.6 C 95.9 15.6 96.0 15.6 96.0 15.7 C 95.9 15.9 95.8 15.7 95.8 15.6 Z M 96.3 14.6 C 96.4 14.9 96.5 15.2 96.2 15.2 C 96.1 15.2 96.2 14.1 96.3 14.6 Z M 96.3 14.6 " fill="#5E416F"></path></g></svg>