<?xml version="1.0" encoding="UTF-8" standalone="no"?><svg xmlns="http://www.w3.org/2000/svg" xmlns:xlink="http://www.w3.org/1999/xlink" clip-rule="evenodd" stroke-miterlimit="10" viewBox="0 0 149 22"><desc>SVG generated by Keynote</desc><defs></defs><g transform="matrix(1.00, 0.00, -0.00, -1.00, 0.0, 22.0)"><path d="M 5.6 10.1 C 5.3 10.2 5.2 9.8 4.6 9.6 C 4.0 9.4 3.2 9.4 3.4 9.7 C 3.5 10.0 3.7 10.3 3.4 10.7 C 3.1 11.0 2.7 11.8 3.2 12.0 C 3.6 12.3 5.2 13.0 5.8 12.6 C 6.3 12.3 6.4 12.1 6.8 11.9 C 7.2 11.6 7.0 12.4 7.0 12.4 C 7.0 12.4 7.8 12.5 8.5 12.6 C 9.2 12.6 9.9 12.6 10.0 12.5 C 10.1 12.4 10.3 12.1 10.3 12.1 C 10.3 12.1 10.7 12.5 11.2 12.5 C 11.7 12.6 11.5 12.4 11.4 12.2 C 11.3 12.0 10.7 11.5 11.0 11.5 C 11.2 11.5 11.8 12.3 12.1 12.4 C 12.5 12.5 13.3 12.4 13.3 12.4 C 13.3 12.4 13.2 12.0 13.3 11.9 C 13.3 11.8 14.1 11.7 14.1 11.9 C 14.2 12.0 14.1 12.5 14.5 12.5 C 15.7 12.6 15.5 11.7 15.6 11.7 C 15.7 11.7 15.7 12.4 16.0 12.5 C 16.3 12.6 18.7 12.5 18.8 12.3 C 18.9 12.1 19.7 12.8 20.0 12.3 C 20.4 11.9 20.5 11.8 20.6 11.7 C 20.6 11.6 21.1 10.9 21.3 11.1 C 21.5 11.4 20.6 12.2 20.9 12.4 C 21.1 12.6 22.6 12.6 22.9 12.4 C 23.2 12.1 23.3 11.5 23.5 11.5 C 23.7 11.5 24.6 12.3 24.6 12.2 C 24.7 12.1 24.8 11.4 24.8 11.2 C 24.8 11.1 25.1 9.8 24.9 9.7 C 24.7 9.5 23.9 9.0 24.0 9.4 C 24.1 9.8 24.3 10.2 24.0 10.4 C 23.7 10.5 23.5 10.5 23.4 10.4 C 23.4 10.3 23.5 10.1 23.0 9.9 C 22.5 9.7 22.8 9.4 22.3 9.4 C 21.8 9.4 21.3 9.5 21.4 9.8 C 21.4 10.0 20.9 10.4 20.6 10.4 C 20.2 10.4 20.8 9.8 19.7 9.5 C 18.6 9.3 17.9 9.2 17.6 9.5 C 17.3 9.7 17.2 10.4 16.7 10.1 C 16.2 9.8 16.4 9.6 15.7 9.6 C 15.0 9.6 14.8 10.2 14.3 10.3 C 13.9 10.3 13.7 10.3 13.7 10.3 C 13.7 10.3 14.0 9.4 12.9 9.4 C 11.9 9.3 11.7 9.3 11.9 9.9 C 12.1 10.5 11.4 10.5 11.3 10.1 C 11.3 9.7 10.7 9.4 10.4 9.4 C 10.0 9.3 9.9 10.4 9.8 10.4 C 9.6 10.4 9.2 10.3 9.4 10.0 C 9.5 9.7 9.1 9.7 8.8 9.5 C 8.5 9.4 7.6 9.5 7.6 9.7 C 7.6 9.8 8.1 10.5 7.4 10.2 C 6.8 9.8 6.6 9.3 6.0 9.4 C 5.4 9.4 6.0 10.0 5.6 10.1 C 5.6 10.1 5.6 10.1 5.6 10.1 Z M 25.3 9.3 C 24.2 9.4 24.9 12.0 25.4 12.6 C 25.8 13.1 26.5 12.8 27.2 12.9 C 27.9 13.0 27.7 12.1 28.1 11.9 C 28.5 11.6 28.4 12.2 28.6 12.6 C 28.7 13.0 29.9 12.6 30.5 12.7 C 31.2 12.7 31.9 11.8 32.4 11.8 C 33.0 11.7 32.0 11.3 32.9 11.3 C 33.9 11.4 33.4 11.9 32.3 12.2 C 31.2 12.4 32.7 12.7 33.3 12.8 C 33.9 12.9 35.0 12.5 35.4 12.5 C 35.9 12.6 35.3 11.9 36.0 11.9 C 36.7 11.9 36.4 12.6 37.1 12.7 C 37.8 12.8 37.7 12.2 38.0 12.0 C 38.4 11.9 38.3 12.3 38.6 12.3 C 38.9 12.4 39.4 12.6 40.1 12.4 C 40.7 12.3 40.6 12.1 40.9 12.0 C 41.2 12.0 41.7 12.0 41.7 12.0 C 41.7 12.2 41.8 12.4 41.8 12.7 C 41.8 12.7 43.0 12.7 43.4 12.8 C 43.7 12.8 44.5 12.5 44.3 12.4 C 44.1 12.2 44.9 11.8 45.1 11.9 C 45.3 12.0 45.9 12.3 46.3 12.5 C 46.7 12.6 46.6 10.9 46.6 10.7 C 46.6 10.4 46.9 9.5 46.5 9.4 C 46.1 9.3 45.8 9.6 45.9 9.4 C 46.0 9.1 44.9 9.4 44.6 9.4 C 44.3 9.4 43.9 10.0 43.9 10.0 C 43.9 10.0 43.6 10.6 43.1 10.6 C 42.6 10.6 42.5 9.5 42.5 9.5 C 42.5 9.5 41.9 9.3 41.3 9.3 C 40.7 9.4 40.0 10.3 39.9 10.5 C 39.8 10.7 39.8 9.8 39.4 9.7 C 38.9 9.6 38.3 9.4 38.1 9.4 C 38.0 9.5 37.7 10.0 37.7 10.0 C 37.7 10.0 36.9 10.4 36.7 10.4 C 36.5 10.4 36.8 9.6 36.8 9.6 C 36.8 9.6 35.2 9.3 34.9 9.3 C 34.5 9.2 34.0 9.4 33.7 9.5 C 33.5 9.5 33.2 10.5 32.8 10.4 C 32.4 10.3 33.2 9.8 32.8 9.7 C 32.4 9.6 31.8 9.4 31.6 9.4 C 31.4 9.4 31.2 9.7 30.9 9.8 C 30.6 9.8 30.2 10.6 29.7 10.6 C 29.2 10.6 29.0 10.1 28.8 10.0 C 28.6 9.9 28.5 9.3 28.1 9.3 C 27.7 9.2 28.0 9.7 27.6 9.7 C 27.3 9.7 27.3 10.2 26.9 10.1 C 26.6 10.0 26.8 9.2 26.4 9.3 C 26.2 9.3 26.4 9.3 25.3 9.3 C 25.3 9.3 25.3 9.3 25.3 9.3 Z M 47.4 9.5 C 46.9 9.1 46.4 9.6 46.5 9.9 C 46.5 10.3 46.7 11.3 46.5 11.6 C 46.4 11.8 45.7 12.5 46.7 12.7 C 47.6 12.8 47.8 12.5 47.8 12.3 C 47.8 12.1 47.9 11.1 48.2 11.1 C 48.4 11.2 48.7 11.5 48.7 11.7 C 48.8 11.8 49.1 12.8 49.6 12.6 C 50.0 12.5 50.4 12.2 50.4 12.2 C 50.7 12.2 50.9 12.2 51.1 12.2 C 51.1 12.2 51.7 12.8 52.2 12.6 C 52.7 12.5 53.2 12.5 53.6 12.5 C 54.0 12.6 54.3 12.5 54.4 12.3 C 54.5 12.0 54.9 11.2 54.9 11.2 C 54.9 11.2 55.5 11.0 55.7 11.1 C 56.0 11.2 56.0 11.7 56.0 11.9 C 55.9 12.1 56.0 12.5 56.3 12.6 C 56.7 12.7 58.3 13.2 58.5 12.9 C 58.8 12.6 58.7 12.3 58.9 12.2 C 59.1 12.1 60.1 12.0 60.2 12.3 C 60.3 12.5 60.2 13.0 60.5 12.9 C 60.8 12.9 61.5 13.0 61.5 12.9 C 61.5 12.8 61.7 12.6 61.7 12.3 C 61.7 12.1 62.3 11.8 62.4 11.7 C 62.6 11.6 63.0 11.5 63.0 11.5 C 63.2 11.7 63.4 11.8 63.6 12.0 C 63.6 12.0 63.3 12.5 63.1 12.6 C 62.9 12.7 63.2 13.0 63.4 13.0 C 63.6 13.1 64.7 13.0 64.7 13.0 C 64.8 12.6 64.8 12.2 64.8 11.8 C 65.1 11.8 65.4 11.7 65.7 11.6 C 65.7 11.6 65.5 13.0 66.1 13.0 C 66.6 13.0 67.3 13.0 67.3 13.0 C 67.3 13.0 67.9 12.4 68.0 12.4 C 68.2 12.3 68.2 11.1 68.2 11.1 C 68.2 10.7 68.1 10.2 68.1 9.8 C 68.1 9.8 67.4 9.3 67.1 9.5 C 66.7 9.7 67.0 10.2 66.9 10.4 C 66.9 10.6 66.3 10.9 66.3 10.9 C 66.1 10.6 65.8 10.3 65.6 10.1 C 65.6 10.1 65.3 9.9 65.1 9.6 C 64.9 9.4 64.0 9.3 63.8 9.3 C 63.5 9.4 63.3 9.8 63.0 10.0 C 62.7 10.2 62.7 10.6 62.4 10.3 C 62.0 10.0 61.8 9.6 61.6 9.6 C 61.5 9.6 60.7 10.1 60.7 10.1 C 60.4 10.2 60.2 10.3 60.0 10.4 C 60.0 10.4 59.4 10.6 59.3 10.4 C 59.2 10.1 58.0 10.4 58.0 10.4 C 58.0 10.4 58.2 9.6 57.9 9.4 C 57.6 9.3 57.1 9.1 56.6 9.3 C 56.1 9.4 55.7 10.2 55.7 10.2 C 55.6 10.0 55.4 9.8 55.3 9.6 C 54.8 9.5 54.4 9.4 53.9 9.4 C 53.9 9.4 52.9 9.4 52.9 9.6 C 52.9 9.7 53.0 10.4 52.9 10.6 C 52.9 10.8 52.3 11.0 52.3 10.8 C 52.2 10.5 51.7 9.9 51.7 9.9 C 51.7 9.9 51.3 9.5 51.0 9.4 C 50.7 9.4 50.2 9.6 50.1 9.8 C 49.9 9.9 49.5 10.4 49.5 10.4 C 49.3 10.2 49.2 10.0 49.1 9.8 C 49.1 9.8 48.2 10.1 47.4 9.5 C 47.4 9.5 47.4 9.5 47.4 9.5 Z M 68.5 9.3 C 67.5 9.4 68.2 12.0 68.6 12.6 C 69.0 13.1 69.7 12.8 70.5 12.9 C 71.2 13.0 70.9 12.1 71.4 11.9 C 71.8 11.6 71.6 12.2 71.8 12.6 C 72.0 13.0 73.1 12.6 73.8 12.7 C 74.4 12.7 75.1 11.8 75.7 11.8 C 76.2 11.7 75.2 11.3 76.2 11.3 C 77.1 11.4 76.6 11.9 75.5 12.2 C 74.4 12.4 76.0 12.7 76.6 12.8 C 77.2 12.9 78.2 12.5 78.7 12.5 C 79.2 12.6 78.6 11.9 79.3 11.9 C 80.0 11.9 79.6 12.6 80.3 12.7 C 81.0 12.8 80.9 12.2 81.3 12.0 C 81.6 11.9 81.6 12.3 81.9 12.3 C 82.2 12.4 82.6 12.6 83.3 12.4 C 84.0 12.3 83.8 12.1 84.1 12.0 C 84.4 12.0 84.9 12.0 84.9 12.0 C 85.0 12.2 85.0 12.4 85.0 12.7 C 85.0 12.7 86.3 12.7 86.6 12.8 C 87.0 12.8 87.8 12.5 87.6 12.4 C 87.4 12.2 88.2 11.8 88.4 11.9 C 88.5 12.0 89.1 12.3 89.6 12.5 C 90.0 12.6 89.9 10.9 89.9 10.7 C 89.9 10.4 90.1 9.5 89.7 9.4 C 89.4 9.3 89.1 9.6 89.1 9.4 C 89.2 9.1 88.1 9.4 87.8 9.4 C 87.5 9.4 87.2 10.0 87.2 10.0 C 87.2 10.0 86.9 10.6 86.4 10.6 C 85.9 10.6 85.7 9.5 85.7 9.5 C 85.7 9.5 85.1 9.3 84.5 9.3 C 83.9 9.4 83.2 10.3 83.1 10.5 C 83.0 10.7 83.0 9.8 82.6 9.7 C 82.2 9.6 81.6 9.4 81.4 9.4 C 81.2 9.5 80.9 10.0 80.9 10.0 C 80.9 10.0 80.1 10.4 79.9 10.4 C 79.8 10.4 80.1 9.6 80.1 9.6 C 80.1 9.6 78.4 9.3 78.1 9.3 C 77.8 9.2 77.2 9.4 77.0 9.5 C 76.8 9.5 76.4 10.5 76.0 10.4 C 75.7 10.3 76.4 9.8 76.0 9.7 C 75.7 9.6 75.0 9.4 74.8 9.4 C 74.7 9.4 74.4 9.7 74.1 9.8 C 73.8 9.8 73.4 10.6 72.9 10.6 C 72.4 10.6 72.2 10.1 72.0 10.0 C 71.8 9.9 71.7 9.3 71.3 9.3 C 71.0 9.2 71.2 9.7 70.9 9.7 C 70.5 9.7 70.5 10.2 70.2 10.1 C 69.8 10.0 70.0 9.2 69.6 9.3 C 69.4 9.3 69.6 9.3 68.5 9.3 C 68.5 9.3 68.5 9.3 68.5 9.3 Z M 90.6 9.5 C 90.1 9.1 89.7 9.6 89.7 9.9 C 89.8 10.3 90.0 11.3 89.8 11.6 C 89.6 11.8 89.0 12.5 89.9 12.7 C 90.8 12.8 91.0 12.5 91.0 12.3 C 91.0 12.1 91.2 11.1 91.4 11.1 C 91.7 11.2 91.9 11.5 92.0 11.7 C 92.0 11.8 92.4 12.8 92.8 12.6 C 93.3 12.5 93.7 12.2 93.7 12.2 C 93.9 12.2 94.1 12.2 94.4 12.2 C 94.4 12.2 95.0 12.8 95.4 12.6 C 95.9 12.5 96.5 12.5 96.8 12.5 C 97.2 12.6 97.6 12.5 97.6 12.3 C 97.7 12.0 98.2 11.2 98.2 11.2 C 98.2 11.2 98.7 11.0 99.0 11.1 C 99.2 11.2 99.3 11.7 99.2 11.9 C 99.2 12.1 99.2 12.5 99.6 12.6 C 100.0 12.7 101.5 13.2 101.8 12.9 C 102.0 12.6 102.0 12.3 102.1 12.2 C 102.3 12.1 103.4 12.0 103.5 12.3 C 103.5 12.5 103.5 13.0 103.8 12.9 C 104.1 12.9 104.7 13.0 104.7 12.9 C 104.7 12.8 104.9 12.6 104.9 12.3 C 104.9 12.1 105.5 11.8 105.7 11.7 C 105.8 11.6 106.3 11.5 106.3 11.5 C 106.5 11.7 106.7 11.8 106.9 12.0 C 106.9 12.0 106.5 12.5 106.3 12.6 C 106.2 12.7 106.5 13.0 106.6 13.0 C 106.8 13.1 108.0 13.0 108.0 13.0 C 108.0 12.6 108.0 12.2 108.0 11.8 C 108.3 11.8 108.6 11.7 108.9 11.6 C 108.9 11.6 108.8 13.0 109.3 13.0 C 109.9 13.0 110.5 13.0 110.5 13.0 C 110.5 13.0 111.1 12.4 111.3 12.4 C 111.4 12.3 111.5 11.1 111.5 11.1 C 111.4 10.7 111.4 10.2 111.3 9.8 C 111.3 9.8 110.7 9.3 110.3 9.5 C 109.9 9.7 110.2 10.2 110.2 10.4 C 110.1 10.6 109.6 10.9 109.6 10.9 C 109.3 10.6 109.1 10.3 108.8 10.1 C 108.8 10.1 108.6 9.9 108.4 9.6 C 108.1 9.4 107.3 9.3 107.0 9.3 C 106.8 9.4 106.5 9.8 106.2 10.0 C 105.9 10.2 106.0 10.6 105.6 10.3 C 105.2 10.0 105.1 9.6 104.9 9.6 C 104.7 9.6 103.9 10.1 103.9 10.1 C 103.7 10.2 103.5 10.3 103.2 10.4 C 103.2 10.4 102.7 10.6 102.6 10.4 C 102.5 10.1 101.3 10.4 101.3 10.4 C 101.3 10.4 101.4 9.6 101.1 9.4 C 100.8 9.3 100.3 9.1 99.8 9.3 C 99.3 9.4 99.0 10.2 99.0 10.2 C 98.8 10.0 98.7 9.8 98.5 9.6 C 98.1 9.5 97.6 9.4 97.1 9.4 C 97.1 9.4 96.1 9.4 96.1 9.6 C 96.1 9.7 96.2 10.4 96.2 10.6 C 96.1 10.8 95.6 11.0 95.5 10.8 C 95.4 10.5 95.0 9.9 95.0 9.9 C 95.0 9.9 94.5 9.5 94.2 9.4 C 93.9 9.4 93.4 9.6 93.3 9.8 C 93.2 9.9 92.7 10.4 92.7 10.4 C 92.6 10.2 92.4 10.0 92.3 9.8 C 92.3 9.8 91.5 10.1 90.6 9.5 C 90.6 9.5 90.6 9.5 90.6 9.5 Z M 111.8 9.3 C 110.7 9.4 111.4 12.0 111.8 12.6 C 112.3 13.1 113.0 12.8 113.7 12.9 C 114.4 13.0 114.2 12.1 114.6 11.9 C 115.0 11.6 114.9 12.2 115.1 12.6 C 115.2 13.0 116.3 12.6 117.0 12.7 C 117.7 12.7 118.4 11.8 118.9 11.8 C 119.4 11.7 118.4 11.3 119.4 11.3 C 120.4 11.4 119.9 11.9 118.8 12.2 C 117.7 12.4 119.2 12.7 119.8 12.8 C 120.4 12.9 121.5 12.5 121.9 12.5 C 122.4 12.6 121.8 11.9 122.5 11.9 C 123.2 11.9 122.8 12.6 123.5 12.7 C 124.3 12.8 124.2 12.2 124.5 12.0 C 124.9 11.9 124.8 12.3 125.1 12.3 C 125.4 12.4 125.9 12.6 126.6 12.4 C 127.2 12.3 127.0 12.1 127.3 12.0 C 127.6 12.0 128.2 12.0 128.2 12.0 C 128.2 12.2 128.3 12.4 128.3 12.7 C 128.3 12.7 129.5 12.7 129.9 12.8 C 130.2 12.8 131.0 12.5 130.8 12.4 C 130.6 12.2 131.4 11.8 131.6 11.9 C 131.8 12.0 132.4 12.3 132.8 12.5 C 133.2 12.6 133.1 10.9 133.1 10.7 C 133.1 10.4 133.3 9.5 133.0 9.4 C 132.6 9.3 132.3 9.6 132.4 9.4 C 132.4 9.1 131.4 9.4 131.1 9.4 C 130.8 9.4 130.4 10.0 130.4 10.0 C 130.4 10.0 130.1 10.6 129.6 10.6 C 129.1 10.6 129.0 9.5 129.0 9.5 C 129.0 9.5 128.4 9.3 127.8 9.3 C 127.2 9.4 126.5 10.3 126.4 10.5 C 126.3 10.7 126.3 9.8 125.9 9.7 C 125.4 9.6 124.8 9.4 124.6 9.4 C 124.5 9.5 124.1 10.0 124.1 10.0 C 124.1 10.0 123.4 10.4 123.2 10.4 C 123.0 10.4 123.3 9.6 123.3 9.6 C 123.3 9.6 121.7 9.3 121.4 9.3 C 121.0 9.2 120.5 9.4 120.2 9.5 C 120.0 9.5 119.6 10.5 119.3 10.4 C 118.9 10.3 119.6 9.8 119.3 9.7 C 118.9 9.6 118.3 9.4 118.1 9.4 C 117.9 9.4 117.7 9.7 117.4 9.8 C 117.1 9.8 116.6 10.6 116.2 10.6 C 115.7 10.6 115.4 10.1 115.3 10.0 C 115.1 9.9 115.0 9.3 114.6 9.3 C 114.2 9.2 114.5 9.7 114.1 9.7 C 113.8 9.7 113.8 10.2 113.4 10.1 C 113.0 10.0 113.3 9.2 112.9 9.3 C 112.7 9.3 112.9 9.3 111.8 9.3 C 111.8 9.3 111.8 9.3 111.8 9.3 Z M 111.8 9.3 " fill="#5E416F"></path><path d="M 132.0 20.4 C 131.9 20.7 130.8 21.1 131.6 20.4 C 131.6 20.3 132.0 20.2 132.0 20.4 Z M 133.7 19.4 C 133.6 19.5 133.4 19.5 133.3 19.5 C 133.0 19.3 134.1 19.1 133.7 19.4 Z M 131.0 20.5 C 131.0 20.6 130.5 20.9 130.5 20.7 C 130.5 20.6 131.0 20.4 131.0 20.5 Z M 134.8 17.8 C 134.9 18.0 134.3 18.3 134.2 18.3 C 133.8 18.3 134.7 17.5 134.8 17.8 Z M 130.2 15.0 C 130.2 14.9 130.2 14.9 130.2 14.8 C 130.2 14.9 130.2 14.9 130.2 15.0 Z M 142.8 13.5 C 142.7 13.6 142.4 13.6 142.4 13.5 C 142.4 13.3 143.1 13.3 142.8 13.5 Z M 129.9 3.9 C 129.9 3.9 129.8 4.2 129.7 4.1 C 129.6 4.0 129.8 3.9 129.9 3.9 Z M 129.7 3.9 C 129.5 4.0 129.5 3.7 129.6 3.8 C 129.8 3.8 129.8 3.9 129.7 3.9 Z M 138.6 6.3 C 138.7 6.3 138.8 6.3 138.7 6.3 C 138.6 6.4 138.5 6.2 138.6 6.3 Z M 138.3 6.3 C 138.1 6.4 138.1 6.1 138.2 6.1 C 138.4 6.2 138.5 6.2 138.3 6.3 Z M 137.1 4.6 C 137.1 4.6 137.2 4.6 137.1 4.6 C 137.0 4.7 136.9 4.5 137.1 4.6 Z M 129.4 8.5 C 129.4 8.4 129.4 8.1 129.6 8.1 C 129.8 8.1 129.5 8.6 129.4 8.5 Z M 129.3 8.0 C 129.2 8.1 129.2 7.8 129.3 7.9 C 129.4 7.9 129.4 8.0 129.3 8.0 Z M 129.6 9.4 C 129.8 9.4 129.8 9.8 129.8 9.9 C 129.7 10.0 129.7 10.2 129.6 10.3 C 129.6 10.3 129.4 9.4 129.6 9.4 Z M 129.8 12.4 C 129.7 12.4 129.7 12.4 129.7 12.2 C 129.8 12.1 129.9 12.4 129.8 12.4 Z M 129.7 10.7 C 129.6 10.7 129.6 10.7 129.6 10.5 C 129.7 10.4 129.7 10.7 129.7 10.7 Z M 138.2 16.3 C 138.3 16.4 137.8 16.5 137.7 16.5 C 137.7 16.5 137.9 16.4 137.7 16.4 C 137.6 16.5 137.7 16.0 138.2 16.3 Z M 134.6 18.8 C 134.5 18.8 134.4 18.8 134.4 18.7 C 134.4 18.6 134.8 18.6 134.6 18.8 Z M 137.3 16.1 C 137.3 16.2 137.2 16.2 137.2 16.2 C 137.2 16.1 137.3 16.1 137.3 16.1 Z M 137.5 15.9 C 137.5 15.9 137.2 15.9 137.2 15.8 C 137.1 15.6 137.9 15.6 137.5 15.9 Z M 138.8 16.1 C 138.6 16.2 138.6 16.2 138.7 16.1 C 138.7 16.0 138.8 16.1 138.8 16.1 Z M 136.7 17.6 C 136.6 17.7 136.6 17.7 136.6 17.6 C 136.7 17.5 136.7 17.6 136.7 17.6 Z M 139.6 15.3 C 139.6 15.3 139.4 15.6 139.2 15.4 C 138.9 15.1 139.6 15.3 139.6 15.3 Z M 140.9 14.1 C 140.8 14.1 140.8 14.0 140.9 14.0 C 141.0 13.9 141.0 14.0 140.9 14.1 Z M 141.2 13.2 C 141.4 13.2 141.6 13.2 141.3 13.4 C 141.0 13.5 141.0 13.3 141.2 13.2 Z M 141.0 13.5 C 140.9 13.5 141.0 13.4 141.1 13.5 C 141.1 13.5 141.0 13.6 141.0 13.5 Z M 139.9 14.6 C 139.8 14.8 139.6 14.7 139.8 14.6 C 139.9 14.4 140.0 14.5 139.9 14.6 Z M 129.4 16.5 C 129.5 16.6 129.3 16.6 129.2 16.5 C 129.2 16.5 129.4 16.4 129.4 16.5 Z M 130.1 10.1 C 130.0 10.2 130.0 10.1 130.0 10.0 C 130.1 9.8 130.2 10.0 130.1 10.1 Z M 130.4 6.1 C 130.3 6.2 130.3 6.1 130.4 5.9 C 130.4 5.8 130.5 6.0 130.4 6.1 Z M 130.1 11.8 C 130.0 11.8 129.7 11.4 130.0 11.1 C 130.3 10.9 130.4 11.6 130.1 11.8 Z M 133.3 15.7 C 133.4 15.8 133.3 15.8 133.3 15.8 C 133.3 15.6 133.3 15.6 133.3 15.7 Z M 130.6 10.9 C 130.6 10.9 130.5 10.9 130.4 10.9 C 130.3 10.8 130.5 10.7 130.6 10.9 Z M 130.2 6.8 C 130.1 7.0 129.9 6.9 129.8 6.8 C 129.5 6.5 129.8 6.2 130.0 6.0 C 130.2 5.8 130.3 6.7 130.2 6.8 Z M 130.1 17.5 C 130.1 17.4 130.1 17.3 130.1 17.2 C 130.1 17.2 130.1 17.1 130.1 17.0 C 130.1 16.7 129.7 16.4 129.6 16.2 C 129.4 15.6 130.2 15.3 130.2 15.0 C 130.2 15.1 130.2 15.2 130.3 15.2 C 130.5 15.4 130.4 14.0 130.4 13.9 C 130.2 12.7 130.0 14.1 129.6 14.1 C 129.4 14.1 129.9 13.3 129.9 13.2 C 130.1 12.9 129.7 12.8 129.8 12.5 C 129.9 12.3 130.8 11.9 130.7 11.7 C 130.6 11.6 130.7 11.2 130.7 11.1 C 130.7 10.9 130.7 10.5 130.3 10.7 C 130.1 10.9 129.9 10.9 130.1 10.6 C 130.2 10.4 130.8 9.0 130.1 9.0 C 130.1 9.0 129.9 9.3 129.9 9.4 C 129.7 9.0 130.0 7.8 129.7 7.5 C 129.1 6.9 130.0 7.7 130.2 7.4 C 130.5 6.8 130.7 6.5 130.6 5.8 C 130.6 5.7 130.6 5.0 130.2 5.3 C 130.0 5.6 129.8 5.4 129.7 5.8 C 129.4 5.3 130.0 5.0 129.9 5.0 C 129.7 4.8 129.6 5.1 129.6 4.8 C 129.7 4.4 129.6 4.5 129.9 4.4 C 130.0 4.4 130.1 4.1 130.1 4.1 C 130.1 4.1 130.2 4.1 130.2 4.1 C 130.2 3.7 129.5 3.2 129.7 3.1 C 129.8 3.1 130.2 3.3 130.4 3.3 C 130.4 3.2 130.4 3.2 130.4 3.2 C 130.3 3.0 130.1 2.7 130.1 2.6 C 130.2 2.6 130.8 2.8 130.6 2.7 C 130.4 2.5 130.7 1.8 130.8 1.8 C 131.0 1.7 131.8 1.5 131.9 1.4 C 131.9 1.3 132.3 1.6 132.4 1.6 C 132.6 1.6 132.7 2.0 132.7 2.0 C 132.7 2.1 133.0 2.2 133.0 2.2 C 133.0 2.2 133.2 2.2 133.4 2.4 C 133.7 2.5 133.8 2.7 134.0 3.0 C 134.3 3.3 134.5 3.1 134.8 3.3 C 135.1 3.4 135.1 4.0 135.3 4.2 C 135.5 4.4 135.7 4.0 136.0 4.2 C 136.3 4.3 136.4 4.5 136.3 4.5 C 136.2 4.5 136.2 4.7 136.3 4.7 C 136.4 4.8 136.7 5.1 136.8 5.1 C 137.0 5.1 136.3 4.3 137.4 5.0 C 137.9 5.4 138.1 6.0 137.9 5.9 C 137.5 5.7 138.1 6.7 138.2 6.6 C 138.3 6.4 139.2 7.0 139.2 6.5 C 139.1 6.4 140.2 6.9 140.3 7.0 C 140.4 7.1 140.9 7.3 140.8 7.7 C 140.8 7.9 141.6 7.8 141.7 7.9 C 141.8 8.0 142.5 8.5 142.7 8.6 C 142.8 8.8 142.4 8.6 142.2 8.5 C 142.1 8.4 141.9 8.1 141.8 8.0 C 141.6 8.0 141.8 8.3 142.0 8.5 C 142.2 8.6 142.1 8.8 142.2 8.9 C 142.3 8.9 142.5 9.0 142.6 9.1 C 142.7 9.2 142.7 9.2 142.8 9.1 C 142.8 9.0 142.8 8.9 142.8 8.9 C 142.9 8.8 143.1 8.8 143.3 9.0 C 143.5 9.1 143.7 9.2 143.9 9.5 C 144.2 9.8 144.3 9.8 144.6 9.9 C 144.8 10.0 145.0 10.1 144.9 10.2 C 144.9 10.2 144.6 10.1 144.5 10.2 C 144.5 10.2 144.7 10.6 144.8 10.6 C 145.3 11.1 144.6 11.3 145.1 11.7 C 145.4 11.9 144.9 11.9 144.6 12.0 C 144.7 12.0 144.7 12.1 144.5 12.3 C 144.5 12.4 144.1 12.5 143.9 12.6 C 143.8 12.7 143.2 13.3 143.5 12.8 C 143.5 12.8 143.6 12.7 143.6 12.7 C 143.6 12.7 143.6 12.7 143.6 12.7 C 143.6 12.7 143.6 12.3 143.6 12.3 C 143.6 12.3 143.5 12.7 143.5 12.7 C 143.4 12.6 143.3 12.6 143.2 12.5 C 143.1 12.6 143.1 12.6 143.1 12.7 C 143.1 12.7 143.1 12.7 143.1 12.7 C 143.1 12.7 143.1 12.7 143.1 12.7 C 143.2 12.8 143.1 12.8 143.0 12.9 C 142.8 13.2 142.1 13.3 141.8 13.4 C 142.1 12.4 141.0 13.1 140.7 13.4 C 140.4 13.7 140.8 14.4 141.0 14.3 C 140.7 14.5 140.6 14.4 140.4 14.2 C 140.4 14.3 139.9 14.0 139.9 14.0 C 139.1 14.1 139.6 14.6 139.5 14.8 C 139.4 15.0 139.2 15.1 139.0 15.3 C 138.8 15.4 139.1 15.5 139.1 15.6 C 139.0 16.0 138.2 15.7 138.0 15.8 C 138.2 15.7 138.3 15.5 138.4 15.3 C 138.3 15.6 137.9 15.3 137.8 15.3 C 137.6 15.4 137.3 15.6 137.1 15.7 C 136.8 15.9 136.5 16.2 136.2 16.5 C 136.3 16.5 137.1 16.6 137.1 16.5 C 137.0 16.6 136.6 16.7 136.9 16.9 C 137.4 17.2 136.4 17.6 136.2 17.6 C 135.7 17.9 135.5 18.6 134.7 18.4 C 134.7 18.4 135.3 17.8 135.3 17.8 C 134.9 17.5 134.5 17.4 134.1 17.8 C 134.0 17.8 133.5 18.5 133.6 18.6 C 133.5 18.5 134.8 19.1 134.0 19.1 C 133.9 19.1 134.0 18.8 133.8 18.8 C 133.5 18.9 133.3 19.1 133.0 19.2 C 133.0 19.2 132.6 19.3 132.6 19.4 C 132.5 19.5 132.6 19.7 132.5 19.9 C 132.5 20.0 132.2 20.0 132.1 19.9 C 132.1 19.9 132.1 19.9 132.1 19.8 C 132.1 19.9 132.0 19.8 132.0 19.7 C 131.9 19.8 131.8 19.9 131.7 19.8 C 131.6 19.8 131.8 19.7 131.9 19.7 C 131.9 19.6 131.9 19.6 131.9 19.5 C 131.7 19.6 131.5 19.8 131.5 19.8 C 131.3 20.2 131.4 20.4 130.7 20.3 C 130.1 20.2 129.8 18.9 130.0 18.1 C 129.9 17.9 129.9 17.7 130.1 17.5 Z M 142.9 9.6 C 142.8 9.5 142.8 9.5 142.8 9.5 C 142.8 9.6 142.7 9.7 142.7 9.7 C 142.8 9.9 142.7 9.6 142.9 9.7 C 143.0 9.9 143.1 9.8 142.9 9.6 Z M 142.7 11.4 C 142.9 11.4 142.9 11.3 142.8 11.3 C 142.7 11.3 142.7 11.3 142.7 11.4 Z M 143.1 12.1 C 143.3 11.9 142.7 11.9 142.4 12.2 C 142.8 12.2 143.0 12.2 143.1 12.1 Z M 142.7 12.8 C 142.7 12.7 142.7 12.7 142.7 12.6 C 142.7 12.5 142.5 12.8 142.5 12.7 C 142.5 12.6 142.6 12.3 142.4 12.4 C 142.4 12.4 142.3 12.4 142.3 12.4 C 142.3 12.4 142.3 12.5 142.3 12.5 C 142.2 12.7 142.6 12.8 142.7 12.8 Z M 141.5 9.5 C 141.6 9.5 141.6 9.4 141.5 9.4 C 141.4 9.4 141.4 9.5 141.5 9.5 Z M 140.6 8.0 C 140.6 8.2 140.8 8.2 140.7 8.0 C 140.7 7.9 140.5 7.9 140.6 8.0 Z M 138.6 10.1 C 138.7 10.1 138.6 10.1 138.6 10.1 C 138.4 10.0 138.5 10.2 138.6 10.1 Z M 138.5 11.6 C 138.4 11.7 138.6 11.9 138.6 11.8 C 138.6 11.7 138.6 11.5 138.5 11.6 Z M 138.7 8.2 C 138.6 8.2 138.6 8.3 138.7 8.3 C 138.8 8.3 138.8 8.2 138.7 8.2 Z M 139.0 10.2 C 138.9 10.1 138.9 10.1 138.8 10.2 C 138.7 10.2 138.8 10.3 138.9 10.4 C 139.1 10.5 139.1 10.4 139.0 10.2 Z M 139.1 11.5 C 138.8 11.7 138.8 11.9 139.2 11.5 C 139.6 11.2 139.3 11.4 139.1 11.5 Z M 139.8 7.0 C 139.8 7.1 140.1 7.1 140.1 7.1 C 140.1 7.1 139.6 6.8 139.8 7.0 Z M 139.0 14.9 C 139.1 14.8 139.2 14.6 138.9 14.7 C 138.7 14.8 138.9 15.0 139.0 14.9 Z M 138.3 14.3 C 138.6 14.5 138.8 14.4 138.8 14.4 C 138.8 14.4 138.7 14.1 138.8 14.1 C 139.0 13.8 139.4 13.9 139.6 13.6 C 139.7 13.3 139.1 13.5 139.1 13.6 C 139.1 13.6 139.1 13.5 139.1 13.4 C 139.0 13.3 138.9 13.4 138.9 13.5 C 138.8 13.6 137.9 14.0 138.3 14.3 Z M 138.3 10.7 C 138.4 10.8 138.6 10.7 138.5 10.5 C 138.4 10.4 138.2 10.3 138.2 10.3 C 138.1 10.3 138.1 10.6 138.3 10.7 Z M 138.1 9.6 C 138.3 9.5 138.3 9.5 138.1 9.4 C 137.9 9.4 138.0 9.6 138.1 9.6 Z M 136.1 4.9 C 136.0 4.9 136.2 5.0 136.2 5.0 C 136.2 4.9 136.2 4.8 136.1 4.9 Z M 136.2 6.7 C 135.8 6.7 136.1 6.9 136.1 6.9 C 136.2 6.9 136.3 6.8 136.2 6.7 Z M 137.3 7.8 C 137.1 7.8 137.2 8.0 137.3 7.9 C 137.4 7.9 137.3 7.9 137.3 7.8 Z M 137.4 8.5 C 137.3 8.5 137.3 8.7 137.5 8.7 C 137.5 8.7 137.5 8.6 137.4 8.5 Z M 136.8 14.6 C 136.8 14.6 136.7 14.3 136.6 14.5 C 136.5 14.8 136.5 14.8 136.8 14.6 Z M 137.3 12.4 C 137.5 12.3 137.7 12.1 137.5 11.5 C 137.3 10.9 137.1 11.2 137.1 11.5 C 137.0 11.9 136.7 10.9 136.5 11.6 C 136.5 11.9 137.1 12.6 137.3 12.4 Z M 136.3 8.6 C 136.5 9.0 137.0 8.9 136.7 8.7 C 136.4 8.4 136.1 8.3 136.3 8.6 Z M 136.2 8.3 C 136.3 8.4 136.3 8.3 136.2 8.2 C 136.1 8.2 136.1 8.3 136.2 8.3 Z M 136.5 17.2 C 137.1 16.7 136.2 16.7 136.2 16.7 C 135.4 16.9 136.0 17.7 136.5 17.2 Z M 130.5 4.4 C 130.5 4.4 130.5 4.5 130.5 4.5 C 130.5 4.5 130.5 4.5 130.5 4.5 C 130.6 4.6 130.7 4.4 130.7 4.4 C 130.7 4.3 130.6 4.4 130.5 4.4 Z M 130.3 8.3 C 130.4 8.1 130.3 8.0 130.2 7.9 C 129.9 7.9 129.9 9.1 130.5 8.7 C 130.6 8.6 131.1 7.9 130.8 7.8 C 130.6 7.7 130.3 8.6 130.3 8.3 Z M 130.8 7.1 C 130.8 7.5 131.3 6.7 131.0 6.8 C 130.9 6.8 130.8 6.9 130.8 7.1 Z M 131.9 3.6 C 131.6 3.0 130.7 3.1 131.2 4.1 C 131.7 5.1 132.1 5.1 131.9 4.6 C 131.8 4.1 132.3 4.5 131.9 3.6 Z M 131.9 8.6 C 131.2 8.5 131.4 8.8 131.9 9.0 C 132.0 9.0 132.3 8.7 131.9 8.6 Z M 132.0 10.0 C 131.9 10.2 131.9 10.2 132.0 10.1 C 132.2 10.0 132.0 9.9 132.0 10.0 Z M 132.8 2.6 C 132.7 2.4 132.4 2.2 132.6 2.2 C 132.8 2.2 132.7 2.2 132.6 2.1 C 132.4 1.9 132.4 2.2 132.4 2.3 C 132.5 2.5 132.9 2.9 132.8 2.6 Z M 135.0 8.0 C 134.9 8.0 135.0 8.1 135.1 8.1 C 135.2 8.1 135.1 8.1 135.0 8.0 Z M 135.7 13.3 C 135.7 13.3 135.7 13.1 135.6 13.3 C 135.5 13.4 135.5 13.4 135.7 13.3 Z M 135.5 17.5 C 135.6 17.5 135.3 17.4 135.4 17.2 C 135.4 17.1 135.5 17.2 135.5 17.3 C 135.5 17.2 135.4 16.7 135.2 17.0 C 135.1 17.2 135.2 17.8 135.5 17.5 Z M 134.9 9.5 C 135.1 9.7 135.2 8.8 135.4 8.9 C 135.6 9.1 135.6 9.0 135.4 8.8 C 135.2 8.6 134.7 9.2 134.9 9.5 Z M 134.7 7.2 C 134.7 7.4 135.2 7.7 135.1 7.5 C 135.0 7.3 134.7 7.1 134.9 7.1 C 135.0 7.1 134.9 7.1 134.8 6.9 C 134.7 6.7 134.7 7.1 134.7 7.2 Z M 134.6 3.5 C 134.6 3.5 134.9 3.7 134.8 3.5 C 134.7 3.4 134.5 3.4 134.6 3.5 Z M 134.3 13.9 C 134.4 13.8 134.3 13.7 134.2 13.9 C 134.0 14.0 134.2 14.1 134.3 13.9 Z M 133.9 3.8 C 134.1 4.0 134.0 3.6 134.1 3.8 C 134.3 3.9 134.3 3.9 134.1 3.7 C 133.9 3.5 133.7 3.6 133.9 3.8 Z M 133.7 17.3 C 133.8 17.3 133.7 17.1 133.6 17.2 C 133.5 17.3 133.7 17.4 133.7 17.3 Z M 133.2 15.9 C 133.3 15.9 133.3 15.9 133.4 15.9 C 134.3 15.2 132.6 15.7 133.2 15.9 Z M 133.3 13.8 C 133.4 14.1 133.5 13.7 133.5 13.7 C 133.4 13.6 133.4 13.7 133.3 13.8 Z M 133.3 11.4 C 133.2 11.3 133.2 11.6 133.3 11.5 C 133.5 11.5 133.4 11.4 133.3 11.4 Z M 132.9 19.1 C 133.0 19.0 133.0 19.0 132.9 19.0 C 132.8 19.0 132.8 19.1 132.9 19.1 Z M 132.8 13.1 C 132.8 13.2 132.9 13.2 132.8 13.1 C 132.8 13.0 132.7 13.1 132.8 13.1 Z M 132.7 5.9 C 132.8 6.0 132.9 6.0 132.9 6.1 C 133.1 6.0 133.1 5.6 133.3 5.6 C 133.3 5.6 133.3 5.6 133.3 5.6 C 133.3 5.6 133.3 5.6 133.3 5.6 C 133.4 5.6 133.5 5.6 133.4 5.7 C 133.4 5.7 133.5 5.8 133.5 5.9 C 133.6 5.8 133.7 5.6 133.6 5.5 C 133.5 5.3 133.2 5.3 132.9 5.3 C 132.8 5.4 132.8 5.5 132.8 5.6 C 132.8 5.6 132.8 5.6 132.8 5.6 C 133.0 5.7 133.0 5.8 132.9 5.8 C 132.8 5.8 132.8 5.8 132.7 5.8 C 132.7 5.8 132.7 5.9 132.7 5.9 Z M 132.5 12.2 C 132.5 12.4 132.6 12.3 132.7 12.1 C 132.7 11.9 132.4 12.1 132.5 12.2 Z M 132.7 18.8 C 132.6 18.7 132.6 18.7 132.6 18.6 C 132.5 18.7 132.5 18.7 132.5 18.7 C 132.5 18.9 132.5 19.0 132.4 19.1 C 132.6 19.1 132.7 19.0 132.7 18.8 Z M 132.0 16.7 C 132.0 16.8 132.0 17.7 132.1 17.5 C 132.4 17.3 132.8 17.6 132.6 17.0 C 132.6 16.7 132.1 16.5 132.1 16.1 C 131.7 14.6 131.6 16.6 131.6 17.0 C 131.5 17.0 131.9 16.6 132.0 16.7 Z M 131.5 14.7 C 131.4 14.6 131.2 14.9 131.2 15.0 C 131.3 15.4 131.7 14.8 131.5 14.7 Z M 131.3 19.0 C 131.3 19.0 131.3 19.0 131.4 19.0 C 131.3 19.0 131.3 18.9 131.3 18.9 C 131.3 18.9 131.3 19.0 131.3 19.0 Z M 131.1 20.1 C 131.6 19.7 130.7 19.7 130.5 19.8 C 130.3 19.9 130.9 20.3 131.1 20.1 Z M 130.8 15.9 C 130.8 15.6 129.9 15.2 130.0 15.7 C 130.0 16.2 130.7 16.5 130.8 15.9 Z M 129.7 12.7 C 129.8 12.8 129.6 13.1 129.5 12.9 C 129.4 12.8 129.6 12.6 129.7 12.7 Z M 129.2 17.4 C 129.2 17.3 129.3 17.4 129.3 17.4 C 129.1 17.5 129.1 17.5 129.2 17.4 Z M 129.8 17.0 C 129.8 17.1 129.7 17.3 129.7 17.4 C 129.6 17.5 129.6 17.2 129.6 17.2 C 129.6 17.1 129.8 17.0 129.8 17.0 Z M 129.9 14.4 C 129.8 14.6 129.8 14.4 129.8 14.3 C 129.8 14.2 130.0 14.3 129.9 14.4 Z M 129.7 15.0 C 129.7 14.9 129.8 15.0 129.8 15.1 C 129.8 15.3 129.7 15.1 129.7 15.0 Z M 130.2 14.0 C 130.3 14.3 130.3 14.6 130.1 14.6 C 130.0 14.6 130.0 13.5 130.2 14.0 Z M 130.2 14.0 " fill="#5E416F"></path></g></svg>