<?xml version="1.0" encoding="UTF-8" standalone="no"?><svg xmlns="http://www.w3.org/2000/svg" xmlns:xlink="http://www.w3.org/1999/xlink" clip-rule="evenodd" stroke-miterlimit="10" viewBox="0 0 150 22"><desc>SVG generated by Keynote</desc><defs></defs><g transform="matrix(1.00, 0.00, -0.00, -1.00, 0.0, 22.0)"><path d="M 5.8 10.1 C 5.5 10.2 5.4 9.7 4.8 9.6 C 4.2 9.4 3.4 9.4 3.6 9.7 C 3.7 10.0 3.9 10.2 3.6 10.6 C 3.3 11.0 2.9 11.7 3.3 12.0 C 3.8 12.2 5.4 13.0 6.0 12.6 C 6.5 12.2 6.6 12.1 7.0 11.8 C 7.4 11.6 7.2 12.4 7.2 12.4 C 7.2 12.4 8.1 12.5 8.7 12.5 C 9.4 12.6 10.2 12.6 10.2 12.5 C 10.3 12.4 10.6 12.1 10.6 12.1 C 10.6 12.1 10.9 12.4 11.4 12.5 C 11.9 12.6 11.7 12.4 11.6 12.2 C 11.6 12.0 11.0 11.5 11.2 11.5 C 11.4 11.5 12.0 12.3 12.4 12.4 C 12.7 12.4 13.5 12.4 13.5 12.4 C 13.5 12.4 13.4 11.9 13.5 11.8 C 13.6 11.7 14.3 11.7 14.4 11.8 C 14.4 12.0 14.3 12.5 14.7 12.5 C 15.9 12.6 15.8 11.7 15.9 11.7 C 16.0 11.6 16.0 12.3 16.3 12.4 C 16.6 12.5 18.9 12.4 19.0 12.3 C 19.2 12.1 20.0 12.7 20.3 12.3 C 20.7 11.9 20.8 11.8 20.8 11.6 C 20.9 11.5 21.4 10.9 21.6 11.1 C 21.8 11.4 20.9 12.2 21.2 12.4 C 21.4 12.6 22.9 12.6 23.2 12.4 C 23.5 12.1 23.6 11.5 23.8 11.5 C 24.0 11.5 24.9 12.3 24.9 12.2 C 25.0 12.0 25.1 11.3 25.1 11.2 C 25.1 11.1 25.4 9.8 25.2 9.6 C 25.1 9.5 24.2 9.0 24.3 9.4 C 24.4 9.7 24.6 10.2 24.3 10.3 C 24.0 10.5 23.8 10.5 23.7 10.4 C 23.7 10.2 23.8 10.1 23.3 9.9 C 22.8 9.6 23.1 9.3 22.6 9.4 C 22.1 9.4 21.6 9.5 21.7 9.7 C 21.7 10.0 21.2 10.4 20.8 10.4 C 20.5 10.4 21.1 9.8 20.0 9.5 C 18.9 9.3 18.2 9.2 17.9 9.4 C 17.5 9.7 17.5 10.4 16.9 10.1 C 16.4 9.8 16.7 9.6 16.0 9.6 C 15.3 9.6 15.0 10.2 14.6 10.2 C 14.1 10.2 14.0 10.2 14.0 10.2 C 14.0 10.2 14.2 9.4 13.2 9.3 C 12.2 9.3 12.0 9.2 12.2 9.8 C 12.4 10.4 11.6 10.5 11.6 10.1 C 11.5 9.7 10.9 9.4 10.6 9.4 C 10.2 9.3 10.1 10.3 10.0 10.4 C 9.8 10.4 9.4 10.3 9.6 10.0 C 9.8 9.7 9.4 9.6 9.0 9.5 C 8.7 9.4 7.8 9.5 7.8 9.6 C 7.8 9.8 8.3 10.5 7.6 10.1 C 7.0 9.8 6.8 9.3 6.2 9.3 C 5.6 9.4 6.2 10.0 5.8 10.1 C 5.8 10.1 5.8 10.1 5.8 10.1 Z M 25.6 9.3 C 24.5 9.4 25.2 12.0 25.7 12.5 C 26.1 13.1 26.8 12.7 27.5 12.8 C 28.3 12.9 28.0 12.1 28.4 11.8 C 28.9 11.6 28.7 12.1 28.9 12.5 C 29.1 12.9 30.2 12.6 30.9 12.6 C 31.5 12.7 32.2 11.8 32.8 11.7 C 33.3 11.7 32.3 11.3 33.3 11.3 C 34.2 11.4 33.8 11.8 32.6 12.1 C 31.5 12.4 33.1 12.6 33.7 12.7 C 34.3 12.8 35.3 12.4 35.8 12.5 C 36.3 12.5 35.7 11.8 36.4 11.9 C 37.1 11.9 36.7 12.6 37.4 12.7 C 38.1 12.8 38.1 12.1 38.4 12.0 C 38.8 11.8 38.7 12.2 39.0 12.3 C 39.3 12.3 39.8 12.5 40.5 12.4 C 41.1 12.2 40.9 12.0 41.2 12.0 C 41.5 12.0 42.1 12.0 42.1 12.0 C 42.1 12.2 42.2 12.4 42.2 12.6 C 42.2 12.6 43.4 12.7 43.8 12.7 C 44.1 12.8 45.0 12.5 44.7 12.3 C 44.5 12.2 45.3 11.8 45.5 11.8 C 45.7 12.0 46.3 12.3 46.7 12.4 C 47.2 12.6 47.0 10.9 47.0 10.6 C 47.0 10.4 47.3 9.5 46.9 9.4 C 46.6 9.3 46.3 9.6 46.3 9.4 C 46.4 9.1 45.3 9.4 45.0 9.4 C 44.7 9.4 44.3 10.0 44.3 10.0 C 44.3 10.0 44.0 10.5 43.5 10.5 C 43.0 10.5 42.9 9.5 42.9 9.5 C 42.9 9.5 42.3 9.3 41.7 9.3 C 41.1 9.4 40.4 10.2 40.3 10.4 C 40.2 10.6 40.2 9.8 39.8 9.7 C 39.3 9.6 38.7 9.4 38.5 9.4 C 38.3 9.5 38.0 10.0 38.0 10.0 C 38.0 10.0 37.3 10.3 37.1 10.3 C 36.9 10.3 37.2 9.5 37.2 9.5 C 37.2 9.5 35.6 9.3 35.2 9.2 C 34.9 9.2 34.3 9.4 34.1 9.4 C 33.9 9.5 33.5 10.5 33.1 10.4 C 32.8 10.3 33.5 9.8 33.1 9.6 C 32.8 9.6 32.1 9.4 31.9 9.4 C 31.8 9.4 31.5 9.7 31.2 9.8 C 30.9 9.8 30.5 10.5 30.0 10.5 C 29.5 10.5 29.3 10.1 29.1 10.0 C 28.9 9.9 28.8 9.3 28.4 9.2 C 28.0 9.2 28.3 9.6 28.0 9.6 C 27.6 9.6 27.6 10.1 27.2 10.0 C 26.9 9.9 27.1 9.1 26.7 9.3 C 26.5 9.3 26.7 9.3 25.6 9.3 C 25.6 9.3 25.6 9.3 25.6 9.3 Z M 47.8 9.4 C 47.3 9.1 46.8 9.5 46.9 9.9 C 47.0 10.3 47.2 11.2 47.0 11.5 C 46.8 11.8 46.2 12.5 47.1 12.6 C 48.0 12.8 48.2 12.5 48.2 12.3 C 48.2 12.0 48.4 11.0 48.6 11.1 C 48.9 11.2 49.1 11.5 49.2 11.6 C 49.2 11.8 49.6 12.7 50.0 12.6 C 50.5 12.5 50.9 12.2 50.9 12.2 C 51.1 12.2 51.3 12.1 51.6 12.1 C 51.6 12.1 52.2 12.7 52.7 12.6 C 53.1 12.5 53.7 12.5 54.1 12.5 C 54.4 12.6 54.8 12.5 54.9 12.2 C 54.9 12.0 55.4 11.2 55.4 11.2 C 55.4 11.2 56.0 10.9 56.2 11.1 C 56.4 11.2 56.5 11.7 56.4 11.9 C 56.4 12.0 56.4 12.5 56.8 12.6 C 57.2 12.7 58.8 13.2 59.0 12.9 C 59.3 12.6 59.2 12.2 59.4 12.1 C 59.6 12.0 60.6 12.0 60.7 12.2 C 60.8 12.5 60.7 13.0 61.0 12.9 C 61.3 12.9 62.0 13.0 62.0 12.9 C 62.0 12.7 62.2 12.6 62.2 12.3 C 62.2 12.0 62.8 11.8 62.9 11.7 C 63.1 11.5 63.5 11.5 63.5 11.5 C 63.7 11.6 63.9 11.8 64.2 11.9 C 64.2 11.9 63.8 12.5 63.6 12.5 C 63.4 12.6 63.7 13.0 63.9 13.0 C 64.1 13.1 65.3 13.0 65.3 13.0 C 65.3 12.6 65.3 12.2 65.3 11.8 C 65.6 11.7 65.9 11.7 66.2 11.6 C 66.2 11.6 66.1 12.9 66.6 12.9 C 67.2 12.9 67.8 12.9 67.8 12.9 C 67.8 12.9 68.4 12.4 68.5 12.4 C 68.7 12.3 68.8 11.1 68.8 11.1 C 68.7 10.7 68.7 10.2 68.6 9.7 C 68.6 9.7 68.0 9.3 67.6 9.4 C 67.2 9.6 67.5 10.1 67.5 10.4 C 67.4 10.6 66.9 10.8 66.9 10.8 C 66.6 10.6 66.4 10.3 66.1 10.0 C 66.1 10.0 65.9 9.8 65.6 9.6 C 65.4 9.4 64.5 9.2 64.3 9.3 C 64.0 9.4 63.8 9.7 63.5 10.0 C 63.2 10.2 63.2 10.6 62.9 10.3 C 62.5 10.0 62.3 9.6 62.1 9.6 C 62.0 9.6 61.2 10.0 61.2 10.0 C 60.9 10.2 60.7 10.3 60.5 10.4 C 60.5 10.4 59.9 10.6 59.8 10.3 C 59.7 10.0 58.5 10.4 58.5 10.4 C 58.5 10.4 58.7 9.5 58.3 9.4 C 58.0 9.3 57.6 9.1 57.1 9.2 C 56.6 9.4 56.2 10.1 56.2 10.1 C 56.0 9.9 55.9 9.7 55.7 9.5 C 55.3 9.5 54.8 9.4 54.4 9.4 C 54.4 9.4 53.3 9.4 53.3 9.5 C 53.3 9.7 53.4 10.4 53.4 10.6 C 53.3 10.7 52.8 11.0 52.7 10.7 C 52.7 10.5 52.2 9.9 52.2 9.9 C 52.2 9.9 51.7 9.4 51.4 9.4 C 51.1 9.4 50.6 9.6 50.5 9.7 C 50.4 9.9 49.9 10.4 49.9 10.4 C 49.8 10.2 49.6 9.9 49.5 9.7 C 49.5 9.7 48.7 10.0 47.8 9.4 C 47.8 9.4 47.8 9.4 47.8 9.4 Z M 69.1 9.3 C 68.0 9.4 68.7 12.0 69.1 12.5 C 69.6 13.1 70.3 12.7 71.0 12.8 C 71.7 12.9 71.5 12.1 71.9 11.8 C 72.3 11.6 72.2 12.1 72.4 12.5 C 72.6 12.9 73.7 12.6 74.3 12.6 C 75.0 12.7 75.7 11.8 76.2 11.7 C 76.8 11.7 75.8 11.3 76.7 11.3 C 77.7 11.4 77.2 11.8 76.1 12.1 C 75.0 12.4 76.6 12.6 77.2 12.7 C 77.8 12.8 78.8 12.4 79.3 12.5 C 79.8 12.5 79.2 11.8 79.9 11.9 C 80.6 11.9 80.2 12.6 80.9 12.7 C 81.6 12.8 81.5 12.1 81.9 12.0 C 82.3 11.8 82.2 12.2 82.5 12.3 C 82.8 12.3 83.3 12.5 83.9 12.4 C 84.6 12.2 84.4 12.0 84.7 12.0 C 85.0 12.0 85.6 12.0 85.6 12.0 C 85.6 12.2 85.6 12.4 85.7 12.6 C 85.7 12.6 86.9 12.7 87.3 12.7 C 87.6 12.8 88.4 12.5 88.2 12.3 C 88.0 12.2 88.8 11.8 89.0 11.8 C 89.2 12.0 89.8 12.3 90.2 12.4 C 90.6 12.6 90.5 10.9 90.5 10.6 C 90.5 10.4 90.8 9.5 90.4 9.4 C 90.0 9.3 89.7 9.6 89.8 9.4 C 89.8 9.1 88.8 9.4 88.5 9.4 C 88.2 9.4 87.8 10.0 87.8 10.0 C 87.8 10.0 87.5 10.5 87.0 10.5 C 86.5 10.5 86.3 9.5 86.3 9.5 C 86.3 9.5 85.7 9.3 85.1 9.3 C 84.5 9.4 83.9 10.2 83.8 10.4 C 83.6 10.6 83.7 9.8 83.2 9.7 C 82.8 9.6 82.2 9.4 82.0 9.4 C 81.8 9.5 81.5 10.0 81.5 10.0 C 81.5 10.0 80.7 10.3 80.5 10.3 C 80.4 10.3 80.7 9.5 80.7 9.5 C 80.7 9.5 79.0 9.3 78.7 9.2 C 78.4 9.2 77.8 9.4 77.6 9.4 C 77.3 9.5 77.0 10.5 76.6 10.4 C 76.3 10.3 77.0 9.8 76.6 9.6 C 76.3 9.6 75.6 9.4 75.4 9.4 C 75.2 9.4 75.0 9.7 74.7 9.8 C 74.4 9.8 74.0 10.5 73.5 10.5 C 73.0 10.5 72.8 10.1 72.6 10.0 C 72.4 9.9 72.3 9.3 71.9 9.2 C 71.5 9.2 71.8 9.6 71.4 9.6 C 71.1 9.6 71.1 10.1 70.7 10.0 C 70.3 9.9 70.6 9.1 70.2 9.3 C 70.0 9.3 70.2 9.3 69.1 9.3 C 69.1 9.3 69.1 9.3 69.1 9.3 Z M 91.3 9.4 C 90.8 9.1 90.3 9.5 90.4 9.9 C 90.4 10.3 90.6 11.2 90.4 11.5 C 90.3 11.8 89.6 12.5 90.6 12.6 C 91.5 12.8 91.7 12.5 91.7 12.3 C 91.7 12.0 91.8 11.0 92.1 11.1 C 92.3 11.2 92.6 11.5 92.6 11.6 C 92.7 11.8 93.1 12.7 93.5 12.6 C 93.9 12.5 94.4 12.2 94.4 12.2 C 94.6 12.2 94.8 12.1 95.0 12.1 C 95.0 12.1 95.6 12.7 96.1 12.6 C 96.6 12.5 97.2 12.5 97.5 12.5 C 97.9 12.6 98.3 12.5 98.3 12.2 C 98.4 12.0 98.9 11.2 98.9 11.2 C 98.9 11.2 99.4 10.9 99.7 11.1 C 99.9 11.2 100.0 11.7 99.9 11.9 C 99.9 12.0 99.9 12.5 100.3 12.6 C 100.7 12.7 102.3 13.2 102.5 12.9 C 102.7 12.6 102.7 12.2 102.9 12.1 C 103.0 12.0 104.1 12.0 104.2 12.2 C 104.3 12.5 104.2 13.0 104.5 12.9 C 104.8 12.9 105.4 13.0 105.4 12.9 C 105.4 12.7 105.6 12.6 105.7 12.3 C 105.7 12.0 106.3 11.8 106.4 11.7 C 106.5 11.5 107.0 11.5 107.0 11.5 C 107.2 11.6 107.4 11.8 107.6 11.9 C 107.6 11.9 107.3 12.5 107.1 12.5 C 106.9 12.6 107.2 13.0 107.4 13.0 C 107.6 13.1 108.7 13.0 108.7 13.0 C 108.8 12.6 108.8 12.2 108.8 11.8 C 109.1 11.7 109.4 11.7 109.7 11.6 C 109.7 11.6 109.5 12.9 110.1 12.9 C 110.6 12.9 111.3 12.9 111.3 12.9 C 111.3 12.9 111.9 12.4 112.0 12.4 C 112.2 12.3 112.2 11.1 112.2 11.1 C 112.2 10.7 112.1 10.2 112.1 9.7 C 112.1 9.7 111.4 9.3 111.1 9.4 C 110.7 9.6 111.0 10.1 110.9 10.4 C 110.9 10.6 110.3 10.8 110.3 10.8 C 110.1 10.6 109.8 10.3 109.6 10.0 C 109.6 10.0 109.3 9.8 109.1 9.6 C 108.9 9.4 108.0 9.2 107.8 9.3 C 107.5 9.4 107.3 9.7 107.0 10.0 C 106.7 10.2 106.7 10.6 106.4 10.3 C 106.0 10.0 105.8 9.6 105.6 9.6 C 105.4 9.6 104.6 10.0 104.6 10.0 C 104.4 10.2 104.2 10.3 104.0 10.4 C 104.0 10.4 103.4 10.6 103.3 10.3 C 103.2 10.0 102.0 10.4 102.0 10.4 C 102.0 10.4 102.1 9.5 101.8 9.4 C 101.5 9.3 101.0 9.1 100.5 9.2 C 100.1 9.4 99.7 10.1 99.7 10.1 C 99.5 9.9 99.4 9.7 99.2 9.5 C 98.8 9.5 98.3 9.4 97.8 9.4 C 97.8 9.4 96.8 9.4 96.8 9.5 C 96.8 9.7 96.9 10.4 96.9 10.6 C 96.8 10.7 96.3 11.0 96.2 10.7 C 96.1 10.5 95.6 9.9 95.6 9.9 C 95.6 9.9 95.2 9.4 94.9 9.4 C 94.6 9.4 94.1 9.6 94.0 9.7 C 93.9 9.9 93.4 10.4 93.4 10.4 C 93.2 10.2 93.1 9.9 93.0 9.7 C 93.0 9.7 92.2 10.0 91.3 9.4 C 91.3 9.4 91.3 9.4 91.3 9.4 Z M 112.6 9.3 C 111.5 9.4 112.2 12.0 112.6 12.5 C 113.0 13.1 113.8 12.7 114.5 12.8 C 115.2 12.9 115.0 12.1 115.4 11.8 C 115.8 11.6 115.7 12.1 115.8 12.5 C 116.0 12.9 117.1 12.6 117.8 12.6 C 118.5 12.7 119.2 11.8 119.7 11.7 C 120.3 11.7 119.3 11.3 120.2 11.3 C 121.2 11.4 120.7 11.8 119.6 12.1 C 118.5 12.4 120.0 12.6 120.6 12.7 C 121.3 12.8 122.3 12.4 122.8 12.5 C 123.2 12.5 122.6 11.8 123.3 11.9 C 124.0 11.9 123.7 12.6 124.4 12.7 C 125.1 12.8 125.0 12.1 125.4 12.0 C 125.7 11.8 125.7 12.2 126.0 12.3 C 126.3 12.3 126.7 12.5 127.4 12.4 C 128.1 12.2 127.9 12.0 128.2 12.0 C 128.5 12.0 129.0 12.0 129.0 12.0 C 129.1 12.2 129.1 12.4 129.2 12.6 C 129.2 12.6 130.4 12.7 130.7 12.7 C 131.1 12.8 131.9 12.5 131.7 12.3 C 131.5 12.2 132.3 11.8 132.5 11.8 C 132.7 12.0 133.3 12.3 133.7 12.4 C 134.1 12.6 134.0 10.9 134.0 10.6 C 134.0 10.4 134.2 9.5 133.9 9.4 C 133.5 9.3 133.2 9.6 133.3 9.4 C 133.3 9.1 132.2 9.4 131.9 9.4 C 131.6 9.4 131.3 10.0 131.3 10.0 C 131.3 10.0 131.0 10.5 130.5 10.5 C 130.0 10.5 129.8 9.5 129.8 9.5 C 129.8 9.5 129.2 9.3 128.6 9.3 C 128.0 9.4 127.3 10.2 127.2 10.4 C 127.1 10.6 127.1 9.8 126.7 9.7 C 126.3 9.6 125.7 9.4 125.5 9.4 C 125.3 9.5 125.0 10.0 125.0 10.0 C 125.0 10.0 124.2 10.3 124.0 10.3 C 123.8 10.3 124.2 9.5 124.2 9.5 C 124.2 9.5 122.5 9.3 122.2 9.2 C 121.8 9.2 121.3 9.4 121.1 9.4 C 120.8 9.5 120.5 10.5 120.1 10.4 C 119.7 10.3 120.5 9.8 120.1 9.6 C 119.7 9.6 119.1 9.4 118.9 9.4 C 118.7 9.4 118.5 9.7 118.2 9.8 C 117.9 9.8 117.4 10.5 117.0 10.5 C 116.5 10.5 116.2 10.1 116.1 10.0 C 115.9 9.9 115.8 9.3 115.4 9.2 C 115.0 9.2 115.3 9.6 114.9 9.6 C 114.5 9.6 114.5 10.1 114.2 10.0 C 113.8 9.9 114.0 9.1 113.6 9.3 C 113.5 9.3 113.6 9.3 112.6 9.3 C 112.6 9.3 112.6 9.3 112.6 9.3 Z M 112.6 9.3 " fill="#5E416F"></path><path d="M 132.9 20.3 C 132.8 20.7 131.7 21.1 132.5 20.4 C 132.5 20.3 132.9 20.2 132.9 20.3 Z M 134.6 19.3 C 134.5 19.4 134.3 19.5 134.2 19.4 C 133.8 19.2 135.0 19.1 134.6 19.3 Z M 131.9 20.5 C 131.9 20.5 131.4 20.8 131.4 20.7 C 131.4 20.5 131.9 20.4 131.9 20.5 Z M 135.7 17.8 C 135.8 17.9 135.2 18.3 135.1 18.3 C 134.7 18.2 135.6 17.5 135.7 17.8 Z M 131.1 14.9 C 131.1 14.9 131.1 14.8 131.1 14.8 C 131.1 14.9 131.1 14.9 131.1 14.9 Z M 143.7 13.5 C 143.6 13.6 143.3 13.6 143.3 13.4 C 143.3 13.2 144.0 13.2 143.7 13.5 Z M 130.8 3.9 C 130.8 3.9 130.7 4.1 130.6 4.0 C 130.5 3.9 130.7 3.8 130.8 3.9 Z M 130.6 3.9 C 130.4 4.0 130.4 3.7 130.5 3.7 C 130.6 3.8 130.7 3.8 130.6 3.9 Z M 139.5 6.2 C 139.6 6.3 139.7 6.3 139.6 6.3 C 139.5 6.3 139.4 6.2 139.5 6.2 Z M 139.2 6.3 C 139.0 6.4 139.0 6.1 139.1 6.1 C 139.3 6.2 139.3 6.2 139.2 6.3 Z M 138.0 4.5 C 138.0 4.6 138.1 4.6 138.0 4.6 C 137.9 4.6 137.8 4.5 138.0 4.5 Z M 130.3 8.4 C 130.2 8.4 130.3 8.0 130.5 8.0 C 130.7 8.1 130.4 8.6 130.3 8.4 Z M 130.2 8.0 C 130.1 8.0 130.1 7.8 130.2 7.8 C 130.3 7.9 130.3 8.0 130.2 8.0 Z M 130.5 9.4 C 130.7 9.4 130.7 9.8 130.6 9.9 C 130.6 10.0 130.5 10.1 130.5 10.3 C 130.5 10.3 130.2 9.4 130.5 9.4 Z M 130.7 12.4 C 130.6 12.4 130.6 12.3 130.6 12.2 C 130.7 12.1 130.7 12.4 130.7 12.4 Z M 130.6 10.7 C 130.5 10.7 130.5 10.6 130.5 10.5 C 130.6 10.4 130.6 10.7 130.6 10.7 Z M 139.0 16.3 C 139.2 16.3 138.7 16.5 138.6 16.5 C 138.6 16.5 138.8 16.4 138.6 16.4 C 138.5 16.4 138.6 16.0 139.0 16.3 Z M 135.5 18.7 C 135.4 18.8 135.3 18.7 135.3 18.6 C 135.3 18.6 135.7 18.5 135.5 18.7 Z M 138.2 16.1 C 138.2 16.1 138.1 16.2 138.1 16.1 C 138.1 16.1 138.2 16.0 138.2 16.1 Z M 138.4 15.8 C 138.4 15.9 138.1 15.9 138.1 15.8 C 138.0 15.6 138.7 15.6 138.4 15.8 Z M 139.7 16.1 C 139.5 16.2 139.5 16.2 139.6 16.1 C 139.6 16.0 139.7 16.1 139.7 16.1 Z M 137.6 17.6 C 137.5 17.7 137.5 17.7 137.5 17.6 C 137.6 17.5 137.6 17.6 137.6 17.6 Z M 140.5 15.2 C 140.5 15.2 140.3 15.6 140.1 15.4 C 139.8 15.1 140.5 15.2 140.5 15.2 Z M 141.8 14.0 C 141.7 14.1 141.7 13.9 141.8 13.9 C 141.9 13.9 141.9 14.0 141.8 14.0 Z M 142.1 13.2 C 142.3 13.2 142.5 13.2 142.2 13.3 C 141.9 13.5 141.9 13.2 142.1 13.2 Z M 141.9 13.5 C 141.8 13.4 141.9 13.4 142.0 13.4 C 142.0 13.5 141.9 13.5 141.9 13.5 Z M 140.8 14.6 C 140.7 14.8 140.5 14.7 140.7 14.5 C 140.8 14.4 140.9 14.4 140.8 14.6 Z M 130.3 16.5 C 130.4 16.6 130.2 16.6 130.1 16.5 C 130.1 16.4 130.3 16.4 130.3 16.5 Z M 131.0 10.1 C 130.9 10.2 130.9 10.1 130.9 9.9 C 131.0 9.8 131.1 10.0 131.0 10.1 Z M 131.3 6.1 C 131.2 6.1 131.2 6.1 131.3 5.9 C 131.3 5.7 131.4 6.0 131.3 6.1 Z M 131.0 11.7 C 130.9 11.8 130.6 11.3 130.9 11.1 C 131.2 10.9 131.2 11.6 131.0 11.7 Z M 134.2 15.7 C 134.3 15.8 134.2 15.7 134.2 15.7 C 134.2 15.6 134.2 15.6 134.2 15.7 Z M 131.5 10.8 C 131.5 10.9 131.4 10.9 131.3 10.8 C 131.2 10.7 131.4 10.7 131.5 10.8 Z M 131.1 6.8 C 131.0 6.9 130.8 6.8 130.7 6.7 C 130.4 6.4 130.7 6.2 130.9 5.9 C 131.0 5.8 131.1 6.7 131.1 6.8 Z M 130.9 17.5 C 131.0 17.4 131.0 17.3 131.0 17.2 C 130.9 17.2 131.0 17.1 131.0 17.0 C 131.0 16.6 130.6 16.4 130.5 16.1 C 130.3 15.5 131.1 15.3 131.1 14.9 C 131.1 15.0 131.1 15.1 131.2 15.2 C 131.4 15.3 131.3 13.9 131.3 13.8 C 131.1 12.6 130.9 14.1 130.5 14.1 C 130.3 14.1 130.8 13.3 130.8 13.2 C 131.0 12.8 130.6 12.8 130.7 12.4 C 130.8 12.3 131.7 11.8 131.6 11.7 C 131.5 11.6 131.6 11.2 131.6 11.1 C 131.6 10.8 131.6 10.4 131.2 10.7 C 131.0 10.8 130.8 10.9 131.0 10.6 C 131.1 10.4 131.7 8.9 131.0 9.0 C 131.0 9.0 130.8 9.3 130.8 9.3 C 130.6 8.9 130.9 7.7 130.6 7.5 C 130.0 6.8 130.9 7.7 131.1 7.3 C 131.4 6.8 131.6 6.5 131.5 5.8 C 131.5 5.6 131.5 5.0 131.1 5.3 C 130.9 5.5 130.7 5.3 130.6 5.8 C 130.3 5.3 130.9 5.0 130.8 4.9 C 130.6 4.8 130.5 5.0 130.5 4.7 C 130.6 4.3 130.5 4.5 130.8 4.4 C 130.9 4.4 131.0 4.0 131.0 4.0 C 131.0 4.0 131.1 4.0 131.1 4.0 C 131.1 3.7 130.4 3.2 130.6 3.1 C 130.7 3.0 131.1 3.2 131.2 3.2 C 131.3 3.2 131.3 3.2 131.3 3.1 C 131.2 3.0 131.0 2.7 131.0 2.6 C 131.1 2.6 131.7 2.8 131.5 2.7 C 131.3 2.5 131.6 1.8 131.7 1.7 C 131.9 1.7 132.7 1.5 132.8 1.4 C 132.8 1.2 133.2 1.5 133.3 1.6 C 133.5 1.6 133.6 1.9 133.6 2.0 C 133.6 2.1 133.9 2.2 133.9 2.2 C 133.9 2.2 134.1 2.2 134.3 2.3 C 134.6 2.4 134.7 2.7 134.9 3.0 C 135.1 3.2 135.4 3.1 135.7 3.2 C 136.0 3.4 135.9 3.9 136.2 4.2 C 136.4 4.4 136.6 4.0 136.9 4.2 C 137.2 4.3 137.3 4.5 137.2 4.5 C 137.1 4.5 137.1 4.6 137.2 4.7 C 137.3 4.7 137.5 5.1 137.7 5.1 C 137.9 5.1 137.2 4.2 138.3 5.0 C 138.8 5.3 139.0 5.9 138.8 5.8 C 138.4 5.6 138.9 6.7 139.1 6.5 C 139.2 6.3 140.1 6.9 140.1 6.5 C 140.0 6.4 141.1 6.8 141.2 7.0 C 141.3 7.1 141.8 7.3 141.7 7.7 C 141.7 7.9 142.5 7.8 142.6 7.9 C 142.7 7.9 143.4 8.4 143.5 8.6 C 143.7 8.8 143.3 8.6 143.1 8.5 C 142.9 8.3 142.8 8.1 142.6 8.0 C 142.5 8.0 142.7 8.3 142.9 8.4 C 143.1 8.5 143.0 8.7 143.1 8.9 C 143.2 8.9 143.3 9.0 143.5 9.1 C 143.6 9.1 143.6 9.1 143.7 9.1 C 143.7 9.0 143.7 8.8 143.7 8.8 C 143.8 8.8 143.9 8.8 144.2 8.9 C 144.4 9.1 144.6 9.2 144.8 9.5 C 145.1 9.8 145.2 9.7 145.4 9.8 C 145.7 9.9 145.8 10.1 145.8 10.1 C 145.8 10.2 145.5 10.1 145.4 10.1 C 145.4 10.2 145.6 10.5 145.7 10.6 C 146.2 11.0 145.5 11.2 146.0 11.6 C 146.3 11.9 145.8 11.8 145.5 11.9 C 145.6 12.0 145.6 12.0 145.3 12.2 C 145.4 12.3 145.0 12.5 144.8 12.6 C 144.7 12.7 144.1 13.2 144.4 12.8 C 144.4 12.7 144.4 12.7 144.5 12.7 C 144.5 12.7 144.5 12.7 144.4 12.7 C 144.4 12.7 144.5 12.3 144.5 12.3 C 144.5 12.3 144.4 12.7 144.4 12.7 C 144.3 12.6 144.2 12.5 144.1 12.5 C 144.0 12.5 144.0 12.6 144.0 12.6 C 144.0 12.7 144.0 12.7 144.0 12.7 C 144.0 12.7 144.0 12.7 144.0 12.7 C 144.1 12.8 144.0 12.8 143.9 12.8 C 143.7 13.1 143.0 13.3 142.7 13.3 C 143.0 12.3 141.9 13.0 141.6 13.3 C 141.2 13.6 141.7 14.4 141.9 14.3 C 141.6 14.5 141.5 14.4 141.3 14.2 C 141.3 14.2 140.7 13.9 140.8 13.9 C 140.0 14.1 140.5 14.6 140.4 14.8 C 140.3 15.0 140.1 15.1 139.9 15.3 C 139.7 15.4 140.0 15.4 140.0 15.6 C 139.9 16.0 139.1 15.7 138.9 15.8 C 139.0 15.6 139.2 15.5 139.3 15.3 C 139.2 15.6 138.8 15.3 138.7 15.3 C 138.5 15.3 138.2 15.5 138.0 15.7 C 137.7 15.9 137.4 16.2 137.1 16.5 C 137.2 16.5 138.0 16.5 138.0 16.5 C 137.9 16.6 137.5 16.7 137.8 16.9 C 138.3 17.2 137.2 17.5 137.1 17.6 C 136.6 17.8 136.4 18.6 135.6 18.3 C 135.6 18.3 136.2 17.8 136.2 17.7 C 135.8 17.4 135.4 17.3 135.0 17.7 C 134.9 17.8 134.4 18.5 134.5 18.5 C 134.4 18.5 135.7 19.0 134.9 19.1 C 134.8 19.1 134.9 18.8 134.7 18.8 C 134.4 18.8 134.2 19.1 133.9 19.2 C 133.9 19.2 133.5 19.3 133.4 19.3 C 133.4 19.5 133.5 19.7 133.4 19.9 C 133.3 20.0 133.1 20.0 133.0 19.9 C 133.0 19.8 133.0 19.8 133.0 19.8 C 132.9 19.8 132.9 19.8 132.8 19.7 C 132.8 19.8 132.7 19.8 132.6 19.8 C 132.5 19.8 132.7 19.6 132.8 19.6 C 132.8 19.6 132.8 19.5 132.8 19.5 C 132.6 19.6 132.4 19.8 132.4 19.8 C 132.2 20.2 132.3 20.3 131.6 20.2 C 131.0 20.1 130.7 18.8 130.9 18.0 C 130.8 17.9 130.8 17.7 130.9 17.5 Z M 143.7 9.5 C 143.7 9.5 143.7 9.5 143.7 9.5 C 143.7 9.6 143.6 9.6 143.6 9.7 C 143.7 9.8 143.6 9.5 143.8 9.7 C 143.9 9.8 143.9 9.7 143.7 9.5 Z M 143.6 11.3 C 143.8 11.4 143.7 11.3 143.7 11.2 C 143.6 11.3 143.6 11.3 143.6 11.3 Z M 144.0 12.1 C 144.2 11.9 143.6 11.8 143.3 12.1 C 143.7 12.2 143.9 12.2 144.0 12.1 Z M 143.6 12.8 C 143.6 12.7 143.6 12.6 143.6 12.6 C 143.6 12.5 143.4 12.7 143.4 12.6 C 143.3 12.5 143.5 12.3 143.3 12.3 C 143.3 12.4 143.2 12.4 143.2 12.4 C 143.2 12.4 143.2 12.4 143.1 12.5 C 143.1 12.6 143.4 12.8 143.6 12.8 Z M 142.4 9.4 C 142.5 9.4 142.5 9.4 142.4 9.3 C 142.3 9.3 142.3 9.4 142.4 9.4 Z M 141.5 8.0 C 141.5 8.1 141.7 8.2 141.6 8.0 C 141.6 7.9 141.4 7.9 141.5 8.0 Z M 139.5 10.1 C 139.6 10.1 139.5 10.1 139.4 10.0 C 139.3 10.0 139.4 10.1 139.5 10.1 Z M 139.4 11.6 C 139.3 11.7 139.5 11.8 139.5 11.7 C 139.5 11.6 139.5 11.5 139.4 11.6 Z M 139.6 8.2 C 139.5 8.2 139.5 8.3 139.6 8.3 C 139.7 8.3 139.7 8.2 139.6 8.2 Z M 139.9 10.2 C 139.8 10.1 139.7 10.1 139.7 10.1 C 139.6 10.2 139.7 10.3 139.8 10.4 C 140.0 10.4 140.0 10.4 139.9 10.2 Z M 140.0 11.5 C 139.6 11.7 139.7 11.8 140.1 11.5 C 140.5 11.2 140.2 11.3 140.0 11.5 Z M 140.7 7.0 C 140.7 7.0 141.0 7.1 141.0 7.1 C 141.0 7.1 140.5 6.7 140.7 7.0 Z M 139.9 14.8 C 140.0 14.8 140.0 14.6 139.8 14.7 C 139.6 14.8 139.7 14.9 139.9 14.8 Z M 139.1 14.2 C 139.4 14.5 139.7 14.4 139.7 14.4 C 139.7 14.4 139.6 14.1 139.7 14.0 C 139.9 13.8 140.3 13.9 140.5 13.6 C 140.6 13.2 140.0 13.5 139.9 13.6 C 140.0 13.5 140.0 13.5 140.0 13.4 C 139.9 13.3 139.8 13.3 139.8 13.4 C 139.7 13.6 138.8 14.0 139.1 14.2 Z M 139.2 10.7 C 139.3 10.7 139.5 10.6 139.4 10.5 C 139.2 10.3 139.1 10.2 139.1 10.3 C 139.0 10.3 139.0 10.6 139.2 10.7 Z M 139.0 9.5 C 139.2 9.5 139.1 9.5 139.0 9.4 C 138.8 9.3 138.9 9.6 139.0 9.5 Z M 137.0 4.8 C 136.8 4.8 137.1 5.0 137.1 4.9 C 137.1 4.8 137.1 4.8 137.0 4.8 Z M 137.0 6.7 C 136.7 6.6 137.0 6.9 137.0 6.9 C 137.1 6.9 137.2 6.7 137.0 6.7 Z M 138.1 7.8 C 138.0 7.7 138.1 7.9 138.2 7.9 C 138.3 7.9 138.2 7.8 138.1 7.8 Z M 138.3 8.5 C 138.1 8.5 138.2 8.7 138.3 8.7 C 138.4 8.7 138.4 8.6 138.3 8.5 Z M 137.7 14.6 C 137.7 14.6 137.6 14.3 137.5 14.5 C 137.4 14.7 137.4 14.7 137.7 14.6 Z M 138.2 12.4 C 138.4 12.3 138.5 12.1 138.4 11.5 C 138.2 10.9 138.0 11.1 137.9 11.5 C 137.9 11.9 137.6 10.9 137.4 11.6 C 137.4 11.9 138.0 12.5 138.2 12.4 Z M 137.2 8.6 C 137.4 8.9 137.9 8.8 137.6 8.6 C 137.3 8.3 137.0 8.3 137.2 8.6 Z M 137.1 8.3 C 137.2 8.3 137.2 8.3 137.1 8.2 C 137.0 8.2 137.0 8.3 137.1 8.3 Z M 137.4 17.2 C 138.0 16.7 137.1 16.7 137.1 16.7 C 136.3 16.9 136.9 17.7 137.4 17.2 Z M 131.4 4.4 C 131.4 4.4 131.4 4.4 131.4 4.4 C 131.4 4.5 131.4 4.5 131.4 4.5 C 131.5 4.6 131.6 4.3 131.6 4.3 C 131.5 4.3 131.4 4.3 131.4 4.4 Z M 131.2 8.2 C 131.2 8.1 131.2 7.9 131.1 7.8 C 130.8 7.9 130.8 9.1 131.4 8.6 C 131.5 8.6 132.0 7.8 131.7 7.7 C 131.5 7.7 131.2 8.6 131.2 8.2 Z M 131.7 7.0 C 131.7 7.5 132.2 6.6 131.9 6.7 C 131.8 6.8 131.7 6.9 131.7 7.0 Z M 132.8 3.6 C 132.5 3.0 131.6 3.1 132.1 4.1 C 132.6 5.0 133.0 5.1 132.8 4.6 C 132.7 4.1 133.1 4.5 132.8 3.6 Z M 132.8 8.6 C 132.1 8.5 132.3 8.8 132.8 9.0 C 132.9 9.0 133.2 8.7 132.8 8.6 Z M 132.9 10.0 C 132.8 10.2 132.8 10.2 132.9 10.1 C 133.1 9.9 132.9 9.8 132.9 10.0 Z M 133.7 2.6 C 133.6 2.4 133.3 2.2 133.5 2.2 C 133.6 2.2 133.6 2.2 133.4 2.0 C 133.3 1.8 133.3 2.2 133.3 2.3 C 133.3 2.5 133.8 2.8 133.7 2.6 Z M 135.9 8.0 C 135.8 7.9 135.9 8.1 136.0 8.1 C 136.1 8.1 136.0 8.0 135.9 8.0 Z M 136.6 13.3 C 136.6 13.3 136.6 13.1 136.5 13.2 C 136.4 13.4 136.4 13.4 136.6 13.3 Z M 136.4 17.5 C 136.5 17.4 136.2 17.4 136.2 17.1 C 136.3 17.1 136.4 17.2 136.4 17.2 C 136.4 17.2 136.3 16.7 136.1 17.0 C 136.0 17.2 136.1 17.8 136.4 17.5 Z M 135.8 9.4 C 136.0 9.7 136.1 8.8 136.3 8.9 C 136.5 9.1 136.5 9.0 136.3 8.8 C 136.1 8.6 135.5 9.2 135.8 9.4 Z M 135.6 7.2 C 135.6 7.3 136.1 7.7 136.0 7.5 C 135.9 7.2 135.6 7.1 135.8 7.1 C 135.9 7.1 135.8 7.0 135.7 6.9 C 135.6 6.7 135.6 7.0 135.6 7.2 Z M 135.4 3.4 C 135.5 3.5 135.8 3.6 135.6 3.4 C 135.6 3.3 135.4 3.3 135.4 3.4 Z M 135.2 13.9 C 135.3 13.7 135.2 13.7 135.1 13.8 C 134.9 14.0 135.1 14.0 135.2 13.9 Z M 134.8 3.8 C 135.0 4.0 134.9 3.6 135.0 3.8 C 135.2 3.9 135.2 3.8 135.0 3.6 C 134.8 3.4 134.6 3.5 134.8 3.8 Z M 134.6 17.3 C 134.6 17.2 134.6 17.1 134.5 17.2 C 134.4 17.3 134.6 17.4 134.6 17.3 Z M 134.1 15.9 C 134.1 15.9 134.2 15.9 134.3 15.8 C 135.2 15.2 133.5 15.7 134.1 15.9 Z M 134.2 13.7 C 134.3 14.0 134.4 13.7 134.4 13.7 C 134.3 13.6 134.3 13.6 134.2 13.7 Z M 134.2 11.4 C 134.1 11.3 134.1 11.5 134.2 11.5 C 134.3 11.5 134.3 11.4 134.2 11.4 Z M 133.8 19.0 C 133.9 19.0 133.9 18.9 133.8 18.9 C 133.7 19.0 133.6 19.1 133.8 19.0 Z M 133.7 13.1 C 133.7 13.1 133.8 13.1 133.7 13.0 C 133.7 12.9 133.6 13.1 133.7 13.1 Z M 133.6 5.9 C 133.7 5.9 133.8 6.0 133.8 6.1 C 134.0 6.0 134.0 5.5 134.2 5.5 C 134.2 5.5 134.2 5.5 134.2 5.5 C 134.2 5.5 134.2 5.5 134.2 5.5 C 134.3 5.5 134.4 5.6 134.3 5.6 C 134.3 5.7 134.3 5.8 134.4 5.9 C 134.5 5.7 134.6 5.6 134.5 5.4 C 134.4 5.3 134.0 5.3 133.8 5.3 C 133.7 5.4 133.7 5.5 133.7 5.6 C 133.7 5.6 133.7 5.6 133.7 5.6 C 133.9 5.7 133.9 5.8 133.8 5.8 C 133.7 5.8 133.7 5.8 133.6 5.7 C 133.6 5.8 133.6 5.8 133.6 5.9 Z M 133.4 12.2 C 133.4 12.4 133.5 12.3 133.6 12.0 C 133.6 11.8 133.3 12.0 133.4 12.2 Z M 133.5 18.8 C 133.5 18.7 133.5 18.6 133.4 18.6 C 133.4 18.6 133.4 18.7 133.4 18.7 C 133.4 18.8 133.4 19.0 133.3 19.1 C 133.5 19.1 133.6 19.0 133.5 18.8 Z M 132.9 16.7 C 132.9 16.8 132.8 17.6 133.0 17.5 C 133.3 17.2 133.7 17.6 133.5 17.0 C 133.5 16.7 133.0 16.4 133.0 16.1 C 132.6 14.6 132.5 16.5 132.4 16.9 C 132.4 17.0 132.8 16.6 132.9 16.7 Z M 132.4 14.7 C 132.3 14.6 132.1 14.8 132.1 14.9 C 132.2 15.3 132.6 14.8 132.4 14.7 Z M 132.2 19.0 C 132.2 19.0 132.2 19.0 132.3 19.0 C 132.2 18.9 132.2 18.9 132.2 18.9 C 132.2 18.9 132.2 18.9 132.2 19.0 Z M 132.0 20.0 C 132.5 19.6 131.6 19.7 131.4 19.8 C 131.1 19.9 131.8 20.2 132.0 20.0 Z M 131.7 15.8 C 131.7 15.5 130.8 15.2 130.8 15.7 C 130.9 16.2 131.6 16.5 131.7 15.8 Z M 130.5 12.6 C 130.7 12.7 130.5 13.1 130.4 12.9 C 130.3 12.8 130.5 12.6 130.5 12.6 Z M 130.1 17.4 C 130.1 17.3 130.1 17.4 130.1 17.4 C 130.0 17.5 130.0 17.5 130.1 17.4 Z M 130.7 16.9 C 130.6 17.1 130.6 17.3 130.6 17.4 C 130.5 17.5 130.4 17.2 130.4 17.2 C 130.5 17.0 130.7 17.0 130.7 16.9 Z M 130.8 14.4 C 130.7 14.5 130.7 14.3 130.7 14.2 C 130.7 14.1 130.9 14.3 130.8 14.4 Z M 130.6 15.0 C 130.6 14.9 130.7 15.0 130.7 15.1 C 130.7 15.2 130.5 15.1 130.6 15.0 Z M 131.1 13.9 C 131.2 14.2 131.2 14.6 131.0 14.6 C 130.9 14.5 130.9 13.4 131.1 13.9 Z M 131.1 13.9 " fill="#5E416F"></path></g></svg>