<?xml version="1.0" encoding="UTF-8" standalone="no"?><svg xmlns="http://www.w3.org/2000/svg" xmlns:xlink="http://www.w3.org/1999/xlink" clip-rule="evenodd" stroke-miterlimit="10" viewBox="0 0 121 23"><desc>SVG generated by Keynote</desc><defs></defs><g transform="matrix(1.00, 0.00, -0.00, -1.00, 0.0, 23.0)"><path d="M 6.1 10.5 C 5.9 10.6 5.7 10.1 5.1 9.9 C 4.6 9.8 3.9 9.7 4.0 10.0 C 4.1 10.4 4.3 10.6 4.0 11.0 C 3.8 11.4 3.4 12.1 3.8 12.3 C 4.2 12.6 5.8 13.3 6.2 12.9 C 6.7 12.6 6.9 12.4 7.3 12.2 C 7.6 11.9 7.4 12.7 7.4 12.7 C 7.4 12.7 8.2 12.8 8.8 12.9 C 9.5 12.9 10.2 13.0 10.2 12.8 C 10.3 12.7 10.5 12.4 10.5 12.4 C 10.5 12.4 10.9 12.8 11.3 12.9 C 11.8 12.9 11.6 12.7 11.6 12.5 C 11.5 12.3 10.9 11.8 11.1 11.8 C 11.3 11.8 11.9 12.6 12.3 12.7 C 12.6 12.8 13.3 12.7 13.3 12.7 C 13.3 12.7 13.2 12.3 13.3 12.2 C 13.4 12.1 14.1 12.0 14.1 12.2 C 14.2 12.3 14.1 12.8 14.5 12.9 C 15.6 12.9 15.4 12.1 15.5 12.0 C 15.6 12.0 15.6 12.7 15.9 12.8 C 16.2 12.9 18.4 12.8 18.5 12.6 C 18.6 12.5 19.3 13.1 19.7 12.7 C 20.0 12.2 20.1 12.1 20.2 12.0 C 20.2 11.9 20.7 11.2 20.9 11.5 C 21.1 11.7 20.2 12.5 20.5 12.7 C 20.7 12.9 22.1 13.0 22.3 12.8 C 22.7 12.5 22.8 11.8 23.0 11.8 C 23.2 11.8 23.9 12.7 24.0 12.5 C 24.1 12.4 24.2 11.7 24.2 11.5 C 24.2 11.4 24.4 10.2 24.3 10.0 C 24.1 9.8 23.3 9.4 23.4 9.7 C 23.5 10.1 23.7 10.5 23.4 10.7 C 23.1 10.8 22.9 10.9 22.9 10.7 C 22.8 10.6 23.0 10.4 22.5 10.2 C 22.0 10.0 22.2 9.7 21.8 9.7 C 21.3 9.7 20.9 9.8 20.9 10.1 C 21.0 10.4 20.5 10.8 20.2 10.7 C 19.8 10.7 20.4 10.1 19.4 9.9 C 18.3 9.6 17.7 9.6 17.4 9.8 C 17.1 10.0 17.0 10.8 16.5 10.4 C 16.0 10.1 16.3 9.9 15.6 9.9 C 15.0 10.0 14.7 10.5 14.3 10.6 C 13.9 10.6 13.7 10.6 13.7 10.6 C 13.7 10.6 14.0 9.7 13.0 9.7 C 12.1 9.7 11.9 9.6 12.1 10.2 C 12.3 10.8 11.5 10.8 11.5 10.4 C 11.5 10.0 10.9 9.8 10.6 9.7 C 10.2 9.7 10.2 10.7 10.0 10.7 C 9.9 10.7 9.5 10.7 9.7 10.3 C 9.8 10.0 9.4 10.0 9.1 9.8 C 8.8 9.7 8.0 9.8 8.0 10.0 C 8.0 10.2 8.4 10.8 7.8 10.5 C 7.2 10.2 7.1 9.7 6.5 9.7 C 5.9 9.7 6.4 10.3 6.1 10.5 C 6.1 10.5 6.1 10.5 6.1 10.5 Z M 24.6 9.7 C 23.6 9.7 24.3 12.4 24.7 12.9 C 25.1 13.4 25.7 13.1 26.4 13.2 C 27.1 13.3 26.9 12.4 27.3 12.2 C 27.7 12.0 27.5 12.5 27.7 12.9 C 27.9 13.3 28.9 12.9 29.5 13.0 C 30.2 13.0 30.8 12.1 31.3 12.1 C 31.8 12.0 30.9 11.6 31.8 11.7 C 32.7 11.7 32.2 12.2 31.2 12.5 C 30.2 12.7 31.6 13.0 32.2 13.1 C 32.7 13.2 33.7 12.8 34.1 12.8 C 34.6 12.9 34.0 12.2 34.7 12.2 C 35.3 12.3 35.0 12.9 35.7 13.0 C 36.3 13.1 36.3 12.5 36.6 12.4 C 36.9 12.2 36.9 12.6 37.1 12.6 C 37.4 12.7 37.9 12.9 38.5 12.7 C 39.1 12.6 39.0 12.4 39.2 12.4 C 39.5 12.3 40.0 12.3 40.0 12.3 C 40.1 12.5 40.1 12.8 40.1 13.0 C 40.1 13.0 41.3 13.0 41.6 13.1 C 41.9 13.1 42.7 12.8 42.5 12.7 C 42.3 12.5 43.1 12.1 43.2 12.2 C 43.4 12.3 44.0 12.6 44.4 12.8 C 44.8 12.9 44.7 11.2 44.7 11.0 C 44.7 10.7 44.9 9.8 44.5 9.7 C 44.2 9.6 43.9 10.0 44.0 9.7 C 44.0 9.5 43.0 9.7 42.7 9.7 C 42.4 9.7 42.1 10.3 42.1 10.3 C 42.1 10.3 41.8 10.9 41.4 10.9 C 40.9 10.9 40.8 9.8 40.8 9.8 C 40.8 9.8 40.2 9.6 39.6 9.7 C 39.1 9.7 38.4 10.6 38.3 10.8 C 38.2 11.0 38.2 10.2 37.8 10.1 C 37.4 10.0 36.9 9.7 36.7 9.8 C 36.5 9.8 36.2 10.3 36.2 10.3 C 36.2 10.3 35.5 10.7 35.3 10.7 C 35.2 10.7 35.5 9.9 35.5 9.9 C 35.5 9.9 33.9 9.7 33.6 9.6 C 33.3 9.5 32.8 9.7 32.6 9.8 C 32.3 9.8 32.0 10.8 31.7 10.7 C 31.3 10.6 32.0 10.1 31.7 10.0 C 31.3 9.9 30.7 9.7 30.5 9.7 C 30.4 9.7 30.1 10.1 29.9 10.1 C 29.6 10.2 29.2 10.9 28.7 10.9 C 28.3 10.9 28.1 10.4 27.9 10.3 C 27.7 10.2 27.6 9.6 27.3 9.6 C 26.9 9.6 27.1 10.0 26.8 10.0 C 26.5 10.0 26.5 10.5 26.1 10.4 C 25.8 10.3 26.0 9.5 25.6 9.6 C 25.5 9.7 25.6 9.6 24.6 9.7 C 24.6 9.7 24.6 9.7 24.6 9.7 Z M 45.4 9.8 C 44.9 9.4 44.5 9.9 44.5 10.3 C 44.6 10.6 44.8 11.6 44.6 11.9 C 44.4 12.2 43.8 12.9 44.7 13.0 C 45.6 13.1 45.7 12.9 45.7 12.6 C 45.7 12.4 45.9 11.4 46.1 11.5 C 46.4 11.6 46.6 11.8 46.6 12.0 C 46.7 12.1 47.0 13.1 47.4 12.9 C 47.9 12.8 48.2 12.5 48.2 12.5 C 48.5 12.5 48.7 12.5 48.9 12.5 C 48.9 12.5 49.4 13.1 49.9 12.9 C 50.4 12.8 50.9 12.8 51.2 12.9 C 51.6 12.9 51.9 12.8 52.0 12.6 C 52.0 12.3 52.5 11.5 52.5 11.5 C 52.5 11.5 53.0 11.3 53.2 11.4 C 53.4 11.6 53.5 12.0 53.4 12.2 C 53.4 12.4 53.4 12.9 53.8 12.9 C 54.1 13.0 55.6 13.5 55.9 13.2 C 56.1 12.9 56.0 12.6 56.2 12.5 C 56.4 12.4 57.4 12.3 57.4 12.6 C 57.5 12.8 57.5 13.3 57.7 13.3 C 58.0 13.2 58.6 13.4 58.6 13.2 C 58.6 13.1 58.8 12.9 58.8 12.7 C 58.8 12.4 59.4 12.2 59.5 12.0 C 59.6 11.9 60.1 11.8 60.1 11.8 C 60.3 12.0 60.5 12.1 60.7 12.3 C 60.7 12.3 60.3 12.8 60.1 12.9 C 60.0 13.0 60.3 13.3 60.4 13.4 C 60.6 13.4 61.7 13.3 61.7 13.3 C 61.7 12.9 61.7 12.6 61.7 12.2 C 62.0 12.1 62.3 12.0 62.5 11.9 C 62.5 11.9 62.4 13.3 62.9 13.3 C 63.5 13.3 64.1 13.3 64.1 13.3 C 64.1 13.3 64.6 12.8 64.8 12.7 C 64.9 12.7 64.9 11.5 64.9 11.5 C 64.9 11.0 64.9 10.5 64.8 10.1 C 64.8 10.1 64.2 9.6 63.9 9.8 C 63.5 10.0 63.8 10.5 63.7 10.7 C 63.7 11.0 63.2 11.2 63.2 11.2 C 62.9 10.9 62.7 10.7 62.5 10.4 C 62.5 10.4 62.3 10.2 62.0 9.9 C 61.8 9.7 61.0 9.6 60.8 9.7 C 60.5 9.8 60.3 10.1 60.0 10.3 C 59.7 10.5 59.8 11.0 59.5 10.6 C 59.1 10.3 58.9 9.9 58.8 9.9 C 58.6 9.9 57.9 10.4 57.9 10.4 C 57.6 10.5 57.4 10.6 57.2 10.7 C 57.2 10.7 56.7 11.0 56.6 10.7 C 56.5 10.4 55.4 10.7 55.4 10.7 C 55.4 10.7 55.5 9.9 55.2 9.8 C 54.9 9.6 54.5 9.4 54.0 9.6 C 53.6 9.7 53.2 10.5 53.2 10.5 C 53.1 10.3 52.9 10.1 52.8 9.9 C 52.4 9.8 51.9 9.8 51.5 9.7 C 51.5 9.7 50.5 9.8 50.5 9.9 C 50.5 10.0 50.6 10.7 50.6 10.9 C 50.5 11.1 50.0 11.3 50.0 11.1 C 49.9 10.9 49.4 10.2 49.4 10.2 C 49.4 10.2 49.0 9.8 48.8 9.8 C 48.5 9.7 48.0 9.9 47.9 10.1 C 47.8 10.2 47.3 10.7 47.3 10.7 C 47.2 10.5 47.1 10.3 47.0 10.1 C 47.0 10.1 46.2 10.4 45.4 9.8 C 45.4 9.8 45.4 9.8 45.4 9.8 Z M 65.3 9.7 C 64.2 9.7 64.9 12.4 65.3 12.9 C 65.7 13.4 66.4 13.1 67.1 13.2 C 67.7 13.3 67.5 12.4 67.9 12.2 C 68.3 12.0 68.2 12.5 68.3 12.9 C 68.5 13.3 69.5 12.9 70.2 13.0 C 70.8 13.0 71.5 12.1 72.0 12.1 C 72.5 12.0 71.5 11.6 72.4 11.7 C 73.3 11.7 72.9 12.2 71.8 12.5 C 70.8 12.7 72.2 13.0 72.8 13.1 C 73.4 13.2 74.3 12.8 74.8 12.8 C 75.2 12.9 74.7 12.2 75.3 12.2 C 76.0 12.3 75.7 12.9 76.3 13.0 C 77.0 13.1 76.9 12.5 77.2 12.4 C 77.6 12.2 77.5 12.6 77.8 12.6 C 78.1 12.7 78.5 12.9 79.1 12.7 C 79.8 12.6 79.6 12.4 79.9 12.4 C 80.2 12.3 80.7 12.3 80.7 12.3 C 80.7 12.5 80.7 12.8 80.8 13.0 C 80.8 13.0 81.9 13.0 82.2 13.1 C 82.6 13.1 83.3 12.8 83.1 12.7 C 82.9 12.5 83.7 12.1 83.9 12.2 C 84.0 12.3 84.6 12.6 85.0 12.8 C 85.4 12.9 85.3 11.2 85.3 11.0 C 85.3 10.7 85.5 9.8 85.2 9.7 C 84.8 9.6 84.6 10.0 84.6 9.7 C 84.7 9.5 83.6 9.7 83.4 9.7 C 83.1 9.7 82.7 10.3 82.7 10.3 C 82.7 10.3 82.5 10.9 82.0 10.9 C 81.6 10.9 81.4 9.8 81.4 9.8 C 81.4 9.8 80.8 9.6 80.3 9.7 C 79.7 9.7 79.1 10.6 79.0 10.8 C 78.9 11.0 78.9 10.2 78.5 10.1 C 78.1 10.0 77.5 9.7 77.3 9.8 C 77.2 9.8 76.9 10.3 76.9 10.3 C 76.9 10.3 76.1 10.7 76.0 10.7 C 75.8 10.7 76.1 9.9 76.1 9.9 C 76.1 9.9 74.6 9.7 74.2 9.6 C 73.9 9.5 73.4 9.7 73.2 9.8 C 73.0 9.8 72.6 10.8 72.3 10.7 C 72.0 10.6 72.6 10.1 72.3 10.0 C 72.0 9.9 71.3 9.7 71.2 9.7 C 71.0 9.7 70.8 10.1 70.5 10.1 C 70.2 10.2 69.8 10.9 69.4 10.9 C 68.9 10.9 68.7 10.4 68.5 10.3 C 68.4 10.2 68.2 9.6 67.9 9.6 C 67.5 9.6 67.8 10.0 67.5 10.0 C 67.1 10.0 67.1 10.5 66.8 10.4 C 66.4 10.3 66.6 9.5 66.3 9.6 C 66.1 9.7 66.3 9.6 65.3 9.7 C 65.3 9.7 65.3 9.7 65.3 9.7 Z M 86.0 9.8 C 85.5 9.4 85.1 9.9 85.2 10.3 C 85.2 10.6 85.4 11.6 85.2 11.9 C 85.0 12.2 84.5 12.9 85.3 13.0 C 86.2 13.1 86.4 12.9 86.4 12.6 C 86.4 12.4 86.5 11.4 86.8 11.5 C 87.0 11.6 87.2 11.8 87.3 12.0 C 87.3 12.1 87.7 13.1 88.1 12.9 C 88.5 12.8 88.9 12.5 88.9 12.5 C 89.1 12.5 89.3 12.5 89.5 12.5 C 89.5 12.5 90.1 13.1 90.5 12.9 C 91.0 12.8 91.5 12.8 91.9 12.9 C 92.2 12.9 92.5 12.8 92.6 12.6 C 92.7 12.3 93.1 11.5 93.1 11.5 C 93.1 11.5 93.6 11.3 93.9 11.4 C 94.1 11.6 94.1 12.0 94.1 12.2 C 94.0 12.4 94.1 12.9 94.4 12.9 C 94.8 13.0 96.3 13.5 96.5 13.2 C 96.7 12.9 96.7 12.6 96.8 12.5 C 97.0 12.4 98.0 12.3 98.1 12.6 C 98.2 12.8 98.1 13.3 98.4 13.3 C 98.7 13.2 99.2 13.4 99.2 13.2 C 99.2 13.1 99.4 12.9 99.4 12.7 C 99.5 12.4 100.0 12.2 100.1 12.0 C 100.3 11.9 100.7 11.8 100.7 11.8 C 100.9 12.0 101.1 12.1 101.3 12.3 C 101.3 12.3 101.0 12.8 100.8 12.9 C 100.6 13.0 100.9 13.3 101.1 13.4 C 101.2 13.4 102.3 13.3 102.3 13.3 C 102.3 12.9 102.4 12.6 102.4 12.2 C 102.6 12.1 102.9 12.0 103.2 11.9 C 103.2 11.9 103.1 13.3 103.6 13.3 C 104.1 13.3 104.7 13.3 104.7 13.3 C 104.7 13.3 105.3 12.8 105.4 12.7 C 105.5 12.7 105.6 11.5 105.6 11.5 C 105.5 11.0 105.5 10.5 105.5 10.1 C 105.5 10.1 104.8 9.6 104.5 9.8 C 104.2 10.0 104.4 10.5 104.4 10.7 C 104.3 11.0 103.8 11.2 103.8 11.2 C 103.6 10.9 103.3 10.7 103.1 10.4 C 103.1 10.4 102.9 10.2 102.7 9.9 C 102.4 9.7 101.6 9.6 101.4 9.7 C 101.2 9.8 101.0 10.1 100.7 10.3 C 100.4 10.5 100.4 11.0 100.1 10.6 C 99.7 10.3 99.6 9.9 99.4 9.9 C 99.2 9.9 98.5 10.4 98.5 10.4 C 98.3 10.5 98.1 10.6 97.9 10.7 C 97.9 10.7 97.3 11.0 97.2 10.7 C 97.2 10.4 96.0 10.7 96.0 10.7 C 96.0 10.7 96.1 9.9 95.9 9.8 C 95.6 9.6 95.1 9.4 94.7 9.6 C 94.2 9.7 93.9 10.5 93.9 10.5 C 93.7 10.3 93.6 10.1 93.4 9.9 C 93.0 9.8 92.6 9.8 92.1 9.7 C 92.1 9.7 91.2 9.8 91.2 9.9 C 91.2 10.0 91.3 10.7 91.2 10.9 C 91.2 11.1 90.7 11.3 90.6 11.1 C 90.5 10.9 90.1 10.2 90.1 10.2 C 90.1 10.2 89.7 9.8 89.4 9.8 C 89.1 9.7 88.7 9.9 88.5 10.1 C 88.4 10.2 88.0 10.7 88.0 10.7 C 87.8 10.5 87.7 10.3 87.6 10.1 C 87.6 10.1 86.8 10.4 86.0 9.8 C 86.0 9.8 86.0 9.8 86.0 9.8 Z M 86.0 9.8 " fill="#5E416F"></path><path d="M 104.5 20.7 C 104.4 21.1 103.3 21.4 104.1 20.7 C 104.1 20.7 104.6 20.5 104.5 20.7 Z M 106.2 19.7 C 106.1 19.8 106.0 19.8 105.8 19.8 C 105.5 19.6 106.6 19.4 106.2 19.7 Z M 103.5 20.8 C 103.5 20.9 103.0 21.2 103.0 21.0 C 103.1 20.9 103.6 20.8 103.5 20.8 Z M 107.3 18.1 C 107.4 18.3 106.8 18.6 106.7 18.6 C 106.3 18.6 107.2 17.8 107.3 18.1 Z M 102.7 15.3 C 102.7 15.2 102.7 15.2 102.7 15.2 C 102.7 15.2 102.7 15.3 102.7 15.3 Z M 115.3 13.8 C 115.3 13.9 115.0 13.9 114.9 13.8 C 114.9 13.6 115.6 13.6 115.3 13.8 Z M 102.4 4.2 C 102.4 4.2 102.3 4.5 102.2 4.4 C 102.1 4.3 102.3 4.2 102.4 4.2 Z M 102.2 4.3 C 102.1 4.3 102.0 4.1 102.1 4.1 C 102.3 4.2 102.3 4.2 102.2 4.3 Z M 111.2 6.6 C 111.2 6.6 111.3 6.6 111.2 6.7 C 111.1 6.7 111.0 6.5 111.2 6.6 Z M 110.8 6.6 C 110.7 6.7 110.6 6.4 110.7 6.5 C 110.9 6.5 111.0 6.6 110.8 6.6 Z M 109.6 4.9 C 109.7 4.9 109.7 4.9 109.6 5.0 C 109.5 5.0 109.5 4.8 109.6 4.9 Z M 101.9 8.8 C 101.9 8.7 102.0 8.4 102.1 8.4 C 102.3 8.4 102.0 8.9 101.9 8.8 Z M 101.8 8.3 C 101.7 8.4 101.7 8.1 101.8 8.2 C 101.9 8.2 102.0 8.3 101.8 8.3 Z M 102.1 9.7 C 102.3 9.7 102.3 10.1 102.3 10.2 C 102.2 10.3 102.2 10.5 102.1 10.6 C 102.1 10.7 101.9 9.7 102.1 9.7 Z M 102.3 12.7 C 102.2 12.7 102.2 12.7 102.3 12.5 C 102.3 12.4 102.4 12.7 102.3 12.7 Z M 102.2 11.0 C 102.1 11.0 102.1 11.0 102.1 10.9 C 102.2 10.7 102.3 11.0 102.2 11.0 Z M 110.7 16.6 C 110.8 16.7 110.3 16.9 110.3 16.8 C 110.2 16.8 110.4 16.7 110.3 16.8 C 110.1 16.8 110.2 16.3 110.7 16.6 Z M 107.1 19.1 C 107.0 19.1 107.0 19.1 106.9 19.0 C 106.9 19.0 107.3 18.9 107.1 19.1 Z M 109.8 16.4 C 109.9 16.5 109.7 16.5 109.7 16.5 C 109.7 16.5 109.8 16.4 109.8 16.4 Z M 110.1 16.2 C 110.0 16.3 109.7 16.3 109.7 16.1 C 109.7 15.9 110.4 15.9 110.1 16.2 Z M 111.3 16.5 C 111.2 16.5 111.2 16.5 111.2 16.4 C 111.2 16.3 111.3 16.5 111.3 16.5 Z M 109.2 17.9 C 109.1 18.0 109.1 18.0 109.2 17.9 C 109.2 17.8 109.2 17.9 109.2 17.9 Z M 112.1 15.6 C 112.1 15.6 112.0 15.9 111.7 15.7 C 111.5 15.5 112.1 15.6 112.1 15.6 Z M 113.4 14.4 C 113.3 14.4 113.3 14.3 113.4 14.3 C 113.6 14.3 113.6 14.3 113.4 14.4 Z M 113.7 13.5 C 113.9 13.5 114.1 13.6 113.8 13.7 C 113.6 13.8 113.5 13.6 113.7 13.5 Z M 113.5 13.8 C 113.5 13.8 113.6 13.7 113.6 13.8 C 113.6 13.8 113.5 13.9 113.5 13.8 Z M 112.4 15.0 C 112.3 15.1 112.1 15.0 112.3 14.9 C 112.5 14.7 112.5 14.8 112.4 15.0 Z M 102.0 16.8 C 102.0 16.9 101.8 16.9 101.8 16.8 C 101.7 16.8 101.9 16.7 102.0 16.8 Z M 102.6 10.4 C 102.5 10.5 102.5 10.5 102.6 10.3 C 102.6 10.1 102.7 10.4 102.6 10.4 Z M 103.0 6.4 C 102.9 6.5 102.8 6.4 102.9 6.3 C 102.9 6.1 103.1 6.3 103.0 6.4 Z M 102.6 12.1 C 102.6 12.1 102.3 11.7 102.5 11.5 C 102.8 11.2 102.9 11.9 102.6 12.1 Z M 105.8 16.0 C 105.9 16.1 105.8 16.1 105.8 16.1 C 105.8 16.0 105.8 16.0 105.8 16.0 Z M 103.1 11.2 C 103.2 11.3 103.0 11.2 102.9 11.2 C 102.9 11.1 103.1 11.0 103.1 11.2 Z M 102.7 7.1 C 102.6 7.3 102.4 7.2 102.3 7.1 C 102.0 6.8 102.4 6.5 102.5 6.3 C 102.7 6.1 102.8 7.0 102.7 7.1 Z M 102.6 17.8 C 102.6 17.7 102.6 17.6 102.7 17.5 C 102.6 17.5 102.6 17.4 102.7 17.4 C 102.6 17.0 102.3 16.7 102.2 16.5 C 101.9 15.9 102.7 15.7 102.7 15.3 C 102.7 15.4 102.7 15.5 102.8 15.5 C 103.0 15.7 102.9 14.3 102.9 14.2 C 102.7 13.0 102.5 14.4 102.1 14.4 C 101.9 14.4 102.4 13.6 102.4 13.6 C 102.6 13.2 102.2 13.1 102.4 12.8 C 102.4 12.7 103.4 12.2 103.2 12.0 C 103.1 11.9 103.2 11.5 103.2 11.4 C 103.2 11.2 103.2 10.8 102.9 11.0 C 102.6 11.2 102.4 11.2 102.6 10.9 C 102.8 10.7 103.3 9.3 102.7 9.4 C 102.6 9.4 102.4 9.7 102.4 9.7 C 102.3 9.3 102.5 8.1 102.2 7.8 C 101.6 7.2 102.6 8.0 102.8 7.7 C 103.0 7.1 103.3 6.8 103.1 6.1 C 103.1 6.0 103.1 5.3 102.7 5.7 C 102.5 5.9 102.3 5.7 102.2 6.1 C 101.9 5.7 102.5 5.4 102.4 5.3 C 102.2 5.1 102.1 5.4 102.2 5.1 C 102.2 4.7 102.1 4.8 102.4 4.8 C 102.5 4.7 102.6 4.4 102.6 4.4 C 102.7 4.4 102.7 4.4 102.7 4.4 C 102.7 4.1 102.0 3.6 102.2 3.5 C 102.3 3.4 102.7 3.6 102.9 3.6 C 102.9 3.5 102.9 3.5 102.9 3.5 C 102.9 3.3 102.6 3.0 102.7 3.0 C 102.7 2.9 103.3 3.2 103.1 3.0 C 103.0 2.9 103.2 2.1 103.4 2.1 C 103.5 2.1 104.4 1.9 104.4 1.7 C 104.5 1.6 104.8 1.9 105.0 1.9 C 105.1 2.0 105.2 2.3 105.2 2.4 C 105.2 2.4 105.6 2.5 105.6 2.5 C 105.6 2.5 105.7 2.5 106.0 2.7 C 106.2 2.8 106.3 3.1 106.5 3.3 C 106.8 3.6 107.0 3.5 107.3 3.6 C 107.6 3.7 107.6 4.3 107.8 4.5 C 108.0 4.7 108.2 4.4 108.5 4.5 C 108.8 4.7 108.9 4.8 108.8 4.8 C 108.7 4.8 108.7 5.0 108.8 5.0 C 108.9 5.1 109.2 5.4 109.3 5.4 C 109.5 5.4 108.8 4.6 109.9 5.3 C 110.4 5.7 110.6 6.3 110.5 6.2 C 110.0 6.0 110.6 7.0 110.7 6.9 C 110.8 6.7 111.7 7.3 111.7 6.9 C 111.7 6.7 112.7 7.2 112.8 7.3 C 112.9 7.5 113.4 7.6 113.3 8.0 C 113.3 8.2 114.1 8.1 114.2 8.2 C 114.3 8.3 115.1 8.8 115.2 9.0 C 115.3 9.1 114.9 8.9 114.7 8.8 C 114.6 8.7 114.4 8.4 114.3 8.4 C 114.1 8.3 114.3 8.6 114.5 8.8 C 114.7 8.9 114.6 9.1 114.8 9.2 C 114.9 9.2 115.0 9.3 115.1 9.5 C 115.2 9.5 115.3 9.5 115.3 9.4 C 115.4 9.3 115.3 9.2 115.3 9.2 C 115.4 9.1 115.6 9.1 115.8 9.3 C 116.0 9.4 116.2 9.6 116.5 9.8 C 116.7 10.1 116.8 10.1 117.1 10.2 C 117.3 10.3 117.5 10.4 117.4 10.5 C 117.4 10.6 117.1 10.5 117.1 10.5 C 117.0 10.5 117.2 10.9 117.3 11.0 C 117.8 11.4 117.1 11.6 117.6 12.0 C 117.9 12.2 117.5 12.2 117.2 12.3 C 117.2 12.3 117.2 12.4 117.0 12.6 C 117.0 12.7 116.6 12.8 116.4 12.9 C 116.3 13.0 115.7 13.6 116.0 13.1 C 116.1 13.1 116.1 13.1 116.1 13.0 C 116.1 13.0 116.1 13.0 116.1 13.0 C 116.1 13.0 116.1 12.6 116.1 12.6 C 116.1 12.6 116.1 13.0 116.1 13.0 C 115.9 12.9 115.8 12.9 115.7 12.9 C 115.7 12.9 115.6 12.9 115.6 13.0 C 115.6 13.0 115.6 13.0 115.6 13.0 C 115.6 13.1 115.6 13.1 115.6 13.1 C 115.7 13.2 115.7 13.2 115.5 13.2 C 115.3 13.5 114.6 13.6 114.4 13.7 C 114.7 12.7 113.5 13.4 113.2 13.7 C 112.9 14.0 113.4 14.7 113.5 14.6 C 113.3 14.8 113.1 14.7 112.9 14.6 C 113.0 14.6 112.4 14.3 112.4 14.3 C 111.6 14.4 112.1 15.0 112.0 15.1 C 111.9 15.3 111.7 15.4 111.5 15.6 C 111.4 15.8 111.6 15.8 111.6 15.9 C 111.5 16.4 110.8 16.0 110.6 16.1 C 110.7 16.0 110.8 15.8 110.9 15.6 C 110.8 15.9 110.5 15.6 110.3 15.7 C 110.1 15.7 109.9 15.9 109.7 16.0 C 109.3 16.3 109.0 16.5 108.7 16.8 C 108.8 16.8 109.6 16.9 109.6 16.9 C 109.5 17.0 109.1 17.0 109.4 17.2 C 109.9 17.6 108.9 17.9 108.7 17.9 C 108.2 18.2 108.0 18.9 107.2 18.7 C 107.2 18.7 107.9 18.2 107.8 18.1 C 107.4 17.8 107.1 17.7 106.6 18.1 C 106.6 18.2 106.1 18.9 106.1 18.9 C 106.1 18.8 107.3 19.4 106.5 19.4 C 106.4 19.4 106.5 19.1 106.3 19.1 C 106.1 19.2 105.8 19.4 105.6 19.5 C 105.5 19.6 105.1 19.7 105.1 19.7 C 105.1 19.9 105.2 20.1 105.1 20.2 C 105.0 20.4 104.7 20.4 104.6 20.2 C 104.6 20.2 104.6 20.2 104.6 20.2 C 104.6 20.2 104.5 20.2 104.5 20.1 C 104.4 20.1 104.3 20.2 104.2 20.1 C 104.1 20.1 104.3 20.0 104.4 20.0 C 104.4 19.9 104.4 19.9 104.4 19.8 C 104.2 20.0 104.0 20.1 104.0 20.1 C 103.8 20.6 103.9 20.7 103.2 20.6 C 102.7 20.5 102.3 19.2 102.5 18.4 C 102.4 18.2 102.5 18.0 102.6 17.8 Z M 115.4 9.9 C 115.3 9.9 115.3 9.9 115.3 9.8 C 115.3 9.9 115.2 10.0 115.2 10.1 C 115.3 10.2 115.2 9.9 115.4 10.0 C 115.6 10.2 115.6 10.1 115.4 9.9 Z M 115.2 11.7 C 115.4 11.7 115.4 11.7 115.3 11.6 C 115.3 11.6 115.2 11.7 115.2 11.7 Z M 115.6 12.5 C 115.8 12.3 115.3 12.2 115.0 12.5 C 115.3 12.5 115.5 12.5 115.6 12.5 Z M 115.3 13.1 C 115.2 13.1 115.2 13.0 115.2 13.0 C 115.2 12.8 115.0 13.1 115.0 13.0 C 115.0 12.9 115.2 12.7 115.0 12.7 C 114.9 12.7 114.9 12.7 114.8 12.7 C 114.8 12.7 114.8 12.8 114.8 12.8 C 114.7 13.0 115.1 13.2 115.3 13.1 Z M 114.0 9.8 C 114.2 9.8 114.1 9.7 114.0 9.7 C 113.9 9.7 113.9 9.8 114.0 9.8 Z M 113.1 8.4 C 113.2 8.5 113.3 8.5 113.3 8.4 C 113.2 8.2 113.0 8.2 113.1 8.4 Z M 111.1 10.4 C 111.2 10.4 111.1 10.4 111.1 10.4 C 110.9 10.3 111.0 10.5 111.1 10.4 Z M 111.0 11.9 C 110.9 12.0 111.1 12.2 111.1 12.1 C 111.2 12.0 111.1 11.9 111.0 11.9 Z M 111.2 8.5 C 111.1 8.5 111.1 8.6 111.2 8.6 C 111.3 8.6 111.3 8.6 111.2 8.5 Z M 111.5 10.6 C 111.4 10.4 111.4 10.4 111.3 10.5 C 111.3 10.5 111.3 10.7 111.4 10.7 C 111.6 10.8 111.6 10.7 111.5 10.6 Z M 111.6 11.8 C 111.3 12.0 111.4 12.2 111.7 11.9 C 112.1 11.5 111.9 11.7 111.6 11.8 Z M 112.3 7.3 C 112.4 7.4 112.6 7.5 112.6 7.5 C 112.6 7.5 112.1 7.1 112.3 7.3 Z M 111.5 15.2 C 111.7 15.1 111.7 15.0 111.5 15.0 C 111.2 15.1 111.4 15.3 111.5 15.2 Z M 110.8 14.6 C 111.1 14.8 111.3 14.7 111.4 14.8 C 111.3 14.7 111.3 14.5 111.3 14.4 C 111.5 14.1 112.0 14.2 112.1 13.9 C 112.2 13.6 111.7 13.9 111.6 13.9 C 111.6 13.9 111.7 13.8 111.6 13.7 C 111.5 13.7 111.4 13.7 111.4 13.8 C 111.3 13.9 110.4 14.3 110.8 14.6 Z M 110.8 11.0 C 111.0 11.1 111.1 11.0 111.0 10.8 C 110.9 10.7 110.7 10.6 110.7 10.6 C 110.6 10.7 110.7 11.0 110.8 11.0 Z M 110.7 9.9 C 110.8 9.8 110.8 9.8 110.6 9.8 C 110.4 9.7 110.5 10.0 110.7 9.9 Z M 108.6 5.2 C 108.5 5.2 108.7 5.3 108.7 5.3 C 108.8 5.2 108.7 5.2 108.6 5.2 Z M 108.7 7.0 C 108.4 7.0 108.6 7.2 108.7 7.2 C 108.7 7.2 108.9 7.1 108.7 7.0 Z M 109.8 8.1 C 109.6 8.1 109.8 8.3 109.8 8.3 C 109.9 8.2 109.8 8.2 109.8 8.1 Z M 109.9 8.9 C 109.8 8.8 109.8 9.0 110.0 9.0 C 110.1 9.0 110.0 8.9 109.9 8.9 Z M 109.3 14.9 C 109.3 14.9 109.2 14.6 109.1 14.9 C 109.0 15.1 109.0 15.1 109.3 14.9 Z M 109.8 12.8 C 110.0 12.6 110.2 12.4 110.0 11.8 C 109.8 11.2 109.7 11.5 109.6 11.9 C 109.5 12.2 109.2 11.2 109.1 11.9 C 109.0 12.2 109.7 12.9 109.8 12.8 Z M 108.8 8.9 C 109.0 9.3 109.5 9.2 109.2 9.0 C 108.9 8.7 108.6 8.6 108.8 8.9 Z M 108.8 8.7 C 108.8 8.7 108.8 8.6 108.7 8.6 C 108.6 8.5 108.6 8.7 108.8 8.7 Z M 109.1 17.5 C 109.6 17.0 108.7 17.0 108.7 17.0 C 107.9 17.3 108.5 18.1 109.1 17.5 Z M 103.0 4.7 C 103.0 4.7 103.0 4.8 103.0 4.8 C 103.0 4.8 103.0 4.8 103.0 4.8 C 103.1 4.9 103.3 4.7 103.3 4.7 C 103.2 4.6 103.1 4.7 103.0 4.7 Z M 102.8 8.6 C 102.9 8.4 102.8 8.3 102.7 8.2 C 102.4 8.3 102.4 9.4 103.0 9.0 C 103.1 8.9 103.6 8.2 103.3 8.1 C 103.1 8.1 102.8 9.0 102.8 8.6 Z M 103.3 7.4 C 103.3 7.8 103.8 7.0 103.6 7.1 C 103.4 7.1 103.3 7.2 103.3 7.4 Z M 104.4 4.0 C 104.2 3.3 103.2 3.5 103.7 4.4 C 104.2 5.4 104.6 5.4 104.5 4.9 C 104.3 4.5 104.8 4.9 104.4 4.0 Z M 104.4 9.0 C 103.7 8.8 103.9 9.1 104.4 9.3 C 104.5 9.4 104.8 9.0 104.4 9.0 Z M 104.5 10.4 C 104.4 10.5 104.4 10.5 104.6 10.4 C 104.7 10.3 104.6 10.2 104.5 10.4 Z M 105.3 3.0 C 105.2 2.7 105.0 2.6 105.1 2.6 C 105.3 2.5 105.2 2.5 105.1 2.4 C 104.9 2.2 104.9 2.5 105.0 2.7 C 105.0 2.8 105.4 3.2 105.3 3.0 Z M 107.5 8.3 C 107.4 8.3 107.5 8.4 107.6 8.4 C 107.7 8.4 107.7 8.4 107.5 8.3 Z M 108.2 13.6 C 108.2 13.6 108.2 13.5 108.1 13.6 C 108.0 13.7 108.0 13.7 108.2 13.6 Z M 108.0 17.9 C 108.1 17.8 107.8 17.7 107.9 17.5 C 107.9 17.4 108.0 17.6 108.0 17.6 C 108.0 17.5 107.9 17.0 107.7 17.4 C 107.6 17.5 107.7 18.1 108.0 17.9 Z M 107.4 9.8 C 107.6 10.0 107.8 9.1 107.9 9.3 C 108.1 9.4 108.1 9.3 107.9 9.1 C 107.7 8.9 107.2 9.6 107.4 9.8 Z M 107.2 7.5 C 107.2 7.7 107.7 8.1 107.6 7.8 C 107.5 7.6 107.2 7.4 107.4 7.4 C 107.5 7.4 107.5 7.4 107.4 7.2 C 107.2 7.1 107.2 7.4 107.2 7.5 Z M 107.1 3.8 C 107.1 3.8 107.4 4.0 107.3 3.8 C 107.2 3.7 107.0 3.7 107.1 3.8 Z M 106.8 14.2 C 106.9 14.1 106.9 14.0 106.7 14.2 C 106.5 14.3 106.8 14.4 106.8 14.2 Z M 106.4 4.1 C 106.6 4.3 106.5 4.0 106.7 4.1 C 106.8 4.3 106.9 4.2 106.6 4.0 C 106.5 3.8 106.2 3.9 106.4 4.1 Z M 106.3 17.7 C 106.3 17.6 106.2 17.4 106.1 17.5 C 106.1 17.6 106.2 17.8 106.3 17.7 Z M 105.7 16.3 C 105.8 16.2 105.8 16.2 105.9 16.2 C 106.8 15.5 105.1 16.0 105.7 16.3 Z M 105.8 14.1 C 105.9 14.4 106.1 14.0 106.0 14.0 C 105.9 14.0 105.9 14.0 105.8 14.1 Z M 105.8 11.7 C 105.7 11.7 105.7 11.9 105.9 11.9 C 106.0 11.8 105.9 11.8 105.8 11.7 Z M 105.4 19.4 C 105.5 19.4 105.5 19.3 105.4 19.3 C 105.3 19.3 105.3 19.4 105.4 19.4 Z M 105.3 13.5 C 105.4 13.5 105.4 13.5 105.4 13.4 C 105.3 13.3 105.3 13.4 105.3 13.5 Z M 105.3 6.2 C 105.3 6.3 105.4 6.3 105.5 6.4 C 105.6 6.3 105.6 5.9 105.8 5.9 C 105.8 5.9 105.8 5.9 105.8 5.9 C 105.8 5.9 105.8 5.9 105.8 5.9 C 105.9 5.9 106.0 6.0 105.9 6.0 C 106.0 6.0 106.0 6.1 106.0 6.2 C 106.1 6.1 106.2 5.9 106.1 5.8 C 106.0 5.7 105.7 5.6 105.4 5.6 C 105.4 5.7 105.3 5.8 105.3 5.9 C 105.3 5.9 105.3 5.9 105.3 5.9 C 105.5 6.0 105.6 6.1 105.4 6.1 C 105.4 6.1 105.3 6.1 105.3 6.1 C 105.3 6.1 105.3 6.2 105.3 6.2 Z M 105.0 12.6 C 105.1 12.7 105.1 12.6 105.2 12.4 C 105.2 12.2 104.9 12.4 105.0 12.6 Z M 105.2 19.1 C 105.2 19.0 105.1 19.0 105.1 18.9 C 105.1 19.0 105.1 19.0 105.1 19.0 C 105.0 19.2 105.0 19.3 105.0 19.4 C 105.1 19.4 105.2 19.3 105.2 19.1 Z M 104.5 17.0 C 104.5 17.1 104.5 18.0 104.7 17.8 C 105.0 17.6 105.3 17.9 105.2 17.3 C 105.1 17.0 104.7 16.8 104.6 16.5 C 104.2 14.9 104.2 16.9 104.1 17.3 C 104.1 17.4 104.4 16.9 104.5 17.0 Z M 104.0 15.0 C 103.9 15.0 103.7 15.2 103.7 15.3 C 103.8 15.7 104.2 15.1 104.0 15.0 Z M 103.8 19.3 C 103.8 19.3 103.8 19.3 103.9 19.3 C 103.9 19.3 103.8 19.3 103.8 19.2 C 103.8 19.3 103.8 19.3 103.8 19.3 Z M 103.6 20.4 C 104.1 20.0 103.3 20.0 103.1 20.1 C 102.8 20.2 103.4 20.6 103.6 20.4 Z M 103.3 16.2 C 103.3 15.9 102.4 15.5 102.5 16.1 C 102.5 16.6 103.3 16.9 103.3 16.2 Z M 102.2 13.0 C 102.3 13.1 102.1 13.4 102.0 13.3 C 101.9 13.2 102.1 12.9 102.2 13.0 Z M 101.7 17.7 C 101.7 17.6 101.8 17.8 101.8 17.8 C 101.6 17.8 101.6 17.8 101.7 17.7 Z M 102.3 17.3 C 102.3 17.4 102.2 17.6 102.2 17.7 C 102.1 17.8 102.1 17.5 102.1 17.5 C 102.1 17.4 102.3 17.3 102.3 17.3 Z M 102.4 14.8 C 102.3 14.9 102.3 14.7 102.3 14.6 C 102.3 14.5 102.5 14.7 102.4 14.8 Z M 102.2 15.4 C 102.2 15.3 102.3 15.3 102.3 15.4 C 102.3 15.6 102.2 15.5 102.2 15.4 Z M 102.7 14.3 C 102.8 14.6 102.9 14.9 102.6 14.9 C 102.5 14.9 102.6 13.8 102.7 14.3 Z M 102.7 14.3 " fill="#5E416F"></path></g></svg>