<?xml version="1.0" encoding="UTF-8" standalone="no"?><svg xmlns="http://www.w3.org/2000/svg" xmlns:xlink="http://www.w3.org/1999/xlink" clip-rule="evenodd" stroke-miterlimit="10" viewBox="0 0 235 39"><desc>SVG generated by Keynote</desc><defs></defs><g transform="matrix(1.00, 0.00, -0.00, -1.00, 0.0, 39.0)"><path d="M 43.0 17.9 C 42.6 18.1 41.7 17.8 41.4 18.0 M 43.0 17.9 C 42.0 16.4 40.3 16.3 37.9 16.1 C 35.4 16.0 38.0 17.4 37.7 18.0 C 34.4 18.6 34.4 17.6 34.9 16.0 C 33.6 17.0 29.8 15.2 30.6 17.1 C 35.9 17.1 26.8 17.6 31.3 18.7 C 31.8 19.0 30.5 19.6 30.0 19.6 C 31.5 20.4 29.0 21.3 31.3 21.9 C 31.7 23.2 31.2 22.6 32.8 23.6 C 33.4 23.8 33.1 23.3 33.1 23.0 C 33.3 21.6 34.9 23.8 36.1 22.9 C 37.3 24.9 38.5 22.6 37.5 21.8 C 38.6 22.0 39.9 24.0 41.1 22.6 C 41.7 23.6 44.8 22.9 42.9 21.8 C 41.6 21.0 43.1 20.4 43.3 20.0 C 42.8 19.6 41.0 20.2 40.7 19.8 C 41.3 19.5 43.6 18.8 41.1 18.9 C 41.9 18.2 40.7 17.8 43.0 17.9 C 43.0 17.9 43.0 17.9 43.0 17.9 Z M 33.9 16.8 C 33.9 16.3 34.8 16.8 33.9 16.8 C 33.9 16.8 33.9 16.8 33.9 16.8 Z M 40.1 23.6 C 40.1 23.1 41.0 23.6 40.1 23.6 C 40.1 23.6 40.1 23.6 40.1 23.6 Z M 33.5 23.1 C 33.5 22.6 34.4 23.1 33.5 23.1 C 33.5 23.1 33.5 23.1 33.5 23.1 Z M 36.3 17.1 C 37.7 17.6 35.1 17.9 34.9 17.4 C 35.2 17.4 36.0 16.7 36.3 17.1 C 36.3 17.1 36.3 17.1 36.3 17.1 Z M 36.5 20.1 C 36.6 19.9 37.2 19.8 37.1 20.3 C 36.8 20.5 36.4 20.3 36.5 20.1 C 36.5 20.1 36.5 20.1 36.5 20.1 Z M 29.4 18.0 C 29.5 17.8 30.1 17.7 30.1 18.3 C 29.7 18.4 29.3 18.2 29.4 18.0 C 29.4 18.0 29.4 18.0 29.4 18.0 Z M 37.9 18.5 C 38.3 18.6 38.4 19.0 38.0 19.1 C 37.8 18.9 36.8 18.8 37.9 18.5 C 37.9 18.5 37.9 18.5 37.9 18.5 Z M 40.2 16.8 C 41.3 17.1 38.9 17.8 39.0 17.6 C 38.6 17.2 39.5 16.4 40.2 16.8 C 40.2 16.8 40.2 16.8 40.2 16.8 Z M 38.6 19.2 C 39.6 19.4 38.2 19.6 38.6 19.2 C 38.6 19.2 38.6 19.2 38.6 19.2 Z M 30.4 21.8 C 31.4 22.0 30.0 22.1 30.4 21.8 C 30.4 21.8 30.4 21.8 30.4 21.8 Z M 35.6 23.3 C 36.6 23.6 35.2 23.7 35.6 23.3 C 35.6 23.3 35.6 23.3 35.6 23.3 Z M 33.7 18.2 C 32.0 18.1 33.4 16.9 33.7 18.2 C 33.7 18.2 33.7 18.2 33.7 18.2 Z M 42.9 16.7 C 41.2 16.6 42.7 15.4 42.9 16.7 C 42.9 16.7 42.9 16.7 42.9 16.7 Z M 227.7 17.1 C 229.3 16.9 223.1 15.2 225.5 17.2 C 226.1 18.8 222.0 18.7 223.0 17.2 C 221.8 17.0 221.8 16.9 221.1 17.7 C 220.9 16.4 218.0 15.8 217.0 16.5 C 216.4 17.5 218.9 16.6 217.3 17.7 C 213.7 18.0 217.5 18.8 216.1 20.2 C 216.0 20.2 215.9 19.5 215.6 19.9 C 215.5 21.2 217.6 22.1 216.6 23.0 C 217.2 22.8 219.8 24.2 218.7 23.1 C 218.3 21.9 221.5 24.5 221.3 22.6 C 222.2 23.5 223.1 22.2 223.9 23.3 C 224.6 23.6 224.5 22.5 224.5 22.3 C 224.4 21.3 225.2 24.3 226.3 22.7 C 226.4 23.2 229.3 23.0 227.1 22.3 C 227.7 22.4 231.1 22.8 229.3 21.1 C 227.0 20.3 231.7 19.3 229.0 19.2 C 226.9 19.0 226.4 19.3 228.0 18.4 C 228.5 18.5 230.9 18.4 228.9 17.6 C 228.4 17.8 227.4 17.6 227.7 17.1 C 227.7 17.1 227.7 17.1 227.7 17.1 Z M 228.1 19.7 C 226.9 19.8 228.0 19.1 228.1 19.7 C 228.1 19.7 228.1 19.7 228.1 19.7 Z M 223.7 23.7 C 222.5 23.8 223.6 23.1 223.7 23.7 C 223.7 23.7 223.7 23.7 223.7 23.7 Z M 223.9 16.7 C 223.3 17.2 223.1 15.4 223.9 16.7 C 223.9 16.7 223.9 16.7 223.9 16.7 Z M 225.8 22.3 C 225.7 22.3 226.0 22.0 226.2 21.9 C 226.2 22.0 225.9 22.2 225.8 22.3 C 225.8 22.3 225.8 22.3 225.8 22.3 Z M 221.8 16.7 C 220.0 17.6 221.5 15.3 221.8 16.7 C 221.8 16.7 221.8 16.7 221.8 16.7 Z M 218.2 18.4 C 218.0 20.3 216.3 18.0 218.2 18.4 C 218.2 18.4 218.2 18.4 218.2 18.4 Z M 220.7 22.4 C 221.0 22.1 221.0 22.7 220.7 22.4 C 220.7 22.4 220.7 22.4 220.7 22.4 Z M 228.6 22.7 C 228.9 22.3 228.9 22.9 228.6 22.7 C 228.6 22.7 228.6 22.7 228.6 22.7 Z M 218.4 22.3 C 218.6 21.6 219.1 22.6 218.4 22.3 C 218.4 22.3 218.4 22.3 218.4 22.3 Z M 223.6 17.4 C 225.2 16.0 225.6 19.6 223.6 17.4 C 223.6 17.4 223.6 17.4 223.6 17.4 Z M 226.5 17.3 C 227.7 17.0 226.3 18.2 225.8 18.0 C 225.9 17.8 226.3 17.4 226.5 17.3 C 226.5 17.3 226.5 17.3 226.5 17.3 Z M 221.8 17.6 C 222.9 16.9 222.9 18.0 221.8 17.6 C 221.8 17.6 221.8 17.6 221.8 17.6 Z M 224.7 16.8 C 225.3 17.0 224.2 17.0 224.7 16.8 C 224.7 16.8 224.7 16.8 224.7 16.8 Z M 219.6 16.1 C 220.1 16.2 219.1 16.3 219.6 16.1 C 219.6 16.1 219.6 16.1 219.6 16.1 Z M 227.9 16.5 C 228.5 16.7 227.5 16.7 227.9 16.5 C 227.9 16.5 227.9 16.5 227.9 16.5 Z M 220.0 17.0 C 219.9 17.7 221.5 19.1 218.6 17.9 C 218.1 17.4 219.3 16.5 220.0 17.0 C 220.0 17.0 220.0 17.0 220.0 17.0 Z M 47.0 18.0 C 41.1 15.9 42.5 19.5 42.2 20.2 C 41.5 21.1 42.2 21.8 43.4 22.4 C 44.6 24.7 45.3 20.1 46.2 22.3 C 47.8 25.4 48.0 19.7 48.6 22.9 C 48.4 23.7 50.7 23.1 50.5 22.9 C 51.6 24.4 53.3 21.7 53.3 21.4 C 54.1 21.8 54.1 24.6 56.6 22.5 C 58.4 21.8 59.2 24.6 58.7 22.6 C 60.0 24.8 59.6 22.0 61.0 22.7 C 61.9 23.9 61.0 20.9 62.7 23.2 C 63.4 21.4 61.9 24.4 66.5 23.1 C 64.3 22.9 68.6 21.6 67.7 22.9 C 66.2 24.2 69.9 22.4 72.0 23.2 C 72.5 22.5 75.0 20.8 74.6 22.6 C 76.7 24.7 76.8 21.4 77.7 23.1 C 78.4 23.8 78.7 22.3 79.2 22.4 C 79.9 23.7 80.6 22.8 83.3 23.2 C 89.1 23.8 84.1 19.8 86.4 19.4 C 86.7 18.8 83.5 14.5 84.8 17.7 C 84.4 16.8 79.6 20.2 82.0 16.6 C 80.1 18.0 82.4 15.2 78.7 16.9 C 83.7 19.3 73.0 17.9 77.8 16.7 C 77.0 15.9 75.0 16.1 76.5 16.7 C 77.0 18.9 73.0 15.6 75.0 18.4 C 72.0 17.6 72.8 20.1 71.9 18.4 C 71.2 15.4 72.1 19.1 70.5 18.3 C 66.9 18.2 69.7 14.9 67.5 17.1 C 63.9 15.6 66.7 18.4 65.5 18.8 C 65.1 20.8 61.9 17.2 64.6 16.9 C 63.1 18.0 64.3 15.9 62.7 17.2 C 63.9 19.1 60.6 15.2 61.1 16.7 C 59.6 17.2 60.4 18.4 59.9 18.4 C 57.8 18.4 58.4 16.6 58.0 18.0 C 57.5 18.7 56.5 16.3 56.2 16.9 C 58.4 17.0 54.4 18.9 54.1 17.9 C 55.5 17.7 53.4 15.4 52.6 16.9 C 53.7 21.0 50.6 15.8 49.6 17.3 C 50.6 19.5 44.8 17.5 47.0 16.5 C 46.8 16.7 47.0 18.0 47.0 18.0 M 55.5 17.2 C 57.4 17.4 53.6 17.7 55.5 17.2 M 55.5 16.6 C 56.3 17.4 53.7 16.0 55.6 16.3 C 55.6 16.4 55.4 16.6 55.5 16.6 M 63.0 16.5 C 62.8 17.2 62.0 16.1 63.0 16.5 M 64.5 17.9 C 65.7 18.5 62.9 18.0 64.5 17.9 M 81.2 17.5 C 79.5 20.9 79.4 15.6 81.2 17.5 M 70.1 16.8 C 68.1 17.2 70.9 15.4 70.1 16.8 M 69.5 17.7 C 68.6 18.2 69.3 16.9 69.5 17.7 M 78.0 17.5 C 78.2 17.6 78.2 17.6 78.0 17.5 C 78.0 17.5 78.0 17.5 78.0 17.5 Z M 83.0 17.6 C 83.0 17.5 83.0 17.5 83.0 17.6 C 83.0 17.6 83.0 17.6 83.0 17.6 Z M 73.2 17.8 C 71.7 17.0 75.7 17.5 73.2 17.8 C 73.2 17.8 73.2 17.8 73.2 17.8 Z M 80.6 22.8 C 80.5 22.8 80.5 22.8 80.6 22.8 C 80.6 22.8 80.6 22.8 80.6 22.8 Z M 54.1 18.8 C 54.0 18.8 54.0 18.8 54.1 18.8 C 54.1 18.8 54.1 18.8 54.1 18.8 Z M 48.5 17.5 C 48.5 17.9 47.4 17.1 48.5 17.5 C 48.5 17.5 48.5 17.5 48.5 17.5 Z M 43.9 21.4 C 43.8 21.4 43.8 21.4 43.9 21.4 C 43.9 21.4 43.9 21.4 43.9 21.4 Z M 52.2 20.6 C 52.1 20.6 52.1 20.6 52.2 20.6 C 52.2 20.6 52.2 20.6 52.2 20.6 Z M 53.0 18.0 C 52.1 16.1 55.2 18.5 53.0 18.0 C 53.0 18.0 53.0 18.0 53.0 18.0 Z M 71.3 22.6 C 71.4 21.8 72.6 22.9 71.3 22.6 C 71.3 22.6 71.3 22.6 71.3 22.6 Z M 64.7 18.7 C 64.9 18.3 65.5 18.9 64.7 18.7 C 64.7 18.7 64.7 18.7 64.7 18.7 Z M 61.6 16.1 C 61.8 15.7 62.4 16.3 61.6 16.1 C 61.6 16.1 61.6 16.1 61.6 16.1 Z M 48.6 17.0 C 48.7 16.8 48.7 16.8 48.6 17.0 C 48.6 17.0 48.6 17.0 48.6 17.0 Z M 50.6 18.4 C 49.2 16.6 52.7 19.3 50.6 18.4 C 50.6 18.4 50.6 18.4 50.6 18.4 Z M 48.2 18.9 C 48.9 19.6 46.4 18.6 48.2 18.9 M 49.6 21.6 C 51.3 20.8 48.0 24.8 49.6 21.6 C 49.6 21.6 49.6 21.6 49.6 21.6 Z M 58.2 22.3 C 58.4 22.4 58.4 22.4 58.2 22.3 C 58.2 22.3 58.2 22.3 58.2 22.3 Z M 57.3 17.1 C 58.8 17.2 56.4 17.6 57.3 17.1 C 57.3 17.1 57.3 17.1 57.3 17.1 Z M 44.2 16.7 C 45.8 16.8 43.3 17.2 44.2 16.7 C 44.2 16.7 44.2 16.7 44.2 16.7 Z M 63.3 20.6 C 65.8 20.3 61.8 21.5 63.3 20.6 C 63.3 20.6 63.3 20.6 63.3 20.6 Z M 72.4 18.5 C 72.4 18.6 72.4 18.6 72.4 18.5 C 72.4 18.5 72.4 18.5 72.4 18.5 Z M 74.0 17.8 C 74.1 17.8 74.1 17.8 74.0 17.8 C 74.0 17.8 74.0 17.8 74.0 17.8 Z M 81.1 19.6 C 81.2 19.7 81.2 19.7 81.1 19.6 C 81.1 19.6 81.1 19.6 81.1 19.6 Z M 75.6 17.0 C 75.6 17.0 75.6 17.0 75.6 17.0 C 75.6 17.0 75.6 17.0 75.6 17.0 Z M 80.4 17.4 C 80.5 17.5 80.5 17.5 80.4 17.4 C 80.4 17.4 80.4 17.4 80.4 17.4 Z M 79.8 15.9 C 79.9 16.0 79.9 16.0 79.8 15.9 C 79.8 15.9 79.8 15.9 79.8 15.9 Z M 68.9 23.6 C 69.0 23.7 69.0 23.7 68.9 23.6 C 68.9 23.6 68.9 23.6 68.9 23.6 Z M 51.2 16.4 C 51.3 16.5 51.3 16.5 51.2 16.4 C 51.2 16.4 51.2 16.4 51.2 16.4 Z M 80.0 18.1 C 80.1 18.1 80.1 18.1 80.0 18.1 C 80.0 18.1 80.0 18.1 80.0 18.1 Z M 68.2 19.5 C 68.2 21.0 67.2 17.5 68.5 19.4 C 68.4 19.5 68.1 19.3 68.2 19.5 M 69.8 22.0 C 69.7 22.0 69.7 22.0 69.8 22.0 C 69.8 22.0 69.8 22.0 69.8 22.0 Z M 64.4 22.9 C 64.3 23.0 64.3 23.0 64.4 22.9 C 64.4 22.9 64.4 22.9 64.4 22.9 Z M 74.7 16.7 C 74.5 15.8 76.0 17.3 74.5 16.7 M 81.1 22.3 C 80.9 21.4 82.4 22.9 80.9 22.3 M 42.5 17.3 C 42.3 18.0 41.5 16.9 42.5 17.3 M 63.2 23.7 C 63.0 24.4 62.2 23.3 63.2 23.7 M 65.7 21.8 C 65.5 21.0 67.0 22.5 65.5 21.8 M 77.4 22.2 C 77.5 22.2 77.5 22.2 77.4 22.2 C 77.4 22.2 77.4 22.2 77.4 22.2 Z M 59.6 17.3 C 59.7 17.3 59.7 17.3 59.6 17.3 C 59.6 17.3 59.6 17.3 59.6 17.3 Z M 66.2 19.1 C 65.3 17.9 67.4 19.8 66.2 19.1 M 57.7 19.3 C 56.4 17.9 59.8 19.8 57.7 19.3 M 83.9 22.6 C 82.5 20.9 85.0 23.5 83.9 22.6 M 76.7 18.3 C 75.2 16.6 77.8 19.2 76.7 18.3 M 61.0 18.0 C 60.9 17.1 62.4 18.6 61.0 18.0 M 45.9 17.2 C 44.6 17.0 47.8 16.5 45.9 17.2 M 73.9 22.3 C 73.9 22.3 73.9 22.3 73.9 22.3 C 73.9 22.3 73.9 22.3 73.9 22.3 Z M 50.5 23.8 C 50.5 23.8 50.5 23.8 50.5 23.8 C 50.5 23.8 50.5 23.8 50.5 23.8 Z M 85.8 16.9 C 85.8 17.0 85.8 17.0 85.8 16.9 C 85.8 16.9 85.8 16.9 85.8 16.9 Z M 75.8 19.1 C 75.8 19.2 75.8 19.2 75.8 19.1 C 75.8 19.1 75.8 19.1 75.8 19.1 Z M 83.0 16.7 C 83.1 16.8 83.1 16.8 83.0 16.7 C 83.0 16.7 83.0 16.7 83.0 16.7 Z M 71.2 20.4 C 71.3 20.5 71.3 20.5 71.2 20.4 C 71.2 20.4 71.2 20.4 71.2 20.4 Z M 70.3 16.0 C 70.4 16.1 70.4 16.1 70.3 16.0 C 70.3 16.0 70.3 16.0 70.3 16.0 Z M 65.4 17.9 C 65.4 17.9 65.4 17.9 65.4 17.9 C 65.4 17.9 65.4 17.9 65.4 17.9 Z M 72.6 16.4 C 75.6 16.1 71.1 17.8 72.6 16.4 C 72.6 16.4 72.6 16.4 72.6 16.4 Z M 67.5 20.8 C 67.5 20.8 67.5 20.8 67.5 20.8 C 67.5 20.8 67.5 20.8 67.5 20.8 Z M 67.0 17.7 C 68.9 16.4 68.0 19.8 67.0 17.7 M 58.8 16.6 C 59.3 15.9 59.0 17.7 58.8 16.6 M 55.5 22.4 C 55.4 22.5 55.4 22.5 55.5 22.4 C 55.5 22.4 55.5 22.4 55.5 22.4 Z M 56.3 21.9 C 56.4 22.0 56.4 22.0 56.3 21.9 C 56.3 21.9 56.3 21.9 56.3 21.9 Z M 56.7 16.4 C 56.8 16.4 56.8 16.4 56.7 16.4 C 56.7 16.4 56.7 16.4 56.7 16.4 Z M 56.5 23.6 C 56.5 23.6 56.5 23.6 56.5 23.6 C 56.5 23.6 56.5 23.6 56.5 23.6 Z M 69.2 16.1 C 69.2 16.2 69.2 16.2 69.2 16.1 C 69.2 16.1 69.2 16.1 69.2 16.1 Z M 84.4 16.1 C 84.5 16.1 84.5 16.1 84.4 16.1 C 84.4 16.1 84.4 16.1 84.4 16.1 Z M 46.4 21.8 C 46.5 21.8 46.5 21.8 46.4 21.8 C 46.4 21.8 46.4 21.8 46.4 21.8 Z M 70.8 17.9 C 70.8 17.9 70.8 17.9 70.8 17.9 C 70.8 17.9 70.8 17.9 70.8 17.9 Z M 53.3 22.1 C 53.3 22.2 53.3 22.2 53.3 22.1 C 53.3 22.1 53.3 22.1 53.3 22.1 Z M 69.8 17.5 C 69.8 17.5 69.8 17.5 69.8 17.5 C 69.8 17.5 69.8 17.5 69.8 17.5 Z M 73.4 22.6 C 73.4 22.6 73.4 22.6 73.4 22.6 C 73.4 22.6 73.4 22.6 73.4 22.6 Z M 76.7 23.6 C 76.7 23.6 76.7 23.6 76.7 23.6 C 76.7 23.6 76.7 23.6 76.7 23.6 Z M 73.1 19.6 C 73.2 19.6 73.2 19.6 73.1 19.6 C 73.1 19.6 73.1 19.6 73.1 19.6 Z M 52.2 20.2 C 46.2 18.7 57.0 19.6 52.2 20.2 M 74.2 19.9 C 70.0 19.6 77.5 18.2 74.2 19.9 C 74.6 19.5 74.2 19.9 74.2 19.9 M 87.3 16.2 C 85.5 17.8 85.5 19.4 86.3 21.1 C 87.1 21.9 87.1 18.7 87.1 21.4 C 85.2 21.9 88.0 25.5 88.0 22.0 C 90.5 21.5 88.4 24.2 89.9 22.8 C 92.7 22.5 91.3 23.6 93.4 23.3 C 94.6 21.4 94.6 24.3 95.2 22.4 C 94.1 24.4 97.5 21.9 97.5 22.8 C 95.6 24.0 104.9 22.8 99.8 22.2 C 101.9 21.3 101.5 22.9 102.2 23.2 C 103.1 22.0 105.6 24.1 106.9 23.0 C 106.6 22.7 106.0 22.6 105.8 22.2 C 105.4 21.5 107.2 22.4 107.1 22.3 C 107.9 21.9 111.2 20.7 107.7 22.8 C 107.5 23.7 110.6 22.3 110.5 23.2 C 113.6 23.2 111.2 21.3 112.6 22.7 C 114.8 22.8 116.4 22.8 116.4 22.5 C 117.7 22.8 118.0 23.9 119.2 22.8 C 121.9 24.9 121.1 18.8 122.1 22.9 C 122.9 21.9 123.7 24.6 123.6 22.0 C 122.6 23.2 128.2 24.0 125.8 22.2 C 126.4 21.6 129.9 24.8 129.4 22.2 C 130.6 20.3 130.4 18.4 127.7 16.6 C 128.0 18.1 124.8 15.1 126.9 17.6 C 129.2 18.5 122.6 18.5 124.0 17.6 C 124.3 14.6 120.8 19.5 119.4 17.3 C 120.5 18.5 115.2 19.1 116.7 16.9 C 115.7 16.7 115.5 17.8 114.4 16.5 C 117.6 16.7 113.2 18.8 113.4 17.4 C 113.9 16.6 109.1 15.9 109.6 17.2 C 111.3 20.3 108.3 16.5 107.5 17.8 C 104.9 18.4 107.9 15.1 106.0 17.4 C 105.4 17.0 101.9 17.0 104.2 16.4 C 105.0 16.7 102.1 19.8 101.7 17.1 C 105.5 15.6 97.4 16.3 98.6 17.1 C 104.4 18.5 92.5 18.8 97.0 17.3 C 94.5 15.9 97.8 16.7 94.6 17.4 C 95.0 18.2 92.5 19.0 93.1 17.3 C 92.6 14.8 92.2 20.7 90.3 17.2 C 90.0 15.8 86.4 18.3 87.8 16.7 C 87.9 16.5 87.4 16.2 87.3 16.2 M 88.4 16.5 C 88.0 17.1 87.7 15.8 88.4 16.5 M 87.9 17.1 C 87.9 17.0 87.9 17.0 87.9 17.1 C 87.9 17.1 87.9 17.1 87.9 17.1 Z M 94.1 17.5 C 94.1 17.4 94.1 17.4 94.1 17.5 C 94.1 17.5 94.1 17.5 94.1 17.5 Z M 99.0 23.8 C 99.0 23.7 99.0 23.7 99.0 23.8 C 99.0 23.8 99.0 23.8 99.0 23.8 Z M 98.2 17.6 C 98.2 17.6 98.2 17.6 98.2 17.6 C 98.2 17.6 98.2 17.6 98.2 17.6 Z M 91.9 17.9 C 91.9 17.8 91.9 17.8 91.9 17.9 C 91.9 17.9 91.9 17.9 91.9 17.9 Z M 97.9 16.7 C 98.2 17.6 96.4 16.0 97.9 16.5 C 98.0 16.6 97.7 16.6 97.9 16.7 M 103.2 16.3 C 103.3 16.4 103.3 16.4 103.2 16.3 M 115.1 23.7 C 115.1 23.8 115.1 23.8 115.1 23.7 M 116.1 16.2 C 116.2 16.3 116.2 16.3 116.1 16.2 M 108.6 17.3 C 110.2 17.1 109.0 17.7 108.6 17.3 M 120.4 16.8 C 118.3 16.2 122.6 16.2 120.4 16.8 M 122.4 16.2 C 122.6 16.3 122.6 16.3 122.4 16.2 M 113.1 16.6 C 113.0 16.6 113.0 16.6 113.1 16.6 C 113.1 16.6 113.1 16.6 113.1 16.6 Z M 107.9 16.9 C 105.7 16.4 110.1 16.0 107.9 16.9 M 94.8 16.5 C 96.0 16.1 94.8 17.8 94.8 16.5 M 92.4 17.1 C 92.4 17.1 92.4 17.1 92.4 17.1 C 92.4 17.1 92.4 17.1 92.4 17.1 Z M 117.1 16.7 C 117.0 16.7 117.0 16.7 117.1 16.7 C 117.1 16.7 117.1 16.7 117.1 16.7 Z M 119.5 16.5 C 119.4 16.6 119.4 16.6 119.5 16.5 C 119.5 16.5 119.5 16.5 119.5 16.5 Z M 123.4 23.5 C 123.4 23.5 123.4 23.5 123.4 23.5 C 123.4 23.5 123.4 23.5 123.4 23.5 Z M 94.2 20.0 C 92.6 19.5 95.8 17.7 95.5 19.4 C 95.7 20.1 94.4 19.8 94.2 20.0 M 106.3 19.0 C 106.7 21.4 104.8 15.8 106.3 19.0 M 122.7 17.8 C 124.3 20.6 120.7 15.8 122.7 17.8 M 126.0 17.3 C 126.9 17.8 119.9 17.6 124.8 16.8 C 125.3 16.4 125.6 17.0 126.0 17.3 M 103.3 17.4 C 103.8 18.8 100.8 16.9 103.3 17.4 M 113.2 21.4 C 114.0 20.5 116.0 19.8 115.1 21.2 C 115.1 23.1 112.3 22.1 113.2 21.4 M 88.9 17.9 C 90.2 15.8 88.8 19.6 88.9 17.9 M 95.2 18.0 C 95.2 17.9 95.2 17.9 95.2 18.0 C 95.2 18.0 95.2 18.0 95.2 18.0 Z M 97.6 17.7 C 97.7 17.9 97.7 17.9 97.6 17.7 M 89.9 16.0 C 90.0 16.2 90.0 16.2 89.9 16.0 M 113.2 19.2 C 113.3 19.4 113.3 19.4 113.2 19.2 M 108.1 17.8 C 110.5 19.9 106.8 18.2 108.1 17.8 M 102.2 21.8 C 103.0 22.8 100.7 21.9 102.2 21.8 M 112.1 17.0 C 113.8 19.0 109.7 18.9 112.1 17.0 M 106.9 17.6 C 107.0 17.6 107.0 17.6 106.9 17.6 C 106.9 17.6 106.9 17.6 106.9 17.6 Z M 113.8 21.6 C 113.8 21.6 113.8 21.6 113.8 21.6 C 113.8 21.6 113.8 21.6 113.8 21.6 Z M 114.6 21.5 C 114.5 21.5 114.5 21.5 114.6 21.5 C 114.6 21.5 114.6 21.5 114.6 21.5 Z M 114.2 16.8 C 114.1 16.8 114.1 16.8 114.2 16.8 C 114.2 16.8 114.2 16.8 114.2 16.8 Z M 92.2 22.5 C 94.0 22.6 90.9 22.8 92.2 22.5 C 92.2 22.5 92.2 22.5 92.2 22.5 Z M 99.8 16.7 C 102.6 18.3 97.8 18.2 99.8 16.7 C 99.8 16.7 99.8 16.7 99.8 16.7 Z M 103.0 19.3 C 103.0 19.4 103.0 19.4 103.0 19.3 C 103.0 19.3 103.0 19.3 103.0 19.3 Z M 111.0 15.8 C 111.0 15.9 111.0 15.9 111.0 15.8 C 111.0 15.8 111.0 15.8 111.0 15.8 Z M 93.1 22.8 C 93.1 22.9 93.1 22.9 93.1 22.8 C 93.1 22.8 93.1 22.8 93.1 22.8 Z M 119.0 17.9 C 119.0 18.0 119.0 18.0 119.0 17.9 C 119.0 17.9 119.0 17.9 119.0 17.9 Z M 109.2 21.9 C 109.8 21.1 109.3 22.5 109.2 21.9 C 109.2 21.9 109.2 21.9 109.2 21.9 Z M 111.8 21.9 C 111.8 21.9 111.8 21.9 111.8 21.9 C 111.8 21.9 111.8 21.9 111.8 21.9 Z M 123.0 16.1 C 123.1 16.0 123.1 16.0 123.0 16.1 C 123.0 16.1 123.0 16.1 123.0 16.1 Z M 118.3 23.8 C 118.3 23.8 118.3 23.8 118.3 23.8 C 118.3 23.8 118.3 23.8 118.3 23.8 Z M 120.4 21.5 C 120.4 21.5 120.4 21.5 120.4 21.5 C 120.4 21.5 120.4 21.5 120.4 21.5 Z M 113.7 17.3 C 116.3 16.9 113.1 18.2 113.7 17.3 C 113.7 17.3 113.7 17.3 113.7 17.3 Z M 126.7 20.8 C 126.8 21.0 126.8 21.0 126.7 20.8 C 126.7 20.8 126.7 20.8 126.7 20.8 Z M 128.0 18.1 C 128.1 18.3 128.1 18.3 128.0 18.1 C 128.0 18.1 128.0 18.1 128.0 18.1 Z M 128.7 16.7 C 128.7 16.8 128.7 16.8 128.7 16.7 C 128.7 16.7 128.7 16.7 128.7 16.7 Z M 97.6 20.6 C 97.5 20.5 97.5 20.5 97.6 20.6 C 97.6 20.6 97.6 20.6 97.6 20.6 Z M 96.6 16.2 C 96.5 16.2 96.5 16.2 96.6 16.2 C 96.6 16.2 96.6 16.2 96.6 16.2 Z M 100.0 16.0 C 100.0 16.0 100.0 16.0 100.0 16.0 C 100.0 16.0 100.0 16.0 100.0 16.0 Z M 97.0 23.2 C 96.9 23.2 96.9 23.2 97.0 23.2 C 97.0 23.2 97.0 23.2 97.0 23.2 Z M 109.9 19.5 C 109.9 19.4 109.9 19.4 109.9 19.5 C 109.9 19.5 109.9 19.5 109.9 19.5 Z M 111.1 21.3 C 111.1 21.2 111.1 21.2 111.1 21.3 C 111.1 21.3 111.1 21.3 111.1 21.3 Z M 108.1 23.6 C 108.1 23.6 108.1 23.6 108.1 23.6 C 108.1 23.6 108.1 23.6 108.1 23.6 Z M 112.1 22.8 C 112.0 22.8 112.0 22.8 112.1 22.8 C 112.1 22.8 112.1 22.8 112.1 22.8 Z M 88.3 22.4 C 88.3 22.5 88.3 22.5 88.3 22.4 C 88.3 22.4 88.3 22.4 88.3 22.4 Z M 88.0 19.1 C 88.0 19.2 88.0 19.2 88.0 19.1 C 88.0 19.1 88.0 19.1 88.0 19.1 Z M 110.3 17.1 C 110.9 16.4 111.5 18.0 110.3 17.1 M 105.4 17.5 C 105.3 17.6 105.3 17.6 105.4 17.5 C 105.4 17.5 105.4 17.5 105.4 17.5 Z M 118.6 17.2 C 119.2 18.5 116.3 16.5 118.6 17.2 C 118.6 17.2 118.6 17.2 118.6 17.2 Z M 116.0 22.8 C 116.0 22.8 116.0 22.8 116.0 22.8 C 116.0 22.8 116.0 22.8 116.0 22.8 Z M 117.3 22.3 C 117.4 22.4 117.4 22.4 117.3 22.3 C 117.3 22.3 117.3 22.3 117.3 22.3 Z M 124.4 18.6 C 124.6 18.8 124.6 18.8 124.4 18.6 M 104.7 16.3 C 105.5 16.9 105.3 16.8 104.7 16.3 M 120.3 17.3 C 120.2 17.3 120.2 17.3 120.3 17.3 C 120.3 17.3 120.3 17.3 120.3 17.3 Z M 126.0 17.9 C 125.9 17.9 125.9 17.9 126.0 17.9 C 126.0 17.9 126.0 17.9 126.0 17.9 Z M 101.2 17.2 C 101.4 18.8 100.7 18.5 101.2 17.2 M 91.4 17.7 C 91.4 17.9 91.4 17.9 91.4 17.7 C 91.4 17.7 91.4 17.7 91.4 17.7 Z M 133.8 16.7 C 131.2 14.9 131.1 17.5 131.2 17.5 C 131.4 14.1 128.8 18.9 129.3 19.5 C 129.2 20.0 131.3 25.9 133.2 22.3 C 133.7 21.9 134.0 22.9 134.3 23.0 C 137.6 22.9 132.1 21.2 136.1 21.2 C 136.8 21.7 136.0 24.5 138.3 22.5 C 138.4 22.8 141.1 23.8 140.1 22.5 C 141.3 23.9 142.2 22.3 143.4 22.0 C 144.4 22.7 142.5 24.0 146.3 22.5 C 148.0 24.8 148.6 20.7 150.0 23.3 C 151.0 23.4 152.5 19.1 150.2 21.5 C 150.6 21.3 149.2 19.3 152.2 20.0 C 151.8 20.5 150.1 24.8 154.9 22.8 C 155.6 22.9 157.5 21.8 157.9 22.2 C 155.4 22.7 161.2 24.1 160.7 22.8 C 164.5 23.7 162.3 21.8 165.0 23.2 C 167.3 23.3 164.3 21.3 167.1 22.4 C 169.2 22.2 167.8 23.3 167.6 23.2 C 169.4 23.4 170.1 22.6 170.7 22.7 C 171.1 22.9 172.0 23.8 172.4 22.7 C 174.3 20.8 172.6 18.8 173.4 16.9 C 172.0 15.9 172.8 18.3 171.8 16.9 C 171.1 18.1 171.7 16.8 167.8 17.0 C 167.9 17.3 168.9 18.2 167.9 18.3 C 166.4 18.2 167.5 14.8 165.0 17.2 C 168.0 17.9 160.9 18.2 163.6 18.9 C 160.2 19.3 162.7 18.7 160.2 17.9 C 160.3 20.1 160.0 15.5 159.1 17.3 C 158.9 16.4 155.0 16.8 157.8 18.1 C 153.7 18.7 156.3 17.4 154.8 16.3 C 153.0 16.1 154.7 19.9 153.5 17.2 C 151.1 15.9 153.4 18.5 151.7 16.4 C 152.5 18.3 149.9 16.4 150.6 18.4 C 146.4 18.6 151.1 16.2 148.2 17.7 C 149.1 17.7 148.7 15.0 146.9 16.8 C 147.7 20.0 144.6 13.8 145.9 18.2 C 140.2 19.4 145.0 16.4 141.8 16.4 C 141.0 16.4 142.7 17.8 141.9 17.8 C 137.9 17.2 141.2 16.1 139.1 18.2 C 135.1 18.8 137.9 16.4 136.0 16.2 C 135.8 17.3 134.2 19.0 133.8 16.7 M 137.4 17.8 C 138.2 17.1 137.9 18.5 137.4 17.8 M 129.3 16.7 C 130.2 16.1 129.8 17.4 129.3 16.7 M 140.7 17.1 C 141.9 16.4 141.1 18.3 140.7 17.1 M 162.5 18.2 C 160.9 18.2 163.1 17.6 162.5 18.2 M 132.5 16.6 C 133.7 15.8 132.9 17.8 132.5 16.6 M 131.1 18.3 C 131.2 18.3 131.2 18.3 131.1 18.3 M 164.6 16.4 C 164.7 16.5 164.7 16.5 164.6 16.4 M 158.8 16.4 C 160.0 16.4 158.1 16.8 158.8 16.4 M 158.6 23.6 C 159.8 23.6 157.9 24.0 158.6 23.6 M 167.8 16.3 C 169.0 15.8 168.1 17.1 167.8 16.3 M 171.0 17.9 C 172.1 17.3 171.7 18.6 171.0 17.9 M 136.7 20.3 C 136.7 20.3 136.7 20.3 136.7 20.3 C 136.7 20.3 136.7 20.3 136.7 20.3 Z M 147.3 22.0 C 146.1 21.3 148.9 22.9 147.3 22.0 M 145.4 17.3 C 146.2 18.8 143.7 17.3 145.4 17.3 C 145.4 17.3 145.4 17.3 145.4 17.3 Z M 143.5 18.0 C 143.5 18.1 143.5 18.1 143.5 18.0 C 143.5 18.0 143.5 18.0 143.5 18.0 Z M 149.5 18.1 C 149.5 18.1 149.5 18.1 149.5 18.1 C 149.5 18.1 149.5 18.1 149.5 18.1 Z M 148.3 18.2 C 147.8 18.5 147.6 17.9 148.3 18.2 C 148.3 18.2 148.3 18.2 148.3 18.2 Z M 157.1 22.8 C 156.5 23.2 156.4 22.5 157.1 22.8 C 157.1 22.8 157.1 22.8 157.1 22.8 Z M 146.4 18.7 C 146.2 20.2 145.5 17.8 146.4 18.7 C 146.4 18.7 146.4 18.7 146.4 18.7 Z M 152.9 22.2 C 153.4 21.8 154.0 23.6 152.9 22.2 M 165.8 16.7 C 166.3 16.3 166.9 18.1 165.8 16.7 M 153.1 16.3 C 153.6 15.9 154.2 17.7 153.1 16.3 M 138.1 17.1 C 138.2 17.3 138.2 17.3 138.1 17.1 M 145.2 23.4 C 146.0 22.9 145.6 24.1 145.2 23.4 M 133.2 23.0 C 134.0 22.4 133.6 23.6 133.2 23.0 M 164.0 23.4 C 164.0 23.0 165.3 23.6 164.0 23.4 M 154.6 18.6 C 155.7 18.8 156.8 19.6 154.5 19.5 C 154.4 19.1 155.1 18.9 154.6 18.6 C 154.6 18.6 154.6 18.6 154.6 18.6 Z M 158.6 21.9 C 158.7 22.1 158.7 22.1 158.6 21.9 M 156.6 17.3 C 156.7 17.4 156.7 17.4 156.6 17.3 M 163.1 17.4 C 163.2 17.6 163.2 17.6 163.1 17.4 M 163.9 17.0 C 163.9 17.0 163.9 17.0 163.9 17.0 C 163.9 17.0 163.9 17.0 163.9 17.0 Z M 171.0 16.4 C 171.0 16.5 171.0 16.5 171.0 16.4 C 171.0 16.4 171.0 16.4 171.0 16.4 Z M 161.0 17.6 C 161.0 17.6 161.0 17.6 161.0 17.6 C 161.0 17.6 161.0 17.6 161.0 17.6 Z M 166.9 23.1 C 166.9 23.2 166.9 23.2 166.9 23.1 C 166.9 23.1 166.9 23.1 166.9 23.1 Z M 166.2 22.3 C 166.2 22.3 166.2 22.3 166.2 22.3 C 166.2 22.3 166.2 22.3 166.2 22.3 Z M 134.4 16.7 C 135.4 15.7 134.9 19.3 134.4 16.7 M 169.3 22.3 C 170.3 23.3 167.7 22.5 169.3 22.3 C 169.3 22.3 169.3 22.3 169.3 22.3 Z M 160.2 18.8 C 160.3 19.0 160.3 19.0 160.2 18.8 M 164.3 17.1 C 164.4 17.3 164.4 17.3 164.3 17.1 M 145.3 16.0 C 145.4 16.2 145.4 16.2 145.3 16.0 M 169.3 17.4 C 172.4 17.8 167.9 19.5 169.3 17.4 M 143.9 17.4 C 143.9 17.3 143.9 17.3 143.9 17.4 M 150.8 20.1 C 152.8 20.0 150.1 20.9 150.8 20.1 M 156.0 18.3 C 155.9 18.4 155.9 18.4 156.0 18.3 C 156.0 18.3 156.0 18.3 156.0 18.3 Z M 152.9 18.3 C 151.5 18.5 152.6 17.9 152.9 18.3 C 152.9 18.3 152.9 18.3 152.9 18.3 Z M 135.8 18.1 C 137.8 18.3 133.9 18.5 135.8 18.1 C 135.8 18.1 135.8 18.1 135.8 18.1 Z M 167.9 20.8 C 167.9 20.9 167.9 20.9 167.9 20.8 C 167.9 20.8 167.9 20.8 167.9 20.8 Z M 160.6 16.6 C 159.7 16.9 160.2 16.1 160.6 16.6 C 160.6 16.6 160.6 16.6 160.6 16.6 Z M 172.1 16.4 C 171.2 16.8 171.7 16.0 172.1 16.4 C 172.1 16.4 172.1 16.4 172.1 16.4 Z M 133.5 17.8 C 140.6 20.2 124.1 17.2 133.5 17.8 C 133.5 17.8 133.5 17.8 133.5 17.8 Z M 154.2 17.3 C 154.1 17.4 154.1 17.4 154.2 17.3 C 154.2 17.3 154.2 17.3 154.2 17.3 Z M 141.1 16.3 C 141.1 16.4 141.1 16.4 141.1 16.3 C 141.1 16.3 141.1 16.3 141.1 16.3 Z M 138.9 17.6 C 138.9 17.7 138.9 17.7 138.9 17.6 C 138.9 17.6 138.9 17.6 138.9 17.6 Z M 139.6 23.3 C 139.5 23.4 139.5 23.4 139.6 23.3 C 139.6 23.3 139.6 23.3 139.6 23.3 Z M 140.3 20.7 C 140.2 20.9 140.2 20.9 140.3 20.7 C 140.3 20.7 140.3 20.7 140.3 20.7 Z M 135.8 21.7 C 135.7 21.8 135.7 21.8 135.8 21.7 C 135.8 21.7 135.8 21.7 135.8 21.7 Z M 135.9 22.4 C 135.8 22.5 135.8 22.5 135.9 22.4 C 135.9 22.4 135.9 22.4 135.9 22.4 Z M 164.3 18.7 C 164.2 18.8 164.2 18.8 164.3 18.7 C 164.3 18.7 164.3 18.7 164.3 18.7 Z M 161.9 21.1 C 163.5 20.2 161.4 22.3 161.9 21.1 C 161.9 21.1 161.9 21.1 161.9 21.1 Z M 147.3 19.9 C 148.8 19.6 146.3 20.7 147.3 19.9 C 147.3 19.9 147.3 19.9 147.3 19.9 Z M 148.9 23.0 C 149.0 23.0 149.0 23.0 148.9 23.0 C 148.9 23.0 148.9 23.0 148.9 23.0 Z M 138.9 16.2 C 138.9 16.4 138.9 16.4 138.9 16.2 C 138.9 16.2 138.9 16.2 138.9 16.2 Z M 136.2 17.2 C 136.1 18.4 135.3 16.6 136.2 17.2 M 150.1 16.5 C 150.1 16.7 150.1 16.7 150.1 16.5 C 150.1 16.5 150.1 16.5 150.1 16.5 Z M 159.0 18.4 C 158.9 18.5 158.9 18.5 159.0 18.4 C 159.0 18.4 159.0 18.4 159.0 18.4 Z M 167.7 17.6 C 167.7 17.8 167.7 17.8 167.7 17.6 C 167.7 17.6 167.7 17.6 167.7 17.6 Z M 155.6 16.7 C 155.6 16.8 155.6 16.8 155.6 16.7 C 155.6 16.7 155.6 16.7 155.6 16.7 Z M 151.4 17.8 C 151.4 17.9 151.4 17.9 151.4 17.8 C 151.4 17.8 151.4 17.8 151.4 17.8 Z M 169.7 19.3 C 169.6 19.4 169.6 19.4 169.7 19.3 C 169.7 19.3 169.7 19.3 169.7 19.3 Z M 156.6 16.5 C 156.6 16.6 156.6 16.6 156.6 16.5 C 156.6 16.5 156.6 16.5 156.6 16.5 Z M 159.1 20.3 C 159.1 20.4 159.1 20.4 159.1 20.3 C 159.1 20.3 159.1 20.3 159.1 20.3 Z M 136.6 15.5 C 136.5 15.6 136.5 15.6 136.6 15.5 C 136.6 15.5 136.6 15.5 136.6 15.5 Z M 169.7 17.7 C 169.7 17.8 169.7 17.8 169.7 17.7 C 169.7 17.7 169.7 17.7 169.7 17.7 Z M 170.3 16.7 C 170.2 16.7 170.2 16.7 170.3 16.7 C 170.3 16.7 170.3 16.7 170.3 16.7 Z M 164.1 22.4 C 161.0 21.7 166.8 22.1 164.6 20.8 C 169.0 20.5 164.7 22.4 164.1 22.4 C 164.1 22.4 164.1 22.4 164.1 22.4 Z M 174.4 16.2 C 172.7 17.8 172.7 19.4 173.5 21.1 C 174.3 21.9 174.3 18.7 174.3 21.4 C 172.4 21.9 175.2 25.5 175.1 22.0 C 177.7 21.5 175.5 24.2 177.1 22.8 C 179.9 22.5 178.4 23.6 180.6 23.3 C 181.8 21.4 181.8 24.3 182.4 22.4 C 181.3 24.4 184.6 21.9 184.7 22.8 C 182.8 24.0 192.1 22.8 187.0 22.2 C 189.1 21.3 188.7 22.9 189.4 23.2 C 190.3 22.0 192.8 24.1 194.1 23.0 C 193.8 22.7 193.2 22.6 193.0 22.2 C 192.6 21.5 194.4 22.4 194.2 22.3 C 195.1 21.9 198.4 20.7 194.8 22.8 C 194.7 23.7 197.7 22.3 197.6 23.2 C 200.7 23.2 198.4 21.3 199.8 22.7 C 202.0 22.8 203.6 22.8 203.6 22.5 C 204.9 22.8 205.2 23.9 206.4 22.8 C 209.1 24.9 208.3 18.8 209.3 22.9 C 210.1 21.9 210.8 24.6 210.7 22.0 C 209.8 23.2 215.3 24.0 212.9 22.2 C 213.6 21.6 217.1 24.8 216.6 22.2 C 217.8 20.3 217.6 18.4 214.9 16.6 C 215.2 18.1 212.0 15.1 214.0 17.6 C 216.4 18.5 209.8 18.5 211.2 17.6 C 211.5 14.6 208.0 19.5 206.6 17.3 C 207.7 18.5 202.3 19.1 203.9 16.9 C 202.9 16.7 202.7 17.8 201.6 16.5 C 204.8 16.7 200.3 18.8 200.5 17.4 C 201.1 16.6 196.3 15.9 196.8 17.2 C 198.4 20.3 195.5 16.5 194.7 17.8 C 192.1 18.4 195.1 15.1 193.1 17.4 C 192.6 17.0 189.1 17.0 191.3 16.4 C 192.2 16.7 189.2 19.8 188.9 17.1 C 192.6 15.6 184.5 16.3 185.8 17.1 C 191.6 18.5 179.7 18.8 184.2 17.3 C 181.6 15.9 185.0 16.7 181.8 17.4 C 182.2 18.2 179.7 19.0 180.3 17.3 C 179.8 14.8 179.4 20.7 177.5 17.2 C 177.2 15.8 173.6 18.3 175.0 16.7 C 175.1 16.5 174.5 16.2 174.4 16.2 M 175.6 16.5 C 175.2 17.1 174.9 15.8 175.6 16.5 M 175.1 17.1 C 175.1 17.0 175.1 17.0 175.1 17.1 C 175.1 17.1 175.1 17.1 175.1 17.1 Z M 181.3 17.5 C 181.3 17.4 181.3 17.4 181.3 17.5 C 181.3 17.5 181.3 17.5 181.3 17.5 Z M 186.2 23.8 C 186.1 23.7 186.1 23.7 186.2 23.8 C 186.2 23.8 186.2 23.8 186.2 23.8 Z M 185.4 17.6 C 185.4 17.6 185.4 17.6 185.4 17.6 C 185.4 17.6 185.4 17.6 185.4 17.6 Z M 179.1 17.9 C 179.0 17.8 179.0 17.8 179.1 17.9 C 179.1 17.9 179.1 17.9 179.1 17.9 Z M 185.0 16.7 C 185.4 17.6 183.6 16.0 185.1 16.5 C 185.2 16.6 184.9 16.6 185.0 16.7 M 190.4 16.3 C 190.4 16.4 190.4 16.4 190.4 16.3 M 202.3 23.7 C 202.3 23.8 202.3 23.8 202.3 23.7 M 203.2 16.2 C 203.4 16.3 203.4 16.3 203.2 16.2 M 195.8 17.3 C 197.4 17.1 196.2 17.7 195.8 17.3 M 207.6 16.8 C 205.5 16.2 209.8 16.2 207.6 16.8 M 209.6 16.2 C 209.8 16.3 209.8 16.3 209.6 16.2 M 200.3 16.6 C 200.2 16.6 200.2 16.6 200.3 16.6 C 200.3 16.6 200.3 16.6 200.3 16.6 Z M 195.1 16.9 C 192.9 16.4 197.3 16.0 195.1 16.9 M 182.0 16.5 C 183.2 16.1 182.0 17.8 182.0 16.5 M 179.6 17.1 C 179.6 17.1 179.6 17.1 179.6 17.1 C 179.6 17.1 179.6 17.1 179.6 17.1 Z M 204.3 16.7 C 204.2 16.7 204.2 16.7 204.3 16.7 C 204.3 16.7 204.3 16.7 204.3 16.7 Z M 206.6 16.5 C 206.6 16.6 206.6 16.6 206.6 16.5 C 206.6 16.5 206.6 16.5 206.6 16.5 Z M 210.6 23.5 C 210.5 23.5 210.5 23.5 210.6 23.5 C 210.6 23.5 210.6 23.5 210.6 23.5 Z M 181.4 20.0 C 179.8 19.5 183.0 17.7 182.7 19.4 C 182.9 20.1 181.6 19.8 181.4 20.0 M 193.5 19.0 C 193.9 21.4 191.9 15.8 193.5 19.0 M 209.9 17.8 C 211.5 20.6 207.9 15.8 209.9 17.8 M 213.1 17.3 C 214.1 17.8 207.1 17.6 212.0 16.8 C 212.5 16.4 212.8 17.0 213.1 17.3 M 190.5 17.4 C 191.0 18.8 187.9 16.9 190.5 17.4 M 200.4 21.4 C 201.2 20.5 203.2 19.8 202.3 21.2 C 202.3 23.1 199.4 22.1 200.4 21.4 M 176.1 17.9 C 177.4 15.8 176.0 19.6 176.1 17.9 M 182.3 18.0 C 182.4 17.9 182.4 17.9 182.3 18.0 C 182.3 18.0 182.3 18.0 182.3 18.0 Z M 184.8 17.7 C 184.9 17.9 184.9 17.9 184.8 17.7 M 177.1 16.0 C 177.2 16.2 177.2 16.2 177.1 16.0 M 200.3 19.2 C 200.5 19.4 200.5 19.4 200.3 19.2 M 195.3 17.8 C 197.7 19.9 194.0 18.2 195.3 17.8 M 189.4 21.8 C 190.1 22.8 187.9 21.9 189.4 21.8 M 199.3 17.0 C 201.0 19.0 196.9 18.9 199.3 17.0 M 194.1 17.6 C 194.2 17.6 194.2 17.6 194.1 17.6 C 194.1 17.6 194.1 17.6 194.1 17.6 Z M 201.0 21.6 C 201.0 21.6 201.0 21.6 201.0 21.6 C 201.0 21.6 201.0 21.6 201.0 21.6 Z M 201.7 21.5 C 201.7 21.5 201.7 21.5 201.7 21.5 C 201.7 21.5 201.7 21.5 201.7 21.5 Z M 201.4 16.8 C 201.3 16.8 201.3 16.8 201.4 16.8 C 201.4 16.8 201.4 16.8 201.4 16.8 Z M 179.4 22.5 C 181.1 22.6 178.1 22.8 179.4 22.5 C 179.4 22.5 179.4 22.5 179.4 22.5 Z M 187.0 16.7 C 189.8 18.3 185.0 18.2 187.0 16.7 C 187.0 16.7 187.0 16.7 187.0 16.7 Z M 190.2 19.3 C 190.2 19.4 190.2 19.4 190.2 19.3 C 190.2 19.3 190.2 19.3 190.2 19.3 Z M 198.2 15.8 C 198.2 15.9 198.2 15.9 198.2 15.8 C 198.2 15.8 198.2 15.8 198.2 15.8 Z M 180.3 22.8 C 180.3 22.9 180.3 22.9 180.3 22.8 C 180.3 22.8 180.3 22.8 180.3 22.8 Z M 206.2 17.9 C 206.2 18.0 206.2 18.0 206.2 17.9 C 206.2 17.9 206.2 17.9 206.2 17.9 Z M 196.4 21.9 C 197.0 21.1 196.5 22.5 196.4 21.9 C 196.4 21.9 196.4 21.9 196.4 21.9 Z M 198.9 21.9 C 199.0 21.9 199.0 21.9 198.9 21.9 C 198.9 21.9 198.9 21.9 198.9 21.9 Z M 210.2 16.1 C 210.3 16.0 210.3 16.0 210.2 16.1 C 210.2 16.1 210.2 16.1 210.2 16.1 Z M 205.4 23.8 C 205.5 23.8 205.5 23.8 205.4 23.8 C 205.4 23.8 205.4 23.8 205.4 23.8 Z M 207.6 21.5 C 207.6 21.5 207.6 21.5 207.6 21.5 C 207.6 21.5 207.6 21.5 207.6 21.5 Z M 200.9 17.3 C 203.4 16.9 200.3 18.2 200.9 17.3 C 200.9 17.3 200.9 17.3 200.9 17.3 Z M 213.9 20.8 C 214.0 21.0 214.0 21.0 213.9 20.8 C 213.9 20.8 213.9 20.8 213.9 20.8 Z M 215.2 18.1 C 215.3 18.3 215.3 18.3 215.2 18.1 C 215.2 18.1 215.2 18.1 215.2 18.1 Z M 215.8 16.7 C 215.9 16.8 215.9 16.8 215.8 16.7 C 215.8 16.7 215.8 16.7 215.8 16.7 Z M 184.8 20.6 C 184.7 20.5 184.7 20.5 184.8 20.6 C 184.8 20.6 184.8 20.6 184.8 20.6 Z M 183.7 16.2 C 183.7 16.2 183.7 16.2 183.7 16.2 C 183.7 16.2 183.7 16.2 183.7 16.2 Z M 187.2 16.0 C 187.2 16.0 187.2 16.0 187.2 16.0 C 187.2 16.0 187.2 16.0 187.2 16.0 Z M 184.1 23.2 C 184.1 23.2 184.1 23.2 184.1 23.2 C 184.1 23.2 184.1 23.2 184.1 23.2 Z M 197.1 19.5 C 197.0 19.4 197.0 19.4 197.1 19.5 C 197.1 19.5 197.1 19.5 197.1 19.5 Z M 198.3 21.3 C 198.2 21.2 198.2 21.2 198.3 21.3 C 198.3 21.3 198.3 21.3 198.3 21.3 Z M 195.3 23.6 C 195.3 23.6 195.3 23.6 195.3 23.6 C 195.3 23.6 195.3 23.6 195.3 23.6 Z M 199.2 22.8 C 199.2 22.8 199.2 22.8 199.2 22.8 C 199.2 22.8 199.2 22.8 199.2 22.8 Z M 175.5 22.4 C 175.4 22.5 175.4 22.5 175.5 22.4 C 175.5 22.4 175.5 22.4 175.5 22.4 Z M 175.2 19.1 C 175.1 19.2 175.1 19.2 175.2 19.1 C 175.2 19.1 175.2 19.1 175.2 19.1 Z M 197.5 17.1 C 198.1 16.4 198.7 18.0 197.5 17.1 M 192.5 17.5 C 192.5 17.6 192.5 17.6 192.5 17.5 C 192.5 17.5 192.5 17.5 192.5 17.5 Z M 205.8 17.2 C 206.4 18.5 203.5 16.5 205.8 17.2 C 205.8 17.2 205.8 17.2 205.8 17.2 Z M 203.2 22.8 C 203.2 22.8 203.2 22.8 203.2 22.8 C 203.2 22.8 203.2 22.8 203.2 22.8 Z M 204.5 22.3 C 204.6 22.4 204.6 22.4 204.5 22.3 C 204.5 22.3 204.5 22.3 204.5 22.3 Z M 211.6 18.6 C 211.7 18.8 211.7 18.8 211.6 18.6 M 191.9 16.3 C 192.7 16.9 192.5 16.8 191.9 16.3 M 207.4 17.3 C 207.4 17.3 207.4 17.3 207.4 17.3 C 207.4 17.3 207.4 17.3 207.4 17.3 Z M 213.2 17.9 C 213.1 17.9 213.1 17.9 213.2 17.9 C 213.2 17.9 213.2 17.9 213.2 17.9 Z M 188.4 17.2 C 188.5 18.8 187.9 18.5 188.4 17.2 M 178.6 17.7 C 178.6 17.9 178.6 17.9 178.6 17.7 C 178.6 17.7 178.6 17.7 178.6 17.7 Z M 178.6 17.7 " fill="#5E416F"></path><path d="M 30.8 2.7 C 31.0 1.9 33.0 1.3 31.6 2.6 C 31.5 2.7 30.7 2.9 30.8 2.7 Z M 27.7 4.5 C 27.9 4.3 28.1 4.3 28.4 4.3 C 29.0 4.7 26.9 5.0 27.7 4.5 Z M 32.6 2.4 C 32.7 2.3 33.7 1.7 33.6 2.0 C 33.5 2.3 32.6 2.5 32.6 2.4 Z M 25.6 7.4 C 25.5 7.1 26.5 6.5 26.8 6.5 C 27.5 6.6 25.9 8.0 25.6 7.4 Z M 34.1 12.6 C 34.1 12.7 34.2 12.8 34.2 12.9 C 34.1 12.8 34.1 12.7 34.1 12.6 Z M 10.7 15.3 C 10.9 15.2 11.4 15.2 11.4 15.5 C 11.5 15.8 10.2 15.8 10.7 15.3 Z M 34.7 33.2 C 34.7 33.2 35.0 32.7 35.1 32.9 C 35.3 33.1 34.9 33.3 34.7 33.2 Z M 35.1 33.1 C 35.4 33.0 35.5 33.5 35.3 33.4 C 35.0 33.3 34.9 33.2 35.1 33.1 Z M 18.5 28.8 C 18.4 28.8 18.2 28.7 18.4 28.7 C 18.6 28.6 18.7 28.9 18.5 28.8 Z M 19.1 28.7 C 19.4 28.6 19.5 29.1 19.2 29.0 C 18.9 28.9 18.8 28.9 19.1 28.7 Z M 21.4 32.0 C 21.3 31.9 21.1 31.9 21.3 31.8 C 21.5 31.8 21.6 32.1 21.4 32.0 Z M 35.6 24.7 C 35.7 24.8 35.5 25.5 35.3 25.4 C 35.0 25.4 35.4 24.5 35.6 24.7 Z M 35.8 25.5 C 36.0 25.5 36.1 25.9 35.8 25.8 C 35.7 25.7 35.6 25.6 35.8 25.5 Z M 35.3 23.0 C 34.9 23.0 34.9 22.2 35.0 22.1 C 35.1 21.9 35.2 21.6 35.3 21.3 C 35.3 21.2 35.7 23.0 35.3 23.0 Z M 34.9 17.5 C 35.1 17.5 35.1 17.5 35.0 17.8 C 34.9 18.0 34.8 17.5 34.9 17.5 Z M 35.1 20.6 C 35.3 20.6 35.3 20.6 35.2 20.9 C 35.1 21.1 35.0 20.6 35.1 20.6 Z M 19.4 10.2 C 19.2 10.1 20.1 9.8 20.1 9.8 C 20.2 9.8 19.9 10.0 20.1 9.9 C 20.4 9.9 20.3 10.7 19.4 10.2 Z M 26.0 5.6 C 26.2 5.5 26.3 5.6 26.3 5.8 C 26.3 5.8 25.6 6.0 26.0 5.6 Z M 21.0 10.5 C 20.9 10.4 21.1 10.3 21.2 10.4 C 21.2 10.5 21.0 10.6 21.0 10.5 Z M 20.5 11.0 C 20.7 10.9 21.2 10.9 21.2 11.1 C 21.3 11.5 19.9 11.5 20.5 11.0 Z M 18.3 10.5 C 18.5 10.3 18.5 10.3 18.4 10.5 C 18.3 10.7 18.3 10.5 18.3 10.5 Z M 22.0 7.7 C 22.3 7.6 22.3 7.6 22.2 7.8 C 22.1 7.9 22.0 7.7 22.0 7.7 Z M 16.7 12.1 C 16.7 12.1 17.0 11.5 17.4 11.8 C 17.9 12.4 16.7 12.1 16.7 12.1 Z M 14.2 14.3 C 14.4 14.3 14.5 14.5 14.2 14.5 C 14.0 14.6 14.0 14.4 14.2 14.3 Z M 13.8 15.9 C 13.4 16.0 13.0 15.9 13.5 15.6 C 14.0 15.4 14.2 15.8 13.8 15.9 Z M 14.2 15.4 C 14.2 15.4 14.0 15.6 14.0 15.5 C 13.9 15.4 14.1 15.3 14.2 15.4 Z M 16.1 13.3 C 16.3 13.0 16.7 13.1 16.4 13.4 C 16.1 13.7 16.0 13.6 16.1 13.3 Z M 35.6 9.8 C 35.5 9.6 35.8 9.6 35.9 9.8 C 36.0 9.9 35.6 10.0 35.6 9.8 Z M 34.3 21.7 C 34.5 21.5 34.5 21.6 34.4 21.9 C 34.3 22.2 34.1 21.8 34.3 21.7 Z M 33.7 29.2 C 33.9 29.0 33.9 29.1 33.8 29.4 C 33.7 29.7 33.5 29.3 33.7 29.2 Z M 34.3 18.6 C 34.4 18.5 35.0 19.3 34.5 19.8 C 33.9 20.2 33.9 18.9 34.3 18.6 Z M 28.3 11.3 C 28.2 11.1 28.5 11.2 28.5 11.2 C 28.4 11.4 28.4 11.4 28.3 11.3 Z M 33.4 20.3 C 33.3 20.1 33.7 20.2 33.8 20.3 C 33.9 20.5 33.5 20.5 33.4 20.3 Z M 34.1 27.8 C 34.3 27.5 34.8 27.7 34.9 27.9 C 35.4 28.5 34.8 28.9 34.5 29.4 C 34.2 29.7 34.0 28.0 34.1 27.8 Z M 34.4 8.0 C 34.3 8.2 34.3 8.3 34.3 8.5 C 34.4 8.5 34.4 8.7 34.3 8.8 C 34.3 9.5 35.0 10.0 35.2 10.5 C 35.6 11.6 34.2 12.0 34.1 12.6 C 34.1 12.5 34.1 12.3 34.0 12.2 C 33.6 11.9 33.8 14.5 33.8 14.7 C 34.1 17.0 34.5 14.3 35.3 14.2 C 35.6 14.2 34.7 15.8 34.7 15.9 C 34.4 16.6 35.1 16.7 34.8 17.3 C 34.7 17.6 33.0 18.4 33.2 18.7 C 33.4 18.9 33.2 19.6 33.2 19.8 C 33.2 20.3 33.3 21.0 33.9 20.6 C 34.3 20.3 34.8 20.2 34.4 20.8 C 34.1 21.2 33.0 23.8 34.3 23.7 C 34.4 23.7 34.7 23.1 34.7 23.1 C 35.0 23.8 34.6 26.0 35.1 26.6 C 36.3 27.7 34.4 26.2 34.1 26.8 C 33.5 27.8 33.2 28.3 33.4 29.6 C 33.4 29.9 33.5 31.1 34.1 30.5 C 34.6 30.1 34.9 30.5 35.0 29.7 C 35.7 30.6 34.5 31.1 34.7 31.3 C 35.1 31.5 35.3 31.0 35.2 31.6 C 35.1 32.4 35.3 32.1 34.7 32.2 C 34.5 32.2 34.3 32.9 34.3 32.9 C 34.3 32.9 34.2 32.9 34.2 32.9 C 34.2 33.5 35.4 34.4 35.1 34.6 C 34.9 34.8 34.1 34.4 33.9 34.4 C 33.8 34.5 33.8 34.5 33.8 34.6 C 33.9 34.8 34.4 35.5 34.3 35.5 C 34.2 35.6 33.1 35.2 33.4 35.5 C 33.7 35.8 33.3 37.1 33.0 37.2 C 32.6 37.2 31.1 37.6 31.0 37.8 C 30.9 38.1 30.2 37.6 30.0 37.5 C 29.8 37.4 29.6 36.8 29.5 36.7 C 29.5 36.5 28.9 36.3 28.9 36.3 C 28.9 36.3 28.6 36.3 28.1 36.1 C 27.7 35.9 27.5 35.4 27.1 34.9 C 26.6 34.4 26.2 34.6 25.6 34.4 C 25.1 34.1 25.1 33.1 24.8 32.7 C 24.4 32.3 24.0 33.0 23.4 32.7 C 22.8 32.4 22.6 32.1 22.8 32.1 C 23.1 32.1 23.0 31.8 22.9 31.7 C 22.7 31.6 22.2 31.0 21.9 31.0 C 21.6 31.0 22.9 32.5 20.8 31.2 C 19.8 30.5 19.5 29.4 19.8 29.5 C 20.6 29.9 19.6 28.0 19.4 28.3 C 19.1 28.6 17.4 27.5 17.5 28.3 C 17.5 28.6 15.6 27.7 15.4 27.4 C 15.3 27.2 14.3 26.9 14.4 26.1 C 14.5 25.8 13.0 25.9 12.8 25.8 C 12.6 25.7 11.2 24.7 11.0 24.4 C 10.8 24.1 11.5 24.5 11.8 24.7 C 12.1 24.9 12.4 25.4 12.7 25.5 C 13.0 25.6 12.6 25.0 12.3 24.7 C 11.9 24.5 12.0 24.2 11.8 23.9 C 11.6 23.9 11.4 23.7 11.1 23.5 C 11.0 23.4 10.8 23.4 10.8 23.5 C 10.7 23.7 10.8 24.0 10.7 24.0 C 10.6 24.1 10.3 24.1 9.9 23.8 C 9.4 23.5 9.1 23.3 8.6 22.8 C 8.2 22.3 7.9 22.3 7.5 22.2 C 7.1 22.0 6.8 21.7 6.8 21.6 C 6.9 21.4 7.4 21.6 7.5 21.6 C 7.6 21.5 7.3 20.8 7.1 20.7 C 6.1 19.9 7.5 19.5 6.5 18.8 C 5.9 18.3 6.8 18.4 7.3 18.3 C 7.2 18.1 7.2 18.1 7.7 17.7 C 7.6 17.5 8.4 17.3 8.7 17.0 C 8.9 16.9 10.0 15.8 9.4 16.7 C 9.4 16.7 9.3 16.8 9.3 16.9 C 9.3 16.9 9.3 16.9 9.3 16.9 C 9.3 16.9 9.3 17.6 9.3 17.6 C 9.3 17.6 9.4 16.9 9.4 16.9 C 9.6 17.0 9.9 17.1 10.1 17.2 C 10.1 17.1 10.2 17.0 10.2 16.9 C 10.2 16.9 10.2 16.9 10.2 16.8 C 10.2 16.8 10.2 16.8 10.2 16.8 C 10.1 16.6 10.1 16.6 10.3 16.5 C 10.7 16.0 12.0 15.7 12.5 15.6 C 12.0 17.5 14.1 16.2 14.7 15.6 C 15.3 15.0 14.4 13.7 14.1 13.9 C 14.6 13.6 14.8 13.7 15.2 14.0 C 15.1 14.0 16.2 14.5 16.2 14.5 C 17.6 14.3 16.7 13.3 16.9 13.0 C 17.1 12.6 17.5 12.4 17.8 12.1 C 18.1 11.8 17.6 11.7 17.7 11.5 C 17.8 10.7 19.2 11.2 19.6 11.1 C 19.4 11.4 19.1 11.7 18.9 12.0 C 19.2 11.5 19.8 12.0 20.0 12.0 C 20.5 11.9 20.9 11.5 21.3 11.3 C 21.9 10.9 22.5 10.3 23.1 9.8 C 22.8 9.8 21.4 9.7 21.3 9.7 C 21.5 9.6 22.2 9.4 21.7 9.0 C 20.8 8.4 22.7 7.9 23.0 7.7 C 23.9 7.3 24.4 5.9 25.8 6.3 C 25.8 6.3 24.6 7.3 24.8 7.4 C 25.5 8.0 26.1 8.2 26.9 7.5 C 27.0 7.3 27.9 6.0 27.9 6.0 C 27.9 6.1 25.6 5.1 27.1 5.0 C 27.3 5.0 27.1 5.5 27.4 5.5 C 27.9 5.4 28.4 5.0 28.9 4.8 C 28.9 4.7 29.8 4.6 29.8 4.5 C 29.8 4.2 29.6 3.8 29.8 3.5 C 30.0 3.2 30.4 3.3 30.6 3.5 C 30.6 3.6 30.6 3.6 30.6 3.6 C 30.7 3.6 30.8 3.6 30.9 3.8 C 31.0 3.7 31.2 3.6 31.4 3.7 C 31.5 3.7 31.2 3.9 31.0 3.9 C 31.0 4.0 31.0 4.1 31.1 4.2 C 31.4 4.0 31.7 3.7 31.7 3.6 C 32.1 2.9 31.9 2.6 33.2 2.8 C 34.3 3.0 34.9 5.4 34.6 6.9 C 34.7 7.2 34.7 7.5 34.4 8.0 Z M 10.7 22.7 C 10.7 22.7 10.7 22.7 10.8 22.8 C 10.8 22.6 10.9 22.5 11.0 22.4 C 10.7 22.1 10.9 22.7 10.6 22.4 C 10.3 22.2 10.3 22.3 10.7 22.7 Z M 10.9 19.3 C 10.6 19.3 10.7 19.4 10.8 19.5 C 10.9 19.5 10.9 19.4 10.9 19.3 Z M 10.2 17.9 C 9.9 18.3 10.9 18.4 11.4 17.9 C 10.8 17.8 10.4 17.8 10.2 17.9 Z M 10.9 16.7 C 10.9 16.8 10.9 16.9 10.9 17.0 C 11.0 17.2 11.3 16.7 11.3 16.9 C 11.4 17.1 11.1 17.5 11.4 17.5 C 11.5 17.5 11.6 17.4 11.7 17.4 C 11.7 17.4 11.8 17.3 11.8 17.2 C 11.8 16.9 11.2 16.6 10.9 16.7 Z M 13.2 22.9 C 12.9 22.8 13.0 23.0 13.2 23.0 C 13.4 23.1 13.4 22.9 13.2 22.9 Z M 14.9 25.5 C 14.8 25.3 14.5 25.2 14.6 25.5 C 14.6 25.8 15.0 25.8 14.9 25.5 Z M 18.6 21.6 C 18.4 21.7 18.5 21.7 18.6 21.8 C 18.9 21.9 18.7 21.6 18.6 21.6 Z M 18.7 18.9 C 18.9 18.7 18.6 18.4 18.5 18.6 C 18.5 18.8 18.6 19.0 18.7 18.9 Z M 18.4 25.2 C 18.6 25.2 18.6 25.0 18.4 25.0 C 18.2 25.0 18.2 25.1 18.4 25.2 Z M 17.8 21.4 C 18.0 21.7 18.1 21.7 18.2 21.6 C 18.3 21.5 18.2 21.3 18.0 21.2 C 17.7 21.0 17.6 21.1 17.8 21.4 Z M 17.6 19.1 C 18.3 18.7 18.1 18.4 17.4 19.0 C 16.7 19.6 17.2 19.4 17.6 19.1 Z M 16.3 27.4 C 16.3 27.3 15.8 27.2 15.8 27.2 C 15.8 27.2 16.7 27.9 16.3 27.4 Z M 17.8 12.8 C 17.6 12.9 17.5 13.3 17.9 13.1 C 18.3 12.9 18.1 12.7 17.8 12.8 Z M 19.2 14.0 C 18.6 13.5 18.1 13.7 18.1 13.7 C 18.2 13.7 18.3 14.2 18.2 14.3 C 17.8 14.8 17.0 14.6 16.8 15.2 C 16.5 15.8 17.6 15.3 17.7 15.1 C 17.6 15.3 17.6 15.4 17.6 15.6 C 17.8 15.7 18.0 15.6 18.1 15.4 C 18.2 15.1 19.8 14.4 19.2 14.0 Z M 19.2 20.6 C 18.9 20.5 18.6 20.7 18.8 20.9 C 19.0 21.2 19.3 21.4 19.4 21.3 C 19.5 21.2 19.4 20.7 19.2 20.6 Z M 19.4 22.7 C 19.1 22.8 19.2 22.8 19.4 22.9 C 19.9 23.1 19.7 22.5 19.4 22.7 Z M 23.2 31.5 C 23.5 31.4 23.0 31.1 23.0 31.3 C 22.9 31.4 23.0 31.5 23.2 31.5 Z M 23.1 28.0 C 23.7 28.1 23.2 27.6 23.1 27.6 C 23.0 27.6 22.8 27.9 23.1 28.0 Z M 21.1 25.9 C 21.3 26.0 21.1 25.7 20.9 25.7 C 20.8 25.8 20.9 25.9 21.1 25.9 Z M 20.8 24.6 C 21.0 24.7 21.0 24.3 20.7 24.3 C 20.5 24.3 20.6 24.5 20.8 24.6 Z M 21.9 13.4 C 21.9 13.4 22.0 13.9 22.2 13.4 C 22.5 13.0 22.5 13.0 21.9 13.4 Z M 20.9 17.4 C 20.6 17.6 20.3 17.9 20.7 19.0 C 21.0 20.2 21.3 19.7 21.4 19.0 C 21.6 18.4 22.1 20.2 22.4 18.9 C 22.5 18.4 21.3 17.1 20.9 17.4 Z M 22.9 24.5 C 22.5 23.8 21.5 24.0 22.0 24.4 C 22.7 24.9 23.2 25.1 22.9 24.5 Z M 22.9 25.0 C 22.8 24.9 22.8 25.0 23.0 25.1 C 23.2 25.3 23.1 25.0 22.9 25.0 Z M 22.4 8.5 C 21.3 9.5 23.1 9.4 23.1 9.4 C 24.5 9.0 23.4 7.5 22.4 8.5 Z M 33.6 32.3 C 33.6 32.2 33.6 32.2 33.6 32.1 C 33.6 32.1 33.6 32.1 33.6 32.1 C 33.4 31.9 33.2 32.3 33.2 32.3 C 33.3 32.4 33.5 32.4 33.6 32.3 Z M 33.9 25.1 C 33.9 25.4 33.9 25.6 34.1 25.8 C 34.7 25.7 34.7 23.5 33.6 24.4 C 33.5 24.5 32.5 25.9 33.1 26.0 C 33.4 26.1 33.9 24.4 33.9 25.1 Z M 33.0 27.4 C 33.1 26.5 32.2 28.1 32.6 27.9 C 32.8 27.8 33.0 27.6 33.0 27.4 Z M 31.0 33.7 C 31.5 34.8 33.2 34.6 32.3 32.8 C 31.4 31.1 30.7 31.0 30.9 31.9 C 31.2 32.8 30.3 32.0 31.0 33.7 Z M 31.0 24.4 C 32.3 24.6 31.9 24.1 31.0 23.8 C 30.8 23.7 30.3 24.3 31.0 24.4 Z M 30.8 21.8 C 31.0 21.5 30.9 21.5 30.7 21.7 C 30.5 21.9 30.7 22.2 30.8 21.8 Z M 29.3 35.6 C 29.5 36.0 30.0 36.3 29.7 36.3 C 29.4 36.3 29.6 36.4 29.8 36.6 C 30.0 37.0 30.0 36.4 30.0 36.1 C 30.0 35.8 29.1 35.1 29.3 35.6 Z M 25.2 25.6 C 25.4 25.7 25.3 25.4 25.1 25.4 C 24.9 25.4 25.0 25.5 25.2 25.6 Z M 23.9 15.8 C 23.9 15.8 24.0 16.1 24.1 15.8 C 24.3 15.6 24.3 15.6 23.9 15.8 Z M 24.3 7.9 C 24.1 8.1 24.7 8.1 24.6 8.5 C 24.6 8.7 24.3 8.5 24.3 8.4 C 24.3 8.5 24.5 9.4 24.8 8.8 C 25.0 8.5 24.8 7.4 24.3 7.9 Z M 25.5 22.9 C 25.1 22.4 24.8 24.1 24.5 23.8 C 24.2 23.6 24.1 23.7 24.5 24.1 C 24.9 24.5 25.9 23.3 25.5 22.9 Z M 25.8 27.1 C 25.7 26.8 24.9 26.1 25.1 26.5 C 25.3 27.0 25.8 27.2 25.5 27.3 C 25.2 27.3 25.3 27.3 25.6 27.6 C 25.8 27.9 25.8 27.3 25.8 27.1 Z M 26.1 34.0 C 26.0 33.9 25.5 33.7 25.7 34.0 C 25.8 34.2 26.1 34.2 26.1 34.0 Z M 26.5 14.6 C 26.4 14.9 26.5 15.0 26.8 14.7 C 27.1 14.4 26.6 14.3 26.5 14.6 Z M 27.2 33.4 C 26.9 33.0 27.1 33.7 26.8 33.4 C 26.5 33.1 26.5 33.3 26.9 33.7 C 27.2 34.0 27.6 33.9 27.2 33.4 Z M 27.6 8.2 C 27.5 8.4 27.7 8.7 27.8 8.5 C 27.9 8.3 27.6 8.1 27.6 8.2 Z M 28.6 10.9 C 28.5 10.9 28.4 10.9 28.2 11.0 C 26.6 12.2 29.7 11.3 28.6 10.9 Z M 28.3 14.9 C 28.2 14.3 27.9 15.0 28.0 15.0 C 28.2 15.1 28.3 15.1 28.3 14.9 Z M 28.4 19.3 C 28.6 19.4 28.5 19.0 28.3 19.0 C 28.1 19.1 28.2 19.2 28.4 19.3 Z M 29.2 5.0 C 28.9 5.1 29.0 5.3 29.2 5.2 C 29.3 5.2 29.4 5.0 29.2 5.0 Z M 29.3 16.1 C 29.2 16.0 29.2 16.0 29.3 16.2 C 29.3 16.4 29.4 16.1 29.3 16.1 Z M 29.4 29.5 C 29.3 29.4 29.2 29.3 29.1 29.2 C 28.8 29.3 28.7 30.1 28.5 30.1 C 28.4 30.1 28.4 30.1 28.4 30.1 C 28.4 30.1 28.4 30.1 28.4 30.1 C 28.2 30.1 28.1 30.0 28.2 29.9 C 28.1 29.8 28.1 29.7 28.1 29.5 C 27.8 29.8 27.6 30.1 27.8 30.3 C 28.1 30.6 28.7 30.6 29.2 30.6 C 29.3 30.4 29.3 30.2 29.4 30.0 C 29.4 30.0 29.3 30.0 29.3 30.0 C 29.0 29.9 28.9 29.6 29.1 29.6 C 29.3 29.6 29.4 29.7 29.4 29.8 C 29.4 29.7 29.4 29.6 29.4 29.5 Z M 30.0 17.7 C 29.8 17.4 29.7 17.6 29.5 18.1 C 29.5 18.4 30.1 18.1 30.0 17.7 Z M 29.6 5.6 C 29.6 5.7 29.7 5.8 29.8 5.9 C 29.8 5.8 29.8 5.8 29.8 5.7 C 29.9 5.4 29.9 5.2 30.0 5.0 C 29.7 5.0 29.5 5.1 29.6 5.6 Z M 30.9 9.4 C 30.8 9.3 30.9 7.7 30.5 8.0 C 30.0 8.4 29.4 7.7 29.6 8.9 C 29.8 9.4 30.6 9.9 30.7 10.5 C 31.4 13.3 31.5 9.7 31.6 9.0 C 31.7 8.8 31.0 9.6 30.9 9.4 Z M 31.7 13.1 C 32.0 13.3 32.3 12.8 32.3 12.6 C 32.2 11.9 31.4 13.0 31.7 13.1 Z M 32.1 5.2 C 32.1 5.2 32.1 5.2 32.0 5.2 C 32.0 5.2 32.1 5.3 32.2 5.3 C 32.2 5.3 32.2 5.2 32.1 5.2 Z M 32.5 3.2 C 31.6 3.9 33.1 3.9 33.5 3.7 C 34.1 3.5 32.9 2.8 32.5 3.2 Z M 33.1 11.0 C 33.0 11.6 34.7 12.2 34.6 11.2 C 34.5 10.3 33.2 9.8 33.1 11.0 Z M 35.2 16.9 C 35.0 16.7 35.3 16.1 35.5 16.4 C 35.7 16.6 35.3 17.0 35.2 16.9 Z M 36.1 8.1 C 36.0 8.3 35.9 8.1 35.9 8.1 C 36.2 7.9 36.2 7.9 36.1 8.1 Z M 34.9 8.9 C 35.0 8.7 35.1 8.3 35.2 8.1 C 35.2 7.9 35.4 8.5 35.4 8.5 C 35.3 8.8 34.9 8.9 34.9 8.9 Z M 34.7 13.7 C 34.9 13.4 34.9 13.8 34.9 14.0 C 34.8 14.1 34.6 13.8 34.7 13.7 Z M 35.1 12.5 C 35.1 12.7 34.9 12.6 34.9 12.4 C 34.9 12.1 35.2 12.4 35.1 12.5 Z M 34.2 14.5 C 34.0 14.0 33.9 13.3 34.4 13.4 C 34.6 13.4 34.5 15.5 34.2 14.5 Z M 34.2 14.5 " fill="#5E416F"></path></g></svg>