<?xml version="1.0" encoding="UTF-8" standalone="no"?><svg xmlns="http://www.w3.org/2000/svg" xmlns:xlink="http://www.w3.org/1999/xlink" clip-rule="evenodd" stroke-miterlimit="10" viewBox="0 0 218 40"><desc>SVG generated by Keynote</desc><defs></defs><g transform="matrix(1.00, 0.00, -0.00, -1.00, 0.0, 40.0)"><path d="M 42.2 18.0 C 41.8 18.2 40.9 17.9 40.6 18.1 M 42.2 18.0 C 41.2 16.5 39.5 16.4 37.1 16.1 C 34.6 16.1 37.2 17.5 36.9 18.1 C 33.6 18.7 33.6 17.6 34.1 16.0 C 32.8 17.1 29.0 15.2 29.8 17.2 C 35.2 17.2 26.0 17.7 30.5 18.8 C 31.0 19.1 29.7 19.6 29.2 19.6 C 30.7 20.5 28.2 21.4 30.5 22.0 C 30.9 23.2 30.4 22.7 32.0 23.7 C 32.6 23.8 32.3 23.4 32.3 23.1 C 32.5 21.6 34.1 23.9 35.4 23.0 C 36.5 24.9 37.7 22.7 36.7 21.9 C 37.8 22.1 39.1 24.1 40.3 22.7 C 40.9 23.6 44.0 23.0 42.1 21.8 C 40.8 21.1 42.3 20.5 42.5 20.0 C 42.0 19.6 40.2 20.2 39.9 19.9 C 40.5 19.6 42.9 18.9 40.3 18.9 C 41.1 18.3 39.9 17.9 42.2 18.0 C 42.2 18.0 42.2 18.0 42.2 18.0 Z M 33.1 16.9 C 33.1 16.4 34.0 16.9 33.1 16.9 C 33.1 16.9 33.1 16.9 33.1 16.9 Z M 39.3 23.7 C 39.3 23.2 40.2 23.7 39.3 23.7 C 39.3 23.7 39.3 23.7 39.3 23.7 Z M 32.7 23.1 C 32.7 22.6 33.6 23.1 32.7 23.1 C 32.7 23.1 32.7 23.1 32.7 23.1 Z M 35.5 17.2 C 36.9 17.6 34.3 17.9 34.1 17.4 C 34.4 17.5 35.2 16.8 35.5 17.2 C 35.5 17.2 35.5 17.2 35.5 17.2 Z M 35.7 20.1 C 35.8 20.0 36.4 19.9 36.3 20.4 C 36.0 20.5 35.6 20.3 35.7 20.1 C 35.7 20.1 35.7 20.1 35.7 20.1 Z M 28.6 18.1 C 28.7 17.9 29.3 17.8 29.3 18.3 C 28.9 18.5 28.5 18.2 28.6 18.1 C 28.6 18.1 28.6 18.1 28.6 18.1 Z M 37.1 18.6 C 37.5 18.6 37.6 19.1 37.2 19.2 C 37.0 18.9 36.0 18.9 37.1 18.6 C 37.1 18.6 37.1 18.6 37.1 18.6 Z M 39.4 16.9 C 40.5 17.1 38.1 17.9 38.2 17.6 C 37.8 17.3 38.7 16.5 39.4 16.9 C 39.4 16.9 39.4 16.9 39.4 16.9 Z M 37.8 19.2 C 38.8 19.5 37.4 19.6 37.8 19.2 C 37.8 19.2 37.8 19.2 37.8 19.2 Z M 29.6 21.8 C 30.6 22.1 29.2 22.2 29.6 21.8 C 29.6 21.8 29.6 21.8 29.6 21.8 Z M 34.8 23.4 C 35.8 23.6 34.4 23.8 34.8 23.4 C 34.8 23.4 34.8 23.4 34.8 23.4 Z M 32.9 18.2 C 31.2 18.2 32.6 16.9 32.9 18.2 C 32.9 18.2 32.9 18.2 32.9 18.2 Z M 42.1 16.7 C 40.4 16.7 41.9 15.5 42.1 16.7 C 42.1 16.7 42.1 16.7 42.1 16.7 Z M 210.2 17.2 C 211.8 16.9 205.7 15.3 208.0 17.2 C 208.7 18.9 204.5 18.7 205.6 17.2 C 204.3 17.0 204.3 17.0 203.6 17.7 C 203.4 16.5 200.5 15.9 199.5 16.5 C 198.9 17.6 201.5 16.7 199.8 17.8 C 196.2 18.1 200.0 18.9 198.7 20.3 C 198.5 20.3 198.5 19.6 198.1 20.0 C 198.0 21.2 200.1 22.1 199.1 23.1 C 199.7 22.9 202.3 24.3 201.2 23.2 C 200.8 22.0 204.1 24.6 203.8 22.6 C 204.7 23.5 205.6 22.3 206.4 23.4 C 207.1 23.6 207.1 22.6 207.0 22.3 C 206.9 21.4 207.8 24.4 208.8 22.8 C 208.9 23.2 211.8 23.1 209.6 22.3 C 210.2 22.5 213.6 22.9 211.8 21.2 C 209.5 20.3 214.2 19.3 211.5 19.2 C 209.4 19.1 209.0 19.4 210.5 18.5 C 211.0 18.6 213.4 18.4 211.4 17.6 C 210.9 17.9 209.9 17.7 210.2 17.2 C 210.2 17.2 210.2 17.2 210.2 17.2 Z M 210.7 19.8 C 209.4 19.9 210.6 19.1 210.7 19.8 C 210.7 19.8 210.7 19.8 210.7 19.8 Z M 206.3 23.8 C 205.0 23.9 206.2 23.1 206.3 23.8 C 206.3 23.8 206.3 23.8 206.3 23.8 Z M 206.4 16.8 C 205.8 17.3 205.6 15.4 206.4 16.8 C 206.4 16.8 206.4 16.8 206.4 16.8 Z M 208.3 22.3 C 208.2 22.3 208.5 22.1 208.7 22.0 C 208.7 22.1 208.4 22.3 208.3 22.3 C 208.3 22.3 208.3 22.3 208.3 22.3 Z M 204.4 16.8 C 202.6 17.6 204.0 15.3 204.4 16.8 C 204.4 16.8 204.4 16.8 204.4 16.8 Z M 200.7 18.5 C 200.5 20.3 198.8 18.1 200.7 18.5 C 200.7 18.5 200.7 18.5 200.7 18.5 Z M 203.2 22.5 C 203.6 22.1 203.6 22.7 203.2 22.5 C 203.2 22.5 203.2 22.5 203.2 22.5 Z M 211.2 22.8 C 211.5 22.4 211.5 23.0 211.2 22.8 C 211.2 22.8 211.2 22.8 211.2 22.8 Z M 201.0 22.3 C 201.1 21.7 201.6 22.7 201.0 22.3 C 201.0 22.3 201.0 22.3 201.0 22.3 Z M 206.1 17.5 C 207.7 16.0 208.1 19.6 206.1 17.5 C 206.1 17.5 206.1 17.5 206.1 17.5 Z M 209.1 17.3 C 210.2 17.0 208.9 18.3 208.4 18.0 C 208.4 17.9 208.9 17.4 209.1 17.3 C 209.1 17.3 209.1 17.3 209.1 17.3 Z M 204.3 17.7 C 205.5 16.9 205.4 18.0 204.3 17.7 C 204.3 17.7 204.3 17.7 204.3 17.7 Z M 207.2 16.9 C 207.8 17.0 206.7 17.0 207.2 16.9 C 207.2 16.9 207.2 16.9 207.2 16.9 Z M 202.1 16.1 C 202.6 16.3 201.6 16.3 202.1 16.1 C 202.1 16.1 202.1 16.1 202.1 16.1 Z M 210.5 16.6 C 211.0 16.8 210.0 16.8 210.5 16.6 C 210.5 16.6 210.5 16.6 210.5 16.6 Z M 202.6 17.1 C 202.4 17.8 204.0 19.2 201.1 18.0 C 200.6 17.5 201.8 16.6 202.6 17.1 C 202.6 17.1 202.6 17.1 202.6 17.1 Z M 47.2 18.0 C 40.0 16.0 41.8 19.6 41.4 20.2 C 40.5 21.2 41.4 21.8 42.8 22.5 C 44.3 24.8 45.1 20.2 46.1 22.4 C 48.1 25.4 48.3 19.8 49.1 23.0 C 48.8 23.8 51.6 23.1 51.4 22.9 C 52.8 24.4 54.7 21.7 54.8 21.4 C 55.7 21.9 55.8 24.7 58.7 22.6 C 60.9 21.8 61.9 24.6 61.2 22.7 C 62.9 24.9 62.4 22.1 64.0 22.8 C 65.1 24.0 64.0 20.9 66.1 23.2 C 67.0 21.4 65.1 24.5 70.6 23.1 C 68.0 23.0 73.2 21.7 72.2 22.9 C 70.3 24.2 74.8 22.4 77.3 23.2 C 77.9 22.5 80.9 20.9 80.4 22.7 C 83.0 24.8 83.1 21.4 84.2 23.1 C 85.0 23.9 85.3 22.3 85.9 22.4 C 86.8 23.7 87.7 22.9 90.9 23.2 C 97.9 23.9 91.9 19.9 94.6 19.5 C 95.1 18.8 91.2 14.6 92.7 17.8 C 92.2 16.9 86.5 20.2 89.3 16.7 C 87.1 18.1 89.8 15.2 85.4 16.9 C 91.4 19.4 78.5 17.9 84.3 16.7 C 83.4 16.0 81.0 16.1 82.7 16.7 C 83.4 19.0 78.5 15.7 81.0 18.5 C 77.3 17.7 78.2 20.2 77.2 18.4 C 76.3 15.5 77.4 19.2 75.5 18.3 C 71.1 18.3 74.5 14.9 71.9 17.2 C 67.6 15.7 70.9 18.5 69.4 18.8 C 69.0 20.9 65.1 17.3 68.3 17.0 C 66.6 18.1 68.0 16.0 66.1 17.3 C 67.5 19.2 63.5 15.3 64.1 16.8 C 62.4 17.3 63.3 18.4 62.7 18.5 C 60.1 18.5 60.9 16.6 60.4 18.0 C 59.8 18.8 58.6 16.3 58.2 16.9 C 60.9 17.0 56.0 18.9 55.7 17.9 C 57.4 17.8 54.9 15.4 53.9 16.9 C 55.2 21.1 51.5 15.8 50.3 17.3 C 51.5 19.6 44.5 17.6 47.1 16.5 C 46.9 16.7 47.2 18.0 47.2 18.0 M 57.5 17.3 C 59.7 17.5 55.1 17.7 57.5 17.3 M 57.4 16.7 C 58.3 17.4 55.3 16.1 57.5 16.4 C 57.5 16.4 57.2 16.6 57.4 16.7 M 66.5 16.6 C 66.2 17.2 65.3 16.2 66.5 16.6 M 68.2 18.0 C 69.7 18.6 66.3 18.1 68.2 18.0 M 88.4 17.5 C 86.4 21.0 86.3 15.6 88.4 17.5 M 75.1 16.8 C 72.6 17.3 75.9 15.4 75.1 16.8 M 74.3 17.7 C 73.2 18.3 74.1 16.9 74.3 17.7 M 84.6 17.6 C 84.7 17.6 84.7 17.6 84.6 17.6 C 84.6 17.6 84.6 17.6 84.6 17.6 Z M 90.5 17.6 C 90.6 17.6 90.6 17.6 90.5 17.6 C 90.5 17.6 90.5 17.6 90.5 17.6 Z M 78.8 17.9 C 76.9 17.1 81.8 17.6 78.8 17.9 C 78.8 17.9 78.8 17.9 78.8 17.9 Z M 87.7 22.8 C 87.6 22.9 87.6 22.9 87.7 22.8 C 87.7 22.8 87.7 22.8 87.7 22.8 Z M 55.7 18.8 C 55.6 18.9 55.6 18.9 55.7 18.8 C 55.7 18.8 55.7 18.8 55.7 18.8 Z M 48.9 17.5 C 49.0 18.0 47.7 17.2 48.9 17.5 C 48.9 17.5 48.9 17.5 48.9 17.5 Z M 43.4 21.5 C 43.3 21.5 43.3 21.5 43.4 21.5 C 43.4 21.5 43.4 21.5 43.4 21.5 Z M 53.4 20.6 C 53.4 20.7 53.4 20.7 53.4 20.6 C 53.4 20.6 53.4 20.6 53.4 20.6 Z M 54.4 18.1 C 53.3 16.2 57.0 18.6 54.4 18.1 C 54.4 18.1 54.4 18.1 54.4 18.1 Z M 76.5 22.6 C 76.5 21.8 78.1 22.9 76.5 22.6 C 76.5 22.6 76.5 22.6 76.5 22.6 Z M 68.5 18.8 C 68.8 18.3 69.5 19.0 68.5 18.8 C 68.5 18.8 68.5 18.8 68.5 18.8 Z M 64.8 16.2 C 65.1 15.8 65.7 16.4 64.8 16.2 C 64.8 16.2 64.8 16.2 64.8 16.2 Z M 49.0 17.0 C 49.2 16.9 49.2 16.9 49.0 17.0 C 49.0 17.0 49.0 17.0 49.0 17.0 Z M 51.5 18.4 C 49.8 16.7 54.1 19.4 51.5 18.4 C 51.5 18.4 51.5 18.4 51.5 18.4 Z M 48.6 19.0 C 49.5 19.6 46.4 18.7 48.6 19.0 M 50.2 21.7 C 52.3 20.9 48.4 24.8 50.2 21.7 C 50.2 21.7 50.2 21.7 50.2 21.7 Z M 60.7 22.4 C 60.8 22.4 60.8 22.4 60.7 22.4 C 60.7 22.4 60.7 22.4 60.7 22.4 Z M 59.6 17.2 C 61.4 17.3 58.4 17.6 59.6 17.2 C 59.6 17.2 59.6 17.2 59.6 17.2 Z M 43.8 16.8 C 45.7 16.9 42.7 17.2 43.8 16.8 C 43.8 16.8 43.8 16.8 43.8 16.8 Z M 66.8 20.6 C 69.8 20.4 65.0 21.6 66.8 20.6 C 66.8 20.6 66.8 20.6 66.8 20.6 Z M 77.7 18.6 C 77.8 18.6 77.8 18.6 77.7 18.6 C 77.7 18.6 77.7 18.6 77.7 18.6 Z M 79.8 17.9 C 79.8 17.9 79.8 17.9 79.8 17.9 C 79.8 17.9 79.8 17.9 79.8 17.9 Z M 88.2 19.7 C 88.4 19.8 88.4 19.8 88.2 19.7 C 88.2 19.7 88.2 19.7 88.2 19.7 Z M 81.6 17.0 C 81.7 17.1 81.7 17.1 81.6 17.0 C 81.6 17.0 81.6 17.0 81.6 17.0 Z M 87.5 17.5 C 87.6 17.5 87.6 17.5 87.5 17.5 C 87.5 17.5 87.5 17.5 87.5 17.5 Z M 86.6 16.0 C 86.8 16.0 86.8 16.0 86.6 16.0 C 86.6 16.0 86.6 16.0 86.6 16.0 Z M 73.6 23.7 C 73.7 23.7 73.7 23.7 73.6 23.7 C 73.6 23.7 73.6 23.7 73.6 23.7 Z M 52.2 16.4 C 52.4 16.6 52.4 16.6 52.2 16.4 C 52.2 16.4 52.2 16.4 52.2 16.4 Z M 87.0 18.2 C 87.1 18.2 87.1 18.2 87.0 18.2 C 87.0 18.2 87.0 18.2 87.0 18.2 Z M 72.7 19.6 C 72.7 21.1 71.5 17.6 73.0 19.5 C 73.0 19.6 72.6 19.3 72.7 19.6 M 74.6 22.1 C 74.5 22.1 74.5 22.1 74.6 22.1 C 74.6 22.1 74.6 22.1 74.6 22.1 Z M 68.1 23.0 C 68.0 23.0 68.0 23.0 68.1 23.0 C 68.1 23.0 68.1 23.0 68.1 23.0 Z M 80.6 16.7 C 80.3 15.9 82.2 17.4 80.3 16.8 M 88.3 22.3 C 88.0 21.5 89.9 23.0 88.0 22.4 M 41.8 17.4 C 41.5 18.0 40.5 17.0 41.8 17.4 M 66.7 23.8 C 66.4 24.4 65.4 23.4 66.7 23.8 M 69.7 21.9 C 69.4 21.0 71.3 22.5 69.5 21.9 M 83.8 22.3 C 83.9 22.3 83.9 22.3 83.8 22.3 C 83.8 22.3 83.8 22.3 83.8 22.3 Z M 62.4 17.4 C 62.5 17.4 62.5 17.4 62.4 17.4 C 62.4 17.4 62.4 17.4 62.4 17.4 Z M 70.3 19.2 C 69.2 18.0 71.7 19.9 70.3 19.2 M 60.1 19.4 C 58.5 18.0 62.6 19.9 60.1 19.4 M 91.7 22.7 C 89.9 20.9 92.9 23.6 91.7 22.7 M 82.9 18.3 C 81.2 16.6 84.2 19.3 82.9 18.3 M 64.0 18.1 C 63.9 17.2 65.7 18.6 64.0 18.1 M 45.9 17.2 C 44.2 17.1 48.1 16.5 45.9 17.2 M 79.5 22.3 C 79.6 22.4 79.6 22.4 79.5 22.3 C 79.5 22.3 79.5 22.3 79.5 22.3 Z M 51.3 23.8 C 51.4 23.9 51.4 23.9 51.3 23.8 C 51.3 23.8 51.3 23.8 51.3 23.8 Z M 93.9 17.0 C 94.0 17.1 94.0 17.1 93.9 17.0 C 93.9 17.0 93.9 17.0 93.9 17.0 Z M 81.9 19.1 C 81.9 19.3 81.9 19.3 81.9 19.1 C 81.9 19.1 81.9 19.1 81.9 19.1 Z M 90.5 16.8 C 90.6 16.9 90.6 16.9 90.5 16.8 C 90.5 16.8 90.5 16.8 90.5 16.8 Z M 76.4 20.5 C 76.4 20.5 76.4 20.5 76.4 20.5 C 76.4 20.5 76.4 20.5 76.4 20.5 Z M 75.3 16.1 C 75.3 16.1 75.3 16.1 75.3 16.1 C 75.3 16.1 75.3 16.1 75.3 16.1 Z M 69.3 18.0 C 69.3 18.0 69.3 18.0 69.3 18.0 C 69.3 18.0 69.3 18.0 69.3 18.0 Z M 78.0 16.4 C 81.6 16.2 76.2 17.9 78.0 16.4 C 78.0 16.4 78.0 16.4 78.0 16.4 Z M 71.8 20.8 C 71.9 20.9 71.9 20.9 71.8 20.8 C 71.8 20.8 71.8 20.8 71.8 20.8 Z M 71.3 17.7 C 73.6 16.5 72.5 19.8 71.3 17.7 M 61.3 16.7 C 62.0 16.0 61.7 17.7 61.3 16.7 M 57.3 22.4 C 57.3 22.5 57.3 22.5 57.3 22.4 C 57.3 22.4 57.3 22.4 57.3 22.4 Z M 58.4 22.0 C 58.5 22.1 58.5 22.1 58.4 22.0 C 58.4 22.0 58.4 22.0 58.4 22.0 Z M 58.9 16.4 C 59.0 16.4 59.0 16.4 58.9 16.4 C 58.9 16.4 58.9 16.4 58.9 16.4 Z M 58.6 23.7 C 58.7 23.7 58.7 23.7 58.6 23.7 C 58.6 23.7 58.6 23.7 58.6 23.7 Z M 73.9 16.2 C 74.0 16.2 74.0 16.2 73.9 16.2 C 73.9 16.2 73.9 16.2 73.9 16.2 Z M 92.3 16.1 C 92.3 16.2 92.3 16.2 92.3 16.1 C 92.3 16.1 92.3 16.1 92.3 16.1 Z M 46.4 21.8 C 46.5 21.9 46.5 21.9 46.4 21.8 C 46.4 21.8 46.4 21.8 46.4 21.8 Z M 75.8 17.9 C 75.9 18.0 75.9 18.0 75.8 17.9 C 75.8 17.9 75.8 17.9 75.8 17.9 Z M 54.7 22.2 C 54.8 22.3 54.8 22.3 54.7 22.2 C 54.7 22.2 54.7 22.2 54.7 22.2 Z M 74.6 17.6 C 74.7 17.6 74.7 17.6 74.6 17.6 C 74.6 17.6 74.6 17.6 74.6 17.6 Z M 79.0 22.7 C 79.0 22.7 79.0 22.7 79.0 22.7 C 79.0 22.7 79.0 22.7 79.0 22.7 Z M 82.9 23.7 C 83.0 23.7 83.0 23.7 82.9 23.7 C 82.9 23.7 82.9 23.7 82.9 23.7 Z M 78.7 19.6 C 78.8 19.7 78.8 19.7 78.7 19.6 C 78.7 19.6 78.7 19.6 78.7 19.6 Z M 53.5 20.3 C 46.2 18.8 59.2 19.6 53.5 20.3 M 79.9 20.0 C 74.9 19.6 83.9 18.3 79.9 20.0 C 80.5 19.5 80.0 19.9 79.9 20.0 M 95.7 16.3 C 93.6 17.9 93.6 19.5 94.5 21.1 C 95.5 22.0 95.5 18.7 95.6 21.5 C 93.2 22.0 96.6 25.6 96.5 22.0 C 99.7 21.5 97.0 24.3 98.9 22.9 C 102.2 22.5 100.5 23.6 103.1 23.4 C 104.6 21.4 104.6 24.3 105.3 22.5 C 104.0 24.5 108.0 21.9 108.1 22.9 C 105.7 24.1 117.0 22.9 110.9 22.3 C 113.4 21.4 112.9 23.0 113.7 23.2 C 114.8 22.1 117.8 24.2 119.4 23.0 C 119.1 22.8 118.3 22.7 118.1 22.3 C 117.6 21.5 119.8 22.4 119.6 22.4 C 120.6 22.0 124.6 20.8 120.3 22.9 C 120.1 23.8 123.8 22.4 123.7 23.3 C 127.4 23.3 124.6 21.4 126.3 22.8 C 128.9 22.8 130.8 22.8 130.8 22.6 C 132.4 22.8 132.8 23.9 134.2 22.9 C 137.5 25.0 136.5 18.8 137.8 22.9 C 138.7 22.0 139.6 24.6 139.5 22.1 C 138.3 23.3 145.0 24.1 142.1 22.2 C 142.9 21.6 147.1 24.8 146.5 22.3 C 148.0 20.4 147.7 18.5 144.5 16.7 C 144.8 18.2 141.0 15.2 143.5 17.7 C 146.3 18.5 138.3 18.6 140.0 17.7 C 140.4 14.7 136.1 19.6 134.4 17.4 C 135.8 18.6 129.3 19.2 131.2 16.9 C 130.0 16.8 129.7 17.8 128.4 16.5 C 132.3 16.7 126.9 18.9 127.2 17.5 C 127.8 16.7 122.0 16.0 122.6 17.2 C 124.7 20.4 121.1 16.6 120.1 17.8 C 117.0 18.5 120.6 15.2 118.3 17.5 C 117.6 17.1 113.4 17.1 116.1 16.4 C 117.1 16.7 113.5 19.8 113.1 17.2 C 117.6 15.7 107.9 16.4 109.4 17.2 C 116.4 18.6 102.0 18.8 107.5 17.4 C 104.4 15.9 108.4 16.8 104.5 17.4 C 105.1 18.3 102.0 19.1 102.8 17.4 C 102.2 14.9 101.7 20.7 99.3 17.3 C 99.0 15.8 94.7 18.4 96.4 16.7 C 96.5 16.6 95.8 16.3 95.7 16.3 M 97.1 16.6 C 96.6 17.1 96.2 15.9 97.1 16.6 M 96.5 17.1 C 96.5 17.1 96.5 17.1 96.5 17.1 C 96.5 17.1 96.5 17.1 96.5 17.1 Z M 104.0 17.5 C 103.9 17.4 103.9 17.4 104.0 17.5 C 104.0 17.5 104.0 17.5 104.0 17.5 Z M 109.9 23.9 C 109.8 23.8 109.8 23.8 109.9 23.9 C 109.9 23.9 109.9 23.9 109.9 23.9 Z M 109.0 17.7 C 108.9 17.7 108.9 17.7 109.0 17.7 C 109.0 17.7 109.0 17.7 109.0 17.7 Z M 101.3 17.9 C 101.3 17.9 101.3 17.9 101.3 17.9 C 101.3 17.9 101.3 17.9 101.3 17.9 Z M 108.5 16.7 C 108.9 17.7 106.8 16.0 108.6 16.6 C 108.6 16.6 108.3 16.6 108.5 16.7 M 115.0 16.4 C 115.0 16.5 115.0 16.5 115.0 16.4 M 129.3 23.8 C 129.3 23.9 129.3 23.9 129.3 23.8 M 130.4 16.3 C 130.6 16.4 130.6 16.4 130.4 16.3 M 121.4 17.3 C 123.4 17.2 121.9 17.8 121.4 17.3 M 135.7 16.8 C 133.2 16.2 138.3 16.3 135.7 16.8 M 138.1 16.3 C 138.3 16.4 138.3 16.4 138.1 16.3 M 126.8 16.6 C 126.8 16.7 126.8 16.7 126.8 16.6 C 126.8 16.6 126.8 16.6 126.8 16.6 Z M 120.6 16.9 C 118.0 16.4 123.2 16.1 120.6 16.9 M 104.9 16.6 C 106.3 16.1 104.8 17.8 104.9 16.6 M 101.9 17.1 C 101.9 17.2 101.9 17.2 101.9 17.1 C 101.9 17.1 101.9 17.1 101.9 17.1 Z M 131.7 16.8 C 131.6 16.8 131.6 16.8 131.7 16.8 C 131.7 16.8 131.7 16.8 131.7 16.8 Z M 134.5 16.6 C 134.4 16.6 134.4 16.6 134.5 16.6 C 134.5 16.6 134.5 16.6 134.5 16.6 Z M 139.3 23.5 C 139.2 23.6 139.2 23.6 139.3 23.5 C 139.3 23.5 139.3 23.5 139.3 23.5 Z M 104.1 20.0 C 102.2 19.5 106.1 17.8 105.7 19.4 C 105.9 20.2 104.3 19.9 104.1 20.0 M 118.7 19.0 C 119.2 21.4 116.8 15.8 118.7 19.0 M 138.5 17.8 C 140.4 20.6 136.0 15.8 138.5 17.8 M 142.4 17.3 C 143.5 17.9 135.1 17.7 141.0 16.9 C 141.6 16.5 142.0 17.0 142.4 17.3 M 115.1 17.5 C 115.6 18.8 112.0 16.9 115.1 17.5 M 127.0 21.4 C 127.9 20.6 130.4 19.9 129.3 21.3 C 129.3 23.1 125.8 22.1 127.0 21.4 M 97.7 17.9 C 99.3 15.8 97.6 19.7 97.7 17.9 M 105.2 18.1 C 105.2 18.0 105.2 18.0 105.2 18.1 C 105.2 18.1 105.2 18.1 105.2 18.1 Z M 108.2 17.8 C 108.3 17.9 108.3 17.9 108.2 17.8 M 98.9 16.1 C 99.0 16.2 99.0 16.2 98.9 16.1 M 126.9 19.3 C 127.1 19.4 127.1 19.4 126.9 19.3 M 120.9 17.9 C 123.7 19.9 119.3 18.3 120.9 17.9 M 113.7 21.9 C 114.6 22.8 111.9 21.9 113.7 21.9 M 125.6 17.1 C 127.7 19.0 122.8 18.9 125.6 17.1 M 119.4 17.7 C 119.6 17.7 119.6 17.7 119.4 17.7 C 119.4 17.7 119.4 17.7 119.4 17.7 Z M 127.7 21.7 C 127.7 21.7 127.7 21.7 127.7 21.7 C 127.7 21.7 127.7 21.7 127.7 21.7 Z M 128.6 21.6 C 128.5 21.6 128.5 21.6 128.6 21.6 C 128.6 21.6 128.6 21.6 128.6 21.6 Z M 128.2 16.9 C 128.1 16.9 128.1 16.9 128.2 16.9 C 128.2 16.9 128.2 16.9 128.2 16.9 Z M 101.7 22.6 C 103.8 22.7 100.1 22.9 101.7 22.6 C 101.7 22.6 101.7 22.6 101.7 22.6 Z M 110.8 16.8 C 114.3 18.3 108.5 18.2 110.8 16.8 C 110.8 16.8 110.8 16.8 110.8 16.8 Z M 114.7 19.3 C 114.7 19.4 114.7 19.4 114.7 19.3 C 114.7 19.3 114.7 19.3 114.7 19.3 Z M 124.3 15.9 C 124.3 16.0 124.3 16.0 124.3 15.9 C 124.3 15.9 124.3 15.9 124.3 15.9 Z M 102.8 22.8 C 102.8 22.9 102.8 22.9 102.8 22.8 C 102.8 22.8 102.8 22.8 102.8 22.8 Z M 134.0 17.9 C 134.0 18.0 134.0 18.0 134.0 17.9 C 134.0 17.9 134.0 17.9 134.0 17.9 Z M 122.2 22.0 C 122.9 21.2 122.3 22.6 122.2 22.0 C 122.2 22.0 122.2 22.0 122.2 22.0 Z M 125.3 22.0 C 125.3 22.0 125.3 22.0 125.3 22.0 C 125.3 22.0 125.3 22.0 125.3 22.0 Z M 138.9 16.1 C 138.9 16.1 138.9 16.1 138.9 16.1 C 138.9 16.1 138.9 16.1 138.9 16.1 Z M 133.1 23.8 C 133.2 23.8 133.2 23.8 133.1 23.8 C 133.1 23.8 133.1 23.8 133.1 23.8 Z M 135.7 21.5 C 135.6 21.6 135.6 21.6 135.7 21.5 C 135.7 21.5 135.7 21.5 135.7 21.5 Z M 127.6 17.3 C 130.7 17.0 126.9 18.2 127.6 17.3 C 127.6 17.3 127.6 17.3 127.6 17.3 Z M 143.3 20.9 C 143.4 21.0 143.4 21.0 143.3 20.9 C 143.3 20.9 143.3 20.9 143.3 20.9 Z M 144.9 18.2 C 144.9 18.3 144.9 18.3 144.9 18.2 C 144.9 18.2 144.9 18.2 144.9 18.2 Z M 145.6 16.8 C 145.7 16.9 145.7 16.9 145.6 16.8 C 145.6 16.8 145.6 16.8 145.6 16.8 Z M 108.1 20.7 C 108.1 20.6 108.1 20.6 108.1 20.7 C 108.1 20.7 108.1 20.7 108.1 20.7 Z M 106.9 16.3 C 106.9 16.2 106.9 16.2 106.9 16.3 C 106.9 16.3 106.9 16.3 106.9 16.3 Z M 111.1 16.1 C 111.1 16.0 111.1 16.0 111.1 16.1 C 111.1 16.1 111.1 16.1 111.1 16.1 Z M 107.4 23.3 C 107.3 23.3 107.3 23.3 107.4 23.3 C 107.4 23.3 107.4 23.3 107.4 23.3 Z M 123.0 19.6 C 122.9 19.5 122.9 19.5 123.0 19.6 C 123.0 19.6 123.0 19.6 123.0 19.6 Z M 124.5 21.4 C 124.4 21.3 124.4 21.3 124.5 21.4 C 124.5 21.4 124.5 21.4 124.5 21.4 Z M 120.9 23.7 C 120.8 23.7 120.8 23.7 120.9 23.7 C 120.9 23.7 120.9 23.7 120.9 23.7 Z M 125.6 22.9 C 125.6 22.8 125.6 22.8 125.6 22.9 C 125.6 22.9 125.6 22.9 125.6 22.9 Z M 96.9 22.5 C 96.9 22.5 96.9 22.5 96.9 22.5 C 96.9 22.5 96.9 22.5 96.9 22.5 Z M 96.6 19.1 C 96.5 19.2 96.5 19.2 96.6 19.1 C 96.6 19.1 96.6 19.1 96.6 19.1 Z M 123.5 17.1 C 124.2 16.4 124.9 18.1 123.5 17.1 M 117.5 17.6 C 117.5 17.6 117.5 17.6 117.5 17.6 C 117.5 17.6 117.5 17.6 117.5 17.6 Z M 133.5 17.3 C 134.3 18.6 130.7 16.6 133.5 17.3 C 133.5 17.3 133.5 17.3 133.5 17.3 Z M 130.4 22.9 C 130.4 22.9 130.4 22.9 130.4 22.9 C 130.4 22.9 130.4 22.9 130.4 22.9 Z M 131.9 22.3 C 132.0 22.4 132.0 22.4 131.9 22.3 C 131.9 22.3 131.9 22.3 131.9 22.3 Z M 140.5 18.7 C 140.7 18.8 140.7 18.8 140.5 18.7 M 116.8 16.4 C 117.7 17.0 117.5 16.9 116.8 16.4 M 135.5 17.3 C 135.4 17.4 135.4 17.4 135.5 17.3 C 135.5 17.3 135.5 17.3 135.5 17.3 Z M 142.4 17.9 C 142.3 18.0 142.3 18.0 142.4 17.9 C 142.4 17.9 142.4 17.9 142.4 17.9 Z M 112.6 17.3 C 112.7 18.9 111.9 18.5 112.6 17.3 M 100.7 17.8 C 100.7 17.9 100.7 17.9 100.7 17.8 C 100.7 17.8 100.7 17.8 100.7 17.8 Z M 151.9 16.8 C 148.6 15.0 148.6 17.5 148.6 17.6 C 149.0 14.2 145.7 18.9 146.4 19.6 C 146.3 20.1 148.8 26.0 151.0 22.4 C 151.6 21.9 152.0 23.0 152.5 23.1 C 156.4 22.9 149.7 21.2 154.6 21.2 C 155.4 21.7 154.4 24.5 157.3 22.6 C 157.4 22.9 160.6 23.9 159.4 22.6 C 160.9 23.9 161.9 22.3 163.3 22.0 C 164.6 22.8 162.3 24.1 166.9 22.5 C 168.9 24.9 169.6 20.8 171.4 23.4 C 172.6 23.4 174.3 19.2 171.6 21.6 C 172.0 21.3 170.3 19.3 174.0 20.0 C 173.5 20.6 171.5 24.9 177.2 22.8 C 178.2 22.9 180.4 21.8 180.9 22.3 C 177.9 22.8 184.9 24.2 184.2 22.9 C 188.8 23.8 186.2 21.8 189.5 23.3 C 192.2 23.3 188.6 21.3 192.0 22.5 C 194.5 22.3 192.8 23.3 192.5 23.2 C 194.8 23.5 195.6 22.7 196.3 22.7 C 196.8 23.0 197.8 23.8 198.4 22.8 C 200.7 20.8 198.6 18.9 199.6 16.9 C 197.9 16.0 198.9 18.4 197.7 16.9 C 196.8 18.2 197.5 16.8 192.9 17.1 C 193.0 17.4 194.1 18.2 193.0 18.4 C 191.2 18.2 192.5 14.9 189.5 17.2 C 193.0 18.0 184.5 18.3 187.8 19.0 C 183.7 19.4 186.6 18.7 183.6 17.9 C 183.8 20.2 183.4 15.6 182.3 17.3 C 182.0 16.4 177.4 16.8 180.7 18.2 C 175.9 18.8 178.9 17.5 177.2 16.3 C 174.9 16.2 177.0 20.0 175.6 17.2 C 172.7 16.0 175.5 18.6 173.4 16.4 C 174.3 18.3 171.2 16.4 172.0 18.5 C 167.1 18.6 172.7 16.3 169.2 17.7 C 170.2 17.8 169.8 15.0 167.7 16.8 C 168.6 20.1 164.9 13.9 166.4 18.3 C 159.5 19.5 165.3 16.5 161.5 16.5 C 160.5 16.5 162.5 17.9 161.6 17.9 C 156.7 17.3 160.8 16.2 158.2 18.3 C 153.4 18.8 156.8 16.5 154.4 16.3 C 154.3 17.3 152.3 19.1 151.9 16.8 M 156.2 17.8 C 157.2 17.2 156.8 18.5 156.2 17.8 M 146.4 16.8 C 147.4 16.1 147.0 17.5 146.4 16.8 M 160.2 17.2 C 161.5 16.5 160.6 18.3 160.2 17.2 M 186.4 18.3 C 184.5 18.2 187.2 17.7 186.4 18.3 M 150.3 16.7 C 151.7 15.9 150.7 17.8 150.3 16.7 M 148.5 18.4 C 148.6 18.4 148.6 18.4 148.5 18.4 M 189.0 16.5 C 189.0 16.5 189.0 16.5 189.0 16.5 M 181.9 16.5 C 183.4 16.5 181.1 16.9 181.9 16.5 M 181.7 23.6 C 183.2 23.7 180.8 24.1 181.7 23.6 M 192.8 16.4 C 194.3 15.8 193.2 17.2 192.8 16.4 M 196.7 18.0 C 198.0 17.3 197.6 18.7 196.7 18.0 M 155.3 20.3 C 155.3 20.4 155.3 20.4 155.3 20.3 C 155.3 20.3 155.3 20.3 155.3 20.3 Z M 168.2 22.1 C 166.6 21.4 170.0 23.0 168.2 22.1 M 165.8 17.4 C 166.8 18.9 163.8 17.3 165.8 17.4 C 165.8 17.4 165.8 17.4 165.8 17.4 Z M 163.5 18.1 C 163.5 18.1 163.5 18.1 163.5 18.1 C 163.5 18.1 163.5 18.1 163.5 18.1 Z M 170.8 18.2 C 170.7 18.2 170.7 18.2 170.8 18.2 C 170.8 18.2 170.8 18.2 170.8 18.2 Z M 169.3 18.3 C 168.7 18.6 168.5 18.0 169.3 18.3 C 169.3 18.3 169.3 18.3 169.3 18.3 Z M 179.9 22.9 C 179.2 23.2 179.1 22.6 179.9 22.9 C 179.9 22.9 179.9 22.9 179.9 22.9 Z M 167.0 18.8 C 166.8 20.2 166.0 17.8 167.0 18.8 C 167.0 18.8 167.0 18.8 167.0 18.8 Z M 174.8 22.2 C 175.5 21.9 176.2 23.6 174.8 22.2 M 190.4 16.8 C 191.1 16.4 191.8 18.1 190.4 16.8 M 175.1 16.3 C 175.7 15.9 176.4 17.7 175.1 16.3 M 157.0 17.2 C 157.2 17.4 157.2 17.4 157.0 17.2 M 165.5 23.5 C 166.5 23.0 166.1 24.2 165.5 23.5 M 151.1 23.0 C 152.1 22.5 151.6 23.7 151.1 23.0 M 188.2 23.5 C 188.2 23.1 189.8 23.7 188.2 23.5 M 176.9 18.7 C 178.2 18.8 179.6 19.6 176.8 19.5 C 176.6 19.2 177.5 19.0 176.9 18.7 C 176.9 18.7 176.9 18.7 176.9 18.7 Z M 181.7 22.0 C 181.9 22.1 181.9 22.1 181.7 22.0 M 179.3 17.3 C 179.5 17.5 179.5 17.5 179.3 17.3 M 187.1 17.5 C 187.3 17.7 187.3 17.7 187.1 17.5 M 188.1 17.0 C 188.1 17.1 188.1 17.1 188.1 17.0 C 188.1 17.0 188.1 17.0 188.1 17.0 Z M 196.7 16.5 C 196.7 16.5 196.7 16.5 196.7 16.5 C 196.7 16.5 196.7 16.5 196.7 16.5 Z M 184.6 17.6 C 184.6 17.7 184.6 17.7 184.6 17.6 C 184.6 17.6 184.6 17.6 184.6 17.6 Z M 191.7 23.2 C 191.7 23.3 191.7 23.3 191.7 23.2 C 191.7 23.2 191.7 23.2 191.7 23.2 Z M 190.8 22.3 C 190.8 22.4 190.8 22.4 190.8 22.3 C 190.8 22.3 190.8 22.3 190.8 22.3 Z M 152.6 16.8 C 153.7 15.8 153.2 19.3 152.6 16.8 M 194.7 22.3 C 195.8 23.3 192.7 22.5 194.7 22.3 C 194.7 22.3 194.7 22.3 194.7 22.3 Z M 183.7 18.9 C 183.8 19.1 183.8 19.1 183.7 18.9 M 188.6 17.2 C 188.7 17.4 188.7 17.4 188.6 17.2 M 165.7 16.1 C 165.8 16.3 165.8 16.3 165.7 16.1 M 194.7 17.5 C 198.3 17.8 193.0 19.5 194.7 17.5 M 164.1 17.5 C 164.0 17.3 164.0 17.3 164.1 17.5 M 172.3 20.2 C 174.8 20.1 171.4 21.0 172.3 20.2 M 178.6 18.3 C 178.5 18.4 178.5 18.4 178.6 18.3 C 178.6 18.3 178.6 18.3 178.6 18.3 Z M 174.9 18.4 C 173.1 18.6 174.5 17.9 174.9 18.4 C 174.9 18.4 174.9 18.4 174.9 18.4 Z M 154.3 18.1 C 156.6 18.3 151.9 18.6 154.3 18.1 C 154.3 18.1 154.3 18.1 154.3 18.1 Z M 193.0 20.8 C 192.9 20.9 192.9 20.9 193.0 20.8 C 193.0 20.8 193.0 20.8 193.0 20.8 Z M 184.2 16.6 C 183.1 17.0 183.7 16.2 184.2 16.6 C 184.2 16.6 184.2 16.6 184.2 16.6 Z M 198.0 16.5 C 196.9 16.8 197.5 16.0 198.0 16.5 C 198.0 16.5 198.0 16.5 198.0 16.5 Z M 151.5 17.9 C 160.0 20.3 140.1 17.3 151.5 17.9 C 151.5 17.9 151.5 17.9 151.5 17.9 Z M 176.4 17.4 C 176.3 17.4 176.3 17.4 176.4 17.4 C 176.4 17.4 176.4 17.4 176.4 17.4 Z M 160.7 16.4 C 160.6 16.4 160.6 16.4 160.7 16.4 C 160.7 16.4 160.7 16.4 160.7 16.4 Z M 158.0 17.7 C 158.0 17.8 158.0 17.8 158.0 17.7 C 158.0 17.7 158.0 17.7 158.0 17.7 Z M 158.8 23.4 C 158.7 23.4 158.7 23.4 158.8 23.4 C 158.8 23.4 158.8 23.4 158.8 23.4 Z M 159.7 20.8 C 159.6 21.0 159.6 21.0 159.7 20.8 C 159.7 20.8 159.7 20.8 159.7 20.8 Z M 154.2 21.7 C 154.1 21.9 154.1 21.9 154.2 21.7 C 154.2 21.7 154.2 21.7 154.2 21.7 Z M 154.3 22.5 C 154.3 22.6 154.3 22.6 154.3 22.5 C 154.3 22.5 154.3 22.5 154.3 22.5 Z M 188.6 18.8 C 188.5 18.9 188.5 18.9 188.6 18.8 C 188.6 18.8 188.6 18.8 188.6 18.8 Z M 185.7 21.2 C 187.6 20.3 185.1 22.4 185.7 21.2 C 185.7 21.2 185.7 21.2 185.7 21.2 Z M 168.1 20.0 C 169.9 19.7 166.9 20.7 168.1 20.0 C 168.1 20.0 168.1 20.0 168.1 20.0 Z M 170.1 23.1 C 170.1 23.1 170.1 23.1 170.1 23.1 C 170.1 23.1 170.1 23.1 170.1 23.1 Z M 158.0 16.3 C 158.0 16.5 158.0 16.5 158.0 16.3 C 158.0 16.3 158.0 16.3 158.0 16.3 Z M 154.7 17.3 C 154.5 18.5 153.7 16.7 154.7 17.3 M 171.5 16.6 C 171.5 16.7 171.5 16.7 171.5 16.6 C 171.5 16.6 171.5 16.6 171.5 16.6 Z M 182.2 18.5 C 182.1 18.6 182.1 18.6 182.2 18.5 C 182.2 18.5 182.2 18.5 182.2 18.5 Z M 192.7 17.7 C 192.7 17.9 192.7 17.9 192.7 17.7 C 192.7 17.7 192.7 17.7 192.7 17.7 Z M 178.1 16.7 C 178.1 16.9 178.1 16.9 178.1 16.7 C 178.1 16.7 178.1 16.7 178.1 16.7 Z M 173.1 17.8 C 173.0 18.0 173.0 18.0 173.1 17.8 C 173.1 17.8 173.1 17.8 173.1 17.8 Z M 195.1 19.4 C 195.0 19.5 195.0 19.5 195.1 19.4 C 195.1 19.4 195.1 19.4 195.1 19.4 Z M 179.3 16.6 C 179.3 16.6 179.3 16.6 179.3 16.6 C 179.3 16.6 179.3 16.6 179.3 16.6 Z M 182.4 20.4 C 182.3 20.5 182.3 20.5 182.4 20.4 C 182.4 20.4 182.4 20.4 182.4 20.4 Z M 155.2 15.6 C 155.1 15.6 155.1 15.6 155.2 15.6 C 155.2 15.6 155.2 15.6 155.2 15.6 Z M 195.2 17.8 C 195.1 17.8 195.1 17.8 195.2 17.8 C 195.2 17.8 195.2 17.8 195.2 17.8 Z M 195.8 16.7 C 195.8 16.8 195.8 16.8 195.8 16.7 C 195.8 16.7 195.8 16.7 195.8 16.7 Z M 188.3 22.4 C 184.6 21.7 191.7 22.2 189.0 20.9 C 194.3 20.5 189.1 22.5 188.3 22.4 C 188.3 22.4 188.3 22.4 188.3 22.4 Z M 188.3 22.4 " fill="#5E416F"></path><path d="M 30.0 2.7 C 30.2 2.0 32.2 1.3 30.8 2.7 C 30.7 2.7 30.0 3.0 30.0 2.7 Z M 26.9 4.6 C 27.1 4.4 27.3 4.3 27.6 4.4 C 28.2 4.7 26.1 5.0 26.9 4.6 Z M 31.8 2.5 C 31.9 2.4 32.9 1.7 32.8 2.0 C 32.7 2.3 31.8 2.5 31.8 2.5 Z M 24.8 7.4 C 24.7 7.1 25.7 6.6 26.0 6.6 C 26.7 6.6 25.1 8.0 24.8 7.4 Z M 33.3 12.7 C 33.3 12.8 33.4 12.9 33.4 13.0 C 33.3 12.9 33.3 12.8 33.3 12.7 Z M 9.9 15.4 C 10.1 15.3 10.6 15.3 10.6 15.5 C 10.7 15.9 9.4 15.9 9.9 15.4 Z M 33.9 33.2 C 33.9 33.2 34.2 32.8 34.3 33.0 C 34.5 33.2 34.1 33.4 33.9 33.2 Z M 34.3 33.2 C 34.6 33.1 34.7 33.6 34.5 33.5 C 34.2 33.4 34.1 33.3 34.3 33.2 Z M 17.7 28.9 C 17.6 28.8 17.4 28.8 17.6 28.7 C 17.8 28.7 17.9 29.0 17.7 28.9 Z M 18.3 28.8 C 18.6 28.6 18.7 29.2 18.4 29.1 C 18.1 29.0 18.0 28.9 18.3 28.8 Z M 20.6 32.0 C 20.5 32.0 20.3 32.0 20.5 31.9 C 20.7 31.8 20.8 32.1 20.6 32.0 Z M 34.8 24.8 C 34.9 24.9 34.8 25.5 34.5 25.5 C 34.2 25.4 34.6 24.5 34.8 24.8 Z M 35.0 25.6 C 35.2 25.5 35.3 26.0 35.0 25.9 C 34.9 25.8 34.8 25.7 35.0 25.6 Z M 34.5 23.0 C 34.1 23.0 34.1 22.3 34.2 22.2 C 34.3 21.9 34.4 21.6 34.5 21.4 C 34.5 21.3 34.9 23.0 34.5 23.0 Z M 34.1 17.5 C 34.3 17.5 34.3 17.6 34.2 17.8 C 34.1 18.1 34.0 17.5 34.1 17.5 Z M 34.3 20.6 C 34.5 20.6 34.5 20.7 34.4 20.9 C 34.3 21.2 34.2 20.6 34.3 20.6 Z M 18.6 10.3 C 18.4 10.1 19.3 9.8 19.3 9.8 C 19.4 9.8 19.1 10.0 19.3 10.0 C 19.6 10.0 19.5 10.8 18.6 10.3 Z M 25.2 5.7 C 25.4 5.6 25.5 5.7 25.5 5.9 C 25.5 5.9 24.8 6.1 25.2 5.7 Z M 20.2 10.6 C 20.1 10.5 20.3 10.4 20.4 10.5 C 20.4 10.6 20.2 10.7 20.2 10.6 Z M 19.7 11.0 C 19.9 10.9 20.4 10.9 20.4 11.2 C 20.5 11.5 19.1 11.5 19.7 11.0 Z M 17.5 10.5 C 17.7 10.4 17.7 10.4 17.6 10.6 C 17.5 10.8 17.5 10.5 17.5 10.5 Z M 21.2 7.8 C 21.5 7.6 21.5 7.6 21.4 7.8 C 21.3 8.0 21.2 7.8 21.2 7.8 Z M 15.9 12.1 C 15.9 12.1 16.2 11.5 16.6 11.9 C 17.1 12.4 15.9 12.2 15.9 12.1 Z M 13.4 14.4 C 13.6 14.3 13.7 14.6 13.5 14.6 C 13.2 14.6 13.2 14.5 13.4 14.4 Z M 13.0 16.0 C 12.6 16.0 12.2 15.9 12.7 15.7 C 13.2 15.5 13.4 15.9 13.0 16.0 Z M 13.4 15.4 C 13.4 15.5 13.2 15.6 13.2 15.5 C 13.1 15.4 13.3 15.4 13.4 15.4 Z M 15.3 13.3 C 15.5 13.0 15.9 13.2 15.6 13.5 C 15.3 13.8 15.2 13.6 15.3 13.3 Z M 34.8 9.8 C 34.7 9.7 35.0 9.7 35.1 9.8 C 35.2 10.0 34.9 10.1 34.8 9.8 Z M 33.5 21.7 C 33.7 21.5 33.7 21.7 33.6 22.0 C 33.5 22.3 33.3 21.9 33.5 21.7 Z M 32.9 29.2 C 33.1 29.0 33.1 29.2 33.0 29.5 C 32.9 29.8 32.7 29.4 32.9 29.2 Z M 33.5 18.7 C 33.6 18.6 34.2 19.4 33.7 19.8 C 33.2 20.3 33.1 18.9 33.5 18.7 Z M 27.5 11.3 C 27.4 11.1 27.7 11.2 27.7 11.2 C 27.6 11.5 27.6 11.5 27.5 11.3 Z M 32.6 20.4 C 32.6 20.2 32.9 20.2 33.0 20.4 C 33.1 20.5 32.7 20.6 32.6 20.4 Z M 33.3 27.9 C 33.5 27.6 34.0 27.7 34.1 27.9 C 34.6 28.5 34.0 29.0 33.7 29.4 C 33.4 29.8 33.3 28.1 33.3 27.9 Z M 33.6 8.0 C 33.5 8.2 33.5 8.4 33.5 8.5 C 33.6 8.6 33.6 8.7 33.5 8.9 C 33.5 9.6 34.2 10.1 34.4 10.5 C 34.8 11.6 33.4 12.0 33.3 12.7 C 33.3 12.5 33.3 12.4 33.2 12.3 C 32.8 12.0 33.0 14.6 33.0 14.7 C 33.3 17.0 33.7 14.3 34.5 14.3 C 34.8 14.3 33.9 15.8 33.9 15.9 C 33.6 16.6 34.3 16.8 34.0 17.3 C 33.9 17.6 32.2 18.5 32.4 18.8 C 32.6 19.0 32.4 19.7 32.4 19.9 C 32.4 20.3 32.5 21.1 33.1 20.7 C 33.5 20.4 34.0 20.3 33.6 20.8 C 33.3 21.2 32.2 23.8 33.5 23.7 C 33.6 23.7 33.9 23.2 33.9 23.1 C 34.2 23.9 33.8 26.1 34.3 26.6 C 35.5 27.8 33.6 26.2 33.3 26.8 C 32.7 27.9 32.4 28.4 32.6 29.7 C 32.6 30.0 32.7 31.2 33.3 30.6 C 33.8 30.2 34.1 30.5 34.2 29.8 C 34.9 30.6 33.7 31.2 33.9 31.3 C 34.3 31.6 34.5 31.1 34.4 31.7 C 34.3 32.4 34.5 32.1 33.9 32.3 C 33.7 32.3 33.5 33.0 33.5 33.0 C 33.5 32.9 33.4 32.9 33.4 33.0 C 33.4 33.6 34.6 34.5 34.3 34.7 C 34.1 34.8 33.3 34.5 33.1 34.5 C 33.0 34.5 33.0 34.6 33.0 34.6 C 33.1 34.9 33.6 35.5 33.5 35.6 C 33.4 35.7 32.3 35.2 32.6 35.5 C 32.9 35.8 32.5 37.2 32.2 37.2 C 31.8 37.3 30.3 37.6 30.2 37.9 C 30.1 38.1 29.4 37.6 29.2 37.6 C 29.0 37.5 28.8 36.9 28.7 36.7 C 28.7 36.6 28.1 36.4 28.1 36.4 C 28.1 36.4 27.8 36.4 27.3 36.1 C 26.9 35.9 26.7 35.4 26.3 35.0 C 25.8 34.5 25.4 34.7 24.8 34.4 C 24.3 34.2 24.3 33.1 24.0 32.7 C 23.6 32.4 23.2 33.0 22.6 32.7 C 22.0 32.5 21.8 32.1 22.0 32.1 C 22.3 32.1 22.2 31.9 22.1 31.8 C 21.9 31.6 21.4 31.1 21.1 31.0 C 20.8 31.0 22.1 32.6 20.0 31.2 C 19.0 30.6 18.7 29.5 19.0 29.6 C 19.8 30.0 18.8 28.1 18.6 28.4 C 18.4 28.7 16.6 27.6 16.7 28.4 C 16.7 28.6 14.8 27.8 14.6 27.5 C 14.5 27.2 13.5 26.9 13.6 26.2 C 13.7 25.9 12.2 26.0 12.0 25.9 C 11.8 25.7 10.4 24.8 10.2 24.5 C 10.0 24.2 10.7 24.5 11.0 24.7 C 11.3 25.0 11.6 25.5 11.9 25.6 C 12.2 25.7 11.8 25.1 11.5 24.8 C 11.1 24.6 11.2 24.2 11.0 24.0 C 10.8 23.9 10.6 23.8 10.3 23.6 C 10.2 23.5 10.0 23.5 10.0 23.6 C 9.9 23.8 10.0 24.0 9.9 24.1 C 9.8 24.1 9.5 24.1 9.1 23.9 C 8.6 23.6 8.3 23.3 7.8 22.8 C 7.4 22.3 7.1 22.4 6.7 22.2 C 6.3 22.0 6.0 21.8 6.0 21.6 C 6.1 21.5 6.6 21.7 6.7 21.6 C 6.8 21.5 6.5 20.9 6.3 20.7 C 5.3 20.0 6.7 19.6 5.7 18.8 C 5.1 18.4 6.0 18.5 6.5 18.3 C 6.4 18.2 6.4 18.1 6.9 17.7 C 6.8 17.6 7.6 17.3 7.9 17.1 C 8.1 16.9 9.2 15.9 8.6 16.7 C 8.6 16.8 8.6 16.9 8.5 16.9 C 8.5 16.9 8.5 16.9 8.6 16.9 C 8.6 16.9 8.5 17.7 8.5 17.7 C 8.5 17.7 8.6 16.9 8.6 16.9 C 8.8 17.1 9.1 17.2 9.3 17.2 C 9.3 17.2 9.4 17.1 9.4 17.0 C 9.4 16.9 9.4 16.9 9.4 16.9 C 9.4 16.9 9.4 16.9 9.4 16.9 C 9.3 16.7 9.3 16.7 9.5 16.6 C 9.9 16.1 11.2 15.8 11.8 15.7 C 11.2 17.5 13.3 16.2 13.9 15.7 C 14.5 15.1 13.6 13.7 13.3 13.9 C 13.8 13.6 14.0 13.8 14.4 14.1 C 14.3 14.1 15.4 14.6 15.4 14.6 C 16.8 14.3 15.9 13.3 16.1 13.0 C 16.3 12.7 16.7 12.4 17.0 12.1 C 17.3 11.8 16.8 11.8 16.9 11.5 C 17.0 10.7 18.4 11.3 18.8 11.2 C 18.6 11.4 18.3 11.7 18.1 12.1 C 18.4 11.5 19.0 12.1 19.2 12.0 C 19.7 12.0 20.1 11.6 20.5 11.4 C 21.1 10.9 21.7 10.4 22.3 9.9 C 22.0 9.9 20.6 9.7 20.5 9.8 C 20.7 9.6 21.4 9.5 20.9 9.1 C 20.0 8.5 21.9 7.9 22.2 7.8 C 23.1 7.4 23.6 5.9 25.0 6.4 C 25.0 6.4 23.8 7.4 24.0 7.5 C 24.7 8.1 25.3 8.3 26.1 7.5 C 26.2 7.4 27.1 6.1 27.1 6.0 C 27.2 6.1 24.8 5.1 26.3 5.0 C 26.6 5.0 26.3 5.6 26.6 5.6 C 27.1 5.5 27.6 5.0 28.1 4.8 C 28.1 4.8 29.0 4.6 29.0 4.5 C 29.0 4.2 28.8 3.9 29.0 3.6 C 29.2 3.3 29.6 3.3 29.8 3.6 C 29.8 3.6 29.8 3.7 29.8 3.7 C 29.9 3.6 30.0 3.7 30.1 3.9 C 30.2 3.8 30.4 3.6 30.6 3.7 C 30.7 3.8 30.4 4.0 30.2 4.0 C 30.2 4.1 30.2 4.2 30.3 4.3 C 30.6 4.1 30.9 3.8 30.9 3.7 C 31.3 2.9 31.1 2.7 32.4 2.9 C 33.5 3.0 34.1 5.5 33.8 6.9 C 33.9 7.2 33.9 7.6 33.6 8.0 Z M 9.9 22.8 C 9.9 22.8 9.9 22.8 10.0 22.8 C 10.0 22.7 10.1 22.6 10.2 22.4 C 9.9 22.2 10.1 22.7 9.8 22.5 C 9.5 22.2 9.5 22.4 9.9 22.8 Z M 10.1 19.4 C 9.8 19.3 9.9 19.5 10.0 19.6 C 10.1 19.5 10.1 19.5 10.1 19.4 Z M 9.4 18.0 C 9.1 18.3 10.1 18.5 10.6 17.9 C 10.0 17.9 9.6 17.9 9.4 18.0 Z M 10.1 16.8 C 10.1 16.9 10.1 17.0 10.1 17.0 C 10.2 17.3 10.5 16.8 10.5 17.0 C 10.6 17.2 10.3 17.6 10.6 17.5 C 10.7 17.5 10.8 17.5 10.9 17.5 C 10.9 17.4 11.0 17.4 11.0 17.3 C 11.0 17.0 10.4 16.7 10.1 16.8 Z M 12.4 22.9 C 12.1 22.9 12.2 23.1 12.4 23.1 C 12.6 23.2 12.6 23.0 12.4 22.9 Z M 14.1 25.6 C 14.0 25.3 13.7 25.2 13.8 25.6 C 13.8 25.9 14.2 25.9 14.1 25.6 Z M 17.8 21.7 C 17.6 21.8 17.7 21.8 17.8 21.8 C 18.1 21.9 17.9 21.6 17.8 21.7 Z M 17.9 19.0 C 18.1 18.8 17.8 18.5 17.7 18.7 C 17.7 18.8 17.8 19.1 17.9 19.0 Z M 17.6 25.2 C 17.8 25.3 17.8 25.1 17.6 25.1 C 17.4 25.1 17.4 25.2 17.6 25.2 Z M 17.0 21.5 C 17.2 21.8 17.3 21.7 17.4 21.6 C 17.5 21.6 17.4 21.3 17.2 21.2 C 16.9 21.1 16.8 21.2 17.0 21.5 Z M 16.8 19.2 C 17.5 18.8 17.3 18.5 16.6 19.1 C 15.9 19.7 16.4 19.4 16.8 19.2 Z M 15.5 27.5 C 15.5 27.4 15.0 27.3 15.0 27.3 C 15.0 27.3 15.9 28.0 15.5 27.5 Z M 17.0 12.9 C 16.8 13.0 16.7 13.3 17.1 13.2 C 17.5 13.0 17.3 12.8 17.0 12.9 Z M 18.4 14.0 C 17.8 13.6 17.4 13.7 17.3 13.7 C 17.4 13.8 17.5 14.3 17.4 14.4 C 17.0 14.8 16.2 14.7 16.0 15.2 C 15.7 15.9 16.8 15.4 16.9 15.2 C 16.8 15.3 16.8 15.5 16.8 15.6 C 17.0 15.7 17.2 15.7 17.3 15.5 C 17.4 15.2 19.0 14.5 18.4 14.0 Z M 18.4 20.6 C 18.1 20.5 17.8 20.7 18.0 21.0 C 18.2 21.3 18.5 21.5 18.6 21.4 C 18.7 21.3 18.6 20.7 18.4 20.6 Z M 18.6 22.7 C 18.3 22.8 18.4 22.9 18.6 23.0 C 19.1 23.1 18.9 22.6 18.6 22.7 Z M 22.4 31.5 C 22.7 31.5 22.3 31.2 22.2 31.3 C 22.1 31.5 22.3 31.5 22.4 31.5 Z M 22.3 28.0 C 22.9 28.2 22.4 27.7 22.3 27.7 C 22.2 27.7 22.0 28.0 22.3 28.0 Z M 20.3 26.0 C 20.5 26.1 20.3 25.7 20.1 25.8 C 20.0 25.8 20.1 25.9 20.3 26.0 Z M 20.0 24.7 C 20.2 24.8 20.2 24.4 19.9 24.4 C 19.7 24.4 19.8 24.6 20.0 24.7 Z M 21.1 13.4 C 21.1 13.4 21.2 13.9 21.4 13.5 C 21.7 13.1 21.7 13.1 21.1 13.4 Z M 20.1 17.4 C 19.8 17.7 19.5 18.0 19.9 19.1 C 20.2 20.2 20.5 19.8 20.6 19.1 C 20.8 18.4 21.3 20.3 21.6 19.0 C 21.7 18.4 20.5 17.2 20.1 17.4 Z M 22.1 24.5 C 21.7 23.9 20.7 24.0 21.2 24.5 C 21.9 25.0 22.4 25.1 22.1 24.5 Z M 22.1 25.0 C 22.0 25.0 22.0 25.1 22.2 25.2 C 22.4 25.3 22.3 25.0 22.1 25.0 Z M 21.6 8.6 C 20.5 9.5 22.3 9.5 22.3 9.5 C 23.7 9.1 22.6 7.6 21.6 8.6 Z M 32.8 32.3 C 32.8 32.3 32.8 32.2 32.8 32.2 C 32.8 32.2 32.8 32.2 32.8 32.1 C 32.6 31.9 32.4 32.4 32.4 32.4 C 32.5 32.5 32.7 32.4 32.8 32.3 Z M 33.1 25.2 C 33.1 25.5 33.1 25.7 33.3 25.9 C 33.9 25.8 33.9 23.6 32.8 24.4 C 32.7 24.6 31.7 25.9 32.3 26.1 C 32.6 26.2 33.1 24.5 33.1 25.2 Z M 32.2 27.4 C 32.3 26.6 31.4 28.2 31.8 27.9 C 32.1 27.9 32.2 27.7 32.2 27.4 Z M 30.2 33.8 C 30.7 34.9 32.4 34.7 31.5 32.9 C 30.6 31.1 29.9 31.0 30.1 31.9 C 30.4 32.8 29.5 32.1 30.2 33.8 Z M 30.2 24.5 C 31.5 24.7 31.1 24.1 30.2 23.8 C 30.0 23.7 29.5 24.3 30.2 24.5 Z M 30.0 21.9 C 30.2 21.5 30.1 21.6 30.0 21.7 C 29.7 22.0 29.9 22.2 30.0 21.9 Z M 28.5 35.6 C 28.7 36.1 29.2 36.4 28.9 36.4 C 28.6 36.4 28.8 36.4 29.0 36.7 C 29.2 37.0 29.2 36.4 29.2 36.2 C 29.2 35.9 28.3 35.2 28.5 35.6 Z M 24.4 25.7 C 24.6 25.8 24.5 25.5 24.3 25.5 C 24.1 25.5 24.2 25.5 24.4 25.7 Z M 23.1 15.8 C 23.1 15.8 23.2 16.1 23.3 15.9 C 23.5 15.6 23.5 15.6 23.1 15.8 Z M 23.5 7.9 C 23.3 8.1 23.9 8.2 23.8 8.6 C 23.8 8.7 23.5 8.5 23.5 8.5 C 23.5 8.5 23.7 9.5 24.0 8.9 C 24.2 8.6 24.0 7.4 23.5 7.9 Z M 24.7 22.9 C 24.3 22.5 24.0 24.2 23.7 23.9 C 23.4 23.6 23.4 23.8 23.7 24.2 C 24.1 24.5 25.1 23.4 24.7 22.9 Z M 25.0 27.1 C 24.9 26.9 24.1 26.2 24.3 26.6 C 24.5 27.0 25.0 27.3 24.7 27.3 C 24.4 27.3 24.5 27.4 24.8 27.7 C 25.0 28.0 25.0 27.4 25.0 27.1 Z M 25.3 34.1 C 25.2 34.0 24.7 33.7 24.9 34.1 C 25.0 34.2 25.3 34.3 25.3 34.1 Z M 25.7 14.7 C 25.6 15.0 25.7 15.1 26.0 14.8 C 26.3 14.5 25.8 14.4 25.7 14.7 Z M 26.4 33.5 C 26.1 33.0 26.3 33.7 26.0 33.5 C 25.7 33.2 25.7 33.4 26.1 33.7 C 26.4 34.1 26.8 33.9 26.4 33.5 Z M 26.8 8.3 C 26.7 8.5 26.9 8.7 27.0 8.6 C 27.1 8.4 26.8 8.1 26.8 8.3 Z M 27.8 10.9 C 27.7 11.0 27.6 11.0 27.4 11.0 C 25.8 12.2 28.9 11.3 27.8 10.9 Z M 27.5 15.0 C 27.4 14.4 27.2 15.1 27.2 15.1 C 27.4 15.2 27.5 15.1 27.5 15.0 Z M 27.6 19.4 C 27.8 19.5 27.7 19.0 27.5 19.1 C 27.3 19.2 27.4 19.3 27.6 19.4 Z M 28.4 5.1 C 28.1 5.2 28.2 5.3 28.4 5.3 C 28.5 5.3 28.6 5.0 28.4 5.1 Z M 28.5 16.1 C 28.4 16.0 28.4 16.1 28.5 16.3 C 28.5 16.5 28.6 16.2 28.5 16.1 Z M 28.6 29.5 C 28.5 29.4 28.4 29.3 28.3 29.2 C 28.0 29.4 27.9 30.2 27.7 30.2 C 27.6 30.2 27.6 30.2 27.6 30.2 C 27.6 30.2 27.6 30.2 27.6 30.2 C 27.4 30.2 27.3 30.0 27.4 30.0 C 27.3 29.9 27.3 29.7 27.3 29.6 C 27.0 29.8 26.8 30.1 27.0 30.4 C 27.3 30.6 27.9 30.7 28.4 30.6 C 28.5 30.5 28.5 30.3 28.6 30.1 C 28.6 30.1 28.5 30.1 28.5 30.1 C 28.2 29.9 28.1 29.7 28.3 29.7 C 28.5 29.7 28.6 29.8 28.6 29.8 C 28.6 29.7 28.6 29.6 28.6 29.5 Z M 29.2 17.8 C 29.0 17.5 28.9 17.7 28.7 18.1 C 28.7 18.5 29.3 18.1 29.2 17.8 Z M 28.8 5.6 C 28.8 5.8 28.9 5.9 29.0 5.9 C 29.0 5.9 29.0 5.8 29.0 5.7 C 29.1 5.5 29.1 5.3 29.2 5.0 C 28.9 5.0 28.7 5.2 28.8 5.6 Z M 30.1 9.5 C 30.0 9.3 30.1 7.7 29.7 8.0 C 29.2 8.5 28.6 7.8 28.8 9.0 C 29.0 9.5 29.8 10.0 29.9 10.5 C 30.6 13.4 30.7 9.8 30.8 9.0 C 30.9 8.9 30.2 9.7 30.1 9.5 Z M 30.9 13.2 C 31.2 13.3 31.5 12.9 31.5 12.7 C 31.4 12.0 30.6 13.0 30.9 13.2 Z M 31.3 5.3 C 31.3 5.2 31.3 5.2 31.2 5.3 C 31.2 5.3 31.3 5.3 31.4 5.4 C 31.4 5.3 31.4 5.3 31.3 5.3 Z M 31.7 3.3 C 30.8 4.0 32.3 3.9 32.7 3.8 C 33.3 3.5 32.1 2.9 31.7 3.3 Z M 32.3 11.1 C 32.2 11.6 33.9 12.3 33.8 11.3 C 33.7 10.3 32.4 9.8 32.3 11.1 Z M 34.4 17.0 C 34.2 16.8 34.5 16.2 34.7 16.5 C 34.9 16.7 34.5 17.1 34.4 17.0 Z M 35.3 8.2 C 35.2 8.4 35.1 8.1 35.1 8.1 C 35.4 8.0 35.4 8.0 35.3 8.2 Z M 34.1 9.0 C 34.2 8.7 34.3 8.4 34.4 8.2 C 34.4 8.0 34.6 8.6 34.6 8.6 C 34.5 8.8 34.1 8.9 34.1 9.0 Z M 33.9 13.7 C 34.1 13.4 34.1 13.9 34.1 14.0 C 34.0 14.2 33.8 13.9 33.9 13.7 Z M 34.3 12.6 C 34.3 12.8 34.1 12.6 34.1 12.4 C 34.1 12.1 34.4 12.4 34.3 12.6 Z M 33.4 14.6 C 33.2 14.0 33.1 13.4 33.6 13.4 C 33.8 13.5 33.7 15.5 33.4 14.6 Z M 33.4 14.6 " fill="#5E416F"></path></g></svg>