<?xml version="1.0" encoding="UTF-8" standalone="no"?><svg xmlns="http://www.w3.org/2000/svg" xmlns:xlink="http://www.w3.org/1999/xlink" clip-rule="evenodd" stroke-miterlimit="10" viewBox="0 0 170 22"><desc>SVG generated by Keynote</desc><defs></defs><g transform="matrix(1.00, 0.00, -0.00, -1.00, 0.0, 22.0)"><path d="M 5.5 10.3 C 5.2 10.4 5.1 9.9 4.5 9.8 C 3.9 9.6 3.1 9.6 3.3 9.9 C 3.4 10.2 3.6 10.4 3.3 10.8 C 3.0 11.2 2.7 11.9 3.1 12.2 C 3.5 12.5 5.1 13.2 5.6 12.8 C 6.2 12.4 6.3 12.3 6.7 12.0 C 7.1 11.8 6.8 12.6 6.8 12.6 C 6.8 12.6 7.7 12.7 8.4 12.8 C 9.0 12.8 9.8 12.8 9.9 12.7 C 10.0 12.6 10.2 12.3 10.2 12.3 C 10.2 12.3 10.5 12.6 11.0 12.7 C 11.5 12.8 11.3 12.6 11.3 12.4 C 11.2 12.2 10.6 11.7 10.8 11.7 C 11.0 11.7 11.7 12.5 12.0 12.6 C 12.3 12.6 13.1 12.6 13.1 12.6 C 13.1 12.6 13.0 12.2 13.1 12.0 C 13.2 11.9 14.0 11.9 14.0 12.0 C 14.0 12.2 14.0 12.7 14.3 12.7 C 15.5 12.8 15.4 11.9 15.5 11.9 C 15.6 11.9 15.6 12.5 15.9 12.6 C 16.1 12.8 18.5 12.7 18.6 12.5 C 18.7 12.3 19.5 12.9 19.9 12.5 C 20.2 12.1 20.3 12.0 20.4 11.9 C 20.4 11.8 20.9 11.1 21.1 11.3 C 21.3 11.6 20.4 12.4 20.7 12.6 C 21.0 12.8 22.4 12.8 22.7 12.6 C 23.0 12.3 23.1 11.7 23.3 11.7 C 23.5 11.7 24.4 12.5 24.4 12.4 C 24.5 12.3 24.6 11.5 24.6 11.4 C 24.6 11.3 24.9 10.0 24.7 9.9 C 24.6 9.7 23.7 9.2 23.8 9.6 C 23.9 9.9 24.1 10.4 23.8 10.5 C 23.5 10.7 23.3 10.7 23.2 10.6 C 23.2 10.5 23.3 10.3 22.8 10.1 C 22.3 9.8 22.6 9.5 22.1 9.6 C 21.6 9.6 21.2 9.7 21.2 10.0 C 21.3 10.2 20.7 10.6 20.4 10.6 C 20.0 10.6 20.6 10.0 19.5 9.7 C 18.4 9.5 17.7 9.4 17.4 9.7 C 17.1 9.9 17.0 10.6 16.5 10.3 C 16.0 10.0 16.3 9.8 15.6 9.8 C 14.9 9.8 14.6 10.4 14.2 10.4 C 13.7 10.5 13.6 10.4 13.6 10.4 C 13.6 10.4 13.8 9.6 12.8 9.6 C 11.8 9.5 11.6 9.4 11.8 10.0 C 12.0 10.6 11.2 10.7 11.2 10.3 C 11.2 9.9 10.6 9.6 10.2 9.6 C 9.9 9.5 9.8 10.5 9.6 10.6 C 9.5 10.6 9.1 10.5 9.3 10.2 C 9.4 9.9 9.0 9.8 8.7 9.7 C 8.4 9.6 7.5 9.7 7.5 9.8 C 7.5 10.0 7.9 10.7 7.3 10.4 C 6.7 10.0 6.5 9.5 5.9 9.5 C 5.3 9.6 5.9 10.2 5.5 10.3 C 5.5 10.3 5.5 10.3 5.5 10.3 Z M 25.1 9.5 C 24.0 9.6 24.7 12.2 25.1 12.8 C 25.6 13.3 26.3 13.0 27.0 13.0 C 27.7 13.1 27.5 12.3 27.9 12.1 C 28.3 11.8 28.2 12.4 28.4 12.8 C 28.5 13.1 29.6 12.8 30.3 12.8 C 31.0 12.9 31.7 12.0 32.2 11.9 C 32.7 11.9 31.7 11.5 32.7 11.5 C 33.6 11.6 33.2 12.1 32.1 12.3 C 31.0 12.6 32.5 12.8 33.1 13.0 C 33.7 13.0 34.7 12.7 35.2 12.7 C 35.7 12.8 35.1 12.1 35.8 12.1 C 36.5 12.1 36.1 12.8 36.8 12.9 C 37.5 13.0 37.4 12.4 37.8 12.2 C 38.1 12.1 38.1 12.5 38.4 12.5 C 38.7 12.6 39.1 12.8 39.8 12.6 C 40.5 12.5 40.3 12.3 40.6 12.2 C 40.9 12.2 41.4 12.2 41.4 12.2 C 41.4 12.4 41.5 12.6 41.5 12.8 C 41.5 12.8 42.7 12.9 43.1 13.0 C 43.4 13.0 44.3 12.7 44.0 12.6 C 43.8 12.4 44.6 12.0 44.8 12.1 C 45.0 12.2 45.6 12.5 46.0 12.7 C 46.4 12.8 46.3 11.1 46.3 10.8 C 46.3 10.6 46.5 9.7 46.2 9.6 C 45.8 9.5 45.5 9.8 45.6 9.6 C 45.6 9.3 44.6 9.6 44.3 9.6 C 44.0 9.6 43.6 10.2 43.6 10.2 C 43.6 10.2 43.3 10.7 42.8 10.7 C 42.4 10.7 42.2 9.7 42.2 9.7 C 42.2 9.7 41.6 9.5 41.0 9.5 C 40.4 9.6 39.7 10.5 39.6 10.6 C 39.5 10.8 39.5 10.0 39.1 9.9 C 38.7 9.8 38.1 9.6 37.9 9.6 C 37.7 9.7 37.4 10.2 37.4 10.2 C 37.4 10.2 36.6 10.5 36.4 10.5 C 36.3 10.5 36.6 9.7 36.6 9.7 C 36.6 9.7 34.9 9.5 34.6 9.5 C 34.3 9.4 33.7 9.6 33.5 9.7 C 33.3 9.7 32.9 10.7 32.6 10.6 C 32.2 10.5 32.9 10.0 32.6 9.9 C 32.2 9.8 31.5 9.6 31.4 9.6 C 31.2 9.6 30.9 9.9 30.6 10.0 C 30.4 10.0 29.9 10.8 29.5 10.8 C 29.0 10.8 28.7 10.3 28.6 10.2 C 28.4 10.1 28.3 9.5 27.9 9.4 C 27.5 9.4 27.8 9.9 27.4 9.9 C 27.1 9.9 27.1 10.4 26.7 10.3 C 26.3 10.2 26.6 9.4 26.2 9.5 C 26.0 9.5 26.2 9.5 25.1 9.5 C 25.1 9.5 25.1 9.5 25.1 9.5 Z M 47.1 9.7 C 46.6 9.3 46.1 9.8 46.2 10.1 C 46.2 10.5 46.4 11.5 46.2 11.7 C 46.0 12.0 45.4 12.7 46.4 12.9 C 47.3 13.0 47.4 12.7 47.4 12.5 C 47.4 12.3 47.6 11.2 47.9 11.3 C 48.1 11.4 48.4 11.7 48.4 11.8 C 48.5 12.0 48.8 13.0 49.3 12.8 C 49.7 12.7 50.1 12.4 50.1 12.4 C 50.3 12.4 50.6 12.4 50.8 12.3 C 50.8 12.3 51.4 12.9 51.9 12.8 C 52.4 12.7 52.9 12.7 53.3 12.7 C 53.6 12.8 54.0 12.7 54.0 12.4 C 54.1 12.2 54.6 11.4 54.6 11.4 C 54.6 11.4 55.1 11.1 55.4 11.3 C 55.6 11.4 55.7 11.9 55.6 12.1 C 55.6 12.3 55.6 12.7 56.0 12.8 C 56.4 12.9 57.9 13.4 58.2 13.1 C 58.4 12.8 58.3 12.4 58.5 12.3 C 58.7 12.3 59.8 12.2 59.8 12.4 C 59.9 12.7 59.9 13.2 60.2 13.1 C 60.5 13.1 61.1 13.2 61.1 13.1 C 61.1 13.0 61.3 12.8 61.3 12.5 C 61.3 12.3 61.9 12.0 62.0 11.9 C 62.2 11.7 62.6 11.7 62.6 11.7 C 62.8 11.9 63.0 12.0 63.3 12.2 C 63.3 12.2 62.9 12.7 62.7 12.8 C 62.5 12.9 62.8 13.2 63.0 13.2 C 63.2 13.3 64.3 13.2 64.3 13.2 C 64.4 12.8 64.4 12.4 64.4 12.0 C 64.7 11.9 65.0 11.9 65.3 11.8 C 65.3 11.8 65.1 13.1 65.7 13.1 C 66.2 13.1 66.9 13.1 66.9 13.1 C 66.9 13.1 67.5 12.6 67.6 12.6 C 67.7 12.5 67.8 11.3 67.8 11.3 C 67.8 10.9 67.7 10.4 67.7 9.9 C 67.7 9.9 67.0 9.5 66.6 9.7 C 66.3 9.8 66.6 10.4 66.5 10.6 C 66.5 10.8 65.9 11.0 65.9 11.0 C 65.7 10.8 65.4 10.5 65.2 10.3 C 65.2 10.3 64.9 10.0 64.7 9.8 C 64.5 9.6 63.6 9.4 63.4 9.5 C 63.1 9.6 62.9 9.9 62.6 10.2 C 62.3 10.4 62.3 10.8 62.0 10.5 C 61.6 10.2 61.4 9.8 61.3 9.8 C 61.1 9.8 60.3 10.3 60.3 10.3 C 60.1 10.4 59.8 10.5 59.6 10.6 C 59.6 10.6 59.0 10.8 59.0 10.5 C 58.9 10.3 57.7 10.6 57.7 10.6 C 57.7 10.6 57.8 9.8 57.5 9.6 C 57.2 9.5 56.7 9.3 56.2 9.4 C 55.7 9.6 55.4 10.4 55.4 10.4 C 55.2 10.2 55.1 10.0 54.9 9.7 C 54.5 9.7 54.0 9.6 53.6 9.6 C 53.6 9.6 52.5 9.6 52.5 9.8 C 52.5 9.9 52.7 10.6 52.6 10.8 C 52.5 11.0 52.0 11.2 51.9 11.0 C 51.9 10.7 51.4 10.1 51.4 10.1 C 51.4 10.1 51.0 9.7 50.7 9.6 C 50.3 9.6 49.9 9.8 49.7 9.9 C 49.6 10.1 49.1 10.6 49.1 10.6 C 49.0 10.4 48.9 10.2 48.8 9.9 C 48.8 9.9 47.9 10.3 47.1 9.7 C 47.1 9.7 47.1 9.7 47.1 9.7 Z M 68.1 9.5 C 67.0 9.6 67.8 12.2 68.2 12.8 C 68.6 13.3 69.3 13.0 70.0 13.0 C 70.8 13.1 70.5 12.3 70.9 12.1 C 71.3 11.8 71.2 12.4 71.4 12.8 C 71.6 13.1 72.7 12.8 73.3 12.8 C 74.0 12.9 74.7 12.0 75.2 11.9 C 75.8 11.9 74.8 11.5 75.7 11.5 C 76.7 11.6 76.2 12.1 75.1 12.3 C 74.0 12.6 75.5 12.8 76.1 13.0 C 76.7 13.0 77.7 12.7 78.2 12.7 C 78.7 12.8 78.1 12.1 78.8 12.1 C 79.5 12.1 79.1 12.8 79.8 12.9 C 80.5 13.0 80.5 12.4 80.8 12.2 C 81.2 12.1 81.1 12.5 81.4 12.5 C 81.7 12.6 82.2 12.8 82.8 12.6 C 83.5 12.5 83.3 12.3 83.6 12.2 C 83.9 12.2 84.4 12.2 84.4 12.2 C 84.5 12.4 84.5 12.6 84.6 12.8 C 84.6 12.8 85.8 12.9 86.1 13.0 C 86.5 13.0 87.3 12.7 87.1 12.6 C 86.8 12.4 87.7 12.0 87.8 12.1 C 88.0 12.2 88.6 12.5 89.0 12.7 C 89.5 12.8 89.3 11.1 89.3 10.8 C 89.3 10.6 89.6 9.7 89.2 9.6 C 88.9 9.5 88.6 9.8 88.6 9.6 C 88.7 9.3 87.6 9.6 87.3 9.6 C 87.0 9.6 86.6 10.2 86.6 10.2 C 86.6 10.2 86.4 10.7 85.9 10.7 C 85.4 10.7 85.2 9.7 85.2 9.7 C 85.2 9.7 84.6 9.5 84.0 9.5 C 83.4 9.6 82.8 10.5 82.6 10.6 C 82.5 10.8 82.5 10.0 82.1 9.9 C 81.7 9.8 81.1 9.6 80.9 9.6 C 80.7 9.7 80.4 10.2 80.4 10.2 C 80.4 10.2 79.7 10.5 79.5 10.5 C 79.3 10.5 79.6 9.7 79.6 9.7 C 79.6 9.7 78.0 9.5 77.6 9.5 C 77.3 9.4 76.8 9.6 76.5 9.7 C 76.3 9.7 75.9 10.7 75.6 10.6 C 75.2 10.5 75.9 10.0 75.6 9.9 C 75.2 9.8 74.6 9.6 74.4 9.6 C 74.2 9.6 74.0 9.9 73.7 10.0 C 73.4 10.0 73.0 10.8 72.5 10.8 C 72.0 10.8 71.8 10.3 71.6 10.2 C 71.4 10.1 71.3 9.5 70.9 9.4 C 70.5 9.4 70.8 9.9 70.4 9.9 C 70.1 9.9 70.1 10.4 69.7 10.3 C 69.4 10.2 69.6 9.4 69.2 9.5 C 69.0 9.5 69.2 9.5 68.1 9.5 C 68.1 9.5 68.1 9.5 68.1 9.5 Z M 90.1 9.7 C 89.6 9.3 89.1 9.8 89.2 10.1 C 89.3 10.5 89.4 11.5 89.3 11.7 C 89.1 12.0 88.5 12.7 89.4 12.9 C 90.3 13.0 90.5 12.7 90.5 12.5 C 90.5 12.3 90.7 11.2 90.9 11.3 C 91.1 11.4 91.4 11.7 91.4 11.8 C 91.5 12.0 91.9 13.0 92.3 12.8 C 92.7 12.7 93.1 12.4 93.1 12.4 C 93.4 12.4 93.6 12.4 93.8 12.3 C 93.8 12.3 94.4 12.9 94.9 12.8 C 95.4 12.7 95.9 12.7 96.3 12.7 C 96.7 12.8 97.0 12.7 97.1 12.4 C 97.1 12.2 97.6 11.4 97.6 11.4 C 97.6 11.4 98.2 11.1 98.4 11.3 C 98.6 11.4 98.7 11.9 98.6 12.1 C 98.6 12.3 98.6 12.7 99.0 12.8 C 99.4 12.9 101.0 13.4 101.2 13.1 C 101.4 12.8 101.4 12.4 101.6 12.3 C 101.7 12.3 102.8 12.2 102.9 12.4 C 103.0 12.7 102.9 13.2 103.2 13.1 C 103.5 13.1 104.1 13.2 104.1 13.1 C 104.1 13.0 104.3 12.8 104.3 12.5 C 104.3 12.3 105.0 12.0 105.1 11.9 C 105.2 11.7 105.7 11.7 105.7 11.7 C 105.9 11.9 106.1 12.0 106.3 12.2 C 106.3 12.2 105.9 12.7 105.7 12.8 C 105.6 12.9 105.9 13.2 106.0 13.2 C 106.2 13.3 107.4 13.2 107.4 13.2 C 107.4 12.8 107.4 12.4 107.4 12.0 C 107.7 11.9 108.0 11.9 108.3 11.8 C 108.3 11.8 108.2 13.1 108.7 13.1 C 109.2 13.1 109.9 13.1 109.9 13.1 C 109.9 13.1 110.5 12.6 110.6 12.6 C 110.8 12.5 110.8 11.3 110.8 11.3 C 110.8 10.9 110.7 10.4 110.7 9.9 C 110.7 9.9 110.0 9.5 109.7 9.7 C 109.3 9.8 109.6 10.4 109.6 10.6 C 109.5 10.8 109.0 11.0 109.0 11.0 C 108.7 10.8 108.5 10.5 108.2 10.3 C 108.2 10.3 108.0 10.0 107.7 9.8 C 107.5 9.6 106.6 9.4 106.4 9.5 C 106.2 9.6 105.9 9.9 105.6 10.2 C 105.3 10.4 105.4 10.8 105.0 10.5 C 104.6 10.2 104.5 9.8 104.3 9.8 C 104.1 9.8 103.3 10.3 103.3 10.3 C 103.1 10.4 102.9 10.5 102.6 10.6 C 102.6 10.6 102.1 10.8 102.0 10.5 C 101.9 10.3 100.7 10.6 100.7 10.6 C 100.7 10.6 100.8 9.8 100.5 9.6 C 100.2 9.5 99.7 9.3 99.3 9.4 C 98.8 9.6 98.4 10.4 98.4 10.4 C 98.3 10.2 98.1 10.0 98.0 9.7 C 97.5 9.7 97.1 9.6 96.6 9.6 C 96.6 9.6 95.6 9.6 95.6 9.8 C 95.6 9.9 95.7 10.6 95.6 10.8 C 95.6 11.0 95.0 11.2 95.0 11.0 C 94.9 10.7 94.4 10.1 94.4 10.1 C 94.4 10.1 94.0 9.7 93.7 9.6 C 93.4 9.6 92.9 9.8 92.8 9.9 C 92.7 10.1 92.2 10.6 92.2 10.6 C 92.0 10.4 91.9 10.2 91.8 9.9 C 91.8 9.9 91.0 10.3 90.1 9.7 C 90.1 9.7 90.1 9.7 90.1 9.7 Z M 111.2 9.5 C 110.1 9.6 110.8 12.2 111.2 12.8 C 111.6 13.3 112.3 13.0 113.1 13.0 C 113.8 13.1 113.5 12.3 114.0 12.1 C 114.4 11.8 114.2 12.4 114.4 12.8 C 114.6 13.1 115.7 12.8 116.4 12.8 C 117.0 12.9 117.7 12.0 118.2 11.9 C 118.8 11.9 117.8 11.5 118.7 11.5 C 119.7 11.6 119.2 12.1 118.1 12.3 C 117.0 12.6 118.6 12.8 119.2 13.0 C 119.8 13.0 120.8 12.7 121.2 12.7 C 121.7 12.8 121.1 12.1 121.8 12.1 C 122.5 12.1 122.2 12.8 122.9 12.9 C 123.6 13.0 123.5 12.4 123.8 12.2 C 124.2 12.1 124.1 12.5 124.4 12.5 C 124.7 12.6 125.2 12.8 125.9 12.6 C 126.5 12.5 126.3 12.3 126.6 12.2 C 126.9 12.2 127.5 12.2 127.5 12.2 C 127.5 12.4 127.5 12.6 127.6 12.8 C 127.6 12.8 128.8 12.9 129.1 13.0 C 129.5 13.0 130.3 12.7 130.1 12.6 C 129.9 12.4 130.7 12.0 130.9 12.1 C 131.0 12.2 131.7 12.5 132.1 12.7 C 132.5 12.8 132.4 11.1 132.4 10.8 C 132.4 10.6 132.6 9.7 132.2 9.6 C 131.9 9.5 131.6 9.8 131.7 9.6 C 131.7 9.3 130.6 9.6 130.3 9.6 C 130.0 9.6 129.7 10.2 129.7 10.2 C 129.7 10.2 129.4 10.7 128.9 10.7 C 128.4 10.7 128.2 9.7 128.2 9.7 C 128.2 9.7 127.6 9.5 127.0 9.5 C 126.4 9.6 125.8 10.5 125.7 10.6 C 125.5 10.8 125.6 10.0 125.2 9.9 C 124.7 9.8 124.1 9.6 123.9 9.6 C 123.8 9.7 123.5 10.2 123.5 10.2 C 123.5 10.2 122.7 10.5 122.5 10.5 C 122.3 10.5 122.6 9.7 122.6 9.7 C 122.6 9.7 121.0 9.5 120.7 9.5 C 120.3 9.4 119.8 9.6 119.6 9.7 C 119.3 9.7 119.0 10.7 118.6 10.6 C 118.3 10.5 119.0 10.0 118.6 9.9 C 118.3 9.8 117.6 9.6 117.4 9.6 C 117.2 9.6 117.0 9.9 116.7 10.0 C 116.4 10.0 116.0 10.8 115.5 10.8 C 115.0 10.8 114.8 10.3 114.6 10.2 C 114.4 10.1 114.3 9.5 113.9 9.4 C 113.6 9.4 113.8 9.9 113.5 9.9 C 113.1 9.9 113.1 10.4 112.8 10.3 C 112.4 10.2 112.6 9.4 112.2 9.5 C 112.0 9.5 112.2 9.5 111.2 9.5 C 111.2 9.5 111.2 9.5 111.2 9.5 Z M 134.6 10.3 C 134.3 10.4 134.1 9.9 133.6 9.8 C 133.0 9.6 132.2 9.6 132.4 9.9 C 132.5 10.2 132.7 10.4 132.4 10.8 C 132.1 11.2 131.7 11.9 132.2 12.2 C 132.6 12.5 134.2 13.2 134.7 12.8 C 135.2 12.4 135.4 12.3 135.8 12.0 C 136.2 11.8 135.9 12.6 135.9 12.6 C 135.9 12.6 136.8 12.7 137.5 12.8 C 138.1 12.8 138.9 12.8 139.0 12.7 C 139.0 12.6 139.3 12.3 139.3 12.3 C 139.3 12.3 139.6 12.6 140.1 12.7 C 140.6 12.8 140.4 12.6 140.4 12.4 C 140.3 12.2 139.7 11.7 139.9 11.7 C 140.1 11.7 140.7 12.5 141.1 12.6 C 141.4 12.6 142.2 12.6 142.2 12.6 C 142.2 12.6 142.1 12.2 142.2 12.0 C 142.3 11.9 143.0 11.9 143.1 12.0 C 143.1 12.2 143.0 12.7 143.4 12.7 C 144.6 12.8 144.5 11.9 144.6 11.9 C 144.7 11.9 144.7 12.5 145.0 12.6 C 145.2 12.8 147.6 12.7 147.7 12.5 C 147.8 12.3 148.6 12.9 148.9 12.5 C 149.3 12.1 149.4 12.0 149.5 11.9 C 149.5 11.8 150.0 11.1 150.2 11.3 C 150.4 11.6 149.5 12.4 149.8 12.6 C 150.1 12.8 151.5 12.8 151.8 12.6 C 152.1 12.3 152.2 11.7 152.4 11.7 C 152.6 11.7 153.5 12.5 153.5 12.4 C 153.6 12.3 153.7 11.5 153.7 11.4 C 153.7 11.3 154.0 10.0 153.8 9.9 C 153.6 9.7 152.7 9.2 152.9 9.6 C 153.0 9.9 153.2 10.4 152.9 10.5 C 152.6 10.7 152.4 10.7 152.3 10.6 C 152.2 10.5 152.4 10.3 151.9 10.1 C 151.4 9.8 151.7 9.5 151.2 9.6 C 150.7 9.6 150.2 9.7 150.3 10.0 C 150.3 10.2 149.8 10.6 149.5 10.6 C 149.1 10.6 149.7 10.0 148.6 9.7 C 147.5 9.5 146.8 9.4 146.5 9.7 C 146.2 9.9 146.1 10.6 145.6 10.3 C 145.1 10.0 145.4 9.8 144.7 9.8 C 144.0 9.8 143.7 10.4 143.2 10.4 C 142.8 10.5 142.7 10.4 142.7 10.4 C 142.7 10.4 142.9 9.6 141.9 9.6 C 140.9 9.5 140.7 9.4 140.9 10.0 C 141.1 10.6 140.3 10.7 140.3 10.3 C 140.3 9.9 139.7 9.6 139.3 9.6 C 139.0 9.5 138.9 10.5 138.7 10.6 C 138.6 10.6 138.2 10.5 138.3 10.2 C 138.5 9.9 138.1 9.8 137.8 9.7 C 137.5 9.6 136.5 9.7 136.6 9.8 C 136.6 10.0 137.0 10.7 136.4 10.4 C 135.8 10.0 135.6 9.5 135.0 9.5 C 134.4 9.6 134.9 10.2 134.6 10.3 C 134.6 10.3 134.6 10.3 134.6 10.3 Z M 134.6 10.3 " fill="#5E416F"></path><path d="M 152.8 20.5 C 152.7 20.9 151.6 21.3 152.3 20.6 C 152.4 20.5 152.8 20.4 152.8 20.5 Z M 154.5 19.5 C 154.3 19.6 154.2 19.7 154.1 19.6 C 153.7 19.4 154.9 19.3 154.5 19.5 Z M 151.8 20.7 C 151.8 20.7 151.2 21.1 151.3 20.9 C 151.3 20.7 151.8 20.6 151.8 20.7 Z M 155.6 18.0 C 155.7 18.2 155.1 18.5 154.9 18.5 C 154.6 18.4 155.4 17.7 155.6 18.0 Z M 151.0 15.2 C 151.0 15.1 151.0 15.1 151.0 15.0 C 151.0 15.1 151.0 15.1 151.0 15.2 Z M 163.6 13.7 C 163.5 13.8 163.2 13.8 163.2 13.6 C 163.2 13.4 163.9 13.5 163.6 13.7 Z M 150.7 4.1 C 150.7 4.1 150.5 4.4 150.5 4.3 C 150.4 4.1 150.6 4.0 150.7 4.1 Z M 150.5 4.1 C 150.3 4.2 150.3 3.9 150.4 4.0 C 150.5 4.0 150.6 4.1 150.5 4.1 Z M 159.4 6.5 C 159.5 6.5 159.6 6.5 159.5 6.5 C 159.4 6.6 159.3 6.4 159.4 6.5 Z M 159.1 6.5 C 158.9 6.6 158.9 6.3 159.0 6.3 C 159.2 6.4 159.2 6.4 159.1 6.5 Z M 157.9 4.8 C 157.9 4.8 158.0 4.8 157.9 4.8 C 157.8 4.9 157.7 4.7 157.9 4.8 Z M 150.2 8.7 C 150.1 8.6 150.2 8.2 150.4 8.3 C 150.5 8.3 150.3 8.8 150.2 8.7 Z M 150.1 8.2 C 150.0 8.2 150.0 8.0 150.1 8.1 C 150.2 8.1 150.2 8.2 150.1 8.2 Z M 150.4 9.6 C 150.6 9.6 150.6 10.0 150.5 10.1 C 150.5 10.2 150.4 10.4 150.4 10.5 C 150.3 10.5 150.1 9.6 150.4 9.6 Z M 150.6 12.6 C 150.5 12.6 150.5 12.5 150.5 12.4 C 150.6 12.3 150.6 12.6 150.6 12.6 Z M 150.5 10.9 C 150.4 10.9 150.3 10.9 150.4 10.7 C 150.5 10.6 150.5 10.9 150.5 10.9 Z M 158.9 16.5 C 159.1 16.5 158.6 16.7 158.5 16.7 C 158.5 16.7 158.6 16.6 158.5 16.6 C 158.4 16.6 158.5 16.2 158.9 16.5 Z M 155.4 19.0 C 155.3 19.0 155.2 19.0 155.2 18.8 C 155.2 18.8 155.6 18.7 155.4 19.0 Z M 158.1 16.3 C 158.1 16.4 158.0 16.4 158.0 16.4 C 158.0 16.3 158.1 16.3 158.1 16.3 Z M 158.3 16.1 C 158.2 16.1 158.0 16.1 157.9 16.0 C 157.9 15.8 158.6 15.8 158.3 16.1 Z M 159.5 16.3 C 159.4 16.4 159.4 16.4 159.5 16.3 C 159.5 16.2 159.5 16.3 159.5 16.3 Z M 157.5 17.8 C 157.4 17.9 157.4 17.9 157.4 17.8 C 157.5 17.7 157.5 17.8 157.5 17.8 Z M 160.4 15.5 C 160.4 15.5 160.2 15.8 160.0 15.6 C 159.7 15.3 160.4 15.5 160.4 15.5 Z M 161.7 14.2 C 161.6 14.3 161.6 14.2 161.7 14.1 C 161.8 14.1 161.8 14.2 161.7 14.2 Z M 162.0 13.4 C 162.2 13.4 162.4 13.4 162.1 13.5 C 161.8 13.7 161.7 13.4 162.0 13.4 Z M 161.7 13.7 C 161.7 13.6 161.8 13.6 161.9 13.6 C 161.9 13.7 161.8 13.7 161.7 13.7 Z M 160.7 14.8 C 160.6 15.0 160.4 14.9 160.5 14.8 C 160.7 14.6 160.8 14.7 160.7 14.8 Z M 150.2 16.7 C 150.3 16.8 150.1 16.8 150.0 16.7 C 150.0 16.6 150.2 16.6 150.2 16.7 Z M 150.9 10.3 C 150.8 10.4 150.8 10.3 150.8 10.2 C 150.9 10.0 151.0 10.2 150.9 10.3 Z M 151.2 6.3 C 151.1 6.4 151.1 6.3 151.2 6.1 C 151.2 6.0 151.3 6.2 151.2 6.3 Z M 150.9 11.9 C 150.8 12.0 150.5 11.6 150.8 11.3 C 151.1 11.1 151.1 11.8 150.9 11.9 Z M 154.1 15.9 C 154.2 16.0 154.0 16.0 154.0 16.0 C 154.1 15.8 154.1 15.8 154.1 15.9 Z M 151.4 11.0 C 151.4 11.1 151.2 11.1 151.2 11.0 C 151.1 11.0 151.3 10.9 151.4 11.0 Z M 151.0 7.0 C 150.9 7.2 150.6 7.1 150.6 7.0 C 150.3 6.6 150.6 6.4 150.8 6.2 C 150.9 6.0 151.0 6.9 151.0 7.0 Z M 150.8 17.7 C 150.9 17.6 150.9 17.5 150.9 17.4 C 150.8 17.4 150.9 17.3 150.9 17.2 C 150.9 16.8 150.5 16.6 150.4 16.3 C 150.2 15.7 151.0 15.5 151.0 15.2 C 151.0 15.3 151.0 15.3 151.1 15.4 C 151.3 15.6 151.2 14.1 151.2 14.1 C 151.0 12.8 150.8 14.3 150.4 14.3 C 150.2 14.3 150.7 13.5 150.7 13.4 C 150.9 13.0 150.5 13.0 150.6 12.7 C 150.7 12.5 151.6 12.0 151.5 11.9 C 151.4 11.8 151.5 11.4 151.5 11.3 C 151.5 11.1 151.5 10.7 151.1 10.9 C 150.9 11.0 150.6 11.1 150.9 10.8 C 151.0 10.6 151.6 9.2 150.9 9.2 C 150.9 9.2 150.7 9.5 150.7 9.5 C 150.5 9.2 150.7 8.0 150.5 7.7 C 149.8 7.0 150.8 7.9 151.0 7.5 C 151.3 7.0 151.5 6.7 151.4 6.0 C 151.4 5.9 151.4 5.2 151.0 5.5 C 150.7 5.7 150.6 5.6 150.5 6.0 C 150.2 5.5 150.8 5.2 150.7 5.1 C 150.5 5.0 150.4 5.3 150.4 4.9 C 150.5 4.5 150.4 4.7 150.7 4.6 C 150.8 4.6 150.9 4.3 150.9 4.3 C 150.9 4.3 150.9 4.3 151.0 4.3 C 150.9 3.9 150.3 3.4 150.5 3.3 C 150.6 3.2 151.0 3.4 151.1 3.4 C 151.1 3.4 151.2 3.4 151.2 3.4 C 151.1 3.2 150.9 2.9 150.9 2.8 C 151.0 2.8 151.6 3.0 151.4 2.9 C 151.2 2.7 151.4 2.0 151.6 2.0 C 151.8 1.9 152.6 1.7 152.7 1.6 C 152.7 1.5 153.1 1.7 153.2 1.8 C 153.3 1.8 153.4 2.2 153.5 2.2 C 153.5 2.3 153.8 2.4 153.8 2.4 C 153.8 2.4 154.0 2.4 154.2 2.5 C 154.5 2.7 154.5 2.9 154.8 3.2 C 155.0 3.4 155.3 3.3 155.6 3.5 C 155.9 3.6 155.8 4.2 156.0 4.4 C 156.2 4.6 156.5 4.2 156.8 4.4 C 157.1 4.5 157.2 4.7 157.1 4.7 C 156.9 4.7 157.0 4.8 157.1 4.9 C 157.1 5.0 157.4 5.3 157.6 5.3 C 157.8 5.3 157.0 4.5 158.2 5.2 C 158.7 5.5 158.9 6.1 158.7 6.1 C 158.3 5.8 158.8 6.9 158.9 6.7 C 159.1 6.5 160.0 7.2 159.9 6.7 C 159.9 6.6 161.0 7.1 161.1 7.2 C 161.2 7.3 161.7 7.5 161.6 7.9 C 161.6 8.1 162.3 8.0 162.5 8.1 C 162.6 8.1 163.3 8.6 163.4 8.8 C 163.5 9.0 163.2 8.8 163.0 8.7 C 162.8 8.6 162.7 8.3 162.5 8.2 C 162.4 8.2 162.6 8.5 162.8 8.6 C 162.9 8.8 162.9 9.0 163.0 9.1 C 163.1 9.1 163.2 9.2 163.4 9.3 C 163.5 9.3 163.5 9.3 163.6 9.3 C 163.6 9.2 163.6 9.1 163.6 9.0 C 163.7 9.0 163.8 9.0 164.1 9.1 C 164.3 9.3 164.5 9.4 164.7 9.7 C 165.0 10.0 165.1 9.9 165.3 10.0 C 165.6 10.1 165.7 10.3 165.7 10.4 C 165.7 10.4 165.4 10.3 165.3 10.4 C 165.3 10.4 165.5 10.7 165.6 10.8 C 166.1 11.2 165.4 11.5 165.9 11.9 C 166.2 12.1 165.7 12.1 165.4 12.1 C 165.5 12.2 165.5 12.2 165.2 12.5 C 165.3 12.5 164.9 12.7 164.7 12.8 C 164.6 12.9 164.0 13.4 164.3 13.0 C 164.3 13.0 164.3 12.9 164.4 12.9 C 164.4 12.9 164.3 12.9 164.3 12.9 C 164.3 12.9 164.4 12.5 164.4 12.5 C 164.4 12.5 164.3 12.9 164.3 12.9 C 164.2 12.8 164.0 12.8 163.9 12.7 C 163.9 12.8 163.9 12.8 163.9 12.9 C 163.9 12.9 163.9 12.9 163.9 12.9 C 163.9 12.9 163.9 12.9 163.9 12.9 C 164.0 13.0 163.9 13.0 163.8 13.1 C 163.6 13.4 162.9 13.5 162.6 13.6 C 162.9 12.6 161.8 13.3 161.5 13.6 C 161.1 13.9 161.6 14.6 161.8 14.5 C 161.5 14.7 161.4 14.6 161.2 14.4 C 161.2 14.4 160.6 14.2 160.7 14.2 C 159.9 14.3 160.4 14.8 160.3 15.0 C 160.2 15.2 160.0 15.3 159.8 15.5 C 159.6 15.6 159.9 15.7 159.9 15.8 C 159.8 16.2 159.0 15.9 158.8 16.0 C 158.9 15.8 159.1 15.7 159.2 15.5 C 159.1 15.8 158.7 15.5 158.6 15.5 C 158.4 15.6 158.1 15.8 157.9 15.9 C 157.6 16.1 157.3 16.4 156.9 16.7 C 157.1 16.7 157.9 16.8 157.9 16.7 C 157.8 16.8 157.4 16.9 157.7 17.1 C 158.2 17.4 157.1 17.7 157.0 17.8 C 156.5 18.0 156.3 18.8 155.5 18.6 C 155.5 18.6 156.1 18.0 156.0 18.0 C 155.6 17.7 155.3 17.6 154.9 17.9 C 154.8 18.0 154.3 18.7 154.3 18.8 C 154.3 18.7 155.6 19.2 154.8 19.3 C 154.6 19.3 154.8 19.0 154.6 19.0 C 154.3 19.0 154.1 19.3 153.8 19.4 C 153.8 19.4 153.3 19.5 153.3 19.6 C 153.3 19.7 153.4 19.9 153.3 20.1 C 153.2 20.2 153.0 20.2 152.9 20.1 C 152.9 20.1 152.9 20.0 152.9 20.0 C 152.8 20.0 152.8 20.0 152.7 19.9 C 152.7 20.0 152.6 20.0 152.5 20.0 C 152.4 20.0 152.6 19.8 152.7 19.8 C 152.7 19.8 152.7 19.7 152.6 19.7 C 152.5 19.8 152.3 20.0 152.3 20.0 C 152.1 20.4 152.2 20.5 151.5 20.4 C 150.9 20.4 150.6 19.1 150.8 18.3 C 150.7 18.1 150.7 17.9 150.8 17.7 Z M 163.6 9.7 C 163.6 9.7 163.6 9.7 163.6 9.7 C 163.5 9.8 163.5 9.8 163.5 9.9 C 163.6 10.1 163.5 9.8 163.7 9.9 C 163.8 10.0 163.8 10.0 163.6 9.7 Z M 163.5 11.6 C 163.6 11.6 163.6 11.5 163.6 11.4 C 163.5 11.5 163.5 11.5 163.5 11.6 Z M 163.9 12.3 C 164.1 12.1 163.5 12.1 163.2 12.3 C 163.6 12.4 163.8 12.4 163.9 12.3 Z M 163.5 13.0 C 163.5 12.9 163.5 12.9 163.5 12.8 C 163.5 12.7 163.3 13.0 163.3 12.9 C 163.2 12.8 163.4 12.5 163.2 12.6 C 163.2 12.6 163.1 12.6 163.1 12.6 C 163.1 12.6 163.0 12.6 163.0 12.7 C 163.0 12.8 163.3 13.0 163.5 13.0 Z M 162.3 9.7 C 162.4 9.7 162.4 9.6 162.3 9.6 C 162.2 9.5 162.2 9.6 162.3 9.7 Z M 161.4 8.2 C 161.4 8.4 161.6 8.4 161.5 8.2 C 161.5 8.1 161.3 8.1 161.4 8.2 Z M 159.4 10.3 C 159.5 10.3 159.4 10.3 159.3 10.2 C 159.2 10.2 159.3 10.3 159.4 10.3 Z M 159.3 11.8 C 159.2 11.9 159.4 12.0 159.4 11.9 C 159.4 11.9 159.3 11.7 159.3 11.8 Z M 159.5 8.4 C 159.3 8.4 159.4 8.5 159.5 8.5 C 159.6 8.5 159.6 8.4 159.5 8.4 Z M 159.8 10.4 C 159.7 10.3 159.6 10.3 159.6 10.4 C 159.5 10.4 159.6 10.5 159.7 10.6 C 159.9 10.6 159.9 10.6 159.8 10.4 Z M 159.9 11.7 C 159.5 11.9 159.6 12.0 160.0 11.7 C 160.4 11.4 160.1 11.5 159.9 11.7 Z M 160.6 7.2 C 160.6 7.3 160.9 7.3 160.9 7.3 C 160.9 7.3 160.4 6.9 160.6 7.2 Z M 159.8 15.1 C 159.9 15.0 159.9 14.8 159.7 14.9 C 159.5 15.0 159.6 15.1 159.8 15.1 Z M 159.0 14.5 C 159.3 14.7 159.6 14.6 159.6 14.6 C 159.6 14.6 159.5 14.3 159.6 14.2 C 159.8 14.0 160.2 14.1 160.3 13.8 C 160.5 13.5 159.9 13.7 159.8 13.8 C 159.9 13.7 159.9 13.7 159.9 13.6 C 159.8 13.5 159.7 13.5 159.6 13.7 C 159.6 13.8 158.7 14.2 159.0 14.5 Z M 159.1 10.9 C 159.2 11.0 159.4 10.8 159.2 10.7 C 159.1 10.5 159.0 10.4 158.9 10.5 C 158.9 10.5 158.9 10.8 159.1 10.9 Z M 158.9 9.8 C 159.1 9.7 159.0 9.7 158.9 9.6 C 158.7 9.5 158.8 9.8 158.9 9.8 Z M 156.9 5.0 C 156.7 5.1 157.0 5.2 157.0 5.1 C 157.0 5.1 157.0 5.0 156.9 5.0 Z M 156.9 6.9 C 156.6 6.8 156.9 7.1 156.9 7.1 C 157.0 7.1 157.1 6.9 156.9 6.9 Z M 158.0 8.0 C 157.9 8.0 158.0 8.1 158.1 8.1 C 158.2 8.1 158.1 8.0 158.0 8.0 Z M 158.1 8.7 C 158.0 8.7 158.1 8.9 158.2 8.9 C 158.3 8.9 158.3 8.8 158.1 8.7 Z M 157.6 14.8 C 157.6 14.8 157.5 14.5 157.4 14.7 C 157.3 15.0 157.3 15.0 157.6 14.8 Z M 158.1 12.6 C 158.3 12.5 158.4 12.3 158.2 11.7 C 158.0 11.1 157.9 11.3 157.8 11.7 C 157.7 12.1 157.5 11.1 157.3 11.8 C 157.2 12.1 157.9 12.8 158.1 12.6 Z M 157.0 8.8 C 157.3 9.2 157.8 9.1 157.5 8.8 C 157.2 8.6 156.9 8.5 157.0 8.8 Z M 157.0 8.5 C 157.1 8.5 157.1 8.5 157.0 8.4 C 156.9 8.4 156.9 8.5 157.0 8.5 Z M 157.3 17.4 C 157.9 16.9 157.0 16.9 157.0 16.9 C 156.2 17.1 156.8 17.9 157.3 17.4 Z M 151.3 4.6 C 151.3 4.6 151.3 4.6 151.3 4.7 C 151.3 4.7 151.3 4.7 151.3 4.7 C 151.4 4.8 151.5 4.6 151.5 4.6 C 151.4 4.5 151.3 4.5 151.3 4.6 Z M 151.1 8.4 C 151.1 8.3 151.1 8.2 151.0 8.1 C 150.7 8.1 150.7 9.3 151.3 8.8 C 151.3 8.8 151.9 8.0 151.6 8.0 C 151.4 7.9 151.1 8.8 151.1 8.4 Z M 151.6 7.2 C 151.6 7.7 152.1 6.8 151.8 7.0 C 151.7 7.0 151.6 7.1 151.6 7.2 Z M 152.7 3.8 C 152.4 3.2 151.5 3.3 152.0 4.3 C 152.5 5.2 152.8 5.3 152.7 4.8 C 152.6 4.3 153.0 4.7 152.7 3.8 Z M 152.7 8.8 C 152.0 8.7 152.2 9.0 152.7 9.2 C 152.8 9.2 153.1 8.9 152.7 8.8 Z M 152.8 10.2 C 152.7 10.4 152.7 10.4 152.8 10.3 C 153.0 10.2 152.8 10.0 152.8 10.2 Z M 153.6 2.8 C 153.5 2.6 153.2 2.4 153.4 2.4 C 153.5 2.4 153.5 2.4 153.3 2.2 C 153.2 2.1 153.2 2.4 153.2 2.5 C 153.2 2.7 153.7 3.1 153.6 2.8 Z M 155.8 8.2 C 155.7 8.1 155.8 8.3 155.9 8.3 C 155.9 8.3 155.9 8.2 155.8 8.2 Z M 156.5 13.5 C 156.5 13.5 156.5 13.3 156.4 13.5 C 156.3 13.6 156.3 13.6 156.5 13.5 Z M 156.3 17.7 C 156.4 17.6 156.1 17.6 156.1 17.4 C 156.1 17.3 156.3 17.4 156.3 17.5 C 156.3 17.4 156.2 16.9 156.0 17.2 C 155.9 17.4 156.0 18.0 156.3 17.7 Z M 155.6 9.7 C 155.8 9.9 156.0 9.0 156.2 9.1 C 156.4 9.3 156.4 9.2 156.2 9.0 C 156.0 8.8 155.4 9.4 155.6 9.7 Z M 155.5 7.4 C 155.5 7.5 156.0 7.9 155.9 7.7 C 155.7 7.5 155.5 7.3 155.6 7.3 C 155.8 7.3 155.7 7.2 155.6 7.1 C 155.5 6.9 155.5 7.3 155.5 7.4 Z M 155.3 3.6 C 155.4 3.7 155.7 3.8 155.5 3.7 C 155.5 3.6 155.3 3.6 155.3 3.6 Z M 155.1 14.1 C 155.2 13.9 155.1 13.9 155.0 14.0 C 154.8 14.2 155.0 14.3 155.1 14.1 Z M 154.7 4.0 C 154.9 4.2 154.8 3.8 154.9 4.0 C 155.1 4.1 155.1 4.0 154.9 3.8 C 154.7 3.7 154.5 3.7 154.7 4.0 Z M 154.5 17.5 C 154.5 17.4 154.5 17.3 154.4 17.4 C 154.3 17.5 154.5 17.6 154.5 17.5 Z M 154.0 16.1 C 154.0 16.1 154.1 16.1 154.2 16.1 C 155.1 15.4 153.4 15.9 154.0 16.1 Z M 154.1 14.0 C 154.2 14.2 154.3 13.9 154.3 13.9 C 154.2 13.8 154.1 13.9 154.1 14.0 Z M 154.1 11.6 C 154.0 11.5 154.0 11.8 154.1 11.7 C 154.2 11.7 154.2 11.6 154.1 11.6 Z M 153.7 19.3 C 153.8 19.2 153.8 19.1 153.7 19.2 C 153.6 19.2 153.5 19.3 153.7 19.3 Z M 153.6 13.3 C 153.6 13.4 153.7 13.4 153.6 13.2 C 153.6 13.1 153.5 13.3 153.6 13.3 Z M 153.5 6.1 C 153.6 6.1 153.7 6.2 153.7 6.3 C 153.8 6.2 153.9 5.8 154.0 5.8 C 154.1 5.8 154.1 5.8 154.1 5.8 C 154.1 5.8 154.1 5.8 154.1 5.8 C 154.2 5.8 154.2 5.8 154.2 5.9 C 154.2 5.9 154.2 6.0 154.3 6.1 C 154.4 5.9 154.5 5.8 154.4 5.7 C 154.3 5.5 153.9 5.5 153.7 5.5 C 153.6 5.6 153.6 5.7 153.6 5.8 C 153.6 5.8 153.6 5.8 153.6 5.8 C 153.8 5.9 153.8 6.0 153.7 6.0 C 153.6 6.0 153.6 6.0 153.5 5.9 C 153.5 6.0 153.5 6.0 153.5 6.1 Z M 153.2 12.4 C 153.3 12.6 153.4 12.5 153.5 12.2 C 153.5 12.1 153.1 12.2 153.2 12.4 Z M 153.4 19.0 C 153.4 18.9 153.4 18.8 153.3 18.8 C 153.3 18.8 153.3 18.9 153.3 18.9 C 153.3 19.0 153.3 19.2 153.2 19.3 C 153.4 19.3 153.5 19.2 153.4 19.0 Z M 152.8 16.9 C 152.8 17.0 152.7 17.8 152.9 17.7 C 153.2 17.4 153.6 17.8 153.4 17.2 C 153.4 16.9 152.9 16.6 152.8 16.3 C 152.5 14.8 152.4 16.7 152.3 17.1 C 152.3 17.2 152.7 16.8 152.8 16.9 Z M 152.3 14.9 C 152.1 14.8 152.0 15.1 152.0 15.2 C 152.0 15.5 152.5 15.0 152.3 14.9 Z M 152.1 19.2 C 152.1 19.2 152.1 19.2 152.2 19.2 C 152.1 19.1 152.1 19.1 152.0 19.1 C 152.0 19.1 152.0 19.1 152.1 19.2 Z M 151.9 20.2 C 152.3 19.9 151.5 19.9 151.3 20.0 C 151.0 20.1 151.7 20.4 151.9 20.2 Z M 151.6 16.0 C 151.6 15.7 150.7 15.4 150.7 15.9 C 150.8 16.4 151.5 16.7 151.6 16.0 Z M 150.4 12.8 C 150.5 13.0 150.4 13.3 150.3 13.1 C 150.2 13.0 150.4 12.8 150.4 12.8 Z M 149.9 17.6 C 150.0 17.5 150.0 17.6 150.0 17.6 C 149.9 17.7 149.9 17.7 149.9 17.6 Z M 150.6 17.2 C 150.5 17.3 150.5 17.5 150.4 17.6 C 150.4 17.7 150.3 17.4 150.3 17.4 C 150.4 17.3 150.6 17.2 150.6 17.2 Z M 150.7 14.6 C 150.6 14.8 150.6 14.5 150.6 14.4 C 150.6 14.4 150.7 14.5 150.7 14.6 Z M 150.5 15.2 C 150.5 15.1 150.6 15.2 150.6 15.3 C 150.6 15.5 150.4 15.3 150.5 15.2 Z M 151.0 14.2 C 151.1 14.4 151.1 14.8 150.9 14.8 C 150.8 14.8 150.8 13.6 151.0 14.2 Z M 151.0 14.2 " fill="#5E416F"></path></g></svg>