<?xml version="1.0" encoding="UTF-8" standalone="no"?><svg xmlns="http://www.w3.org/2000/svg" xmlns:xlink="http://www.w3.org/1999/xlink" clip-rule="evenodd" stroke-miterlimit="10" viewBox="0 0 1024 768"><desc>SVG generated by Keynote</desc><defs></defs><g transform="matrix(1.00, 0.00, -0.00, -1.00, 0.0, 768.0)"><path d="M 0.0 768.0 L 1024.0 768.0 L 1024.0 0.0 L 0.0 0.0 Z M 0.0 768.0 " fill="#FEFFFF"></path><g><clipPath id="clip0x608001cb4a00"><path d="M 241.0 768.0 L 783.0 768.0 L 783.0 182.0 L 241.0 182.0 Z M 240.6 768.0 "></path></clipPath><g clip-path="url(#clip0x608001cb4a00)"><image xlink:href="../../8A2E51CF-922A-4E42-8ABB-83D65C17DD92/assets/7E62D2F8D95B3DB8C1EC598FD3F75AA4.jpeg" width="900.00" height="1098.00" transform="matrix(0.60, 0.00, -0.00, -0.60, 240.6, 815.0)"></image></g></g><text xml:space="preserve" font-family="AvenirNext-Medium,Avenir Next" font-size="54.0" fill="#000000" transform="matrix(1.00, 0.00, -0.00, -1.00, 4.0, 71.3)">X</text><text xml:space="preserve" font-family="AvenirNext-Medium,Avenir Next" font-size="54.0" fill="#000000" transform="matrix(1.00, 0.00, -0.00, -1.00, 40.1, 71.3)">X</text><text xml:space="preserve" font-family="AvenirNext-Medium,Avenir Next" font-size="54.0" fill="#000000" transform="matrix(1.00, 0.00, -0.00, -1.00, 76.1, 71.3)">X</text><text xml:space="preserve" font-family="AvenirNext-Medium,Avenir Next" font-size="54.0" fill="#000000" transform="matrix(1.00, 0.00, -0.00, -1.00, 112.2, 71.3)">I</text><text xml:space="preserve" font-family="AvenirNext-Medium,Avenir Next" font-size="54.0" fill="#000000" transform="matrix(1.00, 0.00, -0.00, -1.00, 126.9, 71.3)">t</text><text xml:space="preserve" font-family="AvenirNext-Medium,Avenir Next" font-size="54.0" fill="#000000" transform="matrix(1.00, 0.00, -0.00, -1.00, 144.6, 71.3)">e</text><text xml:space="preserve" font-family="AvenirNext-Medium,Avenir Next" font-size="54.0" fill="#000000" transform="matrix(1.00, 0.00, -0.00, -1.00, 175.6, 71.3)">m</text><text xml:space="preserve" font-family="AvenirNext-Medium,Avenir Next" font-size="54.0" fill="#000000" transform="matrix(1.00, 0.00, -0.00, -1.00, 223.5, 71.3)">P</text><text xml:space="preserve" font-family="AvenirNext-Medium,Avenir Next" font-size="54.0" fill="#000000" transform="matrix(1.00, 0.00, -0.00, -1.00, 253.1, 71.3)">r</text><text xml:space="preserve" font-family="AvenirNext-Medium,Avenir Next" font-size="54.0" fill="#000000" transform="matrix(1.00, 0.00, -0.00, -1.00, 271.7, 71.3)">o</text><text xml:space="preserve" font-family="AvenirNext-Medium,Avenir Next" font-size="54.0" fill="#000000" transform="matrix(1.00, 0.00, -0.00, -1.00, 304.6, 71.3)">v</text><text xml:space="preserve" font-family="AvenirNext-Medium,Avenir Next" font-size="54.0" fill="#000000" transform="matrix(1.00, 0.00, -0.00, -1.00, 331.8, 71.3)">i</text><text xml:space="preserve" font-family="AvenirNext-Medium,Avenir Next" font-size="54.0" fill="#000000" transform="matrix(1.00, 0.00, -0.00, -1.00, 345.8, 71.3)">d</text><text xml:space="preserve" font-family="AvenirNext-Medium,Avenir Next" font-size="54.0" fill="#000000" transform="matrix(1.00, 0.00, -0.00, -1.00, 380.1, 71.3)">e</text><text xml:space="preserve" font-family="AvenirNext-Medium,Avenir Next" font-size="54.0" fill="#000000" transform="matrix(1.00, 0.00, -0.00, -1.00, 411.1, 71.3)">r</text><text xml:space="preserve" font-family="AvenirNext-Medium,Avenir Next" font-size="54.0" fill="#000000" transform="matrix(1.00, 0.00, -0.00, -1.00, 430.6, 71.3)">#</text><text xml:space="preserve" font-family="AvenirNext-Medium,Avenir Next" font-size="54.0" fill="#000000" transform="matrix(1.00, 0.00, -0.00, -1.00, 461.6, 71.3)">g</text><text xml:space="preserve" font-family="AvenirNext-Medium,Avenir Next" font-size="54.0" fill="#000000" transform="matrix(1.00, 0.00, -0.00, -1.00, 495.7, 71.3)">e</text><text xml:space="preserve" font-family="AvenirNext-Medium,Avenir Next" font-size="54.0" fill="#000000" transform="matrix(1.00, 0.00, -0.00, -1.00, 526.7, 71.3)">t</text><text xml:space="preserve" font-family="AvenirNext-Medium,Avenir Next" font-size="54.0" fill="#000000" transform="matrix(1.00, 0.00, -0.00, -1.00, 544.4, 71.3)">T</text><text xml:space="preserve" font-family="AvenirNext-Medium,Avenir Next" font-size="54.0" fill="#000000" transform="matrix(1.00, 0.00, -0.00, -1.00, 570.0, 71.3)">e</text><text xml:space="preserve" font-family="AvenirNext-Medium,Avenir Next" font-size="54.0" fill="#000000" transform="matrix(1.00, 0.00, -0.00, -1.00, 600.4, 71.3)">x</text><text xml:space="preserve" font-family="AvenirNext-Medium,Avenir Next" font-size="54.0" fill="#000000" transform="matrix(1.00, 0.00, -0.00, -1.00, 628.0, 71.3)">t</text><text xml:space="preserve" font-family="AvenirNext-Medium,Avenir Next" font-size="54.0" fill="#000000" transform="matrix(1.00, 0.00, -0.00, -1.00, 645.7, 71.3)">(</text><text xml:space="preserve" font-family="AvenirNext-Medium,Avenir Next" font-size="54.0" fill="#000000" transform="matrix(1.00, 0.00, -0.00, -1.00, 662.7, 71.3)">O</text><text xml:space="preserve" font-family="AvenirNext-Medium,Avenir Next" font-size="54.0" fill="#000000" transform="matrix(1.00, 0.00, -0.00, -1.00, 708.6, 71.3)">b</text><text xml:space="preserve" font-family="AvenirNext-Medium,Avenir Next" font-size="54.0" fill="#000000" transform="matrix(1.00, 0.00, -0.00, -1.00, 742.9, 71.3)">j</text><text xml:space="preserve" font-family="AvenirNext-Medium,Avenir Next" font-size="54.0" fill="#000000" transform="matrix(1.00, 0.00, -0.00, -1.00, 757.0, 71.3)">e</text><text xml:space="preserve" font-family="AvenirNext-Medium,Avenir Next" font-size="54.0" fill="#000000" transform="matrix(1.00, 0.00, -0.00, -1.00, 787.9, 71.3)">c</text><text xml:space="preserve" font-family="AvenirNext-Medium,Avenir Next" font-size="54.0" fill="#000000" transform="matrix(1.00, 0.00, -0.00, -1.00, 814.6, 71.3)">t</text><text xml:space="preserve" font-family="AvenirNext-Medium,Avenir Next" font-size="54.0" fill="#000000" transform="matrix(1.00, 0.00, -0.00, -1.00, 832.4, 71.3)">)</text><text xml:space="preserve" font-family="AvenirNext-Medium,Avenir Next" font-size="54.0" fill="#000000" transform="matrix(1.00, 0.00, -0.00, -1.00, 849.4, 71.3)"> </text><text xml:space="preserve" font-family="AvenirNext-Regular,Avenir Next" font-size="36.0" fill="#000000" transform="matrix(1.00, 0.00, -0.00, -1.00, 4.0, 15.7)">E</text><text xml:space="preserve" font-family="AvenirNext-Regular,Avenir Next" font-size="36.0" fill="#000000" transform="matrix(1.00, 0.00, -0.00, -1.00, 25.3, 15.7)">a</text><text xml:space="preserve" font-family="AvenirNext-Regular,Avenir Next" font-size="36.0" fill="#000000" transform="matrix(1.00, 0.00, -0.00, -1.00, 44.5, 15.7)">s</text><text xml:space="preserve" font-family="AvenirNext-Regular,Avenir Next" font-size="36.0" fill="#000000" transform="matrix(1.00, 0.00, -0.00, -1.00, 60.5, 15.7)">y</text></g></svg>