<?xml version="1.0" encoding="UTF-8" standalone="no"?><svg xmlns="http://www.w3.org/2000/svg" xmlns:xlink="http://www.w3.org/1999/xlink" clip-rule="evenodd" stroke-miterlimit="10" viewBox="0 0 1024 768"><desc>SVG generated by Keynote</desc><defs></defs><g transform="matrix(1.00, 0.00, -0.00, -1.00, 0.0, 768.0)"><path d="M 0.0 768.0 L 1024.0 768.0 L 1024.0 0.0 L 0.0 0.0 Z M 0.0 768.0 " fill="#FEFFFF"></path><image xlink:href="5CE940919789A0D8A0EA06605808BF74.png" width="75.00" height="66.00" transform="matrix(1.71, 0.00, -0.00, -1.71, 295.9, 587.1)"></image><image xlink:href="12FB105A3E21506BFDD6C539FA96BB5F.png" width="112.00" height="44.00" transform="matrix(1.00, 0.00, -0.00, -1.00, 460.0, 541.0)"></image><text xml:space="preserve" font-family="Monaco,Monaco" font-size="64.0" fill="#000000" transform="matrix(1.00, 0.00, -0.00, -1.00, 453.9, 505.9)">s</text><text xml:space="preserve" font-family="Monaco,Monaco" font-size="64.0" fill="#000000" transform="matrix(1.00, 0.00, -0.00, -1.00, 492.3, 505.9)">r</text><text xml:space="preserve" font-family="Monaco,Monaco" font-size="64.0" fill="#000000" transform="matrix(1.00, 0.00, -0.00, -1.00, 530.7, 505.9)">c</text><image xlink:href="../../9C606353-C3F9-4B99-BDB2-9D31B022BA2D/assets/5CE940919789A0D8A0EA06605808BF74.png" width="75.00" height="66.00" transform="matrix(1.71, 0.00, -0.00, -1.71, 295.9, 413.6)"></image><image xlink:href="B5165644006966D6413421EC2938B6F0.png" width="266.00" height="57.00" transform="matrix(1.00, 0.00, -0.00, -1.00, 460.0, 368.0)"></image><text xml:space="preserve" font-family="Monaco,Monaco" font-size="64.0" fill="#000000" transform="matrix(1.00, 0.00, -0.00, -1.00, 454.3, 332.9)">s</text><text xml:space="preserve" font-family="Monaco,Monaco" font-size="64.0" fill="#000000" transform="matrix(1.00, 0.00, -0.00, -1.00, 492.7, 332.9)">r</text><text xml:space="preserve" font-family="Monaco,Monaco" font-size="64.0" fill="#000000" transform="matrix(1.00, 0.00, -0.00, -1.00, 531.1, 332.9)">c</text><text xml:space="preserve" font-family="Monaco,Monaco" font-size="64.0" fill="#000000" transform="matrix(1.00, 0.00, -0.00, -1.00, 569.5, 332.9)">-</text><text xml:space="preserve" font-family="Monaco,Monaco" font-size="64.0" fill="#000000" transform="matrix(1.00, 0.00, -0.00, -1.00, 607.9, 332.9)">g</text><text xml:space="preserve" font-family="Monaco,Monaco" font-size="64.0" fill="#000000" transform="matrix(1.00, 0.00, -0.00, -1.00, 646.3, 332.9)">e</text><text xml:space="preserve" font-family="Monaco,Monaco" font-size="64.0" fill="#000000" transform="matrix(1.00, 0.00, -0.00, -1.00, 684.7, 332.9)">n</text><text xml:space="preserve" font-family="AvenirNext-Medium,Avenir Next" font-size="54.0" fill="#000000" transform="matrix(1.00, 0.00, -0.00, -1.00, 4.0, 71.3)">G</text><text xml:space="preserve" font-family="AvenirNext-Medium,Avenir Next" font-size="54.0" fill="#000000" transform="matrix(1.00, 0.00, -0.00, -1.00, 46.0, 71.3)">e</text><text xml:space="preserve" font-family="AvenirNext-Medium,Avenir Next" font-size="54.0" fill="#000000" transform="matrix(1.00, 0.00, -0.00, -1.00, 77.0, 71.3)">n</text><text xml:space="preserve" font-family="AvenirNext-Medium,Avenir Next" font-size="54.0" fill="#000000" transform="matrix(1.00, 0.00, -0.00, -1.00, 108.4, 71.3)">e</text><text xml:space="preserve" font-family="AvenirNext-Medium,Avenir Next" font-size="54.0" fill="#000000" transform="matrix(1.00, 0.00, -0.00, -1.00, 139.3, 71.3)">r</text><text xml:space="preserve" font-family="AvenirNext-Medium,Avenir Next" font-size="54.0" fill="#000000" transform="matrix(1.00, 0.00, -0.00, -1.00, 158.2, 71.3)">a</text><text xml:space="preserve" font-family="AvenirNext-Medium,Avenir Next" font-size="54.0" fill="#000000" transform="matrix(1.00, 0.00, -0.00, -1.00, 186.9, 71.3)">t</text><text xml:space="preserve" font-family="AvenirNext-Medium,Avenir Next" font-size="54.0" fill="#000000" transform="matrix(1.00, 0.00, -0.00, -1.00, 204.7, 71.3)">i</text><text xml:space="preserve" font-family="AvenirNext-Medium,Avenir Next" font-size="54.0" fill="#000000" transform="matrix(1.00, 0.00, -0.00, -1.00, 218.6, 71.3)">o</text><text xml:space="preserve" font-family="AvenirNext-Medium,Avenir Next" font-size="54.0" fill="#000000" transform="matrix(1.00, 0.00, -0.00, -1.00, 251.6, 71.3)">n</text><text xml:space="preserve" font-family="AvenirNext-Medium,Avenir Next" font-size="54.0" fill="#000000" transform="matrix(1.00, 0.00, -0.00, -1.00, 283.0, 71.3)"> </text><text xml:space="preserve" font-family="AvenirNext-Medium,Avenir Next" font-size="54.0" fill="#000000" transform="matrix(1.00, 0.00, -0.00, -1.00, 296.5, 71.3)">g</text><text xml:space="preserve" font-family="AvenirNext-Medium,Avenir Next" font-size="54.0" fill="#000000" transform="matrix(1.00, 0.00, -0.00, -1.00, 330.6, 71.3)">a</text><text xml:space="preserve" font-family="AvenirNext-Medium,Avenir Next" font-size="54.0" fill="#000000" transform="matrix(1.00, 0.00, -0.00, -1.00, 359.9, 71.3)">p</text><text xml:space="preserve" font-family="AvenirNext-Medium,Avenir Next" font-size="54.0" fill="#000000" transform="matrix(1.00, 0.00, -0.00, -1.00, 394.1, 71.3)"> </text><text xml:space="preserve" font-family="AvenirNext-Medium,Avenir Next" font-size="54.0" fill="#000000" transform="matrix(1.00, 0.00, -0.00, -1.00, 407.6, 71.3)">p</text><text xml:space="preserve" font-family="AvenirNext-Medium,Avenir Next" font-size="54.0" fill="#000000" transform="matrix(1.00, 0.00, -0.00, -1.00, 441.9, 71.3)">a</text><text xml:space="preserve" font-family="AvenirNext-Medium,Avenir Next" font-size="54.0" fill="#000000" transform="matrix(1.00, 0.00, -0.00, -1.00, 470.6, 71.3)">t</text><text xml:space="preserve" font-family="AvenirNext-Medium,Avenir Next" font-size="54.0" fill="#000000" transform="matrix(1.00, 0.00, -0.00, -1.00, 487.6, 71.3)">t</text><text xml:space="preserve" font-family="AvenirNext-Medium,Avenir Next" font-size="54.0" fill="#000000" transform="matrix(1.00, 0.00, -0.00, -1.00, 505.3, 71.3)">e</text><text xml:space="preserve" font-family="AvenirNext-Medium,Avenir Next" font-size="54.0" fill="#000000" transform="matrix(1.00, 0.00, -0.00, -1.00, 536.3, 71.3)">r</text><text xml:space="preserve" font-family="AvenirNext-Medium,Avenir Next" font-size="54.0" fill="#000000" transform="matrix(1.00, 0.00, -0.00, -1.00, 555.8, 71.3)">n</text><text xml:space="preserve" font-family="AvenirNext-Medium,Avenir Next" font-size="54.0" fill="#000000" transform="matrix(1.00, 0.00, -0.00, -1.00, 587.3, 71.3)"> </text><text xml:space="preserve" font-family="AvenirNext-Regular,Avenir Next" font-size="36.0" fill="#000000" transform="matrix(1.00, 0.00, -0.00, -1.00, 4.0, 15.7)">T</text><text xml:space="preserve" font-family="AvenirNext-Regular,Avenir Next" font-size="36.0" fill="#000000" transform="matrix(1.00, 0.00, -0.00, -1.00, 21.3, 15.7)">r</text><text xml:space="preserve" font-family="AvenirNext-Regular,Avenir Next" font-size="36.0" fill="#000000" transform="matrix(1.00, 0.00, -0.00, -1.00, 33.6, 15.7)">e</text><text xml:space="preserve" font-family="AvenirNext-Regular,Avenir Next" font-size="36.0" fill="#000000" transform="matrix(1.00, 0.00, -0.00, -1.00, 54.0, 15.7)">a</text><text xml:space="preserve" font-family="AvenirNext-Regular,Avenir Next" font-size="36.0" fill="#000000" transform="matrix(1.00, 0.00, -0.00, -1.00, 72.8, 15.7)">t</text><text xml:space="preserve" font-family="AvenirNext-Regular,Avenir Next" font-size="36.0" fill="#000000" transform="matrix(1.00, 0.00, -0.00, -1.00, 84.2, 15.7)"> </text><text xml:space="preserve" font-family="AvenirNext-Regular,Avenir Next" font-size="36.0" fill="#000000" transform="matrix(1.00, 0.00, -0.00, -1.00, 93.2, 15.7)">g</text><text xml:space="preserve" font-family="AvenirNext-Regular,Avenir Next" font-size="36.0" fill="#000000" transform="matrix(1.00, 0.00, -0.00, -1.00, 116.0, 15.7)">e</text><text xml:space="preserve" font-family="AvenirNext-Regular,Avenir Next" font-size="36.0" fill="#000000" transform="matrix(1.00, 0.00, -0.00, -1.00, 136.6, 15.7)">n</text><text xml:space="preserve" font-family="AvenirNext-Regular,Avenir Next" font-size="36.0" fill="#000000" transform="matrix(1.00, 0.00, -0.00, -1.00, 157.5, 15.7)">e</text><text xml:space="preserve" font-family="AvenirNext-Regular,Avenir Next" font-size="36.0" fill="#000000" transform="matrix(1.00, 0.00, -0.00, -1.00, 178.1, 15.7)">r</text><text xml:space="preserve" font-family="AvenirNext-Regular,Avenir Next" font-size="36.0" fill="#000000" transform="matrix(1.00, 0.00, -0.00, -1.00, 190.6, 15.7)">a</text><text xml:space="preserve" font-family="AvenirNext-Regular,Avenir Next" font-size="36.0" fill="#000000" transform="matrix(1.00, 0.00, -0.00, -1.00, 209.5, 15.7)">t</text><text xml:space="preserve" font-family="AvenirNext-Regular,Avenir Next" font-size="36.0" fill="#000000" transform="matrix(1.00, 0.00, -0.00, -1.00, 220.9, 15.7)">e</text><text xml:space="preserve" font-family="AvenirNext-Regular,Avenir Next" font-size="36.0" fill="#000000" transform="matrix(1.00, 0.00, -0.00, -1.00, 241.5, 15.7)">d</text><text xml:space="preserve" font-family="AvenirNext-Regular,Avenir Next" font-size="36.0" fill="#000000" transform="matrix(1.00, 0.00, -0.00, -1.00, 264.4, 15.7)"> </text><text xml:space="preserve" font-family="AvenirNext-Regular,Avenir Next" font-size="36.0" fill="#000000" transform="matrix(1.00, 0.00, -0.00, -1.00, 273.4, 15.7)">c</text><text xml:space="preserve" font-family="AvenirNext-Regular,Avenir Next" font-size="36.0" fill="#000000" transform="matrix(1.00, 0.00, -0.00, -1.00, 291.4, 15.7)">o</text><text xml:space="preserve" font-family="AvenirNext-Regular,Avenir Next" font-size="36.0" fill="#000000" transform="matrix(1.00, 0.00, -0.00, -1.00, 313.4, 15.7)">d</text><text xml:space="preserve" font-family="AvenirNext-Regular,Avenir Next" font-size="36.0" fill="#000000" transform="matrix(1.00, 0.00, -0.00, -1.00, 336.4, 15.7)">e</text><text xml:space="preserve" font-family="AvenirNext-Regular,Avenir Next" font-size="36.0" fill="#000000" transform="matrix(1.00, 0.00, -0.00, -1.00, 356.9, 15.7)"> </text><text xml:space="preserve" font-family="AvenirNext-Regular,Avenir Next" font-size="36.0" fill="#000000" transform="matrix(1.00, 0.00, -0.00, -1.00, 365.9, 15.7)">a</text><text xml:space="preserve" font-family="AvenirNext-Regular,Avenir Next" font-size="36.0" fill="#000000" transform="matrix(1.00, 0.00, -0.00, -1.00, 385.2, 15.7)">s</text><text xml:space="preserve" font-family="AvenirNext-Regular,Avenir Next" font-size="36.0" fill="#000000" transform="matrix(1.00, 0.00, -0.00, -1.00, 401.2, 15.7)"> </text><text xml:space="preserve" font-family="AvenirNext-Regular,Avenir Next" font-size="36.0" fill="#000000" transform="matrix(1.00, 0.00, -0.00, -1.00, 410.2, 15.7)">b</text><text xml:space="preserve" font-family="AvenirNext-Regular,Avenir Next" font-size="36.0" fill="#000000" transform="matrix(1.00, 0.00, -0.00, -1.00, 433.1, 15.7)">y</text><text xml:space="preserve" font-family="AvenirNext-Regular,Avenir Next" font-size="36.0" fill="#000000" transform="matrix(1.00, 0.00, -0.00, -1.00, 450.7, 15.7)">t</text><text xml:space="preserve" font-family="AvenirNext-Regular,Avenir Next" font-size="36.0" fill="#000000" transform="matrix(1.00, 0.00, -0.00, -1.00, 462.1, 15.7)">e</text><text xml:space="preserve" font-family="AvenirNext-Regular,Avenir Next" font-size="36.0" fill="#000000" transform="matrix(1.00, 0.00, -0.00, -1.00, 482.7, 15.7)"> </text><text xml:space="preserve" font-family="AvenirNext-Regular,Avenir Next" font-size="36.0" fill="#000000" transform="matrix(1.00, 0.00, -0.00, -1.00, 491.7, 15.7)">c</text><text xml:space="preserve" font-family="AvenirNext-Regular,Avenir Next" font-size="36.0" fill="#000000" transform="matrix(1.00, 0.00, -0.00, -1.00, 509.7, 15.7)">o</text><text xml:space="preserve" font-family="AvenirNext-Regular,Avenir Next" font-size="36.0" fill="#000000" transform="matrix(1.00, 0.00, -0.00, -1.00, 531.7, 15.7)">d</text><text xml:space="preserve" font-family="AvenirNext-Regular,Avenir Next" font-size="36.0" fill="#000000" transform="matrix(1.00, 0.00, -0.00, -1.00, 554.6, 15.7)">e</text><text xml:space="preserve" font-family="AvenirNext-Regular,Avenir Next" font-size="36.0" fill="#000000" transform="matrix(1.00, 0.00, -0.00, -1.00, 575.2, 15.7)"> </text></g></svg>