<?xml version="1.0" encoding="UTF-8" standalone="no"?><svg xmlns="http://www.w3.org/2000/svg" xmlns:xlink="http://www.w3.org/1999/xlink" clip-rule="evenodd" stroke-miterlimit="10" viewBox="0 0 127 23"><desc>SVG generated by Keynote</desc><defs></defs><g transform="matrix(1.00, 0.00, -0.00, -1.00, 0.0, 23.0)"><path d="M 5.9 10.8 C 5.6 10.9 5.4 10.4 4.8 10.2 C 4.3 10.1 3.5 10.1 3.7 10.4 C 3.8 10.7 4.0 10.9 3.7 11.3 C 3.4 11.7 3.0 12.4 3.4 12.7 C 3.9 12.9 5.5 13.6 6.0 13.3 C 6.6 12.9 6.7 12.7 7.1 12.5 C 7.5 12.3 7.2 13.1 7.2 13.1 C 7.2 13.1 8.1 13.2 8.8 13.2 C 9.4 13.3 10.2 13.3 10.3 13.2 C 10.4 13.0 10.6 12.7 10.6 12.7 C 10.6 12.7 10.9 13.1 11.4 13.2 C 11.9 13.3 11.8 13.1 11.7 12.9 C 11.6 12.7 11.0 12.2 11.2 12.2 C 11.4 12.2 12.1 13.0 12.4 13.0 C 12.8 13.1 13.5 13.1 13.5 13.1 C 13.5 13.1 13.5 12.6 13.5 12.5 C 13.6 12.4 14.4 12.3 14.4 12.5 C 14.4 12.7 14.4 13.1 14.7 13.2 C 16.0 13.3 15.8 12.4 15.9 12.3 C 16.0 12.3 16.0 13.0 16.3 13.1 C 16.6 13.2 18.9 13.1 19.0 13.0 C 19.2 12.8 19.9 13.4 20.3 13.0 C 20.6 12.6 20.7 12.4 20.8 12.3 C 20.9 12.2 21.3 11.5 21.5 11.8 C 21.8 12.1 20.8 12.8 21.1 13.0 C 21.4 13.3 22.9 13.3 23.1 13.1 C 23.5 12.8 23.6 12.1 23.8 12.1 C 24.0 12.1 24.8 13.0 24.9 12.9 C 25.0 12.7 25.1 12.0 25.1 11.9 C 25.1 11.7 25.3 10.5 25.2 10.3 C 25.0 10.2 24.1 9.7 24.2 10.0 C 24.3 10.4 24.5 10.9 24.2 11.0 C 23.9 11.2 23.7 11.2 23.7 11.1 C 23.6 10.9 23.8 10.8 23.3 10.5 C 22.7 10.3 23.0 10.0 22.5 10.0 C 22.0 10.1 21.6 10.1 21.6 10.4 C 21.7 10.7 21.2 11.1 20.8 11.1 C 20.5 11.0 21.1 10.4 20.0 10.2 C 18.9 9.9 18.2 9.9 17.8 10.1 C 17.5 10.4 17.5 11.1 16.9 10.8 C 16.4 10.5 16.7 10.3 16.0 10.3 C 15.3 10.3 15.0 10.9 14.6 10.9 C 14.1 10.9 14.0 10.9 14.0 10.9 C 14.0 10.9 14.2 10.1 13.2 10.0 C 12.2 10.0 12.0 9.9 12.2 10.5 C 12.4 11.1 11.7 11.1 11.6 10.8 C 11.6 10.4 11.0 10.1 10.6 10.0 C 10.3 10.0 10.2 11.0 10.0 11.0 C 9.9 11.1 9.5 11.0 9.7 10.7 C 9.8 10.3 9.4 10.3 9.1 10.2 C 8.8 10.0 7.9 10.1 7.9 10.3 C 7.9 10.5 8.3 11.2 7.7 10.8 C 7.1 10.5 6.9 10.0 6.3 10.0 C 5.7 10.0 6.2 10.6 5.9 10.8 C 5.9 10.8 5.9 10.8 5.9 10.8 Z M 25.5 10.0 C 24.5 10.0 25.2 12.7 25.6 13.2 C 26.0 13.8 26.7 13.4 27.5 13.5 C 28.2 13.6 27.9 12.8 28.4 12.5 C 28.8 12.3 28.6 12.8 28.8 13.2 C 29.0 13.6 30.1 13.3 30.8 13.3 C 31.4 13.3 32.1 12.5 32.7 12.4 C 33.2 12.4 32.2 11.9 33.1 12.0 C 34.1 12.0 33.6 12.5 32.5 12.8 C 31.4 13.1 33.0 13.3 33.6 13.4 C 34.2 13.5 35.2 13.1 35.7 13.2 C 36.1 13.2 35.5 12.5 36.2 12.6 C 36.9 12.6 36.6 13.3 37.3 13.4 C 38.0 13.5 37.9 12.8 38.3 12.7 C 38.6 12.5 38.5 12.9 38.8 13.0 C 39.1 13.0 39.6 13.2 40.3 13.1 C 40.9 12.9 40.8 12.7 41.1 12.7 C 41.4 12.6 41.9 12.6 41.9 12.6 C 41.9 12.9 42.0 13.1 42.0 13.3 C 42.0 13.3 43.2 13.4 43.6 13.4 C 43.9 13.5 44.8 13.2 44.5 13.0 C 44.3 12.9 45.1 12.4 45.3 12.5 C 45.5 12.6 46.1 13.0 46.5 13.1 C 46.9 13.3 46.8 11.5 46.8 11.3 C 46.8 11.1 47.1 10.1 46.7 10.0 C 46.3 9.9 46.0 10.3 46.1 10.0 C 46.2 9.8 45.1 10.0 44.8 10.0 C 44.5 10.0 44.1 10.7 44.1 10.7 C 44.1 10.7 43.8 11.2 43.3 11.2 C 42.9 11.2 42.7 10.1 42.7 10.1 C 42.7 10.1 42.1 9.9 41.5 10.0 C 40.9 10.0 40.2 10.9 40.1 11.1 C 40.0 11.3 40.0 10.5 39.6 10.4 C 39.2 10.3 38.5 10.0 38.4 10.1 C 38.2 10.1 37.9 10.7 37.9 10.7 C 37.9 10.7 37.1 11.0 36.9 11.0 C 36.7 11.0 37.1 10.2 37.1 10.2 C 37.1 10.2 35.4 10.0 35.1 9.9 C 34.7 9.9 34.2 10.1 34.0 10.1 C 33.7 10.2 33.4 11.2 33.0 11.1 C 32.7 11.0 33.4 10.4 33.0 10.3 C 32.7 10.2 32.0 10.0 31.8 10.0 C 31.7 10.0 31.4 10.4 31.1 10.4 C 30.8 10.5 30.4 11.2 29.9 11.2 C 29.4 11.2 29.2 10.8 29.0 10.7 C 28.8 10.6 28.7 9.9 28.3 9.9 C 28.0 9.9 28.2 10.3 27.9 10.3 C 27.5 10.3 27.5 10.8 27.2 10.7 C 26.8 10.6 27.0 9.8 26.6 9.9 C 26.4 10.0 26.6 9.9 25.5 10.0 C 25.5 10.0 25.5 10.0 25.5 10.0 Z M 47.6 10.1 C 47.1 9.8 46.6 10.2 46.7 10.6 C 46.7 11.0 46.9 11.9 46.7 12.2 C 46.6 12.5 45.9 13.2 46.9 13.3 C 47.8 13.5 48.0 13.2 48.0 12.9 C 48.0 12.7 48.1 11.7 48.4 11.8 C 48.6 11.9 48.9 12.2 48.9 12.3 C 49.0 12.4 49.3 13.4 49.8 13.3 C 50.2 13.1 50.6 12.9 50.6 12.9 C 50.8 12.8 51.1 12.8 51.3 12.8 C 51.3 12.8 51.9 13.4 52.4 13.3 C 52.9 13.1 53.4 13.1 53.8 13.2 C 54.1 13.2 54.5 13.1 54.6 12.9 C 54.6 12.7 55.1 11.8 55.1 11.8 C 55.1 11.8 55.7 11.6 55.9 11.7 C 56.2 11.9 56.2 12.3 56.2 12.5 C 56.1 12.7 56.2 13.2 56.5 13.3 C 56.9 13.4 58.5 13.8 58.7 13.5 C 58.9 13.3 58.9 12.9 59.1 12.8 C 59.2 12.7 60.3 12.7 60.4 12.9 C 60.5 13.1 60.4 13.6 60.7 13.6 C 61.0 13.5 61.6 13.7 61.6 13.5 C 61.6 13.4 61.8 13.3 61.8 13.0 C 61.9 12.7 62.5 12.5 62.6 12.3 C 62.7 12.2 63.2 12.2 63.2 12.2 C 63.4 12.3 63.6 12.5 63.8 12.6 C 63.8 12.6 63.4 13.1 63.3 13.2 C 63.1 13.3 63.4 13.6 63.6 13.7 C 63.7 13.7 64.9 13.6 64.9 13.6 C 64.9 13.3 64.9 12.9 65.0 12.5 C 65.2 12.4 65.5 12.3 65.8 12.3 C 65.8 12.3 65.7 13.6 66.2 13.6 C 66.8 13.6 67.5 13.6 67.5 13.6 C 67.5 13.6 68.0 13.1 68.2 13.0 C 68.3 13.0 68.4 11.8 68.4 11.8 C 68.3 11.3 68.3 10.9 68.2 10.4 C 68.2 10.4 67.6 9.9 67.2 10.1 C 66.8 10.3 67.1 10.8 67.1 11.1 C 67.0 11.3 66.5 11.5 66.5 11.5 C 66.2 11.3 66.0 11.0 65.7 10.7 C 65.7 10.7 65.5 10.5 65.3 10.3 C 65.0 10.0 64.2 9.9 63.9 10.0 C 63.7 10.1 63.4 10.4 63.1 10.6 C 62.8 10.9 62.9 11.3 62.5 11.0 C 62.2 10.6 62.0 10.3 61.8 10.3 C 61.6 10.3 60.8 10.7 60.8 10.7 C 60.6 10.8 60.4 10.9 60.2 11.1 C 60.2 11.1 59.6 11.3 59.5 11.0 C 59.4 10.7 58.2 11.1 58.2 11.1 C 58.2 11.1 58.3 10.2 58.0 10.1 C 57.7 9.9 57.2 9.8 56.8 9.9 C 56.3 10.0 55.9 10.8 55.9 10.8 C 55.8 10.6 55.6 10.4 55.5 10.2 C 55.0 10.1 54.6 10.1 54.1 10.0 C 54.1 10.0 53.1 10.1 53.1 10.2 C 53.1 10.4 53.2 11.1 53.1 11.2 C 53.1 11.4 52.5 11.7 52.4 11.4 C 52.4 11.2 51.9 10.5 51.9 10.5 C 51.9 10.5 51.5 10.1 51.2 10.1 C 50.9 10.0 50.4 10.3 50.3 10.4 C 50.1 10.5 49.7 11.1 49.7 11.1 C 49.5 10.8 49.4 10.6 49.3 10.4 C 49.3 10.4 48.4 10.7 47.6 10.1 C 47.6 10.1 47.6 10.1 47.6 10.1 Z M 68.7 10.0 C 67.6 10.0 68.3 12.7 68.7 13.2 C 69.2 13.8 69.9 13.4 70.6 13.5 C 71.3 13.6 71.1 12.8 71.5 12.5 C 71.9 12.3 71.8 12.8 72.0 13.2 C 72.1 13.6 73.2 13.3 73.9 13.3 C 74.6 13.3 75.3 12.5 75.8 12.4 C 76.3 12.4 75.3 11.9 76.3 12.0 C 77.3 12.0 76.8 12.5 75.7 12.8 C 74.6 13.1 76.1 13.3 76.7 13.4 C 77.3 13.5 78.3 13.1 78.8 13.2 C 79.3 13.2 78.7 12.5 79.4 12.6 C 80.1 12.6 79.7 13.3 80.4 13.4 C 81.1 13.5 81.1 12.8 81.4 12.7 C 81.8 12.5 81.7 12.9 82.0 13.0 C 82.3 13.0 82.8 13.2 83.4 13.1 C 84.1 12.9 83.9 12.7 84.2 12.7 C 84.5 12.6 85.0 12.6 85.0 12.6 C 85.1 12.9 85.1 13.1 85.2 13.3 C 85.2 13.3 86.4 13.4 86.7 13.4 C 87.1 13.5 87.9 13.2 87.7 13.0 C 87.5 12.9 88.3 12.4 88.5 12.5 C 88.6 12.6 89.2 13.0 89.7 13.1 C 90.1 13.3 90.0 11.5 90.0 11.3 C 90.0 11.1 90.2 10.1 89.8 10.0 C 89.5 9.9 89.2 10.3 89.2 10.0 C 89.3 9.8 88.2 10.0 87.9 10.0 C 87.6 10.0 87.3 10.7 87.3 10.7 C 87.3 10.7 87.0 11.2 86.5 11.2 C 86.0 11.2 85.8 10.1 85.8 10.1 C 85.8 10.1 85.2 9.9 84.6 10.0 C 84.0 10.0 83.4 10.9 83.3 11.1 C 83.1 11.3 83.2 10.5 82.7 10.4 C 82.3 10.3 81.7 10.0 81.5 10.1 C 81.3 10.1 81.0 10.7 81.0 10.7 C 81.0 10.7 80.3 11.0 80.1 11.0 C 79.9 11.0 80.2 10.2 80.2 10.2 C 80.2 10.2 78.6 10.0 78.2 9.9 C 77.9 9.9 77.4 10.1 77.1 10.1 C 76.9 10.2 76.5 11.2 76.2 11.1 C 75.8 11.0 76.5 10.4 76.2 10.3 C 75.8 10.2 75.2 10.0 75.0 10.0 C 74.8 10.0 74.6 10.4 74.3 10.4 C 74.0 10.5 73.5 11.2 73.1 11.2 C 72.6 11.2 72.3 10.8 72.2 10.7 C 72.0 10.6 71.9 9.9 71.5 9.9 C 71.1 9.9 71.4 10.3 71.0 10.3 C 70.7 10.3 70.7 10.8 70.3 10.7 C 69.9 10.6 70.2 9.8 69.8 9.9 C 69.6 10.0 69.8 9.9 68.7 10.0 C 68.7 10.0 68.7 10.0 68.7 10.0 Z M 90.7 10.1 C 90.2 9.8 89.8 10.2 89.8 10.6 C 89.9 11.0 90.1 11.9 89.9 12.2 C 89.7 12.5 89.1 13.2 90.0 13.3 C 90.9 13.5 91.1 13.2 91.1 12.9 C 91.1 12.7 91.3 11.7 91.5 11.8 C 91.8 11.9 92.0 12.2 92.1 12.3 C 92.1 12.4 92.5 13.4 92.9 13.3 C 93.4 13.1 93.8 12.9 93.8 12.9 C 94.0 12.8 94.2 12.8 94.4 12.8 C 94.4 12.8 95.1 13.4 95.5 13.3 C 96.0 13.1 96.6 13.1 96.9 13.2 C 97.3 13.2 97.7 13.1 97.7 12.9 C 97.8 12.7 98.3 11.8 98.3 11.8 C 98.3 11.8 98.8 11.6 99.1 11.7 C 99.3 11.9 99.4 12.3 99.3 12.5 C 99.2 12.7 99.3 13.2 99.7 13.3 C 100.0 13.4 101.6 13.8 101.9 13.5 C 102.1 13.3 102.0 12.9 102.2 12.8 C 102.4 12.7 103.4 12.7 103.5 12.9 C 103.6 13.1 103.6 13.6 103.9 13.6 C 104.2 13.5 104.8 13.7 104.8 13.5 C 104.8 13.4 105.0 13.3 105.0 13.0 C 105.0 12.7 105.6 12.5 105.7 12.3 C 105.9 12.2 106.3 12.2 106.3 12.2 C 106.5 12.3 106.7 12.5 107.0 12.6 C 107.0 12.6 106.6 13.1 106.4 13.2 C 106.2 13.3 106.5 13.6 106.7 13.7 C 106.9 13.7 108.0 13.6 108.0 13.6 C 108.1 13.3 108.1 12.9 108.1 12.5 C 108.4 12.4 108.7 12.3 109.0 12.3 C 109.0 12.3 108.8 13.6 109.4 13.6 C 109.9 13.6 110.6 13.6 110.6 13.6 C 110.6 13.6 111.2 13.1 111.3 13.0 C 111.5 13.0 111.5 11.8 111.5 11.8 C 111.5 11.3 111.4 10.9 111.4 10.4 C 111.4 10.4 110.7 9.9 110.4 10.1 C 110.0 10.3 110.3 10.8 110.2 11.1 C 110.2 11.3 109.6 11.5 109.6 11.5 C 109.4 11.3 109.1 11.0 108.9 10.7 C 108.9 10.7 108.7 10.5 108.4 10.3 C 108.2 10.0 107.3 9.9 107.1 10.0 C 106.8 10.1 106.6 10.4 106.3 10.6 C 106.0 10.9 106.0 11.3 105.7 11.0 C 105.3 10.6 105.1 10.3 105.0 10.3 C 104.8 10.3 104.0 10.7 104.0 10.7 C 103.8 10.8 103.5 10.9 103.3 11.1 C 103.3 11.1 102.7 11.3 102.6 11.0 C 102.6 10.7 101.4 11.1 101.4 11.1 C 101.4 11.1 101.5 10.2 101.2 10.1 C 100.9 9.9 100.4 9.8 99.9 9.9 C 99.4 10.0 99.1 10.8 99.1 10.8 C 98.9 10.6 98.8 10.4 98.6 10.2 C 98.2 10.1 97.7 10.1 97.2 10.0 C 97.2 10.0 96.2 10.1 96.2 10.2 C 96.2 10.4 96.3 11.1 96.3 11.2 C 96.2 11.4 95.7 11.7 95.6 11.4 C 95.5 11.2 95.1 10.5 95.1 10.5 C 95.1 10.5 94.6 10.1 94.3 10.1 C 94.0 10.0 93.5 10.3 93.4 10.4 C 93.3 10.5 92.8 11.1 92.8 11.1 C 92.7 10.8 92.5 10.6 92.4 10.4 C 92.4 10.4 91.6 10.7 90.7 10.1 C 90.7 10.1 90.7 10.1 90.7 10.1 Z M 90.7 10.1 " fill="#5E416F"></path><path d="M 110.4 21.0 C 110.3 21.4 109.3 21.7 110.0 21.0 C 110.1 21.0 110.5 20.8 110.4 21.0 Z M 112.1 20.0 C 112.0 20.1 111.9 20.1 111.7 20.1 C 111.4 19.9 112.6 19.8 112.1 20.0 Z M 109.5 21.1 C 109.4 21.2 108.9 21.5 108.9 21.4 C 109.0 21.2 109.5 21.1 109.5 21.1 Z M 113.2 18.5 C 113.3 18.6 112.7 18.9 112.6 18.9 C 112.2 18.9 113.1 18.1 113.2 18.5 Z M 108.6 15.6 C 108.6 15.6 108.6 15.5 108.6 15.5 C 108.6 15.5 108.7 15.6 108.6 15.6 Z M 121.3 14.2 C 121.2 14.2 120.9 14.2 120.9 14.1 C 120.8 13.9 121.6 13.9 121.3 14.2 Z M 108.3 4.6 C 108.3 4.6 108.2 4.8 108.1 4.7 C 108.0 4.6 108.2 4.5 108.3 4.6 Z M 108.1 4.6 C 108.0 4.6 107.9 4.4 108.0 4.4 C 108.2 4.5 108.3 4.5 108.1 4.6 Z M 117.1 6.9 C 117.1 6.9 117.2 7.0 117.1 7.0 C 117.0 7.0 116.9 6.9 117.1 6.9 Z M 116.7 7.0 C 116.6 7.1 116.5 6.8 116.7 6.8 C 116.8 6.8 116.9 6.9 116.7 7.0 Z M 115.5 5.2 C 115.6 5.2 115.6 5.3 115.6 5.3 C 115.5 5.3 115.4 5.2 115.5 5.2 Z M 107.9 9.1 C 107.8 9.1 107.9 8.7 108.0 8.7 C 108.2 8.8 108.0 9.2 107.9 9.1 Z M 107.8 8.7 C 107.6 8.7 107.6 8.5 107.7 8.5 C 107.8 8.6 107.9 8.6 107.8 8.7 Z M 108.0 10.1 C 108.2 10.1 108.2 10.5 108.2 10.5 C 108.1 10.7 108.1 10.8 108.0 10.9 C 108.0 11.0 107.8 10.1 108.0 10.1 Z M 108.2 13.0 C 108.2 13.0 108.1 13.0 108.2 12.9 C 108.2 12.7 108.3 13.0 108.2 13.0 Z M 108.1 11.4 C 108.0 11.4 108.0 11.3 108.1 11.2 C 108.1 11.1 108.2 11.4 108.1 11.4 Z M 116.6 16.9 C 116.7 17.0 116.2 17.2 116.2 17.2 C 116.1 17.2 116.3 17.1 116.2 17.1 C 116.0 17.1 116.1 16.6 116.6 16.9 Z M 113.0 19.4 C 112.9 19.5 112.9 19.4 112.9 19.3 C 112.9 19.3 113.2 19.2 113.0 19.4 Z M 115.7 16.8 C 115.8 16.8 115.7 16.9 115.6 16.8 C 115.6 16.8 115.7 16.7 115.7 16.8 Z M 116.0 16.5 C 115.9 16.6 115.6 16.6 115.6 16.4 C 115.6 16.2 116.3 16.3 116.0 16.5 Z M 117.2 16.8 C 117.1 16.9 117.1 16.9 117.1 16.8 C 117.2 16.7 117.2 16.8 117.2 16.8 Z M 115.2 18.3 C 115.0 18.3 115.0 18.3 115.1 18.2 C 115.1 18.2 115.2 18.3 115.2 18.3 Z M 118.1 15.9 C 118.1 15.9 117.9 16.2 117.7 16.1 C 117.4 15.8 118.0 15.9 118.1 15.9 Z M 119.4 14.7 C 119.3 14.7 119.2 14.6 119.4 14.6 C 119.5 14.6 119.5 14.7 119.4 14.7 Z M 119.6 13.9 C 119.8 13.8 120.0 13.9 119.8 14.0 C 119.5 14.1 119.4 13.9 119.6 13.9 Z M 119.4 14.2 C 119.4 14.1 119.5 14.1 119.5 14.1 C 119.5 14.2 119.4 14.2 119.4 14.2 Z M 118.3 15.3 C 118.3 15.4 118.0 15.4 118.2 15.2 C 118.4 15.1 118.4 15.1 118.3 15.3 Z M 107.9 17.2 C 107.9 17.3 107.8 17.2 107.7 17.2 C 107.6 17.1 107.8 17.0 107.9 17.2 Z M 108.6 10.8 C 108.5 10.9 108.4 10.8 108.5 10.6 C 108.5 10.5 108.6 10.7 108.6 10.8 Z M 108.9 6.7 C 108.8 6.8 108.8 6.8 108.8 6.6 C 108.9 6.4 109.0 6.6 108.9 6.7 Z M 108.6 12.4 C 108.5 12.4 108.2 12.0 108.5 11.8 C 108.7 11.6 108.8 12.3 108.6 12.4 Z M 111.8 16.4 C 111.8 16.5 111.7 16.4 111.7 16.4 C 111.7 16.3 111.7 16.3 111.8 16.4 Z M 109.0 11.5 C 109.1 11.6 108.9 11.6 108.8 11.5 C 108.8 11.4 109.0 11.4 109.0 11.5 Z M 108.6 7.5 C 108.6 7.6 108.3 7.5 108.2 7.4 C 107.9 7.1 108.3 6.9 108.5 6.6 C 108.6 6.4 108.7 7.4 108.6 7.5 Z M 108.5 18.1 C 108.5 18.0 108.6 17.9 108.6 17.9 C 108.5 17.8 108.5 17.8 108.6 17.7 C 108.5 17.3 108.2 17.0 108.1 16.8 C 107.8 16.2 108.6 16.0 108.6 15.6 C 108.7 15.7 108.7 15.8 108.7 15.9 C 109.0 16.0 108.8 14.6 108.8 14.5 C 108.6 13.3 108.5 14.7 108.0 14.8 C 107.9 14.8 108.3 13.9 108.3 13.9 C 108.5 13.5 108.1 13.4 108.3 13.1 C 108.4 13.0 109.3 12.5 109.1 12.4 C 109.0 12.3 109.1 11.9 109.1 11.7 C 109.1 11.5 109.1 11.1 108.8 11.3 C 108.5 11.5 108.3 11.6 108.5 11.2 C 108.7 11.0 109.3 9.6 108.6 9.7 C 108.5 9.7 108.3 10.0 108.3 10.0 C 108.2 9.6 108.4 8.4 108.1 8.1 C 107.5 7.5 108.5 8.3 108.7 8.0 C 109.0 7.5 109.2 7.2 109.1 6.5 C 109.0 6.3 109.0 5.7 108.7 6.0 C 108.4 6.2 108.2 6.0 108.2 6.4 C 107.8 6.0 108.5 5.7 108.3 5.6 C 108.1 5.5 108.0 5.7 108.1 5.4 C 108.1 5.0 108.0 5.2 108.4 5.1 C 108.5 5.1 108.5 4.7 108.5 4.7 C 108.6 4.7 108.6 4.7 108.6 4.7 C 108.6 4.4 108.0 3.9 108.1 3.8 C 108.2 3.7 108.7 3.9 108.8 3.9 C 108.8 3.9 108.8 3.8 108.8 3.8 C 108.8 3.7 108.5 3.3 108.6 3.3 C 108.6 3.2 109.2 3.5 109.1 3.3 C 108.9 3.2 109.1 2.5 109.3 2.4 C 109.5 2.4 110.3 2.2 110.3 2.1 C 110.4 1.9 110.8 2.2 110.9 2.2 C 111.0 2.3 111.1 2.6 111.1 2.7 C 111.2 2.8 111.5 2.9 111.5 2.9 C 111.5 2.9 111.6 2.9 111.9 3.0 C 112.1 3.1 112.2 3.4 112.5 3.6 C 112.7 3.9 112.9 3.8 113.2 3.9 C 113.5 4.0 113.5 4.6 113.7 4.8 C 113.9 5.0 114.1 4.7 114.4 4.8 C 114.7 5.0 114.9 5.2 114.7 5.2 C 114.6 5.2 114.6 5.3 114.7 5.4 C 114.8 5.4 115.1 5.7 115.3 5.8 C 115.4 5.8 114.7 4.9 115.8 5.6 C 116.4 6.0 116.5 6.6 116.4 6.5 C 116.0 6.3 116.5 7.4 116.6 7.2 C 116.7 7.0 117.7 7.6 117.6 7.2 C 117.6 7.1 118.6 7.5 118.7 7.7 C 118.8 7.8 119.3 8.0 119.3 8.4 C 119.2 8.5 120.0 8.5 120.1 8.5 C 120.3 8.6 121.0 9.1 121.1 9.3 C 121.2 9.5 120.8 9.3 120.7 9.1 C 120.5 9.0 120.4 8.7 120.2 8.7 C 120.0 8.6 120.3 9.0 120.4 9.1 C 120.6 9.2 120.6 9.4 120.7 9.6 C 120.8 9.6 120.9 9.7 121.0 9.8 C 121.1 9.8 121.2 9.8 121.2 9.8 C 121.3 9.7 121.2 9.5 121.3 9.5 C 121.3 9.5 121.5 9.5 121.7 9.6 C 122.0 9.8 122.1 9.9 122.4 10.2 C 122.6 10.4 122.8 10.4 123.0 10.5 C 123.2 10.6 123.4 10.7 123.4 10.8 C 123.3 10.9 123.0 10.8 123.0 10.8 C 122.9 10.9 123.1 11.2 123.2 11.3 C 123.8 11.7 123.0 11.9 123.5 12.3 C 123.8 12.6 123.4 12.5 123.1 12.6 C 123.1 12.7 123.1 12.7 122.9 12.9 C 122.9 13.0 122.5 13.1 122.4 13.3 C 122.3 13.3 121.6 13.9 121.9 13.5 C 122.0 13.4 122.0 13.4 122.0 13.4 C 122.0 13.3 122.0 13.3 122.0 13.3 C 122.0 13.3 122.0 12.9 122.0 12.9 C 122.0 12.9 122.0 13.3 122.0 13.3 C 121.8 13.3 121.7 13.2 121.6 13.2 C 121.6 13.2 121.6 13.3 121.5 13.3 C 121.5 13.3 121.5 13.4 121.5 13.4 C 121.5 13.4 121.5 13.4 121.5 13.4 C 121.6 13.5 121.6 13.5 121.5 13.5 C 121.3 13.8 120.6 14.0 120.3 14.0 C 120.6 13.0 119.5 13.7 119.1 14.0 C 118.8 14.3 119.3 15.1 119.5 15.0 C 119.2 15.1 119.1 15.1 118.8 14.9 C 118.9 14.9 118.3 14.6 118.3 14.6 C 117.5 14.7 118.1 15.3 117.9 15.5 C 117.8 15.6 117.6 15.8 117.4 15.9 C 117.3 16.1 117.5 16.1 117.5 16.2 C 117.5 16.7 116.7 16.4 116.5 16.5 C 116.6 16.3 116.8 16.1 116.8 16.0 C 116.7 16.3 116.4 16.0 116.3 16.0 C 116.0 16.0 115.8 16.2 115.6 16.3 C 115.2 16.6 114.9 16.9 114.6 17.1 C 114.7 17.1 115.5 17.2 115.6 17.2 C 115.4 17.3 115.1 17.4 115.3 17.6 C 115.8 17.9 114.8 18.2 114.6 18.3 C 114.1 18.5 113.9 19.3 113.1 19.0 C 113.1 19.0 113.8 18.5 113.7 18.4 C 113.3 18.1 113.0 18.0 112.6 18.4 C 112.5 18.5 112.0 19.2 112.0 19.2 C 112.0 19.2 113.2 19.7 112.5 19.8 C 112.3 19.8 112.5 19.5 112.3 19.5 C 112.0 19.5 111.7 19.8 111.5 19.9 C 111.4 19.9 111.0 20.0 111.0 20.0 C 111.0 20.2 111.1 20.4 111.0 20.5 C 110.9 20.7 110.6 20.7 110.6 20.5 C 110.6 20.5 110.6 20.5 110.5 20.5 C 110.5 20.5 110.4 20.5 110.4 20.4 C 110.4 20.4 110.3 20.5 110.1 20.5 C 110.1 20.4 110.2 20.3 110.4 20.3 C 110.3 20.3 110.3 20.2 110.3 20.1 C 110.1 20.3 110.0 20.4 109.9 20.5 C 109.7 20.9 109.8 21.0 109.1 20.9 C 108.6 20.8 108.2 19.5 108.4 18.7 C 108.4 18.6 108.4 18.4 108.5 18.1 Z M 121.3 10.2 C 121.3 10.2 121.3 10.2 121.2 10.2 C 121.2 10.2 121.1 10.3 121.1 10.4 C 121.3 10.5 121.2 10.2 121.3 10.4 C 121.5 10.5 121.5 10.4 121.3 10.2 Z M 121.2 12.0 C 121.3 12.1 121.3 12.0 121.2 11.9 C 121.2 11.9 121.2 12.0 121.2 12.0 Z M 121.5 12.8 C 121.7 12.6 121.2 12.5 120.9 12.8 C 121.2 12.8 121.4 12.8 121.5 12.8 Z M 121.2 13.4 C 121.2 13.4 121.2 13.3 121.1 13.3 C 121.1 13.2 120.9 13.4 120.9 13.3 C 120.9 13.2 121.1 13.0 120.9 13.0 C 120.8 13.0 120.8 13.0 120.7 13.0 C 120.7 13.1 120.7 13.1 120.7 13.1 C 120.7 13.3 121.0 13.5 121.2 13.4 Z M 119.9 10.1 C 120.1 10.1 120.0 10.0 119.9 10.0 C 119.8 10.0 119.8 10.1 119.9 10.1 Z M 119.0 8.7 C 119.1 8.8 119.2 8.9 119.2 8.7 C 119.1 8.5 118.9 8.5 119.0 8.7 Z M 117.0 10.8 C 117.1 10.7 117.1 10.7 117.0 10.7 C 116.9 10.7 116.9 10.8 117.0 10.8 Z M 116.9 12.3 C 116.9 12.4 117.0 12.5 117.1 12.4 C 117.1 12.3 117.0 12.2 116.9 12.3 Z M 117.1 8.9 C 117.0 8.8 117.0 9.0 117.1 9.0 C 117.2 8.9 117.2 8.9 117.1 8.9 Z M 117.4 10.9 C 117.3 10.7 117.3 10.8 117.2 10.8 C 117.2 10.9 117.2 11.0 117.3 11.0 C 117.5 11.1 117.6 11.0 117.4 10.9 Z M 117.6 12.1 C 117.2 12.3 117.3 12.5 117.7 12.2 C 118.1 11.9 117.8 12.0 117.6 12.1 Z M 118.2 7.7 C 118.3 7.7 118.5 7.8 118.5 7.8 C 118.5 7.8 118.0 7.4 118.2 7.7 Z M 117.4 15.5 C 117.6 15.5 117.6 15.3 117.4 15.4 C 117.2 15.5 117.3 15.6 117.4 15.5 Z M 116.7 14.9 C 117.0 15.1 117.3 15.1 117.3 15.1 C 117.2 15.0 117.2 14.8 117.2 14.7 C 117.4 14.5 117.9 14.6 118.0 14.3 C 118.1 13.9 117.6 14.2 117.5 14.3 C 117.6 14.2 117.6 14.1 117.5 14.1 C 117.4 14.0 117.4 14.0 117.3 14.1 C 117.2 14.3 116.4 14.7 116.7 14.9 Z M 116.7 11.3 C 116.9 11.4 117.0 11.3 116.9 11.2 C 116.8 11.0 116.7 10.9 116.6 11.0 C 116.5 11.0 116.6 11.3 116.7 11.3 Z M 116.6 10.2 C 116.7 10.2 116.7 10.1 116.6 10.1 C 116.3 10.0 116.4 10.3 116.6 10.2 Z M 114.5 5.5 C 114.4 5.5 114.6 5.7 114.7 5.6 C 114.7 5.5 114.6 5.5 114.5 5.5 Z M 114.6 7.4 C 114.3 7.3 114.5 7.6 114.6 7.6 C 114.7 7.6 114.8 7.4 114.6 7.4 Z M 115.7 8.5 C 115.6 8.4 115.7 8.6 115.8 8.6 C 115.8 8.6 115.8 8.5 115.7 8.5 Z M 115.8 9.2 C 115.7 9.1 115.7 9.3 115.9 9.3 C 116.0 9.3 115.9 9.2 115.8 9.2 Z M 115.3 15.2 C 115.3 15.2 115.2 15.0 115.1 15.2 C 114.9 15.4 114.9 15.4 115.3 15.2 Z M 115.8 13.1 C 115.9 12.9 116.1 12.8 115.9 12.2 C 115.7 11.6 115.6 11.8 115.5 12.2 C 115.4 12.5 115.1 11.5 115.0 12.3 C 114.9 12.5 115.6 13.2 115.8 13.1 Z M 114.7 9.2 C 114.9 9.6 115.5 9.5 115.2 9.3 C 114.8 9.0 114.5 8.9 114.7 9.2 Z M 114.7 9.0 C 114.8 9.0 114.7 8.9 114.6 8.9 C 114.5 8.8 114.6 9.0 114.7 9.0 Z M 115.0 17.9 C 115.6 17.3 114.6 17.4 114.6 17.4 C 113.8 17.6 114.4 18.4 115.0 17.9 Z M 108.9 5.0 C 108.9 5.1 108.9 5.1 108.9 5.1 C 108.9 5.1 108.9 5.1 108.9 5.2 C 109.0 5.3 109.2 5.0 109.2 5.0 C 109.1 5.0 109.0 5.0 108.9 5.0 Z M 108.8 8.9 C 108.8 8.7 108.8 8.6 108.7 8.5 C 108.3 8.6 108.3 9.8 108.9 9.3 C 109.0 9.2 109.5 8.5 109.2 8.4 C 109.1 8.4 108.8 9.3 108.8 8.9 Z M 109.3 7.7 C 109.2 8.2 109.7 7.3 109.5 7.4 C 109.3 7.5 109.3 7.6 109.3 7.7 Z M 110.3 4.3 C 110.1 3.7 109.2 3.8 109.6 4.7 C 110.1 5.7 110.5 5.8 110.4 5.3 C 110.2 4.8 110.7 5.2 110.3 4.3 Z M 110.3 9.3 C 109.7 9.2 109.8 9.5 110.3 9.6 C 110.4 9.7 110.7 9.4 110.3 9.3 Z M 110.4 10.7 C 110.4 10.9 110.4 10.9 110.5 10.8 C 110.6 10.6 110.5 10.5 110.4 10.7 Z M 111.2 3.3 C 111.1 3.0 110.9 2.9 111.0 2.9 C 111.2 2.9 111.1 2.8 111.0 2.7 C 110.9 2.5 110.9 2.8 110.9 3.0 C 110.9 3.1 111.3 3.5 111.2 3.3 Z M 113.5 8.6 C 113.4 8.6 113.4 8.7 113.5 8.7 C 113.6 8.8 113.6 8.7 113.5 8.6 Z M 114.2 13.9 C 114.2 13.9 114.1 13.8 114.0 13.9 C 114.0 14.1 114.0 14.1 114.2 13.9 Z M 113.9 18.2 C 114.0 18.1 113.8 18.1 113.8 17.8 C 113.8 17.8 113.9 17.9 114.0 17.9 C 113.9 17.9 113.9 17.3 113.7 17.7 C 113.6 17.8 113.7 18.5 113.9 18.2 Z M 113.3 10.1 C 113.5 10.3 113.7 9.4 113.8 9.6 C 114.0 9.7 114.0 9.6 113.8 9.4 C 113.6 9.3 113.1 9.9 113.3 10.1 Z M 113.1 7.9 C 113.2 8.0 113.6 8.4 113.5 8.1 C 113.4 7.9 113.1 7.8 113.3 7.7 C 113.5 7.7 113.4 7.7 113.3 7.6 C 113.1 7.4 113.1 7.7 113.1 7.9 Z M 113.0 4.1 C 113.0 4.2 113.3 4.3 113.2 4.1 C 113.1 4.0 112.9 4.0 113.0 4.1 Z M 112.8 14.6 C 112.8 14.4 112.8 14.3 112.6 14.5 C 112.4 14.7 112.7 14.7 112.8 14.6 Z M 112.4 4.4 C 112.6 4.7 112.4 4.3 112.6 4.4 C 112.8 4.6 112.8 4.5 112.6 4.3 C 112.4 4.1 112.2 4.2 112.4 4.4 Z M 112.2 18.0 C 112.2 17.9 112.1 17.8 112.1 17.8 C 112.0 17.9 112.1 18.1 112.2 18.0 Z M 111.6 16.6 C 111.7 16.6 111.8 16.5 111.8 16.5 C 112.7 15.9 111.0 16.4 111.6 16.6 Z M 111.8 14.4 C 111.8 14.7 112.0 14.3 112.0 14.3 C 111.9 14.3 111.8 14.3 111.8 14.4 Z M 111.7 12.0 C 111.6 12.0 111.7 12.2 111.8 12.2 C 111.9 12.1 111.8 12.1 111.7 12.0 Z M 111.3 19.7 C 111.5 19.7 111.4 19.6 111.3 19.6 C 111.2 19.6 111.2 19.8 111.3 19.7 Z M 111.2 13.8 C 111.3 13.8 111.3 13.8 111.3 13.7 C 111.2 13.6 111.2 13.7 111.2 13.8 Z M 111.2 6.6 C 111.3 6.6 111.3 6.7 111.4 6.7 C 111.5 6.7 111.6 6.2 111.7 6.2 C 111.7 6.2 111.7 6.2 111.7 6.2 C 111.7 6.2 111.7 6.2 111.8 6.2 C 111.8 6.2 111.9 6.3 111.8 6.3 C 111.9 6.4 111.9 6.5 111.9 6.5 C 112.1 6.4 112.1 6.2 112.0 6.1 C 111.9 6.0 111.6 5.9 111.3 6.0 C 111.3 6.1 111.2 6.2 111.2 6.3 C 111.2 6.3 111.2 6.3 111.2 6.3 C 111.4 6.3 111.5 6.5 111.4 6.5 C 111.3 6.5 111.2 6.4 111.2 6.4 C 111.2 6.5 111.2 6.5 111.2 6.6 Z M 110.9 12.9 C 111.0 13.1 111.1 12.9 111.1 12.7 C 111.2 12.5 110.8 12.7 110.9 12.9 Z M 111.1 19.4 C 111.1 19.4 111.0 19.3 111.0 19.3 C 111.0 19.3 111.0 19.3 111.0 19.4 C 110.9 19.5 110.9 19.6 110.9 19.8 C 111.0 19.8 111.2 19.7 111.1 19.4 Z M 110.4 17.4 C 110.4 17.4 110.4 18.3 110.6 18.1 C 110.9 17.9 111.2 18.3 111.1 17.6 C 111.0 17.3 110.6 17.1 110.5 16.8 C 110.1 15.3 110.1 17.2 110.0 17.6 C 110.0 17.7 110.4 17.3 110.4 17.4 Z M 109.9 15.4 C 109.8 15.3 109.6 15.5 109.6 15.6 C 109.7 16.0 110.1 15.5 109.9 15.4 Z M 109.7 19.6 C 109.7 19.7 109.8 19.6 109.8 19.6 C 109.8 19.6 109.7 19.6 109.7 19.6 C 109.7 19.6 109.7 19.6 109.7 19.6 Z M 109.6 20.7 C 110.0 20.3 109.2 20.4 109.0 20.4 C 108.7 20.6 109.3 20.9 109.6 20.7 Z M 109.2 16.5 C 109.3 16.2 108.4 15.8 108.4 16.4 C 108.4 16.9 109.2 17.2 109.2 16.5 Z M 108.1 13.3 C 108.2 13.4 108.0 13.8 107.9 13.6 C 107.8 13.5 108.0 13.3 108.1 13.3 Z M 107.6 18.1 C 107.7 18.0 107.7 18.1 107.7 18.1 C 107.6 18.2 107.6 18.2 107.6 18.1 Z M 108.3 17.6 C 108.2 17.8 108.1 17.9 108.1 18.1 C 108.1 18.2 108.0 17.9 108.0 17.8 C 108.0 17.7 108.2 17.7 108.3 17.6 Z M 108.3 15.1 C 108.2 15.2 108.2 15.0 108.2 14.9 C 108.3 14.8 108.4 15.0 108.3 15.1 Z M 108.1 15.7 C 108.1 15.6 108.3 15.7 108.2 15.8 C 108.2 15.9 108.1 15.8 108.1 15.7 Z M 108.6 14.6 C 108.7 14.9 108.8 15.3 108.5 15.2 C 108.4 15.2 108.5 14.1 108.6 14.6 Z M 108.6 14.6 " fill="#5E416F"></path></g></svg>