<?xml version="1.0" encoding="UTF-8" standalone="no"?><svg xmlns="http://www.w3.org/2000/svg" xmlns:xlink="http://www.w3.org/1999/xlink" clip-rule="evenodd" stroke-miterlimit="10" viewBox="0 0 288 47"><desc>SVG generated by Keynote</desc><defs></defs><g transform="matrix(1.00, 0.00, -0.00, -1.00, 0.0, 47.0)"><path d="M 23.6 21.3 C 23.1 21.5 21.9 21.1 21.6 21.4 M 23.6 21.3 C 22.4 19.4 20.2 19.3 17.3 19.0 C 14.1 18.9 17.4 20.7 17.0 21.4 C 12.9 22.1 12.9 20.8 13.4 18.8 C 11.9 20.2 7.1 17.8 8.1 20.3 C 14.8 20.3 3.4 20.9 9.0 22.3 C 9.6 22.7 8.0 23.3 7.4 23.3 C 9.2 24.4 6.1 25.6 9.0 26.3 C 9.4 27.9 8.9 27.2 10.8 28.4 C 11.6 28.6 11.3 28.0 11.2 27.7 C 11.5 25.8 13.5 28.7 15.0 27.5 C 16.5 30.0 17.9 27.1 16.7 26.1 C 18.1 26.4 19.7 28.9 21.2 27.2 C 22.0 28.4 25.8 27.6 23.5 26.1 C 21.9 25.1 23.7 24.4 24.0 23.9 C 23.4 23.3 21.1 24.1 20.7 23.6 C 21.4 23.3 24.4 22.4 21.2 22.5 C 22.2 21.6 20.7 21.1 23.6 21.3 C 23.6 21.3 23.6 21.3 23.6 21.3 Z M 12.3 19.9 C 12.3 19.3 13.4 19.9 12.3 19.9 C 12.3 19.9 12.3 19.9 12.3 19.9 Z M 20.0 28.4 C 20.0 27.7 21.1 28.4 20.0 28.4 C 20.0 28.4 20.0 28.4 20.0 28.4 Z M 11.7 27.7 C 11.7 27.1 12.8 27.7 11.7 27.7 C 11.7 27.7 11.7 27.7 11.7 27.7 Z M 15.2 20.3 C 17.0 20.9 13.7 21.2 13.5 20.6 C 13.8 20.7 14.8 19.8 15.2 20.3 C 15.2 20.3 15.2 20.3 15.2 20.3 Z M 15.5 24.0 C 15.6 23.8 16.4 23.7 16.3 24.3 C 15.8 24.5 15.3 24.2 15.5 24.0 C 15.5 24.0 15.5 24.0 15.5 24.0 Z M 6.7 21.4 C 6.8 21.2 7.5 21.1 7.4 21.7 C 7.0 21.9 6.5 21.6 6.7 21.4 C 6.7 21.4 6.7 21.4 6.7 21.4 Z M 17.3 22.0 C 17.7 22.1 17.9 22.7 17.3 22.8 C 17.1 22.5 15.8 22.4 17.3 22.0 C 17.3 22.0 17.3 22.0 17.3 22.0 Z M 20.0 19.9 C 21.5 20.2 18.5 21.1 18.6 20.9 C 18.1 20.4 19.2 19.4 20.0 19.9 C 20.0 19.9 20.0 19.9 20.0 19.9 Z M 18.1 22.9 C 19.3 23.2 17.6 23.3 18.1 22.9 C 18.1 22.9 18.1 22.9 18.1 22.9 Z M 7.9 26.1 C 9.1 26.4 7.3 26.5 7.9 26.1 C 7.9 26.1 7.9 26.1 7.9 26.1 Z M 14.4 28.0 C 15.6 28.3 13.9 28.5 14.4 28.0 C 14.4 28.0 14.4 28.0 14.4 28.0 Z M 11.9 21.6 C 9.8 21.5 11.7 20.0 11.9 21.6 C 11.9 21.6 11.9 21.6 11.9 21.6 Z M 23.5 19.7 C 21.3 19.7 23.2 18.1 23.5 19.7 C 23.5 19.7 23.5 19.7 23.5 19.7 Z M 250.3 20.3 C 252.3 20.0 244.6 17.9 247.5 20.4 C 248.4 22.4 243.2 22.2 244.5 20.3 C 243.0 20.1 243.0 20.0 242.1 21.0 C 241.9 19.4 238.2 18.7 237.0 19.5 C 236.2 20.8 239.4 19.6 237.3 21.0 C 232.8 21.4 237.6 22.4 235.9 24.2 C 235.7 24.1 235.6 23.3 235.2 23.8 C 235.1 25.4 237.7 26.4 236.5 27.6 C 237.2 27.4 240.4 29.1 239.1 27.7 C 238.6 26.3 242.6 29.5 242.3 27.1 C 243.4 28.2 244.6 26.7 245.6 28.0 C 246.4 28.3 246.4 27.0 246.3 26.7 C 246.2 25.6 247.2 29.3 248.5 27.3 C 248.7 27.9 252.3 27.6 249.6 26.7 C 250.4 26.9 254.5 27.4 252.3 25.2 C 249.4 24.2 255.4 23.0 251.9 22.9 C 249.3 22.6 248.8 23.1 250.7 21.9 C 251.3 22.0 254.4 21.8 251.8 20.8 C 251.2 21.1 250.0 20.9 250.3 20.3 C 250.3 20.3 250.3 20.3 250.3 20.3 Z M 250.9 23.5 C 249.4 23.6 250.8 22.7 250.9 23.5 C 250.9 23.5 250.9 23.5 250.9 23.5 Z M 245.4 28.5 C 243.9 28.6 245.3 27.7 245.4 28.5 C 245.4 28.5 245.4 28.5 245.4 28.5 Z M 245.6 19.7 C 244.8 20.4 244.6 18.1 245.6 19.7 C 245.6 19.7 245.6 19.7 245.6 19.7 Z M 247.9 26.7 C 247.8 26.7 248.2 26.4 248.5 26.3 C 248.4 26.4 248.0 26.7 247.9 26.7 C 247.9 26.7 247.9 26.7 247.9 26.7 Z M 243.0 19.7 C 240.8 20.9 242.6 18.0 243.0 19.7 C 243.0 19.7 243.0 19.7 243.0 19.7 Z M 238.4 21.9 C 238.2 24.2 236.1 21.4 238.4 21.9 C 238.4 21.9 238.4 21.9 238.4 21.9 Z M 241.6 26.9 C 242.0 26.4 242.0 27.2 241.6 26.9 C 241.6 26.9 241.6 26.9 241.6 26.9 Z M 251.5 27.3 C 251.9 26.8 251.9 27.6 251.5 27.3 C 251.5 27.3 251.5 27.3 251.5 27.3 Z M 238.8 26.7 C 239.0 25.9 239.6 27.2 238.8 26.7 C 238.8 26.7 238.8 26.7 238.8 26.7 Z M 245.2 20.7 C 247.2 18.8 247.7 23.3 245.2 20.7 C 245.2 20.7 245.2 20.7 245.2 20.7 Z M 248.9 20.5 C 250.3 20.1 248.6 21.6 248.0 21.3 C 248.1 21.2 248.6 20.6 248.9 20.5 C 248.9 20.5 248.9 20.5 248.9 20.5 Z M 243.0 20.9 C 244.4 20.0 244.3 21.4 243.0 20.9 C 243.0 20.9 243.0 20.9 243.0 20.9 Z M 246.6 19.9 C 247.3 20.1 246.0 20.1 246.6 19.9 C 246.6 19.9 246.6 19.9 246.6 19.9 Z M 240.2 19.0 C 240.9 19.2 239.6 19.2 240.2 19.0 C 240.2 19.0 240.2 19.0 240.2 19.0 Z M 250.6 19.5 C 251.3 19.8 250.0 19.8 250.6 19.5 C 250.6 19.5 250.6 19.5 250.6 19.5 Z M 240.7 20.2 C 240.5 21.0 242.5 22.8 238.9 21.3 C 238.3 20.7 239.8 19.5 240.7 20.2 C 240.7 20.2 240.7 20.2 240.7 20.2 Z M 30.4 21.3 C 20.7 18.8 23.1 23.2 22.6 24.1 C 21.3 25.3 22.6 26.1 24.5 26.9 C 26.5 29.7 27.6 24.0 29.0 26.8 C 31.6 30.6 32.0 23.5 33.1 27.5 C 32.7 28.5 36.4 27.7 36.1 27.4 C 38.0 29.3 40.7 26.0 40.7 25.6 C 42.0 26.1 42.1 29.7 46.0 27.0 C 49.0 26.1 50.3 29.6 49.5 27.2 C 51.7 29.9 51.0 26.4 53.2 27.3 C 54.8 28.8 53.3 25.0 56.1 27.9 C 57.3 25.6 54.8 29.4 62.2 27.7 C 58.6 27.5 65.7 25.9 64.3 27.5 C 61.8 29.1 67.8 26.8 71.2 27.8 C 72.1 27.0 76.2 24.9 75.5 27.2 C 79.0 29.8 79.1 25.6 80.6 27.7 C 81.7 28.7 82.2 26.7 83.0 26.9 C 84.2 28.5 85.3 27.4 89.7 27.9 C 99.2 28.7 91.1 23.7 94.8 23.1 C 95.3 22.4 90.0 17.0 92.2 21.0 C 91.5 19.9 83.7 24.1 87.6 19.7 C 84.6 21.4 88.2 17.9 82.2 20.0 C 90.4 23.1 72.9 21.2 80.8 19.7 C 79.5 18.8 76.2 19.0 78.6 19.7 C 79.5 22.5 73.0 18.4 76.2 21.9 C 71.2 20.9 72.5 24.0 71.1 21.8 C 69.9 18.1 71.4 22.8 68.8 21.7 C 62.9 21.7 67.5 17.5 63.9 20.3 C 58.1 18.4 62.6 21.9 60.6 22.3 C 60.0 24.9 54.7 20.4 59.1 20.0 C 56.8 21.4 58.7 18.8 56.0 20.4 C 58.0 22.8 52.6 17.9 53.4 19.8 C 51.0 20.4 52.2 21.8 51.5 21.9 C 48.0 21.9 49.1 19.6 48.4 21.3 C 47.5 22.3 45.9 19.2 45.4 20.0 C 49.1 20.1 42.4 22.5 42.0 21.2 C 44.3 21.0 40.9 18.1 39.5 19.9 C 41.3 25.1 36.3 18.6 34.7 20.5 C 36.2 23.3 26.7 20.8 30.3 19.5 C 30.1 19.7 30.4 21.3 30.4 21.3 M 44.4 20.4 C 47.3 20.6 41.1 21.0 44.4 20.4 M 44.3 19.6 C 45.5 20.6 41.4 18.9 44.4 19.3 C 44.4 19.3 44.0 19.6 44.3 19.6 M 56.6 19.5 C 56.2 20.3 54.9 19.1 56.6 19.5 M 59.0 21.3 C 61.0 22.1 56.3 21.4 59.0 21.3 M 86.3 20.7 C 83.5 25.0 83.4 18.3 86.3 20.7 M 68.2 19.9 C 64.9 20.4 69.4 18.1 68.2 19.9 M 67.2 20.9 C 65.7 21.6 66.9 20.0 67.2 20.9 M 81.1 20.7 C 81.4 20.8 81.4 20.8 81.1 20.7 C 81.1 20.7 81.1 20.7 81.1 20.7 Z M 89.2 20.9 C 89.3 20.8 89.3 20.8 89.2 20.9 C 89.2 20.9 89.2 20.9 89.2 20.9 Z M 73.3 21.2 C 70.7 20.2 77.3 20.8 73.3 21.2 C 73.3 21.2 73.3 21.2 73.3 21.2 Z M 85.4 27.4 C 85.2 27.4 85.2 27.4 85.4 27.4 C 85.4 27.4 85.4 27.4 85.4 27.4 Z M 42.0 22.3 C 41.9 22.4 41.9 22.4 42.0 22.3 C 42.0 22.3 42.0 22.3 42.0 22.3 Z M 32.8 20.7 C 32.9 21.3 31.1 20.3 32.8 20.7 C 32.8 20.7 32.8 20.7 32.8 20.7 Z M 25.3 25.6 C 25.2 25.7 25.2 25.7 25.3 25.6 C 25.3 25.6 25.3 25.6 25.3 25.6 Z M 38.9 24.6 C 38.8 24.7 38.8 24.7 38.9 24.6 C 38.9 24.6 38.9 24.6 38.9 24.6 Z M 40.2 21.4 C 38.7 19.1 43.7 22.0 40.2 21.4 C 40.2 21.4 40.2 21.4 40.2 21.4 Z M 70.2 27.1 C 70.2 26.1 72.3 27.5 70.2 27.1 C 70.2 27.1 70.2 27.1 70.2 27.1 Z M 59.3 22.3 C 59.7 21.7 60.7 22.5 59.3 22.3 C 59.3 22.3 59.3 22.3 59.3 22.3 Z M 54.3 19.1 C 54.7 18.5 55.6 19.3 54.3 19.1 C 54.3 19.1 54.3 19.1 54.3 19.1 Z M 32.9 20.1 C 33.1 19.9 33.1 19.9 32.9 20.1 C 32.9 20.1 32.9 20.1 32.9 20.1 Z M 36.2 21.9 C 34.0 19.7 39.8 23.1 36.2 21.9 C 36.2 21.9 36.2 21.9 36.2 21.9 Z M 32.3 22.5 C 33.5 23.4 29.4 22.1 32.3 22.5 M 34.6 25.9 C 37.4 24.9 32.0 29.8 34.6 25.9 C 34.6 25.9 34.6 25.9 34.6 25.9 Z M 48.8 26.8 C 48.9 26.9 48.9 26.9 48.8 26.8 C 48.8 26.8 48.8 26.8 48.8 26.8 Z M 47.3 20.3 C 49.8 20.4 45.7 20.8 47.3 20.3 C 47.3 20.3 47.3 20.3 47.3 20.3 Z M 25.9 19.8 C 28.4 19.9 24.3 20.3 25.9 19.8 C 25.9 19.8 25.9 19.8 25.9 19.8 Z M 57.0 24.6 C 61.1 24.3 54.6 25.8 57.0 24.6 C 57.0 24.6 57.0 24.6 57.0 24.6 Z M 71.8 22.0 C 72.0 22.1 72.0 22.1 71.8 22.0 C 71.8 22.0 71.8 22.0 71.8 22.0 Z M 74.6 21.1 C 74.7 21.2 74.7 21.2 74.6 21.1 C 74.6 21.1 74.6 21.1 74.6 21.1 Z M 86.1 23.4 C 86.3 23.5 86.3 23.5 86.1 23.4 C 86.1 23.4 86.1 23.4 86.1 23.4 Z M 77.1 20.1 C 77.2 20.1 77.2 20.1 77.1 20.1 C 77.1 20.1 77.1 20.1 77.1 20.1 Z M 85.0 20.7 C 85.2 20.7 85.2 20.7 85.0 20.7 C 85.0 20.7 85.0 20.7 85.0 20.7 Z M 83.9 18.7 C 84.1 18.8 84.1 18.8 83.9 18.7 C 83.9 18.7 83.9 18.7 83.9 18.7 Z M 66.3 28.4 C 66.4 28.5 66.4 28.5 66.3 28.4 C 66.3 28.4 66.3 28.4 66.3 28.4 Z M 37.3 19.3 C 37.5 19.5 37.5 19.5 37.3 19.3 C 37.3 19.3 37.3 19.3 37.3 19.3 Z M 84.4 21.5 C 84.5 21.6 84.5 21.6 84.4 21.5 C 84.4 21.5 84.4 21.5 84.4 21.5 Z M 65.0 23.3 C 65.1 25.1 63.3 20.8 65.5 23.2 C 65.4 23.3 64.9 23.0 65.0 23.3 M 67.6 26.4 C 67.5 26.4 67.5 26.4 67.6 26.4 C 67.6 26.4 67.6 26.4 67.6 26.4 Z M 58.8 27.5 C 58.7 27.6 58.7 27.6 58.8 27.5 C 58.8 27.5 58.8 27.5 58.8 27.5 Z M 75.7 19.7 C 75.4 18.7 77.9 20.5 75.4 19.8 M 86.2 26.7 C 85.8 25.7 88.3 27.5 85.8 26.8 M 23.1 20.5 C 22.7 21.3 21.4 20.1 23.1 20.5 M 56.9 28.5 C 56.5 29.4 55.2 28.1 56.9 28.5 M 61.0 26.1 C 60.6 25.1 63.1 27.0 60.6 26.2 M 80.1 26.6 C 80.2 26.6 80.2 26.6 80.1 26.6 C 80.1 26.6 80.1 26.6 80.1 26.6 Z M 51.0 20.5 C 51.1 20.5 51.1 20.5 51.0 20.5 C 51.0 20.5 51.0 20.5 51.0 20.5 Z M 61.8 22.7 C 60.3 21.3 63.7 23.7 61.8 22.7 M 47.9 23.0 C 45.8 21.2 51.3 23.6 47.9 23.0 M 90.7 27.1 C 88.4 25.0 92.5 28.3 90.7 27.1 M 78.9 21.7 C 76.5 19.6 80.7 22.9 78.9 21.7 M 53.2 21.4 C 53.1 20.3 55.6 22.1 53.2 21.4 M 28.7 20.3 C 26.4 20.1 31.7 19.5 28.7 20.3 M 74.3 26.7 C 74.4 26.8 74.4 26.8 74.3 26.7 C 74.3 26.7 74.3 26.7 74.3 26.7 Z M 36.1 28.6 C 36.2 28.7 36.2 28.7 36.1 28.6 C 36.1 28.6 36.1 28.6 36.1 28.6 Z M 93.8 20.1 C 93.9 20.1 93.9 20.1 93.8 20.1 C 93.8 20.1 93.8 20.1 93.8 20.1 Z M 77.5 22.7 C 77.6 22.9 77.6 22.9 77.5 22.7 C 77.5 22.7 77.5 22.7 77.5 22.7 Z M 89.2 19.8 C 89.3 19.9 89.3 19.9 89.2 19.8 C 89.2 19.8 89.2 19.8 89.2 19.8 Z M 70.0 24.4 C 70.1 24.5 70.1 24.5 70.0 24.4 C 70.0 24.4 70.0 24.4 70.0 24.4 Z M 68.5 18.9 C 68.6 19.0 68.6 19.0 68.5 18.9 C 68.5 18.9 68.5 18.9 68.5 18.9 Z M 60.4 21.3 C 60.4 21.3 60.4 21.3 60.4 21.3 C 60.4 21.3 60.4 21.3 60.4 21.3 Z M 72.2 19.3 C 77.1 19.0 69.8 21.2 72.2 19.3 C 72.2 19.3 72.2 19.3 72.2 19.3 Z M 63.8 24.8 C 63.9 24.9 63.9 24.9 63.8 24.8 C 63.8 24.8 63.8 24.8 63.8 24.8 Z M 63.2 20.9 C 66.2 19.4 64.8 23.6 63.2 20.9 M 49.6 19.6 C 50.5 18.8 50.1 20.9 49.6 19.6 M 44.2 26.9 C 44.2 27.0 44.2 27.0 44.2 26.9 C 44.2 26.9 44.2 26.9 44.2 26.9 Z M 45.6 26.3 C 45.8 26.4 45.8 26.4 45.6 26.3 C 45.6 26.3 45.6 26.3 45.6 26.3 Z M 46.3 19.3 C 46.4 19.4 46.4 19.4 46.3 19.3 C 46.3 19.3 46.3 19.3 46.3 19.3 Z M 45.8 28.4 C 46.0 28.4 46.0 28.4 45.8 28.4 C 45.8 28.4 45.8 28.4 45.8 28.4 Z M 66.7 19.1 C 66.7 19.1 66.7 19.1 66.7 19.1 C 66.7 19.1 66.7 19.1 66.7 19.1 Z M 91.6 19.0 C 91.7 19.0 91.7 19.0 91.6 19.0 C 91.6 19.0 91.6 19.0 91.6 19.0 Z M 29.4 26.1 C 29.5 26.2 29.5 26.2 29.4 26.1 C 29.4 26.1 29.4 26.1 29.4 26.1 Z M 69.3 21.2 C 69.3 21.3 69.3 21.3 69.3 21.2 C 69.3 21.2 69.3 21.2 69.3 21.2 Z M 40.7 26.5 C 40.8 26.6 40.8 26.6 40.7 26.5 C 40.7 26.5 40.7 26.5 40.7 26.5 Z M 67.7 20.8 C 67.7 20.8 67.7 20.8 67.7 20.8 C 67.7 20.8 67.7 20.8 67.7 20.8 Z M 73.5 27.2 C 73.6 27.2 73.6 27.2 73.5 27.2 C 73.5 27.2 73.5 27.2 73.5 27.2 Z M 78.9 28.4 C 78.9 28.4 78.9 28.4 78.9 28.4 C 78.9 28.4 78.9 28.4 78.9 28.4 Z M 73.1 23.3 C 73.2 23.4 73.2 23.4 73.1 23.3 C 73.1 23.3 73.1 23.3 73.1 23.3 Z M 38.9 24.2 C 29.1 22.3 46.7 23.3 38.9 24.2 M 74.8 23.8 C 67.9 23.3 80.3 21.6 74.8 23.8 C 75.5 23.2 74.9 23.7 74.8 23.8 M 96.2 19.2 C 93.4 21.2 93.4 23.1 94.6 25.2 C 96.0 26.3 96.0 22.2 96.0 25.6 C 92.8 26.3 97.4 30.8 97.3 26.4 C 101.6 25.7 98.0 29.2 100.6 27.4 C 105.1 27.0 102.8 28.3 106.2 28.0 C 108.3 25.6 108.3 29.2 109.2 26.9 C 107.4 29.4 112.9 26.2 113.0 27.4 C 109.8 28.9 125.0 27.4 116.8 26.7 C 120.2 25.5 119.5 27.6 120.7 27.9 C 122.1 26.4 126.2 29.0 128.3 27.6 C 127.9 27.2 126.8 27.2 126.5 26.7 C 125.9 25.7 128.9 26.9 128.6 26.8 C 129.9 26.3 135.4 24.8 129.6 27.4 C 129.3 28.6 134.3 26.8 134.1 27.9 C 139.2 27.9 135.4 25.5 137.7 27.3 C 141.3 27.4 143.9 27.4 143.8 27.1 C 146.0 27.3 146.5 28.7 148.5 27.4 C 152.9 30.0 151.6 22.3 153.2 27.5 C 154.5 26.2 155.7 29.6 155.6 26.4 C 154.0 27.9 163.1 28.9 159.2 26.6 C 160.2 25.8 165.9 29.9 165.1 26.6 C 167.1 24.3 166.8 21.9 162.3 19.7 C 162.8 21.5 157.6 17.8 161.0 20.9 C 164.8 22.0 154.0 22.0 156.3 20.9 C 156.8 17.1 151.0 23.2 148.7 20.5 C 150.6 22.0 141.8 22.8 144.4 20.0 C 142.7 19.8 142.4 21.1 140.6 19.5 C 145.8 19.7 138.6 22.4 138.9 20.7 C 139.8 19.6 131.9 18.8 132.7 20.3 C 135.5 24.3 130.7 19.5 129.3 21.1 C 125.0 21.9 130.0 17.8 126.8 20.6 C 126.0 20.1 120.2 20.1 123.8 19.3 C 125.2 19.7 120.4 23.6 119.8 20.3 C 126.0 18.4 112.7 19.2 114.8 20.3 C 124.3 22.1 104.8 22.3 112.2 20.5 C 108.0 18.7 113.4 19.8 108.2 20.6 C 108.9 21.6 104.8 22.6 105.8 20.5 C 105.0 17.4 104.4 24.7 101.2 20.4 C 100.7 18.6 94.8 21.8 97.1 19.7 C 97.2 19.5 96.4 19.1 96.2 19.2 M 98.1 19.5 C 97.4 20.2 96.9 18.7 98.1 19.5 M 97.3 20.2 C 97.3 20.2 97.3 20.2 97.3 20.2 C 97.3 20.2 97.3 20.2 97.3 20.2 Z M 107.4 20.7 C 107.4 20.6 107.4 20.6 107.4 20.7 C 107.4 20.7 107.4 20.7 107.4 20.7 Z M 115.4 28.6 C 115.4 28.5 115.4 28.5 115.4 28.6 C 115.4 28.6 115.4 28.6 115.4 28.6 Z M 114.2 20.9 C 114.1 20.9 114.1 20.9 114.2 20.9 C 114.2 20.9 114.2 20.9 114.2 20.9 Z M 103.8 21.2 C 103.7 21.2 103.7 21.2 103.8 21.2 C 103.8 21.2 103.8 21.2 103.8 21.2 Z M 113.5 19.7 C 114.1 20.9 111.2 18.9 113.7 19.5 C 113.8 19.6 113.3 19.6 113.5 19.7 M 122.3 19.3 C 122.4 19.4 122.4 19.4 122.3 19.3 M 141.7 28.5 C 141.8 28.7 141.8 28.7 141.7 28.5 M 143.3 19.2 C 143.5 19.3 143.5 19.3 143.3 19.2 M 131.1 20.5 C 133.8 20.3 131.8 21.0 131.1 20.5 M 150.4 19.8 C 147.0 19.1 154.0 19.2 150.4 19.8 M 153.7 19.1 C 154.0 19.2 154.0 19.2 153.7 19.1 M 138.4 19.6 C 138.4 19.7 138.4 19.7 138.4 19.6 C 138.4 19.6 138.4 19.6 138.4 19.6 Z M 130.0 20.0 C 126.4 19.3 133.5 18.9 130.0 20.0 M 108.6 19.6 C 110.6 19.0 108.6 21.1 108.6 19.6 M 104.6 20.2 C 104.6 20.3 104.6 20.3 104.6 20.2 C 104.6 20.2 104.6 20.2 104.6 20.2 Z M 145.0 19.8 C 144.9 19.8 144.9 19.8 145.0 19.8 C 145.0 19.8 145.0 19.8 145.0 19.8 Z M 148.9 19.6 C 148.7 19.6 148.7 19.6 148.9 19.6 C 148.9 19.6 148.9 19.6 148.9 19.6 Z M 155.4 28.2 C 155.2 28.3 155.2 28.3 155.4 28.2 C 155.4 28.2 155.4 28.2 155.4 28.2 Z M 107.6 23.8 C 105.0 23.2 110.3 21.0 109.7 23.1 C 110.0 24.0 107.9 23.6 107.6 23.8 M 127.4 22.6 C 128.1 25.6 124.8 18.6 127.4 22.6 M 154.2 21.1 C 156.8 24.6 150.9 18.6 154.2 21.1 M 159.5 20.5 C 161.1 21.2 149.6 20.9 157.6 19.9 C 158.4 19.4 158.9 20.1 159.5 20.5 M 122.5 20.7 C 123.2 22.3 118.3 20.0 122.5 20.7 M 138.7 25.6 C 139.9 24.5 143.3 23.6 141.8 25.4 C 141.8 27.7 137.1 26.5 138.7 25.6 M 98.9 21.2 C 101.0 18.6 98.8 23.4 98.9 21.2 M 109.1 21.4 C 109.2 21.3 109.2 21.3 109.1 21.4 C 109.1 21.4 109.1 21.4 109.1 21.4 Z M 113.2 21.0 C 113.4 21.2 113.4 21.2 113.2 21.0 M 100.5 18.9 C 100.7 19.1 100.7 19.1 100.5 18.9 M 138.6 22.9 C 138.8 23.1 138.8 23.1 138.6 22.9 M 130.3 21.1 C 134.2 23.7 128.2 21.7 130.3 21.1 M 120.7 26.1 C 121.9 27.4 118.2 26.2 120.7 26.1 M 136.8 20.2 C 139.6 22.6 133.0 22.5 136.8 20.2 M 128.4 20.9 C 128.6 20.9 128.6 20.9 128.4 20.9 C 128.4 20.9 128.4 20.9 128.4 20.9 Z M 139.7 25.9 C 139.6 25.9 139.6 25.9 139.7 25.9 C 139.7 25.9 139.7 25.9 139.7 25.9 Z M 140.9 25.7 C 140.7 25.8 140.7 25.8 140.9 25.7 C 140.9 25.7 140.9 25.7 140.9 25.7 Z M 140.2 19.9 C 140.1 19.9 140.1 19.9 140.2 19.9 C 140.2 19.9 140.2 19.9 140.2 19.9 Z M 104.4 27.0 C 107.2 27.2 102.2 27.4 104.4 27.0 C 104.4 27.0 104.4 27.0 104.4 27.0 Z M 116.7 19.8 C 121.4 21.7 113.5 21.6 116.7 19.8 C 116.7 19.8 116.7 19.8 116.7 19.8 Z M 122.0 23.0 C 122.0 23.1 122.0 23.1 122.0 23.0 C 122.0 23.0 122.0 23.0 122.0 23.0 Z M 135.0 18.6 C 135.0 18.8 135.0 18.8 135.0 18.6 C 135.0 18.6 135.0 18.6 135.0 18.6 Z M 105.8 27.3 C 105.8 27.5 105.8 27.5 105.8 27.3 C 105.8 27.3 105.8 27.3 105.8 27.3 Z M 148.2 21.2 C 148.2 21.3 148.2 21.3 148.2 21.2 C 148.2 21.2 148.2 21.2 148.2 21.2 Z M 132.1 26.2 C 133.1 25.3 132.3 27.0 132.1 26.2 C 132.1 26.2 132.1 26.2 132.1 26.2 Z M 136.3 26.3 C 136.4 26.3 136.4 26.3 136.3 26.3 C 136.3 26.3 136.3 26.3 136.3 26.3 Z M 154.7 18.9 C 154.8 18.9 154.8 18.9 154.7 18.9 C 154.7 18.9 154.7 18.9 154.7 18.9 Z M 146.9 28.6 C 147.0 28.6 147.0 28.6 146.9 28.6 C 146.9 28.6 146.9 28.6 146.9 28.6 Z M 150.4 25.7 C 150.4 25.7 150.4 25.7 150.4 25.7 C 150.4 25.7 150.4 25.7 150.4 25.7 Z M 139.5 20.5 C 143.6 20.0 138.5 21.6 139.5 20.5 C 139.5 20.5 139.5 20.5 139.5 20.5 Z M 160.7 24.9 C 160.8 25.1 160.8 25.1 160.7 24.9 C 160.7 24.9 160.7 24.9 160.7 24.9 Z M 162.9 21.5 C 163.0 21.7 163.0 21.7 162.9 21.5 C 162.9 21.5 162.9 21.5 162.9 21.5 Z M 163.9 19.8 C 164.0 19.9 164.0 19.9 163.9 19.8 C 163.9 19.8 163.9 19.8 163.9 19.8 Z M 113.1 24.6 C 113.0 24.5 113.0 24.5 113.1 24.6 C 113.1 24.6 113.1 24.6 113.1 24.6 Z M 111.4 19.2 C 111.4 19.1 111.4 19.1 111.4 19.2 C 111.4 19.2 111.4 19.2 111.4 19.2 Z M 117.1 18.9 C 117.0 18.9 117.0 18.9 117.1 18.9 C 117.1 18.9 117.1 18.9 117.1 18.9 Z M 112.1 27.9 C 112.0 27.9 112.0 27.9 112.1 27.9 C 112.1 27.9 112.1 27.9 112.1 27.9 Z M 133.3 23.3 C 133.2 23.2 133.2 23.2 133.3 23.3 C 133.3 23.3 133.3 23.3 133.3 23.3 Z M 135.2 25.5 C 135.1 25.4 135.1 25.4 135.2 25.5 C 135.2 25.5 135.2 25.5 135.2 25.5 Z M 130.4 28.4 C 130.3 28.4 130.3 28.4 130.4 28.4 C 130.4 28.4 130.4 28.4 130.4 28.4 Z M 136.8 27.4 C 136.7 27.4 136.7 27.4 136.8 27.4 C 136.8 27.4 136.8 27.4 136.8 27.4 Z M 97.9 26.9 C 97.9 27.0 97.9 27.0 97.9 26.9 C 97.9 26.9 97.9 26.9 97.9 26.9 Z M 97.4 22.7 C 97.3 22.9 97.3 22.9 97.4 22.7 C 97.4 22.7 97.4 22.7 97.4 22.7 Z M 133.9 20.2 C 134.8 19.4 135.8 21.4 133.9 20.2 M 125.8 20.8 C 125.8 20.8 125.8 20.8 125.8 20.8 C 125.8 20.8 125.8 20.8 125.8 20.8 Z M 147.5 20.4 C 148.5 22.1 143.7 19.5 147.5 20.4 C 147.5 20.4 147.5 20.4 147.5 20.4 Z M 143.2 27.4 C 143.3 27.4 143.3 27.4 143.2 27.4 C 143.2 27.4 143.2 27.4 143.2 27.4 Z M 145.3 26.7 C 145.5 26.9 145.5 26.9 145.3 26.7 C 145.3 26.7 145.3 26.7 145.3 26.7 Z M 157.0 22.2 C 157.2 22.3 157.2 22.3 157.0 22.2 M 124.8 19.3 C 126.0 20.0 125.8 19.9 124.8 19.3 M 150.2 20.5 C 150.1 20.5 150.1 20.5 150.2 20.5 C 150.2 20.5 150.2 20.5 150.2 20.5 Z M 159.6 21.2 C 159.4 21.3 159.4 21.3 159.6 21.2 C 159.6 21.2 159.6 21.2 159.6 21.2 Z M 119.1 20.4 C 119.3 22.4 118.2 22.0 119.1 20.4 M 103.0 21.1 C 103.0 21.2 103.0 21.2 103.0 21.1 C 103.0 21.1 103.0 21.1 103.0 21.1 Z M 172.4 19.8 C 168.0 17.6 168.0 20.7 168.0 20.8 C 168.5 16.5 164.1 22.5 164.9 23.3 C 164.8 23.9 168.2 31.3 171.2 26.8 C 172.1 26.2 172.6 27.5 173.2 27.7 C 178.5 27.5 169.5 25.3 176.0 25.3 C 177.2 26.0 175.8 29.5 179.7 27.0 C 179.8 27.4 184.2 28.7 182.6 27.1 C 184.6 28.7 186.0 26.7 187.9 26.3 C 189.7 27.3 186.5 28.9 192.8 27.0 C 195.5 29.9 196.4 24.8 198.9 28.0 C 200.4 28.1 202.9 22.8 199.2 25.8 C 199.7 25.5 197.4 23.0 202.4 23.8 C 201.7 24.5 198.9 29.9 206.7 27.3 C 208.0 27.5 211.0 26.1 211.7 26.7 C 207.7 27.3 217.2 29.0 216.2 27.4 C 222.5 28.5 218.9 26.1 223.4 27.9 C 227.1 28.0 222.2 25.5 226.8 26.9 C 230.2 26.6 227.9 28.0 227.5 27.9 C 230.5 28.1 231.6 27.2 232.7 27.2 C 233.3 27.5 234.7 28.6 235.4 27.3 C 238.6 24.8 235.7 22.4 237.1 20.0 C 234.8 18.8 236.1 21.8 234.5 20.0 C 233.3 21.5 234.3 19.8 228.0 20.2 C 228.1 20.6 229.7 21.6 228.1 21.8 C 225.7 21.6 227.4 17.4 223.3 20.4 C 228.2 21.2 216.6 21.7 221.1 22.6 C 215.5 23.1 219.5 22.2 215.5 21.2 C 215.7 24.0 215.1 18.3 213.6 20.5 C 213.3 19.3 206.9 19.8 211.5 21.5 C 204.9 22.3 209.0 20.7 206.7 19.2 C 203.6 19.0 206.5 23.7 204.6 20.3 C 200.6 18.8 204.4 22.0 201.5 19.3 C 202.8 21.7 198.6 19.3 199.7 21.9 C 193.0 22.1 200.6 19.2 195.8 21.0 C 197.3 21.1 196.7 17.6 193.8 19.8 C 195.1 23.9 190.0 16.2 192.1 21.6 C 182.7 23.2 190.5 19.4 185.4 19.4 C 184.0 19.4 186.8 21.2 185.6 21.2 C 178.9 20.4 184.5 19.0 181.0 21.7 C 174.4 22.3 179.1 19.4 175.8 19.2 C 175.6 20.5 173.0 22.6 172.4 19.8 M 178.2 21.1 C 179.6 20.2 179.1 22.0 178.2 21.1 M 165.0 19.8 C 166.4 19.0 165.8 20.7 165.0 19.8 M 183.7 20.3 C 185.5 19.4 184.2 21.7 183.7 20.3 M 219.2 21.6 C 216.7 21.6 220.3 20.9 219.2 21.6 M 170.3 19.6 C 172.2 18.6 170.8 21.1 170.3 19.6 M 167.9 21.8 C 168.0 21.8 168.0 21.8 167.9 21.8 M 222.7 19.4 C 222.8 19.5 222.8 19.5 222.7 19.4 M 213.1 19.4 C 215.2 19.4 212.0 19.9 213.1 19.4 M 212.8 28.3 C 214.8 28.4 211.6 28.9 212.8 28.3 M 227.8 19.3 C 229.9 18.6 228.4 20.3 227.8 19.3 M 233.1 21.3 C 235.0 20.5 234.3 22.2 233.1 21.3 M 177.0 24.2 C 177.0 24.3 177.0 24.3 177.0 24.2 C 177.0 24.2 177.0 24.2 177.0 24.2 Z M 194.5 26.4 C 192.4 25.6 197.0 27.5 194.5 26.4 M 191.3 20.6 C 192.7 22.4 188.6 20.4 191.3 20.6 C 191.3 20.6 191.3 20.6 191.3 20.6 Z M 188.2 21.4 C 188.2 21.5 188.2 21.5 188.2 21.4 C 188.2 21.4 188.2 21.4 188.2 21.4 Z M 198.1 21.5 C 197.9 21.5 197.9 21.5 198.1 21.5 C 198.1 21.5 198.1 21.5 198.1 21.5 Z M 196.0 21.7 C 195.2 22.1 194.9 21.3 196.0 21.7 C 196.0 21.7 196.0 21.7 196.0 21.7 Z M 210.3 27.4 C 209.5 27.8 209.2 27.1 210.3 27.4 C 210.3 27.4 210.3 27.4 210.3 27.4 Z M 192.9 22.3 C 192.7 24.1 191.5 21.1 192.9 22.3 C 192.9 22.3 192.9 22.3 192.9 22.3 Z M 203.5 26.6 C 204.4 26.1 205.3 28.3 203.5 26.6 M 224.6 19.7 C 225.5 19.3 226.5 21.5 224.6 19.7 M 203.8 19.2 C 204.7 18.7 205.7 21.0 203.8 19.2 M 179.3 20.3 C 179.6 20.5 179.6 20.5 179.3 20.3 M 190.9 28.2 C 192.3 27.5 191.6 29.0 190.9 28.2 M 171.3 27.6 C 172.7 26.9 172.0 28.4 171.3 27.6 M 221.7 28.1 C 221.6 27.7 223.8 28.4 221.7 28.1 M 206.3 22.1 C 208.1 22.4 210.0 23.3 206.2 23.2 C 205.9 22.8 207.1 22.5 206.3 22.1 C 206.3 22.1 206.3 22.1 206.3 22.1 Z M 212.8 26.3 C 213.1 26.5 213.1 26.5 212.8 26.3 M 209.5 20.5 C 209.8 20.6 209.8 20.6 209.5 20.5 M 220.2 20.6 C 220.4 20.9 220.4 20.9 220.2 20.6 M 221.5 20.1 C 221.5 20.2 221.5 20.2 221.5 20.1 C 221.5 20.1 221.5 20.1 221.5 20.1 Z M 233.2 19.4 C 233.2 19.5 233.2 19.5 233.2 19.4 C 233.2 19.4 233.2 19.4 233.2 19.4 Z M 216.8 20.9 C 216.7 20.9 216.7 20.9 216.8 20.9 C 216.8 20.9 216.8 20.9 216.8 20.9 Z M 226.4 27.8 C 226.4 27.9 226.4 27.9 226.4 27.8 C 226.4 27.8 226.4 27.8 226.4 27.8 Z M 225.2 26.7 C 225.2 26.8 225.2 26.8 225.2 26.7 C 225.2 26.7 225.2 26.7 225.2 26.7 Z M 173.3 19.8 C 174.9 18.5 174.2 23.0 173.3 19.8 M 230.4 26.7 C 231.9 28.0 227.7 27.0 230.4 26.7 C 230.4 26.7 230.4 26.7 230.4 26.7 Z M 215.5 22.4 C 215.7 22.6 215.7 22.6 215.5 22.4 M 222.2 20.3 C 222.3 20.5 222.3 20.5 222.2 20.3 M 191.2 18.9 C 191.3 19.1 191.3 19.1 191.2 18.9 M 230.4 20.6 C 235.4 21.1 228.1 23.2 230.4 20.6 M 188.9 20.6 C 188.8 20.5 188.8 20.5 188.9 20.6 M 200.1 24.0 C 203.4 23.9 198.9 25.0 200.1 24.0 M 208.6 21.7 C 208.5 21.8 208.5 21.8 208.6 21.7 C 208.6 21.7 208.6 21.7 208.6 21.7 Z M 203.6 21.7 C 201.2 22.0 203.0 21.2 203.6 21.7 C 203.6 21.7 203.6 21.7 203.6 21.7 Z M 175.6 21.5 C 178.8 21.7 172.4 22.1 175.6 21.5 C 175.6 21.5 175.6 21.5 175.6 21.5 Z M 228.1 24.9 C 228.0 25.0 228.0 25.0 228.1 24.9 C 228.1 24.9 228.1 24.9 228.1 24.9 Z M 216.2 19.6 C 214.7 20.1 215.5 19.1 216.2 19.6 C 216.2 19.6 216.2 19.6 216.2 19.6 Z M 234.9 19.4 C 233.5 19.8 234.3 18.8 234.9 19.4 C 234.9 19.4 234.9 19.4 234.9 19.4 Z M 171.9 21.1 C 183.4 24.2 156.5 20.4 171.9 21.1 C 171.9 21.1 171.9 21.1 171.9 21.1 Z M 205.6 20.5 C 205.5 20.6 205.5 20.6 205.6 20.5 C 205.6 20.5 205.6 20.5 205.6 20.5 Z M 184.3 19.2 C 184.3 19.4 184.3 19.4 184.3 19.2 C 184.3 19.2 184.3 19.2 184.3 19.2 Z M 180.7 20.9 C 180.6 21.0 180.6 21.0 180.7 20.9 C 180.7 20.9 180.7 20.9 180.7 20.9 Z M 181.7 28.0 C 181.7 28.1 181.7 28.1 181.7 28.0 C 181.7 28.0 181.7 28.0 181.7 28.0 Z M 183.0 24.8 C 182.8 25.0 182.8 25.0 183.0 24.8 C 183.0 24.8 183.0 24.8 183.0 24.8 Z M 175.5 26.0 C 175.4 26.1 175.4 26.1 175.5 26.0 C 175.5 26.0 175.5 26.0 175.5 26.0 Z M 175.7 26.9 C 175.6 27.0 175.6 27.0 175.7 26.9 C 175.7 26.9 175.7 26.9 175.7 26.9 Z M 222.2 22.3 C 222.1 22.4 222.1 22.4 222.2 22.3 C 222.2 22.3 222.2 22.3 222.2 22.3 Z M 218.2 25.3 C 220.9 24.2 217.4 26.8 218.2 25.3 C 218.2 25.3 218.2 25.3 218.2 25.3 Z M 194.4 23.8 C 196.9 23.4 192.8 24.7 194.4 23.8 C 194.4 23.8 194.4 23.8 194.4 23.8 Z M 197.1 27.7 C 197.1 27.7 197.1 27.7 197.1 27.7 C 197.1 27.7 197.1 27.7 197.1 27.7 Z M 180.7 19.2 C 180.6 19.4 180.6 19.4 180.7 19.2 C 180.7 19.2 180.7 19.2 180.7 19.2 Z M 176.2 20.4 C 176.0 21.9 174.8 19.7 176.2 20.4 M 199.0 19.5 C 199.0 19.7 199.0 19.7 199.0 19.5 C 199.0 19.5 199.0 19.5 199.0 19.5 Z M 213.5 21.9 C 213.4 22.0 213.4 22.0 213.5 21.9 C 213.5 21.9 213.5 21.9 213.5 21.9 Z M 227.8 20.9 C 227.7 21.1 227.7 21.1 227.8 20.9 C 227.8 20.9 227.8 20.9 227.8 20.9 Z M 208.0 19.7 C 207.9 19.9 207.9 19.9 208.0 19.7 C 208.0 19.7 208.0 19.7 208.0 19.7 Z M 201.2 21.1 C 201.1 21.3 201.1 21.3 201.2 21.1 C 201.2 21.1 201.2 21.1 201.2 21.1 Z M 230.9 23.0 C 230.8 23.1 230.8 23.1 230.9 23.0 C 230.9 23.0 230.9 23.0 230.9 23.0 Z M 209.6 19.5 C 209.5 19.6 209.5 19.6 209.6 19.5 C 209.6 19.5 209.6 19.5 209.6 19.5 Z M 213.7 24.3 C 213.6 24.4 213.6 24.4 213.7 24.3 C 213.7 24.3 213.7 24.3 213.7 24.3 Z M 176.8 18.3 C 176.8 18.4 176.8 18.4 176.8 18.3 C 176.8 18.3 176.8 18.3 176.8 18.3 Z M 231.1 21.0 C 231.0 21.1 231.0 21.1 231.1 21.0 C 231.1 21.0 231.1 21.0 231.1 21.0 Z M 232.0 19.7 C 231.9 19.8 231.9 19.8 232.0 19.7 C 232.0 19.7 232.0 19.7 232.0 19.7 Z M 221.8 26.8 C 216.8 26.0 226.3 26.5 222.7 24.9 C 229.9 24.5 222.9 26.9 221.8 26.8 C 221.8 26.8 221.8 26.8 221.8 26.8 Z M 221.8 26.8 " fill="#5E416F"></path><path d="M 251.1 45.0 C 250.9 45.8 248.4 46.7 250.1 45.0 C 250.2 44.9 251.2 44.6 251.1 45.0 Z M 254.9 42.7 C 254.6 42.9 254.4 43.0 254.1 42.9 C 253.3 42.5 255.9 42.1 254.9 42.7 Z M 248.8 45.3 C 248.8 45.4 247.6 46.2 247.7 45.8 C 247.8 45.4 248.9 45.2 248.8 45.3 Z M 257.5 39.2 C 257.6 39.5 256.3 40.2 256.0 40.2 C 255.1 40.2 257.2 38.4 257.5 39.2 Z M 247.0 32.7 C 247.0 32.6 247.0 32.4 246.9 32.3 C 247.0 32.5 247.0 32.6 247.0 32.7 Z M 275.8 29.4 C 275.6 29.5 274.9 29.5 274.9 29.2 C 274.9 28.7 276.5 28.8 275.8 29.4 Z M 246.3 7.4 C 246.3 7.4 246.0 8.0 245.8 7.7 C 245.5 7.5 246.0 7.2 246.3 7.4 Z M 245.8 7.4 C 245.5 7.6 245.3 7.0 245.6 7.1 C 245.9 7.2 246.1 7.3 245.8 7.4 Z M 266.2 12.8 C 266.4 12.8 266.6 12.9 266.3 12.9 C 266.2 13.0 265.9 12.7 266.2 12.8 Z M 265.5 12.9 C 265.1 13.1 265.0 12.4 265.3 12.5 C 265.7 12.6 265.8 12.7 265.5 12.9 Z M 262.7 8.9 C 262.8 9.0 263.0 9.0 262.8 9.0 C 262.6 9.1 262.4 8.8 262.7 8.9 Z M 245.2 17.8 C 245.0 17.7 245.2 16.9 245.5 16.9 C 246.0 17.0 245.4 18.1 245.2 17.8 Z M 245.0 16.8 C 244.7 16.9 244.6 16.3 244.9 16.5 C 245.1 16.6 245.2 16.7 245.0 16.8 Z M 245.6 20.0 C 246.0 20.0 246.0 20.9 245.9 21.0 C 245.8 21.3 245.7 21.7 245.6 22.0 C 245.5 22.1 245.0 20.0 245.6 20.0 Z M 246.0 26.7 C 245.9 26.7 245.8 26.7 245.9 26.4 C 246.1 26.1 246.2 26.7 246.0 26.7 Z M 245.8 22.9 C 245.6 22.9 245.5 22.8 245.7 22.5 C 245.8 22.2 245.9 22.9 245.8 22.9 Z M 265.2 35.7 C 265.4 35.8 264.3 36.2 264.2 36.2 C 264.1 36.2 264.5 36.0 264.2 36.0 C 263.9 36.1 264.0 35.0 265.2 35.7 Z M 257.0 41.3 C 256.8 41.4 256.6 41.3 256.6 41.1 C 256.6 41.0 257.5 40.9 257.0 41.3 Z M 263.2 35.3 C 263.3 35.4 263.0 35.5 263.0 35.4 C 262.9 35.3 263.1 35.2 263.2 35.3 Z M 263.8 34.7 C 263.6 34.9 262.9 34.9 262.9 34.5 C 262.8 34.1 264.5 34.1 263.8 34.7 Z M 266.5 35.3 C 266.2 35.5 266.2 35.5 266.4 35.3 C 266.5 35.1 266.5 35.3 266.5 35.3 Z M 261.9 38.7 C 261.6 38.9 261.6 38.9 261.7 38.7 C 261.8 38.5 261.9 38.7 261.9 38.7 Z M 268.5 33.4 C 268.5 33.4 268.1 34.1 267.6 33.7 C 266.9 33.0 268.4 33.3 268.5 33.4 Z M 271.5 30.6 C 271.2 30.7 271.2 30.4 271.5 30.3 C 271.7 30.3 271.7 30.5 271.5 30.6 Z M 272.1 28.7 C 272.6 28.6 273.0 28.7 272.4 29.0 C 271.7 29.3 271.6 28.7 272.1 28.7 Z M 271.6 29.3 C 271.5 29.2 271.7 29.1 271.8 29.2 C 271.9 29.3 271.6 29.4 271.6 29.3 Z M 269.2 31.9 C 269.0 32.3 268.4 32.1 268.8 31.7 C 269.2 31.4 269.3 31.5 269.2 31.9 Z M 245.2 36.2 C 245.3 36.4 244.9 36.4 244.8 36.2 C 244.6 36.0 245.1 35.9 245.2 36.2 Z M 246.8 21.6 C 246.5 21.8 246.5 21.6 246.6 21.2 C 246.7 20.9 247.0 21.4 246.8 21.6 Z M 247.5 12.3 C 247.3 12.6 247.3 12.4 247.4 12.0 C 247.5 11.6 247.7 12.2 247.5 12.3 Z M 246.8 25.3 C 246.6 25.4 245.9 24.4 246.6 23.9 C 247.2 23.4 247.3 25.0 246.8 25.3 Z M 254.1 34.4 C 254.2 34.6 254.0 34.5 254.0 34.5 C 254.0 34.2 254.0 34.2 254.1 34.4 Z M 247.9 23.2 C 248.0 23.4 247.6 23.4 247.4 23.2 C 247.3 23.1 247.7 22.9 247.9 23.2 Z M 247.0 14.0 C 246.8 14.4 246.2 14.2 246.0 13.9 C 245.4 13.2 246.1 12.6 246.5 12.1 C 246.9 11.7 247.1 13.8 247.0 14.0 Z M 246.6 38.4 C 246.7 38.2 246.8 38.0 246.8 37.8 C 246.6 37.7 246.7 37.6 246.8 37.4 C 246.7 36.5 245.9 35.9 245.7 35.4 C 245.1 34.0 246.9 33.5 247.0 32.7 C 247.0 32.9 247.0 33.1 247.2 33.2 C 247.7 33.6 247.4 30.3 247.4 30.2 C 247.0 27.4 246.5 30.7 245.6 30.7 C 245.2 30.7 246.3 28.8 246.3 28.7 C 246.7 27.8 245.8 27.7 246.1 27.0 C 246.3 26.6 248.4 25.5 248.1 25.2 C 247.9 25.0 248.1 24.1 248.1 23.8 C 248.1 23.3 248.0 22.4 247.3 22.9 C 246.7 23.2 246.2 23.4 246.7 22.7 C 247.0 22.2 248.4 19.0 246.8 19.1 C 246.7 19.1 246.2 19.8 246.3 19.8 C 245.9 18.9 246.4 16.2 245.8 15.6 C 244.4 14.1 246.6 16.0 247.0 15.3 C 247.7 14.0 248.2 13.4 247.9 11.8 C 247.9 11.4 247.8 9.9 247.0 10.6 C 246.4 11.1 246.1 10.7 245.9 11.7 C 245.1 10.6 246.6 10.0 246.3 9.8 C 245.8 9.5 245.6 10.0 245.7 9.3 C 245.8 8.4 245.5 8.8 246.3 8.6 C 246.6 8.6 246.7 7.7 246.7 7.7 C 246.8 7.8 246.9 7.8 247.0 7.7 C 246.9 7.0 245.4 5.8 245.8 5.6 C 246.0 5.4 247.0 5.9 247.3 5.9 C 247.3 5.8 247.4 5.7 247.4 5.7 C 247.3 5.4 246.7 4.6 246.8 4.5 C 247.0 4.4 248.3 4.9 247.9 4.6 C 247.5 4.2 248.0 2.6 248.4 2.5 C 248.9 2.4 250.7 2.0 250.8 1.7 C 250.9 1.4 251.8 2.0 252.1 2.1 C 252.4 2.2 252.6 2.9 252.6 3.1 C 252.7 3.3 253.4 3.5 253.4 3.5 C 253.4 3.5 253.8 3.5 254.4 3.8 C 254.9 4.1 255.1 4.7 255.7 5.3 C 256.2 5.9 256.8 5.6 257.4 5.9 C 258.1 6.2 258.1 7.5 258.5 8.0 C 259.0 8.5 259.5 7.7 260.2 8.0 C 260.9 8.3 261.2 8.8 260.9 8.8 C 260.6 8.8 260.7 9.1 260.9 9.2 C 261.1 9.4 261.7 10.1 262.1 10.1 C 262.5 10.1 260.8 8.2 263.4 9.9 C 264.6 10.7 265.0 12.0 264.7 11.9 C 263.7 11.4 264.9 13.8 265.2 13.4 C 265.4 13.0 267.6 14.4 267.4 13.4 C 267.4 13.1 269.8 14.1 270.0 14.5 C 270.2 14.8 271.4 15.2 271.2 16.1 C 271.2 16.5 272.9 16.3 273.2 16.5 C 273.5 16.6 275.2 17.8 275.4 18.2 C 275.7 18.6 274.8 18.1 274.5 17.9 C 274.1 17.6 273.7 16.9 273.4 16.8 C 273.0 16.7 273.5 17.5 273.9 17.8 C 274.3 18.1 274.2 18.5 274.5 18.8 C 274.7 18.8 275.0 19.0 275.3 19.3 C 275.5 19.4 275.6 19.4 275.7 19.3 C 275.8 19.0 275.7 18.7 275.8 18.7 C 275.9 18.6 276.3 18.6 276.9 18.9 C 277.4 19.3 277.8 19.6 278.4 20.2 C 279.0 20.8 279.3 20.7 279.8 21.0 C 280.3 21.2 280.7 21.5 280.6 21.7 C 280.6 21.9 279.9 21.6 279.7 21.7 C 279.6 21.8 280.1 22.6 280.3 22.8 C 281.5 23.7 279.8 24.2 281.0 25.1 C 281.7 25.7 280.7 25.6 280.0 25.8 C 280.1 25.9 280.1 26.0 279.6 26.5 C 279.7 26.7 278.7 27.0 278.3 27.3 C 278.1 27.5 276.6 28.7 277.4 27.7 C 277.4 27.6 277.5 27.5 277.5 27.5 C 277.5 27.5 277.5 27.5 277.5 27.5 C 277.5 27.5 277.6 26.5 277.6 26.5 C 277.6 26.5 277.5 27.5 277.5 27.5 C 277.1 27.3 276.8 27.2 276.6 27.1 C 276.5 27.2 276.5 27.3 276.5 27.4 C 276.5 27.5 276.4 27.5 276.4 27.5 C 276.4 27.5 276.4 27.5 276.4 27.5 C 276.6 27.8 276.5 27.8 276.3 27.9 C 275.8 28.5 274.2 28.9 273.6 29.0 C 274.2 26.7 271.7 28.3 270.9 29.0 C 270.2 29.7 271.3 31.4 271.7 31.1 C 271.0 31.6 270.8 31.4 270.3 31.0 C 270.4 31.0 269.0 30.4 269.1 30.4 C 267.3 30.6 268.5 31.9 268.2 32.3 C 267.9 32.7 267.5 33.0 267.1 33.4 C 266.7 33.7 267.3 33.8 267.3 34.1 C 267.1 35.1 265.3 34.4 264.9 34.6 C 265.2 34.2 265.5 33.9 265.7 33.5 C 265.4 34.1 264.6 33.4 264.4 33.5 C 263.8 33.6 263.3 34.0 262.8 34.3 C 262.0 34.9 261.3 35.5 260.6 36.1 C 260.9 36.1 262.7 36.3 262.8 36.3 C 262.5 36.5 261.6 36.7 262.3 37.1 C 263.4 37.9 261.0 38.6 260.7 38.7 C 259.5 39.3 259.0 41.0 257.2 40.5 C 257.2 40.5 258.7 39.2 258.5 39.1 C 257.6 38.4 256.9 38.1 255.9 39.0 C 255.7 39.2 254.6 40.8 254.7 40.9 C 254.6 40.8 257.5 42.0 255.7 42.1 C 255.3 42.1 255.7 41.4 255.2 41.5 C 254.6 41.5 254.0 42.1 253.5 42.4 C 253.4 42.4 252.4 42.6 252.4 42.7 C 252.3 43.1 252.5 43.6 252.3 43.9 C 252.1 44.2 251.6 44.2 251.4 43.9 C 251.3 43.9 251.3 43.8 251.3 43.8 C 251.2 43.8 251.1 43.8 251.0 43.6 C 250.9 43.7 250.7 43.8 250.4 43.7 C 250.2 43.7 250.6 43.4 250.9 43.4 C 250.9 43.3 250.8 43.2 250.8 43.0 C 250.3 43.3 250.0 43.7 249.9 43.8 C 249.5 44.7 249.7 45.0 248.1 44.8 C 246.8 44.6 246.0 41.6 246.4 39.8 C 246.3 39.4 246.4 39.0 246.6 38.4 Z M 275.9 20.3 C 275.8 20.3 275.8 20.2 275.8 20.2 C 275.7 20.4 275.6 20.5 275.5 20.7 C 275.8 21.0 275.6 20.3 275.9 20.6 C 276.3 21.0 276.3 20.8 275.9 20.3 Z M 275.6 24.4 C 275.9 24.5 275.9 24.4 275.7 24.2 C 275.6 24.3 275.6 24.4 275.6 24.4 Z M 276.4 26.2 C 276.9 25.7 275.6 25.6 274.9 26.2 C 275.7 26.3 276.2 26.3 276.4 26.2 Z M 275.6 27.7 C 275.6 27.6 275.6 27.4 275.5 27.3 C 275.5 27.1 275.1 27.7 275.0 27.4 C 275.0 27.2 275.4 26.7 275.0 26.7 C 274.8 26.7 274.7 26.8 274.6 26.8 C 274.6 26.8 274.5 26.9 274.5 27.0 C 274.4 27.4 275.2 27.8 275.6 27.7 Z M 272.8 20.1 C 273.1 20.1 273.0 19.9 272.8 19.9 C 272.5 19.8 272.5 20.1 272.8 20.1 Z M 270.7 16.8 C 270.8 17.1 271.2 17.2 271.1 16.8 C 271.0 16.5 270.5 16.5 270.7 16.8 Z M 266.2 21.6 C 266.4 21.5 266.2 21.5 266.1 21.4 C 265.8 21.3 266.0 21.7 266.2 21.6 Z M 265.9 25.0 C 265.8 25.2 266.1 25.5 266.2 25.3 C 266.3 25.1 266.1 24.8 265.9 25.0 Z M 266.4 17.2 C 266.1 17.2 266.1 17.5 266.4 17.4 C 266.6 17.4 266.6 17.3 266.4 17.2 Z M 267.1 21.9 C 266.8 21.5 266.7 21.6 266.6 21.7 C 266.5 21.8 266.6 22.1 266.9 22.2 C 267.2 22.3 267.3 22.2 267.1 21.9 Z M 267.3 24.7 C 266.5 25.2 266.7 25.6 267.6 24.8 C 268.5 24.1 267.8 24.4 267.3 24.7 Z M 268.9 14.5 C 269.0 14.6 269.5 14.7 269.5 14.7 C 269.5 14.7 268.5 13.9 268.9 14.5 Z M 267.1 32.5 C 267.4 32.3 267.4 31.9 266.9 32.1 C 266.4 32.3 266.8 32.6 267.1 32.5 Z M 265.4 31.1 C 266.1 31.6 266.7 31.4 266.7 31.4 C 266.6 31.3 266.5 30.8 266.6 30.6 C 267.0 30.0 268.1 30.3 268.4 29.6 C 268.7 28.8 267.4 29.4 267.2 29.6 C 267.3 29.4 267.4 29.3 267.3 29.1 C 267.1 28.9 266.9 29.0 266.8 29.2 C 266.6 29.6 264.6 30.5 265.4 31.1 Z M 265.4 22.9 C 265.8 23.1 266.1 22.8 265.9 22.5 C 265.6 22.1 265.3 21.9 265.2 22.0 C 265.0 22.1 265.1 22.8 265.4 22.9 Z M 265.1 20.3 C 265.5 20.2 265.4 20.1 265.1 20.0 C 264.5 19.8 264.8 20.5 265.1 20.3 Z M 260.4 9.5 C 260.1 9.6 260.6 9.9 260.7 9.8 C 260.8 9.6 260.6 9.5 260.4 9.5 Z M 260.6 13.8 C 259.9 13.7 260.4 14.3 260.6 14.3 C 260.7 14.3 261.0 13.9 260.6 13.8 Z M 263.1 16.3 C 262.8 16.2 263.1 16.6 263.3 16.6 C 263.4 16.5 263.2 16.4 263.1 16.3 Z M 263.3 18.0 C 263.1 17.8 263.1 18.3 263.5 18.3 C 263.7 18.3 263.6 18.1 263.3 18.0 Z M 262.1 31.8 C 262.1 31.8 261.9 31.2 261.6 31.7 C 261.3 32.2 261.3 32.2 262.1 31.8 Z M 263.3 26.9 C 263.7 26.5 264.0 26.2 263.6 24.8 C 263.1 23.4 262.8 24.0 262.6 24.8 C 262.4 25.6 261.8 23.4 261.4 25.0 C 261.3 25.6 262.8 27.2 263.3 26.9 Z M 260.8 18.1 C 261.3 18.9 262.5 18.7 261.9 18.2 C 261.1 17.6 260.4 17.4 260.8 18.1 Z M 260.8 17.5 C 261.0 17.5 260.9 17.4 260.6 17.3 C 260.4 17.1 260.5 17.5 260.8 17.5 Z M 261.5 37.8 C 262.8 36.6 260.6 36.6 260.6 36.6 C 258.8 37.2 260.2 39.0 261.5 37.8 Z M 247.7 8.5 C 247.7 8.6 247.6 8.6 247.6 8.7 C 247.6 8.7 247.6 8.7 247.7 8.8 C 247.9 9.0 248.2 8.4 248.2 8.4 C 248.0 8.3 247.8 8.4 247.7 8.5 Z M 247.2 17.3 C 247.3 17.0 247.3 16.7 247.0 16.4 C 246.3 16.6 246.2 19.3 247.6 18.2 C 247.8 18.1 249.0 16.4 248.3 16.2 C 247.9 16.1 247.3 18.2 247.2 17.3 Z M 248.4 14.6 C 248.3 15.6 249.4 13.7 248.9 13.9 C 248.6 14.0 248.4 14.2 248.4 14.6 Z M 250.8 6.8 C 250.2 5.4 248.1 5.6 249.2 7.8 C 250.3 10.0 251.2 10.1 250.9 9.0 C 250.6 7.9 251.7 8.8 250.8 6.8 Z M 250.8 18.2 C 249.3 17.9 249.7 18.6 250.8 19.0 C 251.1 19.1 251.7 18.4 250.8 18.2 Z M 251.0 21.4 C 250.9 21.8 250.9 21.8 251.2 21.6 C 251.5 21.3 251.2 21.0 251.0 21.4 Z M 252.9 4.5 C 252.7 3.9 252.1 3.6 252.4 3.6 C 252.8 3.5 252.6 3.5 252.4 3.1 C 252.0 2.7 252.0 3.5 252.1 3.8 C 252.1 4.1 253.1 5.0 252.9 4.5 Z M 258.0 16.7 C 257.7 16.6 257.9 16.9 258.1 17.0 C 258.3 17.0 258.3 16.9 258.0 16.7 Z M 259.6 28.8 C 259.6 28.8 259.5 28.5 259.3 28.8 C 259.1 29.1 259.1 29.1 259.6 28.8 Z M 259.1 38.5 C 259.3 38.3 258.7 38.2 258.7 37.7 C 258.8 37.5 259.1 37.8 259.1 37.9 C 259.1 37.8 258.9 36.6 258.4 37.4 C 258.2 37.7 258.4 39.2 259.1 38.5 Z M 257.6 20.1 C 258.1 20.6 258.5 18.5 258.9 18.9 C 259.2 19.2 259.3 19.0 258.8 18.6 C 258.4 18.1 257.1 19.5 257.6 20.1 Z M 257.3 14.9 C 257.3 15.2 258.3 16.1 258.1 15.6 C 257.9 15.1 257.3 14.7 257.6 14.7 C 258.0 14.7 257.8 14.6 257.5 14.2 C 257.2 13.9 257.2 14.6 257.3 14.9 Z M 256.9 6.3 C 257.0 6.5 257.6 6.8 257.4 6.4 C 257.3 6.2 256.8 6.1 256.9 6.3 Z M 256.4 30.3 C 256.5 29.9 256.4 29.7 256.0 30.1 C 255.6 30.5 256.2 30.6 256.4 30.3 Z M 255.5 7.1 C 255.9 7.6 255.6 6.8 256.0 7.1 C 256.4 7.4 256.4 7.2 255.9 6.8 C 255.5 6.4 255.0 6.6 255.5 7.1 Z M 255.0 38.1 C 255.1 37.9 254.9 37.5 254.8 37.7 C 254.6 38.0 255.0 38.3 255.0 38.1 Z M 253.8 34.9 C 254.0 34.8 254.1 34.8 254.2 34.7 C 256.3 33.3 252.5 34.4 253.8 34.9 Z M 254.1 29.9 C 254.3 30.6 254.6 29.8 254.6 29.7 C 254.3 29.6 254.2 29.7 254.1 29.9 Z M 254.1 24.5 C 253.8 24.3 253.9 24.9 254.1 24.8 C 254.4 24.7 254.3 24.6 254.1 24.5 Z M 253.1 42.0 C 253.4 41.9 253.3 41.7 253.1 41.8 C 252.9 41.8 252.8 42.1 253.1 42.0 Z M 252.9 28.5 C 253.0 28.6 253.1 28.6 253.0 28.3 C 252.9 28.0 252.8 28.4 252.9 28.5 Z M 252.8 11.9 C 252.9 12.1 253.1 12.2 253.2 12.3 C 253.5 12.2 253.6 11.2 254.0 11.2 C 254.0 11.2 254.0 11.2 254.0 11.2 C 254.1 11.2 254.1 11.2 254.1 11.2 C 254.3 11.2 254.4 11.3 254.3 11.4 C 254.4 11.5 254.4 11.7 254.4 11.9 C 254.8 11.6 255.0 11.2 254.7 11.0 C 254.4 10.6 253.7 10.5 253.1 10.6 C 253.0 10.8 252.9 11.0 252.8 11.3 C 252.9 11.3 252.9 11.3 252.9 11.3 C 253.3 11.5 253.5 11.8 253.2 11.8 C 253.0 11.8 252.9 11.7 252.8 11.6 C 252.8 11.7 252.8 11.8 252.8 11.9 Z M 252.1 26.4 C 252.3 26.8 252.5 26.5 252.6 26.0 C 252.7 25.6 251.9 26.0 252.1 26.4 Z M 252.6 41.4 C 252.5 41.2 252.5 41.1 252.3 41.0 C 252.3 41.1 252.3 41.2 252.3 41.2 C 252.2 41.5 252.2 41.8 252.1 42.1 C 252.4 42.1 252.7 41.9 252.6 41.4 Z M 251.0 36.7 C 251.1 36.8 251.0 38.8 251.4 38.4 C 252.1 37.9 252.9 38.7 252.5 37.3 C 252.4 36.6 251.4 36.0 251.2 35.3 C 250.4 31.8 250.3 36.3 250.1 37.2 C 250.0 37.4 250.9 36.4 251.0 36.7 Z M 249.9 32.1 C 249.6 31.9 249.2 32.4 249.3 32.7 C 249.4 33.5 250.3 32.3 249.9 32.1 Z M 249.4 41.8 C 249.5 41.9 249.5 41.9 249.7 41.8 C 249.6 41.8 249.5 41.7 249.4 41.7 C 249.4 41.7 249.4 41.8 249.4 41.8 Z M 249.1 44.3 C 250.1 43.4 248.2 43.5 247.8 43.7 C 247.1 44.0 248.5 44.7 249.1 44.3 Z M 248.3 34.7 C 248.4 34.0 246.3 33.2 246.4 34.4 C 246.5 35.6 248.2 36.2 248.3 34.7 Z M 245.7 27.4 C 246.0 27.6 245.6 28.4 245.3 28.0 C 245.1 27.8 245.6 27.3 245.7 27.4 Z M 244.6 38.2 C 244.7 38.0 244.8 38.3 244.8 38.3 C 244.5 38.5 244.5 38.5 244.6 38.2 Z M 246.1 37.2 C 245.9 37.6 245.8 38.0 245.7 38.3 C 245.7 38.5 245.5 37.8 245.5 37.7 C 245.5 37.5 246.1 37.3 246.1 37.2 Z M 246.3 31.4 C 246.0 31.8 246.0 31.3 246.1 31.0 C 246.1 30.8 246.4 31.2 246.3 31.4 Z M 245.8 32.8 C 245.8 32.6 246.1 32.8 246.1 33.0 C 246.0 33.4 245.7 33.0 245.8 32.8 Z M 246.9 30.4 C 247.1 31.0 247.3 31.9 246.7 31.8 C 246.4 31.8 246.6 29.2 246.9 30.4 Z M 246.9 30.4 " fill="#5E416F"></path></g></svg>