<?xml version="1.0" encoding="UTF-8" standalone="no"?><svg xmlns="http://www.w3.org/2000/svg" xmlns:xlink="http://www.w3.org/1999/xlink" clip-rule="evenodd" stroke-miterlimit="10" viewBox="0 0 227 47"><desc>SVG generated by Keynote</desc><defs></defs><g transform="matrix(1.00, 0.00, -0.00, -1.00, 0.0, 47.0)"><path d="M 23.8 21.3 C 23.3 21.6 22.1 21.1 21.7 21.4 M 23.8 21.3 C 22.6 19.4 20.4 19.3 17.5 19.0 C 14.3 18.9 17.6 20.7 17.2 21.4 C 13.0 22.2 13.0 20.8 13.6 18.9 C 12.0 20.2 7.3 17.8 8.3 20.3 C 15.0 20.3 3.6 20.9 9.2 22.3 C 9.8 22.7 8.1 23.3 7.5 23.4 C 9.4 24.4 6.2 25.6 9.2 26.3 C 9.6 27.9 9.1 27.2 11.0 28.4 C 11.8 28.6 11.4 28.0 11.4 27.7 C 11.7 25.9 13.7 28.7 15.2 27.6 C 16.6 30.0 18.1 27.1 16.9 26.1 C 18.3 26.4 19.9 28.9 21.4 27.2 C 22.2 28.4 26.0 27.6 23.7 26.1 C 22.0 25.1 23.9 24.4 24.1 23.9 C 23.6 23.3 21.2 24.1 20.9 23.6 C 21.6 23.3 24.6 22.4 21.4 22.5 C 22.4 21.6 20.9 21.1 23.8 21.3 C 23.8 21.3 23.8 21.3 23.8 21.3 Z M 12.5 19.9 C 12.4 19.3 13.5 19.9 12.5 19.9 C 12.5 19.9 12.5 19.9 12.5 19.9 Z M 20.2 28.4 C 20.1 27.8 21.2 28.4 20.2 28.4 C 20.2 28.4 20.2 28.4 20.2 28.4 Z M 11.9 27.7 C 11.9 27.1 13.0 27.7 11.9 27.7 C 11.9 27.7 11.9 27.7 11.9 27.7 Z M 15.4 20.3 C 17.2 20.9 13.9 21.2 13.7 20.6 C 14.0 20.7 15.0 19.8 15.4 20.3 C 15.4 20.3 15.4 20.3 15.4 20.3 Z M 15.7 24.0 C 15.8 23.8 16.5 23.7 16.4 24.3 C 16.0 24.5 15.5 24.2 15.7 24.0 C 15.7 24.0 15.7 24.0 15.7 24.0 Z M 6.8 21.4 C 7.0 21.2 7.7 21.1 7.6 21.7 C 7.2 21.9 6.7 21.6 6.8 21.4 C 6.8 21.4 6.8 21.4 6.8 21.4 Z M 17.4 22.0 C 17.9 22.1 18.0 22.7 17.5 22.8 C 17.3 22.5 16.0 22.4 17.4 22.0 C 17.4 22.0 17.4 22.0 17.4 22.0 Z M 20.2 19.9 C 21.7 20.2 18.7 21.1 18.7 20.9 C 18.2 20.4 19.4 19.4 20.2 19.9 C 20.2 19.9 20.2 19.9 20.2 19.9 Z M 18.3 22.9 C 19.5 23.2 17.8 23.3 18.3 22.9 C 18.3 22.9 18.3 22.9 18.3 22.9 Z M 8.0 26.1 C 9.3 26.4 7.5 26.5 8.0 26.1 C 8.0 26.1 8.0 26.1 8.0 26.1 Z M 14.5 28.1 C 15.8 28.4 14.0 28.5 14.5 28.1 C 14.5 28.1 14.5 28.1 14.5 28.1 Z M 12.1 21.6 C 10.0 21.5 11.8 20.0 12.1 21.6 C 12.1 21.6 12.1 21.6 12.1 21.6 Z M 23.7 19.7 C 21.5 19.7 23.4 18.1 23.7 19.7 C 23.7 19.7 23.7 19.7 23.7 19.7 Z M 189.0 20.3 C 191.0 20.0 183.3 17.9 186.2 20.4 C 187.1 22.4 181.9 22.2 183.2 20.3 C 181.6 20.1 181.6 20.0 180.8 21.0 C 180.5 19.5 176.9 18.7 175.6 19.5 C 174.8 20.8 178.0 19.6 176.0 21.0 C 171.5 21.4 176.3 22.4 174.6 24.2 C 174.4 24.2 174.3 23.3 173.9 23.8 C 173.7 25.4 176.3 26.5 175.2 27.6 C 175.8 27.4 179.1 29.1 177.7 27.7 C 177.3 26.3 181.3 29.6 181.0 27.1 C 182.1 28.2 183.2 26.7 184.3 28.1 C 185.1 28.3 185.1 27.0 185.0 26.7 C 184.9 25.6 185.9 29.3 187.2 27.3 C 187.3 27.9 191.0 27.6 188.3 26.7 C 189.0 26.9 193.2 27.4 191.0 25.3 C 188.1 24.2 194.0 23.0 190.6 22.9 C 188.0 22.6 187.4 23.1 189.4 21.9 C 190.0 22.0 193.0 21.8 190.5 20.8 C 189.9 21.1 188.7 20.9 189.0 20.3 C 189.0 20.3 189.0 20.3 189.0 20.3 Z M 189.6 23.5 C 188.0 23.6 189.4 22.7 189.6 23.5 C 189.6 23.5 189.6 23.5 189.6 23.5 Z M 184.0 28.5 C 182.5 28.7 183.9 27.7 184.0 28.5 C 184.0 28.5 184.0 28.5 184.0 28.5 Z M 184.2 19.7 C 183.5 20.4 183.3 18.1 184.2 19.7 C 184.2 19.7 184.2 19.7 184.2 19.7 Z M 186.6 26.7 C 186.5 26.7 186.9 26.4 187.1 26.3 C 187.1 26.4 186.7 26.7 186.6 26.7 C 186.6 26.7 186.6 26.7 186.6 26.7 Z M 181.7 19.8 C 179.4 20.9 181.2 18.0 181.7 19.8 C 181.7 19.8 181.7 19.8 181.7 19.8 Z M 177.1 21.9 C 176.8 24.2 174.7 21.4 177.1 21.9 C 177.1 21.9 177.1 21.9 177.1 21.9 Z M 180.3 26.9 C 180.7 26.5 180.7 27.2 180.3 26.9 C 180.3 26.9 180.3 26.9 180.3 26.9 Z M 190.2 27.3 C 190.6 26.8 190.6 27.6 190.2 27.3 C 190.2 27.3 190.2 27.3 190.2 27.3 Z M 177.4 26.7 C 177.6 25.9 178.3 27.2 177.4 26.7 C 177.4 26.7 177.4 26.7 177.4 26.7 Z M 183.8 20.7 C 185.9 18.8 186.4 23.3 183.8 20.7 C 183.8 20.7 183.8 20.7 183.8 20.7 Z M 187.6 20.5 C 189.0 20.1 187.3 21.6 186.7 21.3 C 186.7 21.2 187.3 20.6 187.6 20.5 C 187.6 20.5 187.6 20.5 187.6 20.5 Z M 181.6 20.9 C 183.1 20.0 183.0 21.4 181.6 20.9 C 181.6 20.9 181.6 20.9 181.6 20.9 Z M 185.3 19.9 C 186.0 20.1 184.7 20.1 185.3 19.9 C 185.3 19.9 185.3 19.9 185.3 19.9 Z M 178.8 19.0 C 179.5 19.2 178.2 19.2 178.8 19.0 C 178.8 19.0 178.8 19.0 178.8 19.0 Z M 189.3 19.5 C 190.0 19.8 188.7 19.8 189.3 19.5 C 189.3 19.5 189.3 19.5 189.3 19.5 Z M 179.4 20.2 C 179.2 21.0 181.2 22.8 177.6 21.3 C 177.0 20.7 178.5 19.5 179.4 20.2 C 179.4 20.2 179.4 20.2 179.4 20.2 Z M 28.4 21.3 C 21.5 18.8 23.2 23.3 22.8 24.1 C 21.9 25.3 22.8 26.1 24.2 26.9 C 25.6 29.7 26.4 24.0 27.4 26.8 C 29.3 30.6 29.5 23.5 30.3 27.5 C 30.0 28.5 32.7 27.7 32.4 27.5 C 33.8 29.3 35.7 26.0 35.7 25.6 C 36.6 26.1 36.7 29.7 39.5 27.0 C 41.6 26.1 42.6 29.6 42.0 27.2 C 43.6 29.9 43.1 26.4 44.6 27.3 C 45.8 28.8 44.7 25.0 46.7 27.9 C 47.5 25.6 45.7 29.4 51.1 27.7 C 48.5 27.5 53.6 25.9 52.5 27.5 C 50.7 29.1 55.0 26.8 57.4 27.8 C 58.1 27.0 61.0 24.9 60.5 27.2 C 63.0 29.8 63.1 25.6 64.1 27.7 C 65.0 28.7 65.3 26.7 65.8 26.9 C 66.7 28.5 67.5 27.4 70.6 27.9 C 77.4 28.7 71.6 23.7 74.2 23.1 C 74.6 22.4 70.9 17.0 72.4 21.0 C 71.9 19.9 66.3 24.1 69.1 19.7 C 67.0 21.4 69.6 17.9 65.3 20.0 C 71.1 23.1 58.7 21.2 64.3 19.7 C 63.4 18.8 61.0 19.0 62.7 19.7 C 63.3 22.5 58.7 18.4 61.0 21.9 C 57.4 20.9 58.4 24.0 57.4 21.8 C 56.5 18.2 57.6 22.8 55.7 21.7 C 51.5 21.7 54.8 17.5 52.2 20.3 C 48.1 18.4 51.3 21.9 49.9 22.4 C 49.5 24.9 45.7 20.4 48.8 20.0 C 47.2 21.4 48.5 18.8 46.7 20.4 C 48.0 22.8 44.2 17.9 44.8 19.8 C 43.1 20.4 43.9 21.8 43.4 21.9 C 40.9 21.9 41.7 19.6 41.2 21.3 C 40.6 22.3 39.4 19.2 39.1 20.0 C 41.7 20.1 36.9 22.5 36.7 21.2 C 38.3 21.0 35.9 18.1 34.8 20.0 C 36.1 25.1 32.6 18.6 31.4 20.5 C 32.5 23.3 25.8 20.8 28.3 19.5 C 28.2 19.7 28.4 21.4 28.4 21.3 M 38.3 20.4 C 40.5 20.6 36.0 21.0 38.3 20.4 M 38.3 19.6 C 39.2 20.6 36.2 18.9 38.4 19.3 C 38.4 19.3 38.1 19.6 38.3 19.6 M 47.0 19.5 C 46.8 20.3 45.9 19.1 47.0 19.5 M 48.7 21.3 C 50.2 22.1 46.8 21.5 48.7 21.3 M 68.2 20.7 C 66.2 25.0 66.2 18.3 68.2 20.7 M 55.3 19.9 C 53.0 20.4 56.2 18.1 55.3 19.9 M 54.6 21.0 C 53.5 21.6 54.4 20.0 54.6 21.0 M 64.5 20.7 C 64.7 20.8 64.7 20.8 64.5 20.7 C 64.5 20.7 64.5 20.7 64.5 20.7 Z M 70.3 20.9 C 70.3 20.8 70.3 20.8 70.3 20.9 C 70.3 20.9 70.3 20.9 70.3 20.9 Z M 58.9 21.2 C 57.1 20.2 61.8 20.8 58.9 21.2 C 58.9 21.2 58.9 21.2 58.9 21.2 Z M 67.5 27.4 C 67.4 27.4 67.4 27.4 67.5 27.4 C 67.5 27.4 67.5 27.4 67.5 27.4 Z M 36.6 22.3 C 36.6 22.4 36.6 22.4 36.6 22.3 C 36.6 22.3 36.6 22.3 36.6 22.3 Z M 30.1 20.7 C 30.2 21.3 28.9 20.3 30.1 20.7 C 30.1 20.7 30.1 20.7 30.1 20.7 Z M 24.8 25.6 C 24.7 25.7 24.7 25.7 24.8 25.6 C 24.8 25.6 24.8 25.6 24.8 25.6 Z M 34.5 24.6 C 34.4 24.7 34.4 24.7 34.5 24.6 C 34.5 24.6 34.5 24.6 34.5 24.6 Z M 35.4 21.4 C 34.3 19.1 37.9 22.1 35.4 21.4 C 35.4 21.4 35.4 21.4 35.4 21.4 Z M 56.7 27.1 C 56.8 26.1 58.2 27.5 56.7 27.1 C 56.7 27.1 56.7 27.1 56.7 27.1 Z M 49.0 22.3 C 49.3 21.7 50.0 22.5 49.0 22.3 C 49.0 22.3 49.0 22.3 49.0 22.3 Z M 45.4 19.1 C 45.7 18.5 46.3 19.3 45.4 19.1 C 45.4 19.1 45.4 19.1 45.4 19.1 Z M 30.2 20.1 C 30.3 19.9 30.3 19.9 30.2 20.1 C 30.2 20.1 30.2 20.1 30.2 20.1 Z M 32.5 21.9 C 30.9 19.7 35.1 23.1 32.5 21.9 C 32.5 21.9 32.5 21.9 32.5 21.9 Z M 29.8 22.5 C 30.6 23.4 27.6 22.1 29.8 22.5 M 31.4 25.9 C 33.3 25.0 29.6 29.8 31.4 25.9 C 31.4 25.9 31.4 25.9 31.4 25.9 Z M 41.5 26.8 C 41.6 26.9 41.6 26.9 41.5 26.8 C 41.5 26.8 41.5 26.8 41.5 26.8 Z M 40.4 20.3 C 42.2 20.4 39.3 20.8 40.4 20.3 C 40.4 20.3 40.4 20.3 40.4 20.3 Z M 25.2 19.8 C 26.9 19.9 24.0 20.3 25.2 19.8 C 25.2 19.8 25.2 19.8 25.2 19.8 Z M 47.4 24.6 C 50.2 24.3 45.6 25.8 47.4 24.6 C 47.4 24.6 47.4 24.6 47.4 24.6 Z M 57.9 22.1 C 58.0 22.1 58.0 22.1 57.9 22.1 C 57.9 22.1 57.9 22.1 57.9 22.1 Z M 59.9 21.1 C 59.9 21.2 59.9 21.2 59.9 21.1 C 59.9 21.1 59.9 21.1 59.9 21.1 Z M 68.0 23.4 C 68.2 23.5 68.2 23.5 68.0 23.4 C 68.0 23.4 68.0 23.4 68.0 23.4 Z M 61.7 20.1 C 61.7 20.1 61.7 20.1 61.7 20.1 C 61.7 20.1 61.7 20.1 61.7 20.1 Z M 67.3 20.7 C 67.4 20.7 67.4 20.7 67.3 20.7 C 67.3 20.7 67.3 20.7 67.3 20.7 Z M 66.5 18.7 C 66.6 18.8 66.6 18.8 66.5 18.7 C 66.5 18.7 66.5 18.7 66.5 18.7 Z M 53.9 28.4 C 54.1 28.5 54.1 28.5 53.9 28.4 C 53.9 28.4 53.9 28.4 53.9 28.4 Z M 33.3 19.3 C 33.4 19.5 33.4 19.5 33.3 19.3 C 33.3 19.3 33.3 19.3 33.3 19.3 Z M 66.9 21.5 C 66.9 21.6 66.9 21.6 66.9 21.5 C 66.9 21.5 66.9 21.5 66.9 21.5 Z M 53.0 23.3 C 53.1 25.2 51.9 20.8 53.4 23.2 C 53.3 23.3 52.9 23.0 53.0 23.3 M 54.9 26.4 C 54.8 26.4 54.8 26.4 54.9 26.4 C 54.9 26.4 54.9 26.4 54.9 26.4 Z M 48.6 27.5 C 48.5 27.6 48.5 27.6 48.6 27.5 C 48.6 27.5 48.6 27.5 48.6 27.5 Z M 60.7 19.7 C 60.4 18.7 62.2 20.5 60.4 19.8 M 68.1 26.7 C 67.9 25.7 69.7 27.5 67.9 26.8 M 23.2 20.5 C 22.9 21.4 22.0 20.1 23.2 20.5 M 47.2 28.5 C 47.0 29.4 46.0 28.1 47.2 28.5 M 50.2 26.1 C 49.9 25.1 51.7 27.0 49.9 26.2 M 63.8 26.6 C 63.9 26.6 63.9 26.6 63.8 26.6 C 63.8 26.6 63.8 26.6 63.8 26.6 Z M 43.1 20.5 C 43.2 20.6 43.2 20.6 43.1 20.5 C 43.1 20.5 43.1 20.5 43.1 20.5 Z M 50.7 22.8 C 49.7 21.3 52.1 23.7 50.7 22.8 M 40.9 23.0 C 39.4 21.2 43.3 23.6 40.9 23.0 M 71.4 27.1 C 69.7 25.0 72.6 28.3 71.4 27.1 M 63.0 21.7 C 61.3 19.6 64.2 22.9 63.0 21.7 M 44.6 21.4 C 44.5 20.3 46.3 22.1 44.6 21.4 M 27.1 20.3 C 25.5 20.1 29.3 19.5 27.1 20.3 M 59.7 26.7 C 59.7 26.8 59.7 26.8 59.7 26.7 C 59.7 26.7 59.7 26.7 59.7 26.7 Z M 32.4 28.6 C 32.5 28.7 32.5 28.7 32.4 28.6 C 32.4 28.6 32.4 28.6 32.4 28.6 Z M 73.5 20.1 C 73.6 20.1 73.6 20.1 73.5 20.1 C 73.5 20.1 73.5 20.1 73.5 20.1 Z M 61.9 22.7 C 62.0 22.9 62.0 22.9 61.9 22.7 C 61.9 22.7 61.9 22.7 61.9 22.7 Z M 70.3 19.8 C 70.4 19.9 70.4 19.9 70.3 19.8 C 70.3 19.8 70.3 19.8 70.3 19.8 Z M 56.6 24.4 C 56.7 24.5 56.7 24.5 56.6 24.4 C 56.6 24.4 56.6 24.4 56.6 24.4 Z M 55.5 18.9 C 55.6 19.0 55.6 19.0 55.5 18.9 C 55.5 18.9 55.5 18.9 55.5 18.9 Z M 49.8 21.3 C 49.8 21.3 49.8 21.3 49.8 21.3 C 49.8 21.3 49.8 21.3 49.8 21.3 Z M 58.2 19.3 C 61.7 19.0 56.4 21.2 58.2 19.3 C 58.2 19.3 58.2 19.3 58.2 19.3 Z M 52.2 24.8 C 52.2 24.9 52.2 24.9 52.2 24.8 C 52.2 24.8 52.2 24.8 52.2 24.8 Z M 51.7 21.0 C 53.9 19.4 52.9 23.6 51.7 21.0 M 42.1 19.7 C 42.7 18.8 42.4 21.0 42.1 19.7 M 38.2 26.9 C 38.2 27.0 38.2 27.0 38.2 26.9 C 38.2 26.9 38.2 26.9 38.2 26.9 Z M 39.2 26.3 C 39.4 26.4 39.4 26.4 39.2 26.3 C 39.2 26.3 39.2 26.3 39.2 26.3 Z M 39.7 19.3 C 39.8 19.4 39.8 19.4 39.7 19.3 C 39.7 19.3 39.7 19.3 39.7 19.3 Z M 39.4 28.4 C 39.5 28.4 39.5 28.4 39.4 28.4 C 39.4 28.4 39.4 28.4 39.4 28.4 Z M 54.2 19.1 C 54.3 19.1 54.3 19.1 54.2 19.1 C 54.2 19.1 54.2 19.1 54.2 19.1 Z M 72.0 19.0 C 72.0 19.0 72.0 19.0 72.0 19.0 C 72.0 19.0 72.0 19.0 72.0 19.0 Z M 27.6 26.1 C 27.8 26.2 27.8 26.2 27.6 26.1 C 27.6 26.1 27.6 26.1 27.6 26.1 Z M 56.1 21.2 C 56.1 21.3 56.1 21.3 56.1 21.2 C 56.1 21.2 56.1 21.2 56.1 21.2 Z M 35.7 26.6 C 35.8 26.6 35.8 26.6 35.7 26.6 C 35.7 26.6 35.7 26.6 35.7 26.6 Z M 54.9 20.8 C 55.0 20.8 55.0 20.8 54.9 20.8 C 54.9 20.8 54.9 20.8 54.9 20.8 Z M 59.1 27.2 C 59.2 27.2 59.2 27.2 59.1 27.2 C 59.1 27.2 59.1 27.2 59.1 27.2 Z M 62.9 28.4 C 63.0 28.4 63.0 28.4 62.9 28.4 C 62.9 28.4 62.9 28.4 62.9 28.4 Z M 58.8 23.3 C 58.9 23.4 58.9 23.4 58.8 23.3 C 58.8 23.3 58.8 23.3 58.8 23.3 Z M 34.5 24.2 C 27.5 22.3 40.0 23.3 34.5 24.2 M 60.0 23.8 C 55.1 23.3 63.9 21.6 60.0 23.8 C 60.5 23.2 60.1 23.7 60.0 23.8 M 75.3 19.2 C 73.3 21.2 73.3 23.1 74.1 25.2 C 75.1 26.3 75.1 22.2 75.1 25.6 C 72.8 26.3 76.1 30.8 76.1 26.4 C 79.1 25.7 76.6 29.2 78.4 27.4 C 81.6 27.0 79.9 28.3 82.4 28.0 C 83.9 25.6 83.9 29.2 84.5 26.9 C 83.3 29.4 87.1 26.2 87.2 27.4 C 85.0 28.9 95.8 27.4 89.9 26.7 C 92.3 25.5 91.9 27.6 92.7 27.9 C 93.7 26.4 96.6 29.0 98.1 27.6 C 97.8 27.3 97.1 27.2 96.9 26.7 C 96.4 25.7 98.5 26.9 98.3 26.8 C 99.3 26.3 103.2 24.8 99.0 27.4 C 98.8 28.6 102.4 26.8 102.3 27.9 C 105.9 28.0 103.2 25.5 104.8 27.3 C 107.4 27.4 109.2 27.4 109.2 27.1 C 110.8 27.3 111.1 28.7 112.5 27.4 C 115.6 30.0 114.7 22.3 115.9 27.5 C 116.8 26.3 117.7 29.6 117.5 26.4 C 116.4 27.9 122.9 28.9 120.1 26.6 C 120.9 25.8 124.9 29.9 124.3 26.6 C 125.8 24.3 125.5 21.9 122.4 19.7 C 122.7 21.5 119.0 17.8 121.4 20.9 C 124.1 22.0 116.4 22.0 118.0 20.9 C 118.4 17.1 114.3 23.3 112.7 20.6 C 114.0 22.0 107.8 22.8 109.6 20.0 C 108.4 19.8 108.1 21.1 106.9 19.5 C 110.6 19.7 105.4 22.4 105.7 20.7 C 106.3 19.6 100.7 18.8 101.3 20.4 C 103.2 24.3 99.8 19.6 98.9 21.1 C 95.8 21.9 99.4 17.8 97.1 20.6 C 96.5 20.1 92.4 20.1 94.9 19.3 C 95.9 19.7 92.5 23.6 92.1 20.3 C 96.5 18.4 87.0 19.3 88.5 20.3 C 95.3 22.1 81.4 22.3 86.6 20.5 C 83.6 18.7 87.5 19.8 83.8 20.6 C 84.3 21.6 81.4 22.6 82.1 20.5 C 81.5 17.4 81.1 24.7 78.8 20.4 C 78.5 18.6 74.3 21.8 75.9 19.7 C 76.0 19.5 75.4 19.2 75.3 19.2 M 76.6 19.5 C 76.1 20.2 75.8 18.7 76.6 19.5 M 76.1 20.2 C 76.0 20.2 76.0 20.2 76.1 20.2 C 76.1 20.2 76.1 20.2 76.1 20.2 Z M 83.3 20.7 C 83.2 20.6 83.2 20.6 83.3 20.7 C 83.3 20.7 83.3 20.7 83.3 20.7 Z M 89.0 28.6 C 88.9 28.5 88.9 28.5 89.0 28.6 C 89.0 28.6 89.0 28.6 89.0 28.6 Z M 88.1 20.9 C 88.0 20.9 88.0 20.9 88.1 20.9 C 88.1 20.9 88.1 20.9 88.1 20.9 Z M 80.7 21.2 C 80.6 21.2 80.6 21.2 80.7 21.2 C 80.7 21.2 80.7 21.2 80.7 21.2 Z M 87.6 19.7 C 88.0 20.9 85.9 18.9 87.7 19.5 C 87.8 19.6 87.4 19.6 87.6 19.7 M 93.9 19.3 C 93.9 19.4 93.9 19.4 93.9 19.3 M 107.7 28.5 C 107.7 28.7 107.7 28.7 107.7 28.5 M 108.8 19.2 C 109.0 19.3 109.0 19.3 108.8 19.2 M 100.1 20.5 C 102.0 20.3 100.6 21.1 100.1 20.5 M 113.9 19.8 C 111.5 19.1 116.4 19.2 113.9 19.8 M 116.2 19.1 C 116.4 19.3 116.4 19.3 116.2 19.1 M 105.3 19.6 C 105.3 19.7 105.3 19.7 105.3 19.6 C 105.3 19.6 105.3 19.6 105.3 19.6 Z M 99.3 20.0 C 96.8 19.3 101.8 18.9 99.3 20.0 M 84.1 19.6 C 85.5 19.0 84.1 21.1 84.1 19.6 M 81.3 20.2 C 81.2 20.3 81.2 20.3 81.3 20.2 C 81.3 20.2 81.3 20.2 81.3 20.2 Z M 110.0 19.8 C 109.9 19.8 109.9 19.8 110.0 19.8 C 110.0 19.8 110.0 19.8 110.0 19.8 Z M 112.8 19.6 C 112.7 19.6 112.7 19.6 112.8 19.6 C 112.8 19.6 112.8 19.6 112.8 19.6 Z M 117.4 28.2 C 117.3 28.3 117.3 28.3 117.4 28.2 C 117.4 28.2 117.4 28.2 117.4 28.2 Z M 83.4 23.9 C 81.5 23.2 85.3 21.0 84.9 23.1 C 85.1 24.0 83.6 23.6 83.4 23.9 M 97.5 22.6 C 98.0 25.6 95.6 18.6 97.5 22.6 M 116.6 21.1 C 118.4 24.6 114.2 18.6 116.6 21.1 M 120.3 20.5 C 121.5 21.2 113.3 20.9 119.0 19.9 C 119.6 19.4 120.0 20.1 120.3 20.5 M 94.0 20.7 C 94.5 22.3 91.0 20.0 94.0 20.7 M 105.5 25.6 C 106.4 24.6 108.8 23.6 107.7 25.4 C 107.7 27.7 104.4 26.5 105.5 25.6 M 77.2 21.2 C 78.7 18.6 77.1 23.4 77.2 21.2 M 84.5 21.4 C 84.5 21.3 84.5 21.3 84.5 21.4 C 84.5 21.4 84.5 21.4 84.5 21.4 Z M 87.3 21.0 C 87.5 21.2 87.5 21.2 87.3 21.0 M 78.3 18.9 C 78.5 19.1 78.5 19.1 78.3 18.9 M 105.4 22.9 C 105.6 23.1 105.6 23.1 105.4 22.9 M 99.6 21.1 C 102.4 23.7 98.1 21.7 99.6 21.1 M 92.7 26.1 C 93.6 27.4 90.9 26.2 92.7 26.1 M 104.2 20.2 C 106.2 22.6 101.4 22.5 104.2 20.2 M 98.2 20.9 C 98.3 20.9 98.3 20.9 98.2 20.9 C 98.2 20.9 98.2 20.9 98.2 20.9 Z M 106.2 25.9 C 106.2 25.9 106.2 25.9 106.2 25.9 C 106.2 25.9 106.2 25.9 106.2 25.9 Z M 107.1 25.7 C 107.0 25.8 107.0 25.8 107.1 25.7 C 107.1 25.7 107.1 25.7 107.1 25.7 Z M 106.6 19.9 C 106.5 19.9 106.5 19.9 106.6 19.9 C 106.6 19.9 106.6 19.9 106.6 19.9 Z M 81.1 27.0 C 83.1 27.2 79.5 27.4 81.1 27.0 C 81.1 27.0 81.1 27.0 81.1 27.0 Z M 89.9 19.8 C 93.2 21.7 87.6 21.6 89.9 19.8 C 89.9 19.8 89.9 19.8 89.9 19.8 Z M 93.6 23.0 C 93.6 23.1 93.6 23.1 93.6 23.0 C 93.6 23.0 93.6 23.0 93.6 23.0 Z M 102.9 18.6 C 102.9 18.8 102.9 18.8 102.9 18.6 C 102.9 18.6 102.9 18.6 102.9 18.6 Z M 82.1 27.3 C 82.1 27.5 82.1 27.5 82.1 27.3 C 82.1 27.3 82.1 27.3 82.1 27.3 Z M 112.3 21.2 C 112.3 21.3 112.3 21.3 112.3 21.2 C 112.3 21.2 112.3 21.2 112.3 21.2 Z M 100.8 26.3 C 101.6 25.3 101.0 27.0 100.8 26.3 C 100.8 26.3 100.8 26.3 100.8 26.3 Z M 103.8 26.3 C 103.9 26.3 103.9 26.3 103.8 26.3 C 103.8 26.3 103.8 26.3 103.8 26.3 Z M 117.0 19.0 C 117.0 18.9 117.0 18.9 117.0 19.0 C 117.0 19.0 117.0 19.0 117.0 19.0 Z M 111.4 28.6 C 111.5 28.6 111.5 28.6 111.4 28.6 C 111.4 28.6 111.4 28.6 111.4 28.6 Z M 113.9 25.7 C 113.8 25.7 113.8 25.7 113.9 25.7 C 113.9 25.7 113.9 25.7 113.9 25.7 Z M 106.1 20.5 C 109.1 20.0 105.4 21.6 106.1 20.5 C 106.1 20.5 106.1 20.5 106.1 20.5 Z M 121.2 24.9 C 121.3 25.1 121.3 25.1 121.2 24.9 C 121.2 24.9 121.2 24.9 121.2 24.9 Z M 122.7 21.5 C 122.8 21.7 122.8 21.7 122.7 21.5 C 122.7 21.5 122.7 21.5 122.7 21.5 Z M 123.5 19.8 C 123.6 19.9 123.6 19.9 123.5 19.8 C 123.5 19.8 123.5 19.8 123.5 19.8 Z M 87.3 24.6 C 87.2 24.5 87.2 24.5 87.3 24.6 C 87.3 24.6 87.3 24.6 87.3 24.6 Z M 86.1 19.2 C 86.1 19.1 86.1 19.1 86.1 19.2 C 86.1 19.2 86.1 19.2 86.1 19.2 Z M 90.1 18.9 C 90.1 18.9 90.1 18.9 90.1 18.9 C 90.1 18.9 90.1 18.9 90.1 18.9 Z M 86.6 27.9 C 86.5 27.9 86.5 27.9 86.6 27.9 C 86.6 27.9 86.6 27.9 86.6 27.9 Z M 101.7 23.3 C 101.6 23.2 101.6 23.2 101.7 23.3 C 101.7 23.3 101.7 23.3 101.7 23.3 Z M 103.1 25.5 C 103.0 25.4 103.0 25.4 103.1 25.5 C 103.1 25.5 103.1 25.5 103.1 25.5 Z M 99.6 28.4 C 99.6 28.4 99.6 28.4 99.6 28.4 C 99.6 28.4 99.6 28.4 99.6 28.4 Z M 104.2 27.4 C 104.1 27.4 104.1 27.4 104.2 27.4 C 104.2 27.4 104.2 27.4 104.2 27.4 Z M 76.5 26.9 C 76.4 27.0 76.4 27.0 76.5 26.9 C 76.5 26.9 76.5 26.9 76.5 26.9 Z M 76.1 22.7 C 76.1 22.9 76.1 22.9 76.1 22.7 C 76.1 22.7 76.1 22.7 76.1 22.7 Z M 102.1 20.2 C 102.8 19.4 103.5 21.4 102.1 20.2 M 96.4 20.8 C 96.3 20.9 96.3 20.9 96.4 20.8 C 96.4 20.8 96.4 20.8 96.4 20.8 Z M 111.8 20.4 C 112.5 22.1 109.1 19.6 111.8 20.4 C 111.8 20.4 111.8 20.4 111.8 20.4 Z M 108.7 27.4 C 108.8 27.4 108.8 27.4 108.7 27.4 C 108.7 27.4 108.7 27.4 108.7 27.4 Z M 110.2 26.7 C 110.3 26.9 110.3 26.9 110.2 26.7 C 110.2 26.7 110.2 26.7 110.2 26.7 Z M 118.6 22.2 C 118.7 22.3 118.7 22.3 118.6 22.2 M 95.6 19.3 C 96.5 20.0 96.3 19.9 95.6 19.3 M 113.7 20.5 C 113.6 20.5 113.6 20.5 113.7 20.5 C 113.7 20.5 113.7 20.5 113.7 20.5 Z M 120.4 21.2 C 120.3 21.3 120.3 21.3 120.4 21.2 C 120.4 21.2 120.4 21.2 120.4 21.2 Z M 91.5 20.4 C 91.7 22.4 90.9 22.0 91.5 20.4 M 80.1 21.1 C 80.1 21.2 80.1 21.2 80.1 21.1 C 80.1 21.1 80.1 21.1 80.1 21.1 Z M 129.5 19.8 C 126.4 17.6 126.4 20.7 126.4 20.8 C 126.7 16.6 123.6 22.5 124.2 23.3 C 124.1 23.9 126.5 31.3 128.7 26.8 C 129.3 26.2 129.7 27.6 130.1 27.7 C 133.9 27.5 127.5 25.4 132.1 25.3 C 132.9 26.0 132.0 29.5 134.7 27.0 C 134.8 27.4 138.0 28.7 136.8 27.1 C 138.3 28.7 139.2 26.7 140.6 26.4 C 141.9 27.3 139.6 28.9 144.0 27.0 C 146.0 29.9 146.7 24.8 148.4 28.0 C 149.5 28.1 151.2 22.8 148.6 25.8 C 149.0 25.5 147.4 23.0 150.9 23.9 C 150.4 24.5 148.4 29.9 154.0 27.4 C 154.9 27.5 157.0 26.1 157.5 26.7 C 154.7 27.3 161.4 29.0 160.8 27.4 C 165.2 28.5 162.6 26.1 165.9 27.9 C 168.5 28.0 165.0 25.5 168.3 26.9 C 170.7 26.6 169.1 28.0 168.8 27.9 C 170.9 28.1 171.7 27.2 172.5 27.2 C 172.9 27.5 173.9 28.6 174.4 27.3 C 176.7 24.8 174.6 22.4 175.6 20.0 C 174.0 18.8 174.9 21.8 173.8 20.0 C 172.9 21.5 173.6 19.8 169.1 20.2 C 169.2 20.6 170.3 21.6 169.2 21.8 C 167.5 21.6 168.7 17.4 165.8 20.4 C 169.3 21.3 161.0 21.7 164.2 22.6 C 160.3 23.1 163.1 22.2 160.2 21.2 C 160.4 24.0 160.0 18.3 158.9 20.5 C 158.6 19.3 154.1 19.9 157.4 21.5 C 152.7 22.3 155.6 20.7 154.0 19.2 C 151.8 19.0 153.8 23.8 152.5 20.3 C 149.7 18.8 152.3 22.0 150.3 19.4 C 151.2 21.7 148.2 19.3 149.0 21.9 C 144.2 22.1 149.6 19.2 146.2 21.0 C 147.3 21.1 146.9 17.6 144.8 19.8 C 145.7 23.9 142.1 16.2 143.6 21.7 C 136.9 23.2 142.5 19.4 138.8 19.4 C 137.8 19.4 139.8 21.2 139.0 21.2 C 134.2 20.4 138.1 19.0 135.7 21.7 C 131.0 22.3 134.3 19.4 132.0 19.2 C 131.8 20.5 129.9 22.6 129.5 19.8 M 133.7 21.1 C 134.7 20.3 134.3 22.0 133.7 21.1 M 124.3 19.8 C 125.2 19.0 124.9 20.7 124.3 19.8 M 137.6 20.3 C 138.9 19.4 138.0 21.7 137.6 20.3 M 162.8 21.6 C 161.1 21.6 163.6 20.9 162.8 21.6 M 128.0 19.7 C 129.4 18.6 128.4 21.1 128.0 19.7 M 126.3 21.8 C 126.4 21.8 126.4 21.8 126.3 21.8 M 165.3 19.4 C 165.4 19.5 165.4 19.5 165.3 19.4 M 158.6 19.4 C 160.0 19.4 157.8 19.9 158.6 19.4 M 158.3 28.3 C 159.8 28.4 157.5 28.9 158.3 28.3 M 169.0 19.3 C 170.5 18.6 169.5 20.3 169.0 19.3 M 172.8 21.3 C 174.1 20.5 173.7 22.2 172.8 21.3 M 132.8 24.2 C 132.8 24.3 132.8 24.3 132.8 24.2 C 132.8 24.2 132.8 24.2 132.8 24.2 Z M 145.3 26.4 C 143.8 25.6 147.1 27.5 145.3 26.4 M 143.0 20.6 C 144.0 22.4 141.0 20.5 143.0 20.6 C 143.0 20.6 143.0 20.6 143.0 20.6 Z M 140.8 21.4 C 140.8 21.5 140.8 21.5 140.8 21.4 C 140.8 21.4 140.8 21.4 140.8 21.4 Z M 147.8 21.5 C 147.7 21.5 147.7 21.5 147.8 21.5 C 147.8 21.5 147.8 21.5 147.8 21.5 Z M 146.4 21.7 C 145.8 22.1 145.5 21.3 146.4 21.7 C 146.4 21.7 146.4 21.7 146.4 21.7 Z M 156.6 27.4 C 156.0 27.8 155.8 27.1 156.6 27.4 C 156.6 27.4 156.6 27.4 156.6 27.4 Z M 144.2 22.3 C 144.0 24.1 143.2 21.1 144.2 22.3 C 144.2 22.3 144.2 22.3 144.2 22.3 Z M 151.7 26.6 C 152.3 26.1 153.0 28.3 151.7 26.6 M 166.8 19.7 C 167.4 19.3 168.1 21.5 166.8 19.7 M 151.9 19.2 C 152.6 18.7 153.2 21.0 151.9 19.2 M 134.5 20.3 C 134.6 20.5 134.6 20.5 134.5 20.3 M 142.7 28.2 C 143.7 27.5 143.2 29.0 142.7 28.2 M 128.8 27.6 C 129.7 26.9 129.2 28.4 128.8 27.6 M 164.7 28.2 C 164.6 27.7 166.2 28.4 164.7 28.2 M 153.7 22.1 C 155.0 22.4 156.3 23.4 153.6 23.2 C 153.4 22.8 154.2 22.5 153.7 22.1 C 153.7 22.1 153.7 22.1 153.7 22.1 Z M 158.3 26.3 C 158.5 26.5 158.5 26.5 158.3 26.3 M 156.0 20.5 C 156.2 20.6 156.2 20.6 156.0 20.5 M 163.6 20.6 C 163.7 20.9 163.7 20.9 163.6 20.6 M 164.5 20.1 C 164.5 20.2 164.5 20.2 164.5 20.1 C 164.5 20.1 164.5 20.1 164.5 20.1 Z M 172.9 19.4 C 172.8 19.5 172.8 19.5 172.9 19.4 C 172.9 19.4 172.9 19.4 172.9 19.4 Z M 161.1 20.9 C 161.1 20.9 161.1 20.9 161.1 20.9 C 161.1 20.9 161.1 20.9 161.1 20.9 Z M 168.0 27.8 C 168.0 27.9 168.0 27.9 168.0 27.8 C 168.0 27.8 168.0 27.8 168.0 27.8 Z M 167.2 26.7 C 167.2 26.8 167.2 26.8 167.2 26.7 C 167.2 26.7 167.2 26.7 167.2 26.7 Z M 130.2 19.8 C 131.3 18.5 130.8 23.0 130.2 19.8 M 170.9 26.7 C 171.9 28.0 168.9 27.0 170.9 26.7 C 170.9 26.7 170.9 26.7 170.9 26.7 Z M 160.2 22.4 C 160.4 22.6 160.4 22.6 160.2 22.4 M 165.0 20.3 C 165.1 20.5 165.1 20.5 165.0 20.3 M 142.9 18.9 C 143.0 19.2 143.0 19.2 142.9 18.9 M 170.8 20.6 C 174.4 21.1 169.2 23.2 170.8 20.6 M 141.3 20.7 C 141.2 20.5 141.2 20.5 141.3 20.7 M 149.3 24.0 C 151.6 23.9 148.4 25.1 149.3 24.0 M 155.3 21.7 C 155.2 21.8 155.2 21.8 155.3 21.7 C 155.3 21.7 155.3 21.7 155.3 21.7 Z M 151.8 21.7 C 150.0 22.0 151.3 21.2 151.8 21.7 C 151.8 21.7 151.8 21.7 151.8 21.7 Z M 131.8 21.5 C 134.1 21.7 129.6 22.1 131.8 21.5 C 131.8 21.5 131.8 21.5 131.8 21.5 Z M 169.2 24.9 C 169.1 25.0 169.1 25.0 169.2 24.9 C 169.2 24.9 169.2 24.9 169.2 24.9 Z M 160.7 19.6 C 159.7 20.1 160.2 19.1 160.7 19.6 C 160.7 19.6 160.7 19.6 160.7 19.6 Z M 174.1 19.4 C 173.0 19.8 173.6 18.8 174.1 19.4 C 174.1 19.4 174.1 19.4 174.1 19.4 Z M 129.2 21.2 C 137.4 24.2 118.2 20.4 129.2 21.2 C 129.2 21.2 129.2 21.2 129.2 21.2 Z M 153.2 20.5 C 153.1 20.6 153.1 20.6 153.2 20.5 C 153.2 20.5 153.2 20.5 153.2 20.5 Z M 138.0 19.3 C 138.0 19.4 138.0 19.4 138.0 19.3 C 138.0 19.3 138.0 19.3 138.0 19.3 Z M 135.4 20.9 C 135.4 21.0 135.4 21.0 135.4 20.9 C 135.4 20.9 135.4 20.9 135.4 20.9 Z M 136.2 28.0 C 136.1 28.1 136.1 28.1 136.2 28.0 C 136.2 28.0 136.2 28.0 136.2 28.0 Z M 137.1 24.8 C 136.9 25.0 136.9 25.0 137.1 24.8 C 137.1 24.8 137.1 24.8 137.1 24.8 Z M 131.8 26.0 C 131.7 26.1 131.7 26.1 131.8 26.0 C 131.8 26.0 131.8 26.0 131.8 26.0 Z M 131.9 26.9 C 131.8 27.0 131.8 27.0 131.9 26.9 C 131.9 26.9 131.9 26.9 131.9 26.9 Z M 165.0 22.3 C 164.9 22.4 164.9 22.4 165.0 22.3 C 165.0 22.3 165.0 22.3 165.0 22.3 Z M 162.2 25.3 C 164.1 24.2 161.6 26.8 162.2 25.3 C 162.2 25.3 162.2 25.3 162.2 25.3 Z M 145.2 23.8 C 147.0 23.4 144.1 24.7 145.2 23.8 C 145.2 23.8 145.2 23.8 145.2 23.8 Z M 147.1 27.7 C 147.2 27.7 147.2 27.7 147.1 27.7 C 147.1 27.7 147.1 27.7 147.1 27.7 Z M 135.5 19.2 C 135.4 19.4 135.4 19.4 135.5 19.2 C 135.5 19.2 135.5 19.2 135.5 19.2 Z M 132.2 20.4 C 132.1 21.9 131.2 19.7 132.2 20.4 M 148.5 19.5 C 148.5 19.7 148.5 19.7 148.5 19.5 C 148.5 19.5 148.5 19.5 148.5 19.5 Z M 158.8 21.9 C 158.8 22.0 158.8 22.0 158.8 21.9 C 158.8 21.9 158.8 21.9 158.8 21.9 Z M 169.0 20.9 C 168.9 21.1 168.9 21.1 169.0 20.9 C 169.0 20.9 169.0 20.9 169.0 20.9 Z M 154.9 19.7 C 154.8 19.9 154.8 19.9 154.9 19.7 C 154.9 19.7 154.9 19.7 154.9 19.7 Z M 150.0 21.1 C 150.0 21.3 150.0 21.3 150.0 21.1 C 150.0 21.1 150.0 21.1 150.0 21.1 Z M 171.2 23.0 C 171.2 23.1 171.2 23.1 171.2 23.0 C 171.2 23.0 171.2 23.0 171.2 23.0 Z M 156.0 19.5 C 156.0 19.6 156.0 19.6 156.0 19.5 C 156.0 19.5 156.0 19.5 156.0 19.5 Z M 159.0 24.3 C 158.9 24.4 158.9 24.4 159.0 24.3 C 159.0 24.3 159.0 24.3 159.0 24.3 Z M 132.7 18.3 C 132.7 18.4 132.7 18.4 132.7 18.3 C 132.7 18.3 132.7 18.3 132.7 18.3 Z M 171.3 21.0 C 171.3 21.1 171.3 21.1 171.3 21.0 C 171.3 21.0 171.3 21.0 171.3 21.0 Z M 172.0 19.7 C 171.9 19.8 171.9 19.8 172.0 19.7 C 172.0 19.7 172.0 19.7 172.0 19.7 Z M 164.7 26.8 C 161.1 26.0 168.0 26.5 165.3 24.9 C 170.5 24.5 165.5 26.9 164.7 26.8 C 164.7 26.8 164.7 26.8 164.7 26.8 Z M 164.7 26.8 " fill="#5E416F"></path><path d="M 189.7 45.0 C 189.5 45.8 187.1 46.7 188.8 45.0 C 188.9 44.9 189.8 44.6 189.7 45.0 Z M 193.6 42.7 C 193.3 42.9 193.0 43.0 192.7 42.9 C 191.9 42.5 194.6 42.1 193.6 42.7 Z M 187.5 45.3 C 187.4 45.4 186.2 46.2 186.3 45.8 C 186.4 45.5 187.5 45.2 187.5 45.3 Z M 196.2 39.2 C 196.3 39.5 195.0 40.2 194.7 40.2 C 193.8 40.2 195.8 38.4 196.2 39.2 Z M 185.7 32.7 C 185.6 32.6 185.6 32.5 185.6 32.4 C 185.7 32.5 185.7 32.6 185.7 32.7 Z M 214.5 29.4 C 214.3 29.5 213.6 29.5 213.6 29.2 C 213.5 28.7 215.2 28.8 214.5 29.4 Z M 184.9 7.4 C 184.9 7.4 184.6 8.0 184.4 7.8 C 184.2 7.5 184.7 7.2 184.9 7.4 Z M 184.5 7.4 C 184.1 7.6 184.0 7.0 184.3 7.1 C 184.6 7.2 184.8 7.3 184.5 7.4 Z M 204.9 12.8 C 205.1 12.9 205.2 12.9 205.0 12.9 C 204.8 13.0 204.6 12.7 204.9 12.8 Z M 204.1 12.9 C 203.8 13.1 203.7 12.4 204.0 12.5 C 204.4 12.6 204.5 12.7 204.1 12.9 Z M 201.3 8.9 C 201.5 9.0 201.6 9.0 201.4 9.0 C 201.2 9.1 201.0 8.8 201.3 8.9 Z M 183.8 17.8 C 183.7 17.7 183.9 16.9 184.2 16.9 C 184.6 17.0 184.1 18.1 183.8 17.8 Z M 183.6 16.8 C 183.4 16.9 183.3 16.3 183.6 16.5 C 183.8 16.6 183.9 16.7 183.6 16.8 Z M 184.3 20.0 C 184.7 20.0 184.7 20.9 184.6 21.1 C 184.5 21.3 184.4 21.7 184.2 22.0 C 184.2 22.1 183.7 20.0 184.3 20.0 Z M 184.7 26.8 C 184.5 26.8 184.4 26.7 184.6 26.4 C 184.7 26.1 184.8 26.8 184.7 26.8 Z M 184.4 22.9 C 184.3 22.9 184.2 22.8 184.3 22.5 C 184.5 22.3 184.6 22.9 184.4 22.9 Z M 203.8 35.7 C 204.1 35.8 203.0 36.2 202.9 36.2 C 202.8 36.2 203.1 36.0 202.9 36.0 C 202.5 36.1 202.7 35.0 203.8 35.7 Z M 195.7 41.3 C 195.4 41.4 195.3 41.3 195.3 41.1 C 195.3 41.1 196.2 40.9 195.7 41.3 Z M 201.9 35.3 C 201.9 35.4 201.7 35.5 201.6 35.4 C 201.6 35.3 201.8 35.2 201.9 35.3 Z M 202.4 34.7 C 202.2 34.9 201.6 34.9 201.5 34.5 C 201.5 34.1 203.1 34.1 202.4 34.7 Z M 205.2 35.3 C 204.9 35.5 204.9 35.5 205.0 35.3 C 205.1 35.1 205.2 35.3 205.2 35.3 Z M 200.6 38.7 C 200.2 38.9 200.2 38.9 200.4 38.7 C 200.5 38.5 200.6 38.7 200.6 38.7 Z M 207.2 33.4 C 207.2 33.4 206.7 34.1 206.3 33.7 C 205.6 33.0 207.1 33.4 207.2 33.4 Z M 210.1 30.6 C 209.9 30.7 209.9 30.4 210.1 30.3 C 210.4 30.3 210.4 30.5 210.1 30.6 Z M 210.7 28.7 C 211.2 28.6 211.7 28.7 211.0 29.0 C 210.4 29.3 210.2 28.7 210.7 28.7 Z M 210.2 29.3 C 210.2 29.2 210.4 29.1 210.5 29.2 C 210.6 29.3 210.3 29.4 210.2 29.3 Z M 207.8 31.9 C 207.6 32.3 207.1 32.1 207.5 31.7 C 207.9 31.4 208.0 31.5 207.8 31.9 Z M 183.9 36.2 C 184.0 36.4 183.6 36.4 183.5 36.2 C 183.3 36.0 183.8 35.9 183.9 36.2 Z M 185.4 21.6 C 185.2 21.8 185.2 21.6 185.3 21.3 C 185.4 20.9 185.6 21.4 185.4 21.6 Z M 186.2 12.4 C 186.0 12.6 185.9 12.4 186.0 12.0 C 186.2 11.6 186.4 12.2 186.2 12.4 Z M 185.4 25.3 C 185.3 25.4 184.6 24.5 185.2 23.9 C 185.9 23.4 186.0 25.0 185.4 25.3 Z M 192.8 34.4 C 192.9 34.6 192.6 34.5 192.6 34.5 C 192.7 34.2 192.7 34.2 192.8 34.4 Z M 186.5 23.2 C 186.6 23.4 186.2 23.4 186.1 23.2 C 185.9 23.1 186.4 23.0 186.5 23.2 Z M 185.6 14.0 C 185.5 14.4 184.9 14.2 184.7 13.9 C 184.1 13.2 184.8 12.6 185.2 12.1 C 185.5 11.7 185.8 13.8 185.6 14.0 Z M 185.3 38.4 C 185.4 38.2 185.5 38.0 185.5 37.8 C 185.3 37.7 185.4 37.6 185.5 37.4 C 185.4 36.5 184.6 35.9 184.3 35.4 C 183.8 34.0 185.6 33.5 185.7 32.7 C 185.7 32.9 185.7 33.1 185.8 33.2 C 186.4 33.6 186.1 30.3 186.1 30.2 C 185.7 27.4 185.2 30.7 184.3 30.7 C 183.9 30.7 184.9 28.8 185.0 28.7 C 185.4 27.8 184.4 27.7 184.8 27.0 C 185.0 26.6 187.1 25.6 186.8 25.2 C 186.6 25.0 186.8 24.1 186.8 23.8 C 186.8 23.3 186.7 22.4 186.0 22.9 C 185.4 23.3 184.9 23.4 185.4 22.7 C 185.7 22.2 187.0 19.0 185.5 19.1 C 185.4 19.1 184.9 19.8 184.9 19.9 C 184.6 18.9 185.1 16.2 184.5 15.6 C 183.0 14.1 185.3 16.0 185.7 15.3 C 186.4 14.0 186.9 13.4 186.6 11.8 C 186.5 11.4 186.5 9.9 185.7 10.6 C 185.1 11.1 184.7 10.7 184.5 11.7 C 183.8 10.6 185.2 10.0 185.0 9.8 C 184.5 9.5 184.3 10.0 184.3 9.3 C 184.5 8.4 184.2 8.8 185.0 8.6 C 185.2 8.6 185.4 7.7 185.4 7.7 C 185.5 7.8 185.6 7.8 185.6 7.8 C 185.5 7.0 184.1 5.9 184.4 5.6 C 184.7 5.4 185.7 5.9 186.0 5.9 C 186.0 5.8 186.0 5.7 186.1 5.7 C 185.9 5.4 185.3 4.6 185.5 4.5 C 185.6 4.4 187.0 4.9 186.6 4.6 C 186.2 4.2 186.7 2.6 187.1 2.5 C 187.5 2.4 189.4 2.0 189.5 1.7 C 189.6 1.4 190.5 2.0 190.8 2.1 C 191.0 2.2 191.3 3.0 191.3 3.1 C 191.4 3.3 192.1 3.5 192.1 3.5 C 192.1 3.5 192.5 3.5 193.0 3.8 C 193.6 4.1 193.8 4.7 194.4 5.3 C 194.9 5.9 195.4 5.6 196.1 5.9 C 196.8 6.2 196.7 7.6 197.2 8.0 C 197.7 8.5 198.1 7.7 198.9 8.0 C 199.6 8.3 199.9 8.8 199.6 8.8 C 199.3 8.8 199.3 9.1 199.5 9.2 C 199.7 9.4 200.4 10.1 200.8 10.1 C 201.1 10.1 199.5 8.2 202.0 9.9 C 203.3 10.7 203.7 12.1 203.3 11.9 C 202.4 11.4 203.6 13.8 203.8 13.4 C 204.1 13.0 206.2 14.4 206.1 13.4 C 206.1 13.1 208.4 14.1 208.7 14.5 C 208.9 14.8 210.0 15.2 209.9 16.1 C 209.8 16.5 211.6 16.3 211.9 16.5 C 212.2 16.7 213.8 17.8 214.1 18.2 C 214.3 18.6 213.5 18.1 213.1 17.9 C 212.7 17.6 212.4 16.9 212.0 16.8 C 211.7 16.7 212.2 17.5 212.6 17.8 C 213.0 18.1 212.9 18.5 213.2 18.8 C 213.4 18.8 213.6 19.0 214.0 19.3 C 214.2 19.4 214.3 19.4 214.4 19.3 C 214.5 19.0 214.4 18.7 214.5 18.7 C 214.6 18.6 215.0 18.6 215.5 18.9 C 216.1 19.3 216.5 19.6 217.0 20.2 C 217.6 20.9 217.9 20.7 218.4 21.0 C 219.0 21.2 219.3 21.5 219.3 21.7 C 219.2 21.9 218.6 21.6 218.4 21.7 C 218.3 21.8 218.7 22.6 219.0 22.8 C 220.2 23.7 218.5 24.2 219.7 25.1 C 220.4 25.7 219.3 25.6 218.6 25.8 C 218.8 25.9 218.8 26.0 218.2 26.5 C 218.3 26.7 217.4 27.0 217.0 27.3 C 216.8 27.5 215.3 28.8 216.0 27.7 C 216.1 27.6 216.2 27.6 216.2 27.5 C 216.2 27.5 216.2 27.5 216.2 27.5 C 216.2 27.5 216.2 26.6 216.2 26.6 C 216.2 26.6 216.1 27.5 216.1 27.5 C 215.8 27.3 215.5 27.2 215.3 27.1 C 215.2 27.2 215.2 27.3 215.1 27.4 C 215.1 27.5 215.1 27.5 215.1 27.5 C 215.1 27.5 215.1 27.5 215.1 27.6 C 215.3 27.8 215.2 27.8 214.9 27.9 C 214.5 28.6 212.9 28.9 212.2 29.0 C 212.9 26.7 210.4 28.3 209.6 29.0 C 208.8 29.7 209.9 31.4 210.4 31.2 C 209.7 31.6 209.4 31.4 209.0 31.0 C 209.0 31.0 207.7 30.4 207.8 30.4 C 206.0 30.7 207.2 31.9 206.9 32.3 C 206.6 32.7 206.1 33.0 205.8 33.4 C 205.4 33.7 206.0 33.8 205.9 34.1 C 205.8 35.1 204.0 34.4 203.5 34.6 C 203.8 34.2 204.2 33.9 204.4 33.5 C 204.1 34.1 203.3 33.4 203.0 33.5 C 202.5 33.6 201.9 34.0 201.5 34.3 C 200.7 34.9 200.0 35.5 199.3 36.1 C 199.6 36.1 201.4 36.3 201.5 36.3 C 201.2 36.5 200.3 36.7 201.0 37.1 C 202.1 37.9 199.7 38.6 199.3 38.7 C 198.2 39.3 197.7 41.0 195.9 40.5 C 195.9 40.5 197.4 39.2 197.2 39.1 C 196.3 38.4 195.6 38.1 194.6 39.0 C 194.4 39.2 193.3 40.8 193.3 40.9 C 193.3 40.8 196.1 42.0 194.4 42.1 C 194.0 42.1 194.4 41.4 193.9 41.5 C 193.3 41.5 192.7 42.1 192.1 42.4 C 192.0 42.4 191.0 42.6 191.0 42.7 C 191.0 43.1 191.2 43.6 191.0 43.9 C 190.8 44.2 190.2 44.2 190.0 43.9 C 190.0 43.9 190.0 43.8 190.0 43.8 C 189.9 43.8 189.8 43.8 189.6 43.6 C 189.6 43.7 189.3 43.8 189.0 43.7 C 188.9 43.7 189.2 43.4 189.6 43.4 C 189.5 43.3 189.5 43.2 189.4 43.0 C 189.0 43.3 188.6 43.7 188.6 43.8 C 188.2 44.7 188.4 45.0 186.8 44.8 C 185.5 44.6 184.7 41.6 185.1 39.8 C 185.0 39.4 185.0 39.0 185.3 38.4 Z M 214.5 20.3 C 214.5 20.3 214.5 20.2 214.4 20.2 C 214.4 20.4 214.2 20.5 214.2 20.7 C 214.5 21.0 214.2 20.3 214.6 20.6 C 215.0 21.0 215.0 20.8 214.5 20.3 Z M 214.2 24.4 C 214.6 24.5 214.5 24.4 214.4 24.2 C 214.3 24.3 214.3 24.4 214.2 24.4 Z M 215.1 26.2 C 215.5 25.7 214.3 25.6 213.6 26.2 C 214.4 26.3 214.8 26.3 215.1 26.2 Z M 214.3 27.7 C 214.2 27.6 214.2 27.4 214.2 27.3 C 214.1 27.1 213.8 27.7 213.7 27.4 C 213.7 27.2 214.1 26.7 213.6 26.7 C 213.5 26.8 213.4 26.8 213.3 26.8 C 213.2 26.9 213.2 26.9 213.2 27.0 C 213.1 27.4 213.9 27.8 214.3 27.7 Z M 211.5 20.1 C 211.8 20.1 211.6 19.9 211.5 19.9 C 211.2 19.8 211.2 20.1 211.5 20.1 Z M 209.3 16.8 C 209.5 17.1 209.8 17.2 209.7 16.8 C 209.6 16.5 209.2 16.5 209.3 16.8 Z M 204.8 21.6 C 205.0 21.5 204.9 21.5 204.7 21.4 C 204.4 21.3 204.6 21.7 204.8 21.6 Z M 204.6 25.0 C 204.4 25.2 204.8 25.6 204.9 25.3 C 204.9 25.1 204.7 24.8 204.6 25.0 Z M 205.0 17.2 C 204.7 17.2 204.8 17.5 205.1 17.4 C 205.3 17.4 205.3 17.3 205.0 17.2 Z M 205.8 21.9 C 205.5 21.5 205.4 21.6 205.3 21.7 C 205.1 21.8 205.2 22.1 205.5 22.2 C 205.9 22.3 206.0 22.2 205.8 21.9 Z M 206.0 24.7 C 205.2 25.2 205.4 25.6 206.3 24.8 C 207.2 24.1 206.5 24.4 206.0 24.7 Z M 207.6 14.5 C 207.7 14.6 208.2 14.8 208.2 14.8 C 208.2 14.8 207.1 13.9 207.6 14.5 Z M 205.8 32.5 C 206.0 32.3 206.1 31.9 205.6 32.1 C 205.1 32.3 205.4 32.6 205.8 32.5 Z M 204.0 31.1 C 204.7 31.6 205.3 31.4 205.4 31.4 C 205.3 31.4 205.1 30.8 205.3 30.6 C 205.7 30.0 206.7 30.3 207.0 29.6 C 207.3 28.8 206.1 29.4 205.9 29.6 C 206.0 29.5 206.0 29.3 206.0 29.1 C 205.7 28.9 205.6 29.0 205.4 29.2 C 205.3 29.6 203.3 30.5 204.0 31.1 Z M 204.1 22.9 C 204.5 23.1 204.8 22.8 204.5 22.5 C 204.3 22.1 204.0 21.9 203.8 22.0 C 203.7 22.1 203.8 22.8 204.1 22.9 Z M 203.8 20.4 C 204.2 20.2 204.0 20.1 203.7 20.0 C 203.2 19.8 203.4 20.5 203.8 20.4 Z M 199.1 9.5 C 198.8 9.6 199.3 9.9 199.4 9.8 C 199.5 9.6 199.3 9.5 199.1 9.5 Z M 199.2 13.8 C 198.5 13.7 199.1 14.3 199.2 14.3 C 199.4 14.3 199.6 13.9 199.2 13.8 Z M 201.7 16.3 C 201.4 16.2 201.7 16.7 201.9 16.6 C 202.1 16.5 201.9 16.4 201.7 16.3 Z M 202.0 18.0 C 201.8 17.8 201.8 18.3 202.2 18.3 C 202.4 18.3 202.3 18.1 202.0 18.0 Z M 200.8 31.8 C 200.8 31.8 200.6 31.2 200.3 31.7 C 200.0 32.2 200.0 32.2 200.8 31.8 Z M 201.9 26.9 C 202.3 26.6 202.7 26.2 202.2 24.8 C 201.8 23.4 201.5 24.0 201.3 24.8 C 201.1 25.7 200.5 23.4 200.1 25.0 C 200.0 25.7 201.5 27.2 201.9 26.9 Z M 199.5 18.1 C 200.0 18.9 201.2 18.7 200.5 18.2 C 199.8 17.6 199.1 17.4 199.5 18.1 Z M 199.4 17.5 C 199.6 17.5 199.6 17.4 199.3 17.3 C 199.1 17.2 199.2 17.5 199.4 17.5 Z M 200.1 37.8 C 201.4 36.6 199.3 36.6 199.3 36.6 C 197.5 37.2 198.8 39.0 200.1 37.8 Z M 186.3 8.5 C 186.3 8.6 186.3 8.6 186.3 8.7 C 186.3 8.7 186.3 8.7 186.3 8.8 C 186.5 9.0 186.8 8.4 186.8 8.4 C 186.7 8.3 186.4 8.4 186.3 8.5 Z M 185.9 17.3 C 186.0 17.0 185.9 16.7 185.7 16.5 C 184.9 16.6 184.9 19.3 186.3 18.2 C 186.5 18.1 187.6 16.4 187.0 16.2 C 186.6 16.1 185.9 18.2 185.9 17.3 Z M 187.0 14.6 C 187.0 15.6 188.1 13.7 187.5 13.9 C 187.2 14.0 187.1 14.2 187.0 14.6 Z M 189.5 6.8 C 188.9 5.4 186.8 5.6 187.9 7.8 C 189.0 10.0 189.9 10.1 189.6 9.0 C 189.3 7.9 190.3 8.8 189.5 6.8 Z M 189.5 18.2 C 187.9 17.9 188.4 18.6 189.5 19.0 C 189.8 19.1 190.4 18.4 189.5 18.2 Z M 189.7 21.4 C 189.6 21.8 189.6 21.8 189.8 21.6 C 190.2 21.3 189.9 21.0 189.7 21.4 Z M 191.6 4.5 C 191.3 3.9 190.7 3.6 191.1 3.6 C 191.5 3.5 191.3 3.5 191.0 3.1 C 190.7 2.7 190.7 3.5 190.7 3.8 C 190.8 4.1 191.8 5.0 191.6 4.5 Z M 196.7 16.7 C 196.4 16.6 196.5 17.0 196.8 17.0 C 197.0 17.0 196.9 16.9 196.7 16.7 Z M 198.3 28.8 C 198.3 28.8 198.2 28.5 198.0 28.8 C 197.8 29.1 197.8 29.1 198.3 28.8 Z M 197.8 38.5 C 198.0 38.3 197.3 38.2 197.4 37.7 C 197.4 37.5 197.7 37.8 197.8 37.9 C 197.7 37.8 197.6 36.6 197.1 37.4 C 196.9 37.7 197.1 39.2 197.8 38.5 Z M 196.3 20.1 C 196.7 20.6 197.1 18.6 197.5 18.9 C 197.9 19.2 197.9 19.0 197.5 18.6 C 197.1 18.1 195.8 19.5 196.3 20.1 Z M 195.9 14.9 C 196.0 15.3 197.0 16.1 196.8 15.6 C 196.5 15.1 195.9 14.7 196.3 14.7 C 196.7 14.7 196.5 14.6 196.2 14.3 C 195.9 13.9 195.9 14.6 195.9 14.9 Z M 195.6 6.3 C 195.7 6.5 196.3 6.8 196.1 6.4 C 195.9 6.2 195.5 6.1 195.6 6.3 Z M 195.0 30.3 C 195.2 29.9 195.1 29.7 194.7 30.1 C 194.3 30.5 194.9 30.6 195.0 30.3 Z M 194.1 7.1 C 194.6 7.6 194.3 6.8 194.7 7.1 C 195.0 7.5 195.1 7.3 194.6 6.8 C 194.2 6.4 193.7 6.6 194.1 7.1 Z M 193.7 38.1 C 193.8 37.9 193.6 37.5 193.5 37.7 C 193.3 38.0 193.7 38.3 193.7 38.1 Z M 192.5 34.9 C 192.6 34.8 192.8 34.8 192.9 34.7 C 194.9 33.3 191.1 34.4 192.5 34.9 Z M 192.8 29.9 C 192.9 30.6 193.3 29.8 193.2 29.8 C 193.0 29.6 192.9 29.7 192.8 29.9 Z M 192.7 24.5 C 192.5 24.3 192.5 24.9 192.8 24.8 C 193.1 24.7 193.0 24.6 192.7 24.5 Z M 191.8 42.0 C 192.1 41.9 192.0 41.8 191.8 41.8 C 191.6 41.8 191.5 42.1 191.8 42.0 Z M 191.6 28.5 C 191.7 28.6 191.8 28.6 191.7 28.3 C 191.6 28.0 191.4 28.4 191.6 28.5 Z M 191.5 11.9 C 191.6 12.1 191.8 12.2 191.9 12.4 C 192.2 12.2 192.3 11.2 192.6 11.2 C 192.7 11.2 192.7 11.2 192.7 11.2 C 192.7 11.2 192.7 11.2 192.8 11.2 C 193.0 11.2 193.1 11.4 192.9 11.4 C 193.0 11.5 193.1 11.7 193.1 11.9 C 193.4 11.6 193.6 11.2 193.4 11.0 C 193.1 10.6 192.4 10.5 191.8 10.6 C 191.7 10.8 191.6 11.0 191.5 11.3 C 191.5 11.3 191.6 11.3 191.6 11.3 C 192.0 11.5 192.1 11.8 191.9 11.8 C 191.7 11.8 191.5 11.7 191.5 11.6 C 191.4 11.7 191.4 11.8 191.5 11.9 Z M 190.8 26.4 C 191.0 26.8 191.2 26.5 191.3 26.0 C 191.4 25.6 190.6 26.0 190.8 26.4 Z M 191.2 41.4 C 191.2 41.2 191.1 41.1 191.0 41.0 C 191.0 41.1 191.0 41.2 191.0 41.3 C 190.9 41.5 190.8 41.8 190.8 42.1 C 191.1 42.1 191.4 41.9 191.2 41.4 Z M 189.7 36.7 C 189.7 36.8 189.6 38.8 190.1 38.4 C 190.8 37.9 191.5 38.7 191.2 37.3 C 191.1 36.6 190.1 36.0 189.9 35.3 C 189.0 31.9 188.9 36.3 188.7 37.2 C 188.7 37.4 189.6 36.4 189.7 36.7 Z M 188.6 32.1 C 188.3 31.9 187.9 32.4 187.9 32.7 C 188.1 33.5 189.0 32.3 188.6 32.1 Z M 188.1 41.9 C 188.1 41.9 188.2 41.9 188.3 41.8 C 188.3 41.8 188.2 41.7 188.1 41.7 C 188.1 41.7 188.1 41.8 188.1 41.9 Z M 187.7 44.3 C 188.8 43.4 186.9 43.5 186.4 43.7 C 185.8 44.0 187.2 44.7 187.7 44.3 Z M 187.0 34.7 C 187.0 34.0 185.0 33.2 185.1 34.4 C 185.2 35.6 186.9 36.2 187.0 34.7 Z M 184.4 27.4 C 184.6 27.6 184.2 28.4 184.0 28.0 C 183.8 27.8 184.3 27.3 184.4 27.4 Z M 183.3 38.2 C 183.4 38.0 183.5 38.3 183.5 38.3 C 183.2 38.5 183.2 38.5 183.3 38.2 Z M 184.8 37.3 C 184.6 37.6 184.5 38.0 184.4 38.3 C 184.3 38.5 184.2 37.8 184.2 37.7 C 184.2 37.5 184.7 37.3 184.8 37.3 Z M 184.9 31.4 C 184.7 31.8 184.7 31.3 184.7 31.0 C 184.8 30.8 185.1 31.2 184.9 31.4 Z M 184.4 32.8 C 184.5 32.6 184.8 32.8 184.7 33.0 C 184.7 33.4 184.4 33.0 184.4 32.8 Z M 185.6 30.4 C 185.8 31.0 185.9 31.9 185.4 31.8 C 185.1 31.8 185.3 29.2 185.6 30.4 Z M 185.6 30.4 " fill="#5E416F"></path></g></svg>