<?xml version="1.0" encoding="UTF-8" standalone="no"?><svg xmlns="http://www.w3.org/2000/svg" xmlns:xlink="http://www.w3.org/1999/xlink" clip-rule="evenodd" stroke-miterlimit="10" viewBox="0 0 1024 768"><desc>SVG generated by Keynote</desc><defs></defs><g transform="matrix(1.00, 0.00, -0.00, -1.00, 0.0, 768.0)"><path d="M 0.0 768.0 L 1024.0 768.0 L 1024.0 0.0 L 0.0 0.0 Z M 0.0 768.0 " fill="#FEFFFF"></path><image xlink:href="../../A0E65FB9-4FA2-4746-ADD5-CC19185CE917/assets/BBE4DF46246FA97E340356884CCE1D87.jpeg" width="1024.00" height="1024.00" transform="matrix(1.00, 0.00, -0.00, -1.00, 0.0, 987.0)"></image><text xml:space="preserve" font-family="AvenirNext-Medium,Avenir Next" font-size="38.0" fill="#FFFFFF" transform="matrix(1.00, 0.00, -0.00, -1.00, 30.3, 259.3)">M</text><text xml:space="preserve" font-family="AvenirNext-Medium,Avenir Next" font-size="38.0" fill="#FFFFFF" transform="matrix(1.00, 0.00, -0.00, -1.00, 64.7, 259.3)">i</text><text xml:space="preserve" font-family="AvenirNext-Medium,Avenir Next" font-size="38.0" fill="#FFFFFF" transform="matrix(1.00, 0.00, -0.00, -1.00, 74.5, 259.3)">k</text><text xml:space="preserve" font-family="AvenirNext-Medium,Avenir Next" font-size="38.0" fill="#FFFFFF" transform="matrix(1.00, 0.00, -0.00, -1.00, 94.3, 259.3)">a</text><text xml:space="preserve" font-family="AvenirNext-Medium,Avenir Next" font-size="38.0" fill="#FFFFFF" transform="matrix(1.00, 0.00, -0.00, -1.00, 114.9, 259.3)">ë</text><text xml:space="preserve" font-family="AvenirNext-Medium,Avenir Next" font-size="38.0" fill="#FFFFFF" transform="matrix(1.00, 0.00, -0.00, -1.00, 136.7, 259.3)">l</text><text xml:space="preserve" font-family="AvenirNext-Medium,Avenir Next" font-size="38.0" fill="#FFFFFF" transform="matrix(1.00, 0.00, -0.00, -1.00, 146.5, 259.3)"> </text><text xml:space="preserve" font-family="AvenirNext-Medium,Avenir Next" font-size="38.0" fill="#FFFFFF" transform="matrix(1.00, 0.00, -0.00, -1.00, 156.0, 259.3)">B</text><text xml:space="preserve" font-family="AvenirNext-Medium,Avenir Next" font-size="38.0" fill="#FFFFFF" transform="matrix(1.00, 0.00, -0.00, -1.00, 180.4, 259.3)">a</text><text xml:space="preserve" font-family="AvenirNext-Medium,Avenir Next" font-size="38.0" fill="#FFFFFF" transform="matrix(1.00, 0.00, -0.00, -1.00, 201.0, 259.3)">r</text><text xml:space="preserve" font-family="AvenirNext-Medium,Avenir Next" font-size="38.0" fill="#FFFFFF" transform="matrix(1.00, 0.00, -0.00, -1.00, 214.8, 259.3)">b</text><text xml:space="preserve" font-family="AvenirNext-Medium,Avenir Next" font-size="38.0" fill="#FFFFFF" transform="matrix(1.00, 0.00, -0.00, -1.00, 239.0, 259.3)">e</text><text xml:space="preserve" font-family="AvenirNext-Medium,Avenir Next" font-size="38.0" fill="#FFFFFF" transform="matrix(1.00, 0.00, -0.00, -1.00, 260.7, 259.3)">r</text><text xml:space="preserve" font-family="AvenirNext-Medium,Avenir Next" font-size="38.0" fill="#FFFFFF" transform="matrix(1.00, 0.00, -0.00, -1.00, 273.8, 259.3)">o</text><text xml:space="preserve" font-family="AvenirNext-Medium,Avenir Next" font-size="38.0" fill="#FFFFFF" transform="matrix(1.00, 0.00, -0.00, -1.00, 297.0, 259.3)"> </text><text xml:space="preserve" font-family="AvenirNext-Regular,Avenir Next" font-size="24.0" fill="#FFFFFF" transform="matrix(1.00, 0.00, -0.00, -1.00, 30.3, 221.2)">m</text><text xml:space="preserve" font-family="AvenirNext-Regular,Avenir Next" font-size="24.0" fill="#FFFFFF" transform="matrix(1.00, 0.00, -0.00, -1.00, 51.5, 221.2)">i</text><text xml:space="preserve" font-family="AvenirNext-Regular,Avenir Next" font-size="24.0" fill="#FFFFFF" transform="matrix(1.00, 0.00, -0.00, -1.00, 57.5, 221.2)">k</text><text xml:space="preserve" font-family="AvenirNext-Regular,Avenir Next" font-size="24.0" fill="#FFFFFF" transform="matrix(1.00, 0.00, -0.00, -1.00, 69.6, 221.2)">a</text><text xml:space="preserve" font-family="AvenirNext-Regular,Avenir Next" font-size="24.0" fill="#FFFFFF" transform="matrix(1.00, 0.00, -0.00, -1.00, 82.4, 221.2)">e</text><text xml:space="preserve" font-family="AvenirNext-Regular,Avenir Next" font-size="24.0" fill="#FFFFFF" transform="matrix(1.00, 0.00, -0.00, -1.00, 96.2, 221.2)">l</text><text xml:space="preserve" font-family="AvenirNext-Regular,Avenir Next" font-size="24.0" fill="#FFFFFF" transform="matrix(1.00, 0.00, -0.00, -1.00, 102.2, 221.2)">.</text><text xml:space="preserve" font-family="AvenirNext-Regular,Avenir Next" font-size="24.0" fill="#FFFFFF" transform="matrix(1.00, 0.00, -0.00, -1.00, 108.5, 221.2)">b</text><text xml:space="preserve" font-family="AvenirNext-Regular,Avenir Next" font-size="24.0" fill="#FFFFFF" transform="matrix(1.00, 0.00, -0.00, -1.00, 123.8, 221.2)">a</text><text xml:space="preserve" font-family="AvenirNext-Regular,Avenir Next" font-size="24.0" fill="#FFFFFF" transform="matrix(1.00, 0.00, -0.00, -1.00, 136.6, 221.2)">r</text><text xml:space="preserve" font-family="AvenirNext-Regular,Avenir Next" font-size="24.0" fill="#FFFFFF" transform="matrix(1.00, 0.00, -0.00, -1.00, 145.2, 221.2)">b</text><text xml:space="preserve" font-family="AvenirNext-Regular,Avenir Next" font-size="24.0" fill="#FFFFFF" transform="matrix(1.00, 0.00, -0.00, -1.00, 160.5, 221.2)">e</text><text xml:space="preserve" font-family="AvenirNext-Regular,Avenir Next" font-size="24.0" fill="#FFFFFF" transform="matrix(1.00, 0.00, -0.00, -1.00, 174.2, 221.2)">r</text><text xml:space="preserve" font-family="AvenirNext-Regular,Avenir Next" font-size="24.0" fill="#FFFFFF" transform="matrix(1.00, 0.00, -0.00, -1.00, 182.4, 221.2)">o</text><text xml:space="preserve" font-family="AvenirNext-Regular,Avenir Next" font-size="24.0" fill="#FFFFFF" transform="matrix(1.00, 0.00, -0.00, -1.00, 197.1, 221.2)">@</text><text xml:space="preserve" font-family="AvenirNext-Regular,Avenir Next" font-size="24.0" fill="#FFFFFF" transform="matrix(1.00, 0.00, -0.00, -1.00, 216.3, 221.2)">o</text><text xml:space="preserve" font-family="AvenirNext-Regular,Avenir Next" font-size="24.0" fill="#FFFFFF" transform="matrix(1.00, 0.00, -0.00, -1.00, 231.0, 221.2)">b</text><text xml:space="preserve" font-family="AvenirNext-Regular,Avenir Next" font-size="24.0" fill="#FFFFFF" transform="matrix(1.00, 0.00, -0.00, -1.00, 246.2, 221.2)">e</text><text xml:space="preserve" font-family="AvenirNext-Regular,Avenir Next" font-size="24.0" fill="#FFFFFF" transform="matrix(1.00, 0.00, -0.00, -1.00, 260.0, 221.2)">o</text><text xml:space="preserve" font-family="AvenirNext-Regular,Avenir Next" font-size="24.0" fill="#FFFFFF" transform="matrix(1.00, 0.00, -0.00, -1.00, 274.4, 221.2)">.</text><text xml:space="preserve" font-family="AvenirNext-Regular,Avenir Next" font-size="24.0" fill="#FFFFFF" transform="matrix(1.00, 0.00, -0.00, -1.00, 280.6, 221.2)">f</text><text xml:space="preserve" font-family="AvenirNext-Regular,Avenir Next" font-size="24.0" fill="#FFFFFF" transform="matrix(1.00, 0.00, -0.00, -1.00, 287.7, 221.2)">r</text><text xml:space="preserve" font-family="AvenirNext-Regular,Avenir Next" font-size="24.0" fill="#FFFFFF" transform="matrix(1.00, 0.00, -0.00, -1.00, 296.3, 221.2)"> </text><g><clipPath id="clip0x6080024ae520"><path d="M 29.3 217.8 L 296.3 217.8 L 296.3 221.0 L 29.3 221.0 Z M 29.3 217.8 "></path></clipPath><g clip-path="url(#clip0x6080024ae520)"><path d="M 4.0 82.0 L 270.0 82.0 " fill="none" stroke="#FFFFFF" stroke-width="1.20" transform="matrix(1.00, 0.00, 0.00, -1.00, 26.3, 301.4)"></path></g></g><text xml:space="preserve" font-family="AvenirNext-Regular,Avenir Next" font-size="24.0" fill="#FFFFFF" transform="matrix(1.00, 0.00, -0.00, -1.00, 30.3, 188.2)">+</text><text xml:space="preserve" font-family="AvenirNext-Regular,Avenir Next" font-size="24.0" fill="#FFFFFF" transform="matrix(1.00, 0.00, -0.00, -1.00, 46.3, 188.2)">M</text><text xml:space="preserve" font-family="AvenirNext-Regular,Avenir Next" font-size="24.0" fill="#FFFFFF" transform="matrix(1.00, 0.00, -0.00, -1.00, 67.6, 188.2)">i</text><text xml:space="preserve" font-family="AvenirNext-Regular,Avenir Next" font-size="24.0" fill="#FFFFFF" transform="matrix(1.00, 0.00, -0.00, -1.00, 73.6, 188.2)">k</text><text xml:space="preserve" font-family="AvenirNext-Regular,Avenir Next" font-size="24.0" fill="#FFFFFF" transform="matrix(1.00, 0.00, -0.00, -1.00, 85.7, 188.2)">a</text><text xml:space="preserve" font-family="AvenirNext-Regular,Avenir Next" font-size="24.0" fill="#FFFFFF" transform="matrix(1.00, 0.00, -0.00, -1.00, 98.5, 188.2)">ë</text><text xml:space="preserve" font-family="AvenirNext-Regular,Avenir Next" font-size="24.0" fill="#FFFFFF" transform="matrix(1.00, 0.00, -0.00, -1.00, 112.2, 188.2)">l</text><text xml:space="preserve" font-family="AvenirNext-Regular,Avenir Next" font-size="24.0" fill="#FFFFFF" transform="matrix(1.00, 0.00, -0.00, -1.00, 118.3, 188.2)"> </text><text xml:space="preserve" font-family="AvenirNext-Regular,Avenir Next" font-size="24.0" fill="#FFFFFF" transform="matrix(1.00, 0.00, -0.00, -1.00, 124.3, 188.2)">B</text><text xml:space="preserve" font-family="AvenirNext-Regular,Avenir Next" font-size="24.0" fill="#FFFFFF" transform="matrix(1.00, 0.00, -0.00, -1.00, 139.5, 188.2)">a</text><text xml:space="preserve" font-family="AvenirNext-Regular,Avenir Next" font-size="24.0" fill="#FFFFFF" transform="matrix(1.00, 0.00, -0.00, -1.00, 152.4, 188.2)">r</text><text xml:space="preserve" font-family="AvenirNext-Regular,Avenir Next" font-size="24.0" fill="#FFFFFF" transform="matrix(1.00, 0.00, -0.00, -1.00, 161.0, 188.2)">b</text><text xml:space="preserve" font-family="AvenirNext-Regular,Avenir Next" font-size="24.0" fill="#FFFFFF" transform="matrix(1.00, 0.00, -0.00, -1.00, 176.3, 188.2)">e</text><text xml:space="preserve" font-family="AvenirNext-Regular,Avenir Next" font-size="24.0" fill="#FFFFFF" transform="matrix(1.00, 0.00, -0.00, -1.00, 190.0, 188.2)">r</text><text xml:space="preserve" font-family="AvenirNext-Regular,Avenir Next" font-size="24.0" fill="#FFFFFF" transform="matrix(1.00, 0.00, -0.00, -1.00, 198.2, 188.2)">o</text><text xml:space="preserve" font-family="AvenirNext-Regular,Avenir Next" font-size="24.0" fill="#FFFFFF" transform="matrix(1.00, 0.00, -0.00, -1.00, 212.9, 188.2)"> </text><text xml:space="preserve" font-family="AvenirNext-Regular,Avenir Next" font-size="24.0" fill="#FFFFFF" transform="matrix(1.00, 0.00, -0.00, -1.00, 30.3, 155.2)">@</text><text xml:space="preserve" font-family="AvenirNext-Regular,Avenir Next" font-size="24.0" fill="#FFFFFF" transform="matrix(1.00, 0.00, -0.00, -1.00, 49.5, 155.2)">m</text><text xml:space="preserve" font-family="AvenirNext-Regular,Avenir Next" font-size="24.0" fill="#FFFFFF" transform="matrix(1.00, 0.00, -0.00, -1.00, 70.7, 155.2)">i</text><text xml:space="preserve" font-family="AvenirNext-Regular,Avenir Next" font-size="24.0" fill="#FFFFFF" transform="matrix(1.00, 0.00, -0.00, -1.00, 76.7, 155.2)">k</text><text xml:space="preserve" font-family="AvenirNext-Regular,Avenir Next" font-size="24.0" fill="#FFFFFF" transform="matrix(1.00, 0.00, -0.00, -1.00, 89.0, 155.2)">b</text><text xml:space="preserve" font-family="AvenirNext-Regular,Avenir Next" font-size="24.0" fill="#FFFFFF" transform="matrix(1.00, 0.00, -0.00, -1.00, 104.3, 155.2)">a</text><text xml:space="preserve" font-family="AvenirNext-Regular,Avenir Next" font-size="24.0" fill="#FFFFFF" transform="matrix(1.00, 0.00, -0.00, -1.00, 117.1, 155.2)">r</text><text xml:space="preserve" font-family="AvenirNext-Regular,Avenir Next" font-size="24.0" fill="#FFFFFF" transform="matrix(1.00, 0.00, -0.00, -1.00, 125.7, 155.2)">b</text><text xml:space="preserve" font-family="AvenirNext-Regular,Avenir Next" font-size="24.0" fill="#FFFFFF" transform="matrix(1.00, 0.00, -0.00, -1.00, 141.0, 155.2)">e</text><text xml:space="preserve" font-family="AvenirNext-Regular,Avenir Next" font-size="24.0" fill="#FFFFFF" transform="matrix(1.00, 0.00, -0.00, -1.00, 154.7, 155.2)">r</text><text xml:space="preserve" font-family="AvenirNext-Regular,Avenir Next" font-size="24.0" fill="#FFFFFF" transform="matrix(1.00, 0.00, -0.00, -1.00, 162.9, 155.2)">o</text><text xml:space="preserve" font-family="AvenirNext-Medium,Avenir Next" font-size="38.0" fill="#F8F8F8" transform="matrix(1.00, 0.00, -0.00, -1.00, 30.3, 68.5)">O</text><text xml:space="preserve" font-family="AvenirNext-Medium,Avenir Next" font-size="38.0" fill="#F8F8F8" transform="matrix(1.00, 0.00, -0.00, -1.00, 62.6, 68.5)">b</text><text xml:space="preserve" font-family="AvenirNext-Medium,Avenir Next" font-size="38.0" fill="#F8F8F8" transform="matrix(1.00, 0.00, -0.00, -1.00, 86.8, 68.5)">e</text><text xml:space="preserve" font-family="AvenirNext-Medium,Avenir Next" font-size="38.0" fill="#F8F8F8" transform="matrix(1.00, 0.00, -0.00, -1.00, 108.5, 68.5)">o</text><text xml:space="preserve" font-family="AvenirNext-Medium,Avenir Next" font-size="38.0" fill="#F8F8F8" transform="matrix(1.00, 0.00, -0.00, -1.00, 131.7, 68.5)"> </text><text xml:space="preserve" font-family="AvenirNext-Regular,Avenir Next" font-size="24.0" fill="#F8F8F8" transform="matrix(1.00, 0.00, -0.00, -1.00, 30.3, 30.3)">h</text><text xml:space="preserve" font-family="AvenirNext-Regular,Avenir Next" font-size="24.0" fill="#F8F8F8" transform="matrix(1.00, 0.00, -0.00, -1.00, 44.3, 30.3)">t</text><text xml:space="preserve" font-family="AvenirNext-Regular,Avenir Next" font-size="24.0" fill="#F8F8F8" transform="matrix(1.00, 0.00, -0.00, -1.00, 51.7, 30.3)">t</text><text xml:space="preserve" font-family="AvenirNext-Regular,Avenir Next" font-size="24.0" fill="#F8F8F8" transform="matrix(1.00, 0.00, -0.00, -1.00, 59.3, 30.3)">p</text><text xml:space="preserve" font-family="AvenirNext-Regular,Avenir Next" font-size="24.0" fill="#F8F8F8" transform="matrix(1.00, 0.00, -0.00, -1.00, 74.5, 30.3)">:</text><text xml:space="preserve" font-family="AvenirNext-Regular,Avenir Next" font-size="24.0" fill="#F8F8F8" transform="matrix(1.00, 0.00, -0.00, -1.00, 81.7, 30.3)">/</text><text xml:space="preserve" font-family="AvenirNext-Regular,Avenir Next" font-size="24.0" fill="#F8F8F8" transform="matrix(1.00, 0.00, -0.00, -1.00, 90.6, 30.3)">/</text><text xml:space="preserve" font-family="AvenirNext-Regular,Avenir Next" font-size="24.0" fill="#F8F8F8" transform="matrix(1.00, 0.00, -0.00, -1.00, 99.5, 30.3)">w</text><text xml:space="preserve" font-family="AvenirNext-Regular,Avenir Next" font-size="24.0" fill="#F8F8F8" transform="matrix(1.00, 0.00, -0.00, -1.00, 117.4, 30.3)">w</text><text xml:space="preserve" font-family="AvenirNext-Regular,Avenir Next" font-size="24.0" fill="#F8F8F8" transform="matrix(1.00, 0.00, -0.00, -1.00, 135.3, 30.3)">w</text><text xml:space="preserve" font-family="AvenirNext-Regular,Avenir Next" font-size="24.0" fill="#F8F8F8" transform="matrix(1.00, 0.00, -0.00, -1.00, 152.3, 30.3)">.</text><text xml:space="preserve" font-family="AvenirNext-Regular,Avenir Next" font-size="24.0" fill="#F8F8F8" transform="matrix(1.00, 0.00, -0.00, -1.00, 158.6, 30.3)">o</text><text xml:space="preserve" font-family="AvenirNext-Regular,Avenir Next" font-size="24.0" fill="#F8F8F8" transform="matrix(1.00, 0.00, -0.00, -1.00, 173.2, 30.3)">b</text><text xml:space="preserve" font-family="AvenirNext-Regular,Avenir Next" font-size="24.0" fill="#F8F8F8" transform="matrix(1.00, 0.00, -0.00, -1.00, 188.5, 30.3)">e</text><text xml:space="preserve" font-family="AvenirNext-Regular,Avenir Next" font-size="24.0" fill="#F8F8F8" transform="matrix(1.00, 0.00, -0.00, -1.00, 202.2, 30.3)">o</text><text xml:space="preserve" font-family="AvenirNext-Regular,Avenir Next" font-size="24.0" fill="#F8F8F8" transform="matrix(1.00, 0.00, -0.00, -1.00, 216.6, 30.3)">.</text><text xml:space="preserve" font-family="AvenirNext-Regular,Avenir Next" font-size="24.0" fill="#F8F8F8" transform="matrix(1.00, 0.00, -0.00, -1.00, 222.8, 30.3)">f</text><text xml:space="preserve" font-family="AvenirNext-Regular,Avenir Next" font-size="24.0" fill="#F8F8F8" transform="matrix(1.00, 0.00, -0.00, -1.00, 229.9, 30.3)">r</text><g><clipPath id="clip0x6080024b1340"><path d="M 29.3 26.9 L 238.6 26.9 L 238.6 30.1 L 29.3 30.1 Z M 29.3 26.9 "></path></clipPath><g clip-path="url(#clip0x6080024b1340)"><path d="M 4.0 82.0 L 212.2 82.0 " fill="none" stroke="#F8F8F8" stroke-width="1.20" transform="matrix(1.00, 0.00, 0.00, -1.00, 26.3, 110.6)"></path></g></g></g></svg>